<?xml version="1.0" encoding="utf-8"?>
<!-- Generator: Adobe Illustrator 21.1.0, SVG Export Plug-In . SVG Version: 6.00 Build 0)  -->
<svg version="1.0"
	 id="Layer_1" inkscape:version="0.92.2 (unknown)" sodipodi:docname="3do.svg" xmlns:cc="http://creativecommons.org/ns#" xmlns:dc="http://purl.org/dc/elements/1.1/" xmlns:inkscape="http://www.inkscape.org/namespaces/inkscape" xmlns:rdf="http://www.w3.org/1999/02/22-rdf-syntax-ns#" xmlns:sodipodi="http://sodipodi.sourceforge.net/DTD/sodipodi-0.dtd" xmlns:svg="http://www.w3.org/2000/svg"
	 xmlns="http://www.w3.org/2000/svg" xmlns:xlink="http://www.w3.org/1999/xlink" x="0px" y="0px" width="313.4px" height="95.6px"
	 viewBox="0 0 313.4 95.6" enable-background="new 0 0 313.4 95.6" xml:space="preserve">
<sodipodi:namedview  bordercolor="#666666" borderopacity="1" fit-margin-bottom="0" fit-margin-left="0" fit-margin-right="0" fit-margin-top="0" gridtolerance="10" guidetolerance="10" id="namedview21" inkscape:current-layer="Layer_1" inkscape:cx="157.25" inkscape:cy="47.250001" inkscape:pagecheckerboard="true" inkscape:pageopacity="0" inkscape:pageshadow="2" inkscape:window-height="1055" inkscape:window-maximized="1" inkscape:window-width="1920" inkscape:window-x="0" inkscape:window-y="0" inkscape:zoom="0.58848891" objecttolerance="10" pagecolor="#ffffff" showgrid="false">
	</sodipodi:namedview>
<title  id="title2">3DO Logo</title>
<path id="path4" inkscape:connector-curvature="0" fill="#FFFFFF" d="M34.8,85.2c0-1.2,5.4-2.1,12-2.1s12,0.9,12,2.1
	s-5.4,2.1-12,2.1S34.8,86.3,34.8,85.2z"/>
<g id="g12" transform="translate(-74.7,-0.6)">
	<path id="path6" inkscape:connector-curvature="0" fill="#FFFFFF" d="M346.7,23.7c-1.4-1.5-3.6-2.3-6.7-2.3c-2.6,0-4.7,0.6-6.3,1.9
		c-1.6,1.2-2.5,3.2-2.9,6s-0.6,8.1-0.6,16.1c0,7.9,0.2,13.2,0.5,15.7c0.3,2.6,1.2,4.6,2.6,6.1s3.7,2.3,6.7,2.3
		c2.5,0,4.6-0.6,6.2-1.8c1.6-1.2,2.6-3.2,3-6c0.4-2.8,0.6-8.2,0.6-16.2c0-7.9-0.2-13.1-0.5-15.7C348.9,27.3,348.1,25.2,346.7,23.7
		L346.7,23.7z"/>
	<path id="path8" inkscape:connector-curvature="0" fill="#FFFFFF" d="M271.8,23.5c-1.8-1-4.1-1.4-6.9-1.4h-7.1v46.7h4.6
		c7,0,11.2-1.8,12.7-5.5c1.5-3.7,2.2-9.9,2.2-18.8c0-6.9-0.4-11.9-1.3-15C275,26.5,273.6,24.5,271.8,23.5L271.8,23.5z"/>
	<path id="path10" inkscape:connector-curvature="0" fill="#FFFFFF" d="M74.7,0.6v95.6h313.4V0.6H74.7z M164.3,90.7H78.8V5.2h85.5
		L164.3,90.7z M209.5,68.1c-3.8,2.7-8.8,4.1-15.1,4.1c-5.4,0-9.6-1.1-12.6-3.3c-3-2.2-4.5-4.6-4.5-7.4c0-1.8,0.7-3.3,2-4.5
		c1.3-1.1,2.9-1.7,4.8-1.7c1.7,0,3.2,0.5,4.5,1.5s1.9,2.3,1.9,3.9c0,2.2-1.4,4-4.3,5.4c-0.6,0.3-0.9,0.6-0.9,1
		c0,0.7,0.8,1.2,2.4,1.8c1.6,0.5,3.3,0.7,5,0.7c5.6,0,8.4-4.1,8.4-12.3c0-8.1-3.4-12.2-10-12.2l-5.6,0.2c-1.1,0-1.7-0.4-1.7-1.2
		c0-0.9,0.6-1.4,1.8-1.4l4.1,0.2c4.1,0,6.9-0.9,8.3-2.8c1.4-1.8,2.1-4.4,2.1-7.8c0-3.5-0.5-6.1-1.6-7.7s-2.9-2.5-5.5-2.5
		c-1.4,0-2.7,0.2-4,0.7c-1.2,0.5-1.9,0.9-1.9,1.4c0,0.4,0.4,0.9,1.2,1.3c2.1,1.4,3.2,2.8,3.2,4.4s-0.6,2.8-1.8,3.7s-2.5,1.4-4,1.4
		c-1.7,0-3.3-0.5-4.6-1.6s-2-2.4-2-3.9c0-2.7,1.5-5,4.5-6.9s6.9-2.9,11.6-2.9c5.2,0,9.6,1.1,13.2,3.3c3.6,2.2,5.4,5,5.4,8.5
		c0,6.8-6.3,10.9-19,12.3V44c7,0.1,12.1,1.5,15.5,4.2c3.3,2.6,5,5.8,5,9.6C215.2,62,213.3,65.4,209.5,68.1L209.5,68.1z M291,55.7
		c-1.5,3.3-3.8,6.4-7,9.1c-3.1,2.7-6.3,4.5-9.6,5.3c-3.3,0.8-7.3,1.2-12.1,1.2h-25.9v-2.5h7.3V22.1h-7.3v-2.5h29.3
		c8.5,0,15.2,2.4,20.1,7.2s7.4,10.9,7.4,18.2C293.3,48.8,292.5,52.4,291,55.7L291,55.7z M358.4,64.8c-5,4.8-11,7.2-18.1,7.2
		c-7.7,0-14-2.6-18.9-7.7c-4.8-5.1-7.3-11.5-7.3-19.1c0-7.7,2.5-14.1,7.7-19c5.1-4.9,11.2-7.4,18.4-7.4c6.6,0,12.6,2.3,17.8,6.9
		c5.2,4.6,7.9,11.2,7.9,19.7C365.8,53.5,363.3,59.9,358.4,64.8z"/>
</g>
<path id="path14" inkscape:connector-curvature="0" fill="#FFFFFF" d="M36.6,65.2c0-5.7,4.6-10.3,10.2-10.3S57,59.5,57,65.2
	s-4.6,10.3-10.2,10.3S36.6,70.9,36.6,65.2z"/>
<path id="path16" inkscape:connector-curvature="0" fill="#FFFFFF" d="M37.3,38.5c-1.5,1-1.9,6.8-1.9,6.8s0.4,5.8,1.9,6.8
	s9.5,1.6,9.5,1.6s8-0.6,9.5-1.6s1.9-6.8,1.9-6.8s-0.4-5.8-1.9-6.8s-9.5-1.6-9.5-1.6S38.8,37.5,37.3,38.5z"/>
<polygon id="polygon18" fill="#FFFFFF" points="46.8,12.1 58.8,24.2 46.8,36.2 34.8,24.2 "/>
</svg>
