<?xml version="1.0" encoding="UTF-8" standalone="no"?>
<svg
   xmlns:dc="http://purl.org/dc/elements/1.1/"
   xmlns:cc="http://creativecommons.org/ns#"
   xmlns:rdf="http://www.w3.org/1999/02/22-rdf-syntax-ns#"
   xmlns:svg="http://www.w3.org/2000/svg"
   xmlns="http://www.w3.org/2000/svg"
   xmlns:sodipodi="http://sodipodi.sourceforge.net/DTD/sodipodi-0.dtd"
   xmlns:inkscape="http://www.inkscape.org/namespaces/inkscape"
   version="1.0"
   id="Layer_1"
   inkscape:version="1.0 (4035a4fb49, 2020-05-01)"
   sodipodi:docname="3do.svg"
   x="0px"
   y="0px"
   width="323.39999"
   height="105.6"
   viewBox="0 0 323.4 105.6"
   enable-background="new 0 0 313.4 95.6"
   xml:space="preserve"><metadata
   id="metadata15"><rdf:RDF><cc:Work
       rdf:about=""><dc:format>image/svg+xml</dc:format><dc:type
         rdf:resource="http://purl.org/dc/dcmitype/StillImage" /><dc:title>3DO Logo</dc:title></cc:Work></rdf:RDF></metadata><defs
   id="defs13" />
<sodipodi:namedview
   bordercolor="#666666"
   borderopacity="1"
   fit-margin-bottom="5"
   fit-margin-left="5"
   fit-margin-right="5"
   fit-margin-top="5"
   gridtolerance="10"
   guidetolerance="10"
   id="namedview21"
   inkscape:current-layer="Layer_1"
   inkscape:cx="157.25"
   inkscape:cy="47.250001"
   inkscape:pagecheckerboard="true"
   inkscape:pageopacity="0"
   inkscape:pageshadow="2"
   inkscape:window-height="1017"
   inkscape:window-maximized="1"
   inkscape:window-width="1920"
   inkscape:window-x="-8"
   inkscape:window-y="-8"
   inkscape:zoom="0.58848891"
   objecttolerance="10"
   pagecolor="#ffffff"
   showgrid="false"
   inkscape:document-rotation="0"
   lock-margins="true">
	</sodipodi:namedview>
<title
   id="title2">3DO Logo</title>
<path
   id="path4"
   inkscape:connector-curvature="0"
   fill="#ffffff"
   d="m 39.8,90.2 c 0,-1.2 5.4,-2.1 12,-2.1 6.6,0 12,0.9 12,2.1 0,1.2 -5.4,2.1 -12,2.1 -6.6,0 -12,-1 -12,-2.1 z" />
<g
   id="g12"
   transform="translate(-69.7,4.4)">
	<path
   id="path6"
   inkscape:connector-curvature="0"
   fill="#ffffff"
   d="m 346.7,23.7 c -1.4,-1.5 -3.6,-2.3 -6.7,-2.3 -2.6,0 -4.7,0.6 -6.3,1.9 -1.6,1.2 -2.5,3.2 -2.9,6 -0.4,2.8 -0.6,8.1 -0.6,16.1 0,7.9 0.2,13.2 0.5,15.7 0.3,2.6 1.2,4.6 2.6,6.1 1.4,1.5 3.7,2.3 6.7,2.3 2.5,0 4.6,-0.6 6.2,-1.8 1.6,-1.2 2.6,-3.2 3,-6 0.4,-2.8 0.6,-8.2 0.6,-16.2 0,-7.9 -0.2,-13.1 -0.5,-15.7 -0.4,-2.5 -1.2,-4.6 -2.6,-6.1 z" />
	<path
   id="path8"
   inkscape:connector-curvature="0"
   fill="#ffffff"
   d="m 271.8,23.5 c -1.8,-1 -4.1,-1.4 -6.9,-1.4 h -7.1 v 46.7 h 4.6 c 7,0 11.2,-1.8 12.7,-5.5 1.5,-3.7 2.2,-9.9 2.2,-18.8 0,-6.9 -0.4,-11.9 -1.3,-15 -1,-3 -2.4,-5 -4.2,-6 z" />
	<path
   id="path10"
   inkscape:connector-curvature="0"
   fill="#ffffff"
   d="M 74.7,0.6 V 96.2 H 388.1 V 0.6 Z m 89.6,90.1 H 78.8 V 5.2 h 85.5 z m 45.2,-22.6 c -3.8,2.7 -8.8,4.1 -15.1,4.1 -5.4,0 -9.6,-1.1 -12.6,-3.3 -3,-2.2 -4.5,-4.6 -4.5,-7.4 0,-1.8 0.7,-3.3 2,-4.5 1.3,-1.1 2.9,-1.7 4.8,-1.7 1.7,0 3.2,0.5 4.5,1.5 1.3,1 1.9,2.3 1.9,3.9 0,2.2 -1.4,4 -4.3,5.4 -0.6,0.3 -0.9,0.6 -0.9,1 0,0.7 0.8,1.2 2.4,1.8 1.6,0.5 3.3,0.7 5,0.7 5.6,0 8.4,-4.1 8.4,-12.3 0,-8.1 -3.4,-12.2 -10,-12.2 l -5.6,0.2 c -1.1,0 -1.7,-0.4 -1.7,-1.2 0,-0.9 0.6,-1.4 1.8,-1.4 l 4.1,0.2 c 4.1,0 6.9,-0.9 8.3,-2.8 1.4,-1.8 2.1,-4.4 2.1,-7.8 0,-3.5 -0.5,-6.1 -1.6,-7.7 -1.1,-1.6 -2.9,-2.5 -5.5,-2.5 -1.4,0 -2.7,0.2 -4,0.7 -1.2,0.5 -1.9,0.9 -1.9,1.4 0,0.4 0.4,0.9 1.2,1.3 2.1,1.4 3.2,2.8 3.2,4.4 0,1.6 -0.6,2.8 -1.8,3.7 -1.2,0.9 -2.5,1.4 -4,1.4 -1.7,0 -3.3,-0.5 -4.6,-1.6 -1.3,-1.1 -2,-2.4 -2,-3.9 0,-2.7 1.5,-5 4.5,-6.9 3,-1.9 6.9,-2.9 11.6,-2.9 5.2,0 9.6,1.1 13.2,3.3 3.6,2.2 5.4,5 5.4,8.5 0,6.8 -6.3,10.9 -19,12.3 V 44 c 7,0.1 12.1,1.5 15.5,4.2 3.3,2.6 5,5.8 5,9.6 -0.1,4.2 -2,7.6 -5.8,10.3 z M 291,55.7 c -1.5,3.3 -3.8,6.4 -7,9.1 -3.1,2.7 -6.3,4.5 -9.6,5.3 -3.3,0.8 -7.3,1.2 -12.1,1.2 h -25.9 v -2.5 h 7.3 V 22.1 h -7.3 v -2.5 h 29.3 c 8.5,0 15.2,2.4 20.1,7.2 4.9,4.8 7.4,10.9 7.4,18.2 0.1,3.8 -0.7,7.4 -2.2,10.7 z m 67.4,9.1 c -5,4.8 -11,7.2 -18.1,7.2 -7.7,0 -14,-2.6 -18.9,-7.7 -4.8,-5.1 -7.3,-11.5 -7.3,-19.1 0,-7.7 2.5,-14.1 7.7,-19 5.1,-4.9 11.2,-7.4 18.4,-7.4 6.6,0 12.6,2.3 17.8,6.9 5.2,4.6 7.9,11.2 7.9,19.7 -0.1,8.1 -2.6,14.5 -7.5,19.4 z" />
</g>
<path
   id="path14"
   inkscape:connector-curvature="0"
   fill="#ffffff"
   d="m 41.6,70.2 c 0,-5.7 4.6,-10.3 10.2,-10.3 5.6,0 10.2,4.6 10.2,10.3 0,5.7 -4.6,10.3 -10.2,10.3 -5.6,0 -10.2,-4.6 -10.2,-10.3 z" />
<path
   id="path16"
   inkscape:connector-curvature="0"
   fill="#ffffff"
   d="m 42.3,43.5 c -1.5,1 -1.9,6.8 -1.9,6.8 0,0 0.4,5.8 1.9,6.8 1.5,1 9.5,1.6 9.5,1.6 0,0 8,-0.6 9.5,-1.6 1.5,-1 1.9,-6.8 1.9,-6.8 0,0 -0.4,-5.8 -1.9,-6.8 -1.5,-1 -9.5,-1.6 -9.5,-1.6 0,0 -8,0.6 -9.5,1.6 z" />
<polygon
   id="polygon18"
   fill="#ffffff"
   points="46.8,12.1 58.8,24.2 46.8,36.2 34.8,24.2 "
   transform="translate(5,5)" />
</svg>
