<?xml version="1.0" encoding="utf-8"?>
<!-- Generator: Adobe Illustrator 21.1.0, SVG Export Plug-In . SVG Version: 6.00 Build 0)  -->
<svg version="1.0" id="Layer_1" xmlns="http://www.w3.org/2000/svg" xmlns:xlink="http://www.w3.org/1999/xlink" x="0px" y="0px"
	 width="463.9px" height="97.9px" viewBox="0 0 463.9 97.9" enable-background="new 0 0 463.9 97.9" xml:space="preserve">
<title>3DO Logo</title>
<path fill="#FFFFFF" d="M90.8,85.8c0-1.2,5.4-2.1,12-2.1s12,0.9,12,2.1s-5.4,2.1-12,2.1C96.2,87.9,90.8,86.9,90.8,85.8z"/>
<g>
	<path fill="#FFFFFF" d="M346.7,23.7c-1.4-1.5-3.6-2.3-6.7-2.3c-2.6,0-4.7,0.6-6.3,1.9c-1.6,1.2-2.5,3.2-2.9,6s-0.6,8.1-0.6,16.1
		c0,7.9,0.2,13.2,0.5,15.7c0.3,2.6,1.2,4.6,2.6,6.1s3.7,2.3,6.7,2.3c2.5,0,4.6-0.6,6.2-1.8c1.6-1.2,2.6-3.2,3-6
		c0.4-2.8,0.6-8.2,0.6-16.2c0-7.9-0.2-13.1-0.5-15.7C348.9,27.3,348.1,25.2,346.7,23.7z"/>
	<path fill="#FFFFFF" d="M271.8,23.5c-1.8-1-4.1-1.4-6.9-1.4h-7.1v46.7h4.6c7,0,11.2-1.8,12.7-5.5s2.2-9.9,2.2-18.8
		c0-6.9-0.4-11.9-1.3-15C275,26.5,273.6,24.5,271.8,23.5z"/>
	<path fill="#FFFFFF" d="M74.7,0.6v95.6h313.4V0.6H74.7z M164.3,90.7H78.8V5.2h85.5V90.7z M209.5,68.1c-3.8,2.7-8.8,4.1-15.1,4.1
		c-5.4,0-9.6-1.1-12.6-3.3c-3-2.2-4.5-4.6-4.5-7.4c0-1.8,0.7-3.3,2-4.5c1.3-1.1,2.9-1.7,4.8-1.7c1.7,0,3.2,0.5,4.5,1.5
		s1.9,2.3,1.9,3.9c0,2.2-1.4,4-4.3,5.4c-0.6,0.3-0.9,0.6-0.9,1c0,0.7,0.8,1.2,2.4,1.8c1.6,0.5,3.3,0.7,5,0.7c5.6,0,8.4-4.1,8.4-12.3
		c0-8.1-3.4-12.2-10-12.2l-5.6,0.2c-1.1,0-1.7-0.4-1.7-1.2c0-0.9,0.6-1.4,1.8-1.4l4.1,0.2c4.1,0,6.9-0.9,8.3-2.8
		c1.4-1.8,2.1-4.4,2.1-7.8c0-3.5-0.5-6.1-1.6-7.7s-2.9-2.5-5.5-2.5c-1.4,0-2.7,0.2-4,0.7c-1.2,0.5-1.9,0.9-1.9,1.4
		c0,0.4,0.4,0.9,1.2,1.3c2.1,1.4,3.2,2.8,3.2,4.4s-0.6,2.8-1.8,3.7s-2.5,1.4-4,1.4c-1.7,0-3.3-0.5-4.6-1.6s-2-2.4-2-3.9
		c0-2.7,1.5-5,4.5-6.9s6.9-2.9,11.6-2.9c5.2,0,9.6,1.1,13.2,3.3s5.4,5,5.4,8.5c0,6.8-6.3,10.9-19,12.3V44c7,0.1,12.1,1.5,15.5,4.2
		c3.3,2.6,5,5.8,5,9.6C215.2,62,213.3,65.4,209.5,68.1z M291,55.7c-1.5,3.3-3.8,6.4-7,9.1c-3.1,2.7-6.3,4.5-9.6,5.3
		c-3.3,0.8-7.3,1.2-12.1,1.2h-25.9v-2.5h7.3V22.1h-7.3v-2.5h29.3c8.5,0,15.2,2.4,20.1,7.2s7.4,10.9,7.4,18.2
		C293.3,48.8,292.5,52.4,291,55.7z M358.4,64.8c-5,4.8-11,7.2-18.1,7.2c-7.7,0-14-2.6-18.9-7.7c-4.8-5.1-7.3-11.5-7.3-19.1
		c0-7.7,2.5-14.1,7.7-19c5.1-4.9,11.2-7.4,18.4-7.4c6.6,0,12.6,2.3,17.8,6.9c5.2,4.6,7.9,11.2,7.9,19.7
		C365.8,53.5,363.3,59.9,358.4,64.8z"/>
</g>
<path fill="#FFFFFF" d="M92.6,65.8c0-5.7,4.6-10.3,10.2-10.3S113,60.1,113,65.8s-4.6,10.3-10.2,10.3C97.2,76.1,92.6,71.5,92.6,65.8z
	"/>
<path fill="#FFFFFF" d="M93.3,39.1c-1.5,1-1.9,6.8-1.9,6.8s0.4,5.8,1.9,6.8s9.5,1.6,9.5,1.6s8-0.6,9.5-1.6s1.9-6.8,1.9-6.8
	s-0.4-5.8-1.9-6.8s-9.5-1.6-9.5-1.6S94.8,38.1,93.3,39.1z"/>
<polygon fill="#FFFFFF" points="102.9,12.7 114.9,24.8 102.9,36.8 90.9,24.8 "/>
</svg>
