<?xml version="1.0" encoding="UTF-8" standalone="no"?>
<svg
   xmlns:dc="http://purl.org/dc/elements/1.1/"
   xmlns:cc="http://creativecommons.org/ns#"
   xmlns:rdf="http://www.w3.org/1999/02/22-rdf-syntax-ns#"
   xmlns:svg="http://www.w3.org/2000/svg"
   xmlns="http://www.w3.org/2000/svg"
   xmlns:sodipodi="http://sodipodi.sourceforge.net/DTD/sodipodi-0.dtd"
   xmlns:inkscape="http://www.inkscape.org/namespaces/inkscape"
   width="397.02988"
   height="113.49397"
   viewBox="0 0 105.04749 30.028615"
   version="1.1"
   id="svg8"
   sodipodi:docname="action.svg"
   inkscape:version="1.0 (4035a4fb49, 2020-05-01)">
  <sodipodi:namedview
     inkscape:document-rotation="0"
     pagecolor="#ffffff"
     bordercolor="#666666"
     borderopacity="1"
     objecttolerance="10"
     gridtolerance="10"
     guidetolerance="10"
     inkscape:pageopacity="0"
     inkscape:pageshadow="2"
     inkscape:window-width="710"
     inkscape:window-height="480"
     id="namedview13"
     showgrid="false"
     inkscape:pagecheckerboard="true"
     lock-margins="true"
     fit-margin-top="5"
     fit-margin-left="5"
     fit-margin-right="5"
     fit-margin-bottom="5"
     inkscape:zoom="2.6225"
     inkscape:cx="197.6555"
     inkscape:cy="47.207774"
     inkscape:window-x="0"
     inkscape:window-y="0"
     inkscape:window-maximized="0"
     inkscape:current-layer="svg8" />
  <defs
     id="defs2" />
  <metadata
     id="metadata5">
    <rdf:RDF>
      <cc:Work
         rdf:about="">
        <dc:format>image/svg+xml</dc:format>
        <dc:type
           rdf:resource="http://purl.org/dc/dcmitype/StillImage" />
        <dc:title></dc:title>
      </cc:Work>
    </rdf:RDF>
  </metadata>
  <g
     style="fill:#ffffff"
     id="layer1"
     transform="translate(-0.62031692,-264.66584)">
    <g
       aria-label="ACTION"
       style="font-style:normal;font-variant:normal;font-weight:normal;font-stretch:normal;font-size:36.3212px;line-height:1.25;font-family:'New Walt Disney Font';-inkscape-font-specification:'New Walt Disney Font';letter-spacing:0px;word-spacing:0px;fill:#ffffff;fill-opacity:1;stroke:none;stroke-width:0.90803"
       id="text817">
      <path
         d="m 7.0154321,275.77846 h 6.5264649 l -3.369642,-6.06536 z m 17.2029109,17.59308 -8.93842,-14.01062 q -0.03547,0 -0.03547,0 0,-0.0355 0,-0.0355 l -1.205977,-2.48289 H 6.4124434 l -2.7311838,5.5333 h -1.738026 v -0.92221 q 0.6029886,-0.42564 1.5606764,-2.23461 l 6.739285,-12.62729 h 1.738026 l 12.875581,26.74432 z"
         style="font-style:normal;font-variant:normal;font-weight:normal;font-stretch:normal;font-family:'Resident Evil';-inkscape-font-specification:'Resident Evil';fill:#ffffff;stroke-width:0.90803"
         id="path838" />
      <path
         d="m 36.455465,278.93528 q -0.851278,1.0641 -2.057255,1.84444 -2.695714,1.77349 -5.852537,1.77349 -2.837593,0 -5.320488,-1.31238 -2.305544,-1.13504 -3.511522,-3.15683 -1.028627,-1.77349 -1.028627,-3.6534 0,-3.44058 3.121353,-5.85253 2.908533,-2.23461 7.129453,-2.23461 0,0 0.03547,0 0.03547,0 0.07094,0 h 5.781597 v 0.88675 h -5.781597 q -2.163665,0.0709 -3.830751,1.09957 -2.979473,1.91537 -2.979473,6.17176 0,3.19229 1.879905,5.00126 1.915376,1.98632 5.214078,1.98632 4.008101,0 6.632875,-2.8376 z"
         style="font-style:normal;font-variant:normal;font-weight:normal;font-stretch:normal;font-family:'Resident Evil';-inkscape-font-specification:'Resident Evil';fill:#ffffff;stroke-width:0.90803"
         id="path840" />
      <path
         d="m 46.245163,267.4785 h -3.227762 q -0.03547,0 -0.03547,0 0,0 0,0 h -4.930319 l 0.14188,-1.17051 h 20.288793 l 0.3547,3.86622 -0.993158,0.0355 q -0.17735,-1.41879 -0.851278,-1.91537 -0.602989,-0.46111 -1.383327,-0.63846 -0.886748,-0.17735 -2.234605,-0.17735 h -3.263233 v 12.379 q 0,1.13504 0.21282,1.56068 0.17735,0.42564 0.780338,0.46111 l 0.28376,0.0355 v 0.85127 h -6.774755 v -0.85127 l 0.390169,-0.0355 q 0.709398,-0.0355 0.993158,-0.46111 0.248289,-0.39017 0.248289,-1.56068 z"
         style="font-style:normal;font-variant:normal;font-weight:normal;font-stretch:normal;font-family:'Resident Evil';-inkscape-font-specification:'Resident Evil';fill:#ffffff;stroke-width:0.90803"
         id="path842" />
      <path
         d="m 65.469859,268.86182 v 11.10209 q 0,1.20598 0.354699,1.59615 0.3547,0.4611 1.383327,0.4611 l 0.567519,0.0355 v 0.42564 h -7.342273 v -0.42564 l 0.602988,-0.0355 q 0.957688,0 1.347857,-0.4611 0.390169,-0.42564 0.390169,-1.59615 v -11.10209 q 0,-1.09956 -0.390169,-1.56067 -0.354699,-0.42564 -1.347857,-0.49658 h -0.602988 v -0.46111 h 3.121353 2.163665 1.986315 v 0.99316 h -1.915375 q -0.31923,0.49658 -0.31923,1.5252 z"
         style="font-style:normal;font-variant:normal;font-weight:normal;font-stretch:normal;font-family:'Resident Evil';-inkscape-font-specification:'Resident Evil';fill:#ffffff;stroke-width:0.90803"
         id="path844" />
      <path
         d="m 78.487317,267.37209 q -1.631617,-0.0355 -2.695714,0.85128 l -1.028628,1.45426 q -0.532049,0.24829 -0.354699,3.08589 0.212819,2.83759 0.212819,2.83759 l -1.950845,-0.21282 q 0.141879,2.1282 1.241447,3.79528 0.744868,1.17051 2.128195,1.87991 1.099568,0.53205 2.447425,0.53205 3.156822,0 4.682029,-2.41196 1.312387,-1.91537 1.312387,-4.7175 0,-2.73118 -1.276917,-4.61109 -0.780338,-1.1705 -2.092725,-1.8799 -1.205978,-0.60299 -2.624774,-0.60299 z m 0,-0.95769 q 2.411954,0 4.682029,0.99316 2.624774,1.24145 3.830751,3.51152 0.922218,1.70256 0.922218,3.54699 0,3.58246 -2.802124,5.85254 -2.624774,2.2346 -6.597405,2.2346 -3.866221,0 -6.561935,-2.2346 -1.489736,-1.17051 -2.163665,-2.87306 -0.602988,-1.4188 -0.602988,-2.94401 0,-2.34101 1.276917,-4.22092 1.454266,-2.19913 4.32733,-3.22776 1.631616,-0.56752 3.688872,-0.63846 z"
         style="font-style:normal;font-variant:normal;font-weight:normal;font-stretch:normal;font-family:'Resident Evil';-inkscape-font-specification:'Resident Evil';fill:#ffffff;stroke-width:0.90803"
         id="path846" />
      <path
         d="M 103.88378,282.19851 90.618029,269.60669 v 10.07346 2.51836 h -1.454267 v -2.51836 -11.52772 -2.16367 h 2.057255 l 11.669603,11.2085 v -8.69013 -2.51837 h 1.45427 v 2.51837 0 13.69138 z"
         style="font-style:normal;font-variant:normal;font-weight:normal;font-stretch:normal;font-family:'Resident Evil';-inkscape-font-specification:'Resident Evil';fill:#ffffff;stroke-width:0.90803"
         id="path848" />
    </g>
  </g>
</svg>
