<?xml version="1.0" encoding="UTF-8" standalone="no"?>
<svg
   xmlns:dc="http://purl.org/dc/elements/1.1/"
   xmlns:cc="http://creativecommons.org/ns#"
   xmlns:rdf="http://www.w3.org/1999/02/22-rdf-syntax-ns#"
   xmlns:svg="http://www.w3.org/2000/svg"
   xmlns="http://www.w3.org/2000/svg"
   xmlns:sodipodi="http://sodipodi.sourceforge.net/DTD/sodipodi-0.dtd"
   xmlns:inkscape="http://www.inkscape.org/namespaces/inkscape"
   id="svg8"
   version="1.1"
   viewBox="0 0 107.22473 36.97943"
   height="139.76477"
   width="405.25882"
   sodipodi:docname="adventure.svg"
   inkscape:version="1.0 (4035a4fb49, 2020-05-01)">
  <sodipodi:namedview
     inkscape:document-rotation="0"
     pagecolor="#ffffff"
     bordercolor="#666666"
     borderopacity="1"
     objecttolerance="10"
     gridtolerance="10"
     guidetolerance="10"
     inkscape:pageopacity="0"
     inkscape:pageshadow="2"
     inkscape:window-width="700"
     inkscape:window-height="480"
     id="namedview28"
     showgrid="false"
     lock-margins="true"
     inkscape:pagecheckerboard="true"
     fit-margin-top="5"
     fit-margin-left="5"
     fit-margin-right="5"
     fit-margin-bottom="5"
     inkscape:zoom="2.6225"
     inkscape:cx="204.73897"
     inkscape:cy="62.29052"
     inkscape:window-x="0"
     inkscape:window-y="0"
     inkscape:window-maximized="0"
     inkscape:current-layer="svg8" />
  <defs
     id="defs2">
    <linearGradient
       id="b"
       y2="2522.0901"
       spreadMethod="reflect"
       gradientUnits="userSpaceOnUse"
       x2="-359.58301"
       gradientTransform="matrix(0.06003478,0,0,0.06003478,129.99099,184.21791)"
       y1="2522.0901"
       x1="-824.29797">
      <stop
         stop-color="#fff9b5"
         offset="0"
         id="stop963" />
      <stop
         stop-color="#fee360"
         offset=".788782"
         id="stop965" />
      <stop
         stop-color="#fece0c"
         offset="1"
         id="stop967" />
    </linearGradient>
    <linearGradient
       gradientTransform="matrix(0.06003478,0,0,0.06003478,130.02131,184.18001)"
       id="a"
       y2="2294.54"
       gradientUnits="userSpaceOnUse"
       x2="-948.18701"
       y1="2002.83"
       x1="-948.18701">
      <stop
         stop-color="#f05b20"
         offset="0"
         id="stop970" />
      <stop
         stop-color="#ffc90d"
         offset="1"
         id="stop972" />
    </linearGradient>
  </defs>
  <metadata
     id="metadata5">
    <rdf:RDF>
      <cc:Work
         rdf:about="">
        <dc:format>image/svg+xml</dc:format>
        <dc:type
           rdf:resource="http://purl.org/dc/dcmitype/StillImage" />
        <dc:title></dc:title>
      </cc:Work>
    </rdf:RDF>
  </metadata>
  <g
     transform="translate(1.2538534,-260.6752)"
     id="layer1">
    <path
       d="m 0.73532373,288.44324 -0.6662605,-0.6808 0.6785459,-0.56153 0.62560977,-0.48872 0.4436134,-0.75008 0.1189821,-0.9819 0.4414226,-1.65842 0.2559316,-0.59048 0.2139222,-1.20754 0.3469298,-0.66278 0.2104287,-0.63108 0.978225,-1.75977 -0.2786798,-0.0384 -0.3014307,0.31093 -0.1194408,-0.0782 0.3981144,-0.57725 0.2104288,-0.56282 0.3014296,-0.80008 0.096694,-1.14782 0.2559317,-1.05681 0.4151771,-0.62457 0.022759,-0.70197 0.21043,-0.67658 0.3071162,-0.70399 0.4379279,-0.79197 0.1194407,-0.85452 -0.3014307,-0.17814 0.045494,-0.28356 0.1592517,0.1024 0.1876918,-0.13957 -0.3696768,-0.0742 -0.6085483,-0.14523 -0.534614,-0.22143 -0.068253,-0.45906 0.8815401,-0.60627 1.0294133,0.40163 1.1374717,-0.33223 1.2341566,-0.0184 1.2341552,-0.20035 0.654049,-0.18951 0.699544,-0.12041 0.631297,0.63195 v 0.69955 l -0.375365,0.25063 -0.932728,0.19077 -0.02277,0.65649 0.119429,0.64126 0.489113,0.99409 0.04549,0.88235 0.557362,0.54318 0.164932,0.65913 0.21043,0.74526 0.301431,0.71277 0.11376,0.71013 0.255931,0.64937 -0.04549,0.32906 0.489111,0.48223 0.301431,0.64452 0.142172,0.82652 0.255931,0.5527 0.301432,0.55351 0.23318,0.6234 0.443615,0.97623 0.585798,0.68799 0.204746,0.34781 0.608549,0.35569 0.556929,0.22501 -1.989649,4.18057 -4.640534,-2.70615 -0.091,-0.45661 0.369677,-0.41495 0.119442,-0.41091 0.31764,-0.45186 0.21043,-0.74481 -0.398115,-0.93561 0.119441,-0.99102 -0.420865,-0.58054 -0.352617,-0.5708 -0.181992,-0.21369 0.233185,-0.1387 -0.352617,-0.49684 -0.7222973,-0.44022 -1.046472,-0.07 -1.0009745,0.26654 -1.0976619,0.0494 -1.091974,0.39562 -0.4436134,1.09397 -0.1876918,0.83907 -0.1876918,0.81064 -0.4869228,1.40174 -0.022759,0.86123 -0.098422,0.90057 0.3513117,1.53411 1.0232928,0.31375 -2.8560912,4.00703 z m 5.42182777,-11.84088 0.5346128,0.3181 0.7222945,0.11039 0.9554768,-0.43218 1.0009745,-0.31188 0.090997,-0.59555 -0.3924277,-0.63476 -0.3298683,-0.9429 -0.369678,-0.84196 -0.466363,-0.86005 0.022759,-0.32661 0.2104289,0.27889 0.2331821,-0.14444 -0.6312964,-0.60349 -0.2104289,-0.60879 -0.2104301,0.0452 0.073935,0.62336 -0.096669,0.61321 -0.2559316,0.70421 -0.2104287,0.76756 -0.4379268,0.58152 0.2274953,0.30551 -0.045494,0.67599 -0.4151785,0.60748 z"
       style="font-style:normal;font-variant:normal;font-weight:normal;font-stretch:normal;font-size:medium;line-height:1.25;font-family:'Weathered SF';-inkscape-font-specification:'Weathered SF';letter-spacing:0px;word-spacing:0px;fill:#ffffff;fill-opacity:1;stroke:none;stroke-width:0.582386"
       id="path819" />
    <path
       d="m 18.342268,279.2558 -0.113761,-0.81818 0.136493,-0.84153 v -0.84171 l 0.307118,-0.45595 0.602859,-0.56827 0.534612,-1.0205 0.420865,-0.59885 0.398117,-0.61694 0.904288,-0.51681 1.120412,-0.34537 1.069224,-0.38594 1.14316,-0.21364 0.631296,0.0799 0.625608,-0.17484 0.119429,-0.72424 0.04549,-0.70895 0.142194,-0.49578 -0.187692,-0.72897 0.04549,-0.84546 -0.631296,-0.45528 -1.000977,-0.20825 -0.443613,-0.0731 0.352617,-0.68147 0.62561,-0.17484 0.608546,-0.4045 0.699547,-0.58823 0.858793,-0.26855 0.818978,-0.4992 1.046475,-0.67703 -0.091,0.90036 0.392429,0.64116 -0.18199,0.48125 -0.443614,0.41588 0.233183,0.56034 0.181991,0.56523 -0.324181,1.09643 0.142194,0.80665 0.113761,0.84097 0.0967,0.3952 -0.0967,0.41809 -0.136494,0.54009 0.20475,0.23634 -0.20475,0.78737 0.136494,0.41539 0.06825,0.6627 -0.181989,0.66324 0.11376,0.72721 0.187691,0.60955 -0.142196,0.82562 -0.09099,0.62169 -0.06825,0.59421 0.392428,0.0611 -0.181991,0.50401 0.881543,0.51729 0.932725,0.43277 -0.767793,0.76728 -0.955476,0.54447 -0.864478,0.36649 -0.625611,0.31709 -0.631297,0.24427 -0.346929,-0.16146 -0.420866,-0.49311 -0.60286,0.21554 -0.585799,0.26331 -0.676794,0.44135 -0.767793,0.36917 -1.091974,0.71488 -0.307118,-0.35737 -0.693859,0.12076 -0.722295,-0.0384 -0.864479,-0.25921 -0.443614,-0.16422 -0.324179,-0.14341 -0.745042,-0.6877 0.443613,-0.30215 -0.119442,-0.46442 -0.580108,-0.31799 -0.210429,-0.58779 z m 2.88918,-0.48359 0.21043,0.79254 0.511863,0.31503 0.534611,0.21935 -0.255931,0.0529 -0.55736,0.2517 0.210428,0.18967 0.978229,0.24138 0.978225,0.21862 0.813291,-0.0772 0.654048,-0.45942 0.60286,-0.5455 0.420865,-0.66712 0.04549,-0.89663 0.119427,-0.14418 -0.04549,-0.84939 -0.02274,-0.58108 0.06825,-0.68522 -0.278682,-0.68743 -0.307118,-0.56782 -0.04549,-0.71287 -0.676794,-0.67337 -1.069224,-0.17707 -0.887229,0.79198 -0.790543,0.39095 -0.04549,0.10601 -0.142194,0.1203 -0.324179,0.83483 -0.11376,0.79701 -0.398115,0.77616 -0.06825,0.78757 -0.02276,0.63032 -0.07394,0.0893 z"
       style="font-style:normal;font-variant:normal;font-weight:normal;font-stretch:normal;font-size:medium;line-height:1.25;font-family:'Weathered SF';-inkscape-font-specification:'Weathered SF';letter-spacing:0px;word-spacing:0px;fill:#ffffff;fill-opacity:1;stroke:none;stroke-width:0.582386"
       id="path821" />
    <path
       d="m 31.252581,270.15457 -0.602859,-0.23542 0.136491,-0.52681 0.585799,-0.57601 0.745045,0.15161 0.813294,0.16689 0.790541,0.0499 0.767793,-0.22054 1.029414,-0.0672 1.023725,-0.15759 0.301429,0.38218 -0.722295,0.64214 -0.602859,0.83381 0.489113,0.83366 0.04549,0.17706 -0.255933,0.10202 v 0.11373 l 0.534613,0.49881 0.09101,0.74079 0.466363,0.55178 0.07394,0.71421 0.415178,0.65409 0.443614,-0.259 0.375365,-0.7179 0.415177,-0.51183 0.329868,-0.57073 -0.119428,-0.28835 0.443614,-0.65712 -0.09101,-0.57014 0.210429,-0.67709 0.09101,-0.755 -0.301431,-0.56988 -0.841729,-0.30592 -0.136492,-0.63912 0.932726,-0.21599 1.114725,-0.0311 0.790542,0.0329 0.699545,-0.33252 1.120411,0.15601 v 0.55736 l -0.790543,0.5074 -0.654047,0.62899 -0.30143,0.77806 -0.329867,0.75842 -0.62561,1.0922 0.04549,0.60357 -0.534611,0.47941 -0.27868,0.65611 -0.02276,0.44611 -0.5403,1.10564 -0.511862,0.77834 -0.301429,0.82923 -0.398117,0.6692 -0.159252,0.76248 -0.466363,0.65961 -0.767794,-0.14911 -0.352617,-1.10456 0.142193,-0.43643 -0.56305,-0.42746 -0.511861,-0.43307 -0.278681,-0.78278 -0.511863,-0.89944 -0.255931,-0.90469 -0.324179,-0.80057 -0.420864,-0.7729 -0.654047,-0.74166 0.210428,-0.1369 -0.420865,-0.42029 -0.489114,-0.32179 z"
       style="font-style:normal;font-variant:normal;font-weight:normal;font-stretch:normal;font-size:medium;line-height:1.25;font-family:'Weathered SF';-inkscape-font-specification:'Weathered SF';letter-spacing:0px;word-spacing:0px;fill:#ffffff;fill-opacity:1;stroke:none;stroke-width:0.582386"
       id="path823" />
    <path
       d="m 43.275658,274.36028 -0.06825,-0.66259 0.02273,-1.10051 0.06825,-1.03224 0.329865,-0.97387 0.32418,-0.62052 0.32418,-0.649 0.676797,-0.99441 0.722293,-0.34602 0.722295,-0.39152 0.443616,-0.47619 0.932726,-0.4178 1.046474,-0.10784 0.813293,0.50711 0.841732,0.36137 0.489112,0.45087 0.233181,0.67045 v 0.41517 l 0.580113,0.92862 -0.625613,0.94252 -0.818978,0.44908 -0.813295,0.47679 -0.790543,0.1896 -0.722294,0.37446 -0.722293,0.34601 -0.489114,0.59562 -0.352616,0.55586 0.375365,0.51054 0.534611,0.7978 0.301431,0.47425 1.120411,0.0707 0.978225,-0.4007 0.489113,0.007 0.511864,-0.50748 0.60286,-0.12069 0.02273,0.48627 -0.625608,0.73209 -1.046476,0.92107 -1.330843,0.51292 -0.887229,0.20727 -0.85879,0.12982 -0.654045,0.0589 -0.557363,-0.26034 -0.511864,-0.30582 -0.48911,-0.63856 -0.722296,-0.6777 -0.398115,-0.4167 z m 2.400069,-2.88145 0.210428,0.55387 0.51186,0.12391 0.631301,-0.43136 0.949788,-0.67584 0.818979,-0.93818 0.091,-0.89858 -0.369677,-1.04586 -0.608549,0.0246 -0.58011,0.0269 -1.023725,0.54854 -0.07394,0.66329 -0.346928,0.66888 -0.187691,0.74571 z"
       style="font-style:normal;font-variant:normal;font-weight:normal;font-stretch:normal;font-size:medium;line-height:1.25;font-family:'Weathered SF';-inkscape-font-specification:'Weathered SF';letter-spacing:0px;word-spacing:0px;fill:#ffffff;fill-opacity:1;stroke:none;stroke-width:0.582386"
       id="path825" />
    <path
       d="m 53.547037,276.58853 -0.909979,-0.22396 0.11944,-0.56752 1.000974,-0.5971 0.346929,-0.91675 -0.04549,-0.97436 0.06825,-0.98404 0.142193,-0.94484 -0.04549,-0.9061 -0.0967,-0.66855 -0.324181,-0.55251 -0.233183,-0.98112 -0.858791,-0.27384 0.204751,-0.43828 -0.091,-0.22545 0.978226,-0.36195 0.909977,-0.45285 0.932728,-0.0794 0.602859,-0.28448 0.420865,-0.52496 0.557361,0.18572 -0.09101,0.82106 -0.210429,0.90513 0.301428,0.16212 0.375367,-0.15142 0.187692,-0.78377 0.11376,-0.24288 0.836042,-0.1849 0.983913,-0.57286 1.211409,-0.19974 1.234156,0.0371 0.813294,0.37435 0.654046,0.5472 0.415177,2.46141 -0.301429,1.09489 0.0967,0.75956 0.06825,0.71649 -0.119429,0.19792 0.329869,0.46103 -0.164933,1.17995 -0.11376,1.01067 0.790543,0.5583 0.557361,-0.0474 v 0.37537 l -0.745043,0.36486 -0.813344,0.0692 -0.932726,-0.10835 -0.608549,0.31341 -0.64836,0.0552 -1.000975,0.19895 -0.887229,-0.24865 -0.04549,-0.326 0.978227,-0.73164 0.136492,-0.40972 0.375366,-1.15239 0.09099,-1.05421 -0.09099,-0.87948 -0.142193,-0.75568 v -0.79054 l 0.142193,-1.0131 -0.608547,-0.73873 -0.836044,-0.39519 -0.722293,0.22064 -0.608548,0.47267 -0.836043,0.88448 -0.21043,0.6037 -0.06825,0.60865 -0.02276,1.07687 0.04549,0.97433 0.09101,0.94775 -0.255932,1.02276 0.233183,0.65693 0.631296,0.27045 0.534615,0.32984 0.09101,0.21977 -0.92704,0.54528 -0.09667,-0.0827 0.25593,-0.32322 -0.60286,0.074 -0.654047,0.26611 -0.978225,0.15148 -0.955477,0.0132 z"
       style="font-style:normal;font-variant:normal;font-weight:normal;font-stretch:normal;font-size:medium;line-height:1.25;font-family:'Weathered SF';-inkscape-font-specification:'Weathered SF';letter-spacing:0px;word-spacing:0px;fill:#ffffff;fill-opacity:1;stroke:none;stroke-width:0.582386"
       id="path827" />
    <path
       d="m 66.036483,266.61056 -0.181992,-0.36966 0.346928,-0.21045 0.557365,-0.69954 0.608546,-0.69955 0.631298,-0.5346 0.648357,-0.53463 0.443615,-0.72227 0.631298,-0.84174 0.489112,0.11947 -0.142194,1.04649 0.119428,0.51186 0.11376,0.65404 0.02276,0.69956 0.722294,0.23319 h 0.841731 l 0.88154,-0.11948 0.329866,-0.36966 0.437928,0.11387 0.09667,0.67679 -0.187692,0.65405 -1.16591,0.0682 -0.625609,-0.0682 -0.5858,-0.18775 -0.745042,0.51185 -0.136493,0.62564 -0.21043,0.5858 v 0.6256 l 0.346928,0.14218 -0.25593,0.72232 0.119428,0.7223 -0.07394,0.86449 0.04549,0.81327 0.23318,0.93273 0.05117,0.67679 0.181991,0.0456 -0.09101,0.21042 0.164933,0.43792 0.813292,0.28437 h 0.887227 l 0.790545,-0.1422 0.32418,-0.6313 0.398115,0.14219 -0.09101,0.72229 -0.585799,0.58011 -0.745042,0.54031 -0.813294,0.41515 -0.887228,0.074 -0.887229,0.11387 -0.767793,-0.21044 -0.255932,-0.32418 -0.346929,-0.16487 -0.489113,-0.88153 -0.443615,-1.12042 -0.187691,-0.81328 -0.187692,-0.84176 0.142171,-1.21139 0.21043,-0.42085 -0.375365,-0.64837 0.119441,-0.76777 0.04549,-0.79625 -0.04549,-0.7678 -0.420865,-0.60286 z"
       style="font-style:normal;font-variant:normal;font-weight:normal;font-stretch:normal;font-size:medium;line-height:1.25;font-family:'Weathered SF';-inkscape-font-specification:'Weathered SF';letter-spacing:0px;word-spacing:0px;fill:#ffffff;fill-opacity:1;stroke:none;stroke-width:0.582386"
       id="path829" />
    <path
       d="m 73.79404,266.42288 -0.02276,-0.7223 0.836041,-0.36967 1.097661,0.42086 0.858791,-0.21043 0.909979,0.0227 0.932726,-0.11947 0.233184,0.0511 -0.187693,0.81331 0.11376,0.79054 v 0.63129 l -0.159252,0.9555 -0.04549,0.64833 v 0.65405 l -0.255931,0.7678 0.136492,0.74506 0.301432,0.72228 0.02273,0.7678 0.466365,0.56305 0.676795,0.15914 -0.346931,0.28437 0.93273,0.0455 0.392428,-0.0683 0.420863,-0.75072 0.398116,-0.51187 0.437925,-1.11474 0.233184,-1.0294 -0.466363,-0.20471 0.233179,-0.81897 -0.02276,-1.13746 -0.255932,-0.21043 0.07394,-0.76781 -0.608549,-0.93273 -0.511861,-0.0227 -0.420866,0.11373 -0.091,-0.16487 0.369677,-0.15913 -0.324181,-0.14219 -0.27868,0.0682 v -0.53461 l 0.90998,-0.30143 0.978225,0.0455 0.904291,0.25592 0.119428,-0.0909 -0.187691,-0.27867 0.466363,0.11373 0.887227,-0.0227 0.813295,-0.25594 0.580112,0.16487 -0.06825,0.58011 -0.11376,0.81331 0.06825,0.84171 0.210429,1.14316 -0.420863,0.23319 -0.187691,1.11473 -0.04549,0.97822 0.233184,1.07493 0.119428,0.92703 0.534612,0.63128 0.978226,0.32418 0.278682,0.60855 -0.352617,0.44362 -1.091973,0.21043 -1.023725,0.34692 -1.097659,0.091 -0.511865,0.35262 -0.187691,-0.37536 -0.602861,-0.74504 -0.790544,-0.36968 -0.466363,0.27869 -0.631296,0.65404 -0.836044,0.41516 h -1.120409 l -1.046474,0.14219 -0.722294,-0.25592 -0.699545,-0.32987 -0.30143,-0.6256 v -0.69954 l 0.30143,-0.63132 -0.329868,-0.85879 -0.113761,-0.93272 -0.18769,-0.42086 0.09667,-0.83606 0.113759,-0.3526 0.02274,-0.11387 0.06825,-0.55735 0.119429,-0.97822 0.02276,-0.58581 0.06825,-0.60286 -0.437927,-0.69954 -0.699545,-0.25593 z"
       style="font-style:normal;font-variant:normal;font-weight:normal;font-stretch:normal;font-size:medium;line-height:1.25;font-family:'Weathered SF';-inkscape-font-specification:'Weathered SF';letter-spacing:0px;word-spacing:0px;fill:#ffffff;fill-opacity:1;stroke:none;stroke-width:0.582386"
       id="path831" />
    <path
       d="m 87.682582,275.48618 -0.745044,-0.32175 0.091,-0.80815 1.052162,0.0341 0.648361,-0.45753 -0.02274,-1.05488 0.233182,-1.0415 -0.255932,-0.33186 0.210428,-0.4186 -0.164931,-1.02058 0.0967,-1.01222 -0.0967,-0.57456 -0.466362,-0.98816 -0.602861,-0.39586 -0.631299,-0.39925 0.489113,-0.68688 0.773483,-0.16397 0.722293,-0.26674 0.813294,-0.0398 0.654047,-0.15541 0.60286,-0.34919 0.580111,0.0463 0.142171,0.83021 v 1.16589 l 0.233182,0.0959 0.722298,-0.42598 0.489112,-0.61863 0.722295,-0.44876 0.836041,-0.0654 0.818981,0.21684 0.278681,0.65874 0.02276,1.05488 -0.278681,0.94509 -0.233183,0.34195 -0.909976,-0.22206 -0.767794,-0.46665 -0.978226,0.11686 -0.813293,0.58012 -0.255932,0.4587 0.04549,0.4035 0.159252,0.78673 -0.233182,0.76282 0.02844,0.72569 -0.187692,0.76822 -0.04549,0.95006 0.466365,0.77773 0.978225,0.32674 0.904292,0.46012 0.27868,0.0104 -0.39243,0.69839 -0.790542,0.16193 -0.864479,-0.0801 -1.069223,-0.26932 -0.909979,-0.15369 -0.841728,-0.35599 -0.60286,-0.003 -0.534614,0.35733 -0.142172,-0.0625 0.02274,-0.13949 z"
       style="font-style:normal;font-variant:normal;font-weight:normal;font-stretch:normal;font-size:medium;line-height:1.25;font-family:'Weathered SF';-inkscape-font-specification:'Weathered SF';letter-spacing:0px;word-spacing:0px;fill:#ffffff;fill-opacity:1;stroke:none;stroke-width:0.582386"
       id="path833" />
    <path
       d="m 96.145375,272.11838 -0.06825,-0.68174 0.02273,-1.09413 0.06825,-1.01309 0.329866,-0.8813 0.32418,-0.52953 0.324181,-0.55802 0.676796,-0.80446 0.722295,-0.14331 0.722295,-0.1888 0.443615,-0.3517 0.932727,-0.15603 1.04647,0.18587 0.8133,0.73536 0.84173,0.5976 0.4891,0.58814 0.23319,0.73589 v 0.41517 l 0.58011,1.09143 -0.62561,0.76694 -0.81898,0.21924 -0.8133,0.24853 -0.79054,-0.0323 -0.72229,0.17174 -0.7223,0.1433 -0.489107,0.45835 -0.352617,0.45689 0.375366,0.61589 0.534608,0.94784 0.30143,0.55885 1.12042,0.38512 0.97822,-0.12615 0.48911,0.14456 0.51186,-0.36382 0.60287,0.0485 0.0227,0.49265 -0.62562,0.55651 -1.04646,0.62738 -1.33085,0.13941 -0.88723,-0.0417 -0.85879,-0.1112 -0.654045,-0.12468 -0.557364,-0.41676 -0.511862,-0.44948 -0.489111,-0.77583 -0.722297,-0.88041 -0.398115,-0.52844 z m 2.400068,-2.20786 0.210429,0.61292 0.511861,0.26757 0.631299,-0.25419 0.949788,-0.40927 0.81898,-0.70834 0.091,-0.87304 -0.36968,-1.14961 -0.60854,-0.14618 -0.58011,-0.13595 -1.023731,0.26123 -0.07394,0.64254 -0.346929,0.57151 -0.18769,0.69304 z"
       style="font-style:normal;font-variant:normal;font-weight:normal;font-stretch:normal;font-size:medium;line-height:1.25;font-family:'Weathered SF';-inkscape-font-specification:'Weathered SF';letter-spacing:0px;word-spacing:0px;fill:#ffffff;fill-opacity:1;stroke:none;stroke-width:0.582386"
       id="path835" />
    <path
       d="m 102.9373,296.25732 c -0.97291,-0.29144 -2.13758,-1.02501 -3.093863,-1.94868 -0.81244,-0.78473 -1.403782,-1.17121 -2.07557,-1.35649 -0.393256,-0.10846 -0.548071,-0.10144 -1.452787,0.0652 -0.661543,0.12188 -1.571984,0.0954 -1.927475,-0.0561 -0.258302,-0.11003 -0.470107,-0.32684 -0.566005,-0.57926 -0.0355,-0.0935 -0.0638,-0.28613 -0.06297,-0.4281 7.38e-4,-0.14197 0.05772,-0.87949 0.126242,-1.63894 0.0686,-0.75943 0.112449,-1.39755 0.09759,-1.41802 -0.03531,-0.0486 -2.074325,-0.73709 -3.423026,-1.15582 -3.402861,-1.05648 -6.452297,-1.69987 -9.283972,-1.95873 -1.870781,-0.17103 -4.242353,-0.13558 -6.262823,0.0936 -2.819924,0.31989 -5.914132,1.02028 -8.964037,2.02909 l -0.606269,0.20053 -0.118499,-0.21147 c -0.107002,-0.19097 -0.121697,-0.20029 -0.151387,-0.0959 -0.01809,0.0634 -0.04382,0.18555 -0.05719,0.27119 -0.02212,0.14164 -0.06525,0.16984 -0.477267,0.31204 -0.249128,0.086 -0.710972,0.23957 -1.026317,0.34133 -0.742895,0.23969 -1.255656,0.45276 -1.59904,0.66452 -0.15175,0.0936 -0.481801,0.37436 -0.733443,0.62398 -0.251642,0.24963 -0.473861,0.45388 -0.493819,0.45388 -0.01996,0 -0.101731,-0.0863 -0.181723,-0.19188 l -0.145438,-0.19188 v 0.37375 0.37378 l -0.451515,0.39883 c -0.989079,0.87367 -1.90642,1.46701 -2.768105,1.79044 -0.325698,0.12223 -0.551565,0.16305 -1.0144,0.1833 -0.517437,0.0227 -0.644197,0.007 -0.967967,-0.10936 l -0.372559,-0.1355 -0.292297,-1.65094 c -0.16076,-0.90803 -0.30627,-1.72631 -0.323355,-1.8184 l -0.03106,-0.16744 -0.340533,0.0382 c -0.384656,0.0432 -0.758909,0.24555 -1.1288,0.61021 -0.124373,0.12264 -0.692866,0.84518 -1.263312,1.60566 -0.832019,1.1092 -1.106821,1.43801 -1.389287,1.66242 -0.664159,0.52766 -1.477413,0.9066 -2.358861,1.09911 -0.448078,0.0978 -0.807211,0.11401 -1.180069,0.0532 -0.173582,-0.0284 -0.220769,-0.056 -0.187823,-0.11004 0.02419,-0.0397 0.02988,-0.0914 0.01264,-0.11485 -0.01724,-0.0235 -0.0022,-0.0276 0.03345,-0.01 0.07174,0.037 0.795981,-0.67233 1.432051,-1.40245 0.531894,-0.61053 1.181459,-1.49571 1.501339,-2.04594 0.253498,-0.43601 0.637617,-1.28517 0.63782,-1.40997 4.4e-5,-0.0381 -0.118689,-0.0538 -0.311761,-0.0414 -0.975179,0.0628 -2.606119,-0.58828 -3.525417,-1.40746 -0.253772,-0.22611 -0.36719,-0.36461 -0.325759,-0.39775 0.0215,-0.0173 0.227627,-0.10398 0.458073,-0.19286 1.133972,-0.43732 2.787101,-1.23656 3.572591,-1.72726 0.387231,-0.24189 1.083895,-0.80632 1.675829,-1.35773 2.403265,-2.23877 2.95677,-2.69179 3.70863,-3.03534 0.390589,-0.17847 1.05616,-0.33601 1.421079,-0.33636 0.622696,-5.9e-4 1.39424,0.29434 1.870982,0.71518 0.139961,0.12353 0.345376,0.34535 0.456476,0.49288 0.229492,0.30479 0.234079,0.32683 0.398064,1.91352 0.0529,0.5118 0.10092,0.93861 0.10672,0.94848 0.0058,0.0106 0.72777,-0.52732 0.882877,-0.67493 3.018367,-1.30533 2.346701,-1.1486 3.510333,-1.75804 0.176546,-0.0926 0.322169,-0.20464 0.526566,-0.28799 0.422299,-0.1722 2.199419,-0.81065 2.66506,-0.95745 1.032249,-0.32544 3.09487,-0.79894 4.697118,-1.07831 2.77219,-0.48335 5.541399,-0.68585 7.861596,-0.57485 3.828914,0.18314 7.225893,0.84151 11.742785,2.27583 1.316735,0.41812 2.637619,0.89897 2.670904,0.97229 0.01964,0.0432 0.04877,0.20823 0.06472,0.36666 0.01604,0.15842 0.04509,0.28803 0.06454,0.28803 0.01945,0 0.111877,-0.11889 0.20536,-0.2642 l 0.169982,-0.26421 0.573353,0.23701 c 1.457222,0.60239 2.671143,1.16119 2.93294,1.35009 0.157682,0.11379 0.380864,0.3206 0.495978,0.45959 l 0.209278,0.25275 -0.06537,0.75043 c -0.03596,0.41274 -0.07533,0.84832 -0.08759,0.96796 l -0.02222,0.21752 0.34143,0.1648 c 0.495388,0.2391 0.960976,0.57243 1.510494,1.08139 0.26598,0.24636 0.66748,0.57364 0.89222,0.72726 0.49443,0.33804 1.39615,0.81996 2.17275,1.16125 0.31535,0.13857 0.58839,0.27161 0.60673,0.29564 0.0728,0.0953 -0.22543,0.36433 -0.57229,0.51626 -0.65584,0.28728 -1.13402,0.39284 -1.95298,0.43113 l -0.77182,0.0361 0.59645,0.81745 c 0.32803,0.44959 0.8106,1.18217 1.07237,1.62792 0.52098,0.88721 1.18994,2.20185 1.15716,2.27405 -0.0351,0.0774 -0.43004,0.0644 -0.72448,-0.0238 z m 0.12689,-0.50635 c -0.0254,-0.0645 -0.22439,-0.44261 -0.44232,-0.84034 -0.9071,-1.65551 -1.7041,-2.75 -2.734757,-3.7556 -0.252816,-0.24666 -0.480184,-0.4586 -0.505272,-0.47095 -0.02499,-0.0124 -0.03531,-0.038 -0.02268,-0.057 0.01263,-0.0191 0.251756,0.0561 0.531402,0.16683 0.279657,0.11071 0.674117,0.23426 0.876577,0.27456 0.44532,0.0885 1.37878,0.0448 1.8641,-0.0877 0.48907,-0.13338 0.74061,-0.22444 0.73995,-0.26791 -4.4e-4,-0.0209 -0.33007,-0.19947 -0.73278,-0.39695 -0.95606,-0.46882 -1.73286,-0.9828 -2.34699,-1.55295 -0.537361,-0.49885 -0.92893,-0.78581 -1.36708,-1.00186 -0.195485,-0.0965 -0.288654,-0.11776 -0.30987,-0.0709 -0.01669,0.0366 -0.09652,0.88546 -0.177395,1.88606 -0.15606,1.93052 -0.192027,2.13047 -0.428717,2.38391 -0.08473,0.0908 -0.180115,0.1255 -0.343044,0.12486 -0.309971,-0.001 -0.651466,-0.11986 -1.350259,-0.46908 -0.773661,-0.38665 -1.201502,-0.51427 -1.595321,-0.47591 -0.255637,0.0249 -0.332911,0.0593 -0.468687,0.20893 -0.210311,0.23169 -0.268527,0.49184 -0.171817,0.76788 0.180254,0.51454 0.999775,0.69381 2.16967,0.4746 0.760236,-0.14245 1.134619,-0.16559 1.461565,-0.0903 0.638162,0.1469 1.339739,0.55152 1.973604,1.13821 0.172536,0.1597 0.481211,0.44512 0.685961,0.63425 0.42184,0.38976 0.84999,0.69383 1.48436,1.05431 0.41039,0.23318 1.07296,0.52989 1.19917,0.53702 0.0426,0.002 0.0453,-0.0258 0.0106,-0.11401 z m -55.373932,-1.8333 c 0.317446,-0.047 0.670889,-0.16195 1.146715,-0.37289 0.484578,-0.21479 0.931912,-0.49855 1.264123,-0.80186 0.15374,-0.14035 0.681739,-0.80303 1.173326,-1.47259 0.491592,-0.66956 1.02746,-1.35504 1.19082,-1.52329 0.163362,-0.16823 0.438776,-0.40239 0.612035,-0.52032 0.23804,-0.16202 0.404495,-0.22804 0.68117,-0.27018 0.20138,-0.0307 0.37038,-0.0617 0.375549,-0.069 0.0052,-0.006 -0.0994,-0.60768 -0.232368,-1.3341 -0.204336,-1.11631 -0.239438,-1.38756 -0.226754,-1.75224 0.01266,-0.3638 0.03587,-0.47208 0.148005,-0.69041 0.150268,-0.29257 0.475997,-0.61461 0.717786,-0.70968 0.0892,-0.0351 0.291927,-0.0797 0.450499,-0.0993 l 0.288315,-0.0356 0.181361,0.37565 0.181362,0.37566 0.05642,-0.34322 0.05643,-0.3432 0.195935,0.04 c 0.107764,0.022 0.439328,0.14593 0.736807,0.27539 0.656008,0.28546 0.918469,0.30347 1.240378,0.085 0.324441,-0.22007 0.653962,-0.70178 0.85682,-1.25253 0.234023,-0.63536 0.23015,-0.80189 -0.02735,-1.17659 -0.210664,-0.30658 -0.700576,-0.69079 -1.099808,-0.86254 -0.332692,-0.14313 -0.924014,-0.23279 -1.251718,-0.1898 -0.408809,0.0536 -0.983139,0.24917 -1.369847,0.46637 -0.616879,0.34646 -1.119231,0.76751 -2.825321,2.36807 -1.343719,1.26059 -1.998533,1.75771 -3.065254,2.3271 -0.548565,0.2928 -2.229379,1.06438 -2.480871,1.13883 -0.07883,0.0233 -0.143339,0.0634 -0.143339,0.0894 0,0.0641 0.596494,0.4292 1.080557,0.66165 0.625947,0.30061 1.239257,0.48453 1.742123,0.52249 0.359212,0.0271 0.530536,0.0118 0.763734,-0.0685 0.16535,-0.057 0.31314,-0.0865 0.328418,-0.0657 0.05692,0.0775 -0.216482,1.04398 -0.426141,1.50641 -0.450134,0.99284 -1.255127,2.13836 -2.33095,3.31701 -0.224382,0.24583 -0.407967,0.45934 -0.407967,0.47447 0,0.015 0.03473,0.0144 0.07719,-0.002 0.04245,-0.016 0.196265,-0.0468 0.341808,-0.0684 z m 9.460389,-1.31187 c 0.75253,-0.27329 1.54831,-0.77473 2.480597,-1.56308 l 0.429745,-0.3634 -0.0239,-0.8726 c -0.01315,-0.47991 -0.03238,-0.94688 -0.04273,-1.03767 -0.01036,-0.0908 -0.0024,-0.16511 0.01775,-0.16511 0.03273,0 0.365487,0.48187 0.735532,1.06513 l 0.134801,0.21246 0.276102,-0.27666 c 0.412293,-0.41313 0.756161,-0.68412 1.069862,-0.84309 0.154507,-0.0784 0.608394,-0.24189 1.008641,-0.36355 0.98893,-0.30061 1.468578,-0.46481 1.523687,-0.52162 0.0254,-0.0262 0.103561,-0.29199 0.173688,-0.59067 0.07013,-0.2987 0.142434,-0.54307 0.160694,-0.54307 0.01826,0 0.147489,0.18912 0.287176,0.42024 0.139692,0.23113 0.267396,0.42025 0.283795,0.42025 0.01639,0 0.410523,-0.12116 0.875846,-0.26922 1.190531,-0.37884 2.818997,-0.82635 3.906178,-1.07343 4.418821,-1.00425 8.237547,-1.23166 12.194861,-0.72624 2.159979,0.27588 4.408435,0.76128 6.94644,1.4996 1.192641,0.34695 1.662609,0.49645 3.310079,1.05286 0.874501,0.29537 1.614075,0.53701 1.643459,0.53701 0.02932,0 0.09578,-0.11859 0.147504,-0.26354 0.07265,-0.20361 0.170332,-0.33168 0.429455,-0.56328 0.184458,-0.16486 0.346003,-0.29139 0.358985,-0.2812 0.013,0.0106 -0.0046,0.29899 -0.04112,0.64176 -0.03559,0.34276 -0.05209,0.66775 -0.03679,0.72218 0.0177,0.0628 0.19378,0.16772 0.482102,0.28717 1.210787,0.50165 1.606533,0.69362 1.857864,0.90123 l 0.272307,0.22494 0.03236,-0.18924 c 0.0177,-0.10409 0.113214,-1.19894 0.212072,-2.43297 l 0.179746,-2.24372 -0.08833,-0.12793 c -0.256679,-0.37191 -0.898556,-0.71607 -2.871174,-1.53941 l -0.896583,-0.37423 -0.252769,0.38284 -0.252779,0.38281 -0.04675,-0.24014 c -0.02563,-0.13206 -0.06943,-0.36564 -0.09723,-0.51904 l -0.05062,-0.27891 -1.616758,-0.54443 c -2.321627,-0.78182 -3.762372,-1.19769 -5.630268,-1.6252 -2.655349,-0.60776 -4.565113,-0.86258 -7.299276,-0.97396 -1.867609,-0.076 -3.093507,-0.0273 -4.849139,0.19301 -2.572908,0.32283 -6.184541,1.06468 -7.677209,1.57695 -1.207873,0.41451 -2.601435,0.97115 -2.601435,1.03909 -2.351386,1.80042 -2.41594,1.15652 -3.999654,2.25366 -0.585203,0.47276 -1.581283,1.24329 -1.85708,1.43078 -0.794518,0.5401 -1.471755,0.78065 -2.555698,0.90781 -0.449204,0.0526 -0.663325,0.0522 -0.904388,-0.002 -0.173709,-0.0392 -0.404189,-0.12419 -0.512171,-0.18921 -0.10798,-0.065 -0.202544,-0.10982 -0.210135,-0.0993 -0.0076,0.0106 0.0059,0.11195 0.0301,0.22585 0.02415,0.1139 0.248625,1.35524 0.498846,2.75857 l 0.454951,2.55147 0.282572,0.10482 c 0.404389,0.15009 1.154996,0.10835 1.715964,-0.0953 z m -11.434791,-5.27008 c 0.02992,-0.041 0.0655,-0.0595 0.07909,-0.041 0.01358,0.0184 -0.01091,0.0521 -0.05439,0.0745 -0.06286,0.0326 -0.06792,0.0257 -0.02469,-0.0337 z"
       id="path1025"
       style="fill:#ffffff;stroke-width:0.0514567" />
    <path
       d="m 71.516238,281.29275 v 1.39052 l -0.107638,0.0216 q -0.194903,-0.5311 -0.584712,-0.74964 -0.389814,-0.21855 -0.852348,-0.1258 -0.442172,0.0887 -0.735989,0.39777 -0.293812,0.30618 -0.415991,0.77577 -0.122179,0.46958 -0.122179,0.93794 0,0.56725 0.133814,0.96806 0.133815,0.40078 0.430538,0.54201 0.299631,0.14063 0.709807,0.0584 0.14254,-0.0286 0.290901,-0.0874 0.151271,-0.0622 0.308358,-0.15203 v -0.82035 q 0,-0.23272 -0.03198,-0.29321 -0.03198,-0.0634 -0.133815,-0.0983 -0.09891,-0.0355 -0.241454,-0.007 l -0.101811,0.0204 v -0.10763 l 1.917051,-0.38443 v 0.10763 q -0.218176,0.0583 -0.305448,0.12235 -0.08436,0.0605 -0.130904,0.17461 -0.02618,0.0606 -0.02618,0.2758 v 0.82034 q -0.378178,0.24456 -0.788348,0.41118 -0.407265,0.16897 -0.846533,0.25706 -0.56144,0.11259 -0.933798,0.036 -0.369447,-0.0801 -0.654533,-0.2702 -0.282176,-0.19358 -0.442173,-0.47276 -0.203635,-0.36063 -0.203635,-0.85806 0,-0.89017 0.625441,-1.6294 0.625446,-0.73923 1.573791,-0.92941 0.293812,-0.0589 0.529444,-0.0596 0.128,-0.002 0.413085,0.051 0.287992,0.0499 0.340356,0.0394 0.08145,-0.0163 0.15127,-0.0885 0.06982,-0.0751 0.127995,-0.25257 z"
       style="font-style:normal;font-variant:normal;font-weight:bold;font-stretch:normal;font-size:medium;line-height:1.25;font-family:'Times New Roman';-inkscape-font-specification:'Times New Roman, Bold';letter-spacing:0px;word-spacing:0px;fill:#ffffff;fill-opacity:1;stroke:none;stroke-width:0.148943"
       id="path1049" />
    <path
       d="m 74.515455,283.52244 -1.393428,0.13336 -0.165817,0.39986 q -0.08146,0.19979 -0.08146,0.32489 0,0.16581 0.133815,0.23154 0.07855,0.0391 0.386898,0.0328 v 0.10764 l -1.31197,0.12556 v -0.10764 q 0.212354,-0.0522 0.34908,-0.20794 0.136724,-0.15854 0.337449,-0.62865 l 1.410884,-3.28261 0.05528,-0.005 1.42252,3.09871 q 0.203635,0.44014 0.334539,0.54688 0.09891,0.0807 0.279266,0.078 v 0.10764 l -1.908325,0.18263 v -0.10764 l 0.07855,-0.008 q 0.229811,-0.022 0.322898,-0.0949 0.064,-0.0527 0.064,-0.13993 0,-0.0523 -0.01745,-0.10597 -0.0058,-0.0257 -0.08727,-0.20982 z m -0.09891,-0.2058 -0.58763,-1.30227 -0.605079,1.41642 z"
       style="font-style:normal;font-variant:normal;font-weight:bold;font-stretch:normal;font-size:medium;line-height:1.25;font-family:'Times New Roman';-inkscape-font-specification:'Times New Roman, Bold';letter-spacing:0px;word-spacing:0px;fill:#ffffff;fill-opacity:1;stroke:none;stroke-width:0.148943"
       id="path1051" />
    <path
       d="m 79.181548,283.13319 1.070524,-2.60067 h 1.605788 v 0.10763 h -0.127999 q -0.174543,0 -0.279265,0.0611 -0.07273,0.0407 -0.116364,0.13672 -0.03198,0.0698 -0.03198,0.36363 v 2.60068 q 0,0.30254 0.03198,0.37817 0.03198,0.0757 0.13091,0.13382 0.09891,0.0553 0.264719,0.0553 h 0.127999 v 0.10763 h -2.059597 v -0.10763 h 0.127995 q 0.174543,0 0.279271,-0.0611 0.07273,-0.0407 0.116358,-0.13963 0.03198,-0.0698 0.03198,-0.36654 v -2.92358 l -1.512702,3.59847 h -0.06982 l -1.535974,-3.5723 v 2.77813 q 0,0.29092 0.01452,0.35782 0.03783,0.14546 0.162907,0.23854 0.128,0.0902 0.39854,0.0902 v 0.10763 h -1.349794 v -0.10763 h 0.04076 q 0.130905,0.003 0.244358,-0.0407 0.113454,-0.0466 0.171633,-0.12218 0.05818,-0.0757 0.09018,-0.21236 0.0058,-0.0319 0.0058,-0.29672 v -2.49595 q 0,-0.29963 -0.03198,-0.37236 -0.03198,-0.0757 -0.13091,-0.13091 -0.09891,-0.0582 -0.264719,-0.0582 h -0.125089 v -0.10763 h 1.611603 z"
       style="font-style:normal;font-variant:normal;font-weight:bold;font-stretch:normal;font-size:medium;line-height:1.25;font-family:'Times New Roman';-inkscape-font-specification:'Times New Roman, Bold';letter-spacing:0px;word-spacing:0px;fill:#ffffff;fill-opacity:1;stroke:none;stroke-width:0.148943"
       id="path1053" />
    <path
       d="m 83.751192,281.13817 v 1.60579 l 0.07855,0.0131 q 0.375269,0.0629 0.54399,-0.14444 0.168728,-0.20732 0.215272,-0.65915 l 0.110543,0.0185 v 2.06541 l -0.110548,-0.0185 q -0.0349,-0.3433 -0.148362,-0.57759 -0.110543,-0.23382 -0.258903,-0.3314 -0.148361,-0.10063 -0.430537,-0.14788 v 1.11125 q 0,0.32581 0.02618,0.40292 0.0291,0.0776 0.104722,0.13683 0.07563,0.0593 0.244358,0.0876 l 0.235633,0.0395 q 0.55272,0.0927 0.88435,-0.10774 0.334539,-0.1999 0.47999,-0.69913 l 0.107632,0.018 -0.177452,1.22403 -3.409386,-0.57161 v -0.10763 l 0.130904,0.022 q 0.171633,0.0288 0.276361,-0.0148 0.07564,-0.028 0.116358,-0.12014 0.03198,-0.0644 0.03198,-0.36118 v -2.59486 q 0,-0.26763 -0.01452,-0.33115 -0.0291,-0.10669 -0.107633,-0.17514 -0.110543,-0.0999 -0.302543,-0.13212 l -0.130903,-0.022 V 280.659 l 3.301752,0.55357 v 1.16653 l -0.110542,-0.0185 q -0.08436,-0.44178 -0.238543,-0.6538 -0.151267,-0.21154 -0.430538,-0.34564 -0.162901,-0.0796 -0.610894,-0.15472 z"
       style="font-style:normal;font-variant:normal;font-weight:bold;font-stretch:normal;font-size:medium;line-height:1.25;font-family:'Times New Roman';-inkscape-font-specification:'Times New Roman, Bold';letter-spacing:0px;word-spacing:0px;fill:#ffffff;fill-opacity:1;stroke:none;stroke-width:0.148943"
       id="path1055" />
    <path
       d="m 88.63636,282.14168 0.03203,1.32558 -0.119275,-0.0399 q -0.08436,-0.52272 -0.41599,-0.9331 -0.32872,-0.41233 -0.712713,-0.54058 -0.296724,-0.0991 -0.471266,0.003 -0.171633,0.0998 -0.171633,0.30632 0,0.1309 0.06109,0.25312 0.08436,0.16491 0.270539,0.36089 0.136725,0.14167 0.631263,0.5512 0.692351,0.57159 0.933799,0.95477 0.238543,0.38221 0.238543,0.77203 0,0.49453 -0.386904,0.72311 -0.383994,0.22666 -0.977437,0.0284 -0.186178,-0.0622 -0.351992,-0.15535 -0.165818,-0.0932 -0.415991,-0.28149 -0.139635,-0.10484 -0.229817,-0.13496 -0.07564,-0.0253 -0.159997,0.005 -0.08436,0.03 -0.136724,0.1318 l -0.107633,-0.036 v -1.48943 l 0.107633,0.0359 q 0.127999,0.67109 0.491626,1.12417 0.366541,0.45114 0.788355,0.59203 0.325808,0.10886 0.517808,-0.005 0.194904,-0.11235 0.194904,-0.34798 0,-0.13964 -0.07564,-0.29581 -0.07273,-0.15521 -0.223997,-0.32208 -0.151272,-0.1698 -0.535265,-0.48713 -0.538171,-0.44447 -0.773803,-0.70934 -0.235633,-0.26489 -0.363627,-0.53744 -0.125089,-0.27159 -0.125089,-0.54796 0,-0.47126 0.346175,-0.68727 0.346176,-0.21601 0.872711,-0.0402 0.191994,0.0641 0.372357,0.17097 0.136726,0.0805 0.33163,0.24167 0.197814,0.15917 0.276361,0.1854 0.07563,0.0253 0.119268,-0.007 0.04362,-0.032 0.08145,-0.1968 z"
       style="font-style:normal;font-variant:normal;font-weight:bold;font-stretch:normal;font-size:medium;line-height:1.25;font-family:'Times New Roman';-inkscape-font-specification:'Times New Roman, Bold';letter-spacing:0px;word-spacing:0px;fill:#ffffff;fill-opacity:1;stroke:none;stroke-width:0.148943"
       id="path1057" />
  </g>
</svg>
