<?xml version="1.0" encoding="utf-8"?>
<!-- Generator: Adobe Illustrator 21.1.0, SVG Export Plug-In . SVG Version: 6.00 Build 0)  -->
<svg version="1.0" id="Ebene_1" xmlns="http://www.w3.org/2000/svg" xmlns:xlink="http://www.w3.org/1999/xlink" x="0px" y="0px"
	 width="440.7px" height="161.1px" viewBox="0 0 440.7 161.1" enable-background="new 0 0 440.7 161.1" xml:space="preserve">
<g id="Ebene_2">
</g>
<g>
	<g>
		<g enable-background="new    ">
			<g>
				<g>
					<path fill="#FFFFFF" d="M248.5,63.2l22.1,0.1c0.4,0,3.5,0.5-0.3,1.5c-3,0.8-5.5,0.5-6.5,4.4L251.9,117c-1,4.3,2.3,8,6.6,9.1
						c1,0.2,1,1.3-0.1,1.3l-14.5-0.5l-17.6,0.6c-1.3,0-1.3-1.3,0.1-1.6c4.1-0.4,7.8-3.8,8.6-6.6l11.5-41.4c0-0.6-0.3-1-0.7-1
						c-0.3,0-0.5,0.2-0.7,0.5l-32.6,47.4c-0.9,1.5-2.3,2.4-3.6,2.4c-1.4,0-2.5-1.1-2.7-4L202.9,79c0-0.6-0.6-1.1-1.1-1.1
						c-0.4,0-0.7,0.2-0.9,0.8l-11.2,35c-0.9,2.7-1,5.3,0.1,7.1c1.1,1.9,3.9,4.3,7.1,5c1.3,0.3,1.2,1.6,0,1.6l-11.7-0.5l-9.8,0.4
						c-1.2-0.1-1-1.2,0-1.4c3.4-0.7,7.3-4.2,9-9.1l14.5-46.6c0.6-1.8-0.4-3.9-2.1-4.3l-4.5-0.9c-0.8-0.1-0.9-1.2,0-1.2l25.7-0.2
						l2.6,40.6l1.9-2.3l24.6-36.4C247.4,65.1,248.2,63.9,248.5,63.2z"/>
					<path fill="#FFFFFF" d="M225.1,128c-0.3-0.2-0.5-0.7-0.5-1.1l0,0c0-0.9,0.7-1.5,1.6-1.6l0,0l0,0l0,0c3.8-0.3,7.3-3.7,7.9-6.1
						l0,0l11.5-41.4L213,125.2c-1,1.6-2.6,2.7-4.2,2.8l0,0c-0.9,0-1.8-0.4-2.4-1.2l0,0c-0.6-0.8-0.9-2-1-3.5l0,0l-3.3-44.2
						c0-0.2-0.3-0.4-0.3-0.4l0,0l0,0l0,0c0,0-0.1,0-0.2,0.2l0,0l-11.2,35c-0.4,1.3-0.7,2.5-0.7,3.6l0,0c0,1.1,0.2,2.1,0.7,3l0,0
						c0.9,1.7,3.6,4,6.7,4.6l0,0c0.8,0.2,1.5,0.8,1.5,1.6l0,0c0,0.8-0.8,1.5-1.6,1.5l0,0l0,0l-11.7-0.5l-9.9,0.4l0,0
						c-0.8,0-1.5-0.6-1.5-1.4l0,0c0-0.8,0.6-1.4,1.4-1.5l0,0c3.1-0.6,6.8-3.9,8.5-8.6l0,0L198.3,70c0.1-0.3,0.1-0.6,0.1-0.9l0,0
						c0-1.2-0.7-2.3-1.7-2.5l0,0l-4.5-0.9c-0.8-0.1-1.3-0.7-1.3-1.4l0,0c0-0.3,0.1-0.7,0.4-0.9l0,0c0.3-0.3,0.6-0.4,1-0.4l0,0
						l26.4-0.2l2.5,39.4l0.7-0.8l24.6-36.2c0.3-0.5,1-1.6,1.4-2.3l0,0l0.2-0.4l22.5,0.1c0.4,0,1.1,0.1,1.7,0.4l0,0
						c0.2,0.1,0.5,0.3,0.6,0.9l0,0c-0.1,0.7-0.5,0.9-0.8,1.1l0,0c-0.4,0.2-0.9,0.4-1.6,0.6l0,0c-1.6,0.4-2.9,0.5-3.9,1l0,0
						c-0.9,0.5-1.6,1.1-2.1,2.9l0,0l-11.9,47.8c-0.1,0.5-0.2,0.9-0.2,1.3l0,0c0,3.2,2.7,5.9,6.2,6.9l0,0c0.7,0.2,1.3,0.7,1.3,1.4
						l0,0c0,0.8-0.8,1.3-1.6,1.4l0,0l0,0l-14.4-0.6l-17.6,0.6l0,0l0,0C225.8,128.3,225.4,128.2,225.1,128L225.1,128z M226.2,126.9
						l17.7-0.6l13.9,0.5c-3.8-1.2-6.8-4.3-6.9-8.2l0,0c0-0.6,0.1-1.1,0.2-1.7l0,0L263,69.1c0.5-2.1,1.6-3.3,2.9-3.9l0,0
						c1.3-0.6,2.7-0.7,4.1-1.1l0,0h0.1l0,0L248.9,64c-0.4,0.7-1,1.6-1.2,2l0,0l-24.6,36.5l-3.1,3.8l-2.7-41.7l-23.6,0.1l3.3,0.7
						c1.8,0.4,2.9,2.2,2.9,3.9l0,0c0,0.4-0.1,0.9-0.2,1.3l0,0l-14.5,46.6c-1.8,5-5.6,8.5-9.2,9.5l0,0l9.3-0.3l11.7,0.5
						c0.1,0,0.1,0,0.2,0l0,0c0,0-0.1-0.1-0.3-0.1l0,0c-3.5-0.7-6.4-3.2-7.6-5.3l0,0c-0.6-1.1-0.9-2.4-0.9-3.7l0,0
						c0-1.3,0.3-2.7,0.7-4.1l0,0l11.2-35.1c0.2-0.8,0.9-1.3,1.6-1.3l0,0c1,0,1.7,0.8,1.8,1.8l0,0l3.3,44.2c0.1,1.3,0.4,2.2,0.7,2.6
						l0,0c0.4,0.5,0.7,0.6,1.2,0.6l0,0c0.9,0,2.2-0.8,3-2.1l0,0l32.6-47.3c0.3-0.5,0.8-0.9,1.4-0.9l0,0c0.4,0,0.8,0.2,1.1,0.5l0,0
						c0.3,0.3,0.4,0.7,0.4,1.2l0,0l0,0V78l-11.6,41.6c-0.9,3.1-4.7,6.6-9.1,7.1l0,0C226.3,126.8,226.2,126.8,226.2,126.9
						L226.2,126.9L226.2,126.9L226.2,126.9z"/>
				</g>
			</g>
		</g>
	</g>
	<g>
		<g enable-background="new    ">
			<g>
				<g>
					<path fill="#FFFFFF" d="M281.9,63l29.6,0.2c1.4,0,2,2.5-0.7,2.7c-3,0.3-6.1,2.4-6.8,4.9l-13.9,48c-0.7,2.5,1.2,6.8,6,7.2
						c0.8,0.2,0.8,1.4,0.1,1.4l-17.5-0.7l-16.8,0.5c-0.9,0-0.7-1.2,0.1-1.3c2.3-0.4,9-3,10.3-7.1l15.5-47.9c1-3.4-2.2-5.1-5.9-6
						C281,64.8,281.1,63.1,281.9,63z"/>
					<path fill="#FFFFFF" d="M296,128.2l-17.5-0.7l-16.8,0.5c-0.3,0-0.7-0.1-1-0.4l0,0c-0.3-0.3-0.4-0.6-0.4-0.9l0,0
						c0-0.7,0.5-1.4,1.3-1.5l0,0c1-0.2,3.3-0.9,5.3-2.1l0,0c2.1-1.2,3.9-2.8,4.4-4.5l0,0l15.6-47.9c0.1-0.4,0.1-0.7,0.1-1l0,0
						c0-1-0.5-1.8-1.5-2.5l0,0c-1-0.7-2.4-1.2-3.9-1.6l0,0c-0.4-0.1-0.7-0.4-0.9-0.7l0,0c-0.2-0.3-0.2-0.6-0.2-0.9l0,0
						c0-0.4,0.1-0.7,0.3-1l0,0c0.2-0.3,0.5-0.7,1-0.7l0,0l0,0l29.7,0.2c1.2,0,1.9,1,1.9,2l0,0c0,1.1-1,2.1-2.6,2.2l0,0
						c-2.7,0.2-5.6,2.3-6.2,4.4l0,0l-13.9,48c-0.1,0.3-0.1,0.6-0.1,0.9l0,0c0,2.2,1.7,5.1,5.4,5.3l0,0h0.1h0.1
						c0.8,0.2,1.2,0.9,1.2,1.5l0,0c0,0.3-0.1,0.6-0.3,0.9l0,0C296.8,128,296.5,128.2,296,128.2L296,128.2
						C296.1,128.2,296,128.2,296,128.2L296,128.2z M295,126.7c-3.9-0.8-5.8-4-5.8-6.7l0,0c0-0.4,0.1-0.9,0.2-1.3l0,0l13.9-48
						c0.9-3,4.2-5.1,7.5-5.5l0,0c1.2-0.2,1.2-0.5,1.3-0.7l0,0c0-0.3-0.2-0.5-0.5-0.5l0,0l-29.5-0.2c0,0.1-0.1,0.2-0.1,0.3l0,0
						c0,0.1,0,0.1,0,0.1l0,0c1.6,0.4,3.2,0.9,4.4,1.8l0,0c1.2,0.8,2.2,2.1,2.1,3.7l0,0c0,0.4-0.1,0.9-0.2,1.4l0,0L272.8,119
						c-0.8,2.4-2.9,4.1-5.1,5.4l0,0c-1.8,1-3.7,1.8-5,2.1l0,0l15.8-0.5L295,126.7L295,126.7z"/>
				</g>
			</g>
		</g>
	</g>
	<g>
		<g enable-background="new    ">
			<g>
				<g>
					<path fill="#FFFFFF" d="M359.4,60c3,0,6,0.3,8.9,0.8c1.8,0.4,4.1,1.2,3.5,2.8l-4.3,11.2c-0.3,1.1-0.9,1.8-1.5,1.8
						c-0.8,0-1.6-1.3-1.9-4.6c-0.1-1.8,0.1-8.3-2.3-8.4c-0.6,0-1.3,0-1.9,0c-4,0-7.9,0.7-11.4,1.8c-13.4,4.3-21.9,11.6-27.5,24
						c-5.5,12-2.8,25,1.1,29.4c2.6,3,8.8,5.1,13.5,5.1c2.8,0,5.1-0.7,5.9-2.4c2.6-6.2,3.8-13.7,3.6-17.2c0-4.2-1.6-4.5-4.7-5.1
						c-2.2-0.2-2.9-1.7,1.2-1.7c0.2,0,0.4,0,0.7,0c1.3,0,2.6,0,3.8,0c2.9,0,5.6,0,8.4,0c2.6,0,5.1,0,7.8,0c2.4,0,4.9,0,7.5,0
						c0.7,0.4,0.7,0.7-0.1,1c-4.4,0.7-6.2,1.5-6.6,3.2c-1.7,5.8-3.2,12.2-6,18.1c-1,2.1-5.6,4.2-7.1,4.6c-4.7,1.7-12.5,3-20,3
						c-6,0-11.7-0.9-15.4-3.1c-13.9-8.5-16.4-24.5-10.7-35.1C312,73.4,337.3,60,359.4,60z"/>
					<path fill="#FFFFFF" d="M313.9,125c-9.6-5.8-13.9-15.3-13.9-24.1l0,0c0-4.3,1-8.4,2.9-12l0,0c8.6-16.1,34.1-29.5,56.5-29.5l0,0
						v0.7v0.7c-21.8,0-47,13.3-55.2,28.8l0,0c-1.8,3.3-2.7,7.3-2.7,11.3l0,0c0,8.4,4.1,17.3,13.2,22.8l0,0c3.5,2.1,9.1,3,15,3l0,0
						c7.4,0,15.1-1.3,19.8-3l0,0c0.7-0.2,2.2-0.8,3.6-1.6l0,0c1.4-0.8,2.7-1.8,3.1-2.6l0,0c2.7-5.9,4.3-12.2,6-18l0,0
						c0.3-1.1,1-1.9,2.2-2.4l0,0c0.7-0.3,1.5-0.6,2.4-0.8l0,0c-1.6,0-3.2,0-4.7,0l0,0c-2.6,0-5.2,0-7.8,0l0,0c-2.7,0-5.5,0-8.4,0
						l0,0c-1.3,0-2.5,0-3.9,0l0,0c-0.2,0-0.5,0-0.7,0l0,0c-0.7,0-1.2,0-1.6,0.1l0,0c0.1,0,0.3,0.1,0.4,0.1l0,0l0,0l0,0
						c1.5,0.3,2.8,0.5,3.9,1.3l0,0c1,0.9,1.5,2.3,1.5,4.4l0,0l0,0l0,0c0,0.3,0,0.6,0,0.9l0,0c0,3.9-1.3,10.7-3.7,16.6l0,0
						c-1.1,2.1-3.7,2.8-6.5,2.8l0,0c-4.9,0-11.2-2.1-14.1-5.3l0,0c-2.5-2.9-4.4-8.6-4.4-15.5l0,0c0-4.6,0.9-9.8,3.2-14.7l0,0
						c5.7-12.6,14.4-20.1,27.9-24.4l0,0c3.6-1.1,7.6-1.8,11.7-1.8l0,0c0.6,0,1.3,0,1.9,0l0,0c1,0.1,1.7,0.8,2,1.5l0,0
						c0.4,0.8,0.6,1.7,0.7,2.7l0,0c0.3,1.9,0.2,4.1,0.3,4.9l0,0c0.2,2.4,0.7,3.6,1,3.9l0,0c0.1,0.1,0.1,0.1,0.1,0.1l0,0l0,0l0,0
						c0,0,0.1,0,0.3-0.2l0,0c0.2-0.2,0.4-0.6,0.5-1.1l0,0l0,0l4.4-11.1c0-0.1,0-0.2,0-0.2l0,0c0-0.2-0.2-0.5-0.8-0.9l0,0
						c-0.6-0.3-1.4-0.6-2.2-0.7l0,0c-2.8-0.5-5.8-0.8-8.8-0.8l0,0v-0.7v-0.7c3.1,0,6.1,0.3,9,0.8l0,0c0.9,0.2,1.8,0.4,2.6,0.9l0,0
						c0.8,0.4,1.6,1.1,1.6,2.2l0,0c0,0.2,0,0.5-0.1,0.7l0,0l-4.4,11.1c-0.4,1.2-1,2.2-2.2,2.3l0,0c-0.9,0-1.4-0.7-1.8-1.5l0,0
						c-0.4-0.9-0.7-2.1-0.8-3.8l0,0c-0.1-1.4,0-5.4-0.9-7l0,0c-0.3-0.5-0.5-0.7-0.8-0.7l0,0c-0.6,0-1.2,0-1.8,0l0,0
						c-3.9,0-7.8,0.6-11.2,1.7l0,0c-13.2,4.2-21.5,11.3-27,23.6l0,0c-2.2,4.8-3,9.7-3,14.1l0,0c0,6.5,1.9,12.1,4,14.5l0,0
						c2.4,2.8,8.4,4.9,13,4.8l0,0c2.7,0,4.7-0.7,5.2-1.9l0,0c2.3-5.5,3.5-12.3,3.5-15.9l0,0c0-0.3,0-0.6,0-0.9l0,0l0,0l0,0l0,0l0,0
						c0-2-0.4-2.8-0.9-3.3l0,0c-0.6-0.5-1.6-0.7-3.2-1l0,0c-0.6-0.1-1.1-0.2-1.5-0.4l0,0c-0.4-0.2-0.8-0.5-0.9-1.2l0,0
						c0-0.4,0.2-0.7,0.4-0.9l0,0c0.2-0.2,0.5-0.3,0.8-0.4l0,0c0.6-0.2,1.4-0.3,2.5-0.3l0,0c0.2,0,0.5,0,0.7,0l0,0c1.3,0,2.6,0,3.8,0
						l0,0c2.9,0,5.6,0,8.4,0l0,0c2.6,0,5.1,0,7.8,0l0,0c2.4,0,4.9,0,7.5,0l0,0h0.2h0.2c0.4,0.2,0.9,0.4,0.9,1.2l0,0
						c-0.1,0.8-0.6,1-1,1.2l0,0l-0.1,0.1h-0.1c-2.2,0.3-3.7,0.7-4.6,1.1l0,0c-0.9,0.5-1.2,0.9-1.4,1.5l0,0
						c-1.7,5.8-3.2,12.2-6.1,18.2l0,0c-0.7,1.4-2.2,2.4-3.7,3.3l0,0c-1.5,0.9-3.1,1.5-3.9,1.7l0,0c-4.8,1.7-12.7,3.1-20.2,3.1l0,0
						C323.7,128.2,317.8,127.3,313.9,125L313.9,125z"/>
				</g>
			</g>
		</g>
	</g>
	<polygon fill="#FFFFFF" points="132.8,32.7 150.3,32.7 87.8,126.4 71.1,126.4 	"/>
	<polygon fill="#FFFFFF" points="111.7,32.7 129.2,32.7 66.7,126.4 50,126.4 	"/>
	<g>
		<path fill="#FFFFFF" d="M129.9,104.6l-8.6,12.2c-2.6,4,2.3,8.2,7.6,9.2c0.5,0.4,0.4,1.6-0.3,1.6c-0.1,0-0.2,0-0.3,0
			s-2.1-0.9-6.7-1.3c-1.2-0.1-3.4-0.5-6.1-0.5c-0.9,0-1.9,0-2.9,0.2l-9.7,1.4c-0.9-0.1-0.9-1.1,0-1.4c4.7-0.6,10.3-4.1,13.5-8.7
			l39.3-54.8c0.6-0.9,2-1.5,3.4-1.5c1.7,0,3.3,0.9,3.3,2.9l1.3,54.8c0.4,4.6,3.5,6.5,7.4,7.6c0.5,0.4,0.3,1.1-0.1,1.2
			c-0.3,0-5-0.1-10.8-0.9c-1.3-0.2-2.4-0.3-3.7-0.3c-1.1,0-2.4,0.1-4.2,0.3c-2.2,0.2-1.2,0.3-10.3,0.7c-0.3,0-0.7-0.1-0.8-0.7
			c0.1-0.7,1.1-1,1.4-1.1c3.6-1,5.4-2.8,6.2-7.3c0.9-4.9,0.6-9.1,0.5-13.4L129.9,104.6z M144,101.4c2,0,3.9,0,5.3,0l-0.5-22.8
			c-0.1-0.3-0.2-0.4-0.4-0.4c-0.1,0-0.3,0.1-0.4,0.3c-4.9,6.9-11.6,15.4-16.3,22.2c-0.3,0.5,0,0.7,0.7,0.7c0.1,0,0.5,0,1.1,0
			c1,0,2.7,0,4.6,0C139.9,101.4,142,101.4,144,101.4"/>
		<path fill="#FFFFFF" d="M128.6,128.3c-0.2,0-0.3,0-0.5-0.1l0,0l0,0l0,0c0,0-2-0.8-6.5-1.3l0,0c-1.3-0.1-3.4-0.5-6-0.5l0,0
			c-0.9,0-1.9,0-2.8,0.2l0,0l-9.7,1.4H103c-0.8,0-1.4-0.7-1.4-1.4l0,0c0-0.7,0.5-1.3,1.2-1.5l0,0l0,0l0,0c4.4-0.6,9.9-3.9,13-8.4
			l0,0L155,62c0.9-1.2,2.5-1.8,4-1.8l0,0c1,0,1.9,0.2,2.7,0.8l0,0c0.8,0.6,1.3,1.6,1.3,2.8l0,0l1.3,54.8c0.4,4.2,3.1,5.9,6.8,7l0,0
			h0.1l0.1,0.1c0.4,0.3,0.7,0.8,0.6,1.2l0,0c0,0.6-0.3,1.1-0.9,1.3l0,0h-0.1h-0.1c-0.3,0-5.1-0.1-10.9-0.9l0,0
			c-1.3-0.2-2.3-0.3-3.6-0.3l0,0c-1.1,0-2.3,0.1-4.1,0.3l0,0c-2.2,0.2-1.3,0.3-10.3,0.7l0,0c-0.1,0-0.1,0-0.1,0l0,0
			c-0.2,0-0.6,0-0.9-0.3l0,0c-0.3-0.2-0.5-0.6-0.5-1l0,0v-0.1v-0.1c0.1-0.7,0.6-1.1,1-1.3l0,0c0.4-0.2,0.8-0.3,1-0.4l0,0
			c3.4-1,4.9-2.4,5.7-6.7l0,0c0.5-2.8,0.6-5.4,0.6-7.9l0,0c0-1.6-0.1-3.1-0.1-4.7l0,0l-18.6-0.1l-8.4,11.9c-0.4,0.7-0.6,1.3-0.6,1.9
			l0,0c-0.1,2.5,3.6,5.4,7.7,6.2l0,0h0.2l0.1,0.1c0.5,0.4,0.6,0.9,0.6,1.4l0,0c0,0.3-0.1,0.7-0.3,1l0,0
			C129.5,128.1,129,128.3,128.6,128.3L128.6,128.3L128.6,128.3L128.6,128.3z M121.7,125.5c4.1,0.4,6.2,1.1,6.8,1.3l0,0l0,0l0,0v-0.1
			l0,0c-4.4-0.9-8.5-3.8-8.6-7.5l0,0c0-0.9,0.3-1.8,0.8-2.7l0,0l8.6-12.2l0.2-0.3l20.8,0.1v0.7c0,1.8,0.1,3.6,0.1,5.4l0,0
			c0,2.6-0.1,5.2-0.6,8.1l0,0c-0.8,4.6-2.9,6.9-6.8,7.9l0,0c-0.1,0-0.5,0.2-0.7,0.3l0,0c8.9-0.4,7.7-0.4,10-0.7l0,0
			c1.8-0.2,3.1-0.3,4.3-0.3l0,0c1.3,0,2.4,0.1,3.8,0.3l0,0c4.2,0.6,7.9,0.8,9.6,0.9l0,0c-3.6-1.2-6.6-3.4-7-8l0,0l0,0l-1.3-54.8
			c0-0.8-0.3-1.3-0.8-1.6l0,0c-0.5-0.3-1.1-0.5-1.8-0.5l0,0c-1.2,0-2.3,0.5-2.8,1.2l0,0L117,117.8c-3,4.3-7.8,7.5-12.3,8.7l0,0
			l7.7-1.1c1-0.1,2.1-0.2,3-0.2l0,0C118.2,125,120.5,125.4,121.7,125.5L121.7,125.5z M129.9,105.4v-0.7V105.4L129.9,105.4z
			 M149.3,102.2c-1.4,0-3.3,0-5.3,0l0,0v-1.5c1.7,0,3.2,0,4.5,0l0,0l-0.5-21c-4.7,6.6-10.9,14.5-15.5,21l0,0c0.2,0,0.5,0,0.9,0l0,0
			c1,0,2.7,0,4.5,0l0,0c1.9,0,4,0,6,0l0,0v1.5c-2,0-4.1,0-6,0l0,0c-1.9,0-3.5,0-4.6,0l0,0c-0.6,0-1,0-1.2,0l0,0
			c-0.3,0-0.6,0-0.8-0.1l0,0c-0.3-0.1-0.7-0.5-0.7-1l0,0c0-0.3,0.1-0.5,0.2-0.7l0,0l0,0l0,0c4.8-6.9,11.5-15.3,16.3-22.2l0,0
			c0.2-0.3,0.4-0.6,1-0.7l0,0c0.3,0,0.6,0.2,0.8,0.4l0,0c0.2,0.2,0.2,0.4,0.3,0.6l0,0v0.1l0.5,23.7L149.3,102.2L149.3,102.2z"/>
	</g>
	<path fill="#FFFFFF" d="M424.1,126.3c0.5,0.4,0.3,1.1-0.1,1.2c-0.3,0-5-0.1-10.8-0.9c-1.4-0.2-2.4-0.3-3.7-0.3
		c-1.1,0-2.4,0.1-4.1,0.3c-2.3,0.2-1.2,0.3-10.3,0.7c-0.3,0-0.7-0.1-0.7-0.7c0.1-0.7,1.1-1,1.4-1.1c3.6-1,5.4-2.8,6.2-7.3
		c0.9-4.9,0.6-9.1,0.5-13.4l-19.6-0.1l-8.6,12.2c-2.5,4,2.3,8.2,7.6,9.1c0.5,0.4,0.4,1.6-0.3,1.6c-0.1,0-0.2,0-0.3,0
		c-0.1,0-2.1-0.9-6.7-1.3c-1.2-0.1-3.4-0.5-6.1-0.5c-0.9,0-1.9,0-2.9,0.2l-9.7,1.4c-0.9-0.1-0.9-1.1,0-1.4
		c4.7-0.6,10.3-4.1,13.5-8.7l39.3-54.8c0.6-0.9,2-1.5,3.4-1.5c1.7,0,3.3,0.9,3.3,2.9l1.3,54.8C417.1,123.3,420.2,125.2,424.1,126.3z
		 M397,101.5c2,0,3.9,0,5.3,0l-0.5-22.8c-0.1-0.3-0.2-0.4-0.4-0.4c-0.1,0-0.3,0.1-0.4,0.3c-4.9,6.9-11.6,15.4-16.4,22.2
		c-0.3,0.5,0,0.7,0.7,0.7c0.1,0,0.7,0,1.5,0c1,0,2.5,0,4.1,0C392.8,101.5,395,101.5,397,101.5"/>
	<path fill="#FFFFFF" d="M381.5,128.4c-0.2,0-0.3,0-0.5-0.1l0,0l0,0l0,0c0,0-2-0.8-6.5-1.3l0,0c-1.3-0.1-3.4-0.5-6-0.5l0,0
		c-0.9,0-1.9,0-2.8,0.2l0,0l-9.7,1.4h-0.1c-0.8,0-1.4-0.7-1.4-1.4l0,0c0-0.7,0.5-1.3,1.2-1.5l0,0l0,0l0,0c4.4-0.6,9.9-3.9,13-8.4
		l0,0L407.9,62c0.9-1.2,2.5-1.8,4-1.8l0,0c1,0,2,0.2,2.7,0.8l0,0c0.8,0.6,1.3,1.6,1.3,2.8l0,0l1.6,54.8c0.4,4.2,3.1,5.8,6.8,7l0,0
		l-0.2,0.7l0.2-0.7h0.1h0.1c0.4,0.3,0.7,0.8,0.6,1.2l0,0c0,0.6-0.3,1.1-0.9,1.3l0,0h-0.1H424c-0.3,0-5.1-0.1-10.9-0.9l0,0
		c-1.3-0.2-2.3-0.3-3.6-0.3l0,0c-1.1,0-2.3,0.1-4.1,0.3l0,0c-2.2,0.2-1.2,0.3-10.3,0.7l0,0H395l0,0c-0.2,0-0.6,0-0.9-0.3l0,0
		c-0.3-0.2-0.5-0.6-0.5-1l0,0v-0.1v-0.1c0.1-0.7,0.6-1.1,1-1.3l0,0c0.4-0.2,0.8-0.3,1-0.4l0,0c3.5-1,4.9-2.4,5.7-6.7l0,0
		c0.5-2.8,0.6-5.3,0.6-7.8l0,0c0-1.6-0.1-3.1-0.1-4.7l0,0l-18.6-0.1l-8.4,11.9c-0.4,0.7-0.6,1.3-0.6,1.9l0,0
		c-0.1,2.5,3.6,5.4,7.7,6.1l0,0h0.2l0.1,0.1c0.5,0.4,0.6,0.9,0.6,1.3l0,0c0,0.3-0.1,0.7-0.3,1l0,0
		C382.4,128.2,382,128.4,381.5,128.4L381.5,128.4C381.6,128.4,381.5,128.4,381.5,128.4L381.5,128.4z M374.7,125.6
		c4.1,0.4,6.2,1.1,6.8,1.3l0,0c0,0,0,0,0-0.1l0,0v-0.1l0,0c-4.4-0.9-8.5-3.8-8.6-7.5l0,0c0-0.9,0.3-1.8,0.8-2.7l0,0l8.8-12.6
		l20.8,0.1v0.7c0,1.8,0.1,3.6,0.1,5.5l0,0c0,2.5-0.1,5.2-0.6,8.1l0,0c-0.8,4.6-2.9,6.9-6.7,7.9l0,0c-0.2,0-0.5,0.2-0.7,0.3l0,0
		c8.9-0.4,7.7-0.4,10-0.7l0,0c1.8-0.2,3.1-0.3,4.2-0.3l0,0c1.3,0,2.4,0.1,3.8,0.3l0,0c4.2,0.6,7.8,0.8,9.6,0.9l0,0
		c-3.6-1.2-6.6-3.4-7-8l0,0l0,0l-1.3-54.8c0-0.8-0.3-1.3-0.8-1.6l0,0c-0.5-0.3-1.1-0.5-1.9-0.5l0,0c-1.2,0-2.3,0.5-2.8,1.2l0,0
		L370,117.7c-3,4.3-7.8,7.5-12.2,8.7l0,0l7.7-1.1c1.1-0.1,2.1-0.2,3-0.2l0,0C371.2,125.1,373.5,125.5,374.7,125.6L374.7,125.6z
		 M356,126.8L356,126.8L356,126.8L356,126.8z M402.3,102.3c-1.4,0-3.3,0-5.3,0l0,0v-1.5c1.7,0,3.2,0,4.5,0l0,0l-0.5-21
		c-4.7,6.6-10.9,14.5-15.5,21l0,0c0.2,0,0.7,0,1.4,0l0,0c1,0,2.5,0,4.1,0l0,0c1.9,0,4,0,6,0l0,0v1.5c-2,0-4.1,0-6,0l0,0
		c-1.6,0-3.1,0-4.1,0l0,0c-0.8,0-1.4,0-1.6,0l0,0c-0.3,0-0.6,0-0.9-0.1l0,0c-0.3-0.1-0.7-0.5-0.7-1l0,0c0-0.3,0.1-0.5,0.2-0.7l0,0
		l0,0l0,0c4.8-6.9,11.5-15.3,16.3-22.2l0,0c0.2-0.3,0.4-0.6,1-0.7l0,0c0.3,0,0.6,0.2,0.8,0.4l0,0c0.2,0.2,0.2,0.4,0.3,0.6l0,0v0.1
		l0.5,23.7L402.3,102.3L402.3,102.3z M397,102.3L397,102.3L397,102.3L397,102.3z"/>
	<g>
		<polygon fill="#FFFFFF" points="56.3,111.1 33.2,76.7 15.5,76.7 47.6,124.3 		"/>
	</g>
	<g>
		<polygon fill="#FFFFFF" points="66.8,95.2 54.3,76.7 36.6,76.7 58,108.5 		"/>
	</g>
</g>
</svg>
