<?xml version="1.0" encoding="UTF-8" standalone="no"?>
<svg
   xmlns:dc="http://purl.org/dc/elements/1.1/"
   xmlns:cc="http://creativecommons.org/ns#"
   xmlns:rdf="http://www.w3.org/1999/02/22-rdf-syntax-ns#"
   xmlns:svg="http://www.w3.org/2000/svg"
   xmlns="http://www.w3.org/2000/svg"
   xmlns:sodipodi="http://sodipodi.sourceforge.net/DTD/sodipodi-0.dtd"
   xmlns:inkscape="http://www.inkscape.org/namespaces/inkscape"
   version="1.0"
   id="Ebene_1"
   x="0px"
   y="0px"
   width="419.61938"
   height="105.7"
   viewBox="0 0 419.61937 105.69999"
   enable-background="new 0 0 440.7 161.1"
   xml:space="preserve"
   sodipodi:docname="amiga.svg"
   inkscape:version="1.0 (4035a4fb49, 2020-05-01)"><metadata
     id="metadata68"><rdf:RDF><cc:Work
         rdf:about=""><dc:format>image/svg+xml</dc:format><dc:type
           rdf:resource="http://purl.org/dc/dcmitype/StillImage" /><dc:title></dc:title></cc:Work></rdf:RDF></metadata><defs
     id="defs66" /><sodipodi:namedview
     pagecolor="#ffffff"
     bordercolor="#666666"
     borderopacity="1"
     objecttolerance="10"
     gridtolerance="10"
     guidetolerance="10"
     inkscape:pageopacity="0"
     inkscape:pageshadow="2"
     inkscape:window-width="1920"
     inkscape:window-height="1017"
     id="namedview64"
     showgrid="false"
     fit-margin-top="5"
     fit-margin-left="5"
     fit-margin-right="5"
     fit-margin-bottom="5"
     inkscape:zoom="0.61946901"
     inkscape:cx="-26.642853"
     inkscape:cy="52.85"
     inkscape:window-x="-8"
     inkscape:window-y="-8"
     inkscape:window-maximized="1"
     inkscape:current-layer="Ebene_1"
     inkscape:document-rotation="0"
     inkscape:pagecheckerboard="true"
     lock-margins="true" /><g
     id="Ebene_2"
     transform="translate(-10.5,-27.7)" /><g
     id="g61"
     transform="translate(-10.5,-27.7)"><g
       id="g13"><g
         enable-background="new    "
         id="g11"><g
           id="g9"><g
             id="g7"><path
               d="m 248.5,63.2 22.1,0.1 c 0.4,0 3.5,0.5 -0.3,1.5 -3,0.8 -5.5,0.5 -6.5,4.4 L 251.9,117 c -1,4.3 2.3,8 6.6,9.1 1,0.2 1,1.3 -0.1,1.3 l -14.5,-0.5 -17.6,0.6 c -1.3,0 -1.3,-1.3 0.1,-1.6 4.1,-0.4 7.8,-3.8 8.6,-6.6 l 11.5,-41.4 c 0,-0.6 -0.3,-1 -0.7,-1 -0.3,0 -0.5,0.2 -0.7,0.5 l -32.6,47.4 c -0.9,1.5 -2.3,2.4 -3.6,2.4 -1.4,0 -2.5,-1.1 -2.7,-4 L 202.9,79 c 0,-0.6 -0.6,-1.1 -1.1,-1.1 -0.4,0 -0.7,0.2 -0.9,0.8 l -11.2,35 c -0.9,2.7 -1,5.3 0.1,7.1 1.1,1.9 3.9,4.3 7.1,5 1.3,0.3 1.2,1.6 0,1.6 l -11.7,-0.5 -9.8,0.4 c -1.2,-0.1 -1,-1.2 0,-1.4 3.4,-0.7 7.3,-4.2 9,-9.1 l 14.5,-46.6 c 0.6,-1.8 -0.4,-3.9 -2.1,-4.3 L 192.3,65 c -0.8,-0.1 -0.9,-1.2 0,-1.2 l 25.7,-0.2 2.6,40.6 1.9,-2.3 24.6,-36.4 c 0.3,-0.4 1.1,-1.6 1.4,-2.3 z"
               id="path3"
               inkscape:connector-curvature="0"
               style="fill:#ffffff" /><path
               d="m 225.1,128 c -0.3,-0.2 -0.5,-0.7 -0.5,-1.1 v 0 c 0,-0.9 0.7,-1.5 1.6,-1.6 v 0 0 0 c 3.8,-0.3 7.3,-3.7 7.9,-6.1 v 0 L 245.6,77.8 213,125.2 c -1,1.6 -2.6,2.7 -4.2,2.8 v 0 c -0.9,0 -1.8,-0.4 -2.4,-1.2 v 0 c -0.6,-0.8 -0.9,-2 -1,-3.5 v 0 l -3.3,-44.2 c 0,-0.2 -0.3,-0.4 -0.3,-0.4 v 0 0 0 c 0,0 -0.1,0 -0.2,0.2 v 0 l -11.2,35 c -0.4,1.3 -0.7,2.5 -0.7,3.6 v 0 c 0,1.1 0.2,2.1 0.7,3 v 0 c 0.9,1.7 3.6,4 6.7,4.6 v 0 c 0.8,0.2 1.5,0.8 1.5,1.6 v 0 c 0,0.8 -0.8,1.5 -1.6,1.5 v 0 0 l -11.7,-0.5 -9.9,0.4 v 0 c -0.8,0 -1.5,-0.6 -1.5,-1.4 v 0 c 0,-0.8 0.6,-1.4 1.4,-1.5 v 0 c 3.1,-0.6 6.8,-3.9 8.5,-8.6 v 0 L 198.3,70 c 0.1,-0.3 0.1,-0.6 0.1,-0.9 v 0 c 0,-1.2 -0.7,-2.3 -1.7,-2.5 v 0 l -4.5,-0.9 c -0.8,-0.1 -1.3,-0.7 -1.3,-1.4 v 0 c 0,-0.3 0.1,-0.7 0.4,-0.9 v 0 c 0.3,-0.3 0.6,-0.4 1,-0.4 v 0 l 26.4,-0.2 2.5,39.4 0.7,-0.8 24.6,-36.2 c 0.3,-0.5 1,-1.6 1.4,-2.3 v 0 l 0.2,-0.4 22.5,0.1 c 0.4,0 1.1,0.1 1.7,0.4 v 0 c 0.2,0.1 0.5,0.3 0.6,0.9 v 0 c -0.1,0.7 -0.5,0.9 -0.8,1.1 v 0 c -0.4,0.2 -0.9,0.4 -1.6,0.6 v 0 c -1.6,0.4 -2.9,0.5 -3.9,1 v 0 c -0.9,0.5 -1.6,1.1 -2.1,2.9 v 0 l -11.9,47.8 c -0.1,0.5 -0.2,0.9 -0.2,1.3 v 0 c 0,3.2 2.7,5.9 6.2,6.9 v 0 c 0.7,0.2 1.3,0.7 1.3,1.4 v 0 c 0,0.8 -0.8,1.3 -1.6,1.4 v 0 0 l -14.4,-0.6 -17.6,0.6 v 0 0 c -0.5,0 -0.9,-0.1 -1.2,-0.3 z m 1.1,-1.1 17.7,-0.6 13.9,0.5 c -3.8,-1.2 -6.8,-4.3 -6.9,-8.2 v 0 c 0,-0.6 0.1,-1.1 0.2,-1.7 v 0 L 263,69.1 c 0.5,-2.1 1.6,-3.3 2.9,-3.9 v 0 c 1.3,-0.6 2.7,-0.7 4.1,-1.1 v 0 h 0.1 v 0 L 248.9,64 c -0.4,0.7 -1,1.6 -1.2,2 v 0 l -24.6,36.5 -3.1,3.8 -2.7,-41.7 -23.6,0.1 3.3,0.7 c 1.8,0.4 2.9,2.2 2.9,3.9 v 0 c 0,0.4 -0.1,0.9 -0.2,1.3 v 0 l -14.5,46.6 c -1.8,5 -5.6,8.5 -9.2,9.5 v 0 l 9.3,-0.3 11.7,0.5 c 0.1,0 0.1,0 0.2,0 v 0 c 0,0 -0.1,-0.1 -0.3,-0.1 v 0 c -3.5,-0.7 -6.4,-3.2 -7.6,-5.3 v 0 c -0.6,-1.1 -0.9,-2.4 -0.9,-3.7 v 0 c 0,-1.3 0.3,-2.7 0.7,-4.1 v 0 l 11.2,-35.1 c 0.2,-0.8 0.9,-1.3 1.6,-1.3 v 0 c 1,0 1.7,0.8 1.8,1.8 v 0 l 3.3,44.2 c 0.1,1.3 0.4,2.2 0.7,2.6 v 0 c 0.4,0.5 0.7,0.6 1.2,0.6 v 0 c 0.9,0 2.2,-0.8 3,-2.1 v 0 l 32.6,-47.3 c 0.3,-0.5 0.8,-0.9 1.4,-0.9 v 0 c 0.4,0 0.8,0.2 1.1,0.5 v 0 c 0.3,0.3 0.4,0.7 0.4,1.2 v 0 0 0.1 l -11.6,41.6 c -0.9,3.1 -4.7,6.6 -9.1,7.1 v 0 c -0.4,0.1 -0.5,0.1 -0.5,0.2 z"
               id="path5"
               inkscape:connector-curvature="0"
               style="fill:#ffffff" /></g></g></g></g><g
       id="g25"><g
         enable-background="new    "
         id="g23"><g
           id="g21"><g
             id="g19"><path
               d="m 281.9,63 29.6,0.2 c 1.4,0 2,2.5 -0.7,2.7 -3,0.3 -6.1,2.4 -6.8,4.9 l -13.9,48 c -0.7,2.5 1.2,6.8 6,7.2 0.8,0.2 0.8,1.4 0.1,1.4 l -17.5,-0.7 -16.8,0.5 c -0.9,0 -0.7,-1.2 0.1,-1.3 2.3,-0.4 9,-3 10.3,-7.1 l 15.5,-47.9 c 1,-3.4 -2.2,-5.1 -5.9,-6 -0.9,-0.1 -0.8,-1.8 0,-1.9 z"
               id="path15"
               inkscape:connector-curvature="0"
               style="fill:#ffffff" /><path
               d="m 296,128.2 -17.5,-0.7 -16.8,0.5 c -0.3,0 -0.7,-0.1 -1,-0.4 v 0 c -0.3,-0.3 -0.4,-0.6 -0.4,-0.9 v 0 c 0,-0.7 0.5,-1.4 1.3,-1.5 v 0 c 1,-0.2 3.3,-0.9 5.3,-2.1 v 0 c 2.1,-1.2 3.9,-2.8 4.4,-4.5 v 0 l 15.6,-47.9 c 0.1,-0.4 0.1,-0.7 0.1,-1 v 0 c 0,-1 -0.5,-1.8 -1.5,-2.5 v 0 c -1,-0.7 -2.4,-1.2 -3.9,-1.6 v 0 c -0.4,-0.1 -0.7,-0.4 -0.9,-0.7 v 0 c -0.2,-0.3 -0.2,-0.6 -0.2,-0.9 v 0 c 0,-0.4 0.1,-0.7 0.3,-1 v 0 c 0.2,-0.3 0.5,-0.7 1,-0.7 v 0 0 l 29.7,0.2 c 1.2,0 1.9,1 1.9,2 v 0 c 0,1.1 -1,2.1 -2.6,2.2 v 0 c -2.7,0.2 -5.6,2.3 -6.2,4.4 v 0 l -13.9,48 c -0.1,0.3 -0.1,0.6 -0.1,0.9 v 0 c 0,2.2 1.7,5.1 5.4,5.3 v 0 h 0.1 0.1 c 0.8,0.2 1.2,0.9 1.2,1.5 v 0 c 0,0.3 -0.1,0.6 -0.3,0.9 v 0 c -0.3,0.3 -0.6,0.5 -1.1,0.5 v 0 c 0.1,0 0,0 0,0 z m -1,-1.5 c -3.9,-0.8 -5.8,-4 -5.8,-6.7 v 0 c 0,-0.4 0.1,-0.9 0.2,-1.3 v 0 l 13.9,-48 c 0.9,-3 4.2,-5.1 7.5,-5.5 v 0 c 1.2,-0.2 1.2,-0.5 1.3,-0.7 v 0 c 0,-0.3 -0.2,-0.5 -0.5,-0.5 v 0 l -29.5,-0.2 c 0,0.1 -0.1,0.2 -0.1,0.3 v 0 c 0,0.1 0,0.1 0,0.1 v 0 c 1.6,0.4 3.2,0.9 4.4,1.8 v 0 c 1.2,0.8 2.2,2.1 2.1,3.7 v 0 c 0,0.4 -0.1,0.9 -0.2,1.4 v 0 L 272.8,119 c -0.8,2.4 -2.9,4.1 -5.1,5.4 v 0 c -1.8,1 -3.7,1.8 -5,2.1 v 0 l 15.8,-0.5 z"
               id="path17"
               inkscape:connector-curvature="0"
               style="fill:#ffffff" /></g></g></g></g><g
       id="g37"><g
         enable-background="new    "
         id="g35"><g
           id="g33"><g
             id="g31"><path
               d="m 359.4,60 c 3,0 6,0.3 8.9,0.8 1.8,0.4 4.1,1.2 3.5,2.8 l -4.3,11.2 c -0.3,1.1 -0.9,1.8 -1.5,1.8 -0.8,0 -1.6,-1.3 -1.9,-4.6 -0.1,-1.8 0.1,-8.3 -2.3,-8.4 -0.6,0 -1.3,0 -1.9,0 -4,0 -7.9,0.7 -11.4,1.8 -13.4,4.3 -21.9,11.6 -27.5,24 -5.5,12 -2.8,25 1.1,29.4 2.6,3 8.8,5.1 13.5,5.1 2.8,0 5.1,-0.7 5.9,-2.4 2.6,-6.2 3.8,-13.7 3.6,-17.2 0,-4.2 -1.6,-4.5 -4.7,-5.1 -2.2,-0.2 -2.9,-1.7 1.2,-1.7 0.2,0 0.4,0 0.7,0 1.3,0 2.6,0 3.8,0 2.9,0 5.6,0 8.4,0 2.6,0 5.1,0 7.8,0 2.4,0 4.9,0 7.5,0 0.7,0.4 0.7,0.7 -0.1,1 -4.4,0.7 -6.2,1.5 -6.6,3.2 -1.7,5.8 -3.2,12.2 -6,18.1 -1,2.1 -5.6,4.2 -7.1,4.6 -4.7,1.7 -12.5,3 -20,3 -6,0 -11.7,-0.9 -15.4,-3.1 C 300.7,115.8 298.2,99.8 303.9,89.2 312,73.4 337.3,60 359.4,60 Z"
               id="path27"
               inkscape:connector-curvature="0"
               style="fill:#ffffff" /><path
               d="M 313.9,125 C 304.3,119.2 300,109.7 300,100.9 v 0 c 0,-4.3 1,-8.4 2.9,-12 v 0 C 311.5,72.8 337,59.4 359.4,59.4 v 0 0.7 0.7 c -21.8,0 -47,13.3 -55.2,28.8 v 0 c -1.8,3.3 -2.7,7.3 -2.7,11.3 v 0 c 0,8.4 4.1,17.3 13.2,22.8 v 0 c 3.5,2.1 9.1,3 15,3 v 0 c 7.4,0 15.1,-1.3 19.8,-3 v 0 c 0.7,-0.2 2.2,-0.8 3.6,-1.6 v 0 c 1.4,-0.8 2.7,-1.8 3.1,-2.6 v 0 c 2.7,-5.9 4.3,-12.2 6,-18 v 0 c 0.3,-1.1 1,-1.9 2.2,-2.4 v 0 c 0.7,-0.3 1.5,-0.6 2.4,-0.8 v 0 c -1.6,0 -3.2,0 -4.7,0 v 0 c -2.6,0 -5.2,0 -7.8,0 v 0 c -2.7,0 -5.5,0 -8.4,0 v 0 c -1.3,0 -2.5,0 -3.9,0 v 0 c -0.2,0 -0.5,0 -0.7,0 v 0 c -0.7,0 -1.2,0 -1.6,0.1 v 0 c 0.1,0 0.3,0.1 0.4,0.1 v 0 0 0 c 1.5,0.3 2.8,0.5 3.9,1.3 v 0 c 1,0.9 1.5,2.3 1.5,4.4 v 0 0 0 c 0,0.3 0,0.6 0,0.9 v 0 c 0,3.9 -1.3,10.7 -3.7,16.6 v 0 c -1.1,2.1 -3.7,2.8 -6.5,2.8 v 0 c -4.9,0 -11.2,-2.1 -14.1,-5.3 v 0 c -2.5,-2.9 -4.4,-8.6 -4.4,-15.5 v 0 c 0,-4.6 0.9,-9.8 3.2,-14.7 v 0 c 5.7,-12.6 14.4,-20.1 27.9,-24.4 v 0 c 3.6,-1.1 7.6,-1.8 11.7,-1.8 v 0 c 0.6,0 1.3,0 1.9,0 v 0 c 1,0.1 1.7,0.8 2,1.5 v 0 c 0.4,0.8 0.6,1.7 0.7,2.7 v 0 c 0.3,1.9 0.2,4.1 0.3,4.9 v 0 c 0.2,2.4 0.7,3.6 1,3.9 v 0 c 0.1,0.1 0.1,0.1 0.1,0.1 v 0 0 0 c 0,0 0.1,0 0.3,-0.2 v 0 c 0.2,-0.2 0.4,-0.6 0.5,-1.1 v 0 0 l 4.4,-11.1 c 0,-0.1 0,-0.2 0,-0.2 v 0 c 0,-0.2 -0.2,-0.5 -0.8,-0.9 v 0 c -0.6,-0.3 -1.4,-0.6 -2.2,-0.7 v 0 C 365,61.2 362,60.9 359,60.9 v 0 -0.7 -0.7 c 3.1,0 6.1,0.3 9,0.8 v 0 c 0.9,0.2 1.8,0.4 2.6,0.9 v 0 c 0.8,0.4 1.6,1.1 1.6,2.2 v 0 c 0,0.2 0,0.5 -0.1,0.7 v 0 l -4.4,11.1 c -0.4,1.2 -1,2.2 -2.2,2.3 v 0 c -0.9,0 -1.4,-0.7 -1.8,-1.5 v 0 c -0.4,-0.9 -0.7,-2.1 -0.8,-3.8 v 0 c -0.1,-1.4 0,-5.4 -0.9,-7 v 0 c -0.3,-0.5 -0.5,-0.7 -0.8,-0.7 v 0 c -0.6,0 -1.2,0 -1.8,0 v 0 c -3.9,0 -7.8,0.6 -11.2,1.7 v 0 c -13.2,4.2 -21.5,11.3 -27,23.6 v 0 c -2.2,4.8 -3,9.7 -3,14.1 v 0 c 0,6.5 1.9,12.1 4,14.5 v 0 c 2.4,2.8 8.4,4.9 13,4.8 v 0 c 2.7,0 4.7,-0.7 5.2,-1.9 v 0 c 2.3,-5.5 3.5,-12.3 3.5,-15.9 v 0 c 0,-0.3 0,-0.6 0,-0.9 v 0 0 0 0 0 c 0,-2 -0.4,-2.8 -0.9,-3.3 v 0 c -0.6,-0.5 -1.6,-0.7 -3.2,-1 v 0 c -0.6,-0.1 -1.1,-0.2 -1.5,-0.4 v 0 c -0.4,-0.2 -0.8,-0.5 -0.9,-1.2 v 0 c 0,-0.4 0.2,-0.7 0.4,-0.9 v 0 c 0.2,-0.2 0.5,-0.3 0.8,-0.4 v 0 c 0.6,-0.2 1.4,-0.3 2.5,-0.3 v 0 c 0.2,0 0.5,0 0.7,0 v 0 c 1.3,0 2.6,0 3.8,0 v 0 c 2.9,0 5.6,0 8.4,0 v 0 c 2.6,0 5.1,0 7.8,0 v 0 c 2.4,0 4.9,0 7.5,0 v 0 h 0.2 0.2 c 0.4,0.2 0.9,0.4 0.9,1.2 v 0 c -0.1,0.8 -0.6,1 -1,1.2 v 0 l -0.1,0.1 h -0.1 c -2.2,0.3 -3.7,0.7 -4.6,1.1 v 0 c -0.9,0.5 -1.2,0.9 -1.4,1.5 v 0 c -1.7,5.8 -3.2,12.2 -6.1,18.2 v 0 c -0.7,1.4 -2.2,2.4 -3.7,3.3 v 0 c -1.5,0.9 -3.1,1.5 -3.9,1.7 v 0 c -4.8,1.7 -12.7,3.1 -20.2,3.1 v 0 c -5.8,-0.2 -11.7,-1.1 -15.6,-3.4 z"
               id="path29"
               inkscape:connector-curvature="0"
               style="fill:#ffffff" /></g></g></g></g><polygon
       points="132.8,32.7 150.3,32.7 87.8,126.4 71.1,126.4 "
       id="polygon39"
       style="fill:#ffffff" /><polygon
       points="111.7,32.7 129.2,32.7 66.7,126.4 50,126.4 "
       id="polygon41"
       style="fill:#ffffff" /><g
       id="g47"><path
         d="m 129.9,104.6 -8.6,12.2 c -2.6,4 2.3,8.2 7.6,9.2 0.5,0.4 0.4,1.6 -0.3,1.6 -0.1,0 -0.2,0 -0.3,0 -0.1,0 -2.1,-0.9 -6.7,-1.3 -1.2,-0.1 -3.4,-0.5 -6.1,-0.5 -0.9,0 -1.9,0 -2.9,0.2 l -9.7,1.4 c -0.9,-0.1 -0.9,-1.1 0,-1.4 4.7,-0.6 10.3,-4.1 13.5,-8.7 l 39.3,-54.8 c 0.6,-0.9 2,-1.5 3.4,-1.5 1.7,0 3.3,0.9 3.3,2.9 l 1.3,54.8 c 0.4,4.6 3.5,6.5 7.4,7.6 0.5,0.4 0.3,1.1 -0.1,1.2 -0.3,0 -5,-0.1 -10.8,-0.9 -1.3,-0.2 -2.4,-0.3 -3.7,-0.3 -1.1,0 -2.4,0.1 -4.2,0.3 -2.2,0.2 -1.2,0.3 -10.3,0.7 -0.3,0 -0.7,-0.1 -0.8,-0.7 0.1,-0.7 1.1,-1 1.4,-1.1 3.6,-1 5.4,-2.8 6.2,-7.3 0.9,-4.9 0.6,-9.1 0.5,-13.4 z m 14.1,-3.2 c 2,0 3.9,0 5.3,0 l -0.5,-22.8 c -0.1,-0.3 -0.2,-0.4 -0.4,-0.4 -0.1,0 -0.3,0.1 -0.4,0.3 -4.9,6.9 -11.6,15.4 -16.3,22.2 -0.3,0.5 0,0.7 0.7,0.7 0.1,0 0.5,0 1.1,0 1,0 2.7,0 4.6,0 1.8,0 3.9,0 5.9,0"
         id="path43"
         inkscape:connector-curvature="0"
         style="fill:#ffffff" /><path
         d="m 128.6,128.3 c -0.2,0 -0.3,0 -0.5,-0.1 v 0 0 0 c 0,0 -2,-0.8 -6.5,-1.3 v 0 c -1.3,-0.1 -3.4,-0.5 -6,-0.5 v 0 c -0.9,0 -1.9,0 -2.8,0.2 v 0 l -9.7,1.4 H 103 c -0.8,0 -1.4,-0.7 -1.4,-1.4 v 0 c 0,-0.7 0.5,-1.3 1.2,-1.5 v 0 0 0 c 4.4,-0.6 9.9,-3.9 13,-8.4 v 0 L 155,62 c 0.9,-1.2 2.5,-1.8 4,-1.8 v 0 c 1,0 1.9,0.2 2.7,0.8 v 0 c 0.8,0.6 1.3,1.6 1.3,2.8 v 0 l 1.3,54.8 c 0.4,4.2 3.1,5.9 6.8,7 v 0 h 0.1 l 0.1,0.1 c 0.4,0.3 0.7,0.8 0.6,1.2 v 0 c 0,0.6 -0.3,1.1 -0.9,1.3 v 0 h -0.1 -0.1 c -0.3,0 -5.1,-0.1 -10.9,-0.9 v 0 c -1.3,-0.2 -2.3,-0.3 -3.6,-0.3 v 0 c -1.1,0 -2.3,0.1 -4.1,0.3 v 0 c -2.2,0.2 -1.3,0.3 -10.3,0.7 v 0 c -0.1,0 -0.1,0 -0.1,0 v 0 c -0.2,0 -0.6,0 -0.9,-0.3 v 0 c -0.3,-0.2 -0.5,-0.6 -0.5,-1 v 0 -0.1 -0.1 c 0.1,-0.7 0.6,-1.1 1,-1.3 v 0 c 0.4,-0.2 0.8,-0.3 1,-0.4 v 0 c 3.4,-1 4.9,-2.4 5.7,-6.7 v 0 c 0.5,-2.8 0.6,-5.4 0.6,-7.9 v 0 c 0,-1.6 -0.1,-3.1 -0.1,-4.7 v 0 l -18.6,-0.1 -8.4,11.9 c -0.4,0.7 -0.6,1.3 -0.6,1.9 v 0 c -0.1,2.5 3.6,5.4 7.7,6.2 v 0 h 0.2 l 0.1,0.1 c 0.5,0.4 0.6,0.9 0.6,1.4 v 0 c 0,0.3 -0.1,0.7 -0.3,1 v 0 c 0.2,0.2 -0.3,0.4 -0.7,0.4 z m -6.9,-2.8 c 4.1,0.4 6.2,1.1 6.8,1.3 v 0 0 0 -0.1 0 c -4.4,-0.9 -8.5,-3.8 -8.6,-7.5 v 0 c 0,-0.9 0.3,-1.8 0.8,-2.7 v 0 l 8.6,-12.2 0.2,-0.3 20.8,0.1 v 0.7 c 0,1.8 0.1,3.6 0.1,5.4 v 0 c 0,2.6 -0.1,5.2 -0.6,8.1 v 0 c -0.8,4.6 -2.9,6.9 -6.8,7.9 v 0 c -0.1,0 -0.5,0.2 -0.7,0.3 v 0 c 8.9,-0.4 7.7,-0.4 10,-0.7 v 0 c 1.8,-0.2 3.1,-0.3 4.3,-0.3 v 0 c 1.3,0 2.4,0.1 3.8,0.3 v 0 c 4.2,0.6 7.9,0.8 9.6,0.9 v 0 c -3.6,-1.2 -6.6,-3.4 -7,-8 v 0 0 l -1.3,-54.8 c 0,-0.8 -0.3,-1.3 -0.8,-1.6 v 0 c -0.5,-0.3 -1.1,-0.5 -1.8,-0.5 v 0 c -1.2,0 -2.3,0.5 -2.8,1.2 v 0 L 117,117.8 c -3,4.3 -7.8,7.5 -12.3,8.7 v 0 l 7.7,-1.1 c 1,-0.1 2.1,-0.2 3,-0.2 v 0 c 2.8,-0.2 5.1,0.2 6.3,0.3 z m 8.2,-20.1 v -0.7 z m 19.4,-3.2 c -1.4,0 -3.3,0 -5.3,0 v 0 -1.5 c 1.7,0 3.2,0 4.5,0 v 0 l -0.5,-21 c -4.7,6.6 -10.9,14.5 -15.5,21 v 0 c 0.2,0 0.5,0 0.9,0 v 0 c 1,0 2.7,0 4.5,0 v 0 c 1.9,0 4,0 6,0 v 0 1.5 c -2,0 -4.1,0 -6,0 v 0 c -1.9,0 -3.5,0 -4.6,0 v 0 c -0.6,0 -1,0 -1.2,0 v 0 c -0.3,0 -0.6,0 -0.8,-0.1 v 0 c -0.3,-0.1 -0.7,-0.5 -0.7,-1 v 0 c 0,-0.3 0.1,-0.5 0.2,-0.7 v 0 0 0 c 4.8,-6.9 11.5,-15.3 16.3,-22.2 v 0 c 0.2,-0.3 0.4,-0.6 1,-0.7 v 0 c 0.3,0 0.6,0.2 0.8,0.4 v 0 c 0.2,0.2 0.2,0.4 0.3,0.6 v 0 0.1 l 0.5,23.7 z"
         id="path45"
         inkscape:connector-curvature="0"
         style="fill:#ffffff" /></g><path
       d="m 424.1,126.3 c 0.5,0.4 0.3,1.1 -0.1,1.2 -0.3,0 -5,-0.1 -10.8,-0.9 -1.4,-0.2 -2.4,-0.3 -3.7,-0.3 -1.1,0 -2.4,0.1 -4.1,0.3 -2.3,0.2 -1.2,0.3 -10.3,0.7 -0.3,0 -0.7,-0.1 -0.7,-0.7 0.1,-0.7 1.1,-1 1.4,-1.1 3.6,-1 5.4,-2.8 6.2,-7.3 0.9,-4.9 0.6,-9.1 0.5,-13.4 l -19.6,-0.1 -8.6,12.2 c -2.5,4 2.3,8.2 7.6,9.1 0.5,0.4 0.4,1.6 -0.3,1.6 -0.1,0 -0.2,0 -0.3,0 -0.1,0 -2.1,-0.9 -6.7,-1.3 -1.2,-0.1 -3.4,-0.5 -6.1,-0.5 -0.9,0 -1.9,0 -2.9,0.2 l -9.7,1.4 c -0.9,-0.1 -0.9,-1.1 0,-1.4 4.7,-0.6 10.3,-4.1 13.5,-8.7 l 39.3,-54.8 c 0.6,-0.9 2,-1.5 3.4,-1.5 1.7,0 3.3,0.9 3.3,2.9 l 1.3,54.8 c 0.4,4.6 3.5,6.5 7.4,7.6 z M 397,101.5 c 2,0 3.9,0 5.3,0 l -0.5,-22.8 c -0.1,-0.3 -0.2,-0.4 -0.4,-0.4 -0.1,0 -0.3,0.1 -0.4,0.3 -4.9,6.9 -11.6,15.4 -16.4,22.2 -0.3,0.5 0,0.7 0.7,0.7 0.1,0 0.7,0 1.5,0 1,0 2.5,0 4.1,0 1.9,0 4.1,0 6.1,0"
       id="path49"
       inkscape:connector-curvature="0"
       style="fill:#ffffff" /><path
       d="m 381.5,128.4 c -0.2,0 -0.3,0 -0.5,-0.1 v 0 0 0 c 0,0 -2,-0.8 -6.5,-1.3 v 0 c -1.3,-0.1 -3.4,-0.5 -6,-0.5 v 0 c -0.9,0 -1.9,0 -2.8,0.2 v 0 l -9.7,1.4 h -0.1 c -0.8,0 -1.4,-0.7 -1.4,-1.4 v 0 c 0,-0.7 0.5,-1.3 1.2,-1.5 v 0 0 0 c 4.4,-0.6 9.9,-3.9 13,-8.4 v 0 L 407.9,62 c 0.9,-1.2 2.5,-1.8 4,-1.8 v 0 c 1,0 2,0.2 2.7,0.8 v 0 c 0.8,0.6 1.3,1.6 1.3,2.8 v 0 l 1.6,54.8 c 0.4,4.2 3.1,5.8 6.8,7 v 0 l -0.2,0.7 0.2,-0.7 h 0.1 0.1 c 0.4,0.3 0.7,0.8 0.6,1.2 v 0 c 0,0.6 -0.3,1.1 -0.9,1.3 v 0 h -0.1 -0.1 c -0.3,0 -5.1,-0.1 -10.9,-0.9 v 0 c -1.3,-0.2 -2.3,-0.3 -3.6,-0.3 v 0 c -1.1,0 -2.3,0.1 -4.1,0.3 v 0 c -2.2,0.2 -1.2,0.3 -10.3,0.7 v 0 H 395 v 0 c -0.2,0 -0.6,0 -0.9,-0.3 v 0 c -0.3,-0.2 -0.5,-0.6 -0.5,-1 v 0 -0.1 -0.1 c 0.1,-0.7 0.6,-1.1 1,-1.3 v 0 c 0.4,-0.2 0.8,-0.3 1,-0.4 v 0 c 3.5,-1 4.9,-2.4 5.7,-6.7 v 0 c 0.5,-2.8 0.6,-5.3 0.6,-7.8 v 0 c 0,-1.6 -0.1,-3.1 -0.1,-4.7 v 0 l -18.6,-0.1 -8.4,11.9 c -0.4,0.7 -0.6,1.3 -0.6,1.9 v 0 c -0.1,2.5 3.6,5.4 7.7,6.1 v 0 h 0.2 l 0.1,0.1 c 0.5,0.4 0.6,0.9 0.6,1.3 v 0 c 0,0.3 -0.1,0.7 -0.3,1 v 0 c -0.1,0.5 -0.5,0.7 -1,0.7 v 0 c 0.1,0 0,0 0,0 z m -6.8,-2.8 c 4.1,0.4 6.2,1.1 6.8,1.3 v 0 c 0,0 0,0 0,-0.1 v 0 -0.1 0 c -4.4,-0.9 -8.5,-3.8 -8.6,-7.5 v 0 c 0,-0.9 0.3,-1.8 0.8,-2.7 v 0 l 8.8,-12.6 20.8,0.1 v 0.7 c 0,1.8 0.1,3.6 0.1,5.5 v 0 c 0,2.5 -0.1,5.2 -0.6,8.1 v 0 c -0.8,4.6 -2.9,6.9 -6.7,7.9 v 0 c -0.2,0 -0.5,0.2 -0.7,0.3 v 0 c 8.9,-0.4 7.7,-0.4 10,-0.7 v 0 c 1.8,-0.2 3.1,-0.3 4.2,-0.3 v 0 c 1.3,0 2.4,0.1 3.8,0.3 v 0 c 4.2,0.6 7.8,0.8 9.6,0.9 v 0 c -3.6,-1.2 -6.6,-3.4 -7,-8 v 0 0 l -1.3,-54.8 c 0,-0.8 -0.3,-1.3 -0.8,-1.6 v 0 C 413.4,62 412.8,61.8 412,61.8 v 0 c -1.2,0 -2.3,0.5 -2.8,1.2 v 0 L 370,117.7 c -3,4.3 -7.8,7.5 -12.2,8.7 v 0 l 7.7,-1.1 c 1.1,-0.1 2.1,-0.2 3,-0.2 v 0 c 2.7,0 5,0.4 6.2,0.5 z m -18.7,1.2 z m 46.3,-24.5 c -1.4,0 -3.3,0 -5.3,0 v 0 -1.5 c 1.7,0 3.2,0 4.5,0 v 0 l -0.5,-21 c -4.7,6.6 -10.9,14.5 -15.5,21 v 0 c 0.2,0 0.7,0 1.4,0 v 0 c 1,0 2.5,0 4.1,0 v 0 c 1.9,0 4,0 6,0 v 0 1.5 c -2,0 -4.1,0 -6,0 v 0 c -1.6,0 -3.1,0 -4.1,0 v 0 c -0.8,0 -1.4,0 -1.6,0 v 0 c -0.3,0 -0.6,0 -0.9,-0.1 v 0 c -0.3,-0.1 -0.7,-0.5 -0.7,-1 v 0 c 0,-0.3 0.1,-0.5 0.2,-0.7 v 0 0 0 c 4.8,-6.9 11.5,-15.3 16.3,-22.2 v 0 c 0.2,-0.3 0.4,-0.6 1,-0.7 v 0 c 0.3,0 0.6,0.2 0.8,0.4 v 0 c 0.2,0.2 0.2,0.4 0.3,0.6 v 0 0.1 l 0.5,23.7 z m -5.3,0 z"
       id="path51"
       inkscape:connector-curvature="0"
       style="fill:#ffffff" /><g
       id="g55"><polygon
         points="56.3,111.1 33.2,76.7 15.5,76.7 47.6,124.3 "
         id="polygon53"
         style="fill:#ffffff" /></g><g
       id="g59"><polygon
         points="66.8,95.2 54.3,76.7 36.6,76.7 58,108.5 "
         id="polygon57"
         style="fill:#ffffff" /></g></g></svg>
