<?xml version="1.0" encoding="utf-8"?>
<!-- Generator: Adobe Illustrator 21.1.0, SVG Export Plug-In . SVG Version: 6.00 Build 0)  -->
<svg version="1.0" id="svg2" xmlns:svg="http://www.w3.org/2000/svg"
	 xmlns="http://www.w3.org/2000/svg" xmlns:xlink="http://www.w3.org/1999/xlink" x="0px" y="0px" width="430.7px" height="193.1px"
	 viewBox="0 0 430.7 193.1" enable-background="new 0 0 430.7 193.1" xml:space="preserve">
<g id="layer1">
</g>
<g id="layer5">
</g>
<g>
	<path fill="#FFFFFF" d="M74.7,57c4.6-5,7-12.1,7.3-21.6v-0.3l-0.3,0.1C65.6,38.5,57.3,48.5,57,65.1v0.3l0.3-0.1
		C65,64.2,70.7,61.5,74.7,57z"/>
	<path fill="#FFFFFF" d="M95.1,110.1L95.1,110.1L95.1,110.1z"/>
	<path fill="#FFFFFF" d="M106.1,84.1c-4.5,4.5-6.7,9.5-6.7,15.3c0,5.7,2.2,10.7,7,15.5c4.7,4.7,10.1,7,16.2,7h9v-10.6h-3.8
		c-3.5,0-6.6-1.1-9-3.3c-2.4-2.2-3.7-5.1-3.7-8.4s1.3-6.2,3.7-8.4c2.4-2.1,5.4-3.2,8.9-3.2h9.6c0.4,0,0.9,0.1,1.2,0.5
		c0.3,0.3,0.5,0.7,0.5,1.2v32.1h14.1V77.5h-30.4C116,77.5,110.6,79.6,106.1,84.1z"/>
	<path fill="#FFFFFF" d="M312,84.3c-5.5,4.6-8,9.5-8,15.1c0,6.8,2.6,12.1,8.1,16.4c5.2,4,11.4,6,19,6h27.7v-10.5h-26.3
		c-3.4,0-6.5-1.2-9-3.4c-2.4-2.2-3.8-5.3-3.8-8.6c0-3.2,1.3-6.1,3.6-8.1c2.4-2.1,5.5-3.1,9.1-3.1h9c0.7,0,1.2,0.4,1.5,1
		s0.2,1.3-0.2,1.8L332.6,104h15.5l10.8-14.7V77.5h-27.6C323.8,77.5,317.5,79.7,312,84.3z"/>
	<path fill="#FFFFFF" d="M373.9,71.6h8.2c0.4,0,0.9,0.1,1.2,0.5c0.3,0.3,0.5,0.7,0.5,1.2v38.6c0,0.4-0.1,0.9-0.5,1.2
		c-0.3,0.3-0.7,0.5-1.2,0.5h-8.2v8.1H396V63.5h-22.1V71.6L373.9,71.6z"/>
	<path fill="#FFFFFF" d="M415.1,72.1c0.3-0.3,0.7-0.5,1.2-0.5h8.2v-8.1h-22.1v18.1v40.1h22.1v-8.1h-8.2c-0.4,0-0.9-0.1-1.2-0.5
		c-0.3-0.3-0.5-0.7-0.4-1.2V73.3C414.6,72.9,414.8,72.4,415.1,72.1z"/>
	<path fill="#FFFFFF" d="M253.5,77.5h-31.1v58.2h14.1v-46c0-0.4,0.1-0.9,0.4-1.2c0.3-0.3,0.7-0.5,1.2-0.5h9c3.7,0,7,1.3,9.6,3.8
		c2.4,2.3,3.8,5.2,3.8,8.4c0,3.3-1.5,6.1-4.1,8.1s-5.8,3-9.3,3h-3.4v10.5h9.4c6.5,0,11.9-2.1,16.4-6.4c4.5-4.2,6.7-9.3,6.7-15.3
		c0-6.4-2.1-11.6-6.7-16C265,79.6,259.8,77.5,253.5,77.5z"/>
	<path fill="#FFFFFF" d="M192.9,77.5h-31.1v58.2h14.1v-46c0-0.4,0.1-0.9,0.5-1.2c0.3-0.3,0.7-0.5,1.2-0.5h9c3.7,0,7,1.3,9.6,3.8
		c2.4,2.3,3.8,5.2,3.8,8.4c0,3.3-1.5,6.1-4.1,8.1s-5.8,3-9.3,3h-3.3v10.5h9.4c6.5,0,11.9-2.1,16.4-6.4c4.5-4.2,6.7-9.3,6.7-15.3
		c0-6.4-2.1-11.6-6.7-16C204.4,79.6,199.2,77.5,192.9,77.5z"/>
	<rect x="283" y="63.5" fill="#FFFFFF" width="14.1" height="58.2"/>
	<path fill="#FFFFFF" d="M109.5,126.4l0.6-1.3l-0.2-0.1c-4.7-2.4-11-7.5-14.7-14.8l-0.1-0.1l0,0c-2.1-4.4-3.3-9.6-2.1-15.2l0.1-0.3
		l0,0l0,0c1.1-5.3,4-10.4,8.8-15.3l0.4-0.4l0,0c1-1,2.2-2.1,3.4-3.1l0.2-0.1l-0.1-0.2c-6-7.3-14.1-11.3-23.6-11.5h-0.5
		c-4.8,0-9,0.9-12.3,2.6c-4.2,2.2-7.3,2.7-7.3,2.7c-0.1,0-0.4,0-1.3,0c-1.1,0-2.1,0-2.2,0h-0.1c-1.3-0.1-4.7-0.7-7.6-2.2
		c-3.8-2-8-3.1-12.1-3.1h-0.3c-11.2,0.1-20.4,5.5-26.2,15l0,0h-0.1c-2.8,4.5-4.6,9.9-5.5,15.6h0.1l0,0v0.2c-0.7,5-0.7,10.1-0.1,15.3
		l0,0l0.1,0.3c0.6,4.5,1.9,10,4.2,16l0,0l0,0l0.1,0.4c2.1,5.4,5,10.6,8.4,15.6l0,0l0,0l0.3,0.4c2.7,3.9,5.7,7.6,9,11.1
		c2.4,2.7,6.5,4.1,11.3,4.1c3.6,0,7.2-0.8,9.6-2.1c4.9-2.7,7.5-2.7,9.4-2.8c0.4,0,0.7,0,1.1,0h0.3c0.4,0,0.8-0.1,1.3-0.1
		c1.7,0,4.2,0.3,8.7,2.9c3.2,1.3,6.3,2,9.2,2l0,0c7.9,0,14.9-5,21.2-15.1l0.3-0.4l0,0c3.1-5,5.7-10.7,8-15.6L109.5,126.4
		L109.5,126.4L109.5,126.4z"/>
</g>
</svg>
