<?xml version="1.0" encoding="UTF-8" standalone="no"?>
<!-- Generator: Adobe Illustrator 21.1.0, SVG Export Plug-In . SVG Version: 6.00 Build 0)  -->

<svg
   xmlns:dc="http://purl.org/dc/elements/1.1/"
   xmlns:cc="http://creativecommons.org/ns#"
   xmlns:rdf="http://www.w3.org/1999/02/22-rdf-syntax-ns#"
   xmlns:svg="http://www.w3.org/2000/svg"
   xmlns="http://www.w3.org/2000/svg"
   xmlns:sodipodi="http://sodipodi.sourceforge.net/DTD/sodipodi-0.dtd"
   xmlns:inkscape="http://www.inkscape.org/namespaces/inkscape"
   version="1.0"
   id="svg2"
   x="0px"
   y="0px"
   width="418.23822"
   height="122.9"
   viewBox="0 0 418.23821 122.9"
   enable-background="new 0 0 430.7 193.1"
   xml:space="preserve"
   sodipodi:docname="apple2.svg"
   inkscape:version="0.92.2 (unknown)"><metadata
     id="metadata31"><rdf:RDF><cc:Work
         rdf:about=""><dc:format>image/svg+xml</dc:format><dc:type
           rdf:resource="http://purl.org/dc/dcmitype/StillImage" /><dc:title></dc:title></cc:Work></rdf:RDF></metadata><defs
     id="defs29" /><sodipodi:namedview
     pagecolor="#ffffff"
     bordercolor="#666666"
     borderopacity="1"
     objecttolerance="10"
     gridtolerance="10"
     guidetolerance="10"
     inkscape:pageopacity="0"
     inkscape:pageshadow="2"
     inkscape:window-width="698"
     inkscape:window-height="480"
     id="namedview27"
     showgrid="false"
     fit-margin-top="0"
     fit-margin-left="0"
     fit-margin-right="0"
     fit-margin-bottom="0"
     inkscape:zoom="0.63385185"
     inkscape:cx="-22.038334"
     inkscape:cy="61.450003"
     inkscape:window-x="0"
     inkscape:window-y="0"
     inkscape:window-maximized="0"
     inkscape:current-layer="svg2" /><g
     id="layer1"
     transform="translate(-6.2617781,-35.1)" /><g
     id="layer5"
     transform="translate(-6.2617781,-35.1)" /><g
     id="g24"
     transform="translate(-6.2617781,-35.1)"><path
       d="m 74.7,57 c 4.6,-5 7,-12.1 7.3,-21.6 v -0.3 l -0.3,0.1 C 65.6,38.5 57.3,48.5 57,65.1 v 0.3 l 0.3,-0.1 C 65,64.2 70.7,61.5 74.7,57 Z"
       id="path4"
       inkscape:connector-curvature="0"
       style="fill:#ffffff" /><path
       d="M 95.1,110.1 Z"
       id="path6"
       inkscape:connector-curvature="0"
       style="fill:#ffffff" /><path
       d="m 106.1,84.1 c -4.5,4.5 -6.7,9.5 -6.7,15.3 0,5.7 2.2,10.7 7,15.5 4.7,4.7 10.1,7 16.2,7 h 9 v -10.6 h -3.8 c -3.5,0 -6.6,-1.1 -9,-3.3 -2.4,-2.2 -3.7,-5.1 -3.7,-8.4 0,-3.3 1.3,-6.2 3.7,-8.4 2.4,-2.1 5.4,-3.2 8.9,-3.2 h 9.6 c 0.4,0 0.9,0.1 1.2,0.5 0.3,0.3 0.5,0.7 0.5,1.2 v 32.1 h 14.1 V 77.5 h -30.4 c -6.7,0 -12.1,2.1 -16.6,6.6 z"
       id="path8"
       inkscape:connector-curvature="0"
       style="fill:#ffffff" /><path
       d="m 312,84.3 c -5.5,4.6 -8,9.5 -8,15.1 0,6.8 2.6,12.1 8.1,16.4 5.2,4 11.4,6 19,6 h 27.7 v -10.5 h -26.3 c -3.4,0 -6.5,-1.2 -9,-3.4 -2.4,-2.2 -3.8,-5.3 -3.8,-8.6 0,-3.2 1.3,-6.1 3.6,-8.1 2.4,-2.1 5.5,-3.1 9.1,-3.1 h 9 c 0.7,0 1.2,0.4 1.5,1 0.3,0.6 0.2,1.3 -0.2,1.8 L 332.6,104 h 15.5 L 358.9,89.3 V 77.5 h -27.6 c -7.5,0 -13.8,2.2 -19.3,6.8 z"
       id="path10"
       inkscape:connector-curvature="0"
       style="fill:#ffffff" /><path
       d="m 373.9,71.6 h 8.2 c 0.4,0 0.9,0.1 1.2,0.5 0.3,0.3 0.5,0.7 0.5,1.2 v 38.6 c 0,0.4 -0.1,0.9 -0.5,1.2 -0.3,0.3 -0.7,0.5 -1.2,0.5 h -8.2 v 8.1 H 396 V 63.5 h -22.1 z"
       id="path12"
       inkscape:connector-curvature="0"
       style="fill:#ffffff" /><path
       d="m 415.1,72.1 c 0.3,-0.3 0.7,-0.5 1.2,-0.5 h 8.2 v -8.1 h -22.1 v 18.1 40.1 h 22.1 v -8.1 h -8.2 c -0.4,0 -0.9,-0.1 -1.2,-0.5 -0.3,-0.3 -0.5,-0.7 -0.4,-1.2 V 73.3 c -0.1,-0.4 0.1,-0.9 0.4,-1.2 z"
       id="path14"
       inkscape:connector-curvature="0"
       style="fill:#ffffff" /><path
       d="m 253.5,77.5 h -31.1 v 58.2 h 14.1 v -46 c 0,-0.4 0.1,-0.9 0.4,-1.2 0.3,-0.3 0.7,-0.5 1.2,-0.5 h 9 c 3.7,0 7,1.3 9.6,3.8 2.4,2.3 3.8,5.2 3.8,8.4 0,3.3 -1.5,6.1 -4.1,8.1 -2.6,2 -5.8,3 -9.3,3 h -3.4 v 10.5 h 9.4 c 6.5,0 11.9,-2.1 16.4,-6.4 4.5,-4.2 6.7,-9.3 6.7,-15.3 0,-6.4 -2.1,-11.6 -6.7,-16 -4.5,-4.5 -9.7,-6.6 -16,-6.6 z"
       id="path16"
       inkscape:connector-curvature="0"
       style="fill:#ffffff" /><path
       d="m 192.9,77.5 h -31.1 v 58.2 h 14.1 v -46 c 0,-0.4 0.1,-0.9 0.5,-1.2 0.3,-0.3 0.7,-0.5 1.2,-0.5 h 9 c 3.7,0 7,1.3 9.6,3.8 2.4,2.3 3.8,5.2 3.8,8.4 0,3.3 -1.5,6.1 -4.1,8.1 -2.6,2 -5.8,3 -9.3,3 h -3.3 v 10.5 h 9.4 c 6.5,0 11.9,-2.1 16.4,-6.4 4.5,-4.2 6.7,-9.3 6.7,-15.3 0,-6.4 -2.1,-11.6 -6.7,-16 -4.7,-4.5 -9.9,-6.6 -16.2,-6.6 z"
       id="path18"
       inkscape:connector-curvature="0"
       style="fill:#ffffff" /><rect
       x="283"
       y="63.5"
       width="14.1"
       height="58.200001"
       id="rect20"
       style="fill:#ffffff" /><path
       d="m 109.5,126.4 0.6,-1.3 -0.2,-0.1 c -4.7,-2.4 -11,-7.5 -14.7,-14.8 l -0.1,-0.1 v 0 C 93,105.7 91.8,100.5 93,94.9 l 0.1,-0.3 v 0 0 c 1.1,-5.3 4,-10.4 8.8,-15.3 l 0.4,-0.4 v 0 c 1,-1 2.2,-2.1 3.4,-3.1 l 0.2,-0.1 -0.1,-0.2 C 99.8,68.2 91.7,64.2 82.2,64 h -0.5 c -4.8,0 -9,0.9 -12.3,2.6 -4.2,2.2 -7.3,2.7 -7.3,2.7 -0.1,0 -0.4,0 -1.3,0 -1.1,0 -2.1,0 -2.2,0 H 58.5 C 57.2,69.2 53.8,68.6 50.9,67.1 47.1,65.1 42.9,64 38.8,64 H 38.5 C 27.3,64.1 18.1,69.5 12.3,79 v 0 H 12.2 C 9.4,83.5 7.6,88.9 6.7,94.6 h 0.1 v 0 0.2 c -0.7,5 -0.7,10.1 -0.1,15.3 v 0 l 0.1,0.3 c 0.6,4.5 1.9,10 4.2,16 v 0 0 l 0.1,0.4 c 2.1,5.4 5,10.6 8.4,15.6 v 0 0 l 0.3,0.4 c 2.7,3.9 5.7,7.6 9,11.1 2.4,2.7 6.5,4.1 11.3,4.1 3.6,0 7.2,-0.8 9.6,-2.1 4.9,-2.7 7.5,-2.7 9.4,-2.8 0.4,0 0.7,0 1.1,0 h 0.3 c 0.4,0 0.8,-0.1 1.3,-0.1 1.7,0 4.2,0.3 8.7,2.9 3.2,1.3 6.3,2 9.2,2 v 0 c 7.9,0 14.9,-5 21.2,-15.1 l 0.3,-0.4 v 0 c 3.1,-5 5.7,-10.7 8,-15.6 z"
       id="path22"
       inkscape:connector-curvature="0"
       style="fill:#ffffff" /></g></svg>