<?xml version="1.0" encoding="utf-8"?>
<!-- Generator: Adobe Illustrator 21.1.0, SVG Export Plug-In . SVG Version: 6.00 Build 0)  -->
<svg version="1.0" id="Layer_1" xmlns="http://www.w3.org/2000/svg" xmlns:xlink="http://www.w3.org/1999/xlink" x="0px" y="0px"
	 width="474.7px" height="169.1px" viewBox="0 0 474.7 169.1" enable-background="new 0 0 474.7 169.1" xml:space="preserve">
<g>
	<g>
		<path fill="#FFFFFF" d="M208.7,132.6c-9.6,0-18.5-2.7-25.8-8v7h-41.5l-4.2-6.4l-1.2,6.4H67.3l-1.6-10.5h-4.1l-5.2,10.4H4.9
			l49.7-94h44.1l3.2,18.2l3.2-18.2h46.3c11.8,0,22.5,5.9,28.5,15.5c0.7-0.7,1.3-1.3,2-2c10.2-9.4,23.7-14.6,38-14.6
			c13.8,0,26.3,5.3,35.1,14.9l0.6,0.7l7.7-14.6h44.1l3.2,18.2l3.2-18.2h42.3c12.3,0,23.1,4.2,30.8,11.9l2.1-11.9h80.9l-8.1,45.1h-7
			l-0.7,4.1h7l-7.8,45h-80.9l1.2-7.2c-8.2,4.7-18.1,7.2-28.5,7.2h-69l-1.6-10.4h-4.1l-5.2,10.4h-45.6
			C216,132.2,212.3,132.6,208.7,132.6z M180.5,119.4l2.1,1.7c7.2,5.9,16.2,9,26.2,9c3.6,0,7-0.3,10.5-1h0.2h44.2l5.2-10.4h7.8
			l1.6,10.4h66.8c11,0,21.3-2.9,29.6-8.3l2.4-1.6l-1.7,9.9h75.9l7-40h-7l1.6-9h7l7.1-40h-75.9L388.3,55l-1.7-2
			c-7.3-8.4-18.1-13-30.6-13h-40.3l-5.2,30.2l-5.3-30.1h-40.5l-8.6,16.4l-3-3.2c-8.4-9.1-20.1-14.1-33.2-14.1
			c-13.7,0-26.6,5-36.4,13.9c-1,0.9-2,1.9-3,3l-1.2,1.2l-0.8-1.5c-5.3-9.7-15.7-15.7-27.2-15.7h-44.2l-5.5,30.1l-5.3-30.1H55.9
			l-47,89h45.9l5.2-10.4h7.8l1.6,10.4h64.5l1.8-10.5l6.9,10.5h37.7v-9.7C180.3,119.4,180.5,119.4,180.5,119.4z"/>
	</g>
	<g>
		<g>
			<path fill="#FFFFFF" d="M62.3,50.6l-35.9,68h22l5.2-10.4h23.3l1.6,10.4h21l-11.8-68C87.7,50.6,62.3,50.6,62.3,50.6z M61.7,92.1
				l10-20l3,20H61.7z"/>
		</g>
		<g>
			<path fill="#FFFFFF" d="M171.7,70.4c0-11.9-9.3-19.8-20.4-19.8h-35.4l-12,68h21.4l4.3-24.4h2.9l16,24.4H170v-5l-15.7-20.9
				C164.4,89.6,171.7,81.6,171.7,70.4z M142.8,80H132l1.8-10.4h10.9c3.2,0,4.4,2.3,4.4,4.4C149.2,76.7,147.1,80,142.8,80z"/>
		</g>
		<g>
			<path fill="#FFFFFF" d="M230.1,92.7c-4.5,3-9.7,6.6-17.2,6.6c-8,0-12.3-5.8-12.3-12.5c0-8.9,7.2-17.1,17.5-17.1
				c7.5,0,11.6,2.8,15,5.8l12.2-15.3c-5.5-6-14-10.7-25.5-10.7c-22.6,0-41.5,16.7-41.5,38.8c0,17.9,12.4,31.2,30.4,31.2
				c11.5,0,20.7-4,28.2-10L230.1,92.7z"/>
		</g>
		<g>
			<path fill="#FFFFFF" d="M271,50.6l-35.9,68h22l5.2-10.4h23.3l1.6,10.4h21l-11.9-68H271z M270.3,92.1l10-20l3,20H270.3z"/>
		</g>
		<g>
			<path fill="#FFFFFF" d="M355.9,50.6h-31.4l-12,68H345c22.3,0,40.2-14.1,40.2-39.5C385.2,61.3,373.1,50.6,355.9,50.6z M346.9,99.6
				h-9.6l5.3-30h9.6c6.4,0,9.5,4.2,9.5,10.9C361.6,91.7,356.8,99.6,346.9,99.6z"/>
		</g>
		<g>
			<polygon fill="#FFFFFF" points="450.9,69.5 454.3,50.6 399.8,50.6 387.8,118.6 442.3,118.6 445.6,99.6 411.4,99.6 412.6,93.1 
				439.6,93.1 442.8,75.6 415.7,75.6 416.7,69.5 			"/>
		</g>
	</g>
</g>
</svg>
