<?xml version="1.0" encoding="utf-8"?>
<!-- Generator: Adobe Illustrator 21.1.0, SVG Export Plug-In . SVG Version: 6.00 Build 0)  -->
<svg version="1.0" id="Capa_1" xmlns="http://www.w3.org/2000/svg" xmlns:xlink="http://www.w3.org/1999/xlink" x="0px" y="0px"
	 width="534.5px" height="181.3px" viewBox="0 0 534.5 181.3" enable-background="new 0 0 534.5 181.3" xml:space="preserve">
<g id="Layer_1">
	<g>
		<polygon fill="#FFFFFF" points="416.4,107.4 367.9,124.9 416.7,124.9 435.3,114.7 		"/>
		<polygon fill="#FFFFFF" points="371.1,56.6 428.7,56.6 505.4,95.5 475.3,95.5 454.2,85.8 441.2,91.1 		"/>
		<polygon fill="#FFFFFF" points="478.4,74.4 526.9,56.9 478.1,56.9 459.5,67.1 		"/>
		<polygon fill="#FFFFFF" points="523.7,125.2 466.1,125.2 389.4,86.3 419.5,86.3 440.6,96 453.7,90.7 		"/>
		<rect x="7.6" y="56.1" fill="#FFFFFF" width="38.2" height="46.7"/>
		<rect x="7.6" y="108.5" fill="#FFFFFF" width="97.8" height="14.3"/>
		<polygon fill="#FFFFFF" points="69.7,56.1 115,56.1 146,82.3 123.6,98.8 		"/>
		<polygon fill="#FFFFFF" points="126.9,101.4 126.9,122.8 162.7,122.8 162.7,101.4 231.9,56.1 198.5,56.1 129.3,101.4 		"/>
		<polygon fill="#FFFFFF" points="236.7,63.3 274.9,87.1 274.9,122.8 236.7,122.8 		"/>
		<polygon fill="#FFFFFF" points="241.5,56.1 339.3,122.8 360.8,122.8 360.8,56.1 342.2,56.1 342.2,103 272.5,56.1 		"/>
	</g>
</g>
</svg>
