<?xml version="1.0" encoding="utf-8"?>
<!-- Generator: Adobe Illustrator 21.1.0, SVG Export Plug-In . SVG Version: 6.00 Build 0)  -->
<svg version="1.0" id="Ebene_1" xmlns="http://www.w3.org/2000/svg" xmlns:xlink="http://www.w3.org/1999/xlink" x="0px" y="0px"
	 width="446.7px" height="155.6px" viewBox="0 0 446.7 155.6" enable-background="new 0 0 446.7 155.6" xml:space="preserve">
<g>
	<path fill="#FFFFFF" d="M424.1,84.8c-1.1-1.7-2.8-2.9-4.7-2.9c-4.6,0-6.7,4.8-6.7,9.3s2.1,9.3,6.7,9.3c2,0,3.7-1.1,4.7-2.9
		c1.1,2.5,3.1,3.9,5.6,3.9c4.6,0,7-5.2,7-10.4c0-5.1-2.4-10.4-7-10.4C427.3,81,425.3,82.4,424.1,84.8z M421.2,91.4
		c0,1.1-0.8,2.1-1.7,2.1c-0.9,0-1.7-0.9-1.7-2.1c0-1.1,0.8-2.1,1.7-2.1C420.5,89.2,421.2,90.2,421.2,91.4z M427.1,91.4
		c0-1.3,0.8-2.3,1.9-2.3c1,0,1.8,1.1,1.8,2.3c0,1.3-0.8,2.3-1.8,2.3C427.9,93.6,427.1,92.6,427.1,91.4z"/>
	<path fill="#FFFFFF" d="M416.6,59.1c-2.6,1.9-3.9,4.8-3.9,8.2c0,3.4,1.4,6.2,3.9,8.2c2.1,1.6,5.1,2.5,8.2,2.5c6,0,12-3.3,12-10.7
		c0-7.4-6.1-10.7-12-10.7C421.7,56.6,418.8,57.5,416.6,59.1z M429.7,67.2c0,2.6-3.3,2.9-4.9,2.9s-4.9-0.3-4.9-2.9s3.3-2.9,4.9-2.9
		C426.4,64.4,429.7,64.7,429.7,67.2z"/>
	<path fill="#FFFFFF" d="M416.6,33.9c-2.6,1.9-3.9,4.8-3.9,8.2s1.4,6.2,3.9,8.2c2.1,1.6,5.1,2.5,8.2,2.5c6,0,12-3.3,12-10.7
		c0-7.3-6.1-10.7-12-10.7C421.7,31.5,418.8,32.4,416.6,33.9z M429.7,42.1c0,2.6-3.3,2.9-4.9,2.9s-4.9-0.3-4.9-2.9
		c0-2.6,3.3-2.9,4.9-2.9S429.7,39.5,429.7,42.1z"/>
	<polygon fill="#FFFFFF" points="413,123.6 420.4,123.6 420.4,113.6 436.7,121.1 436.7,112.6 413,102.5 	"/>
	<g>
		<path fill="#FFFFFF" d="M166.5,35.5c3.6-4.5,11-5.4,15.4-1.5c1.8,1.5,3,3.6,3.7,5.8c8.1,27.9,16.3,55.8,24.4,83.7
			c-4.8,0-9.6,0-14.4,0c-2.3-7.7-4.5-15.4-6.7-23.1c-9.2,0-18.5,0-27.8,0c-2.3,7.7-4.5,15.4-6.7,23.1c-4.8,0-9.5,0-14.3,0
			c7.7-26.6,15.4-53.2,23.1-79.9C164.1,40.9,164.5,37.8,166.5,35.5 M174.9,52.6c-3.4,11.6-6.7,23.1-10.1,34.7c6.7,0,13.5,0,20.2,0
			C181.7,75.8,178.3,64.2,174.9,52.6z"/>
		<path fill="#FFFFFF" d="M267.4,36.1c2.5-3.6,7.3-5.4,11.6-4.2c3.9,0.9,6.9,4.2,7.9,8c8.1,27.9,16.3,55.8,24.4,83.7
			c-4.8,0-9.6,0-14.4,0c-2.2-7.7-4.5-15.4-6.7-23.1c-9.2,0-18.5,0-27.8,0c-2.2,7.7-4.5,15.4-6.7,23.1c-4.8,0-9.5,0-14.3,0
			c7.7-26.8,15.5-53.6,23.3-80.3C265.5,40.9,265.8,38.2,267.4,36.1 M266.2,87.3c6.7,0,13.4,0,20.1,0c-3.3-11.6-6.7-23.2-10.1-34.8
			C272.9,64.2,269.6,75.8,266.2,87.3z"/>
		<path fill="#FFFFFF" d="M199.1,31.8c17.3,0,34.6,0,52,0c0,4.7,0,9.4,0,14c-6.4,0-12.8,0-19.1,0c0,25.9,0,51.9,0,77.8
			c-4.5,0-9.2,0-13.7,0c0-25.9,0-51.9,0-77.8c-6.4,0-12.8,0-19.1,0C199.1,41.1,199.1,36.4,199.1,31.8z"/>
		<path fill="#FFFFFF" d="M326.4,32.3c1.3-0.5,2.7-0.6,4.1-0.6c5.4,0,10.9,0,16.4,0c9.2,0.2,18,5.9,21.9,14.1
			c2.7,5.4,3,11.6,2.3,17.5c-0.5,6.2-3.1,12.3-7.8,16.4c-2.5,2.3-5.6,3.6-8.3,5.6c-1.4,1.1-1.5,3.3-0.8,4.8
			c7.3,11.2,14.8,22.2,22.2,33.3c-5.4,0-10.8,0-16.3,0c-7.1-10.7-14.1-21.3-21.2-32c-2-3-2.6-7-1.4-10.5c1-2.6,3.3-4.6,5.9-5.6
			c4.9-1.9,9.8-4.8,12.6-9.5c2.1-3.5,2-7.8,1.1-11.6c-1.1-5-6-8.8-11-8.7c-3.6,0-7.1,0-10.6,0c-1.6,0-3.1,1.4-3.1,2.9
			c0,25,0,50,0,75c-4.6,0-9.2,0-13.8,0c0-26.9,0-53.9,0-80.7C318.6,38.2,322,33.7,326.4,32.3z"/>
		<path fill="#FFFFFF" d="M383.8,31.8c4.8,0,9.7,0,14.5,0c0,30.6,0,61.3,0,91.9c-4.8,0-9.7,0-14.5,0
			C383.8,92.9,383.8,62.3,383.8,31.8z"/>
		<path fill="#FFFFFF" d="M50.9,31.5c2.3,0,4.7,0,7,0c0,5.4,0,11,0,16.4c0,4.5-0.1,9.2-0.3,13.7c-0.3,6.6-0.8,13.2-1.8,19.7
			c-0.8,4.5-2.3,8.8-4.2,12.9c-3.2,6.7-8.1,12.3-13.6,16.9c-5,4.4-10.9,7.6-17.1,9.7c-3.6,1.2-7.2,2.1-10.9,2.6c0-4.6,0-9.2,0-13.8
			c4.5-0.7,8.7-2.3,12.7-4.3c4.7-2.5,8.9-5.8,12.6-9.8c3.7-4.1,6.7-8.8,8.8-13.8c2.6-5.7,4-12,5-18.2c1.2-7.9,1.7-16,1.9-24
			C50.9,37,50.9,34.2,50.9,31.5z"/>
		<path fill="#FFFFFF" d="M60.7,31.5c4.3,0,8.5,0,12.9,0c0,30.7,0,61.3,0,92c-4.3,0-8.5,0-12.9,0c-0.1-9.8,0-19.6,0-29.3
			C60.7,73.4,60.7,52.5,60.7,31.5z"/>
		<path fill="#FFFFFF" d="M76.4,31.5c2.3,0,4.6,0,7,0c-0.1,9.4,0.2,18.8,1.4,28.1c0.9,7.2,2.2,14.5,5.1,21.3
			c2.7,6.5,6.7,12.6,11.8,17.5c4.9,4.7,10.8,8.2,17.2,10.3c1.8,0.6,3.6,1.1,5.5,1.3c0,4.6,0,9.2,0,13.8c-3.7-0.5-7.3-1.4-10.7-2.6
			c-4.2-1.4-8.2-3.3-11.9-5.7c-2.7-1.7-5.1-3.9-7.6-6c-3.9-3.6-7.4-7.6-10-12.3c-2-3.6-3.6-7.5-4.7-11.4c-1.1-4-1.5-8.1-2-12.2
			c-0.8-8.8-1.1-17.8-1.1-26.6C76.4,41.6,76.4,36.6,76.4,31.5z"/>
		<path fill="#FFFFFF" d="M50.9,31.5c0,2.7,0,5.4,0,8.2c-0.2,8-0.7,16-1.9,24c-1,6.2-2.3,12.5-5,18.2c-2.3,5-5.1,9.8-8.8,13.8
			c-3.6,3.9-7.8,7.3-12.6,9.8c-4,2.1-8.2,3.6-12.7,4.3c0,4.6,0,9.2,0,13.8c3.7-0.5,7.3-1.4,10.9-2.6c6.2-2.1,12.2-5.4,17.1-9.7
			c5.5-4.7,10.5-10.3,13.6-16.9c1.9-4.1,3.5-8.5,4.2-12.9c1.1-6.5,1.5-13.1,1.8-19.7c0.2-4.5,0.3-9.2,0.3-13.7c0-5.4,0-11,0-16.4
			C55.5,31.5,53.2,31.5,50.9,31.5"/>
		<path fill="#FFFFFF" d="M60.7,31.5c0,20.9,0,41.8,0,62.7c0,9.8,0,19.6,0,29.3c4.3-0.1,8.5,0,12.9,0c0-30.7,0-61.4,0-92
			C69.2,31.5,65,31.5,60.7,31.5"/>
		<path fill="#FFFFFF" d="M76.4,31.5c0,5,0,10.1,0,15.1c-0.1,8.9,0.2,17.8,1.1,26.6c0.5,4.1,0.9,8.2,2,12.2
			c1.1,3.9,2.6,7.9,4.7,11.4c2.6,4.6,6.1,8.7,10,12.3c2.3,2.2,4.8,4.2,7.6,6c3.7,2.4,7.7,4.3,11.9,5.7c3.5,1.2,7.1,2.1,10.7,2.6
			c0-4.6,0-9.2,0-13.8c-1.9-0.3-3.7-0.8-5.5-1.3c-6.4-2-12.3-5.7-17.2-10.3c-5.1-4.8-9.1-10.9-11.8-17.5c-2.9-6.7-4.2-14-5.1-21.3
			c-1.1-9.2-1.4-18.5-1.3-27.9C81,31.5,78.7,31.5,76.4,31.5"/>
	</g>
</g>
</svg>
