<?xml version="1.0" encoding="utf-8"?>
<!-- Generator: Adobe Illustrator 21.1.0, SVG Export Plug-In . SVG Version: 6.00 Build 0)  -->
<svg version="1.0" id="Capa_1" xmlns="http://www.w3.org/2000/svg" xmlns:xlink="http://www.w3.org/1999/xlink" x="0px" y="0px"
	 width="445.5px" height="111.3px" viewBox="0 0 445.5 111.3" enable-background="new 0 0 445.5 111.3" xml:space="preserve">
<g>
	<path fill="#FFFFFF" d="M88.6,12.3c-5.2-3.8-13.9-3.1-18.1,1.5c-2.3,2.3-2.7,5.3-3.8,8.2c-9.2,26.4-18.3,52.9-27.5,79.2
		c5.6,0,11.3,0,16.9,0c2.6-7.6,5.3-15.4,7.9-23c10.9,0,21.9,0,32.8,0c2.6,7.6,5.2,15.4,7.9,23c5.7,0,11.3,0,17,0
		C112.2,73.5,102.5,45.7,93,18C92.1,15.8,90.6,13.7,88.6,12.3z M68.5,65.3c3.9-11.6,7.9-23,12-34.5c3.9,11.6,7.9,23,12,34.5
		C84.4,65.3,76.5,65.3,68.5,65.3z"/>
	<path fill="#FFFFFF" d="M183.9,9.9c-20.4,0-40.9,0-61.3,0c0,4.6,0,9.2,0,13.9c7.5,0,15.1,0,22.6,0c0,25.8,0,51.5,0,77.3
		c5.4,0,10.7,0,16.2,0c0-25.8,0-51.5,0-77.3c7.5,0,15.1,0,22.6,0C183.9,19.2,183.9,14.6,183.9,9.9z"/>
	<path fill="#FFFFFF" d="M344.4,63.2c3.1-2,6.8-3.3,9.8-5.6c5.6-4.1,8.7-10.2,9.2-16.3c0.8-5.8,0.5-12.1-2.7-17.4
		c-4.8-8.2-15.1-13.9-26-14c-6.4,0-12.9,0-19.3,0c-1.6,0-3.3,0.1-4.9,0.5c-5.3,1.4-9.2,5.8-9.2,10.5c0,26.8,0,53.4,0,80.2
		c5.4,0,10.9,0,16.3,0c0-24.9,0-49.6,0-74.5c0-1.6,1.8-3,3.7-3c4.2,0,8.3,0,12.5,0c6-0.1,11.7,3.7,13,8.7c1.1,3.8,1.2,8.2-1.2,11.6
		c-3.3,4.6-9,7.6-14.8,9.4c-3,1-5.8,3-6.9,5.6c-1.5,3.4-0.8,7.5,1.6,10.5c8.3,10.6,16.6,21.2,25,31.8c6.4,0,12.8,0,19.2,0
		c-8.7-11-17.7-22-26.2-33C342.6,66.6,342.8,64.4,344.4,63.2z"/>
	<path fill="#FFFFFF" d="M389.1,9.9c0,30.4,0,60.9,0,91.3c5.7,0,11.4,0,17.1,0c0-30.4,0-60.9,0-91.3C400.5,9.9,394.8,9.9,389.1,9.9z
		"/>
	<path fill="#FFFFFF" d="M280.1,85.2c-5.3-2.2-10.2-5.3-14.3-9.2c-5-4.9-9-10.9-11.7-17.3c-2.9-6.7-4.1-13.9-5-21.1
		c-1.1-9.2-1.4-18.5-1.4-27.9c-2.3,0-4.6,0-6.9,0c0,5,0,10.1,0,15l0,0c0,8.8,0.3,17.7,1.1,26.5c0.4,4.1,0.8,8.2,1.9,12.1
		c1.2,3.9,2.6,7.7,4.6,11.4c2.6,4.6,6.1,8.7,9.9,12.2c2.3,2.2,4.8,4.2,7.5,6c3.7,2.4,7.7,4.2,11.8,5.7c3.5,1.2,7.1,2.2,10.7,2.6l0,0
		c0-4.6,0-9.1,0-13.7c-1.9-0.3-3.7-0.7-5.4-1.2C282,85.9,281.1,85.5,280.1,85.2z"/>
	<path fill="#FFFFFF" d="M215.5,9.8c0,2.7,0,5.4,0,8.2c0,0.3,0,0.7,0,1c-0.1,6.9-0.7,14-1.6,20.9c-0.1,0.7-0.1,1.4-0.3,2
		c-1,6.3-2.3,12.4-4.9,18.1c-0.3,0.7-0.7,1.4-1,1.9c-1.6,3.4-3.7,6.7-6,9.7c-0.5,0.7-1.2,1.5-1.8,2.2c-0.4,0.4-0.8,0.8-1.2,1.4
		c-1.9,1.9-3.9,3.7-6.1,5.3c-1.6,1.1-3.3,2.2-5,3.1c-0.3,0.1-0.5,0.3-0.8,0.4c-3.7,1.9-7.7,3.3-11.8,3.9c0,4.6,0,9.1,0,13.7
		c3.7-0.5,7.3-1.5,10.7-2.7c2.3-0.8,4.6-1.8,6.8-2.9c3.7-1.8,7.1-4.1,10.2-6.8c3.4-3,6.7-6.3,9.4-9.8c1.6-2.2,3-4.5,4.2-6.9
		c1.9-4.1,3.4-8.4,4.2-12.9c1.1-6.5,1.5-13,1.8-19.6c0.1-4.5,0.3-9.1,0.3-13.6c0-5.4,0-10.9,0-16.3C220.2,9.8,217.9,9.7,215.5,9.8z"
		/>
	<path fill="#FFFFFF" d="M225.3,9.8c0,20.8,0,41.6,0,62.3c0,9.8,0,19.4,0,29.2c4.2,0,8.4,0,12.8,0l0,0l0,0c0-30.4,0-61,0-91.5
		C233.8,9.8,229.5,9.7,225.3,9.8z"/>
</g>
</svg>
