<?xml version="1.0" encoding="utf-8"?>
<!-- Generator: Adobe Illustrator 21.1.0, SVG Export Plug-In . SVG Version: 6.00 Build 0)  -->
<svg version="1.0" id="Ebene_1" xmlns="http://www.w3.org/2000/svg" xmlns:xlink="http://www.w3.org/1999/xlink" x="0px" y="0px"
	 width="567.5px" height="211.3px" viewBox="0 0 567.5 211.3" enable-background="new 0 0 567.5 211.3" xml:space="preserve">
<g>
	<g>
		<g>
			<g id="_x23_ffffffff">
				<path fill="#FFFFFF" d="M123.5,69.4c3.1-3.9,9.4-4.6,13.2-1.3c1.5,1.3,2.6,3.1,3.2,5c7,24,14,48,21,72.1c-4.1,0-8.2,0-12.4,0
					c-1.9-6.6-3.8-13.3-5.8-19.9c-8,0-15.9,0-23.9,0c-2,6.6-3.9,13.3-5.8,19.9c-4.1,0-8.2,0-12.3,0c6.6-22.9,13.3-45.8,19.9-68.7
					C121.5,74.1,121.8,71.4,123.5,69.4 M130.8,84.2c-2.9,10-5.8,19.9-8.7,29.9c5.8,0,11.6,0,17.4,0
					C136.6,104.1,133.7,94.1,130.8,84.2z"/>
				<path fill="#FFFFFF" d="M210.3,70c2.1-3.1,6.3-4.6,10-3.7c3.3,0.8,5.9,3.7,6.8,6.9c7,24,14,48,20.9,72c-4.1,0-8.2,0-12.4,0
					c-1.9-6.6-3.8-13.3-5.7-19.9c-8,0-15.9,0-23.9,0c-1.9,6.6-3.9,13.3-5.8,19.9c-4.1,0-8.2,0-12.3,0c6.6-23,13.3-46.1,20-69.1
					C208.7,74,209,71.7,210.3,70 M209.3,114c5.8,0,11.5,0,17.3,0c-2.9-10-5.8-20-8.6-29.9C215.1,94.1,212.2,104.1,209.3,114z"/>
				<path fill="#FFFFFF" d="M151.7,66.2c14.9,0,29.8,0,44.7,0c0,4,0,8,0,12.1c-5.5,0-11,0-16.5,0c0,22.3,0,44.7,0,67
					c-3.9,0-7.9,0-11.8,0c0-22.3,0-44.7,0-67c-5.5,0-11,0-16.5,0C151.7,74.2,151.7,70.2,151.7,66.2z"/>
				<path fill="#FFFFFF" d="M261.1,66.7c1.1-0.4,2.3-0.5,3.5-0.5c4.7,0,9.4,0,14.1,0c7.9,0.1,15.5,5.1,18.9,12.2
					c2.4,4.6,2.6,10,2,15.1c-0.4,5.3-2.6,10.6-6.7,14.1c-2.2,1.9-4.8,3.1-7.2,4.8c-1.3,1-1.3,2.8-0.7,4.2
					c6.2,9.6,12.7,19.1,19.1,28.7c-4.7,0-9.3,0-14,0c-6.1-9.2-12.1-18.4-18.2-27.5c-1.8-2.6-2.3-6.1-1.2-9c0.8-2.3,2.8-4,5.1-4.8
					c4.2-1.6,8.4-4.2,10.8-8.2c1.8-3,1.7-6.7,0.9-10c-0.9-4.3-5.1-7.6-9.5-7.5c-3,0-6.1,0-9.1,0c-1.4,0-2.7,1.2-2.7,2.6
					c0,21.5,0,43,0,64.5c-4,0-7.9,0-11.9,0c0-23.1,0-46.3,0-69.4C254.4,71.7,257.3,67.9,261.1,66.7z"/>
				<path fill="#FFFFFF" d="M310.4,66.2c4.2,0,8.3,0,12.5,0c0,26.3,0,52.7,0,79c-4.2,0-8.3,0-12.5,0
					C310.4,118.9,310.4,92.5,310.4,66.2z"/>
			</g>
		</g>
	</g>
	<g>
		<path fill="#FFFFFF" d="M527.4,145.2c-21.8,0-39.6-17.8-39.6-39.6S505.6,66,527.4,66c21.8,0,39.6,17.8,39.6,39.6
			S549.3,145.2,527.4,145.2z M527.4,68.9c-20.2,0-36.7,16.5-36.7,36.7s16.5,36.7,36.7,36.7s36.7-16.5,36.7-36.7
			S547.7,68.9,527.4,68.9z M527.4,132.6c-14.9,0-27-12.1-27-27s12.1-27,27-27s27,12.1,27,27S542.3,132.6,527.4,132.6z M527.4,81.5
			c-13.3,0-24.1,10.8-24.1,24.1s10.8,24.1,24.1,24.1s24.1-10.8,24.1-24.1S540.7,81.5,527.4,81.5z"/>
	</g>
	<g>
		<path fill="#FFFFFF" d="M446.4,145.2c-21.8,0-39.6-17.8-39.6-39.6S424.6,66,446.4,66S486,83.8,486,105.6S468.2,145.2,446.4,145.2z
			 M446.4,68.9c-20.2,0-36.7,16.5-36.7,36.7s16.5,36.7,36.7,36.7s36.7-16.5,36.7-36.7S466.6,68.9,446.4,68.9z M446.4,132.6
			c-14.9,0-27-12.1-27-27s12.1-27,27-27s27,12.1,27,27C473.3,120.5,461.2,132.6,446.4,132.6z M446.4,81.5
			c-13.3,0-24.1,10.8-24.1,24.1s10.8,24.1,24.1,24.1s24.1-10.8,24.1-24.1C470.4,92.3,459.6,81.5,446.4,81.5z"/>
	</g>
	<g>
		<path fill="#FFFFFF" d="M378.5,145.2c-15.3,0-27.7-12.4-27.7-27.7c0-9.2,4.6-17.8,12.2-23c-1.9-3-2.9-6.4-2.9-10
			c0-10.2,8.3-18.5,18.5-18.5s18.5,8.3,18.5,18.5c0,3.6-1,7-2.9,10c7.6,5.1,12.2,13.8,12.2,23C406.2,132.8,393.8,145.2,378.5,145.2z
			 M378.5,68.9c-8.6,0-15.6,7-15.6,15.6c0,3.5,1.1,6.8,3.3,9.5l1,1.3l-1.4,0.8c-7.5,4.5-12.1,12.6-12.1,21.3
			c0,13.7,11.1,24.8,24.8,24.8c13.7,0,24.8-11.1,24.8-24.8c0-8.7-4.6-16.9-12.1-21.3l-1.4-0.8l1-1.3c2.1-2.8,3.3-6,3.3-9.5
			C394.1,75.9,387.1,68.9,378.5,68.9z M378.5,133.7c-8.9,0-16.2-7.3-16.2-16.2s7.3-16.2,16.2-16.2c8.9,0,16.2,7.3,16.2,16.2
			S387.4,133.7,378.5,133.7z M378.5,104.2c-7.3,0-13.3,6-13.3,13.3s6,13.3,13.3,13.3s13.3-6,13.3-13.3
			C391.8,110.1,385.8,104.2,378.5,104.2z M378.5,92.6c-4.5,0-8.2-3.7-8.2-8.2s3.7-8.2,8.2-8.2s8.2,3.7,8.2,8.2
			C386.7,89,383,92.6,378.5,92.6z M378.5,79.2c-2.9,0-5.2,2.4-5.2,5.2c0,2.9,2.4,5.2,5.2,5.2c2.9,0,5.2-2.4,5.2-5.2
			S381.4,79.2,378.5,79.2z"/>
	</g>
	<g>
		<g>
			<path fill="#FFFFFF" d="M70.6,66H8.9c-4.9,0-8.8,3.9-8.8,8.8v61.7c0,4.8,3.9,8.8,8.8,8.8h61.7c4.8,0,8.8-3.9,8.8-8.8V74.8
				C79.3,69.9,75.4,66,70.6,66z M34.4,97.9c-0.2,3.7-0.4,7.4-1,11c-0.4,2.5-1.3,4.9-2.4,7.2c-1.8,3.7-4.5,6.9-7.6,9.5
				c-2.8,2.4-6.1,4.2-9.6,5.4c-2,0.7-4,1.2-6.1,1.5c0-2.6,0-5.1,0-7.7c2.5-0.4,4.9-1.3,7.1-2.4c2.6-1.4,5-3.3,7-5.5
				c2.1-2.3,3.7-4.9,5-7.7c1.5-3.2,2.3-6.7,2.8-10.2c0.7-4.4,1-8.9,1.1-13.4c0-1.5,0-3,0-4.6c1.3,0,2.6,0,3.9,0c0,3.1,0,6.1,0,9.2
				C34.5,92.7,34.5,95.3,34.4,97.9z M43.3,81c0,17.2,0,34.4,0,51.6c-2.4,0-4.8,0-7.2,0c0-5.5,0-11,0-16.4c0-11.7,0-23.4,0-35.1
				C38.5,81,40.9,81,43.3,81L43.3,81z M71.7,132.6c-2.1-0.3-4.1-0.8-6-1.5c-2.3-0.8-4.6-1.9-6.7-3.2c-1.5-1-2.9-2.1-4.2-3.4
				c-2.2-2-4.1-4.3-5.6-6.9c-1.1-2-2-4.2-2.6-6.4s-0.9-4.5-1.1-6.8c-0.5-5-0.6-9.9-0.6-14.9c0-2.8,0-5.6,0-8.5c1.3,0,2.6,0,3.9,0
				c0,5.2,0.1,10.5,0.8,15.7c0.5,4,1.2,8.1,2.8,11.9c1.5,3.6,3.7,7,6.6,9.8c2.7,2.6,6.1,4.6,9.7,5.8c1,0.3,2,0.6,3.1,0.7
				C71.7,127.4,71.7,130,71.7,132.6z"/>
		</g>
	</g>
</g>
</svg>
