<?xml version="1.0" encoding="UTF-8" standalone="no"?>
<svg
   xmlns:dc="http://purl.org/dc/elements/1.1/"
   xmlns:cc="http://creativecommons.org/ns#"
   xmlns:rdf="http://www.w3.org/1999/02/22-rdf-syntax-ns#"
   xmlns:svg="http://www.w3.org/2000/svg"
   xmlns="http://www.w3.org/2000/svg"
   xmlns:sodipodi="http://sodipodi.sourceforge.net/DTD/sodipodi-0.dtd"
   xmlns:inkscape="http://www.inkscape.org/namespaces/inkscape"
   version="1.0"
   id="Ebene_1"
   x="0px"
   y="0px"
   width="576.90002"
   height="89.401817"
   viewBox="0 0 576.90002 89.401816"
   enable-background="new 0 0 567.5 211.3"
   xml:space="preserve"
   sodipodi:docname="atari800.svg"
   inkscape:version="1.0 (4035a4fb49, 2020-05-01)"><metadata
     id="metadata42"><rdf:RDF><cc:Work
         rdf:about=""><dc:format>image/svg+xml</dc:format><dc:type
           rdf:resource="http://purl.org/dc/dcmitype/StillImage" /><dc:title></dc:title></cc:Work></rdf:RDF></metadata><defs
     id="defs40" /><sodipodi:namedview
     pagecolor="#ffffff"
     bordercolor="#666666"
     borderopacity="1"
     objecttolerance="10"
     gridtolerance="10"
     guidetolerance="10"
     inkscape:pageopacity="0"
     inkscape:pageshadow="2"
     inkscape:window-width="712"
     inkscape:window-height="480"
     id="namedview38"
     showgrid="false"
     fit-margin-top="5"
     fit-margin-left="5"
     fit-margin-right="5"
     fit-margin-bottom="5"
     inkscape:zoom="0.48105727"
     inkscape:cx="-15.887545"
     inkscape:cy="44.750001"
     inkscape:window-x="0"
     inkscape:window-y="0"
     inkscape:window-maximized="0"
     inkscape:current-layer="Ebene_1"
     inkscape:document-rotation="0"
     lock-margins="true"
     inkscape:pagecheckerboard="true" /><g
     id="g35"
     transform="translate(4.9,-60.998182)"><g
       id="g15"><g
         id="g13"><g
           id="_x23_ffffffff"><path
             d="m 123.5,69.4 c 3.1,-3.9 9.4,-4.6 13.2,-1.3 1.5,1.3 2.6,3.1 3.2,5 7,24 14,48 21,72.1 -4.1,0 -8.2,0 -12.4,0 -1.9,-6.6 -3.8,-13.3 -5.8,-19.9 -8,0 -15.9,0 -23.9,0 -2,6.6 -3.9,13.3 -5.8,19.9 -4.1,0 -8.2,0 -12.3,0 6.6,-22.9 13.3,-45.8 19.9,-68.7 0.9,-2.4 1.2,-5.1 2.9,-7.1 m 7.3,14.8 c -2.9,10 -5.8,19.9 -8.7,29.9 5.8,0 11.6,0 17.4,0 -2.9,-10 -5.8,-20 -8.7,-29.9 z"
             id="path2"
             inkscape:connector-curvature="0"
             style="fill:#ffffff" /><path
             d="m 210.3,70 c 2.1,-3.1 6.3,-4.6 10,-3.7 3.3,0.8 5.9,3.7 6.8,6.9 7,24 14,48 20.9,72 -4.1,0 -8.2,0 -12.4,0 -1.9,-6.6 -3.8,-13.3 -5.7,-19.9 -8,0 -15.9,0 -23.9,0 -1.9,6.6 -3.9,13.3 -5.8,19.9 -4.1,0 -8.2,0 -12.3,0 6.6,-23 13.3,-46.1 20,-69.1 0.8,-2.1 1.1,-4.4 2.4,-6.1 m -1,44 c 5.8,0 11.5,0 17.3,0 -2.9,-10 -5.8,-20 -8.6,-29.9 -2.9,10 -5.8,20 -8.7,29.9 z"
             id="path4"
             inkscape:connector-curvature="0"
             style="fill:#ffffff" /><path
             d="m 151.7,66.2 c 14.9,0 29.8,0 44.7,0 0,4 0,8 0,12.1 -5.5,0 -11,0 -16.5,0 0,22.3 0,44.7 0,67 -3.9,0 -7.9,0 -11.8,0 0,-22.3 0,-44.7 0,-67 -5.5,0 -11,0 -16.5,0 0.1,-4.1 0.1,-8.1 0.1,-12.1 z"
             id="path6"
             inkscape:connector-curvature="0"
             style="fill:#ffffff" /><path
             d="m 261.1,66.7 c 1.1,-0.4 2.3,-0.5 3.5,-0.5 4.7,0 9.4,0 14.1,0 7.9,0.1 15.5,5.1 18.9,12.2 2.4,4.6 2.6,10 2,15.1 -0.4,5.3 -2.6,10.6 -6.7,14.1 -2.2,1.9 -4.8,3.1 -7.2,4.8 -1.3,1 -1.3,2.8 -0.7,4.2 6.2,9.6 12.7,19.1 19.1,28.7 -4.7,0 -9.3,0 -14,0 -6.1,-9.2 -12.1,-18.4 -18.2,-27.5 -1.8,-2.6 -2.3,-6.1 -1.2,-9 0.8,-2.3 2.8,-4 5.1,-4.8 4.2,-1.6 8.4,-4.2 10.8,-8.2 1.8,-3 1.7,-6.7 0.9,-10 -0.9,-4.3 -5.1,-7.6 -9.5,-7.5 -3,0 -6.1,0 -9.1,0 -1.4,0 -2.7,1.2 -2.7,2.6 0,21.5 0,43 0,64.5 -4,0 -7.9,0 -11.9,0 0,-23.1 0,-46.3 0,-69.4 0.1,-4.3 3,-8.1 6.8,-9.3 z"
             id="path8"
             inkscape:connector-curvature="0"
             style="fill:#ffffff" /><path
             d="m 310.4,66.2 c 4.2,0 8.3,0 12.5,0 0,26.3 0,52.7 0,79 -4.2,0 -8.3,0 -12.5,0 0,-26.3 0,-52.7 0,-79 z"
             id="path10"
             inkscape:connector-curvature="0"
             style="fill:#ffffff" /></g></g></g><g
       id="g19"><path
         d="m 527.4,145.2 c -21.8,0 -39.6,-17.8 -39.6,-39.6 0,-21.8 17.8,-39.6 39.6,-39.6 21.8,0 39.6,17.8 39.6,39.6 0,21.8 -17.7,39.6 -39.6,39.6 z m 0,-76.3 c -20.2,0 -36.7,16.5 -36.7,36.7 0,20.2 16.5,36.7 36.7,36.7 20.2,0 36.7,-16.5 36.7,-36.7 0,-20.2 -16.4,-36.7 -36.7,-36.7 z m 0,63.7 c -14.9,0 -27,-12.1 -27,-27 0,-14.9 12.1,-27 27,-27 14.9,0 27,12.1 27,27 0,14.9 -12.1,27 -27,27 z m 0,-51.1 c -13.3,0 -24.1,10.8 -24.1,24.1 0,13.3 10.8,24.1 24.1,24.1 13.3,0 24.1,-10.8 24.1,-24.1 0,-13.3 -10.8,-24.1 -24.1,-24.1 z"
         id="path17"
         inkscape:connector-curvature="0"
         style="fill:#ffffff" /></g><g
       id="g23"><path
         d="m 446.4,145.2 c -21.8,0 -39.6,-17.8 -39.6,-39.6 0,-21.8 17.8,-39.6 39.6,-39.6 21.8,0 39.6,17.8 39.6,39.6 0,21.8 -17.8,39.6 -39.6,39.6 z m 0,-76.3 c -20.2,0 -36.7,16.5 -36.7,36.7 0,20.2 16.5,36.7 36.7,36.7 20.2,0 36.7,-16.5 36.7,-36.7 0,-20.2 -16.5,-36.7 -36.7,-36.7 z m 0,63.7 c -14.9,0 -27,-12.1 -27,-27 0,-14.9 12.1,-27 27,-27 14.9,0 27,12.1 27,27 -0.1,14.9 -12.2,27 -27,27 z m 0,-51.1 c -13.3,0 -24.1,10.8 -24.1,24.1 0,13.3 10.8,24.1 24.1,24.1 13.3,0 24.1,-10.8 24.1,-24.1 -0.1,-13.3 -10.9,-24.1 -24.1,-24.1 z"
         id="path21"
         inkscape:connector-curvature="0"
         style="fill:#ffffff" /></g><g
       id="g27"><path
         d="m 378.5,145.2 c -15.3,0 -27.7,-12.4 -27.7,-27.7 0,-9.2 4.6,-17.8 12.2,-23 -1.9,-3 -2.9,-6.4 -2.9,-10 0,-10.2 8.3,-18.5 18.5,-18.5 10.2,0 18.5,8.3 18.5,18.5 0,3.6 -1,7 -2.9,10 7.6,5.1 12.2,13.8 12.2,23 -0.2,15.3 -12.6,27.7 -27.9,27.7 z m 0,-76.3 c -8.6,0 -15.6,7 -15.6,15.6 0,3.5 1.1,6.8 3.3,9.5 l 1,1.3 -1.4,0.8 c -7.5,4.5 -12.1,12.6 -12.1,21.3 0,13.7 11.1,24.8 24.8,24.8 13.7,0 24.8,-11.1 24.8,-24.8 0,-8.7 -4.6,-16.9 -12.1,-21.3 l -1.4,-0.8 1,-1.3 c 2.1,-2.8 3.3,-6 3.3,-9.5 0,-8.6 -7,-15.6 -15.6,-15.6 z m 0,64.8 c -8.9,0 -16.2,-7.3 -16.2,-16.2 0,-8.9 7.3,-16.2 16.2,-16.2 8.9,0 16.2,7.3 16.2,16.2 0,8.9 -7.3,16.2 -16.2,16.2 z m 0,-29.5 c -7.3,0 -13.3,6 -13.3,13.3 0,7.3 6,13.3 13.3,13.3 7.3,0 13.3,-6 13.3,-13.3 0,-7.4 -6,-13.3 -13.3,-13.3 z m 0,-11.6 c -4.5,0 -8.2,-3.7 -8.2,-8.2 0,-4.5 3.7,-8.2 8.2,-8.2 4.5,0 8.2,3.7 8.2,8.2 0,4.6 -3.7,8.2 -8.2,8.2 z m 0,-13.4 c -2.9,0 -5.2,2.4 -5.2,5.2 0,2.9 2.4,5.2 5.2,5.2 2.9,0 5.2,-2.4 5.2,-5.2 0,-2.8 -2.3,-5.2 -5.2,-5.2 z"
         id="path25"
         inkscape:connector-curvature="0"
         style="fill:#ffffff" /></g><g
       id="g33"><g
         id="g31"><path
           d="M 70.6,66 H 8.9 C 4,66 0.1,69.9 0.1,74.8 v 61.7 c 0,4.8 3.9,8.8 8.8,8.8 h 61.7 c 4.8,0 8.8,-3.9 8.8,-8.8 V 74.8 C 79.3,69.9 75.4,66 70.6,66 Z M 34.4,97.9 c -0.2,3.7 -0.4,7.4 -1,11 -0.4,2.5 -1.3,4.9 -2.4,7.2 -1.8,3.7 -4.5,6.9 -7.6,9.5 -2.8,2.4 -6.1,4.2 -9.6,5.4 -2,0.7 -4,1.2 -6.1,1.5 0,-2.6 0,-5.1 0,-7.7 2.5,-0.4 4.9,-1.3 7.1,-2.4 2.6,-1.4 5,-3.3 7,-5.5 2.1,-2.3 3.7,-4.9 5,-7.7 1.5,-3.2 2.3,-6.7 2.8,-10.2 0.7,-4.4 1,-8.9 1.1,-13.4 0,-1.5 0,-3 0,-4.6 1.3,0 2.6,0 3.9,0 0,3.1 0,6.1 0,9.2 -0.1,2.5 -0.1,5.1 -0.2,7.7 z M 43.3,81 c 0,17.2 0,34.4 0,51.6 -2.4,0 -4.8,0 -7.2,0 0,-5.5 0,-11 0,-16.4 0,-11.7 0,-23.4 0,-35.1 C 38.5,81 40.9,81 43.3,81 Z m 28.4,51.6 c -2.1,-0.3 -4.1,-0.8 -6,-1.5 -2.3,-0.8 -4.6,-1.9 -6.7,-3.2 -1.5,-1 -2.9,-2.1 -4.2,-3.4 -2.2,-2 -4.1,-4.3 -5.6,-6.9 -1.1,-2 -2,-4.2 -2.6,-6.4 -0.6,-2.2 -0.9,-4.5 -1.1,-6.8 -0.5,-5 -0.6,-9.9 -0.6,-14.9 0,-2.8 0,-5.6 0,-8.5 1.3,0 2.6,0 3.9,0 0,5.2 0.1,10.5 0.8,15.7 0.5,4 1.2,8.1 2.8,11.9 1.5,3.6 3.7,7 6.6,9.8 2.7,2.6 6.1,4.6 9.7,5.8 1,0.3 2,0.6 3.1,0.7 -0.1,2.5 -0.1,5.1 -0.1,7.7 z"
           id="path29"
           inkscape:connector-curvature="0"
           style="fill:#ffffff" /></g></g></g></svg>
