<?xml version="1.0" encoding="UTF-8" standalone="no"?>
<svg
   xmlns:dc="http://purl.org/dc/elements/1.1/"
   xmlns:cc="http://creativecommons.org/ns#"
   xmlns:rdf="http://www.w3.org/1999/02/22-rdf-syntax-ns#"
   xmlns:svg="http://www.w3.org/2000/svg"
   xmlns="http://www.w3.org/2000/svg"
   xmlns:sodipodi="http://sodipodi.sourceforge.net/DTD/sodipodi-0.dtd"
   xmlns:inkscape="http://www.inkscape.org/namespaces/inkscape"
   inkscape:version="1.0 (4035a4fb49, 2020-05-01)"
   sodipodi:docname="atari2600.svg"
   xml:space="preserve"
   enable-background="new 0 0 466.5 167.3"
   viewBox="0 0 446.84122 103.9"
   height="103.9"
   width="446.84122"
   y="0px"
   x="0px"
   id="Ebene_1"
   version="1.0"><metadata
     id="metadata39"><rdf:RDF><cc:Work
         rdf:about=""><dc:format>image/svg+xml</dc:format><dc:type
           rdf:resource="http://purl.org/dc/dcmitype/StillImage" /><dc:title></dc:title></cc:Work></rdf:RDF></metadata><defs
     id="defs37" /><sodipodi:namedview
     lock-margins="true"
     inkscape:document-rotation="0"
     inkscape:snap-bbox-midpoints="true"
     inkscape:snap-bbox-edge-midpoints="true"
     inkscape:bbox-nodes="true"
     inkscape:bbox-paths="true"
     inkscape:snap-bbox="true"
     inkscape:pagecheckerboard="true"
     inkscape:current-layer="g32"
     inkscape:window-maximized="1"
     inkscape:window-y="-8"
     inkscape:window-x="-8"
     inkscape:cy="22.046033"
     inkscape:cx="196.87657"
     inkscape:zoom="2.340836"
     fit-margin-bottom="5"
     fit-margin-right="5"
     fit-margin-left="5"
     fit-margin-top="5"
     showgrid="false"
     id="namedview35"
     inkscape:window-height="1017"
     inkscape:window-width="1920"
     inkscape:pageshadow="2"
     inkscape:pageopacity="0"
     guidetolerance="10"
     gridtolerance="10"
     objecttolerance="10"
     borderopacity="1"
     bordercolor="#666666"
     pagecolor="#ffffff" /><g
     transform="translate(-10,-31.7)"
     id="g32"><path
       style="fill:#ffffff"
       inkscape:connector-curvature="0"
       id="path2"
       d="m 174.4,40.8 c 3.6,-4.6 11.2,-5.5 15.6,-1.5 1.8,1.5 3.1,3.7 3.8,5.9 8.2,28.4 16.6,56.9 24.8,85.3 -4.9,0 -9.8,0 -14.6,0 -2.3,-7.9 -4.5,-15.7 -6.9,-23.6 -9.4,0 -18.9,0 -28.3,0 -2.3,7.9 -4.6,15.7 -6.9,23.6 -4.9,0 -9.7,0 -14.6,0 7.9,-27.1 15.7,-54.2 23.6,-81.3 1.1,-2.9 1.5,-6.1 3.5,-8.4 m 8.6,17.4 c -3.5,11.8 -6.9,23.6 -10.3,35.4 6.9,0 13.7,0 20.6,0 C 189.8,81.8 186.4,70 183,58.2 Z" /><path
       style="fill:#ffffff"
       inkscape:connector-curvature="0"
       id="path4"
       d="m 277.1,41.4 c 2.5,-3.7 7.5,-5.5 11.8,-4.3 3.9,0.9 7,4.3 8,8.2 8.2,28.4 16.6,56.9 24.8,85.3 -4.9,0 -9.8,0 -14.6,0 -2.2,-7.9 -4.5,-15.7 -6.8,-23.6 -9.4,0 -18.8,0 -28.3,0 -2.2,7.9 -4.5,15.7 -6.9,23.6 -4.9,0 -9.7,0 -14.6,0 7.9,-27.3 15.8,-54.5 23.7,-81.8 1,-2.5 1.3,-5.3 2.9,-7.4 M 276,93.6 c 6.9,0 13.6,0 20.5,0 C 293.1,81.8 289.6,70 286.3,58.2 282.7,70 279.4,81.8 276,93.6 Z" /><path
       style="fill:#ffffff"
       inkscape:connector-curvature="0"
       id="path6"
       d="m 207.6,37 c 17.6,0 35.3,0 52.9,0 0,4.8 0,9.6 0,14.3 -6.5,0 -13,0 -19.5,0 0,26.4 0,52.8 0,79.3 -4.6,0 -9.3,0 -13.9,0 0,-26.4 0,-52.8 0,-79.3 -6.5,0 -13,0 -19.5,0 0,-4.9 0,-9.6 0,-14.3 z" /><path
       style="fill:#ffffff"
       inkscape:connector-curvature="0"
       id="path8"
       d="m 337.3,37.5 c 1.3,-0.5 2.8,-0.6 4.2,-0.6 5.5,0 11.1,0 16.7,0 9.4,0.2 18.3,6 22.3,14.4 2.8,5.5 3.1,11.9 2.4,17.9 -0.5,6.3 -3.2,12.6 -7.9,16.7 -2.5,2.3 -5.7,3.6 -8.5,5.7 -1.5,1.2 -1.5,3.4 -0.8,4.9 7.4,11.4 15.1,22.6 22.6,33.9 -5.5,0 -11,0 -16.6,0 -7.2,-10.9 -14.3,-21.7 -21.6,-32.6 -2.1,-3.1 -2.7,-7.2 -1.4,-10.7 1,-2.7 3.4,-4.7 6,-5.7 5,-1.9 10,-4.9 12.8,-9.7 2.2,-3.5 2,-7.9 1.1,-11.9 -1.2,-5.1 -6.1,-9 -11.2,-8.9 -3.6,0 -7.2,0 -10.8,0 -1.6,0 -3.2,1.4 -3.2,3 0,25.4 0,50.9 0,76.3 -4.7,0 -9.4,0 -14.1,0 0,-27.4 0,-54.8 0,-82.2 0,-4.5 3.4,-9 8,-10.5 z" /><path
       style="fill:#ffffff"
       inkscape:connector-curvature="0"
       id="path10"
       d="m 395.7,37 c 4.9,0 9.9,0 14.8,0 0,31.2 0,62.4 0,93.6 -4.9,0 -9.9,0 -14.8,0 0,-31.3 0,-62.5 0,-93.6 z" /><path
       style="fill:#ffffff"
       inkscape:connector-curvature="0"
       id="path12"
       d="m 56.7,36.7 c 2.4,0 4.8,0 7.1,0 0,5.5 0,11.2 0,16.7 0,4.6 -0.1,9.3 -0.3,13.9 -0.3,6.7 -0.8,13.4 -1.8,20.1 -0.8,4.5 -2.3,9 -4.3,13.2 -3.2,6.8 -8.2,12.5 -13.9,17.3 -5.1,4.5 -11.1,7.7 -17.4,9.9 -3.6,1.2 -7.3,2.2 -11.1,2.7 0,-4.7 0,-9.3 0,-14 4.5,-0.7 8.9,-2.3 12.9,-4.4 4.8,-2.5 9.1,-5.9 12.8,-10 3.8,-4.2 6.8,-8.9 9,-14.1 2.7,-5.9 4.1,-12.2 5.1,-18.6 1.2,-8.1 1.7,-16.3 1.9,-24.4 0,-2.7 0,-5.5 0,-8.3 z" /><path
       style="fill:#ffffff"
       inkscape:connector-curvature="0"
       id="path14"
       d="m 66.6,36.7 c 4.4,0 8.7,0 13.1,0 0,31.3 0,62.5 0,93.7 -4.4,0 -8.7,0 -13.1,0 -0.1,-9.9 0,-20 0,-29.9 0,-21.2 0,-42.4 0,-63.8 z" /><path
       style="fill:#ffffff"
       inkscape:connector-curvature="0"
       id="path16"
       d="m 82.6,36.7 c 2.4,0 4.7,0 7.1,0 -0.1,9.6 0.2,19.1 1.4,28.6 0.9,7.3 2.2,14.8 5.2,21.6 2.8,6.6 6.8,12.8 12,17.8 5,4.8 11,8.4 17.6,10.5 1.8,0.6 3.7,1.1 5.6,1.3 0,4.7 0,9.3 0,14 -3.8,-0.5 -7.4,-1.5 -10.9,-2.7 -4.2,-1.5 -8.3,-3.4 -12.1,-5.9 -2.8,-1.8 -5.2,-3.9 -7.7,-6.1 C 96.9,112.2 93.3,108 90.6,103.2 88.5,99.5 87,95.6 85.8,91.6 84.7,87.5 84.3,83.4 83.8,79.2 83,70.2 82.6,61.1 82.7,52.1 82.6,47 82.6,41.9 82.6,36.7 Z" /><path
       style="fill:#ffffff"
       inkscape:connector-curvature="0"
       id="path18"
       d="m 56.7,36.7 c 0,2.8 0,5.5 0,8.3 -0.2,8.2 -0.7,16.3 -1.9,24.4 -1,6.3 -2.4,12.7 -5.1,18.6 -2.3,5.1 -5.2,9.9 -9,14.1 -3.6,4 -7.9,7.5 -12.8,10 -4.1,2.2 -8.4,3.7 -12.9,4.4 0,4.7 0,9.3 0,14 3.8,-0.5 7.5,-1.5 11.1,-2.7 6.3,-2.2 12.4,-5.5 17.4,-9.9 5.6,-4.8 10.7,-10.5 13.9,-17.3 1.9,-4.2 3.5,-8.6 4.3,-13.2 1.1,-6.6 1.5,-13.3 1.8,-20 0.2,-4.6 0.3,-9.3 0.3,-13.9 0,-5.5 0,-11.2 0,-16.7 -2.4,-0.1 -4.8,-0.1 -7.1,-0.1" /><path
       style="fill:#ffffff"
       inkscape:connector-curvature="0"
       id="path20"
       d="m 66.6,36.7 c 0,21.3 0,42.6 0,63.9 0,9.9 0,20 0,29.9 4.4,-0.1 8.7,0 13.1,0 0,-31.3 0,-62.6 0,-93.7 C 75.3,36.7 71,36.7 66.6,36.7" /><path
       style="fill:#ffffff"
       inkscape:connector-curvature="0"
       id="path22"
       d="m 82.6,36.7 c 0,5.1 0,10.2 0,15.3 -0.1,9.1 0.2,18.1 1.1,27.1 0.5,4.2 0.9,8.4 2,12.4 1.2,4 2.7,8 4.8,11.6 2.7,4.7 6.2,8.9 10.2,12.6 2.4,2.2 4.9,4.3 7.7,6.1 3.8,2.5 7.9,4.4 12.1,5.9 3.5,1.2 7.2,2.2 10.9,2.7 0,-4.7 0,-9.3 0,-14 -1.9,-0.3 -3.8,-0.8 -5.6,-1.3 -6.5,-2.1 -12.6,-5.8 -17.6,-10.5 C 103,99.7 99,93.5 96.2,86.8 93.3,79.9 92,72.5 91,65.2 89.9,55.9 89.6,46.3 89.7,36.8 87.3,36.7 84.9,36.7 82.6,36.7" /></g><path
     inkscape:connector-curvature="0"
     style="fill:#ffffff;fill-opacity:1;stroke-width:1.08802"
     id="path29"
     d="m 438.96391,98.9 c -0.53551,0 -1.77759,-0.31557 -4.05351,-2.42255 -1.94015,-1.79565 -3.87287,-3.605114 -5.8024,-5.425205 -2.1771,-2.058095 -3.85907,-3.016487 -5.29453,-3.016487 -0.87232,0 -1.6809,0.347437 -2.40448,1.035945 -0.72675,0.69383 -1.10927,1.601215 -1.10927,2.628674 0,1.080576 0.37933,2.010293 1.13053,2.759353 0.50363,0.5047 1.09438,0.84152 1.76378,1.00833 v 3.36287 c -1.51197,-0.2125 -2.81993,-0.90419 -3.97807,-2.09847 -1.42165,-1.4684 -2.11441,-3.13868 -2.11441,-5.107526 0,-1.955027 0.68851,-3.561551 2.10485,-4.910955 1.42909,-1.364266 3.04836,-2.026216 4.94495,-2.026216 1.99542,0 4.01738,0.973265 6.01279,2.893236 2.20366,2.118654 4.30639,4.164009 6.30923,6.132851 l 1.73828,1.70958 0.0861,-10.735667 h 3.09193 V 97.48897 c 0,0.22101 -0.25607,0.51639 -0.7002,0.81071 -0.60355,0.39844 -1.18262,0.60032 -1.72557,0.60032" /><path
     inkscape:connector-curvature="0"
     style="fill:#ffffff;fill-opacity:1;stroke-width:1.08802"
     id="path31"
     d="m 433.39951,79.313541 c -0.4537,0 -1.71703,-0.220999 -5.09159,-1.700029 -2.67754,-1.170892 -5.33596,-2.420416 -7.90087,-3.716681 -1.91041,-0.962645 -2.84543,-1.450339 -3.30444,-1.695785 V 68.33455 l 9.54779,4.549696 v -1.636271 c 0,-2.336478 0.66831,-4.205447 2.04215,-5.714222 1.3494,-1.48115 3.02499,-2.200474 5.12027,-2.200474 2.30036,0 4.1672,0.812826 5.70679,2.486292 1.56296,1.697903 2.3216,3.670994 2.3216,6.029784 0,2.130351 -0.82132,3.858004 -2.50967,5.281774 -1.73933,1.4684 -3.68055,2.182412 -5.93203,2.182412 M 434.00195,66.7939 c -1.27501,0 -2.38216,0.445194 -3.29168,1.323897 -0.92226,0.889326 -1.38871,1.967783 -1.38871,3.20561 0,1.235717 0.51107,2.306729 1.52153,3.185435 0.96476,0.841516 2.00284,1.26864 3.08343,1.26864 1.3664,0 2.46398,-0.423936 3.26511,-1.258021 0.78733,-0.821324 1.1879,-1.909342 1.1879,-3.234298 0,-1.371708 -0.44626,-2.479918 -1.32602,-3.294869 -0.85852,-0.794763 -1.88597,-1.196394 -3.05156,-1.196394" /><path
     inkscape:connector-curvature="0"
     style="fill:#ffffff;fill-opacity:1;stroke-width:1.08802"
     id="path33"
     d="m 429.64032,59.200084 c -3.58068,0 -6.53236,-1.221894 -9.02291,-3.734749 -2.49266,-2.517104 -3.70393,-5.38484 -3.70393,-8.76524 0,-3.306556 1.21127,-6.136571 3.70393,-8.654207 2.49161,-2.513385 5.29454,-3.736344 8.57133,-3.736344 3.25344,0 6.07973,1.103426 8.6404,3.369775 2.52349,2.234475 3.74963,5.062366 3.74963,8.644114 0,3.512152 -1.08695,6.483483 -3.32356,9.081338 -2.1941,2.554293 -5.01083,3.795313 -8.61489,3.795313 m -0.45158,-21.428326 c -2.2759,0 -4.334,0.889859 -6.11903,2.64567 -1.78928,1.760592 -2.69561,3.82347 -2.69561,6.131259 0,2.616449 0.94989,4.836049 2.82417,6.598766 1.85835,1.745185 4.02588,2.630263 6.44205,2.630263 2.5511,0 4.67508,-0.925453 6.31454,-2.748733 1.60865,-1.791937 2.42467,-3.959474 2.42467,-6.442046 0,-2.402353 -0.85851,-4.492856 -2.55111,-6.213603 -1.70003,-1.727124 -3.93344,-2.601576 -6.63968,-2.601576" /><path
     inkscape:connector-curvature="0"
     style="fill:#ffffff;fill-opacity:1;stroke-width:1.08802"
     id="path35"
     d="m 429.64032,29.988285 c -3.58175,0 -6.53342,-1.221895 -9.02291,-3.735281 -2.49266,-2.516573 -3.70393,-5.384308 -3.70393,-8.764709 0,-3.306554 1.21127,-6.136571 3.70393,-8.654207 2.49161,-2.513386 5.29559,-3.735281 8.57133,-3.735281 3.25344,0 6.0808,1.102362 8.6404,3.368712 2.52349,2.234475 3.74963,5.062366 3.74963,8.644114 0,3.512152 -1.08695,6.483483 -3.32356,9.082932 -2.1941,2.553231 -5.01083,3.79372 -8.61489,3.79372 M 429.18874,8.559959 c -2.2759,0 -4.33294,0.889859 -6.11903,2.6462 -1.78928,1.760061 -2.69561,3.822939 -2.69561,6.130727 0,2.61645 0.94989,4.83605 2.82417,6.598766 1.85835,1.745186 4.02588,2.629733 6.44205,2.629733 2.5511,0 4.67508,-0.924922 6.31454,-2.748203 1.60865,-1.791936 2.42467,-3.959473 2.42467,-6.442045 0,-2.402353 -0.85851,-4.492325 -2.55111,-6.213603 -1.70003,-1.727123 -3.93344,-2.601575 -6.63968,-2.601575" /></svg>
