<?xml version="1.0" encoding="utf-8"?>
<!-- Generator: Adobe Illustrator 21.1.0, SVG Export Plug-In . SVG Version: 6.00 Build 0)  -->
<svg version="1.0" id="Ebene_1" xmlns="http://www.w3.org/2000/svg" xmlns:xlink="http://www.w3.org/1999/xlink" x="0px" y="0px"
	 width="466.5px" height="167.3px" viewBox="0 0 466.5 167.3" enable-background="new 0 0 466.5 167.3" xml:space="preserve">
<g>
	<path fill="#FFFFFF" d="M174.4,40.8c3.6-4.6,11.2-5.5,15.6-1.5c1.8,1.5,3.1,3.7,3.8,5.9c8.2,28.4,16.6,56.9,24.8,85.3
		c-4.9,0-9.8,0-14.6,0c-2.3-7.9-4.5-15.7-6.9-23.6c-9.4,0-18.9,0-28.3,0c-2.3,7.9-4.6,15.7-6.9,23.6c-4.9,0-9.7,0-14.6,0
		c7.9-27.1,15.7-54.2,23.6-81.3C172,46.3,172.4,43.1,174.4,40.8 M183,58.2c-3.5,11.8-6.9,23.6-10.3,35.4c6.9,0,13.7,0,20.6,0
		C189.8,81.8,186.4,70,183,58.2z"/>
	<path fill="#FFFFFF" d="M277.1,41.4c2.5-3.7,7.5-5.5,11.8-4.3c3.9,0.9,7,4.3,8,8.2c8.2,28.4,16.6,56.9,24.8,85.3
		c-4.9,0-9.8,0-14.6,0c-2.2-7.9-4.5-15.7-6.8-23.6c-9.4,0-18.8,0-28.3,0c-2.2,7.9-4.5,15.7-6.9,23.6c-4.9,0-9.7,0-14.6,0
		c7.9-27.3,15.8-54.5,23.7-81.8C275.2,46.3,275.5,43.5,277.1,41.4 M276,93.6c6.9,0,13.6,0,20.5,0c-3.4-11.8-6.9-23.6-10.2-35.4
		C282.7,70,279.4,81.8,276,93.6z"/>
	<path fill="#FFFFFF" d="M207.6,37c17.6,0,35.3,0,52.9,0c0,4.8,0,9.6,0,14.3c-6.5,0-13,0-19.5,0c0,26.4,0,52.8,0,79.3
		c-4.6,0-9.3,0-13.9,0c0-26.4,0-52.8,0-79.3c-6.5,0-13,0-19.5,0C207.6,46.4,207.6,41.7,207.6,37z"/>
	<path fill="#FFFFFF" d="M337.3,37.5c1.3-0.5,2.8-0.6,4.2-0.6c5.5,0,11.1,0,16.7,0c9.4,0.2,18.3,6,22.3,14.4
		c2.8,5.5,3.1,11.9,2.4,17.9c-0.5,6.3-3.2,12.6-7.9,16.7c-2.5,2.3-5.7,3.6-8.5,5.7c-1.5,1.2-1.5,3.4-0.8,4.9
		c7.4,11.4,15.1,22.6,22.6,33.9c-5.5,0-11,0-16.6,0c-7.2-10.9-14.3-21.7-21.6-32.6c-2.1-3.1-2.7-7.2-1.4-10.7c1-2.7,3.4-4.7,6-5.7
		c5-1.9,10-4.9,12.8-9.7c2.2-3.5,2-7.9,1.1-11.9c-1.2-5.1-6.1-9-11.2-8.9c-3.6,0-7.2,0-10.8,0c-1.6,0-3.2,1.4-3.2,3
		c0,25.4,0,50.9,0,76.3c-4.7,0-9.4,0-14.1,0c0-27.4,0-54.8,0-82.2C329.3,43.5,332.7,39,337.3,37.5z"/>
	<path fill="#FFFFFF" d="M395.7,37c4.9,0,9.9,0,14.8,0c0,31.2,0,62.4,0,93.6c-4.9,0-9.9,0-14.8,0C395.7,99.3,395.7,68.1,395.7,37z"
		/>
	<path fill="#FFFFFF" d="M56.7,36.7c2.4,0,4.8,0,7.1,0c0,5.5,0,11.2,0,16.7c0,4.6-0.1,9.3-0.3,13.9c-0.3,6.7-0.8,13.4-1.8,20.1
		c-0.8,4.5-2.3,9-4.3,13.2c-3.2,6.8-8.2,12.5-13.9,17.3c-5.1,4.5-11.1,7.7-17.4,9.9c-3.6,1.2-7.3,2.2-11.1,2.7c0-4.7,0-9.3,0-14
		c4.5-0.7,8.9-2.3,12.9-4.4c4.8-2.5,9.1-5.9,12.8-10c3.8-4.2,6.8-8.9,9-14.1c2.7-5.9,4.1-12.2,5.1-18.6c1.2-8.1,1.7-16.3,1.9-24.4
		C56.7,42.3,56.7,39.5,56.7,36.7z"/>
	<path fill="#FFFFFF" d="M66.6,36.7c4.4,0,8.7,0,13.1,0c0,31.3,0,62.5,0,93.7c-4.4,0-8.7,0-13.1,0c-0.1-9.9,0-20,0-29.9
		C66.6,79.3,66.6,58.1,66.6,36.7z"/>
	<path fill="#FFFFFF" d="M82.6,36.7c2.4,0,4.7,0,7.1,0c-0.1,9.6,0.2,19.1,1.4,28.6c0.9,7.3,2.2,14.8,5.2,21.6
		c2.8,6.6,6.8,12.8,12,17.8c5,4.8,11,8.4,17.6,10.5c1.8,0.6,3.7,1.1,5.6,1.3c0,4.7,0,9.3,0,14c-3.8-0.5-7.4-1.5-10.9-2.7
		c-4.2-1.5-8.3-3.4-12.1-5.9c-2.8-1.8-5.2-3.9-7.7-6.1c-3.9-3.6-7.5-7.8-10.2-12.6c-2.1-3.7-3.6-7.6-4.8-11.6
		c-1.1-4.1-1.5-8.2-2-12.4c-0.8-9-1.2-18.1-1.1-27.1C82.6,47,82.6,41.9,82.6,36.7z"/>
	<path fill="#FFFFFF" d="M56.7,36.7c0,2.8,0,5.5,0,8.3c-0.2,8.2-0.7,16.3-1.9,24.4c-1,6.3-2.4,12.7-5.1,18.6
		c-2.3,5.1-5.2,9.9-9,14.1c-3.6,4-7.9,7.5-12.8,10c-4.1,2.2-8.4,3.7-12.9,4.4c0,4.7,0,9.3,0,14c3.8-0.5,7.5-1.5,11.1-2.7
		c6.3-2.2,12.4-5.5,17.4-9.9c5.6-4.8,10.7-10.5,13.9-17.3c1.9-4.2,3.5-8.6,4.3-13.2c1.1-6.6,1.5-13.3,1.8-20
		c0.2-4.6,0.3-9.3,0.3-13.9c0-5.5,0-11.2,0-16.7C61.4,36.7,59,36.7,56.7,36.7"/>
	<path fill="#FFFFFF" d="M66.6,36.7c0,21.3,0,42.6,0,63.9c0,9.9,0,20,0,29.9c4.4-0.1,8.7,0,13.1,0c0-31.3,0-62.6,0-93.7
		C75.3,36.7,71,36.7,66.6,36.7"/>
	<path fill="#FFFFFF" d="M82.6,36.7c0,5.1,0,10.2,0,15.3c-0.1,9.1,0.2,18.1,1.1,27.1c0.5,4.2,0.9,8.4,2,12.4c1.2,4,2.7,8,4.8,11.6
		c2.7,4.7,6.2,8.9,10.2,12.6c2.4,2.2,4.9,4.3,7.7,6.1c3.8,2.5,7.9,4.4,12.1,5.9c3.5,1.2,7.2,2.2,10.9,2.7c0-4.7,0-9.3,0-14
		c-1.9-0.3-3.8-0.8-5.6-1.3c-6.5-2.1-12.6-5.8-17.6-10.5c-5.2-4.9-9.2-11.1-12-17.8C93.3,79.9,92,72.5,91,65.2
		c-1.1-9.3-1.4-18.9-1.3-28.4C87.3,36.7,84.9,36.7,82.6,36.7"/>
	<path fill="#FFFFFF" d="M427.3,121.2l5.5,1.7l-0.1-1.8c0-5.2,4.5-8.6,9.3-8.6c5.6,0,9.5,4.4,9.5,9.9c0,3.3-1.8,6.6-4.7,8.2
		l-2.3-2.5c2.2-0.8,4-3.5,4-5.9c0-3.6-3-6.5-6.5-6.5s-6.3,2.9-6.3,6.4c0,1.8,0.9,3.9,2.4,5v0.6l-13.7-4.1v-10.8h3.1L427.3,121.2
		L427.3,121.2z"/>
	<path fill="#FFFFFF" d="M448,94.8h3.1v17.3l-14.3-11.7c-1.3-1.1-3-2.4-4.8-2.4c-2.8,0-5.1,2.5-5.1,5.2s2.2,4.9,4.9,5.2v3.3
		c-4.8-0.5-7.9-3.6-7.9-8.5c0-4.5,3.4-8.4,8-8.4c2,0,4,0.8,5.5,2l10.7,8.8L448,94.8L448,94.8z"/>
	<path fill="#FFFFFF" d="M423.7,80.3c0,7.6,6.2,13.9,14,13.9c7.6,0,13.9-6.2,13.9-13.9c0-7.9-6.1-14-13.9-14S423.7,72.3,423.7,80.3z
		 M437.7,69.5c6,0,10.8,4.8,10.8,10.9c0,5.8-4.9,10.4-10.8,10.4c-6,0-10.9-4.7-10.9-10.4C426.9,74.2,431.6,69.5,437.7,69.5z"/>
	<path fill="#FFFFFF" d="M423.7,50.8c0,7.6,6.2,13.9,14,13.9c7.6,0,13.9-6.2,13.9-13.9c0-7.9-6.1-14-13.9-14
		C429.8,36.7,423.7,42.9,423.7,50.8z M437.7,40c6,0,10.8,4.8,10.8,10.9c0,5.8-4.9,10.4-10.8,10.4c-6,0-10.9-4.7-10.9-10.4
		C426.9,44.7,431.6,40,437.7,40z"/>
</g>
</svg>
