<?xml version="1.0" encoding="utf-8"?>
<!-- Generator: Adobe Illustrator 21.1.0, SVG Export Plug-In . SVG Version: 6.00 Build 0)  -->
<svg version="1.0" id="Ebene_1" xmlns="http://www.w3.org/2000/svg" xmlns:xlink="http://www.w3.org/1999/xlink" x="0px" y="0px"
	 width="412.5px" height="136.6px" viewBox="0 0 412.5 136.6" enable-background="new 0 0 412.5 136.6" xml:space="preserve">
<g>
	<g>
		<path fill="#FFFFFF" d="M75.7,61c1.8-5.4,3.4-10.9,5.2-16.4c0.4-1.3,0.8-2.7,1.2-4c0.1-0.3,1.5-5.5,2.1-7.8
			c0.7-2.8,1.4-5.6,1.7-8.4c0.2-1.7,1-2.7,2.5-3.1c0.9-0.3,1.4-0.7,2.3-0.8c0.7-0.1,1.3-0.3,1.6-0.9s1.1-0.9,1.5-1.5
			c0.3-0.4,0.7-0.9,1.1-1c1.2-0.4,2.5-0.5,3.8-0.9c1.5-0.5,3.3-0.9,4.4-1.9c1.1-1.1,2.2-1.6,3.7-1.7c1.3-0.1,2.5-0.6,2.9-2.1
			c0.3-0.9,0.9-1.3,1.6-1.7c0.6-0.1,0.9-0.4,1.1-1.1c0.1-0.7-2.7-0.3-2.9-0.5c-0.9-0.9-0.8-1.1,0.3-1.5c0.7-0.3,1.5-0.3,2.3-0.5
			c0.5-0.1,0.9-0.2,1.4-0.3c1.1-0.1,2.2-0.3,3.4-0.5c1.9-0.2,3.9-0.4,5.8-0.7c0.5-0.1,0.9-0.2,1.3-0.5c0.3-0.2,0.8-1,0.8-1.4
			s-0.7-0.5-1.1-0.5c-1.5,0.1-3.1,0.1-4.6,0.4c-2.4,0.3-4.8,0.7-7.2,1.2c-2,0.3-4,0.8-5.9,1.2c-0.3,0-3.8,0.9-4.1,0.9
			c-0.7,0.2-1.5,0.3-2.3,0.5h-0.1c-0.7,0.1-1.5,0.3-2.2,0.4c-2.3,0.5-4.6,1-7,1.4c-1.3,0.3-2.5,0.5-3.8,0.8
			c-1.8,0.4-3.6,0.7-5.4,1.1c-4,0.8-8,1.5-11.9,2.2c-0.4,0-14.1,2.5-21.4,2.7c-1.7,0.1-3.4,0-5.1,0c-0.6,0-1.1,0.1-1.3,0.7
			c-0.3,0.9-0.1,1.1,0.9,1.5c0.5,0.2,0.8,0.5,1.2,0.9c-0.5,0.3-0.9,0.7-1.4,0.9c-0.3,0.1-0.8,0-1.2,0.1c-0.3,0.1-0.7,0.1-0.9,0.3
			c-1.1,0.8-0.7,1.8,0.8,2.5c2.1,0.9,2.2,1.4,0.9,3.3c-0.1,0.2-0.7,0.3-0.7,0.5s0.5,0.4,0.7,0.5s0.5-0.1,0.7-0.1
			c0.3,0.4,0.8,0.7,1,1.1c0.4,0.9,1,1.3,2.1,1.2c2.9-0.2,5.8-0.2,8.7-0.6c3-0.4,5.9-1.4,8.9-1.7c2.5-0.2,5-0.7,7.4-1.1
			c0.7-0.1,1.1,0.1,1,0.9c0,0.9,0.1,1.9-0.1,2.8s-0.7,3.8-1.1,5.9c-0.6,2.7-1.5,5.8-1.5,6c-0.3,0.9-0.5,1.9-0.8,2.8
			c-0.9,2.9-3.1,10.1-3.3,10.9c-0.8,3.3-4.4,11.7-4.8,12.9c-1.1,2.5-2.3,5-3.8,7.4c-1.4,2.3-3.1,4.6-4.6,6.8
			c-1.2,1.7-4.3,4.8-4.3,4.8c-4.6,5.2-9.8,6.3-9.9,6.4c-3.4,1.2-6.6,1.1-10-0.5c-1.5-0.7-3.1-1.4-4.4-2.5c-1.4-1.1-2.9-2.5-4.2-3.6
			c-0.4-0.3-0.7-0.8-1.2-1.1c-0.8-0.4-1.3-0.1-1.3,0.9c0,0.4,0,0.9,0.2,1.2c1.5,2.5,3.1,4.8,5.6,6.4c2.4,1.5,6,3.2,8.4,4.2
			c2.4,0.9,4.3,1.6,6.2,2s5,0.9,7.6,0.1s5.5-1.9,9.6-5.3c4-3.3,12.1-12.5,15.3-18.3c1.3-2.5,2.5-5,3.8-7.6
			C73.8,65.4,75,63.2,75.7,61z"/>
		<path fill="#FFFFFF" d="M196.2,67.5L196.2,67.5L196.2,67.5z"/>
		<path fill="#FFFFFF" d="M126.4,18.9c-0.4-0.1-0.8-0.2-1.2-0.3h-0.1c-0.1-1.1-0.1-2.3-0.3-3.4c-0.1-0.6,0.1-1.5-0.9-1.6l0,0
			c-0.7-0.5-2-0.1-2-0.1s-1.4,0.3-1.7,1c-0.9,0.1-1.7,0.3-2.6,0.3c-2.9,0-2.9,0-4,2.7c-0.1,0.3-0.4,0.6-0.6,0.9
			c-0.3-0.3-0.7-0.5-0.7-0.9c-0.2-1.1-0.9-1.3-1.8-1.2c-0.9,0.1-0.9,0.7-1.1,1.4c-0.5,1.7-0.9,3.4-2.4,4.6c-1.8,1.3-2.5,3.3-3.1,5.3
			c-0.5,1.5-0.6,3.2-2.1,4.2c-0.2,0.1-0.4,1.1-0.3,1.3c-1.3,1.7-5.2,7.4-5.7,8.6c-0.6,1.3-1.3,2.5-1.7,3.8c-0.3,1.1-0.5,2-1.3,2.8
			c-1.5,0.8-1.1,2.3-1.3,3.6c-0.3,0.4-0.5,0.8-0.7,1.2c-0.2,0.3-0.4,0.5-0.5,0.8c-0.1,0.1-0.2,0.2-0.3,0.3c-0.3,0.3-0.3,0.7-0.7,0.9
			c-0.5,0.2-2.1,0.8-3.3,1.1c-1.7,0.5-2,0.7-2,1.6c0.1,1.2,1,1.3,1.9,1.3c0.7,0.1,0.9,0.5,0.7,1.1c-0.9,1.9-1.7,3.8-2.7,5.6
			c-2.3,4.4-7,13.4-7.1,13.6c-0.5,1.1-0.9,2.2-1.3,3.3c0,0.1,0,0.3,0,0.4c-0.2,0.3-0.3,0.5-0.5,0.7c-0.1,0.1-0.2,0.3-0.3,0.5
			c0,0.1-0.1,0.3-0.1,0.4c-0.5,0.9-1.2,1.7-1.4,2.7c-0.2,1.1-0.6,1.9-1.3,2.7c-1.4,1.5-0.9,3.3-0.5,5c0.1,0.5,0.6,0.6,0.9,0.3
			c0.5-0.6,0.9-1.3,1.3-2c0.4-0.8,0.6-1.6,1-2.4c0.1-0.2,0.5-0.4,0.8-0.4c0.2,0,0.5,0.5,0.4,0.7c-0.2,0.7-0.6,1.5-0.8,2.2
			c-0.1,0.2-0.1,0.6,0.1,0.7s0.5-0.1,0.7-0.3c0.5-1,0.9-2.1,1.4-3.1c0.9-1.8,1.7-3.6,2.6-5.4c0.1-0.2,0.5-0.4,0.6-0.3
			c0.2,0.1,0.3,0.4,0.4,0.6s0.1,0.4,0,0.6c-0.3,2.1-0.7,4.2-1.1,6.3c0,0.1,0.1,0.3,0.1,0.3c0.2,0,0.5,0,0.5-0.1
			c0.2-0.3,0.3-0.7,0.5-1.1c0.6-1.6,0.7-3.5,2.4-4.6c0.3-0.2,0.6-0.7,0.6-1c0-1.5,3.5-9,4-9.9l0,0c0.3-0.8,4.3-9,5.1-11.1
			c0.1-0.3,1.3-3,1.5-3.1c0.5-1.2,1.1-2.4,1.7-3.7c0.9-0.4,1.7-0.9,2.5-1.2c4.4-1.7,14.9-6,15.4-5.9c0,0.1,0,1.1,0,1.3
			c0,0.3,0,0.5,0,0.8c0,1.9-0.1,3.8,0,5.6c0,1.5,0.4,6.3,0.3,7.2c-0.2,1.4-0.2,2.7,0.4,4.2c0.6,1.3,0.9,2.7,0.5,4.2v0.1
			c0,0.5,0,1.1,0,1.7l0,0c0.1,1,0.1,2,0.9,2.8c0.5,0.5,1,0.7,1.5,0.1c0.3-0.5,0.5-0.4,0.9,0c0.9,1,1.4,2.1,1.1,3.6
			c-0.1,0.5,0.1,1,0.3,1.5c0.1,0.3,0.3,0.7,0.8,0.5s0.5-0.7,0.5-1c0.1-0.7,0-1.3,0.1-2c0.1-0.6,0.2-1.2,0.4-1.7
			c0.1-0.3,0.5-0.6,0.8-0.7c0.1-0.1,0.5,0.4,0.7,0.7c0.2,0.3,0.3,0.8,0.5,1.1c0.6,0.7,1.4,0.6,1.7-0.3c0.2-0.6,0.3-1.2,0.2-1.8
			c-0.1-2.5-0.3-5-0.3-7.5c0.1-5,0.2-10.1,0.3-15.1s0.2-9.9,0.3-14.9c0.1-1.5,0.3-2.9,0.3-4.4c0.1-4.8,0.5-9.6,1.3-14.3
			c0.2-1.4,0-2.7-0.8-4L126.4,18.9z M111.7,45.5c-0.8,0.3-1.7,0.5-2.5,0.9c-0.3,0.1-1.1,0.7-1.1,0.7s-0.3,0.4-0.4,0.5
			c-0.6,0.3-1.2,0.8-1.7,0.8c-1.5,0-2.5,0.6-3.2,1.8c-0.2,0.3-0.3,0.6-0.5,0.9c-0.2,0.1-0.5,0.3-0.7,0.2s-0.5-0.4-0.4-0.5
			c0.1-0.6,0.1-1.2,0.3-1.7c1-2.1,2-4.3,3.1-6.4c1.7-3.3,3.6-6.6,5.4-9.8c0.3-0.5,0.5-1.1,1.3-0.9c0.3,0.1,0.7-0.2,1-0.4
			c0.3-0.2,0.5-0.5,0.8-0.7c0.1,0.4,0.2,0.8,0.2,1.2c0,3.8-0.1,7.5,0,11.2C113.3,44.3,112.8,45.1,111.7,45.5z"/>
		<path fill="#FFFFFF" d="M203.8,15.6c-0.4-0.1-0.8-0.3-1.2-0.5c0-0.1,0-0.2-0.1-0.3c0,0,1.2-1.5,0.5-2.3c-0.2-0.1-1.3-0.5-1.4-0.7
			c-0.1-0.6-0.2-1.2-0.3-1.8c-0.1-0.9-0.7-1.2-1.5-1c-0.3,0.2-0.5,0.4-0.8,0.6h-0.1l-1.3-0.1c-0.9,0.3-0.5,0.7-1.5,1.1
			c-0.2,0.1-0.4,0.3-0.6,0.5c-0.6,0.5-1.1,0.9-1.9,1.9s-1.7,2.8-2.2,3.8s-2.7,6.8-2.8,6.8c-0.2,0.1-3.9,8.4-5.2,11.2
			c-0.9,2.1-2.2,4.7-3.1,7.3s-1.8,6.6-2.1,6.8c-0.1,0.2-0.1,0.3-0.2,0.5c-0.1,0.3-0.2,0.5-0.3,0.8s-0.1,0.5-0.1,0.8
			c-0.3,1.5-0.7,3.5-0.9,4.4s-0.9,1.9-1.3,2.9c-0.3,1.9-0.6,3.8-0.8,5.8c-0.2,1.5-0.2,2.9-0.3,4.4c0.1,0.5,0.1,1.1,0.2,1.6
			c0.3,0.9,0.3,1.4,0.8,2.9s2.5,2.8,2.5,2.8c2.4,1.3,6.4,1.3,8.2,0.1c1.8-1.3,3.1-2.1,3.8-2.7c0.8-0.7,4.8-3.8,6.6-5.9
			c1.9-2.1,2.5-3.1,3.1-3.6c0.3,0.9,0,1.8-0.6,2.5c-0.1,0.3-0.3,0.7-0.4,1.1c-0.1,1.7-0.3,3.4-0.3,5c0,2.2,0.9,6.9,3.2,7.4
			c2.3,0.4,2.7,0.4,4.1-0.3c1.1-0.5,2.3-0.8,3.5-1.1c0.9-0.2,1.1,0.2,0.8,1c-0.4,0.9-0.9,1.8-1.4,2.7c-2.1,3.5-4.1,7-6.2,10.5
			c-0.8,1.4-0.3,1.6,0.7,1.6c0.2,0-0.2,1.1-0.2,1.5c0.1,1.2,0.7,1.5,1.7,0.9c0.6-0.4,1-1.1,1.4-1.7s0.7-1.3,1.1-1.9
			c0.1-0.1,0.7-0.1,0.8,0.1c0.3,0.4-0.1,1.3,0.7,1.1c0.4-0.1,0.7-0.7,1.1-1.1c0.2-0.3,0.4-0.5,0.6-0.8c0.3-0.5,0.7-0.6,1.1,0
			c0.4,0.7,0.9,0.5,1.3,0.1c0.6-0.7,1.3-1.4,1.7-2.3c1.2-2.2,2.3-4.4,3.4-6.7c0.4-0.8,0.8-1.4,1.8-1.1c0.9,0.2,1.2-0.2,1.5-0.9
			c0.4-1.1,0.8-2.1,1.3-3.1c1.8-3.4,3.7-6.6,5.6-9.9c1.5-2.7,2.9-5.3,4.4-8c0.8-1.4,1.4-2.9,2.4-4.3c1.3-1.7,3.7-2.1,4.4-2
			s1.5-0.4,1.9-0.7c0.3-0.3,0.4-0.3,0.9-0.6s0.8-0.6,1.1-0.7c0.3-0.2,3.9-1.6,4.6-2.3c1.5-1.4,3.8-2.3,5.8-2.4
			c0.2,0.9,0.3,1.9,0.3,2.9c0,2.1,0,4.3-0.1,6.4c0,0.3,0,0.5-0.1,0.9c-0.5,1.4,0.1,2.6,0.4,3.9c0.2,0.6,0.3,1.4,0.1,1.9
			c-0.7,1.7-0.4,3.5-0.3,5.2c0,0.7,0.3,1.4,1.2,1.3c0.7-0.1,0.9,0.3,0.9,0.9c0.1,1.2,0.3,2.4,0.5,3.6c0.1,1.1,0.3,2.3,0.5,3.4
			c0.1,0.6,0.3,1.1,1.1,1.3c1.1,0.5,1.2,0.6,0.6,1.7c-0.3,0.7-0.7,1.2,0,1.8c1.1,1,1.1,2.1,0.3,3.3c-0.5,0.7-0.4,1.3,0.5,1.5
			c0.8,0.2,0.9,0.8,0.9,1.4c0.1,0.5,0,0.9-0.1,1.4c-0.1,0.7,0.1,1.1,0.9,1.1c0.6,0,0.8-0.4,0.8-0.9c0.1-2.9,0.3-6,0.5-8.9
			c0.1-1.3,0.6-4.3,0.7-4.5c0.1-1.3,0.5-4.3,0.5-4.6c0.1-3.3,0.4-11.6,0.6-14.7s1.1-17.4,1.2-19.6c-0.1-0.1,1.8-13.7,2.4-16.8
			s0.6-5.8,0.5-6.2c-0.1-0.3-1.4-0.7-2.1-0.8c-1.5-0.3-3-0.3-4.6-0.5c-1-0.1-0.8-1.3-0.9-1.5s-3.3-1.1-4-0.8s-0.8,3.4-0.9,4.8
			c-0.4,0.7-0.8,1.3-1.2,2.1c-0.3,0.3-0.6,0.5-0.9,0.8c-0.1,0.1-0.3,0.3-0.3,0.3c-0.8,0.5-1.6,1-2.3,1.5c-1.1,1.2-2.3,2.4-3.4,3.6
			c-0.1,0.1-0.7,0.8-0.8,1c-0.6,0.9-2.1,2.7-2.1,2.8c-0.2,0.3-0.5,0.6-0.7,0.9c0,0-0.5,0.2-0.6,0.3c-0.9,1.7-1.9,3.6-2.9,5.3
			c0,0-0.7,0.3-1.1,0.5c-0.3,0.3-0.6,0.5-0.9,0.7c-0.1,0.1-2.1,2.6-3.1,3.7c-0.2,0.2-0.6,1-0.6,1.1c-1.4,0.6-1.2,2.7-1.4,3
			s-1.1,0.7-1.4,1.1c-0.7,1.3-1.5,3.7-1.9,4.1c-0.3,0.4-0.8,0.9-1.1,1.1c-0.2,0.1-0.4,0.1-0.6,0.3c-0.9,0.1-1.3,1.3-1.4,1.5
			c-0.1,0.3-0.4,0.3-0.7,0.4c-0.1,0.1-0.3,0.2-0.5,0.3l0,0c-0.3,0.1-0.6,0.3-0.9,0.4c-1.9,1.2-4,2.3-5.9,3.6
			c-0.1,0.1-0.3,0.5-0.3,0.7c0.7,1.3,0.3,2.3-0.7,3.3c-0.1,0.1-0.1,0.3-0.1,0.3c0.1,0.1,0.4,0.3,0.5,0.2c0.8-0.3,1.7-0.6,2.5-0.9
			c0.3-0.1,0.9-0.1,0.9,0.1c0.1,0.3,0.2,0.7,0.1,1.1c-0.1,0.4-0.4,0.7-0.6,1c-0.8,1.2-2.8,3.8-2.9,4c-1.1,1.5-2.2,3.1-3.3,4.6
			c-0.7,0.9-1.4,1.3-2.4,0.6c-0.7-0.5-1.5-1.2-2.1-1.7c-0.1-0.4-0.1-0.8-0.1-1.3c0.3-1.6,0.4-3.1,1.1-4.7c1.1-2.1,1.7-4.5,2.5-6.8
			c0.9-2.5,1.7-5,2.5-7.4c0.4-1.3,0.9-2.5,1.3-3.8c1.4-2.9,2.9-5.7,4.3-8.6c0.7-1.5,1.4-3.1,2.1-4.6c0.1,0,0.1-0.1,0.1-0.2
			c1.3-2.4,2.6-4.8,3.8-7.4c0.4-0.9,0.3-2.1,0.2-3.2c-0.1-0.5-0.9-0.9-1.4-1.3s-0.5-0.8-0.1-1.3c0.7-1.2,0.7-1.9-0.1-2.9
			c-0.7-0.8-1.5-0.9-2.4-0.9c-1.1,0.1-2.2,0-3.4-0.3c-0.9-0.3-2.3-0.7-3.1,0.5l-0.1,0.1c-0.3,0.6-5.4,9.3-5.6,9.8l-1.4,2.2
			c-0.3,0.5,0.5,1.4,0.3,1.9s-0.6-0.2-1.3,0.5c-0.1,0-0.6,2-1.1,3.9c-0.1,0.1,0.6,0.3,0.5,0.5s-0.7,0.7-0.7,0.9
			c-0.3,1.3-0.7,2.5-1.1,3.9c-0.1,0.3,0.1,0.3,0,0.5c-0.1,0.3-0.3,0.1-0.4,0.3c-0.3,1.3-0.7,3.1-0.9,3.6c-0.1,0.1,0.1,0.3,0.1,0.5
			c-0.1,0.2-0.4,0.5-0.5,0.7c-0.9,2.7-1.8,5.4-2.7,8.2c-0.1,0.2-0.1,0.4-0.2,0.5c-0.7,0.9-1.3,1.8-2,2.7c-0.4,0.3-0.7,0.7-1.1,1
			c0,0.1,0,0.1,0,0.2c0-0.1,0-0.1,0-0.2c-0.3,0.3-0.6,0.7-0.9,1c-0.2,0.1-0.4,0.3-0.6,0.5c-0.1,0-0.2,0.1-0.3,0.3
			c-0.1,0.1-0.3,0.3-0.5,0.5c0,0,0,0,0-0.1c-0.5,0.5-0.9,0.9-1.3,1.3c0.1,0,0.2,0,0.3,0c-0.1,0-0.2,0-0.3,0
			c-0.2,0.1-0.4,0.3-0.5,0.5c-0.2,0.3-0.5,0.5-0.7,0.7c-0.1,0.1-0.7,0.6-1,0.8c-0.1,0.1-0.3,0.1-0.3,0.2c-3,2.3-6,4.6-9,6.8
			c-0.3,0.1-0.3,0.1-0.7,0.3c-0.5,0.1-1.9-0.1-1.9-0.7s0.5-4,1-6c1.1-4,2.5-7.8,4.4-11.5c0.7-1.4,1.5-3.4,2.1-4.3s1.9-2.6,2.3-3.6
			c0.5-0.9,0.7-2.6,1.3-3.8c1.1-2.1,2.3-4.2,3.7-6.3c0.9-1.3,1.5-2.6,1.7-4.3c0.1-1.1,0.5-2.2,0.8-2.5c0.3-0.4,0.9-0.9,1-1.1
			c0.8-1.6,1.6-3.3,2.3-4.9c0,0,1.6-2.6,2.3-4C205.5,16.4,205.4,16.4,203.8,15.6 M199.7,58.3L199.7,58.3L199.7,58.3z M212.3,26.2
			L212.3,26.2L212.3,26.2L212.3,26.2L212.3,26.2z M253,33c-0.4,1.1-0.7,2-0.7,3.1c0.1,0.5-0.1,1.1-0.3,1.6c-0.2,0.7-0.6,1-1.3,0.9
			c-1.9-0.2-3.3,0.9-4.6,2.2c-0.3,0.3-0.6,0.6-0.9,0.7c-0.7,0.3-1.5,0.5-2.3,0.7c0.1-0.7,0.3-1.4,0.5-2.1c0.4-0.9,0.8-1.9,1.3-2.7
			c2.2-3,4.4-6,6.7-8.9c1-1.3,0.8,0,1.3,0.1c0.1,0,0.5-0.6,0.6-0.6c0.1,0.1,0.2,0.2,0.3,0.3s0.1,0.3,0.1,0.4c0.1,0.3,0.1,0.7,0.1,1
			c-0.1,0.7-0.3,1.3-0.6,2C253.3,32.3,253.1,32.7,253,33z"/>
		<path fill="#FFFFFF" d="M302.5,54.4c0.6,0.2,2,0.6,3.1,0.8c1.3,0.3,2.4,0.9,3.3,1.9c1.1,1.3,2.4,2.5,3.6,3.8
			c0.3,0.3,0.6,0.6,0.7,0.9c1,2.3,2.3,4.4,5,5.2c0.5,0.2,1,0.7,1.5,1.1c0.3,0.3,0.7,0.7,1,0.9c1.6,1,3.2,2,4.8,3
			c1.1,0.7,2.1,1.7,3.1,2.5c0.1,0.1,0.3,0.2,0.4,0.3c0.9,0.8,1.9,1.7,2.8,2.5c5.6,5.6,11,11.5,18,15.5c0.5,0.3,1.1,0.7,1.6,1
			c0.4,0.2,0.7,0.5,1.1,0.7c0.3,0.3,0.6,0.5,0.9,0.7c1.6,1.2,3.3,2.4,4.8,3.7c2.6,2.1,5.2,4.4,7.8,6.5c0.8,0.7,8.2,5.7,9.1,6.3
			c0.1,0.1,2.3,0.7,0.5-0.8c-1.1-0.9-6.5-4.2-6.5-4.3c-1.5-1.3-3.5-2.4-5-3.8c-2-1.8-4-3.6-6-5.4c-2.4-2.1-4.4-4.8-7.4-6.2
			c-0.3-0.1-0.7-0.5-0.9-0.8c-1.4-2.5-3.7-4.3-5.8-6.2c-1.4-1.3-3.3-2.2-4.8-3.4c-2-1.5-3.9-3.1-5.8-4.7c-0.2-0.2-0.3-0.3-0.5-0.5
			c-0.9-0.8-1.7-1.6-2.6-2.3c-1.5-1.1-3-2.3-4.6-3.4c-0.7-0.5-1.4-0.8-2.1-1.3c-0.2-0.1-0.7-0.4-0.1-0.7c1-0.5,0.4-0.7-0.1-1.1
			c-2.7-2.1-5.4-4.2-7.7-6.8c-0.9-1-2.1-1.5-3.3-2.3c-0.4-0.3-0.8-0.5-1.1-0.9c-1.5-1.7-2.3-4-4.4-5.3c-0.2-0.1-0.3-0.5-0.4-0.7
			s0-0.5,0-0.7c0.3,0,0.6-0.1,0.7,0.1c0.7,0.6,1.3,1.3,2.1,1.9c0.4,0.3,0.8,0.8,1.3,0.9c0.9,0.1,1.5,0.4,1.8,1.3
			c0.1,0.4,0.7,0.6,1.1,0.9c1.1,0.7,2.3,1.5,3.4,2.3c0.6,0.5,1.1,1.1,1.9,0.5c0.2-0.1,0.7,0.1,0.9,0.3c2.2,2.4,4.4,4.8,6.6,7.2
			c1,1.1,1.8,2.3,3.2,3c0.7,0.3,1.5,0.8,2.1,1.4c1.1,1.1,2,2.1,2.9,3.4c1,1.3,2.3,2.3,4,2.7c0.5,0.3,0.9,0.7,1.3,0.9
			c0.6,0.5,1.2,0.9,1.7,1.3c1.5,1.1,3.1,2.3,4.7,3.5c0.3,0.2,0.5,0.5,0.8,0.7c0.1,0.1,0.3,0.3,0.5,0.4c0.3,0.2,0.5,0.4,0.7,0.6
			c0.1,0.1,0.3,0.1,0.4,0.3c1.9,1.5,3.8,3,5.7,4.6c2.5,2.1,5,4.2,7.4,6.3c1.9,1.5,4,2.8,5.6,4.7c0.2,0.3,0.5,0.5,0.8,0.5
			c0.5,0.1,1.2,0.2,1.5-0.1c0.5-0.5,0.1-0.9-0.4-1.3c-0.7-0.7-1.6-1.3-2-2.2c-0.4-0.8-0.9-1.3-1.7-1.5c-3.2-1.1-5.5-3.4-7.8-5.6
			c-2-1.9-4.1-3.8-6.1-5.6c-0.6-0.5-1.1-1.1-1.7-1.6c-0.1-0.1-0.3-0.3-0.4-0.4c-0.3-0.3-0.6-0.6-0.9-0.9c-0.2-0.3-0.5-0.5-0.7-0.7
			c-0.8-0.7-1.5-1.5-2.4-2.1c-1.3-0.9-2.7-1.7-4-2.7s-2.5-2.1-3.4-3.4c-1.1-1.5-2.1-2.9-4.1-3.3c-0.4-0.1-0.7-0.4-1.1-0.6
			c-1.9-1-3.1-2.7-4.6-4.3c-1.3-1.5-2.5-3.1-3.8-4.8c-0.1-0.1-0.3-0.3-0.5-0.5c-0.7-0.9-1.3-1.9-2.1-2.7c-1.1-1.1-2.4-1.9-3.6-2.9
			c-1.1-0.9-1.1-1.3,0.1-2.1c0.7-0.4,1.5-0.6,2.2-1.1c4.2-2.6,8.2-5.5,11.1-9.6c0.9-1.4,1.9-2.7,2.5-4.3c1.2-2.7,1.4-5.7,1.1-8.7
			c-0.3-3.1-1.3-5.6-3.3-7.8c0-0.1-1-1.1-1.1-1.2c-0.4-0.4-1.3-1.1-3.8-3s-6-3.8-9.1-4.2s-7.4,0.2-9.2,0.4c-0.3,0-0.7,0.2-0.9,0.4
			c-0.9,1.1-2.1,1.3-3.4,1.7c-1,0-2-0.1-3-0.1c-1.1,0.1-2.1,0.2-3.1,0.3c-0.4,0-1.3,0.1-1.5,0.2c-0.5,0.1-2.2,0.5-2.5,0.6
			c-1.9,0.9-7.1,2.8-8.2,3.2c-1.1,0.4-1.5,0.4-3,0.7c-0.7,0.1-1.4,0.6-2,1l-0.2,0.1c-0.7,0.3-1.4,0.7-2.1,1.1
			c-0.4,0.3-0.8,0.5-1.1,0.7c-0.7,0.3-1.4,0.6-2.1,0.9c-0.3,0.1-0.8,0.2-1.2,0.4c-0.3,0.2-1.3,1.1-1.4,1.6s-0.2,0.8-0.3,1.2
			c-0.1,0.3-0.2,0.7-0.3,0.9l-0.1,0.1c-0.2,0.5-1,0.7-1.4,0.9c-0.6,0.3-1.4,0.5-1.9,0.9s-0.6,1-0.8,1.5c-0.2,0.4-0.1,1.1,0.1,1.5
			s0.9,1.1,1.3,1.2c0.5,0.1,1.2,0.1,1.4,0.2c0.2,0.1,0.9,0.9,0.9,1.2c-0.1,0.3,0.2,1.1,0.9,1.4c0.5,0.1,0.9,0.1,1.4,0.2
			c0.5,0,0.9,0.1,1.4,0.1c0.1,0.1,0.2,0.3,0.3,0.4c0.2,0.6,0.5,1.1,1.3,0.9c0.5,0,1.6,0.2,2.7,0s1.6-0.6,2.4-1s1.5-1,2.3-1.5
			c0.5-0.3,0.9-0.5,0.9,0.3c-0.1,1.6-0.5,3.2-1.4,4.6c-0.1,0.1-0.1,0.3-0.2,0.5c-0.4,2.2-5.3,14.3-6,16.8c-0.7,2.4-1.3,5-1.5,5.4
			c-0.1,0.2-0.1,0.3-0.1,0.5c-0.3,0.8-0.6,1.7-0.7,2.5c-0.1,0.5-0.4,1.9,0,1.7c1.3-0.6,0.5,0.8-0.7,1.6c-0.7,0.1-2.7,4.4-2.9,6.8
			c-0.1,1.4-1.1,3.5-0.7,4c0.1,0.1,0.3,0.3,0.2,0.4c-1,0.4-1.7,4.4-1.7,4.4s0.3,0.2,0.1,0.3c-0.1,0.1-0.2,0.2-0.3,0.3
			c-0.2,0.2-1.3,2.5-1.5,2.9c-0.1,0.1-1.1,2.2-1.2,2.5c-0.7,1-0.9,3.6-0.7,4.8c0.2,0.8,0.3-0.1,0.3,0.7c0,0.2-0.1,0.3-0.1,0.5
			c0,0.4,0.3,2.7,0.6,2.9c0.7,0.3,0.7-0.4,0.9-0.8c0.1-0.1,0.1-0.2,0.3-0.3c-0.1-0.1,0.6-0.8,0.7-0.9c0.1,0.1-0.6,2.1-0.1,1.9
			c0.5-0.1,2-5.2,2.1-5.5c0.3-0.5,0.6-1.1,0.9-1.7c0.3-0.1,0.5-0.1,0.7-0.2c0.3,0.1,0.5,0.1,0.8,0.2c0.1,0.1,0.2,0.3,0.3,0.4
			c0,0.4-0.1,0.8,0.1,1.2c0.1,0.2,0.3,0.3,0.5,0.5c0.1-0.2,0.3-0.3,0.5-0.5c0.1-0.3,0.3-0.6,0.4-0.9c1.3-3.2,2.7-6.4,4.1-9.6
			c0.3-0.7,0.5-1.5,0.8-2.1c0.1-0.1,1.1-1.8,1.3-1.5c0.1,0.2,0.4,0.4,0.4,0.7c0.1,0.4-0.1,0.8-0.1,1.2c0.1,0.3,0.3,0.7,0.5,0.7
			c0.3,0.1,0.6-0.2,0.8-0.4c0.3-0.3,0.5-0.8,0.7-1.3c0.3-1,2-10,4-18.8c2-8.6,4.8-17.8,5-17.8c0.6,0,0.9-0.3,1.1-0.9
			c0.3-1.2,0.5-2.5,0.8-3.7c0.1-0.5,0.3-1,0.4-1.5c0.1-0.3,0.3-0.7,0.4-0.9c0.4-0.8,0.8-1.5,1.3-2.3c0.3-0.6,0.8-0.8,1.1,0.1
			c0.2,0.7,0.7,0.8,0.9,0.2c0.7-1.3,1.4-2.6,1.7-4c0.2-1,0.7-1.5,1.5-1.9c4.9-2.3,9.7-2.1,14.4,0.6c1.9,1.1,2.7,2.6,2.3,4.5
			c-0.4,1.7-1.1,3.4-2.1,4.8c-1.5,2-2.9,4-4.4,6.1c-1.2,1.7-4.1,2-5.6,0.5c-0.7-0.7-1.5-1.4-2.3-2c-0.7-0.5-1.7-0.3-1.9,0.4
			c-0.2,0.7-0.4,1.5,0.3,2.1c0.7,0.6,1.5,1.1,2.1,1.9c0.3,0.4,0.6,1.1,0.5,1.6c-0.1,0.3-0.7,0.8-1.2,0.8c-0.9,0.1-1.7-0.1-2.6-0.2
			c-0.5,0-1.1,0-1.3,0.3c-0.4,0.6-1.1,1.4-1.1,2.1C299.5,52.2,301.9,54.2,302.5,54.4z"/>
		<path fill="#FFFFFF" d="M369.5,112.3c-2.1-1.3-4.3-2.5-6.5-3.8c-1.4-0.8-2.9-1.5-4-2.5c-5.2-4.9-10.3-10-15.5-14.9
			c-2-1.9-4.1-3.8-6.8-4.6c-1.2-0.4-2.3-1-3.5-1.7c-0.7-0.4-1.4-0.9-1.7-1.6c-1.5-2.5-3.9-4-6-5.8c-2.5-1.9-4.1-5-7-6.4
			c-0.2-0.1-0.4-0.3-0.6-0.5c-1.9-2.5-4-4.9-6.4-7c-2.5-2.1-4.5-4.8-7.4-6.6c-0.7-0.4-1.2-1.1-1.7-1.7c-0.1-0.1-1.3-1.2-2-1.6
			c-0.7-0.4-2.5-0.9-3.8-1.3c-1.6-0.5-2.2,0-2.5,1.7c-0.1,0.6-0.1,1.2-0.1,1.8c0,1.3,0.2,1.5,1.5,1.6c0.5,0.1,1.2,0,1.5,0.3
			c0.8,0.8,1.7,0.7,2.7,0.6c0.9-0.1,1.5,0.2,2,0.9c1.1,1.4,2.1,2.8,3.5,3.9c1.7,1.3,3.1,2.9,4.7,4.5c1.7,1.7,3.3,3.8,5.6,5
			c0.9,0.4,1.4,1.5,2.1,2.3s1.3,1.7,2.1,2.4c1.3,1,2.9,1.8,4.3,2.7c0.5,0.4,1.1,0.8,1.5,1.3c1.1,0.9,2.3,1.7,3.1,2.8
			c0.7,0.9,1.5,1.6,2.7,1.9c1.2,0.4,2.4,1.1,3.4,1.9c3,2.5,6,5.2,8.9,7.8c2,1.8,3.9,3.8,6.7,4.4c0.6,0.1,1.1,0.7,1.6,1.1
			c1.1,0.9,2.3,1.9,3.4,2.8c0.3,0.3,0.7,0.5,0.9,0.7c0.1,0.1,0.1,0.2,0.3,0.3c3.2,2.7,7,4.7,10.1,7.6c0.6,0.5,1.8,0.3,2.4,0.9
			c9.9,9.2,10.1,7.1,10.4,7C379.3,120.1,369.7,112.4,369.5,112.3z"/>
		<path fill="#FFFFFF" d="M354.1,110.5c-0.3-1-1-1.4-1.7-1.9c-0.9-0.6-1.9-1.1-2.8-1.6c-1.3-0.8-2.7-1.5-3.3-3.1
			c-0.1-0.5-0.7-1-1.1-1.1c-1.9-0.3-2.9-2.3-4.8-2.4c-0.3,0-0.5-0.5-0.7-0.7c-0.5-0.5-1-0.9-1.5-1.4c-1-1.1-2.7-1.6-3.1-3.2
			c-0.1-0.2-0.7-0.3-1-0.5c-1.9-0.4-3.6-1.4-4.3-3.3c-0.5-1.4-1.5-2.3-2.5-3.4c-0.8-0.9-1.7-1.3-2.9-1.1c-0.9,0.1-1.7-0.1-2.1-1.1
			c-0.2-0.4-0.6-0.7-0.9-1.1c-0.5-0.5-0.9-1-1.3-1.5c-0.1-0.1-0.2-0.3-0.3-0.5c0-0.1-0.1-0.3-0.1-0.3c-0.2-1.2-0.7-2.1-1.8-2.7
			c-1.7-1.4-3.4-2.7-5-4.2c-2.1-2-4.1-4.2-4.8-7.2c-0.2-0.9-0.9-1.8-1.7-2.5c-1.2-1.1-2.6-2-4-2.7c-2.1-1.1-4.2-2.5-6.6-2.9
			c-0.8-0.1-1.5-0.5-2.1,0.4c-0.3,0.5,0.1,0.9,0.5,1.3c0.3,0.2,0.6,0.4,0.9,0.4c1.4,0,2,1,2.4,2.1c0.5,1.5,1.5,2.2,3.1,2.5
			c1.3,0.2,2.7,0.7,3.2,2.1c0.8,2.5,2.5,4.4,4.6,6c1.9,1.5,3.6,3.1,5,5c0.3,0.4,0.5,0.8,0.9,1.1c1.4,1.1,2.8,2.2,4.3,3.4
			c0.1,0.1,0.3,0.3,0.4,0.4c0.4,0.4,0.8,0.8,1.2,1.2c1.1,1.9,2.7,3.1,4.9,3.6c0.3,0.1,0.5,0.2,0.9,0.3c0.5,0.4,1,0.8,1.5,1.3
			c0.7,0.8,1.4,1.7,2.2,2.6c0.5,0.6,1.3,1,1.9,1.5c2.2,1.7,4.4,3.5,6.6,5.1c2.3,1.7,4.7,3.2,7,4.8c1.1,0.7,2.1,1.5,3,2.3
			c1.6,1.5,3.1,2.9,5.2,3.9c0.8,0.4,1.5,1.1,2.2,1.6c0.1,0,9.5,6.4,10.4,7.1c0.5,0.5,4.4,2.9,7.8,5.6c2.5,1.9,4.6,4.1,6,5
			c6.6,4.4,4.1,1.2,4.3,1.2c-0.2-0.3-24.3-17.8-24.5-18.1C358.5,113.3,354.3,111.3,354.1,110.5z"/>
		<path fill="#FFFFFF" d="M282.6,82.5c-0.5,0-1.1,0.4-1.5,0.7c-0.2,0.1-0.3,0.5-0.3,0.7c-0.2,0.8-0.3,1.6-0.5,2.3
			c-0.2,1.1-0.1,2.3-1.2,3.1c-0.5,0.3-0.2,0.9,0.1,1.2c0.4,0.5,0.9,0.3,1.2-0.1c0.5-0.9,1-1.7,1.4-2.7c0.5-1.3,1.3-3.3,1.5-4.1
			C283.6,82.9,282.8,82.5,282.6,82.5z"/>
		<path fill="#FFFFFF" d="M146.3,79.7c2.9,1.2,6.2,1.5,9.4,0.9c1.3-0.3,1.6-0.3,3.8-1.6c2.1-1.3,3.6-4.4,4.1-4.5s1.8-0.3,2.3,0.1
			c0.3,0.2,0.9,1.1,1.7,1.7c0.8,0.7,0,0.6,0.7,1.5c0.6,0.9,1.5-0.1,1.5,0.3c0,0.5,0.3,0.8,1.1,0.8c0.7,0,0.5-2.8,0.4-4.4
			c-0.1-0.9-0.5-4.6-0.4-5.4s0.3-2.1,0.4-3.2c-0.1-1.4,1.1-6,1.3-7c-0.1-0.1,0.9-2.7,1.4-5.3c0.5-2.5,1-5.6,1-6.5
			c0.1-1.5,0.3-4,0.1-4.4c-0.2-0.5-1.1-0.3-1.4-0.1c-0.3,0.2-0.2,0.3-0.3,0.5v0.1c-0.1,0-0.1,0-0.2,0.1c-1.3,0.2-1.9-1.1-2.4-1.2
			c-0.5-0.1-0.9-0.2-1.5-0.1c-0.6,0.1-2.9,2.3-4,2.9c-1.1,0.5-4.8,2.1-6,1.9c-0.1,0.1-0.2,0.1-0.4,0.1c-0.5,0.5-0.9,1.4-1.5,1.5
			c-2.6,0.3-4.2,2.2-6,3.7c-0.3,0.4-0.8,0.8-0.9,1.3c-0.5,1.4-1,2.3-2.5,3.1c-0.1,0.1-0.1,0.3-0.1,0.3c0.1,0.1,0.2,0.1,0.3,0.2
			c0.9,0,1.9-0.7,1.9-0.7s4.4-1.9,6.6-2.9c0.9-0.4,1.9-0.7,2.9-0.1c0.4,0.2,1-0.1,1.5-0.1c0.2-0.1,0.4-0.2,0.6-0.3
			c0.2-0.1,0.4-0.1,0.6-0.1l0.4-0.1c0.3,0.1,0.5,0.1,0.9,0.1c-0.5,1.5-0.7,4.2-0.8,4.7s-0.3,0.7-0.3,1.1c-0.1,0.6-0.3,1.1-0.4,1.7
			c-0.3,1.9-0.7,3.8-0.7,5.8c-0.1,1.2,0.7,3,1,3.5c0.4,0.5,0.8,1.1,0.1,1.6s-1.1,1-1.7,1.5c-0.7,0.3-2.1,1.3-4.2,1.7
			c-2.1,0.3-3.9,0.3-6.8-1.1c-2.9-1.3-5.3-3.7-7-5.2c-1.6-1.5-4-7.1-4.2-9.6c-0.1-2.5,0.1-5.2,0.1-6.2c0.1-1,0.7-4.5,1.6-6.9
			c0.9-2.4,3.6-5.8,4-6.2c1.4-1.3,2.8-2.7,4.2-4.1c1.6-1.2,4.1-3.4,7.7-5.4c0.8-0.4,5.3-2.9,8.7-3.2c1-0.1,1.9-0.5,2.9-0.8
			c0.9-0.3,1.3-0.9,0.9-1.9c-0.3-0.7-0.3-1.3,0.5-1.5c0.9-0.3,0.1-1.7-0.3-1.6c-0.5,0.1-0.9,0.3-1.7-0.1c-0.7-0.5-1.4-1.5-1.6-2.7
			c-0.1-0.5,0.7-0.5,0.2-1.2s-1.5-0.3-1.9-0.6c-0.1-0.1-0.3-0.1-0.4-0.1c-0.5-0.1-1.1-0.1-1.6-0.2c-0.1-0.1-0.1-0.1-0.3-0.2
			c-0.5-0.6-1.1-0.7-2-0.6c-2.5,0.2-4.7,1.1-7.1,1.7c-0.9,0.3-1.7,0.6-2.5,0.9c-0.3,0.3-0.7,0.6-1.1,0.9c-1,0.7-2,1.3-3,2.1
			c-0.1,0.1-0.3,0.3-0.3,0.4l-0.1,0.1c-0.3,0.4-0.6,0.8-0.9,1.2c-0.1,0.1-0.2,0.3-0.3,0.4c-0.3,0.3-0.5,0.5-0.8,0.8
			c-0.1,0.1-0.3,0.3-0.4,0.4c-0.3,0.1-0.5,0.3-0.7,0.5l0,0c-0.1,0.3-0.3,0.5-0.5,0.8v0.1c-0.2,0.2-0.4,0.5-0.7,0.7
			c-0.2,0.2-0.4,0.5-0.5,0.7s-0.3,0.3-0.4,0.5c-0.1,0.1-0.3,0.2-0.4,0.3c-0.3,0.3-0.5,0.6-0.7,0.9l-0.1,0.1
			c-0.3,0.4-0.6,0.7-0.9,1.1c-0.1,0.2-0.2,0.3-0.3,0.5c-0.5,0.8-0.9,1.6-1.5,2.4c-0.1,0.1-0.2,0.1-0.2,0.3c-0.1,0.3-0.3,0.6-0.4,0.9
			c-0.1,0.3-0.3,0.5-0.4,0.7l0,0c-1.4,1.1-2.1,2.5-2.5,4.2c-0.1,0.1-0.2,0.3-0.3,0.3c-0.1,0.4-0.3,0.9-0.5,1.3
			c-0.3,0.7-0.5,1.3-0.7,2c-1.5,2.7-1.9,5.8-2.1,8.7c-0.3,3.9-0.2,7.8,0.7,11.7c0.3,1.3,2.5,6.2,3.6,7.8c1.1,1.7,4,4.9,5.8,6.2
			C141.6,77.5,143.3,78.5,146.3,79.7z"/>
		<path fill="#FFFFFF" d="M378.8,104.9c-1.9-1.3-3.8-2.7-5.6-4c-0.4-0.3-0.7-1.1-1.2-0.5c-0.2,0.2,0.1,1,0.3,1.5
			c0.1,0.3,0.5,0.6,0.9,0.9c1.9,1.4,4,2.9,6,4.2c0.5,0.3,1.3,0.5,1.9,0.7c0.1,0,0.3-0.1,0.5-0.3c-0.2-0.2-0.3-0.4-0.5-0.5
			C380.3,106.1,379.6,105.5,378.8,104.9z"/>
		<path fill="#FFFFFF" d="M392,113.2c-0.1-0.1-2.7-1.5-2.9-1.7c-0.5-0.4-0.9-0.3-1.5-0.7c-1.1-0.7-2.1-1.6-3.1-2.4
			c-0.5-0.4-1.3-0.7-1.5,0.1c-0.1,0.5,0.1,1.2,0.6,1.5c0.2,0.1,0.3,0.2,0.5,0.3c1.1,0.5,2.1,1.1,3.1,1.6c0.5,0.3,7.2,5,8.3,4.8
			c1.1-0.2,0.1-1.5,0.1-1.5S392.2,113.4,392,113.2z"/>
	</g>
	<path fill="#FFFFFF" d="M378.4,113.7c0,0,4.8,3.2,6.5,4.1c1.8,0.8,2.8,1.5,2.2,0.5c-0.6-0.9,0-0.7-2-1.9c-2-1.1-3.1-1.6-4-2.5
		s-2.7-1.7-2.7-1C378.4,113.5,378.4,113.7,378.4,113.7z"/>
	<path fill="#FFFFFF" d="M382.5,124.2c2,1.1,2.9,2.1,2.3,0.3c-0.7-1.8-1.8-1.5-3.3-2.2s-1.5,0-1.2,0.4L382.5,124.2z"/>
</g>
</svg>
