<?xml version="1.0" encoding="UTF-8" standalone="no"?>
<!-- Generator: Adobe Illustrator 21.1.0, SVG Export Plug-In . SVG Version: 6.00 Build 0)  -->

<svg
   xmlns:dc="http://purl.org/dc/elements/1.1/"
   xmlns:cc="http://creativecommons.org/ns#"
   xmlns:rdf="http://www.w3.org/1999/02/22-rdf-syntax-ns#"
   xmlns:svg="http://www.w3.org/2000/svg"
   xmlns="http://www.w3.org/2000/svg"
   xmlns:sodipodi="http://sodipodi.sourceforge.net/DTD/sodipodi-0.dtd"
   xmlns:inkscape="http://www.inkscape.org/namespaces/inkscape"
   version="1.0"
   id="Ebene_1"
   x="0px"
   y="0px"
   width="379.81622"
   height="131.72372"
   viewBox="0 0 379.81622 131.72372"
   enable-background="new 0 0 412.5 136.6"
   xml:space="preserve"
   sodipodi:docname="atarijaguar.svg"
   inkscape:version="0.92.2 (unknown)"><metadata
     id="metadata37"><rdf:RDF><cc:Work
         rdf:about=""><dc:format>image/svg+xml</dc:format><dc:type
           rdf:resource="http://purl.org/dc/dcmitype/StillImage" /><dc:title></dc:title></cc:Work></rdf:RDF></metadata><defs
     id="defs35" /><sodipodi:namedview
     pagecolor="#ffffff"
     bordercolor="#666666"
     borderopacity="1"
     objecttolerance="10"
     gridtolerance="10"
     guidetolerance="10"
     inkscape:pageopacity="0"
     inkscape:pageshadow="2"
     inkscape:window-width="698"
     inkscape:window-height="480"
     id="namedview33"
     showgrid="false"
     fit-margin-top="0"
     fit-margin-left="0"
     fit-margin-right="0"
     fit-margin-bottom="0"
     inkscape:zoom="0.66181818"
     inkscape:cx="-31.309891"
     inkscape:cy="64.723742"
     inkscape:window-x="0"
     inkscape:window-y="0"
     inkscape:window-maximized="0"
     inkscape:current-layer="Ebene_1" /><g
     id="g30"
     transform="translate(-16.2,-1.3)"><g
       id="g24"><path
         d="m 75.7,61 c 1.8,-5.4 3.4,-10.9 5.2,-16.4 0.4,-1.3 0.8,-2.7 1.2,-4 0.1,-0.3 1.5,-5.5 2.1,-7.8 0.7,-2.8 1.4,-5.6 1.7,-8.4 0.2,-1.7 1,-2.7 2.5,-3.1 0.9,-0.3 1.4,-0.7 2.3,-0.8 0.7,-0.1 1.3,-0.3 1.6,-0.9 0.3,-0.6 1.1,-0.9 1.5,-1.5 0.3,-0.4 0.7,-0.9 1.1,-1 1.2,-0.4 2.5,-0.5 3.8,-0.9 1.5,-0.5 3.3,-0.9 4.4,-1.9 1.1,-1.1 2.2,-1.6 3.7,-1.7 1.3,-0.1 2.5,-0.6 2.9,-2.1 0.3,-0.9 0.9,-1.3 1.6,-1.7 0.6,-0.1 0.9,-0.4 1.1,-1.1 0.1,-0.7 -2.7,-0.3 -2.9,-0.5 -0.9,-0.9 -0.8,-1.1 0.3,-1.5 0.7,-0.3 1.5,-0.3 2.3,-0.5 0.5,-0.1 0.9,-0.2 1.4,-0.3 1.1,-0.1 2.2,-0.3 3.4,-0.5 1.9,-0.2 3.9,-0.4 5.8,-0.7 0.5,-0.1 0.9,-0.2 1.3,-0.5 0.3,-0.2 0.8,-1 0.8,-1.4 0,-0.4 -0.7,-0.5 -1.1,-0.5 -1.5,0.1 -3.1,0.1 -4.6,0.4 -2.4,0.3 -4.8,0.7 -7.2,1.2 -2,0.3 -4,0.8 -5.9,1.2 -0.3,0 -3.8,0.9 -4.1,0.9 -0.7,0.2 -1.5,0.3 -2.3,0.5 h -0.1 c -0.7,0.1 -1.5,0.3 -2.2,0.4 -2.3,0.5 -4.6,1 -7,1.4 -1.3,0.3 -2.5,0.5 -3.8,0.8 -1.8,0.4 -3.6,0.7 -5.4,1.1 -4,0.8 -8,1.5 -11.9,2.2 -0.4,0 -14.1,2.5 -21.4,2.7 -1.7,0.1 -3.4,0 -5.1,0 -0.6,0 -1.1,0.1 -1.3,0.7 -0.3,0.9 -0.1,1.1 0.9,1.5 0.5,0.2 0.8,0.5 1.2,0.9 -0.5,0.3 -0.9,0.7 -1.4,0.9 -0.3,0.1 -0.8,0 -1.2,0.1 -0.3,0.1 -0.7,0.1 -0.9,0.3 -1.1,0.8 -0.7,1.8 0.8,2.5 2.1,0.9 2.2,1.4 0.9,3.3 -0.1,0.2 -0.7,0.3 -0.7,0.5 0,0.2 0.5,0.4 0.7,0.5 0.2,0.1 0.5,-0.1 0.7,-0.1 0.3,0.4 0.8,0.7 1,1.1 0.4,0.9 1,1.3 2.1,1.2 2.9,-0.2 5.8,-0.2 8.7,-0.6 3,-0.4 5.9,-1.4 8.9,-1.7 2.5,-0.2 5,-0.7 7.4,-1.1 0.7,-0.1 1.1,0.1 1,0.9 0,0.9 0.1,1.9 -0.1,2.8 -0.2,0.9 -0.7,3.8 -1.1,5.9 -0.6,2.7 -1.5,5.8 -1.5,6 -0.3,0.9 -0.5,1.9 -0.8,2.8 -0.9,2.9 -3.1,10.1 -3.3,10.9 -0.8,3.3 -4.4,11.7 -4.8,12.9 -1.1,2.5 -2.3,5 -3.8,7.4 -1.4,2.3 -3.1,4.6 -4.6,6.8 -1.2,1.7 -4.3,4.8 -4.3,4.8 -4.6,5.2 -9.8,6.3 -9.9,6.4 -3.4,1.2 -6.6,1.1 -10,-0.5 C 25.8,90.5 24.2,89.8 22.9,88.7 21.5,87.6 20,86.2 18.7,85.1 18.3,84.8 18,84.3 17.5,84 c -0.8,-0.4 -1.3,-0.1 -1.3,0.9 0,0.4 0,0.9 0.2,1.2 1.5,2.5 3.1,4.8 5.6,6.4 2.4,1.5 6,3.2 8.4,4.2 2.4,0.9 4.3,1.6 6.2,2 1.9,0.4 5,0.9 7.6,0.1 2.6,-0.8 5.5,-1.9 9.6,-5.3 4,-3.3 12.1,-12.5 15.3,-18.3 1.3,-2.5 2.5,-5 3.8,-7.6 0.9,-2.2 2.1,-4.4 2.8,-6.6 z"
         id="path2"
         inkscape:connector-curvature="0"
         style="fill:#ffffff" /><path
         d="M 196.2,67.5 Z"
         id="path4"
         inkscape:connector-curvature="0"
         style="fill:#ffffff" /><path
         d="m 126.4,18.9 c -0.4,-0.1 -0.8,-0.2 -1.2,-0.3 h -0.1 c -0.1,-1.1 -0.1,-2.3 -0.3,-3.4 -0.1,-0.6 0.1,-1.5 -0.9,-1.6 v 0 c -0.7,-0.5 -2,-0.1 -2,-0.1 0,0 -1.4,0.3 -1.7,1 -0.9,0.1 -1.7,0.3 -2.6,0.3 -2.9,0 -2.9,0 -4,2.7 -0.1,0.3 -0.4,0.6 -0.6,0.9 -0.3,-0.3 -0.7,-0.5 -0.7,-0.9 -0.2,-1.1 -0.9,-1.3 -1.8,-1.2 -0.9,0.1 -0.9,0.7 -1.1,1.4 -0.5,1.7 -0.9,3.4 -2.4,4.6 -1.8,1.3 -2.5,3.3 -3.1,5.3 -0.5,1.5 -0.6,3.2 -2.1,4.2 -0.2,0.1 -0.4,1.1 -0.3,1.3 -1.3,1.7 -5.2,7.4 -5.7,8.6 -0.6,1.3 -1.3,2.5 -1.7,3.8 -0.3,1.1 -0.5,2 -1.3,2.8 -1.5,0.8 -1.1,2.3 -1.3,3.6 -0.3,0.4 -0.5,0.8 -0.7,1.2 -0.2,0.3 -0.4,0.5 -0.5,0.8 -0.1,0.1 -0.2,0.2 -0.3,0.3 -0.3,0.3 -0.3,0.7 -0.7,0.9 -0.5,0.2 -2.1,0.8 -3.3,1.1 -1.7,0.5 -2,0.7 -2,1.6 0.1,1.2 1,1.3 1.9,1.3 0.7,0.1 0.9,0.5 0.7,1.1 -0.9,1.9 -1.7,3.8 -2.7,5.6 -2.3,4.4 -7,13.4 -7.1,13.6 -0.5,1.1 -0.9,2.2 -1.3,3.3 0,0.1 0,0.3 0,0.4 -0.2,0.3 -0.3,0.5 -0.5,0.7 -0.1,0.1 -0.2,0.3 -0.3,0.5 0,0.1 -0.1,0.3 -0.1,0.4 -0.5,0.9 -1.2,1.7 -1.4,2.7 -0.2,1.1 -0.6,1.9 -1.3,2.7 -1.4,1.5 -0.9,3.3 -0.5,5 0.1,0.5 0.6,0.6 0.9,0.3 0.5,-0.6 0.9,-1.3 1.3,-2 0.4,-0.8 0.6,-1.6 1,-2.4 0.1,-0.2 0.5,-0.4 0.8,-0.4 0.2,0 0.5,0.5 0.4,0.7 -0.2,0.7 -0.6,1.5 -0.8,2.2 -0.1,0.2 -0.1,0.6 0.1,0.7 0.2,0.1 0.5,-0.1 0.7,-0.3 0.5,-1 0.9,-2.1 1.4,-3.1 0.9,-1.8 1.7,-3.6 2.6,-5.4 0.1,-0.2 0.5,-0.4 0.6,-0.3 0.2,0.1 0.3,0.4 0.4,0.6 0.1,0.2 0.1,0.4 0,0.6 -0.3,2.1 -0.7,4.2 -1.1,6.3 0,0.1 0.1,0.3 0.1,0.3 0.2,0 0.5,0 0.5,-0.1 0.2,-0.3 0.3,-0.7 0.5,-1.1 0.6,-1.6 0.7,-3.5 2.4,-4.6 0.3,-0.2 0.6,-0.7 0.6,-1 0,-1.5 3.5,-9 4,-9.9 v 0 c 0.3,-0.8 4.3,-9 5.1,-11.1 0.1,-0.3 1.3,-3 1.5,-3.1 0.5,-1.2 1.1,-2.4 1.7,-3.7 0.9,-0.4 1.7,-0.9 2.5,-1.2 4.4,-1.7 14.9,-6 15.4,-5.9 0,0.1 0,1.1 0,1.3 0,0.3 0,0.5 0,0.8 0,1.9 -0.1,3.8 0,5.6 0,1.5 0.4,6.3 0.3,7.2 -0.2,1.4 -0.2,2.7 0.4,4.2 0.6,1.3 0.9,2.7 0.5,4.2 v 0.1 c 0,0.5 0,1.1 0,1.7 v 0 c 0.1,1 0.1,2 0.9,2.8 0.5,0.5 1,0.7 1.5,0.1 0.3,-0.5 0.5,-0.4 0.9,0 0.9,1 1.4,2.1 1.1,3.6 -0.1,0.5 0.1,1 0.3,1.5 0.1,0.3 0.3,0.7 0.8,0.5 0.5,-0.2 0.5,-0.7 0.5,-1 0.1,-0.7 0,-1.3 0.1,-2 0.1,-0.6 0.2,-1.2 0.4,-1.7 0.1,-0.3 0.5,-0.6 0.8,-0.7 0.1,-0.1 0.5,0.4 0.7,0.7 0.2,0.3 0.3,0.8 0.5,1.1 0.6,0.7 1.4,0.6 1.7,-0.3 0.2,-0.6 0.3,-1.2 0.2,-1.8 -0.1,-2.5 -0.3,-5 -0.3,-7.5 0.1,-5 0.2,-10.1 0.3,-15.1 0.1,-5 0.2,-9.9 0.3,-14.9 0.1,-1.5 0.3,-2.9 0.3,-4.4 0.1,-4.8 0.5,-9.6 1.3,-14.3 0.2,-1.4 0,-2.7 -0.8,-4 z m -14.7,26.6 c -0.8,0.3 -1.7,0.5 -2.5,0.9 -0.3,0.1 -1.1,0.7 -1.1,0.7 0,0 -0.3,0.4 -0.4,0.5 -0.6,0.3 -1.2,0.8 -1.7,0.8 -1.5,0 -2.5,0.6 -3.2,1.8 -0.2,0.3 -0.3,0.6 -0.5,0.9 -0.2,0.1 -0.5,0.3 -0.7,0.2 -0.2,-0.1 -0.5,-0.4 -0.4,-0.5 0.1,-0.6 0.1,-1.2 0.3,-1.7 1,-2.1 2,-4.3 3.1,-6.4 1.7,-3.3 3.6,-6.6 5.4,-9.8 0.3,-0.5 0.5,-1.1 1.3,-0.9 0.3,0.1 0.7,-0.2 1,-0.4 0.3,-0.2 0.5,-0.5 0.8,-0.7 0.1,0.4 0.2,0.8 0.2,1.2 0,3.8 -0.1,7.5 0,11.2 0,1 -0.5,1.8 -1.6,2.2 z"
         id="path6"
         inkscape:connector-curvature="0"
         style="fill:#ffffff" /><path
         d="m 203.8,15.6 c -0.4,-0.1 -0.8,-0.3 -1.2,-0.5 0,-0.1 0,-0.2 -0.1,-0.3 0,0 1.2,-1.5 0.5,-2.3 -0.2,-0.1 -1.3,-0.5 -1.4,-0.7 -0.1,-0.6 -0.2,-1.2 -0.3,-1.8 -0.1,-0.9 -0.7,-1.2 -1.5,-1 -0.3,0.2 -0.5,0.4 -0.8,0.6 h -0.1 l -1.3,-0.1 c -0.9,0.3 -0.5,0.7 -1.5,1.1 -0.2,0.1 -0.4,0.3 -0.6,0.5 -0.6,0.5 -1.1,0.9 -1.9,1.9 -0.8,1 -1.7,2.8 -2.2,3.8 -0.5,1 -2.7,6.8 -2.8,6.8 -0.2,0.1 -3.9,8.4 -5.2,11.2 -0.9,2.1 -2.2,4.7 -3.1,7.3 -0.9,2.6 -1.8,6.6 -2.1,6.8 -0.1,0.2 -0.1,0.3 -0.2,0.5 -0.1,0.3 -0.2,0.5 -0.3,0.8 -0.1,0.3 -0.1,0.5 -0.1,0.8 -0.3,1.5 -0.7,3.5 -0.9,4.4 -0.2,0.9 -0.9,1.9 -1.3,2.9 -0.3,1.9 -0.6,3.8 -0.8,5.8 -0.2,1.5 -0.2,2.9 -0.3,4.4 0.1,0.5 0.1,1.1 0.2,1.6 0.3,0.9 0.3,1.4 0.8,2.9 0.5,1.5 2.5,2.8 2.5,2.8 2.4,1.3 6.4,1.3 8.2,0.1 1.8,-1.3 3.1,-2.1 3.8,-2.7 0.8,-0.7 4.8,-3.8 6.6,-5.9 1.9,-2.1 2.5,-3.1 3.1,-3.6 0.3,0.9 0,1.8 -0.6,2.5 -0.1,0.3 -0.3,0.7 -0.4,1.1 -0.1,1.7 -0.3,3.4 -0.3,5 0,2.2 0.9,6.9 3.2,7.4 2.3,0.4 2.7,0.4 4.1,-0.3 1.1,-0.5 2.3,-0.8 3.5,-1.1 0.9,-0.2 1.1,0.2 0.8,1 -0.4,0.9 -0.9,1.8 -1.4,2.7 -2.1,3.5 -4.1,7 -6.2,10.5 -0.8,1.4 -0.3,1.6 0.7,1.6 0.2,0 -0.2,1.1 -0.2,1.5 0.1,1.2 0.7,1.5 1.7,0.9 0.6,-0.4 1,-1.1 1.4,-1.7 0.4,-0.6 0.7,-1.3 1.1,-1.9 0.1,-0.1 0.7,-0.1 0.8,0.1 0.3,0.4 -0.1,1.3 0.7,1.1 0.4,-0.1 0.7,-0.7 1.1,-1.1 0.2,-0.3 0.4,-0.5 0.6,-0.8 0.3,-0.5 0.7,-0.6 1.1,0 0.4,0.7 0.9,0.5 1.3,0.1 0.6,-0.7 1.3,-1.4 1.7,-2.3 1.2,-2.2 2.3,-4.4 3.4,-6.7 0.4,-0.8 0.8,-1.4 1.8,-1.1 0.9,0.2 1.2,-0.2 1.5,-0.9 0.4,-1.1 0.8,-2.1 1.3,-3.1 1.8,-3.4 3.7,-6.6 5.6,-9.9 1.5,-2.7 2.9,-5.3 4.4,-8 0.8,-1.4 1.4,-2.9 2.4,-4.3 1.3,-1.7 3.7,-2.1 4.4,-2 0.7,0.1 1.5,-0.4 1.9,-0.7 0.3,-0.3 0.4,-0.3 0.9,-0.6 0.5,-0.3 0.8,-0.6 1.1,-0.7 0.3,-0.2 3.9,-1.6 4.6,-2.3 1.5,-1.4 3.8,-2.3 5.8,-2.4 0.2,0.9 0.3,1.9 0.3,2.9 0,2.1 0,4.3 -0.1,6.4 0,0.3 0,0.5 -0.1,0.9 -0.5,1.4 0.1,2.6 0.4,3.9 0.2,0.6 0.3,1.4 0.1,1.9 -0.7,1.7 -0.4,3.5 -0.3,5.2 0,0.7 0.3,1.4 1.2,1.3 0.7,-0.1 0.9,0.3 0.9,0.9 0.1,1.2 0.3,2.4 0.5,3.6 0.1,1.1 0.3,2.3 0.5,3.4 0.1,0.6 0.3,1.1 1.1,1.3 1.1,0.5 1.2,0.6 0.6,1.7 -0.3,0.7 -0.7,1.2 0,1.8 1.1,1 1.1,2.1 0.3,3.3 -0.5,0.7 -0.4,1.3 0.5,1.5 0.8,0.2 0.9,0.8 0.9,1.4 0.1,0.5 0,0.9 -0.1,1.4 -0.1,0.7 0.1,1.1 0.9,1.1 0.6,0 0.8,-0.4 0.8,-0.9 0.1,-2.9 0.3,-6 0.5,-8.9 0.1,-1.3 0.6,-4.3 0.7,-4.5 0.1,-1.3 0.5,-4.3 0.5,-4.6 0.1,-3.3 0.4,-11.6 0.6,-14.7 0.2,-3.1 1.1,-17.4 1.2,-19.6 -0.1,-0.1 1.8,-13.7 2.4,-16.8 0.6,-3.1 0.6,-5.8 0.5,-6.2 -0.1,-0.3 -1.4,-0.7 -2.1,-0.8 -1.5,-0.3 -3,-0.3 -4.6,-0.5 -1,-0.1 -0.8,-1.3 -0.9,-1.5 -0.1,-0.2 -3.3,-1.1 -4,-0.8 -0.7,0.3 -0.8,3.4 -0.9,4.8 -0.4,0.7 -0.8,1.3 -1.2,2.1 -0.3,0.3 -0.6,0.5 -0.9,0.8 -0.1,0.1 -0.3,0.3 -0.3,0.3 -0.8,0.5 -1.6,1 -2.3,1.5 -1.1,1.2 -2.3,2.4 -3.4,3.6 -0.1,0.1 -0.7,0.8 -0.8,1 -0.6,0.9 -2.1,2.7 -2.1,2.8 -0.2,0.3 -0.5,0.6 -0.7,0.9 0,0 -0.5,0.2 -0.6,0.3 -0.9,1.7 -1.9,3.6 -2.9,5.3 0,0 -0.7,0.3 -1.1,0.5 -0.3,0.3 -0.6,0.5 -0.9,0.7 -0.1,0.1 -2.1,2.6 -3.1,3.7 -0.2,0.2 -0.6,1 -0.6,1.1 -1.4,0.6 -1.2,2.7 -1.4,3 -0.2,0.3 -1.1,0.7 -1.4,1.1 -0.7,1.3 -1.5,3.7 -1.9,4.1 -0.3,0.4 -0.8,0.9 -1.1,1.1 -0.2,0.1 -0.4,0.1 -0.6,0.3 -0.9,0.1 -1.3,1.3 -1.4,1.5 -0.1,0.3 -0.4,0.3 -0.7,0.4 -0.1,0.1 -0.3,0.2 -0.5,0.3 v 0 c -0.3,0.1 -0.6,0.3 -0.9,0.4 -1.9,1.2 -4,2.3 -5.9,3.6 -0.1,0.1 -0.3,0.5 -0.3,0.7 0.7,1.3 0.3,2.3 -0.7,3.3 -0.1,0.1 -0.1,0.3 -0.1,0.3 0.1,0.1 0.4,0.3 0.5,0.2 0.8,-0.3 1.7,-0.6 2.5,-0.9 0.3,-0.1 0.9,-0.1 0.9,0.1 0.1,0.3 0.2,0.7 0.1,1.1 -0.1,0.4 -0.4,0.7 -0.6,1 -0.8,1.2 -2.8,3.8 -2.9,4 -1.1,1.5 -2.2,3.1 -3.3,4.6 -0.7,0.9 -1.4,1.3 -2.4,0.6 -0.7,-0.5 -1.5,-1.2 -2.1,-1.7 -0.1,-0.4 -0.1,-0.8 -0.1,-1.3 0.3,-1.6 0.4,-3.1 1.1,-4.7 1.1,-2.1 1.7,-4.5 2.5,-6.8 0.9,-2.5 1.7,-5 2.5,-7.4 0.4,-1.3 0.9,-2.5 1.3,-3.8 1.4,-2.9 2.9,-5.7 4.3,-8.6 0.7,-1.5 1.4,-3.1 2.1,-4.6 0.1,0 0.1,-0.1 0.1,-0.2 1.3,-2.4 2.6,-4.8 3.8,-7.4 0.4,-0.9 0.3,-2.1 0.2,-3.2 -0.1,-0.5 -0.9,-0.9 -1.4,-1.3 -0.5,-0.4 -0.5,-0.8 -0.1,-1.3 0.7,-1.2 0.7,-1.9 -0.1,-2.9 -0.7,-0.8 -1.5,-0.9 -2.4,-0.9 -1.1,0.1 -2.2,0 -3.4,-0.3 -0.9,-0.3 -2.3,-0.7 -3.1,0.5 l -0.1,0.1 c -0.3,0.6 -5.4,9.3 -5.6,9.8 l -1.4,2.2 c -0.3,0.5 0.5,1.4 0.3,1.9 -0.2,0.5 -0.6,-0.2 -1.3,0.5 -0.1,0 -0.6,2 -1.1,3.9 -0.1,0.1 0.6,0.3 0.5,0.5 -0.1,0.2 -0.7,0.7 -0.7,0.9 -0.3,1.3 -0.7,2.5 -1.1,3.9 -0.1,0.3 0.1,0.3 0,0.5 -0.1,0.3 -0.3,0.1 -0.4,0.3 -0.3,1.3 -0.7,3.1 -0.9,3.6 -0.1,0.1 0.1,0.3 0.1,0.5 -0.1,0.2 -0.4,0.5 -0.5,0.7 -0.9,2.7 -1.8,5.4 -2.7,8.2 -0.1,0.2 -0.1,0.4 -0.2,0.5 -0.7,0.9 -1.3,1.8 -2,2.7 -0.4,0.3 -0.7,0.7 -1.1,1 0,0.1 0,0.1 0,0.2 0,-0.1 0,-0.1 0,-0.2 -0.3,0.3 -0.6,0.7 -0.9,1 -0.2,0.1 -0.4,0.3 -0.6,0.5 -0.1,0 -0.2,0.1 -0.3,0.3 -0.1,0.1 -0.3,0.3 -0.5,0.5 0,0 0,0 0,-0.1 -0.5,0.5 -0.9,0.9 -1.3,1.3 0.1,0 0.2,0 0.3,0 -0.1,0 -0.2,0 -0.3,0 -0.2,0.1 -0.4,0.3 -0.5,0.5 -0.2,0.3 -0.5,0.5 -0.7,0.7 -0.1,0.1 -0.7,0.6 -1,0.8 -0.1,0.1 -0.3,0.1 -0.3,0.2 -3,2.3 -6,4.6 -9,6.8 -0.3,0.1 -0.3,0.1 -0.7,0.3 -0.5,0.1 -1.9,-0.1 -1.9,-0.7 0,-0.6 0.5,-4 1,-6 1.1,-4 2.5,-7.8 4.4,-11.5 0.7,-1.4 1.5,-3.4 2.1,-4.3 0.6,-0.9 1.9,-2.6 2.3,-3.6 0.5,-0.9 0.7,-2.6 1.3,-3.8 1.1,-2.1 2.3,-4.2 3.7,-6.3 0.9,-1.3 1.5,-2.6 1.7,-4.3 0.1,-1.1 0.5,-2.2 0.8,-2.5 0.3,-0.4 0.9,-0.9 1,-1.1 0.8,-1.6 1.6,-3.3 2.3,-4.9 0,0 1.6,-2.6 2.3,-4 0.7,-0.8 0.6,-0.8 -1,-1.6 m -4.1,42.7 z M 212.3,26.2 Z M 253,33 c -0.4,1.1 -0.7,2 -0.7,3.1 0.1,0.5 -0.1,1.1 -0.3,1.6 -0.2,0.7 -0.6,1 -1.3,0.9 -1.9,-0.2 -3.3,0.9 -4.6,2.2 -0.3,0.3 -0.6,0.6 -0.9,0.7 -0.7,0.3 -1.5,0.5 -2.3,0.7 0.1,-0.7 0.3,-1.4 0.5,-2.1 0.4,-0.9 0.8,-1.9 1.3,-2.7 2.2,-3 4.4,-6 6.7,-8.9 1,-1.3 0.8,0 1.3,0.1 0.1,0 0.5,-0.6 0.6,-0.6 0.1,0.1 0.2,0.2 0.3,0.3 0.1,0.1 0.1,0.3 0.1,0.4 0.1,0.3 0.1,0.7 0.1,1 -0.1,0.7 -0.3,1.3 -0.6,2 0.1,0.6 -0.1,1 -0.2,1.3 z"
         id="path8"
         inkscape:connector-curvature="0"
         style="fill:#ffffff" /><path
         d="m 302.5,54.4 c 0.6,0.2 2,0.6 3.1,0.8 1.3,0.3 2.4,0.9 3.3,1.9 1.1,1.3 2.4,2.5 3.6,3.8 0.3,0.3 0.6,0.6 0.7,0.9 1,2.3 2.3,4.4 5,5.2 0.5,0.2 1,0.7 1.5,1.1 0.3,0.3 0.7,0.7 1,0.9 1.6,1 3.2,2 4.8,3 1.1,0.7 2.1,1.7 3.1,2.5 0.1,0.1 0.3,0.2 0.4,0.3 0.9,0.8 1.9,1.7 2.8,2.5 5.6,5.6 11,11.5 18,15.5 0.5,0.3 1.1,0.7 1.6,1 0.4,0.2 0.7,0.5 1.1,0.7 0.3,0.3 0.6,0.5 0.9,0.7 1.6,1.2 3.3,2.4 4.8,3.7 2.6,2.1 5.2,4.4 7.8,6.5 0.8,0.7 8.2,5.7 9.1,6.3 0.1,0.1 2.3,0.7 0.5,-0.8 -1.1,-0.9 -6.5,-4.2 -6.5,-4.3 -1.5,-1.3 -3.5,-2.4 -5,-3.8 -2,-1.8 -4,-3.6 -6,-5.4 -2.4,-2.1 -4.4,-4.8 -7.4,-6.2 -0.3,-0.1 -0.7,-0.5 -0.9,-0.8 -1.4,-2.5 -3.7,-4.3 -5.8,-6.2 -1.4,-1.3 -3.3,-2.2 -4.8,-3.4 -2,-1.5 -3.9,-3.1 -5.8,-4.7 -0.2,-0.2 -0.3,-0.3 -0.5,-0.5 -0.9,-0.8 -1.7,-1.6 -2.6,-2.3 -1.5,-1.1 -3,-2.3 -4.6,-3.4 -0.7,-0.5 -1.4,-0.8 -2.1,-1.3 -0.2,-0.1 -0.7,-0.4 -0.1,-0.7 1,-0.5 0.4,-0.7 -0.1,-1.1 -2.7,-2.1 -5.4,-4.2 -7.7,-6.8 -0.9,-1 -2.1,-1.5 -3.3,-2.3 -0.4,-0.3 -0.8,-0.5 -1.1,-0.9 -1.5,-1.7 -2.3,-4 -4.4,-5.3 -0.2,-0.1 -0.3,-0.5 -0.4,-0.7 -0.1,-0.2 0,-0.5 0,-0.7 0.3,0 0.6,-0.1 0.7,0.1 0.7,0.6 1.3,1.3 2.1,1.9 0.4,0.3 0.8,0.8 1.3,0.9 0.9,0.1 1.5,0.4 1.8,1.3 0.1,0.4 0.7,0.6 1.1,0.9 1.1,0.7 2.3,1.5 3.4,2.3 0.6,0.5 1.1,1.1 1.9,0.5 0.2,-0.1 0.7,0.1 0.9,0.3 2.2,2.4 4.4,4.8 6.6,7.2 1,1.1 1.8,2.3 3.2,3 0.7,0.3 1.5,0.8 2.1,1.4 1.1,1.1 2,2.1 2.9,3.4 1,1.3 2.3,2.3 4,2.7 0.5,0.3 0.9,0.7 1.3,0.9 0.6,0.5 1.2,0.9 1.7,1.3 1.5,1.1 3.1,2.3 4.7,3.5 0.3,0.2 0.5,0.5 0.8,0.7 0.1,0.1 0.3,0.3 0.5,0.4 0.3,0.2 0.5,0.4 0.7,0.6 0.1,0.1 0.3,0.1 0.4,0.3 1.9,1.5 3.8,3 5.7,4.6 2.5,2.1 5,4.2 7.4,6.3 1.9,1.5 4,2.8 5.6,4.7 0.2,0.3 0.5,0.5 0.8,0.5 0.5,0.1 1.2,0.2 1.5,-0.1 0.5,-0.5 0.1,-0.9 -0.4,-1.3 -0.7,-0.7 -1.6,-1.3 -2,-2.2 -0.4,-0.8 -0.9,-1.3 -1.7,-1.5 -3.2,-1.1 -5.5,-3.4 -7.8,-5.6 -2,-1.9 -4.1,-3.8 -6.1,-5.6 -0.6,-0.5 -1.1,-1.1 -1.7,-1.6 -0.1,-0.1 -0.3,-0.3 -0.4,-0.4 -0.3,-0.3 -0.6,-0.6 -0.9,-0.9 -0.2,-0.3 -0.5,-0.5 -0.7,-0.7 -0.8,-0.7 -1.5,-1.5 -2.4,-2.1 -1.3,-0.9 -2.7,-1.7 -4,-2.7 -1.3,-1 -2.5,-2.1 -3.4,-3.4 -1.1,-1.5 -2.1,-2.9 -4.1,-3.3 -0.4,-0.1 -0.7,-0.4 -1.1,-0.6 -1.9,-1 -3.1,-2.7 -4.6,-4.3 -1.3,-1.5 -2.5,-3.1 -3.8,-4.8 -0.1,-0.1 -0.3,-0.3 -0.5,-0.5 -0.7,-0.9 -1.3,-1.9 -2.1,-2.7 -1.1,-1.1 -2.4,-1.9 -3.6,-2.9 -1.1,-0.9 -1.1,-1.3 0.1,-2.1 0.7,-0.4 1.5,-0.6 2.2,-1.1 4.2,-2.6 8.2,-5.5 11.1,-9.6 0.9,-1.4 1.9,-2.7 2.5,-4.3 1.2,-2.7 1.4,-5.7 1.1,-8.7 C 335,23.7 334,21.2 332,19 c 0,-0.1 -1,-1.1 -1.1,-1.2 -0.4,-0.4 -1.3,-1.1 -3.8,-3 -2.5,-1.9 -6,-3.8 -9.1,-4.2 -3.1,-0.4 -7.4,0.2 -9.2,0.4 -0.3,0 -0.7,0.2 -0.9,0.4 -0.9,1.1 -2.1,1.3 -3.4,1.7 -1,0 -2,-0.1 -3,-0.1 -1.1,0.1 -2.1,0.2 -3.1,0.3 -0.4,0 -1.3,0.1 -1.5,0.2 -0.5,0.1 -2.2,0.5 -2.5,0.6 -1.9,0.9 -7.1,2.8 -8.2,3.2 -1.1,0.4 -1.5,0.4 -3,0.7 -0.7,0.1 -1.4,0.6 -2,1 l -0.2,0.1 c -0.7,0.3 -1.4,0.7 -2.1,1.1 -0.4,0.3 -0.8,0.5 -1.1,0.7 -0.7,0.3 -1.4,0.6 -2.1,0.9 -0.3,0.1 -0.8,0.2 -1.2,0.4 -0.3,0.2 -1.3,1.1 -1.4,1.6 -0.1,0.5 -0.2,0.8 -0.3,1.2 -0.1,0.3 -0.2,0.7 -0.3,0.9 l -0.1,0.1 c -0.2,0.5 -1,0.7 -1.4,0.9 -0.6,0.3 -1.4,0.5 -1.9,0.9 -0.5,0.4 -0.6,1 -0.8,1.5 -0.2,0.4 -0.1,1.1 0.1,1.5 0.2,0.4 0.9,1.1 1.3,1.2 0.5,0.1 1.2,0.1 1.4,0.2 0.2,0.1 0.9,0.9 0.9,1.2 -0.1,0.3 0.2,1.1 0.9,1.4 0.5,0.1 0.9,0.1 1.4,0.2 0.5,0 0.9,0.1 1.4,0.1 0.1,0.1 0.2,0.3 0.3,0.4 0.2,0.6 0.5,1.1 1.3,0.9 0.5,0 1.6,0.2 2.7,0 1.1,-0.2 1.6,-0.6 2.4,-1 0.8,-0.4 1.5,-1 2.3,-1.5 0.5,-0.3 0.9,-0.5 0.9,0.3 -0.1,1.6 -0.5,3.2 -1.4,4.6 -0.1,0.1 -0.1,0.3 -0.2,0.5 -0.4,2.2 -5.3,14.3 -6,16.8 -0.7,2.4 -1.3,5 -1.5,5.4 -0.1,0.2 -0.1,0.3 -0.1,0.5 -0.3,0.8 -0.6,1.7 -0.7,2.5 -0.1,0.5 -0.4,1.9 0,1.7 1.3,-0.6 0.5,0.8 -0.7,1.6 -0.7,0.1 -2.7,4.4 -2.9,6.8 -0.1,1.4 -1.1,3.5 -0.7,4 0.1,0.1 0.3,0.3 0.2,0.4 -1,0.4 -1.7,4.4 -1.7,4.4 0,0 0.3,0.2 0.1,0.3 -0.1,0.1 -0.2,0.2 -0.3,0.3 -0.2,0.2 -1.3,2.5 -1.5,2.9 -0.1,0.1 -1.1,2.2 -1.2,2.5 -0.7,1 -0.9,3.6 -0.7,4.8 0.2,0.8 0.3,-0.1 0.3,0.7 0,0.2 -0.1,0.3 -0.1,0.5 0,0.4 0.3,2.7 0.6,2.9 0.7,0.3 0.7,-0.4 0.9,-0.8 0.1,-0.1 0.1,-0.2 0.3,-0.3 -0.1,-0.1 0.6,-0.8 0.7,-0.9 0.1,0.1 -0.6,2.1 -0.1,1.9 0.5,-0.1 2,-5.2 2.1,-5.5 0.3,-0.5 0.6,-1.1 0.9,-1.7 0.3,-0.1 0.5,-0.1 0.7,-0.2 0.3,0.1 0.5,0.1 0.8,0.2 0.1,0.1 0.2,0.3 0.3,0.4 0,0.4 -0.1,0.8 0.1,1.2 0.1,0.2 0.3,0.3 0.5,0.5 0.1,-0.2 0.3,-0.3 0.5,-0.5 0.1,-0.3 0.3,-0.6 0.4,-0.9 1.3,-3.2 2.7,-6.4 4.1,-9.6 0.3,-0.7 0.5,-1.5 0.8,-2.1 0.1,-0.1 1.1,-1.8 1.3,-1.5 0.1,0.2 0.4,0.4 0.4,0.7 0.1,0.4 -0.1,0.8 -0.1,1.2 0.1,0.3 0.3,0.7 0.5,0.7 0.3,0.1 0.6,-0.2 0.8,-0.4 0.3,-0.3 0.5,-0.8 0.7,-1.3 0.3,-1 2,-10 4,-18.8 2,-8.6 4.8,-17.8 5,-17.8 0.6,0 0.9,-0.3 1.1,-0.9 0.3,-1.2 0.5,-2.5 0.8,-3.7 0.1,-0.5 0.3,-1 0.4,-1.5 0.1,-0.3 0.3,-0.7 0.4,-0.9 0.4,-0.8 0.8,-1.5 1.3,-2.3 0.3,-0.6 0.8,-0.8 1.1,0.1 0.2,0.7 0.7,0.8 0.9,0.2 0.7,-1.3 1.4,-2.6 1.7,-4 0.2,-1 0.7,-1.5 1.5,-1.9 4.9,-2.3 9.7,-2.1 14.4,0.6 1.9,1.1 2.7,2.6 2.3,4.5 -0.4,1.7 -1.1,3.4 -2.1,4.8 -1.5,2 -2.9,4 -4.4,6.1 -1.2,1.7 -4.1,2 -5.6,0.5 -0.7,-0.7 -1.5,-1.4 -2.3,-2 -0.7,-0.5 -1.7,-0.3 -1.9,0.4 -0.2,0.7 -0.4,1.5 0.3,2.1 0.7,0.6 1.5,1.1 2.1,1.9 0.3,0.4 0.6,1.1 0.5,1.6 -0.1,0.3 -0.7,0.8 -1.2,0.8 -0.9,0.1 -1.7,-0.1 -2.6,-0.2 -0.5,0 -1.1,0 -1.3,0.3 -0.4,0.6 -1.1,1.4 -1.1,2.1 0.5,0.8 2.9,2.8 3.5,3 z"
         id="path10"
         inkscape:connector-curvature="0"
         style="fill:#ffffff" /><path
         d="m 369.5,112.3 c -2.1,-1.3 -4.3,-2.5 -6.5,-3.8 -1.4,-0.8 -2.9,-1.5 -4,-2.5 -5.2,-4.9 -10.3,-10 -15.5,-14.9 -2,-1.9 -4.1,-3.8 -6.8,-4.6 -1.2,-0.4 -2.3,-1 -3.5,-1.7 -0.7,-0.4 -1.4,-0.9 -1.7,-1.6 -1.5,-2.5 -3.9,-4 -6,-5.8 -2.5,-1.9 -4.1,-5 -7,-6.4 -0.2,-0.1 -0.4,-0.3 -0.6,-0.5 -1.9,-2.5 -4,-4.9 -6.4,-7 -2.5,-2.1 -4.5,-4.8 -7.4,-6.6 -0.7,-0.4 -1.2,-1.1 -1.7,-1.7 -0.1,-0.1 -1.3,-1.2 -2,-1.6 -0.7,-0.4 -2.5,-0.9 -3.8,-1.3 -1.6,-0.5 -2.2,0 -2.5,1.7 -0.1,0.6 -0.1,1.2 -0.1,1.8 0,1.3 0.2,1.5 1.5,1.6 0.5,0.1 1.2,0 1.5,0.3 0.8,0.8 1.7,0.7 2.7,0.6 0.9,-0.1 1.5,0.2 2,0.9 1.1,1.4 2.1,2.8 3.5,3.9 1.7,1.3 3.1,2.9 4.7,4.5 1.7,1.7 3.3,3.8 5.6,5 0.9,0.4 1.4,1.5 2.1,2.3 0.7,0.8 1.3,1.7 2.1,2.4 1.3,1 2.9,1.8 4.3,2.7 0.5,0.4 1.1,0.8 1.5,1.3 1.1,0.9 2.3,1.7 3.1,2.8 0.7,0.9 1.5,1.6 2.7,1.9 1.2,0.4 2.4,1.1 3.4,1.9 3,2.5 6,5.2 8.9,7.8 2,1.8 3.9,3.8 6.7,4.4 0.6,0.1 1.1,0.7 1.6,1.1 1.1,0.9 2.3,1.9 3.4,2.8 0.3,0.3 0.7,0.5 0.9,0.7 0.1,0.1 0.1,0.2 0.3,0.3 3.2,2.7 7,4.7 10.1,7.6 0.6,0.5 1.8,0.3 2.4,0.9 9.9,9.2 10.1,7.1 10.4,7 -0.1,-0.4 -9.7,-8.1 -9.9,-8.2 z"
         id="path12"
         inkscape:connector-curvature="0"
         style="fill:#ffffff" /><path
         d="m 354.1,110.5 c -0.3,-1 -1,-1.4 -1.7,-1.9 -0.9,-0.6 -1.9,-1.1 -2.8,-1.6 -1.3,-0.8 -2.7,-1.5 -3.3,-3.1 -0.1,-0.5 -0.7,-1 -1.1,-1.1 -1.9,-0.3 -2.9,-2.3 -4.8,-2.4 -0.3,0 -0.5,-0.5 -0.7,-0.7 -0.5,-0.5 -1,-0.9 -1.5,-1.4 -1,-1.1 -2.7,-1.6 -3.1,-3.2 -0.1,-0.2 -0.7,-0.3 -1,-0.5 -1.9,-0.4 -3.6,-1.4 -4.3,-3.3 -0.5,-1.4 -1.5,-2.3 -2.5,-3.4 -0.8,-0.9 -1.7,-1.3 -2.9,-1.1 -0.9,0.1 -1.7,-0.1 -2.1,-1.1 -0.2,-0.4 -0.6,-0.7 -0.9,-1.1 -0.5,-0.5 -0.9,-1 -1.3,-1.5 -0.1,-0.1 -0.2,-0.3 -0.3,-0.5 0,-0.1 -0.1,-0.3 -0.1,-0.3 -0.2,-1.2 -0.7,-2.1 -1.8,-2.7 -1.7,-1.4 -3.4,-2.7 -5,-4.2 -2.1,-2 -4.1,-4.2 -4.8,-7.2 -0.2,-0.9 -0.9,-1.8 -1.7,-2.5 -1.2,-1.1 -2.6,-2 -4,-2.7 -2.1,-1.1 -4.2,-2.5 -6.6,-2.9 -0.8,-0.1 -1.5,-0.5 -2.1,0.4 -0.3,0.5 0.1,0.9 0.5,1.3 0.3,0.2 0.6,0.4 0.9,0.4 1.4,0 2,1 2.4,2.1 0.5,1.5 1.5,2.2 3.1,2.5 1.3,0.2 2.7,0.7 3.2,2.1 0.8,2.5 2.5,4.4 4.6,6 1.9,1.5 3.6,3.1 5,5 0.3,0.4 0.5,0.8 0.9,1.1 1.4,1.1 2.8,2.2 4.3,3.4 0.1,0.1 0.3,0.3 0.4,0.4 0.4,0.4 0.8,0.8 1.2,1.2 1.1,1.9 2.7,3.1 4.9,3.6 0.3,0.1 0.5,0.2 0.9,0.3 0.5,0.4 1,0.8 1.5,1.3 0.7,0.8 1.4,1.7 2.2,2.6 0.5,0.6 1.3,1 1.9,1.5 2.2,1.7 4.4,3.5 6.6,5.1 2.3,1.7 4.7,3.2 7,4.8 1.1,0.7 2.1,1.5 3,2.3 1.6,1.5 3.1,2.9 5.2,3.9 0.8,0.4 1.5,1.1 2.2,1.6 0.1,0 9.5,6.4 10.4,7.1 0.5,0.5 4.4,2.9 7.8,5.6 2.5,1.9 4.6,4.1 6,5 6.6,4.4 4.1,1.2 4.3,1.2 -0.2,-0.3 -24.3,-17.8 -24.5,-18.1 -1.1,-0.5 -5.3,-2.5 -5.5,-3.3 z"
         id="path14"
         inkscape:connector-curvature="0"
         style="fill:#ffffff" /><path
         d="m 282.6,82.5 c -0.5,0 -1.1,0.4 -1.5,0.7 -0.2,0.1 -0.3,0.5 -0.3,0.7 -0.2,0.8 -0.3,1.6 -0.5,2.3 -0.2,1.1 -0.1,2.3 -1.2,3.1 -0.5,0.3 -0.2,0.9 0.1,1.2 0.4,0.5 0.9,0.3 1.2,-0.1 0.5,-0.9 1,-1.7 1.4,-2.7 0.5,-1.3 1.3,-3.3 1.5,-4.1 0.3,-0.7 -0.5,-1.1 -0.7,-1.1 z"
         id="path16"
         inkscape:connector-curvature="0"
         style="fill:#ffffff" /><path
         d="m 146.3,79.7 c 2.9,1.2 6.2,1.5 9.4,0.9 1.3,-0.3 1.6,-0.3 3.8,-1.6 2.1,-1.3 3.6,-4.4 4.1,-4.5 0.5,-0.1 1.8,-0.3 2.3,0.1 0.3,0.2 0.9,1.1 1.7,1.7 0.8,0.7 0,0.6 0.7,1.5 0.6,0.9 1.5,-0.1 1.5,0.3 0,0.5 0.3,0.8 1.1,0.8 0.7,0 0.5,-2.8 0.4,-4.4 -0.1,-0.9 -0.5,-4.6 -0.4,-5.4 0.1,-0.8 0.3,-2.1 0.4,-3.2 -0.1,-1.4 1.1,-6 1.3,-7 -0.1,-0.1 0.9,-2.7 1.4,-5.3 0.5,-2.5 1,-5.6 1,-6.5 0.1,-1.5 0.3,-4 0.1,-4.4 -0.2,-0.5 -1.1,-0.3 -1.4,-0.1 -0.3,0.2 -0.2,0.3 -0.3,0.5 v 0.1 c -0.1,0 -0.1,0 -0.2,0.1 -1.3,0.2 -1.9,-1.1 -2.4,-1.2 -0.5,-0.1 -0.9,-0.2 -1.5,-0.1 -0.6,0.1 -2.9,2.3 -4,2.9 -1.1,0.5 -4.8,2.1 -6,1.9 -0.1,0.1 -0.2,0.1 -0.4,0.1 -0.5,0.5 -0.9,1.4 -1.5,1.5 -2.6,0.3 -4.2,2.2 -6,3.7 -0.3,0.4 -0.8,0.8 -0.9,1.3 -0.5,1.4 -1,2.3 -2.5,3.1 -0.1,0.1 -0.1,0.3 -0.1,0.3 0.1,0.1 0.2,0.1 0.3,0.2 0.9,0 1.9,-0.7 1.9,-0.7 0,0 4.4,-1.9 6.6,-2.9 0.9,-0.4 1.9,-0.7 2.9,-0.1 0.4,0.2 1,-0.1 1.5,-0.1 0.2,-0.1 0.4,-0.2 0.6,-0.3 0.2,-0.1 0.4,-0.1 0.6,-0.1 l 0.4,-0.1 c 0.3,0.1 0.5,0.1 0.9,0.1 -0.5,1.5 -0.7,4.2 -0.8,4.7 -0.1,0.5 -0.3,0.7 -0.3,1.1 -0.1,0.6 -0.3,1.1 -0.4,1.7 -0.3,1.9 -0.7,3.8 -0.7,5.8 -0.1,1.2 0.7,3 1,3.5 0.4,0.5 0.8,1.1 0.1,1.6 -0.7,0.5 -1.1,1 -1.7,1.5 -0.7,0.3 -2.1,1.3 -4.2,1.7 -2.1,0.3 -3.9,0.3 -6.8,-1.1 -2.9,-1.3 -5.3,-3.7 -7,-5.2 -1.6,-1.5 -4,-7.1 -4.2,-9.6 -0.1,-2.5 0.1,-5.2 0.1,-6.2 0.1,-1 0.7,-4.5 1.6,-6.9 0.9,-2.4 3.6,-5.8 4,-6.2 1.4,-1.3 2.8,-2.7 4.2,-4.1 1.6,-1.2 4.1,-3.4 7.7,-5.4 0.8,-0.4 5.3,-2.9 8.7,-3.2 1,-0.1 1.9,-0.5 2.9,-0.8 0.9,-0.3 1.3,-0.9 0.9,-1.9 -0.3,-0.7 -0.3,-1.3 0.5,-1.5 0.9,-0.3 0.1,-1.7 -0.3,-1.6 -0.5,0.1 -0.9,0.3 -1.7,-0.1 -0.7,-0.5 -1.4,-1.5 -1.6,-2.7 -0.1,-0.5 0.7,-0.5 0.2,-1.2 -0.5,-0.7 -1.5,-0.3 -1.9,-0.6 -0.1,-0.1 -0.3,-0.1 -0.4,-0.1 -0.5,-0.1 -1.1,-0.1 -1.6,-0.2 -0.1,-0.1 -0.1,-0.1 -0.3,-0.2 -0.5,-0.6 -1.1,-0.7 -2,-0.6 -2.5,0.2 -4.7,1.1 -7.1,1.7 -0.9,0.3 -1.7,0.6 -2.5,0.9 -0.3,0.3 -0.7,0.6 -1.1,0.9 -1,0.7 -2,1.3 -3,2.1 -0.1,0.1 -0.3,0.3 -0.3,0.4 l -0.1,0.1 c -0.3,0.4 -0.6,0.8 -0.9,1.2 -0.1,0.1 -0.2,0.3 -0.3,0.4 -0.3,0.3 -0.5,0.5 -0.8,0.8 -0.1,0.1 -0.3,0.3 -0.4,0.4 -0.3,0.1 -0.5,0.3 -0.7,0.5 v 0 c -0.1,0.3 -0.3,0.5 -0.5,0.8 v 0.1 c -0.2,0.2 -0.4,0.5 -0.7,0.7 -0.2,0.2 -0.4,0.5 -0.5,0.7 -0.1,0.2 -0.3,0.3 -0.4,0.5 -0.1,0.1 -0.3,0.2 -0.4,0.3 -0.3,0.3 -0.5,0.6 -0.7,0.9 l -0.1,0.1 c -0.3,0.4 -0.6,0.7 -0.9,1.1 -0.1,0.2 -0.2,0.3 -0.3,0.5 -0.5,0.8 -0.9,1.6 -1.5,2.4 -0.1,0.1 -0.2,0.1 -0.2,0.3 -0.1,0.3 -0.3,0.6 -0.4,0.9 -0.1,0.3 -0.3,0.5 -0.4,0.7 v 0 c -1.4,1.1 -2.1,2.5 -2.5,4.2 -0.1,0.1 -0.2,0.3 -0.3,0.3 -0.1,0.4 -0.3,0.9 -0.5,1.3 -0.3,0.7 -0.5,1.3 -0.7,2 -1.5,2.7 -1.9,5.8 -2.1,8.7 -0.3,3.9 -0.2,7.8 0.7,11.7 0.3,1.3 2.5,6.2 3.6,7.8 1.1,1.7 4,4.9 5.8,6.2 2.2,0.9 3.9,1.9 6.9,3.1 z"
         id="path18"
         inkscape:connector-curvature="0"
         style="fill:#ffffff" /><path
         d="m 378.8,104.9 c -1.9,-1.3 -3.8,-2.7 -5.6,-4 -0.4,-0.3 -0.7,-1.1 -1.2,-0.5 -0.2,0.2 0.1,1 0.3,1.5 0.1,0.3 0.5,0.6 0.9,0.9 1.9,1.4 4,2.9 6,4.2 0.5,0.3 1.3,0.5 1.9,0.7 0.1,0 0.3,-0.1 0.5,-0.3 -0.2,-0.2 -0.3,-0.4 -0.5,-0.5 -0.8,-0.8 -1.5,-1.4 -2.3,-2 z"
         id="path20"
         inkscape:connector-curvature="0"
         style="fill:#ffffff" /><path
         d="m 392,113.2 c -0.1,-0.1 -2.7,-1.5 -2.9,-1.7 -0.5,-0.4 -0.9,-0.3 -1.5,-0.7 -1.1,-0.7 -2.1,-1.6 -3.1,-2.4 -0.5,-0.4 -1.3,-0.7 -1.5,0.1 -0.1,0.5 0.1,1.2 0.6,1.5 0.2,0.1 0.3,0.2 0.5,0.3 1.1,0.5 2.1,1.1 3.1,1.6 0.5,0.3 7.2,5 8.3,4.8 1.1,-0.2 0.1,-1.5 0.1,-1.5 0,0 -3.4,-1.8 -3.6,-2 z"
         id="path22"
         inkscape:connector-curvature="0"
         style="fill:#ffffff" /></g><path
       d="m 378.4,113.7 c 0,0 4.8,3.2 6.5,4.1 1.8,0.8 2.8,1.5 2.2,0.5 -0.6,-0.9 0,-0.7 -2,-1.9 -2,-1.1 -3.1,-1.6 -4,-2.5 -0.9,-0.9 -2.7,-1.7 -2.7,-1 0,0.6 0,0.8 0,0.8 z"
       id="path26"
       inkscape:connector-curvature="0"
       style="fill:#ffffff" /><path
       d="m 382.5,124.2 c 2,1.1 2.9,2.1 2.3,0.3 -0.7,-1.8 -1.8,-1.5 -3.3,-2.2 -1.5,-0.7 -1.5,0 -1.2,0.4 z"
       id="path28"
       inkscape:connector-curvature="0"
       style="fill:#ffffff" /></g></svg>