<?xml version="1.0" encoding="UTF-8" standalone="no"?>
<!-- Generator: Adobe Illustrator 21.1.0, SVG Export Plug-In . SVG Version: 6.00 Build 0)  -->

<svg
   xmlns:dc="http://purl.org/dc/elements/1.1/"
   xmlns:cc="http://creativecommons.org/ns#"
   xmlns:rdf="http://www.w3.org/1999/02/22-rdf-syntax-ns#"
   xmlns:svg="http://www.w3.org/2000/svg"
   xmlns="http://www.w3.org/2000/svg"
   xmlns:sodipodi="http://sodipodi.sourceforge.net/DTD/sodipodi-0.dtd"
   xmlns:inkscape="http://www.inkscape.org/namespaces/inkscape"
   version="1.0"
   id="Capa_1"
   x="0px"
   y="0px"
   width="519.29999"
   height="69.099998"
   viewBox="0 0 519.29999 69.099997"
   enable-background="new 0 0 534.5 181.3"
   xml:space="preserve"
   sodipodi:docname="atarilynx.svg"
   inkscape:version="0.92.2 (unknown)"><metadata
     id="metadata30"><rdf:RDF><cc:Work
         rdf:about=""><dc:format>image/svg+xml</dc:format><dc:type
           rdf:resource="http://purl.org/dc/dcmitype/StillImage" /><dc:title></dc:title></cc:Work></rdf:RDF></metadata><defs
     id="defs28" /><sodipodi:namedview
     pagecolor="#ffffff"
     bordercolor="#666666"
     borderopacity="1"
     objecttolerance="10"
     gridtolerance="10"
     guidetolerance="10"
     inkscape:pageopacity="0"
     inkscape:pageshadow="2"
     inkscape:window-width="698"
     inkscape:window-height="480"
     id="namedview26"
     showgrid="false"
     fit-margin-top="0"
     fit-margin-left="0"
     fit-margin-right="0"
     fit-margin-bottom="0"
     inkscape:zoom="0.51075772"
     inkscape:cx="-27.178753"
     inkscape:cy="34.550002"
     inkscape:window-x="0"
     inkscape:window-y="0"
     inkscape:window-maximized="0"
     inkscape:current-layer="Capa_1" /><g
     id="Layer_1"
     transform="translate(-7.5999999,-56.099998)"><g
       id="g22"><polygon
         points="416.4,107.4 367.9,124.9 416.7,124.9 435.3,114.7 "
         id="polygon2"
         style="fill:#ffffff" /><polygon
         points="454.2,85.8 441.2,91.1 371.1,56.6 428.7,56.6 505.4,95.5 475.3,95.5 "
         id="polygon4"
         style="fill:#ffffff" /><polygon
         points="478.4,74.4 526.9,56.9 478.1,56.9 459.5,67.1 "
         id="polygon6"
         style="fill:#ffffff" /><polygon
         points="440.6,96 453.7,90.7 523.7,125.2 466.1,125.2 389.4,86.3 419.5,86.3 "
         id="polygon8"
         style="fill:#ffffff" /><rect
         x="7.5999999"
         y="56.099998"
         width="38.200001"
         height="46.700001"
         id="rect10"
         style="fill:#ffffff" /><rect
         x="7.5999999"
         y="108.5"
         width="97.800003"
         height="14.3"
         id="rect12"
         style="fill:#ffffff" /><polygon
         points="69.7,56.1 115,56.1 146,82.3 123.6,98.8 "
         id="polygon14"
         style="fill:#ffffff" /><polygon
         points="231.9,56.1 198.5,56.1 129.3,101.4 126.9,101.4 126.9,122.8 162.7,122.8 162.7,101.4 "
         id="polygon16"
         style="fill:#ffffff" /><polygon
         points="236.7,63.3 274.9,87.1 274.9,122.8 236.7,122.8 "
         id="polygon18"
         style="fill:#ffffff" /><polygon
         points="342.2,56.1 342.2,103 272.5,56.1 241.5,56.1 339.3,122.8 360.8,122.8 360.8,56.1 "
         id="polygon20"
         style="fill:#ffffff" /></g></g></svg>