<?xml version="1.0" encoding="UTF-8" standalone="no"?>
<!-- Generator: Adobe Illustrator 21.1.0, SVG Export Plug-In . SVG Version: 6.00 Build 0)  -->

<svg
   xmlns:dc="http://purl.org/dc/elements/1.1/"
   xmlns:cc="http://creativecommons.org/ns#"
   xmlns:rdf="http://www.w3.org/1999/02/22-rdf-syntax-ns#"
   xmlns:svg="http://www.w3.org/2000/svg"
   xmlns="http://www.w3.org/2000/svg"
   xmlns:sodipodi="http://sodipodi.sourceforge.net/DTD/sodipodi-0.dtd"
   xmlns:inkscape="http://www.inkscape.org/namespaces/inkscape"
   version="1.0"
   id="Ebene_1"
   x="0px"
   y="0px"
   width="436.60001"
   height="93.900002"
   viewBox="0 0 436.60001 93.9"
   enable-background="new 0 0 466.5 167.3"
   xml:space="preserve"
   sodipodi:docname="atari7800.svg"
   inkscape:version="0.92.2 (unknown)"><metadata
     id="metadata39"><rdf:RDF><cc:Work
         rdf:about=""><dc:format>image/svg+xml</dc:format><dc:type
           rdf:resource="http://purl.org/dc/dcmitype/StillImage" /><dc:title></dc:title></cc:Work></rdf:RDF></metadata><defs
     id="defs37" /><sodipodi:namedview
     pagecolor="#ffffff"
     bordercolor="#666666"
     borderopacity="1"
     objecttolerance="10"
     gridtolerance="10"
     guidetolerance="10"
     inkscape:pageopacity="0"
     inkscape:pageshadow="2"
     inkscape:window-width="1920"
     inkscape:window-height="1055"
     id="namedview35"
     showgrid="false"
     fit-margin-top="0"
     fit-margin-left="0"
     fit-margin-right="0"
     fit-margin-bottom="0"
     inkscape:zoom="3.310442"
     inkscape:cx="266.93161"
     inkscape:cy="76.366763"
     inkscape:window-x="0"
     inkscape:window-y="0"
     inkscape:window-maximized="1"
     inkscape:current-layer="g32"
     inkscape:pagecheckerboard="true"
     inkscape:snap-bbox="true"
     inkscape:bbox-paths="true"
     inkscape:bbox-nodes="true"
     inkscape:snap-bbox-edge-midpoints="true"
     inkscape:snap-bbox-midpoints="true" /><g
     id="g32"
     transform="translate(-15,-36.7)"><path
       d="m 174.4,40.8 c 3.6,-4.6 11.2,-5.5 15.6,-1.5 1.8,1.5 3.1,3.7 3.8,5.9 8.2,28.4 16.6,56.9 24.8,85.3 -4.9,0 -9.8,0 -14.6,0 -2.3,-7.9 -4.5,-15.7 -6.9,-23.6 -9.4,0 -18.9,0 -28.3,0 -2.3,7.9 -4.6,15.7 -6.9,23.6 -4.9,0 -9.7,0 -14.6,0 7.9,-27.1 15.7,-54.2 23.6,-81.3 1.1,-2.9 1.5,-6.1 3.5,-8.4 m 8.6,17.4 c -3.5,11.8 -6.9,23.6 -10.3,35.4 6.9,0 13.7,0 20.6,0 C 189.8,81.8 186.4,70 183,58.2 Z"
       id="path2"
       inkscape:connector-curvature="0"
       style="fill:#ffffff" /><path
       d="m 277.1,41.4 c 2.5,-3.7 7.5,-5.5 11.8,-4.3 3.9,0.9 7,4.3 8,8.2 8.2,28.4 16.6,56.9 24.8,85.3 -4.9,0 -9.8,0 -14.6,0 -2.2,-7.9 -4.5,-15.7 -6.8,-23.6 -9.4,0 -18.8,0 -28.3,0 -2.2,7.9 -4.5,15.7 -6.9,23.6 -4.9,0 -9.7,0 -14.6,0 7.9,-27.3 15.8,-54.5 23.7,-81.8 1,-2.5 1.3,-5.3 2.9,-7.4 M 276,93.6 c 6.9,0 13.6,0 20.5,0 C 293.1,81.8 289.6,70 286.3,58.2 282.7,70 279.4,81.8 276,93.6 Z"
       id="path4"
       inkscape:connector-curvature="0"
       style="fill:#ffffff" /><path
       d="m 207.6,37 c 17.6,0 35.3,0 52.9,0 0,4.8 0,9.6 0,14.3 -6.5,0 -13,0 -19.5,0 0,26.4 0,52.8 0,79.3 -4.6,0 -9.3,0 -13.9,0 0,-26.4 0,-52.8 0,-79.3 -6.5,0 -13,0 -19.5,0 0,-4.9 0,-9.6 0,-14.3 z"
       id="path6"
       inkscape:connector-curvature="0"
       style="fill:#ffffff" /><path
       d="m 337.3,37.5 c 1.3,-0.5 2.8,-0.6 4.2,-0.6 5.5,0 11.1,0 16.7,0 9.4,0.2 18.3,6 22.3,14.4 2.8,5.5 3.1,11.9 2.4,17.9 -0.5,6.3 -3.2,12.6 -7.9,16.7 -2.5,2.3 -5.7,3.6 -8.5,5.7 -1.5,1.2 -1.5,3.4 -0.8,4.9 7.4,11.4 15.1,22.6 22.6,33.9 -5.5,0 -11,0 -16.6,0 -7.2,-10.9 -14.3,-21.7 -21.6,-32.6 -2.1,-3.1 -2.7,-7.2 -1.4,-10.7 1,-2.7 3.4,-4.7 6,-5.7 5,-1.9 10,-4.9 12.8,-9.7 2.2,-3.5 2,-7.9 1.1,-11.9 -1.2,-5.1 -6.1,-9 -11.2,-8.9 -3.6,0 -7.2,0 -10.8,0 -1.6,0 -3.2,1.4 -3.2,3 0,25.4 0,50.9 0,76.3 -4.7,0 -9.4,0 -14.1,0 0,-27.4 0,-54.8 0,-82.2 0,-4.5 3.4,-9 8,-10.5 z"
       id="path8"
       inkscape:connector-curvature="0"
       style="fill:#ffffff" /><path
       d="m 395.7,37 c 4.9,0 9.9,0 14.8,0 0,31.2 0,62.4 0,93.6 -4.9,0 -9.9,0 -14.8,0 0,-31.3 0,-62.5 0,-93.6 z"
       id="path10"
       inkscape:connector-curvature="0"
       style="fill:#ffffff" /><path
       d="m 56.7,36.7 c 2.4,0 4.8,0 7.1,0 0,5.5 0,11.2 0,16.7 0,4.6 -0.1,9.3 -0.3,13.9 -0.3,6.7 -0.8,13.4 -1.8,20.1 -0.8,4.5 -2.3,9 -4.3,13.2 -3.2,6.8 -8.2,12.5 -13.9,17.3 -5.1,4.5 -11.1,7.7 -17.4,9.9 -3.6,1.2 -7.3,2.2 -11.1,2.7 0,-4.7 0,-9.3 0,-14 4.5,-0.7 8.9,-2.3 12.9,-4.4 4.8,-2.5 9.1,-5.9 12.8,-10 3.8,-4.2 6.8,-8.9 9,-14.1 2.7,-5.9 4.1,-12.2 5.1,-18.6 1.2,-8.1 1.7,-16.3 1.9,-24.4 0,-2.7 0,-5.5 0,-8.3 z"
       id="path12"
       inkscape:connector-curvature="0"
       style="fill:#ffffff" /><path
       d="m 66.6,36.7 c 4.4,0 8.7,0 13.1,0 0,31.3 0,62.5 0,93.7 -4.4,0 -8.7,0 -13.1,0 -0.1,-9.9 0,-20 0,-29.9 0,-21.2 0,-42.4 0,-63.8 z"
       id="path14"
       inkscape:connector-curvature="0"
       style="fill:#ffffff" /><path
       d="m 82.6,36.7 c 2.4,0 4.7,0 7.1,0 -0.1,9.6 0.2,19.1 1.4,28.6 0.9,7.3 2.2,14.8 5.2,21.6 2.8,6.6 6.8,12.8 12,17.8 5,4.8 11,8.4 17.6,10.5 1.8,0.6 3.7,1.1 5.6,1.3 0,4.7 0,9.3 0,14 -3.8,-0.5 -7.4,-1.5 -10.9,-2.7 -4.2,-1.5 -8.3,-3.4 -12.1,-5.9 -2.8,-1.8 -5.2,-3.9 -7.7,-6.1 C 96.9,112.2 93.3,108 90.6,103.2 88.5,99.5 87,95.6 85.8,91.6 84.7,87.5 84.3,83.4 83.8,79.2 83,70.2 82.6,61.1 82.7,52.1 82.6,47 82.6,41.9 82.6,36.7 Z"
       id="path16"
       inkscape:connector-curvature="0"
       style="fill:#ffffff" /><path
       d="m 56.7,36.7 c 0,2.8 0,5.5 0,8.3 -0.2,8.2 -0.7,16.3 -1.9,24.4 -1,6.3 -2.4,12.7 -5.1,18.6 -2.3,5.1 -5.2,9.9 -9,14.1 -3.6,4 -7.9,7.5 -12.8,10 -4.1,2.2 -8.4,3.7 -12.9,4.4 0,4.7 0,9.3 0,14 3.8,-0.5 7.5,-1.5 11.1,-2.7 6.3,-2.2 12.4,-5.5 17.4,-9.9 5.6,-4.8 10.7,-10.5 13.9,-17.3 1.9,-4.2 3.5,-8.6 4.3,-13.2 1.1,-6.6 1.5,-13.3 1.8,-20 0.2,-4.6 0.3,-9.3 0.3,-13.9 0,-5.5 0,-11.2 0,-16.7 -2.4,-0.1 -4.8,-0.1 -7.1,-0.1"
       id="path18"
       inkscape:connector-curvature="0"
       style="fill:#ffffff" /><path
       d="m 66.6,36.7 c 0,21.3 0,42.6 0,63.9 0,9.9 0,20 0,29.9 4.4,-0.1 8.7,0 13.1,0 0,-31.3 0,-62.6 0,-93.7 C 75.3,36.7 71,36.7 66.6,36.7"
       id="path20"
       inkscape:connector-curvature="0"
       style="fill:#ffffff" /><path
       d="m 82.6,36.7 c 0,5.1 0,10.2 0,15.3 -0.1,9.1 0.2,18.1 1.1,27.1 0.5,4.2 0.9,8.4 2,12.4 1.2,4 2.7,8 4.8,11.6 2.7,4.7 6.2,8.9 10.2,12.6 2.4,2.2 4.9,4.3 7.7,6.1 3.8,2.5 7.9,4.4 12.1,5.9 3.5,1.2 7.2,2.2 10.9,2.7 0,-4.7 0,-9.3 0,-14 -1.9,-0.3 -3.8,-0.8 -5.6,-1.3 -6.5,-2.1 -12.6,-5.8 -17.6,-10.5 C 103,99.7 99,93.5 96.2,86.8 93.3,79.9 92,72.5 91,65.2 89.9,55.9 89.6,46.3 89.7,36.8 87.3,36.7 84.9,36.7 82.6,36.7"
       id="path22"
       inkscape:connector-curvature="0"
       style="fill:#ffffff" /></g><path
     d="m 423.67945,54.426179 c -1.11911,-1.729523 -2.84863,-2.950363 -4.78163,-2.950363 -4.67988,0 -6.81635,4.883359 -6.81635,9.461509 0,4.578149 2.13647,9.461508 6.81635,9.461508 2.03474,0 3.76426,-1.119103 4.78163,-2.950362 1.1191,2.543416 3.15383,3.967729 5.69725,3.967729 4.67988,0 7.12156,-5.290306 7.12156,-10.580612 0,-5.188569 -2.44168,-10.580612 -7.12156,-10.580612 -2.44168,0.30521 -4.47641,1.729523 -5.69725,4.171203 z m -2.95037,6.714619 c 0,1.119103 -0.81389,2.13647 -1.72952,2.13647 -0.91563,0 -1.72952,-0.91563 -1.72952,-2.13647 0,-1.119103 0.81389,-2.13647 1.72952,-2.13647 1.01737,-0.101736 1.72952,0.91563 1.72952,2.13647 z m 6.00246,0 c 0,-1.322576 0.8139,-2.339943 1.933,-2.339943 1.01737,0 1.83126,1.119103 1.83126,2.339943 0,1.322577 -0.81389,2.339943 -1.83126,2.339943 -1.1191,-0.101737 -1.933,-1.119103 -1.933,-2.339943 z"
     id="path41"
     inkscape:connector-curvature="0"
     style="fill:#ffffff;stroke-width:1.01736653" /><path
     d="m 416.0492,28.27986 c -2.64516,1.932996 -3.96773,4.883359 -3.96773,8.342405 0,3.459046 1.42431,6.307672 3.96773,8.342405 2.13647,1.627787 5.18857,2.543417 8.3424,2.543417 6.1042,0 12.2084,-3.35731 12.2084,-10.885822 0,-7.528512 -6.20594,-10.885822 -12.2084,-10.885822 -3.15383,0 -6.1042,0.91563 -8.3424,2.543417 z m 13.3275,8.240668 c 0,2.645153 -3.35731,2.950363 -4.9851,2.950363 -1.62778,0 -4.98509,-0.30521 -4.98509,-2.950363 0,-2.645153 3.35731,-2.950363 4.98509,-2.950363 1.62779,0.101737 4.9851,0.406947 4.9851,2.950363 z"
     id="path43"
     inkscape:connector-curvature="0"
     style="fill:#ffffff;stroke-width:1.01736653" /><path
     d="m 416.0492,2.6422235 c -2.64516,1.9329963 -3.96773,4.8833592 -3.96773,8.3424055 0,3.459046 1.42431,6.307672 3.96773,8.342405 2.13647,1.627787 5.18857,2.543416 8.3424,2.543416 6.1042,0 12.2084,-3.357309 12.2084,-10.885821 0,-7.4267756 -6.20594,-10.88582179 -12.2084,-10.88582179 -3.15383,0.10173665 -6.1042,1.01736649 -8.3424,2.54341629 z m 13.3275,8.3424055 c 0,2.645153 -3.35731,2.950363 -4.9851,2.950363 -1.62778,0 -4.98509,-0.30521 -4.98509,-2.950363 0,-2.6451531 3.35731,-2.9503631 4.98509,-2.9503631 1.62779,0 4.9851,0.30521 4.9851,2.9503631 z"
     id="path45"
     inkscape:connector-curvature="0"
     style="fill:#ffffff;stroke-width:1.01736653" /><polygon
     transform="matrix(1.0173665,0,0,1.0173665,-7.7856973,-31.846502)"
     points="413,102.5 413,123.6 420.4,123.6 420.4,113.6 436.7,121.1 436.7,112.6 "
     id="polygon47"
     style="fill:#ffffff" /></svg>