<?xml version="1.0" encoding="utf-8"?>
<!-- Generator: Adobe Illustrator 21.1.0, SVG Export Plug-In . SVG Version: 6.00 Build 0)  -->
<svg version="1.0" id="Capa_1" xmlns="http://www.w3.org/2000/svg" xmlns:xlink="http://www.w3.org/1999/xlink" x="0px" y="0px"
	 width="557.2px" height="151.3px" viewBox="0 0 557.2 151.3" enable-background="new 0 0 557.2 151.3" xml:space="preserve">
<g>
	<path fill="#FFFFFF" d="M43.7,95.2v11.7h-38V43.8h14.7v51.4H43.7z"/>
	<path fill="#FFFFFF" d="M107.9,106.9H96.6c-1.3,0-2.3-0.3-3.1-0.9s-1.4-1.4-1.7-2.3l-3.7-11H63.8l-3.7,11c-0.3,0.8-0.9,1.5-1.7,2.2
		s-1.8,0.9-3,0.9H44l24.4-63h15L107.9,106.9z M84.5,82.7l-5.9-17.3c-0.5-1-0.9-2.4-1.4-3.9s-1-3.1-1.5-4.9c-0.5,1.7-0.9,3.4-1.4,4.9
		s-0.9,2.8-1.4,3.9l-5.8,17.2h17.3v0.1C84.4,82.7,84.5,82.7,84.5,82.7z"/>
	<path fill="#FFFFFF" d="M147.7,56.6c-0.5,0.7-0.9,1.3-1.4,1.6s-1,0.6-1.8,0.6c-0.7,0-1.4-0.2-2.2-0.6c-0.8-0.5-1.6-0.9-2.5-1.4
		c-0.9-0.6-2.1-1-3.4-1.4c-1.3-0.5-2.7-0.6-4.3-0.6c-2.8,0-4.7,0.6-6.1,1.7c-1.4,1.2-2,2.8-2,4.7c0,1.3,0.3,2.3,1.2,3.1
		c0.8,0.8,1.8,1.6,3.2,2.2c1.3,0.6,2.8,1.2,4.5,1.6c1.7,0.5,3.5,1,5.2,1.7c1.7,0.6,3.5,1.4,5.2,2.2s3.2,1.8,4.5,3.2
		c1.3,1.4,2.4,2.9,3.2,4.7s1.2,4.2,1.2,6.7c0,2.9-0.5,5.7-1.5,8.2s-2.4,4.7-4.4,6.7c-2,1.8-4.3,3.4-7,4.5c-2.8,1.2-6,1.6-9.6,1.6
		c-2,0-3.9-0.2-6-0.6c-2.1-0.5-4-0.9-5.9-1.7c-1.8-0.7-3.7-1.6-5.3-2.7c-1.7-1-3.1-2.2-4.4-3.4l4.4-6.8c0.3-0.5,0.8-0.9,1.4-1.3
		s1.2-0.5,1.8-0.5c0.9,0,1.7,0.2,2.7,0.8c0.9,0.6,1.8,1.2,3,1.8c1.2,0.7,2.4,1.3,3.8,1.8c1.4,0.6,3.1,0.8,5.1,0.8
		c2.7,0,4.7-0.6,6.2-1.7c1.5-1.2,2.2-3,2.2-5.5c0-1.5-0.5-2.7-1.3-3.6s-1.8-1.7-3.2-2.3c-1.4-0.6-2.8-1.2-4.5-1.6
		c-1.7-0.5-3.4-0.9-5.2-1.5c-1.7-0.6-3.5-1.3-5.2-2.1c-1.7-0.8-3.1-1.8-4.5-3.2s-2.4-3-3.2-5.1c-0.8-2-1.3-4.5-1.3-7.4
		c0-2.3,0.5-4.6,1.4-6.9c0.9-2.3,2.3-4.3,4.2-6c1.8-1.7,4.2-3.1,6.8-4.3c2.7-1,5.8-1.6,9.2-1.6c2,0,3.8,0.1,5.7,0.5
		c1.8,0.3,3.6,0.8,5.2,1.4c1.6,0.6,3.2,1.3,4.6,2.1c1.4,0.8,2.7,1.7,3.8,2.8L147.7,56.6z"/>
	<path fill="#FFFFFF" d="M206.2,55.3h-17.8v51.5h-14.7V55.3h-17.8V43.8h50.2v11.6h0.1V55.3z"/>
	<path fill="#FFFFFF" d="M253.2,43.8c4.4,0,8.3,0.6,11.4,1.6c3.2,1,5.8,2.5,7.9,4.4c2.1,1.8,3.6,4,4.6,6.6c0.9,2.5,1.5,5.2,1.5,8.1
		c0,3.1-0.5,6-1.5,8.7s-2.5,4.9-4.6,6.8c-2.1,1.8-4.7,3.4-7.9,4.4c-3.2,1-6.9,1.6-11.3,1.6h-7.6v21.1H231V43.8H253.2z M253.2,74.7
		c3.8,0,6.6-0.9,8.2-2.8c1.6-1.8,2.5-4.4,2.5-7.6c0-1.4-0.2-2.8-0.7-3.9c-0.5-1.2-1-2.2-2-3c-0.9-0.8-2-1.5-3.4-2s-2.9-0.7-4.7-0.7
		h-7.6v20H253.2z"/>
	<path fill="#FFFFFF" d="M324.2,95.2v11.7h-38V43.8h14.7v51.4H324.2z"/>
	<path fill="#FFFFFF" d="M388.2,106.9h-11.3c-1.3,0-2.3-0.3-3.1-0.9c-0.8-0.6-1.4-1.4-1.7-2.3l-3.7-11h-24l-3.7,11
		c-0.3,0.8-0.9,1.5-1.7,2.2c-0.8,0.7-1.8,0.9-3,0.9h-11.4l24.2-63.2h15L388.2,106.9z M365,82.7l-5.9-17.3c-0.5-1-0.9-2.4-1.4-3.9
		s-1-3.1-1.5-4.9c-0.5,1.7-0.9,3.4-1.4,4.9s-0.9,2.8-1.4,3.9l-5.8,17.2L365,82.7L365,82.7L365,82.7z"/>
	<path fill="#FFFFFF" d="M416.7,82.9v24H402v-24l-22.9-39.2H392c1.3,0,2.3,0.3,3,0.9c0.7,0.6,1.4,1.4,1.8,2.3l8.9,18.4
		c0.7,1.5,1.4,2.8,2.1,4c0.6,1.3,1.2,2.5,1.6,3.7c0.5-1.3,0.9-2.5,1.5-3.7s1.3-2.5,2-4l8.9-18.4c0.2-0.3,0.5-0.7,0.7-1.2
		c0.2-0.3,0.6-0.7,1-1c0.3-0.3,0.8-0.6,1.4-0.7c0.6-0.1,1-0.2,1.6-0.2h12.9L416.7,82.9z"/>
	<path fill="#FFFFFF" d="M459.2,55v14.8h19.9v10.9h-19.9v15h25.9V107h-40.7V43.8h40.7v11.3L459.2,55L459.2,55z"/>
	<path fill="#FFFFFF" d="M551.4,75.3c0,4.6-0.8,8.8-2.3,12.6c-1.6,3.8-3.8,7.2-6.7,10.1s-6.4,5-10.3,6.6c-4,1.6-8.6,2.3-13.4,2.3
		h-24.5V43.8h24.5c4.9,0,9.4,0.8,13.4,2.4c4,1.6,7.5,3.8,10.3,6.6c2.9,2.8,5.1,6.1,6.7,9.9C550.6,66.5,551.4,70.8,551.4,75.3z
		 M536.4,75.3c0-3.1-0.5-5.9-1.2-8.4c-0.8-2.5-2-4.6-3.5-6.4c-1.5-1.7-3.4-3.1-5.5-4s-4.7-1.4-7.5-1.4h-9.8v40.6h9.8
		c2.8,0,5.3-0.5,7.5-1.4s4-2.3,5.5-4s2.7-3.9,3.5-6.4C536,81.3,536.4,78.4,536.4,75.3z"/>
</g>
</svg>
