<?xml version="1.0" encoding="utf-8"?>
<!-- Generator: Adobe Illustrator 21.1.0, SVG Export Plug-In . SVG Version: 6.00 Build 0)  -->
<svg version="1.0" id="Capa_1" xmlns="http://www.w3.org/2000/svg" xmlns:xlink="http://www.w3.org/1999/xlink" x="0px" y="0px"
	 width="567.5px" height="179.3px" viewBox="0 0 567.5 179.3" enable-background="new 0 0 567.5 179.3" xml:space="preserve">
<g>
	<path fill="#FFFFFF" d="M85.9,125.5h-13c-1.5,0-2.7-0.4-3.6-1.1s-1.6-1.6-2-2.7l-4.4-12.5H35.5l-4.4,12.6c-0.4,0.9-1.1,1.7-2,2.5
		s-2.1,1.1-3.4,1.1H12.6L40.7,53h17.2L85.9,125.5z M59.2,97.8l-6.8-19.9c-0.5-1.2-1.1-2.8-1.6-4.5s-1.2-3.6-1.7-5.6
		c-0.5,2-1.1,3.8-1.6,5.6c-0.5,1.7-1.1,3.2-1.6,4.5l-6.6,19.7h19.9C59.2,97.6,59.2,97.8,59.2,97.8z"/>
	<path fill="#FFFFFF" d="M135.2,112.1v13.4H91.6V53.1h16.8v59H135.2z"/>
	<path fill="#FFFFFF" d="M187.4,112.1v13.4h-43.6V53.1h16.8v59H187.4z"/>
	<path fill="#FFFFFF" d="M250.7,88h25.7v30.6c-3.7,2.7-7.7,4.6-11.8,6c-4.2,1.2-8.6,1.9-13.1,1.9c-6,0-11.4-0.9-16.3-2.8
		s-9-4.5-12.6-7.7c-3.4-3.3-6.1-7.2-8.1-11.7c-1.9-4.5-2.8-9.4-2.8-14.7c0-5.4,0.9-10.3,2.7-14.8c1.9-4.5,4.4-8.5,7.7-11.7
		s7.3-5.8,12.1-7.7s9.9-2.8,15.8-2.8c3,0,5.8,0.3,8.5,0.8s5,1.2,7.3,2c2.3,0.9,4.2,1.9,6.1,3s3.4,2.5,5,3.8l-4.9,7.4
		c-0.8,1.2-1.7,1.9-2.9,2.1c-1.2,0.3-2.5,0-3.8-0.9c-1.3-0.8-2.5-1.5-3.7-2.1c-1.2-0.5-2.4-1.1-3.6-1.5s-2.5-0.7-3.8-0.8
		c-1.3-0.1-2.9-0.3-4.6-0.3c-3.2,0-6,0.5-8.5,1.7c-2.5,1.1-4.6,2.7-6.5,4.6c-1.7,2-3.2,4.5-4.1,7.3c-0.9,2.8-1.5,6-1.5,9.4
		c0,3.8,0.5,7.3,1.6,10.2c1.1,2.9,2.5,5.6,4.5,7.6s4.2,3.6,6.9,4.6c2.7,1.1,5.7,1.6,9,1.6c2,0,3.8-0.3,5.4-0.7
		c1.6-0.4,3.2-0.9,4.8-1.6v-11H254c-1.1,0-1.9-0.3-2.5-0.8c-0.7-0.5-0.9-1.3-0.9-2.1L250.7,88L250.7,88z"/>
	<path fill="#FFFFFF" d="M351.6,125.5h-13c-1.5,0-2.7-0.4-3.6-1.1s-1.6-1.6-2-2.7l-4.2-12.6h-27.6l-4.2,12.7c-0.4,0.9-1.1,1.7-2,2.5
		s-2.1,1.1-3.4,1.1h-13.1l28-72.4h17.2L351.6,125.5z M325,97.8l-6.8-19.9c-0.5-1.2-1.1-2.8-1.6-4.5s-1.2-3.6-1.7-5.6
		c-0.5,2-1.1,3.8-1.6,5.6c-0.5,1.7-1.1,3.2-1.6,4.5l-6.6,19.7H325V97.8z"/>
	<path fill="#FFFFFF" d="M438.7,53.1v72.4h-14.8V83.9c0-0.9,0-2,0.1-3.2c0-1.1,0.1-2.3,0.3-3.4L405,114.5c-0.5,1.2-1.5,2-2.4,2.7
		c-1.1,0.7-2.1,0.9-3.4,0.9h-2.3c-1.3,0-2.4-0.3-3.4-0.9c-1.1-0.5-1.9-1.5-2.4-2.7l-19.4-37.2c0.1,1.2,0.1,2.4,0.3,3.4
		c0,1.2,0.1,2.3,0.1,3.2v41.6h-14.8V53.1h12.9c0.7,0,1.3,0,1.9,0c0.5,0,1.1,0.1,1.5,0.3s0.8,0.4,1.2,0.8c0.4,0.4,0.7,0.8,1.1,1.5
		l18.7,36.7c0.7,1.3,1.3,2.5,1.9,4c0.7,1.3,1.2,2.8,1.7,4.1c0.5-1.5,1.2-2.9,1.7-4.2c0.7-1.5,1.3-2.7,2-4l18.6-36.6
		c0.3-0.7,0.7-1.1,1.1-1.5s0.8-0.7,1.2-0.8c0.4-0.1,0.9-0.3,1.5-0.3c0.5,0,1.2,0,1.9,0C425.8,53.1,438.7,53.1,438.7,53.1z"/>
	<path fill="#FFFFFF" d="M469.7,66v17h22.7v12.5h-22.8v17.2h29.7v13h-46.7V53.1h46.7v13L469.7,66L469.7,66L469.7,66z"/>
	<path fill="#FFFFFF" d="M549.7,67.8c-0.5,0.8-1.1,1.5-1.6,1.9s-1.2,0.7-2.1,0.7c-0.8,0-1.6-0.3-2.5-0.7c-0.9-0.5-1.9-1.1-2.9-1.6
		c-1.1-0.7-2.4-1.2-3.8-1.6c-1.5-0.5-3-0.7-4.9-0.7c-3.2,0-5.4,0.7-7,2s-2.3,3.2-2.3,5.4c0,1.5,0.4,2.7,1.3,3.6s2.1,1.9,3.7,2.5
		c1.5,0.7,3.2,1.3,5.2,1.9s4,1.2,6,2c2,0.7,4,1.6,6,2.5s3.7,2.1,5.2,3.7s2.8,3.3,3.7,5.4s1.3,4.8,1.3,7.7c0,3.3-0.5,6.5-1.7,9.4
		s-2.8,5.4-5,7.7c-2.3,2.1-4.9,3.8-8.1,5.2c-3.2,1.3-6.9,1.9-11,1.9c-2.3,0-4.5-0.3-6.9-0.7c-2.4-0.4-4.6-1.1-6.8-2
		c-2.1-0.8-4.2-1.9-6.1-3c-2-1.2-3.6-2.4-5-3.8l5-7.8c0.4-0.5,0.9-1.1,1.6-1.5s1.3-0.5,2.1-0.5c1.1,0,2,0.3,3,0.9
		c1.1,0.7,2.1,1.3,3.4,2.1c1.3,0.8,2.8,1.5,4.4,2.1c1.6,0.7,3.6,0.9,5.8,0.9c3,0,5.4-0.7,7.2-2c1.7-1.3,2.5-3.4,2.5-6.4
		c0-1.7-0.5-3-1.3-4.1c-0.9-1.1-2.1-2-3.7-2.7c-1.5-0.7-3.2-1.3-5.2-1.9c-2-0.5-3.8-1.1-6-1.7c-2-0.7-4-1.5-6-2.4s-3.6-2.1-5.2-3.7
		c-1.6-1.6-2.8-3.4-3.7-5.8c-0.9-2.3-1.3-5.2-1.3-8.5c0-2.7,0.5-5.3,1.6-8c1.1-2.7,2.7-4.9,4.8-6.9c2.1-2,4.8-3.6,7.8-4.9
		c3-1.2,6.6-1.9,10.6-1.9c2.3,0,4.4,0.1,6.5,0.5s4.1,0.9,6,1.6s3.7,1.5,5.3,2.4s3,2,4.4,3.2L549.7,67.8z"/>
</g>
</svg>
