<?xml version="1.0" encoding="UTF-8" standalone="no"?>
<!-- Generator: Adobe Illustrator 21.1.0, SVG Export Plug-In . SVG Version: 6.00 Build 0)  -->

<svg
   xmlns:dc="http://purl.org/dc/elements/1.1/"
   xmlns:cc="http://creativecommons.org/ns#"
   xmlns:rdf="http://www.w3.org/1999/02/22-rdf-syntax-ns#"
   xmlns:svg="http://www.w3.org/2000/svg"
   xmlns="http://www.w3.org/2000/svg"
   xmlns:sodipodi="http://sodipodi.sourceforge.net/DTD/sodipodi-0.dtd"
   xmlns:inkscape="http://www.inkscape.org/namespaces/inkscape"
   version="1.0"
   id="Capa_1"
   x="0px"
   y="0px"
   width="542.40002"
   height="74.199997"
   viewBox="0 0 542.40002 74.199995"
   enable-background="new 0 0 567.5 179.3"
   xml:space="preserve"
   sodipodi:docname="auto-allgames.svg"
   inkscape:version="0.92.2 (unknown)"><metadata
     id="metadata25"><rdf:RDF><cc:Work
         rdf:about=""><dc:format>image/svg+xml</dc:format><dc:type
           rdf:resource="http://purl.org/dc/dcmitype/StillImage" /><dc:title></dc:title></cc:Work></rdf:RDF></metadata><defs
     id="defs23" /><sodipodi:namedview
     pagecolor="#ffffff"
     bordercolor="#666666"
     borderopacity="1"
     objecttolerance="10"
     gridtolerance="10"
     guidetolerance="10"
     inkscape:pageopacity="0"
     inkscape:pageshadow="2"
     inkscape:window-width="698"
     inkscape:window-height="480"
     id="namedview21"
     showgrid="false"
     fit-margin-top="0"
     fit-margin-left="0"
     fit-margin-right="0"
     fit-margin-bottom="0"
     inkscape:zoom="0.48105727"
     inkscape:cx="-33.387545"
     inkscape:cy="37.050001"
     inkscape:window-x="0"
     inkscape:window-y="0"
     inkscape:window-maximized="0"
     inkscape:current-layer="Capa_1" /><g
     id="g18"
     transform="translate(-12.6,-52.5)"><path
       d="m 85.9,125.5 h -13 c -1.5,0 -2.7,-0.4 -3.6,-1.1 -0.9,-0.7 -1.6,-1.6 -2,-2.7 L 62.9,109.2 H 35.5 l -4.4,12.6 c -0.4,0.9 -1.1,1.7 -2,2.5 -0.9,0.8 -2.1,1.1 -3.4,1.1 H 12.6 L 40.7,53 H 57.9 Z M 59.2,97.8 52.4,77.9 c -0.5,-1.2 -1.1,-2.8 -1.6,-4.5 -0.5,-1.7 -1.2,-3.6 -1.7,-5.6 -0.5,2 -1.1,3.8 -1.6,5.6 -0.5,1.7 -1.1,3.2 -1.6,4.5 l -6.6,19.7 h 19.9 c 0,0 0,0.2 0,0.2 z"
       id="path2"
       inkscape:connector-curvature="0"
       style="fill:#ffffff" /><path
       d="m 135.2,112.1 v 13.4 H 91.6 V 53.1 h 16.8 v 59 z"
       id="path4"
       inkscape:connector-curvature="0"
       style="fill:#ffffff" /><path
       d="m 187.4,112.1 v 13.4 H 143.8 V 53.1 h 16.8 v 59 z"
       id="path6"
       inkscape:connector-curvature="0"
       style="fill:#ffffff" /><path
       d="m 250.7,88 h 25.7 v 30.6 c -3.7,2.7 -7.7,4.6 -11.8,6 -4.2,1.2 -8.6,1.9 -13.1,1.9 -6,0 -11.4,-0.9 -16.3,-2.8 -4.9,-1.9 -9,-4.5 -12.6,-7.7 -3.4,-3.3 -6.1,-7.2 -8.1,-11.7 -1.9,-4.5 -2.8,-9.4 -2.8,-14.7 0,-5.4 0.9,-10.3 2.7,-14.8 1.9,-4.5 4.4,-8.5 7.7,-11.7 3.3,-3.2 7.3,-5.8 12.1,-7.7 4.8,-1.9 9.9,-2.8 15.8,-2.8 3,0 5.8,0.3 8.5,0.8 2.7,0.5 5,1.2 7.3,2 2.3,0.9 4.2,1.9 6.1,3 1.9,1.1 3.4,2.5 5,3.8 l -4.9,7.4 c -0.8,1.2 -1.7,1.9 -2.9,2.1 -1.2,0.3 -2.5,0 -3.8,-0.9 -1.3,-0.8 -2.5,-1.5 -3.7,-2.1 -1.2,-0.5 -2.4,-1.1 -3.6,-1.5 -1.2,-0.4 -2.5,-0.7 -3.8,-0.8 -1.3,-0.1 -2.9,-0.3 -4.6,-0.3 -3.2,0 -6,0.5 -8.5,1.7 -2.5,1.1 -4.6,2.7 -6.5,4.6 -1.7,2 -3.2,4.5 -4.1,7.3 -0.9,2.8 -1.5,6 -1.5,9.4 0,3.8 0.5,7.3 1.6,10.2 1.1,2.9 2.5,5.6 4.5,7.6 2,2 4.2,3.6 6.9,4.6 2.7,1.1 5.7,1.6 9,1.6 2,0 3.8,-0.3 5.4,-0.7 1.6,-0.4 3.2,-0.9 4.8,-1.6 v -11 H 254 c -1.1,0 -1.9,-0.3 -2.5,-0.8 -0.7,-0.5 -0.9,-1.3 -0.9,-2.1 z"
       id="path8"
       inkscape:connector-curvature="0"
       style="fill:#ffffff" /><path
       d="m 351.6,125.5 h -13 c -1.5,0 -2.7,-0.4 -3.6,-1.1 -0.9,-0.7 -1.6,-1.6 -2,-2.7 l -4.2,-12.6 h -27.6 l -4.2,12.7 c -0.4,0.9 -1.1,1.7 -2,2.5 -0.9,0.8 -2.1,1.1 -3.4,1.1 h -13.1 l 28,-72.4 h 17.2 z M 325,97.8 318.2,77.9 c -0.5,-1.2 -1.1,-2.8 -1.6,-4.5 -0.5,-1.7 -1.2,-3.6 -1.7,-5.6 -0.5,2 -1.1,3.8 -1.6,5.6 -0.5,1.7 -1.1,3.2 -1.6,4.5 l -6.6,19.7 H 325 Z"
       id="path10"
       inkscape:connector-curvature="0"
       style="fill:#ffffff" /><path
       d="m 438.7,53.1 v 72.4 H 423.9 V 83.9 c 0,-0.9 0,-2 0.1,-3.2 0,-1.1 0.1,-2.3 0.3,-3.4 L 405,114.5 c -0.5,1.2 -1.5,2 -2.4,2.7 -1.1,0.7 -2.1,0.9 -3.4,0.9 h -2.3 c -1.3,0 -2.4,-0.3 -3.4,-0.9 -1.1,-0.5 -1.9,-1.5 -2.4,-2.7 L 371.7,77.3 c 0.1,1.2 0.1,2.4 0.3,3.4 0,1.2 0.1,2.3 0.1,3.2 v 41.6 H 357.3 V 53.1 h 12.9 c 0.7,0 1.3,0 1.9,0 0.5,0 1.1,0.1 1.5,0.3 0.4,0.2 0.8,0.4 1.2,0.8 0.4,0.4 0.7,0.8 1.1,1.5 l 18.7,36.7 c 0.7,1.3 1.3,2.5 1.9,4 0.7,1.3 1.2,2.8 1.7,4.1 0.5,-1.5 1.2,-2.9 1.7,-4.2 0.7,-1.5 1.3,-2.7 2,-4 l 18.6,-36.6 c 0.3,-0.7 0.7,-1.1 1.1,-1.5 0.4,-0.4 0.8,-0.7 1.2,-0.8 0.4,-0.1 0.9,-0.3 1.5,-0.3 0.5,0 1.2,0 1.9,0 -0.4,0 12.5,0 12.5,0 z"
       id="path12"
       inkscape:connector-curvature="0"
       style="fill:#ffffff" /><path
       d="m 469.7,66 v 17 h 22.7 v 12.5 h -22.8 v 17.2 h 29.7 v 13 H 452.6 V 53.1 h 46.7 v 13 z"
       id="path14"
       inkscape:connector-curvature="0"
       style="fill:#ffffff" /><path
       d="m 549.7,67.8 c -0.5,0.8 -1.1,1.5 -1.6,1.9 -0.5,0.4 -1.2,0.7 -2.1,0.7 -0.8,0 -1.6,-0.3 -2.5,-0.7 -0.9,-0.5 -1.9,-1.1 -2.9,-1.6 -1.1,-0.7 -2.4,-1.2 -3.8,-1.6 -1.5,-0.5 -3,-0.7 -4.9,-0.7 -3.2,0 -5.4,0.7 -7,2 -1.6,1.3 -2.3,3.2 -2.3,5.4 0,1.5 0.4,2.7 1.3,3.6 0.9,0.9 2.1,1.9 3.7,2.5 1.5,0.7 3.2,1.3 5.2,1.9 2,0.6 4,1.2 6,2 2,0.7 4,1.6 6,2.5 2,0.9 3.7,2.1 5.2,3.7 1.5,1.6 2.8,3.3 3.7,5.4 0.9,2.1 1.3,4.8 1.3,7.7 0,3.3 -0.5,6.5 -1.7,9.4 -1.2,2.9 -2.8,5.4 -5,7.7 -2.3,2.1 -4.9,3.8 -8.1,5.2 -3.2,1.3 -6.9,1.9 -11,1.9 -2.3,0 -4.5,-0.3 -6.9,-0.7 -2.4,-0.4 -4.6,-1.1 -6.8,-2 -2.1,-0.8 -4.2,-1.9 -6.1,-3 -2,-1.2 -3.6,-2.4 -5,-3.8 l 5,-7.8 c 0.4,-0.5 0.9,-1.1 1.6,-1.5 0.7,-0.4 1.3,-0.5 2.1,-0.5 1.1,0 2,0.3 3,0.9 1.1,0.7 2.1,1.3 3.4,2.1 1.3,0.8 2.8,1.5 4.4,2.1 1.6,0.7 3.6,0.9 5.8,0.9 3,0 5.4,-0.7 7.2,-2 1.7,-1.3 2.5,-3.4 2.5,-6.4 0,-1.7 -0.5,-3 -1.3,-4.1 -0.9,-1.1 -2.1,-2 -3.7,-2.7 -1.5,-0.7 -3.2,-1.3 -5.2,-1.9 -2,-0.5 -3.8,-1.1 -6,-1.7 -2,-0.7 -4,-1.5 -6,-2.4 -2,-0.9 -3.6,-2.1 -5.2,-3.7 -1.6,-1.6 -2.8,-3.4 -3.7,-5.8 -0.9,-2.3 -1.3,-5.2 -1.3,-8.5 0,-2.7 0.5,-5.3 1.6,-8 1.1,-2.7 2.7,-4.9 4.8,-6.9 2.1,-2 4.8,-3.6 7.8,-4.9 3,-1.2 6.6,-1.9 10.6,-1.9 2.3,0 4.4,0.1 6.5,0.5 2.1,0.4 4.1,0.9 6,1.6 1.9,0.7 3.7,1.5 5.3,2.4 1.6,0.9 3,2 4.4,3.2 z"
       id="path16"
       inkscape:connector-curvature="0"
       style="fill:#ffffff" /></g></svg>