<?xml version="1.0" encoding="UTF-8" standalone="no"?>
<!-- Generator: Adobe Illustrator 21.1.0, SVG Export Plug-In . SVG Version: 6.00 Build 0)  -->

<svg
   xmlns:dc="http://purl.org/dc/elements/1.1/"
   xmlns:cc="http://creativecommons.org/ns#"
   xmlns:rdf="http://www.w3.org/1999/02/22-rdf-syntax-ns#"
   xmlns:svg="http://www.w3.org/2000/svg"
   xmlns="http://www.w3.org/2000/svg"
   xmlns:sodipodi="http://sodipodi.sourceforge.net/DTD/sodipodi-0.dtd"
   xmlns:inkscape="http://www.inkscape.org/namespaces/inkscape"
   version="1.0"
   id="Capa_1"
   x="0px"
   y="0px"
   width="545.70001"
   height="64.599998"
   viewBox="0 0 545.7 64.599997"
   enable-background="new 0 0 557.2 151.3"
   xml:space="preserve"
   sodipodi:docname="auto-lastplayed.svg"
   inkscape:version="0.92.2 (unknown)"><metadata
     id="metadata29"><rdf:RDF><cc:Work
         rdf:about=""><dc:format>image/svg+xml</dc:format><dc:type
           rdf:resource="http://purl.org/dc/dcmitype/StillImage" /><dc:title></dc:title></cc:Work></rdf:RDF></metadata><defs
     id="defs27" /><sodipodi:namedview
     pagecolor="#ffffff"
     bordercolor="#666666"
     borderopacity="1"
     objecttolerance="10"
     gridtolerance="10"
     guidetolerance="10"
     inkscape:pageopacity="0"
     inkscape:pageshadow="2"
     inkscape:window-width="698"
     inkscape:window-height="480"
     id="namedview25"
     showgrid="false"
     fit-margin-top="0"
     fit-margin-left="0"
     fit-margin-right="0"
     fit-margin-bottom="0"
     inkscape:zoom="0.48994974"
     inkscape:cx="-26.110252"
     inkscape:cy="31.95"
     inkscape:window-x="0"
     inkscape:window-y="0"
     inkscape:window-maximized="0"
     inkscape:current-layer="Capa_1" /><g
     id="g22"
     transform="translate(-5.7,-43)"><path
       d="m 43.7,95.2 v 11.7 H 5.7 V 43.8 h 14.7 v 51.4 z"
       id="path2"
       inkscape:connector-curvature="0"
       style="fill:#ffffff" /><path
       d="M 107.9,106.9 H 96.6 c -1.3,0 -2.3,-0.3 -3.1,-0.9 -0.8,-0.6 -1.4,-1.4 -1.7,-2.3 l -3.7,-11 H 63.8 l -3.7,11 c -0.3,0.8 -0.9,1.5 -1.7,2.2 -0.8,0.7 -1.8,0.9 -3,0.9 H 44 l 24.4,-63 h 15 z M 84.5,82.7 78.6,65.4 c -0.5,-1 -0.9,-2.4 -1.4,-3.9 -0.5,-1.5 -1,-3.1 -1.5,-4.9 -0.5,1.7 -0.9,3.4 -1.4,4.9 -0.5,1.5 -0.9,2.8 -1.4,3.9 l -5.8,17.2 h 17.3 v 0.1 c 0,0 0.1,0 0.1,0 z"
       id="path4"
       inkscape:connector-curvature="0"
       style="fill:#ffffff" /><path
       d="m 147.7,56.6 c -0.5,0.7 -0.9,1.3 -1.4,1.6 -0.5,0.3 -1,0.6 -1.8,0.6 -0.7,0 -1.4,-0.2 -2.2,-0.6 -0.8,-0.5 -1.6,-0.9 -2.5,-1.4 -0.9,-0.6 -2.1,-1 -3.4,-1.4 -1.3,-0.5 -2.7,-0.6 -4.3,-0.6 -2.8,0 -4.7,0.6 -6.1,1.7 -1.4,1.2 -2,2.8 -2,4.7 0,1.3 0.3,2.3 1.2,3.1 0.8,0.8 1.8,1.6 3.2,2.2 1.3,0.6 2.8,1.2 4.5,1.6 1.7,0.5 3.5,1 5.2,1.7 1.7,0.6 3.5,1.4 5.2,2.2 1.7,0.8 3.2,1.8 4.5,3.2 1.3,1.4 2.4,2.9 3.2,4.7 0.8,1.8 1.2,4.2 1.2,6.7 0,2.9 -0.5,5.7 -1.5,8.2 -1,2.5 -2.4,4.7 -4.4,6.7 -2,1.8 -4.3,3.4 -7,4.5 -2.8,1.2 -6,1.6 -9.6,1.6 -2,0 -3.9,-0.2 -6,-0.6 -2.1,-0.5 -4,-0.9 -5.9,-1.7 -1.8,-0.7 -3.7,-1.6 -5.3,-2.7 -1.7,-1 -3.1,-2.2 -4.4,-3.4 l 4.4,-6.8 c 0.3,-0.5 0.8,-0.9 1.4,-1.3 0.6,-0.4 1.2,-0.5 1.8,-0.5 0.9,0 1.7,0.2 2.7,0.8 0.9,0.6 1.8,1.2 3,1.8 1.2,0.7 2.4,1.3 3.8,1.8 1.4,0.6 3.1,0.8 5.1,0.8 2.7,0 4.7,-0.6 6.2,-1.7 1.5,-1.2 2.2,-3 2.2,-5.5 0,-1.5 -0.5,-2.7 -1.3,-3.6 -0.8,-0.9 -1.8,-1.7 -3.2,-2.3 -1.4,-0.6 -2.8,-1.2 -4.5,-1.6 -1.7,-0.5 -3.4,-0.9 -5.2,-1.5 -1.7,-0.6 -3.5,-1.3 -5.2,-2.1 -1.7,-0.8 -3.1,-1.8 -4.5,-3.2 -1.4,-1.4 -2.4,-3 -3.2,-5.1 -0.8,-2 -1.3,-4.5 -1.3,-7.4 0,-2.3 0.5,-4.6 1.4,-6.9 0.9,-2.3 2.3,-4.3 4.2,-6 1.8,-1.7 4.2,-3.1 6.8,-4.3 2.7,-1 5.8,-1.6 9.2,-1.6 2,0 3.8,0.1 5.7,0.5 1.8,0.3 3.6,0.8 5.2,1.4 1.6,0.6 3.2,1.3 4.6,2.1 1.4,0.8 2.7,1.7 3.8,2.8 z"
       id="path6"
       inkscape:connector-curvature="0"
       style="fill:#ffffff" /><path
       d="m 206.2,55.3 h -17.8 v 51.5 H 173.7 V 55.3 H 155.9 V 43.8 h 50.2 v 11.6 h 0.1 z"
       id="path8"
       inkscape:connector-curvature="0"
       style="fill:#ffffff" /><path
       d="m 253.2,43.8 c 4.4,0 8.3,0.6 11.4,1.6 3.2,1 5.8,2.5 7.9,4.4 2.1,1.8 3.6,4 4.6,6.6 0.9,2.5 1.5,5.2 1.5,8.1 0,3.1 -0.5,6 -1.5,8.7 -1,2.7 -2.5,4.9 -4.6,6.8 -2.1,1.8 -4.7,3.4 -7.9,4.4 -3.2,1 -6.9,1.6 -11.3,1.6 h -7.6 v 21.1 H 231 V 43.8 Z m 0,30.9 c 3.8,0 6.6,-0.9 8.2,-2.8 1.6,-1.8 2.5,-4.4 2.5,-7.6 0,-1.4 -0.2,-2.8 -0.7,-3.9 -0.5,-1.2 -1,-2.2 -2,-3 -0.9,-0.8 -2,-1.5 -3.4,-2 -1.4,-0.5 -2.9,-0.7 -4.7,-0.7 h -7.6 v 20 z"
       id="path10"
       inkscape:connector-curvature="0"
       style="fill:#ffffff" /><path
       d="m 324.2,95.2 v 11.7 h -38 V 43.8 h 14.7 v 51.4 z"
       id="path12"
       inkscape:connector-curvature="0"
       style="fill:#ffffff" /><path
       d="m 388.2,106.9 h -11.3 c -1.3,0 -2.3,-0.3 -3.1,-0.9 -0.8,-0.6 -1.4,-1.4 -1.7,-2.3 l -3.7,-11 h -24 l -3.7,11 c -0.3,0.8 -0.9,1.5 -1.7,2.2 -0.8,0.7 -1.8,0.9 -3,0.9 h -11.4 l 24.2,-63.2 h 15 z M 365,82.7 359.1,65.4 c -0.5,-1 -0.9,-2.4 -1.4,-3.9 -0.5,-1.5 -1,-3.1 -1.5,-4.9 -0.5,1.7 -0.9,3.4 -1.4,4.9 -0.5,1.5 -0.9,2.8 -1.4,3.9 l -5.8,17.2 z"
       id="path14"
       inkscape:connector-curvature="0"
       style="fill:#ffffff" /><path
       d="m 416.7,82.9 v 24 H 402 v -24 L 379.1,43.7 H 392 c 1.3,0 2.3,0.3 3,0.9 0.7,0.6 1.4,1.4 1.8,2.3 l 8.9,18.4 c 0.7,1.5 1.4,2.8 2.1,4 0.6,1.3 1.2,2.5 1.6,3.7 0.5,-1.3 0.9,-2.5 1.5,-3.7 0.6,-1.2 1.3,-2.5 2,-4 l 8.9,-18.4 c 0.2,-0.3 0.5,-0.7 0.7,-1.2 0.2,-0.3 0.6,-0.7 1,-1 0.3,-0.3 0.8,-0.6 1.4,-0.7 0.6,-0.1 1,-0.2 1.6,-0.2 h 12.9 z"
       id="path16"
       inkscape:connector-curvature="0"
       style="fill:#ffffff" /><path
       d="m 459.2,55 v 14.8 h 19.9 v 10.9 h -19.9 v 15 h 25.9 V 107 H 444.4 V 43.8 h 40.7 v 11.3 z"
       id="path18"
       inkscape:connector-curvature="0"
       style="fill:#ffffff" /><path
       d="m 551.4,75.3 c 0,4.6 -0.8,8.8 -2.3,12.6 -1.6,3.8 -3.8,7.2 -6.7,10.1 -2.9,2.9 -6.4,5 -10.3,6.6 -4,1.6 -8.6,2.3 -13.4,2.3 H 494.2 V 43.8 h 24.5 c 4.9,0 9.4,0.8 13.4,2.4 4,1.6 7.5,3.8 10.3,6.6 2.9,2.8 5.1,6.1 6.7,9.9 1.5,3.8 2.3,8.1 2.3,12.6 z m -15,0 c 0,-3.1 -0.5,-5.9 -1.2,-8.4 -0.8,-2.5 -2,-4.6 -3.5,-6.4 -1.5,-1.7 -3.4,-3.1 -5.5,-4 -2.1,-0.9 -4.7,-1.4 -7.5,-1.4 h -9.8 v 40.6 h 9.8 c 2.8,0 5.3,-0.5 7.5,-1.4 2.2,-0.9 4,-2.3 5.5,-4 1.5,-1.7 2.7,-3.9 3.5,-6.4 0.8,-2.6 1.2,-5.5 1.2,-8.6 z"
       id="path20"
       inkscape:connector-curvature="0"
       style="fill:#ffffff" /></g></svg>