<?xml version="1.0" encoding="UTF-8" standalone="no"?>
<svg
   xmlns:dc="http://purl.org/dc/elements/1.1/"
   xmlns:cc="http://creativecommons.org/ns#"
   xmlns:rdf="http://www.w3.org/1999/02/22-rdf-syntax-ns#"
   xmlns:svg="http://www.w3.org/2000/svg"
   xmlns="http://www.w3.org/2000/svg"
   xmlns:sodipodi="http://sodipodi.sourceforge.net/DTD/sodipodi-0.dtd"
   xmlns:inkscape="http://www.inkscape.org/namespaces/inkscape"
   version="1.0"
   id="Capa_1"
   x="0px"
   y="0px"
   width="555.79999"
   height="87.400002"
   viewBox="0 0 555.79999 87.4"
   enable-background="new 0 0 567.5 151.3"
   xml:space="preserve"
   sodipodi:docname="auto-favorites.svg"
   inkscape:version="1.0 (4035a4fb49, 2020-05-01)"><metadata
     id="metadata27"><rdf:RDF><cc:Work
         rdf:about=""><dc:format>image/svg+xml</dc:format><dc:type
           rdf:resource="http://purl.org/dc/dcmitype/StillImage" /><dc:title></dc:title></cc:Work></rdf:RDF></metadata><defs
     id="defs25" /><sodipodi:namedview
     pagecolor="#ffffff"
     bordercolor="#666666"
     borderopacity="1"
     objecttolerance="10"
     gridtolerance="10"
     guidetolerance="10"
     inkscape:pageopacity="0"
     inkscape:pageshadow="2"
     inkscape:window-width="712"
     inkscape:window-height="480"
     id="namedview23"
     showgrid="false"
     fit-margin-top="5"
     fit-margin-left="5"
     fit-margin-right="5"
     fit-margin-bottom="5"
     inkscape:zoom="0.48105727"
     inkscape:cx="-26.687545"
     inkscape:cy="43.549996"
     inkscape:window-x="0"
     inkscape:window-y="0"
     inkscape:window-maximized="0"
     inkscape:current-layer="Capa_1"
     inkscape:document-rotation="0"
     inkscape:pagecheckerboard="true"
     lock-margins="true" /><g
     id="g20"
     transform="translate(-5.9,-31.8)"><path
       d="M 28.5,51.1 V 70.2 H 54.4 V 83.8 H 28.5 v 29.5 H 10.9 V 37.7 H 59.6 V 51.3 H 28.5 Z"
       id="path2"
       inkscape:connector-curvature="0"
       style="fill:#ffffff" /><path
       d="m 131.1,113.2 h -13.6 c -1.5,0 -2.8,-0.4 -3.7,-1.1 -1,-0.7 -1.7,-1.7 -2.1,-2.8 l -4.4,-13 H 78.6 l -4.4,13.1 c -0.4,1 -1.1,1.8 -2.1,2.6 -1,0.8 -2.2,1.1 -3.6,1.1 H 54.8 L 84,37.7 h 18 z M 103.3,84.3 96.2,63.5 C 95.6,62.3 95.1,60.6 94.5,58.8 93.9,57 93.3,55.1 92.7,53 c -0.6,2.1 -1.1,4 -1.7,5.8 -0.6,1.8 -1.1,3.3 -1.7,4.7 l -6.9,20.6 h 20.8 z"
       id="path4"
       inkscape:connector-curvature="0"
       style="fill:#ffffff" /><path
       d="m 198.7,37.7 -30.3,75.5 H 152.5 L 122.2,37.7 h 14.1 c 1.5,0 2.8,0.4 3.7,1.1 1,0.7 1.7,1.7 2.1,2.8 L 156.8,82 c 0.7,1.8 1.4,3.7 2.1,5.8 0.7,2.1 1.2,4.3 1.9,6.5 0.4,-2.2 1,-4.4 1.7,-6.5 0.6,-2.1 1.2,-4 1.9,-5.8 l 14.5,-40.4 c 0.4,-1 1.1,-1.8 2.1,-2.6 1,-0.8 2.2,-1.1 3.6,-1.1 h 14.1 z"
       id="path6"
       inkscape:connector-curvature="0"
       style="fill:#ffffff" /><path
       d="m 276,75.4 c 0,5.5 -1,10.5 -2.8,15.2 -1.9,4.7 -4.6,8.9 -8,12.3 -3.5,3.5 -7.6,6.2 -12.3,8.2 -4.8,1.9 -10.2,2.9 -16.1,2.9 -5.8,0 -11.2,-1 -16.1,-2.9 -4.8,-1.9 -9,-4.7 -12.5,-8.2 -3.5,-3.5 -6.1,-7.6 -8,-12.3 -1.9,-4.7 -2.8,-9.8 -2.8,-15.2 0,-5.4 1,-10.5 2.8,-15.2 1.9,-4.7 4.6,-8.9 8,-12.3 3.5,-3.5 7.6,-6.2 12.5,-8.2 4.9,-2 10.2,-2.9 16.1,-2.9 5.8,0 11.2,1 16.1,3 4.8,2.1 9,4.7 12.3,8.2 3.5,3.5 6.1,7.6 8,12.2 1.8,4.7 2.8,9.8 2.8,15.2 z m -18,0 c 0,-3.7 -0.6,-7.1 -1.4,-10.1 -1,-3 -2.4,-5.5 -4.2,-7.6 -1.8,-2.1 -4,-3.6 -6.6,-4.8 -2.6,-1.1 -5.7,-1.7 -9,-1.7 -3.5,0 -6.4,0.6 -9,1.7 -2.6,1.1 -4.8,2.8 -6.6,4.8 -1.8,2.1 -3.2,4.6 -4.2,7.6 -1,3 -1.4,6.4 -1.4,10.1 0,3.7 0.4,7.2 1.4,10.1 1,3 2.4,5.5 4.2,7.6 1.8,2.1 4,3.6 6.6,4.7 2.6,1.1 5.7,1.7 9,1.7 3.3,0 6.4,-0.6 9,-1.7 2.6,-1.1 4.8,-2.6 6.6,-4.7 1.8,-2.1 3.2,-4.6 4.2,-7.6 1,-2.9 1.4,-6.3 1.4,-10.1 z"
       id="path8"
       inkscape:connector-curvature="0"
       style="fill:#ffffff" /><path
       d="m 348.2,113.2 h -15.9 c -2.9,0 -5.1,-1.1 -6.4,-3.3 L 313.5,88 c -0.6,-1 -1.2,-1.7 -1.9,-2.1 -0.7,-0.4 -1.8,-0.7 -3,-0.7 h -4.4 v 27.9 H 286.6 V 37.7 h 24.6 c 5.5,0 10.1,0.6 14,1.7 3.9,1.1 7.1,2.6 9.4,4.7 2.5,2.1 4.2,4.4 5.3,7.1 1.1,2.8 1.7,5.7 1.7,9 0,2.5 -0.3,4.8 -1,6.9 -0.7,2.2 -1.7,4.2 -2.9,6.1 -1.2,1.8 -2.9,3.5 -4.7,5 -1.9,1.4 -4,2.6 -6.5,3.6 1.1,0.6 2.2,1.4 3.2,2.2 1,0.8 1.9,1.9 2.8,3.2 z M 311,73.2 c 2.4,0 4.4,-0.3 6.1,-1 1.7,-0.6 3,-1.4 4.2,-2.5 1.2,-1.1 1.8,-2.4 2.4,-3.7 0.4,-1.4 0.7,-3 0.7,-4.7 0,-3.3 -1.1,-5.9 -3.2,-7.7 -2.1,-1.8 -5.5,-2.8 -10.1,-2.8 H 304 v 22.4 z"
       id="path10"
       inkscape:connector-curvature="0"
       style="fill:#ffffff" /><path
       d="M 372.2,113.2 H 354.5 V 37.7 h 17.7 z"
       id="path12"
       inkscape:connector-curvature="0"
       style="fill:#ffffff" /><path
       d="m 441.2,51.5 h -21.3 v 61.7 H 402.3 V 51.5 H 381 V 37.7 h 60 v 13.8 z"
       id="path14"
       inkscape:connector-curvature="0"
       style="fill:#ffffff" /><path
       d="m 467.6,51.1 v 17.7 h 23.8 v 13 h -23.8 v 18 h 31 v 13.6 H 449.9 V 37.7 h 48.7 v 13.6 h -31 z"
       id="path16"
       inkscape:connector-curvature="0"
       style="fill:#ffffff" /><path
       d="m 551.2,53 c -0.6,0.8 -1.1,1.5 -1.7,1.9 -0.6,0.4 -1.2,0.7 -2.2,0.7 -0.8,0 -1.7,-0.3 -2.6,-0.7 -1,-0.6 -1.9,-1.1 -3,-1.7 -1.1,-0.7 -2.5,-1.2 -4,-1.7 -1.5,-0.6 -3.2,-0.7 -5.1,-0.7 -3.3,0 -5.7,0.7 -7.3,2.1 -1.7,1.4 -2.4,3.3 -2.4,5.7 0,1.5 0.4,2.8 1.4,3.7 1,1 2.2,1.9 3.9,2.6 1.5,0.7 3.3,1.4 5.4,1.9 2.1,0.5 4.2,1.2 6.2,2.1 2.1,0.7 4.2,1.7 6.2,2.6 2.1,1 3.9,2.2 5.4,3.9 1.5,1.7 2.9,3.5 3.9,5.7 1,2.2 1.4,5 1.4,8 0,3.5 -0.6,6.8 -1.8,9.8 -1.2,3 -2.9,5.7 -5.3,8 -2.4,2.2 -5.1,4 -8.4,5.4 -3.3,1.4 -7.2,1.9 -11.5,1.9 -2.4,0 -4.7,-0.3 -7.2,-0.7 -2.5,-0.6 -4.8,-1.1 -7.1,-2.1 -2.2,-0.8 -4.4,-1.9 -6.4,-3.2 -2.1,-1.2 -3.7,-2.6 -5.3,-4 L 509,96 c 0.4,-0.6 1,-1.1 1.7,-1.5 0.7,-0.4 1.4,-0.6 2.2,-0.6 1.1,0 2.1,0.3 3.2,1 1.1,0.7 2.2,1.4 3.6,2.2 1.4,0.8 2.9,1.5 4.6,2.2 1.7,0.7 3.7,1 6.1,1 3.2,0 5.7,-0.7 7.5,-2.1 1.8,-1.4 2.6,-3.6 2.6,-6.6 0,-1.8 -0.6,-3.2 -1.4,-4.3 -1,-1.1 -2.2,-2.1 -3.9,-2.8 -1.7,-0.7 -3.3,-1.4 -5.4,-1.9 -2.1,-0.6 -4,-1.1 -6.2,-1.8 -2.1,-0.7 -4.2,-1.5 -6.2,-2.5 -2,-1 -3.7,-2.2 -5.4,-3.9 -1.7,-1.7 -2.9,-3.6 -3.9,-6.1 -1,-2.4 -1.4,-5.4 -1.4,-8.9 0,-2.8 0.6,-5.5 1.7,-8.3 1.1,-2.8 2.8,-5.1 5,-7.2 2.2,-2.1 5,-3.7 8.2,-5.1 3.2,-1.2 6.9,-1.9 11.1,-1.9 2.4,0 4.6,0.1 6.8,0.6 2.2,0.5 4.3,1 6.2,1.7 1.9,0.7 3.9,1.5 5.5,2.5 1.6,1 3.2,2.1 4.6,3.3 z"
       id="path18"
       inkscape:connector-curvature="0"
       style="fill:#ffffff" /></g></svg>
