<?xml version="1.0" encoding="utf-8"?>
<!-- Generator: Adobe Illustrator 21.1.0, SVG Export Plug-In . SVG Version: 6.00 Build 0)  -->
<svg version="1.0" id="Capa_1" xmlns="http://www.w3.org/2000/svg" xmlns:xlink="http://www.w3.org/1999/xlink" x="0px" y="0px"
	 width="567.5px" height="151.3px" viewBox="0 0 567.5 151.3" enable-background="new 0 0 567.5 151.3" xml:space="preserve">
<g>
	<path fill="#FFFFFF" d="M28.5,51.1v19.1h25.9v13.6H28.5v29.5H10.9V37.7h48.7v13.6H28.5V51.1z"/>
	<path fill="#FFFFFF" d="M131.1,113.2h-13.6c-1.5,0-2.8-0.4-3.7-1.1c-1-0.7-1.7-1.7-2.1-2.8l-4.4-13H78.6l-4.4,13.1
		c-0.4,1-1.1,1.8-2.1,2.6s-2.2,1.1-3.6,1.1H54.8L84,37.7h18L131.1,113.2z M103.3,84.3l-7.1-20.8c-0.6-1.2-1.1-2.9-1.7-4.7
		s-1.2-3.7-1.8-5.8c-0.6,2.1-1.1,4-1.7,5.8s-1.1,3.3-1.7,4.7l-6.9,20.6h20.8L103.3,84.3L103.3,84.3z"/>
	<path fill="#FFFFFF" d="M198.7,37.7l-30.3,75.5h-15.9l-30.3-75.5h14.1c1.5,0,2.8,0.4,3.7,1.1c1,0.7,1.7,1.7,2.1,2.8L156.8,82
		c0.7,1.8,1.4,3.7,2.1,5.8c0.7,2.1,1.2,4.3,1.9,6.5c0.4-2.2,1-4.4,1.7-6.5c0.6-2.1,1.2-4,1.9-5.8l14.5-40.4c0.4-1,1.1-1.8,2.1-2.6
		s2.2-1.1,3.6-1.1h14.1L198.7,37.7L198.7,37.7z"/>
	<path fill="#FFFFFF" d="M276,75.4c0,5.5-1,10.5-2.8,15.2c-1.9,4.7-4.6,8.9-8,12.3c-3.5,3.5-7.6,6.2-12.3,8.2
		c-4.8,1.9-10.2,2.9-16.1,2.9c-5.8,0-11.2-1-16.1-2.9c-4.8-1.9-9-4.7-12.5-8.2s-6.1-7.6-8-12.3c-1.9-4.7-2.8-9.8-2.8-15.2
		s1-10.5,2.8-15.2c1.9-4.7,4.6-8.9,8-12.3c3.5-3.5,7.6-6.2,12.5-8.2s10.2-2.9,16.1-2.9c5.8,0,11.2,1,16.1,3c4.8,2.1,9,4.7,12.3,8.2
		c3.5,3.5,6.1,7.6,8,12.2C275,64.9,276,70,276,75.4z M258,75.4c0-3.7-0.6-7.1-1.4-10.1c-1-3-2.4-5.5-4.2-7.6s-4-3.6-6.6-4.8
		c-2.6-1.1-5.7-1.7-9-1.7c-3.5,0-6.4,0.6-9,1.7s-4.8,2.8-6.6,4.8c-1.8,2.1-3.2,4.6-4.2,7.6s-1.4,6.4-1.4,10.1s0.4,7.2,1.4,10.1
		c1,3,2.4,5.5,4.2,7.6s4,3.6,6.6,4.7s5.7,1.7,9,1.7s6.4-0.6,9-1.7s4.8-2.6,6.6-4.7s3.2-4.6,4.2-7.6C257.6,82.6,258,79.2,258,75.4z"
		/>
	<path fill="#FFFFFF" d="M348.2,113.2h-15.9c-2.9,0-5.1-1.1-6.4-3.3L313.5,88c-0.6-1-1.2-1.7-1.9-2.1c-0.7-0.4-1.8-0.7-3-0.7h-4.4
		v27.9h-17.6V37.7h24.6c5.5,0,10.1,0.6,14,1.7c3.9,1.1,7.1,2.6,9.4,4.7c2.5,2.1,4.2,4.4,5.3,7.1c1.1,2.8,1.7,5.7,1.7,9
		c0,2.5-0.3,4.8-1,6.9c-0.7,2.2-1.7,4.2-2.9,6.1c-1.2,1.8-2.9,3.5-4.7,5c-1.9,1.4-4,2.6-6.5,3.6c1.1,0.6,2.2,1.4,3.2,2.2
		c1,0.8,1.9,1.9,2.8,3.2L348.2,113.2z M311,73.2c2.4,0,4.4-0.3,6.1-1c1.7-0.6,3-1.4,4.2-2.5s1.8-2.4,2.4-3.7c0.4-1.4,0.7-3,0.7-4.7
		c0-3.3-1.1-5.9-3.2-7.7s-5.5-2.8-10.1-2.8H304v22.4H311z"/>
	<path fill="#FFFFFF" d="M372.2,113.2h-17.7V37.7h17.7V113.2z"/>
	<path fill="#FFFFFF" d="M441.2,51.5h-21.3v61.7h-17.6V51.5H381V37.7h60v13.8H441.2z"/>
	<path fill="#FFFFFF" d="M467.6,51.1v17.7h23.8v13h-23.8v18h31v13.6h-48.7V37.7h48.7v13.6h-31V51.1z"/>
	<path fill="#FFFFFF" d="M551.2,53c-0.6,0.8-1.1,1.5-1.7,1.9c-0.6,0.4-1.2,0.7-2.2,0.7c-0.8,0-1.7-0.3-2.6-0.7c-1-0.6-1.9-1.1-3-1.7
		c-1.1-0.7-2.5-1.2-4-1.7c-1.5-0.6-3.2-0.7-5.1-0.7c-3.3,0-5.7,0.7-7.3,2.1c-1.7,1.4-2.4,3.3-2.4,5.7c0,1.5,0.4,2.8,1.4,3.7
		c1,1,2.2,1.9,3.9,2.6c1.5,0.7,3.3,1.4,5.4,1.9s4.2,1.2,6.2,2.1c2.1,0.7,4.2,1.7,6.2,2.6c2.1,1,3.9,2.2,5.4,3.9
		c1.5,1.7,2.9,3.5,3.9,5.7s1.4,5,1.4,8c0,3.5-0.6,6.8-1.8,9.8s-2.9,5.7-5.3,8c-2.4,2.2-5.1,4-8.4,5.4s-7.2,1.9-11.5,1.9
		c-2.4,0-4.7-0.3-7.2-0.7c-2.5-0.6-4.8-1.1-7.1-2.1c-2.2-0.8-4.4-1.9-6.4-3.2c-2.1-1.2-3.7-2.6-5.3-4L509,96c0.4-0.6,1-1.1,1.7-1.5
		s1.4-0.6,2.2-0.6c1.1,0,2.1,0.3,3.2,1s2.2,1.4,3.6,2.2s2.9,1.5,4.6,2.2s3.7,1,6.1,1c3.2,0,5.7-0.7,7.5-2.1s2.6-3.6,2.6-6.6
		c0-1.8-0.6-3.2-1.4-4.3c-1-1.1-2.2-2.1-3.9-2.8s-3.3-1.4-5.4-1.9c-2.1-0.6-4-1.1-6.2-1.8c-2.1-0.7-4.2-1.5-6.2-2.5
		s-3.7-2.2-5.4-3.9c-1.7-1.7-2.9-3.6-3.9-6.1c-1-2.4-1.4-5.4-1.4-8.9c0-2.8,0.6-5.5,1.7-8.3s2.8-5.1,5-7.2c2.2-2.1,5-3.7,8.2-5.1
		c3.2-1.2,6.9-1.9,11.1-1.9c2.4,0,4.6,0.1,6.8,0.6s4.3,1,6.2,1.7s3.9,1.5,5.5,2.5s3.2,2.1,4.6,3.3L551.2,53z"/>
</g>
</svg>
