<?xml version="1.0" encoding="UTF-8" standalone="no"?>
<svg
   xmlns:dc="http://purl.org/dc/elements/1.1/"
   xmlns:cc="http://creativecommons.org/ns#"
   xmlns:rdf="http://www.w3.org/1999/02/22-rdf-syntax-ns#"
   xmlns:svg="http://www.w3.org/2000/svg"
   xmlns="http://www.w3.org/2000/svg"
   xmlns:sodipodi="http://sodipodi.sourceforge.net/DTD/sodipodi-0.dtd"
   xmlns:inkscape="http://www.inkscape.org/namespaces/inkscape"
   id="svg8"
   version="1.1"
   viewBox="0 0 108.05134 41.122172"
   height="155.42238"
   width="408.38303"
   sodipodi:docname="btmups.svg"
   inkscape:version="1.0 (4035a4fb49, 2020-05-01)">
  <sodipodi:namedview
     inkscape:document-rotation="0"
     pagecolor="#ffffff"
     bordercolor="#666666"
     borderopacity="1"
     objecttolerance="10"
     gridtolerance="10"
     guidetolerance="10"
     inkscape:pageopacity="0"
     inkscape:pageshadow="2"
     inkscape:window-width="700"
     inkscape:window-height="480"
     id="namedview14"
     showgrid="false"
     inkscape:pagecheckerboard="true"
     lock-margins="true"
     fit-margin-top="5"
     fit-margin-left="5"
     fit-margin-right="5"
     fit-margin-bottom="5"
     inkscape:zoom="2.6225"
     inkscape:cx="204.19148"
     inkscape:cy="77.169524"
     inkscape:window-x="-4"
     inkscape:window-y="5"
     inkscape:window-maximized="0"
     inkscape:current-layer="svg8" />
  <defs
     id="defs2" />
  <metadata
     id="metadata5">
    <rdf:RDF>
      <cc:Work
         rdf:about="">
        <dc:format>image/svg+xml</dc:format>
        <dc:type
           rdf:resource="http://purl.org/dc/dcmitype/StillImage" />
        <dc:title></dc:title>
      </cc:Work>
    </rdf:RDF>
  </metadata>
  <g
     transform="translate(1.1089962,-256.73846)"
     id="layer1">
    <path
       id="path837"
       d="m 15.473542,258.06138 10.95483,10.95482 h 52.975955 l 10.955464,-10.95482 z m 8.941661,1.30816 h 14.113055 l 1.526947,3.02545 -0.31677,1.86459 2.070706,1.60978 -0.794773,1.8393 h -8.260065 z m 15.759501,0 h 10.600757 l 0.230148,3.06656 h -4.235622 l 0.190314,0.78718 h 3.557191 l 0.20296,2.08462 h -3.281516 l 0.131514,0.54123 h 4.253957 c -0.673798,1.27556 -1.012014,1.85953 -1.071709,1.85953 h -6.850087 z m 14.739641,0 h 12.056258 l -4.111697,8.33912 h -4.119285 l 0.453343,-1.56932 h -1.930341 l -0.895306,1.56932 h -4.163542 z m 13.751392,0 h 12.752394 c -3.057463,2.12022 -4.469015,3.06656 -4.563145,3.06656 h -1.863951 l -4.575786,5.27256 h -4.118653 l 3.499019,-5.27256 h -2.823747 z m -36.048637,3.02545 2.768107,3.47437 h 1.953737 l -2.34575,-1.60978 -0.14226,-1.86459 z m 26.487979,0.0411 -0.802361,1.67047 h 1.47763 l 0.482429,-1.67047 z"
       style="fill:#ffffff;fill-opacity:1;stroke:none;stroke-width:0.323726px;stroke-linecap:butt;stroke-linejoin:miter;stroke-opacity:1" />
    <g
       style="fill:#ffffff"
       id="g979"
       transform="matrix(1.4863792,0,0,1.4863792,-26.571291,-137.42229)">
      <path
         id="path851"
         style="font-style:normal;font-variant:normal;font-weight:normal;font-stretch:normal;font-size:medium;line-height:1.25;font-family:Chlorinar;-inkscape-font-specification:Chlorinar;letter-spacing:0px;word-spacing:0px;fill:#ffffff;fill-opacity:1;stroke:none;stroke-width:0.424618"
         d="m 18.908939,281.96204 0.182092,-0.082 0.265805,-0.094 q 0.631932,-0.15342 1.219578,-0.43179 0.587647,-0.27842 1.197439,-0.49432 0.481496,-0.62795 1.176649,-1.05003 0.710789,-0.42759 1.41245,-0.7816 0.571039,-0.32533 1.195493,-0.5992 0.640089,-0.2794 1.324464,-0.43373 1.73682,-0.263 2.888136,1.00096 0.65719,1.21016 0.766161,2.56163 -0.05942,1.3231 -0.953281,1.78034 -0.878216,0.45168 -2.007189,0.3939 0.133829,0.42769 0.253963,0.96582 0.130233,0.51694 0.122371,0.94201 l 0.180442,0.11201 0.212977,0.45248 q 0.304464,0.85995 0.611548,1.57822 0.301548,0.70263 0.109255,1.65048 -0.228412,0.69671 -0.64669,1.05595 -0.40264,0.35371 -1.000387,0.6533 -0.311741,0.16316 -0.649216,0.35302 -0.321842,0.18434 -0.65019,0.30058 -0.646597,0.21134 -1.109451,0.14652 -0.468391,-0.0806 -1.052059,-0.43691 -0.758191,-0.99845 -0.945339,-2.32224 -0.18715,-1.32379 -0.445,-2.49938 -0.0028,-0.15727 -0.0058,-0.31465 0.01273,-0.16285 -0.0371,-0.30358 -0.544332,0.35107 -1.254443,0.5321 -0.648539,0.10647 -1.137129,0.0684 -0.478491,-0.0594 -1.037395,-0.49491 -0.355641,-0.50751 -0.629512,-1.13199 -0.26377,-0.64561 -0.427218,-1.25637 -0.152959,-1.17753 0.868594,-1.82074 z m 6.193697,6.41137 q 0.06642,0.18762 0.179763,0.35866 0.123426,0.14989 0.116263,0.32835 -0.01273,0.16285 -0.162571,0.28629 -0.134214,0.11792 -0.241721,0.26153 0.262601,-0.55046 0.108278,-1.23483 z m -0.658084,-4.94008 q 0.147229,0.0183 0.320191,0.009 0.183064,-0.0297 0.274256,0.0788 0.113331,0.17102 0.118192,0.43324 0.01493,0.24102 0.08692,0.44429 -0.268333,-0.60881 -0.79956,-0.9662 z m -4.437604,1.72945 q 0.06089,0.17199 0.328642,0.18278 0.267747,0.0116 0.466446,-0.0244 0.680784,-0.0649 1.27008,-0.53764 0.604931,-0.47811 1.201029,-0.58358 0.298047,-0.0529 0.299606,0.59775 0.01719,0.64494 0.311941,0.98048 0.05341,0.0516 0.153729,0.0863 0.110412,0.0144 0.18957,0.0385 -0.08634,0.15375 -0.225112,0.30846 -0.138772,0.1547 -0.104587,0.30095 0.216185,0.90883 0.350601,1.93455 0.128886,1.01012 0.529097,1.94172 0.09965,0.28145 0.544918,0.24698 0.455377,-0.0557 0.703603,-0.24911 0.383413,-0.2589 0.903952,-0.4784 0.515006,-0.23511 0.724482,-0.53802 0.351849,-0.54686 0.008,-1.26969 -0.328256,-0.72837 -0.560755,-1.38508 -0.04982,-0.14074 -0.233855,-0.16353 -0.173935,-0.044 -0.312034,-0.13593 0.0053,-0.28338 0.04176,-0.57784 0.03651,-0.29444 -0.0108,-0.57686 -0.292034,-1.32185 -0.749553,-2.51472 -0.04982,-0.14075 -0.209091,-0.24269 -0.149172,-0.12306 -0.2459,-0.24726 0.173934,0.044 0.370012,0.15054 0.190542,0.0908 0.37817,0.0244 0.684376,-0.15439 1.53647,-0.0337 0.852095,0.12075 1.32738,-0.27641 0.341068,-0.2791 0.138867,-0.99931 -0.186562,-0.72574 -0.341563,-1.16355 -0.148497,-0.36971 -0.628925,-0.53393 -0.470333,-0.1854 -0.857629,-0.13626 -0.753427,0.10828 -1.449552,0.47801 -0.680487,0.3641 -1.350878,0.70702 -0.457026,0.24978 -0.949886,0.54744 -0.482763,0.2765 -0.75284,0.70643 -0.147904,0.22833 0.0098,0.52442 0.152092,0.28048 0.22502,0.53618 -0.134503,-0.18111 -0.229585,-0.49936 -0.09507,-0.31826 -0.303875,-0.26192 -0.667768,0.20122 -1.353795,0.54969 -0.675923,0.32727 -1.397105,0.47702 -0.125085,0.0442 -0.280471,0.15214 -0.16092,0.0921 -0.143345,0.19151 0.07224,0.50229 0.284263,0.90231 0.212005,0.40001 0.393711,0.86354 z" />
      <path
         id="path853"
         style="font-style:normal;font-variant:normal;font-weight:normal;font-stretch:normal;font-size:medium;line-height:1.25;font-family:Chlorinar;-inkscape-font-specification:Chlorinar;letter-spacing:0px;word-spacing:0px;fill:#ffffff;fill-opacity:1;stroke:none;stroke-width:0.424618"
         d="m 30.759201,282.70858 q -0.341798,-0.96393 -0.624634,-2.05781 -0.282839,-1.09387 -0.133187,-2.13758 0.718993,-1.07123 2.00416,-1.15503 0.560272,-0.24548 1.172037,-0.31512 0.608567,-0.0859 1.180324,0.15662 0.262245,-0.64325 1.049831,-0.7644 0.803861,-0.12435 1.395623,-0.0378 0.09098,0.0328 0.481836,-0.1286 0.524254,-0.17077 0.894839,-0.0914 0.383659,0.0597 0.896985,0.26303 l 0.372466,0.51839 0.154756,0.44287 q 0.573667,1.71284 0.674839,3.68769 0.0093,0.13336 0.0021,0.35456 -0.01042,0.20492 0.05764,0.29295 l 0.122461,0.36471 q 0.158784,1.23662 0.285011,2.47963 0.139302,1.22353 0.278606,2.44707 l -0.517293,1.06533 q -0.279871,0.0382 -0.660591,0.0792 -0.38072,0.041 -0.634181,-0.0442 -0.182488,0.10352 -0.485302,0.19692 -1.318775,0.42852 -2.118932,-0.63118 l -0.02694,0.29267 -0.285453,0.78308 q -0.498373,0.21637 -0.879358,0.34205 -0.384188,0.10943 -0.894312,-0.0777 -0.840406,0.3682 -1.672557,0.17693 -0.83215,-0.19127 -1.154469,-1.14214 -0.611033,-2.24643 -0.913642,-4.29997 -0.03176,-0.24731 -0.05044,-0.51412 -0.02189,-0.28307 0.02774,-0.5464 z m 0.518821,-3.63516 q 0.03977,0.80361 0.248701,1.60774 0.208927,0.80412 0.476548,1.56289 0.0515,0.17581 0.220382,0.26091 0.185162,0.0818 0.344176,0.20276 -0.136862,0.0777 -0.345234,0.13561 -0.195295,0.0383 -0.166477,0.1849 0.09714,1.18111 0.343969,2.34969 0.263097,1.16537 0.568614,2.28858 0.06403,0.3255 0.412212,0.29081 0.204901,0.009 0.462094,-0.0571 0.25399,-0.0837 0.313213,-0.29828 0.08243,-0.35432 -0.07579,-0.72889 -0.14195,-0.37778 -0.212393,-0.73583 0.151819,0.34202 0.261215,0.72621 0.125676,0.38099 0.38501,0.66806 0.129673,0.14347 0.438358,0.25185 0.30869,0.10828 0.32229,-0.0802 0.07788,-0.97888 -0.114244,-1.95536 -0.195325,-0.99277 -0.286598,-1.97217 -0.02241,-0.11394 -0.01235,-0.23425 0.0069,-0.13658 0.01054,-0.28948 0.09072,0.11728 0.168357,0.25426 0.07444,0.12049 0.230519,0.14058 0.351108,0.0661 0.816934,-0.1438 0.462622,-0.22625 0.689409,0.0673 0.51174,0.71074 0.550986,1.68348 0.03605,0.95647 0.427196,1.74165 0.06457,0.15631 0.295616,0.12769 0.227845,-0.0448 0.403662,-0.0963 0.126988,-0.0419 0.221706,-0.16197 0.09151,-0.13625 0.205695,-0.24333 0.09739,0.0653 0.441824,0.18356 0.341238,0.10185 0.3351,-0.0144 -0.139832,-1.05439 -0.240449,-2.16719 -0.103814,-1.12911 -0.266327,-2.21283 -0.04483,-0.22784 -0.288154,-0.43353 -0.243326,-0.2057 -0.389005,-0.4306 -0.06803,-0.0881 -0.126203,-0.21185 -0.0451,-0.14331 -0.08698,-0.27025 0.184897,0.16647 0.437563,0.50555 0.252669,0.3391 0.256663,0.10159 -2.8e-5,-1.03117 -0.152926,-2.06608 -0.156104,-1.05119 -0.546728,-2.00551 -0.08724,-0.1857 -0.406336,-0.0891 -0.306015,0.077 -0.449551,0.20679 -0.159811,0.13288 -0.147534,0.3671 0.0091,0.21798 -0.02401,0.39353 -0.136075,-0.17608 -0.216651,-0.4138 -0.0675,-0.25719 -0.282016,-0.31641 -0.321761,-0.0887 -0.773985,-0.0674 -0.455425,0.005 -0.495435,0.31726 -0.132578,0.78679 0.190271,1.5685 0.335921,0.76222 0.522168,1.53701 -0.338565,0.0835 -0.686735,0.1183 -0.331898,0.0315 -0.605628,0.18678 -0.136863,0.0777 -0.117922,0.25987 0.01573,0.16594 0.0089,0.30255 -0.01332,0.10403 -0.02027,0.24065 0.006,0.11715 0.0091,0.21797 -0.04803,-0.24411 -0.08298,-0.50771 -0.03495,-0.2636 -0.11553,-0.50131 -0.119272,-0.34843 -0.31991,-0.68086 -0.203843,-0.3487 -0.27749,-0.72301 -0.01921,-0.0976 0.117652,-0.17529 0.153135,-0.0809 0.133925,-0.17849 -0.02829,-0.31563 -0.08246,-0.67686 -0.05738,-0.37753 -0.313772,-0.56375 -0.249994,-0.15374 -0.585359,-0.0539 -0.335361,0.0998 -0.605626,0.18677 -0.126988,0.0419 -0.218504,0.17822 -0.07843,0.11689 -0.163275,0.20117 -0.110463,-0.0459 -0.214243,-0.14379 -0.103789,-0.0979 -0.201436,-0.0786 -0.162746,0.0322 -0.380983,0.12563 -0.201965,0.0905 -0.173147,0.23694 z m 5.514015,3.02296 q 0.130202,-0.0257 0.283338,-0.10648 0.166212,-0.10031 0.269998,-0.003 0.233457,0.24145 0.303903,0.59948 0.08351,0.33857 0.212656,0.65126 -0.174497,-0.37138 -0.407688,-0.69741 -0.233191,-0.326 -0.662207,-0.44446 z" />
      <path
         id="path855"
         style="font-style:normal;font-variant:normal;font-weight:normal;font-stretch:normal;font-size:medium;line-height:1.25;font-family:Chlorinar;-inkscape-font-specification:Chlorinar;letter-spacing:0px;word-spacing:0px;fill:#ffffff;fill-opacity:1;stroke:none;stroke-width:0.424618"
         d="m 46.718893,274.79393 0.199725,-10e-4 q 0.747873,-0.0165 1.215998,0.19155 0.468125,0.20815 0.81513,0.92662 0.201608,0.58153 0.27216,1.37455 0.152751,0.21955 0.231356,0.72878 -0.01106,0.25075 -0.07779,0.62304 -0.05175,0.35431 -0.220247,0.51917 l 0.187262,0.23311 0.213718,0.53052 q 0.09112,1.02433 -0.180857,1.89777 0.291152,0.0907 0.472534,0.25771 0.179913,0.15054 0.398747,0.36418 0.470006,0.79079 0.421967,1.56107 -0.03299,0.75228 -0.27487,1.58975 -0.243353,0.82095 -0.865994,1.30931 -0.62264,0.48834 -1.517028,0.16825 -0.118578,-0.0228 -0.23718,-0.0454 -0.120056,-0.0394 -0.238648,-0.0621 -0.902091,-0.2195 -1.986624,-0.0563 -1.084532,0.1631 -1.951347,0.34012 -0.375581,0.0835 -0.733174,0.1818 -0.35906,0.0818 -0.739051,0.11573 -0.423325,-0.0789 -0.860231,-0.12332 -0.438375,-0.0609 -0.753044,-0.4159 l -0.233885,-0.19567 -0.201608,-0.58155 q -0.04239,-2.161 0.215554,-4.31543 -0.156812,-0.45231 -0.217421,-0.94648 -0.06209,-0.5107 -0.103236,-0.97329 -0.06503,-0.54374 -0.268456,-0.9586 -0.188377,-0.43284 -0.400626,-0.94684 -0.02541,-0.84699 0.250293,-1.30447 0.27569,-0.4575 0.967356,-0.91868 0.607235,-0.28714 1.48763,-0.49869 0.895449,-0.22953 1.56771,0.0271 0.457426,-0.47365 1.486163,-0.51523 1.043787,-0.0595 1.658018,-0.0809 z m -6.032314,3.13442 q 0.646624,1.09146 0.622105,2.12608 -0.0095,1.01663 0.34671,1.65103 0.06133,0.12769 0.170739,0.2346 0.109421,0.10686 0.188731,0.24964 -0.115646,0.009 -0.268751,-0.026 -0.13805,-0.0543 -0.132175,0.0116 -0.135402,0.91127 -0.19738,1.89926 -0.04692,0.96999 -0.01273,1.91614 0.0044,0.0496 0.109422,0.10686 0.103545,0.0408 0.165213,-0.0144 0.39722,-0.40168 1.129276,-0.7832 -0.192731,0.26694 -0.493762,0.62676 -0.302501,0.3433 -0.0095,0.26727 2.034307,-0.53067 3.539224,-0.64791 1.521438,-0.11882 2.741491,0.30563 0.139526,0.071 0.285627,-0.15856 0.162626,-0.23095 0.215484,-0.38552 0.142046,-0.46225 0.231596,-0.95313 0.104599,-0.50886 -0.05369,-0.97771 -0.109061,-0.29003 -0.461892,-0.32525 -0.337777,-0.0532 -0.606528,-0.0792 -0.417445,-0.0129 -1.217764,0.72447 -0.783797,0.73581 -1.569064,1.45511 0.356829,-0.48135 1.011041,-0.98916 0.669263,-0.5258 0.629579,-0.97188 -0.05915,-0.47766 -0.800024,-0.19526 -0.742345,0.26587 -1.218525,0.34154 -0.09619,0.0419 -0.201551,0.16779 -0.105358,0.12602 -0.12924,0.0448 -0.146522,-0.33665 -0.213365,-0.71372 -0.05178,-0.39503 -0.06907,-0.77651 -0.01029,-0.11573 0.08478,-0.35723 0.110128,-0.25957 0.153456,-0.14685 0.01316,0.14861 0.0305,0.53015 0.03382,0.38 0.427379,0.31168 0.591831,-0.086 1.324651,-0.0846 0.731351,-0.0144 1.25451,-0.31143 0.318669,-0.16157 0.408214,-0.65244 0.106065,-0.49235 0.164041,-0.96378 0.02163,-0.31832 -0.351768,-0.58483 -0.374877,-0.28305 -0.684373,-0.20555 -0.647627,0.20749 -1.329358,0.96752 -0.01029,-0.11574 0.05173,-0.35428 0.07708,-0.25665 -0.0099,-0.29886 -0.498227,-0.17216 -1.215234,0.19138 -0.701954,0.34552 -0.737583,0.13223 -0.05068,-0.19532 0.12511,-1.02691 0.19085,-0.84958 0.178738,-0.79856 0.449782,0.37629 1.119103,0.59983 0.669321,0.22354 1.132627,-0.18401 0.108302,-0.093 0.530507,-0.21372 0.422208,-0.12088 0.975116,-0.26994 0.0826,-0.008 0.06645,-0.18908 -0.01763,-0.19824 -0.08373,-0.19238 l -0.602472,0.15359 q 0.09178,-0.0914 0.276808,-0.25775 0.201549,-0.16781 0.189791,-0.29999 -0.03234,-0.36346 -0.113884,-0.90573 -0.08302,-0.55879 -0.429967,-0.52791 -0.743461,0.0661 -1.760087,0.0567 -1.001571,-0.0274 -1.239457,0.29345 l -0.579662,0.78425 q -0.214424,-0.16409 -0.400215,-0.38069 -0.170741,-0.23458 -0.406449,-0.26358 -0.587068,-0.0477 -1.617981,0.34377 -1.01586,0.37347 -0.662621,0.97482 z m 2.233909,2.64878 q -0.168096,0.731 0.123811,1.20459 0.308438,0.47212 0.642568,0.85869 0.152751,0.21955 -0.134694,0.54486 -0.2724,0.30733 -0.399044,0.56838 0.190143,-0.48319 0.180562,-0.96525 0.0054,-0.50004 -0.622754,-1.01032 -0.232417,-0.17915 -0.04704,-0.52868 0.200433,-0.36754 0.256582,-0.67227 z" />
      <path
         id="path857"
         style="font-style:normal;font-variant:normal;font-weight:normal;font-stretch:normal;font-size:medium;line-height:1.25;font-family:Chlorinar;-inkscape-font-specification:Chlorinar;letter-spacing:0px;word-spacing:0px;fill:#ffffff;fill-opacity:1;stroke:none;stroke-width:0.424618"
         d="m 52.350107,287.3419 q -0.727198,-0.0907 -1.26156,-0.49009 -0.84545,-0.028 -1.304118,-0.70726 -0.458114,-0.69567 -0.433276,-1.44165 0.06243,-0.37963 0.140874,-0.74214 0.07844,-0.36248 0.157453,-0.74156 0.259682,-0.82115 0.607221,-1.78873 0.34754,-0.96759 0.916674,-1.61247 l 0.03702,-0.11496 0.282884,-1.01952 0.150841,-0.54264 q 0.29339,-0.83662 0.789573,-1.78264 0.51276,-0.94549 1.419535,-1.26381 0.954298,-0.25036 1.972166,0.0823 1.018418,0.31603 1.536221,1.21285 l 0.106078,-0.19561 0.139238,-0.19451 q 0.363581,-0.45259 1.017277,-0.64656 0.653698,-0.19399 1.245518,-0.0248 1.541685,-0.44656 2.188813,1.05202 0.227135,0.6548 0.385199,1.3903 0.175195,0.71943 0.201745,1.41735 0.02983,0.10069 0.125432,0.21992 0.0956,0.11934 0.159153,0.20445 0.423304,0.74432 0.62779,1.58091 0.204487,0.8366 0.510093,1.62678 0.412816,1.05929 0.622839,2.22799 0.210575,1.15212 -0.683466,2.08491 -0.780779,0.52166 -1.509635,0.48081 -0.728304,-0.0575 -1.56713,-0.28453 -0.789095,-0.22543 -1.13448,-0.81779 -0.345386,-0.59235 -0.419459,-1.35822 -0.270223,-0.35751 -0.390149,-0.7432 -0.119928,-0.3857 -0.205037,-0.82002 -0.175159,0.27629 -0.671912,0.74102 l -0.636568,0.17796 q -0.711174,-0.0736 -1.185848,-0.27182 -0.474674,-0.19836 -0.85156,-0.84155 -0.22708,0.83882 -0.518814,1.62571 -0.291182,0.7703 -0.796215,1.4837 -0.676327,0.87365 -1.770441,0.83722 z m 1.621433,-10.81628 q -0.673016,0.77418 -0.972479,1.79316 -0.298909,1.0024 -0.564112,1.98931 -0.05636,0.19729 0.05252,0.41665 0.109422,0.2028 0.152525,0.40339 -0.164118,-0.0552 -0.375209,-0.19505 -0.210539,-0.15632 -0.281817,-0.009 -0.991264,1.85892 -1.308371,3.90624 -0.03979,0.19783 0.13375,0.46914 0.190098,0.27187 0.407261,0.22931 0.300602,-0.0563 0.460838,-0.38297 0.160788,-0.34314 0.367997,-0.58518 -0.09171,0.26246 -0.300583,0.55424 -0.191737,0.27575 -0.04916,0.47965 0.174073,0.25474 0.60067,0.40169 0.427151,0.13048 0.63436,-0.11175 0.570239,-0.67803 0.832131,-1.56549 0.27902,-0.90348 0.507205,-1.77546 0.02154,-0.14862 -0.124339,-0.25309 -0.145336,-0.12101 -0.223806,-0.25638 0.1818,0.0226 0.394548,0.11265 0.212745,0.09 0.332653,-0.0221 0.30833,-0.28845 0.439826,-0.74875 0.131503,-0.46031 0.3597,-0.83442 0.105538,-0.17904 0.292857,-0.32217 0.20445,-0.1592 0.375744,-0.3194 -0.0569,0.21385 -0.279592,0.42217 -0.22213,0.19176 -0.213833,0.44097 -0.01332,0.39786 0.271347,0.82222 0.285149,0.4078 0.474142,0.71282 0.109962,0.18623 0.264154,0.53988 0.15474,0.33706 0.719473,0.32267 0.298394,0.009 0.781863,-1.05269 0.484023,-1.07922 1.115622,-1.10798 0.215506,0.006 0.293997,0.64043 0.07903,0.61668 0.298981,0.98913 0.28294,0.47409 0.284061,0.93882 0.01825,0.44868 0.385734,0.87581 0.07956,0.10224 0.264686,0.0253 0.185113,-0.0769 0.337623,-0.17131 -0.106104,0.19562 -0.262461,0.40616 -0.139238,0.19451 -0.129289,0.394 -0.0072,0.2155 0.114952,0.53489 0.138708,0.31994 0.335983,0.3763 0.492908,0.14925 1.202426,0.27238 0.709519,0.12319 0.891301,-0.35203 0.309415,-0.81949 -0.10838,-1.72957 -0.401207,-0.90954 -0.621718,-1.76327 -0.179058,-0.60342 -0.357013,-1.23998 -0.177953,-0.63657 -0.559806,-1.13056 -0.127643,-0.15358 -0.365808,0.021 -0.237603,0.15809 -0.438189,0.20115 0.121573,-0.16191 0.308881,-0.30502 0.20445,-0.15921 0.211074,-0.35809 -0.02765,-0.66476 -0.182958,-1.48313 -0.155301,-0.81835 -0.400122,-1.44056 -0.07792,-0.15199 -0.311108,-0.12641 -0.232635,0.009 -0.335964,0.12165 -0.188977,0.19286 -0.164101,0.44262 0.04146,0.25032 0.03262,0.51556 -0.140922,-0.25363 -0.210558,-0.65425 -0.05306,-0.40006 -0.301724,-0.40835 -0.77914,-0.026 -0.87362,0.31942 -0.07735,0.32935 -0.403341,1.14829 -0.161894,0.37631 -0.260236,0.83772 -0.08176,0.46195 -0.388439,0.70068 -0.153617,0.12757 -0.207779,-0.23925 -0.05361,-0.3835 -0.234311,-0.4393 -0.164668,-0.0387 -0.303361,0.1393 -0.138146,0.16137 -0.290648,0.25586 0.05636,-0.19726 0.197256,-0.4415 0.14089,-0.24427 0.07955,-0.39566 -0.362514,-0.57633 -0.462549,-1.06095 -0.100034,-0.4846 -0.374125,-0.72606 -0.323269,-0.25971 -1.017315,-0.3492 -0.693493,-0.10609 -0.95209,0.18404 z m 1.311881,1.47092 q -0.269674,-0.37408 -0.647074,-0.005 -0.360268,0.35312 -0.745398,0.95434 0.211627,-0.37466 0.342571,-0.81839 0.14808,-0.45974 0.504483,-0.69681 0.152509,-0.0945 0.276296,0.17515 0.123785,0.26965 0.269122,0.39066 z" />
      <path
         id="path859"
         style="font-style:normal;font-variant:normal;font-weight:normal;font-stretch:normal;font-size:medium;line-height:1.25;font-family:Chlorinar;-inkscape-font-specification:Chlorinar;letter-spacing:0px;word-spacing:0px;fill:#ffffff;fill-opacity:1;stroke:none;stroke-width:0.424618"
         d="m 69.149287,280.92327 q -0.03228,-0.8386 -0.128248,-1.69576 -0.08005,-0.85251 0.06084,-1.69252 0.210435,-1.07891 0.945419,-1.34864 0.734982,-0.26976 1.697771,-0.0759 0.20703,0.0603 0.441277,0.14571 0.250173,0.09 0.43866,0.21407 0.6481,-0.20866 1.390551,-0.14796 0.747083,0.0447 1.294001,0.48037 0.503958,-0.54431 1.103077,-0.52538 0.599119,0.0189 1.226868,0.23624 0.09092,0.0438 0.181834,0.0874 0.111479,0.0324 0.202397,0.0762 0.364872,-0.0665 0.780953,0.10635 0.420716,0.15695 0.727334,0.34995 0.837008,0.74464 0.747326,1.82415 -0.08706,1.01117 -0.21122,2.14973 -0.124146,1.13857 -0.700274,1.99009 -0.02379,0.20038 -0.06813,0.41205 -0.03971,0.19574 -0.06349,0.39612 -0.217088,1.04242 -0.86215,2.01208 -0.629135,0.97427 -1.443534,1.6355 -0.235453,0.156 -0.742842,0.47474 -0.50739,0.31874 -0.728331,0.30625 l -0.02519,0.0273 q -0.758164,0.34938 -1.586082,0.52295 -0.811991,0.17822 -1.652009,0.0374 -1.317787,-0.27997 -2.146937,-1.22963 -0.808589,-0.96096 -1.057375,-2.24265 -0.185687,-1.1424 -0.01839,-2.25113 0.171931,-1.12466 0.195895,-2.27513 z m 2.046297,-0.97634 q 0.306409,-0.22175 0.529758,-0.69226 0.239277,-0.46588 0.394286,-0.939 0.152991,-0.52555 -0.265103,-0.75091 -0.272752,-0.13128 -0.800913,-0.21589 -0.52816,-0.0847 -0.606976,0.18608 -0.268899,0.92367 -0.06789,2.19147 0.221571,1.25649 0.01106,2.3354 -0.02782,0.0956 0.158656,0.1671 0.186472,0.0716 0.190505,0.17638 -0.01652,0.11599 -0.194328,0.13353 -0.157244,0.006 -0.169131,0.10622 -0.186441,1.29319 -0.110811,2.5763 0.09153,1.28773 1.424867,2.10777 0.667667,0.43623 1.497601,0.31504 0.845861,-0.1165 1.505852,-0.42538 0.114102,-0.0359 0.128613,-0.20441 0.01915,-0.18445 0.137873,-0.23627 0.06169,-0.0338 0.124776,0.10545 0.07902,0.14395 0.156633,0.11471 1.83141,-0.83159 2.610497,-3.09242 0.0649,-0.22296 0.08204,-0.45982 0.02176,-0.25281 0.08667,-0.47575 0.07417,-0.25481 -0.402172,-0.22073 -0.47635,0.0341 -0.914408,-0.30075 0.670077,-0.0468 1.006529,0.10301 0.34109,0.13384 0.543275,-0.20463 0.459402,-0.74729 0.523287,-1.67883 0.06389,-0.93154 0.170907,-1.83324 0.05221,-0.41669 -0.256433,-0.66201 -0.415478,-0.2937 -0.744466,-0.11316 -0.328987,0.18062 -0.448925,0.47394 -0.09938,0.28202 -0.554355,0.59872 0.09332,-0.43925 0.292291,-0.58864 0.219525,-0.16066 0.302976,-0.44732 0.05564,-0.19111 -0.262875,-0.28384 -0.238884,-0.0694 -0.520908,-0.16892 -0.277386,-0.11522 -0.4445,0.0433 -0.279194,0.24694 -0.347321,0.65898 -0.06813,0.41205 -0.133636,0.75577 -0.174761,0.77834 -0.201556,1.58247 -0.0268,0.80413 -0.265257,1.56392 -0.25237,0.80756 -0.663996,1.56877 -0.40699,0.74527 -0.852485,1.44481 -0.188277,0.29068 -0.548302,0.75595 -0.339466,0.45398 -0.440467,0.14813 -0.130235,-0.3834 0.377157,-0.70214 0.512024,-0.33464 0.377155,-0.70213 -0.18668,-0.48623 -0.34151,-0.96319 -0.1389,-0.4723 0.01611,-0.94543 0.125174,-0.43 0.284825,-0.91906 0.175573,-0.48442 0.10964,-0.97004 -0.03327,-0.18244 -0.441278,-0.14571 -0.38745,0.0253 -0.266098,-0.0947 0.160454,-0.19513 0.598306,-0.27497 0.437848,-0.0797 0.60475,-0.65314 0.120545,-0.41408 0.266279,-0.85536 0.166302,-0.45257 0.09111,-0.90634 -0.03529,-0.23484 -0.274167,-0.30439 -0.234247,-0.0855 -0.471113,-0.10249 -0.378178,-0.006 -0.756959,0.10789 -0.378781,0.11433 -0.610198,0.37518 -0.265888,0.31992 -0.261042,0.71867 0.0095,0.3828 -0.203993,0.70071 -0.128613,0.20441 -0.197548,0.32255 -0.04839,0.10686 -0.563235,0.0952 z" />
      <path
         id="path861"
         style="font-style:normal;font-variant:normal;font-weight:normal;font-stretch:normal;font-size:medium;line-height:1.25;font-family:Chlorinar;-inkscape-font-specification:Chlorinar;letter-spacing:0px;word-spacing:0px;fill:#ffffff;fill-opacity:1;stroke:none;stroke-width:0.424618"
         d="m 79.398417,282.80301 q 0.278635,-0.768 0.654107,-1.50764 0.390407,-0.73245 0.75094,-1.47931 0.977568,-1.71986 2.788064,-1.15899 0.715443,0.23486 1.256282,0.71695 0.068,0.0881 0.44812,0.21632 0.560923,0.32603 1.116698,0.81534 0.570713,0.49652 0.927158,1.05536 0.463057,0.22352 0.825163,0.65618 0.377045,0.43987 0.57639,0.90446 0.374492,1.32269 0.02376,2.77419 -0.250296,1.20528 -1.001768,2.11337 -0.751469,0.90808 -1.827445,1.4201 -1.06207,0.44504 -1.962423,0.24986 -0.900353,-0.1952 -1.871278,-0.6639 l -0.09166,0.34253 -0.156057,0.51406 q -0.323448,0.74635 -0.876618,1.51072 l -0.580477,0.40127 -0.726254,0.0545 q -0.863783,-0.23278 -1.450981,-0.84777 l -0.0443,0.0161 q -0.608301,0.001 -0.95907,-0.1499 -0.335831,-0.14363 -0.757172,-0.5681 l -0.216346,-0.62015 q 0.05612,-0.76487 0.322919,-1.31756 0.383714,-0.68042 0.722615,-1.38249 0.346113,-0.71698 0.729825,-1.3974 0.252373,-0.52281 0.498052,-0.99359 0.245678,-0.47078 0.625277,-0.91375 0.04945,-0.17873 0.106091,-0.37241 0.06386,-0.20859 0.150391,-0.38784 z m -1.376657,5.56076 q -0.122577,0.25394 -0.282247,0.50839 -0.159668,0.25444 -0.141116,0.52124 0.0015,0.11124 0.165343,0.15343 0.17873,0.0494 0.304409,0.018 0.265775,-0.0927 0.485707,-0.28125 0.242079,-0.19624 0.499614,-0.34819 -0.04172,0.20088 -0.127734,0.41721 -0.0788,0.20139 0.02731,0.36312 0.174101,0.24982 0.534144,0.53413 0.360042,0.2843 0.56452,0.0516 0.576351,-0.69794 0.733941,-1.63485 0.1648,-0.95187 0.568598,-1.78836 0.424912,-0.91837 0.826646,-1.90322 0.423881,-0.99255 1.185658,-1.69307 0.248774,-0.24827 0.609849,0.11021 0.368286,0.34355 0.725234,0.40535 0.156072,0.0201 0.303377,-0.0562 0.169457,-0.084 0.33943,-0.13081 -0.0721,0.14942 -0.189025,0.27712 -0.101989,0.13496 -0.08498,0.29051 -0.0046,0.20037 0.183374,0.3832 0.202944,0.19007 0.146299,0.38374 -0.121548,0.3281 -0.369292,0.65054 -0.225594,0.31472 -0.551119,0.3786 -0.384757,0.072 -0.744801,-0.2122 -0.337896,-0.29204 -0.70978,-0.36104 -0.356948,-0.0617 -0.60469,0.26064 -0.203963,0.2699 -0.399682,0.59903 -0.19572,0.32914 -0.131839,0.65467 0.05616,0.30338 0.340991,0.51454 0.292053,0.19625 0.560924,0.32603 0.396096,0.20962 0.865849,0.38114 0.46975,0.17151 0.936921,0.1576 0.778791,-0.0116 1.5416,-0.63718 0.366724,-0.30184 0.680394,-0.68455 0.313671,-0.38271 0.470758,-0.82258 0.191592,-0.62582 0.271411,-1.28718 0.08703,-0.67629 -0.04794,-1.3124 -0.08653,-0.35488 -0.401772,-0.61757 -0.300293,-0.25546 -0.613977,-0.4069 -0.13444,-0.0648 -0.243628,0.085 -0.09426,0.15711 -0.189542,0.24004 0.01956,-0.19316 0.105577,-0.4095 0.100947,-0.20911 -0.01234,-0.35591 -0.369835,-0.45479 -0.835472,-0.86376 -0.458425,-0.42389 -1.002347,-0.59438 -0.230754,-0.0562 -0.248258,0.28536 -0.01752,0.3415 -0.08909,0.52796 0.0041,-0.23745 0.08909,-0.52796 0.107119,-0.29823 -0.07366,-0.49601 -0.270934,-0.27812 -0.688663,-0.44294 -0.417728,-0.16482 -0.779823,-0.0634 -0.347157,0.10866 -0.520212,0.46718 -0.150905,0.35078 -0.302333,0.66447 -0.390407,0.73244 -0.765878,1.47208 -0.360533,0.74686 -0.557271,1.53598 -0.04996,0.14171 0.136493,0.21323 0.193669,0.0567 0.320895,0.13642 -0.192638,0.0175 -0.415666,-0.0165 -0.208091,-0.0267 -0.302861,0.0932 -0.350756,0.38321 -0.57377,0.88337 -0.223015,0.50013 -0.461483,0.95598 -0.282247,0.50838 -0.549558,1.02397 -0.267312,0.51561 -0.512474,1.02347 z m 7.457714,-1.4465 q -0.294618,0.15245 -0.565541,0.40845 -0.255984,0.26322 -0.62066,0.17926 -0.446569,-0.10506 -0.793223,-0.49341 -0.331718,-0.38115 -0.706699,-0.67267 0.38837,0.18748 0.76232,0.40483 0.396096,0.20962 0.82773,0.30747 0.282776,0.0629 0.541341,-0.0144 0.280715,-0.0855 0.554732,-0.11895 z" />
    </g>
  </g>
</svg>
