<?xml version="1.0" encoding="utf-8"?>
<!-- Generator: Adobe Illustrator 21.1.0, SVG Export Plug-In . SVG Version: 6.00 Build 0)  -->
<svg version="1.0" id="Ebene_1" xmlns:svg="http://www.w3.org/2000/svg"
	 xmlns="http://www.w3.org/2000/svg" xmlns:xlink="http://www.w3.org/1999/xlink" x="0px" y="0px" width="548.5px" height="187.3px"
	 viewBox="0 0 548.5 187.3" enable-background="new 0 0 548.5 187.3" xml:space="preserve">
<g>
	<path fill="#FFFFFF" d="M371.8,86.9c-5.4,0-6,0.8-6.4,3.1h13.4C378.6,87.2,377.8,86.9,371.8,86.9z"/>
	<path fill="#FFFFFF" d="M309.1,87.8c-5.8,0-6.8,0.6-6.8,5c0,4.7,0.8,5.4,7.6,5.4c6.2,0,7-0.8,7-5.4C316.9,88,315.7,87.8,309.1,87.8
		z"/>
	<path fill="#FFFFFF" d="M430.2,96.6c-0.8-0.2-2.3-0.4-4.7-0.4h-3c-2.3,0-3.9,0.2-4.7,0.4c-0.8,0.2-1.2,1-1.2,2.1v3.1
		c0,1.2,0.4,1.9,1.2,2.1c0.8,0.2,2.3,0.4,4.7,0.4h3.1c2.3,0,3.9-0.2,4.7-0.4c0.8-0.2,1-1,1-2.1v-3.1C431.4,97.5,431,96.8,430.2,96.6
		z"/>
	<path fill="#FFFFFF" d="M275.1,87.6c-6.6,0-8.7,0.2-8.7,5.4c0,4.5,1.7,4.7,8,4.7c6.4,0,6.6-0.6,6.6-5.8
		C281.1,88.2,279.6,87.6,275.1,87.6z"/>
	<path fill="#FFFFFF" d="M236.9,87.8c-5.8,0-6.8,0.6-6.8,5c0,4.7,0.8,5.4,7.6,5.4c6.2,0,7-0.8,7-5.4C244.6,88,243.5,87.8,236.9,87.8
		z"/>
	<path fill="#FFFFFF" d="M501.1,52.9H47.4c-22.3,0-40.8,18.2-40.8,40.8c0,22.3,18.2,40.8,40.8,40.8H501c22.3,0,40.8-18.2,40.8-40.8
		S523.4,52.9,501.1,52.9z M59.7,104.5c-11.8,0-14.6-2.1-14.6-11.5S48,81.5,60.6,81.5c11.3,0,13.4,1.7,14,9.3h-8
		c-0.6-2.1-1.4-2.7-6-2.7c-6.4,0-7.6,0-7.6,4.3s1.2,5.6,6.6,5.6c6.2,0,7-1,7-3.1h8C74.6,102.8,72.1,104.5,59.7,104.5z M95,104.5
		c-13.2,0-15.5-1.9-15.5-11.4c0-9.3,1.7-11.5,15.5-11.5c12.8,0,15.3,1.7,15.3,10.9C110.3,102.2,109,104.5,95,104.5z M162.9,103.7h-8
		V92.1c0-3.1-1.7-4.3-5.4-4.3c-3.9,0-6.4,1-6.4,4.3v11.6h-8.2V93.5c0-4.3-1.2-5.6-5.4-5.6c-4.5,0-6.2,1.2-6.2,4.5v11.5h-8V81.6h7.6
		v5.2c1-3.7,2.7-5.6,8.7-5.6c6.4,0,8.7,1.9,10.3,4.9c0.8-2.5,3.1-4.9,9.5-4.9c7.4,0,11.5,3.1,11.5,9.5L162.9,103.7L162.9,103.7z
		 M216.7,103.7h-8V92.1c0-3.1-1.7-4.3-5.4-4.3c-3.9,0-6.2,1-6.2,4.3v11.6h-8.2V93.5c0-4.3-1.2-5.6-5.4-5.6c-4.1,0-6,1.2-6,4.5v11.5
		h-8V81.6h7.6v5.2c1.2-3.7,2.7-5.6,8.5-5.6c6.4,0,8.7,1.9,10.3,4.9c1-2.7,3.1-4.9,9.5-4.9c7.4,0,11.5,3.1,11.5,9.5v13H216.7z
		 M237.5,104.5c-13.2,0-15.5-1.9-15.5-11.5c0-9.3,1.7-11.6,15.5-11.6c12.8,0,15.5,1.7,15.5,10.9C253,102.2,251.4,104.5,237.5,104.5z
		 M289.3,103.7h-8v-4.1c-1.6,2.9-3.5,4.5-10.1,4.5c-10.3,0-13.2-2.5-13.2-11.5c0-8.7,1.9-11.5,12.6-11.5c6.6,0,8.3,1.4,10.3,3.9
		V72.3h8.3v31.4C289.2,103.7,289.3,103.7,289.3,103.7z M309.7,104.5c-13,0-15.3-1.9-15.3-11.5c0-9.3,1.7-11.5,15.3-11.5
		c12.8,0,15.3,1.7,15.3,10.9C325,102.2,323.7,104.5,309.7,104.5z M347.5,91.5c-0.2-2.9-1-3.9-4.3-3.9s-5.2,1.6-5.2,4.5v11.5h-8.2
		v-22h7.8v4.3c1.7-3.7,3.5-4.7,8.3-4.7c8,0,9.1,2.9,9.1,10.3C355.1,91.5,347.5,91.5,347.5,91.5z M370.6,104.5
		c-9.7-0.2-13.2-2.3-13.2-11.3c0-9.5,2.7-11.6,14.8-11.6c14.2,0,14.2,2.5,14.6,13.2h-21.2c0,3.9,1.2,4.5,8.9,4.5
		c3.3,0,4.1-0.8,4.3-2.5h7.8C386.7,103.9,381.5,104.5,370.6,104.5z M447.3,102.2L447.3,102.2c0,7.6-6.6,11.3-20,11.3h-6.8
		c-7.6,0-12.6-1.4-15.5-3.9s-4.3-7-4.3-13.4v-8.3c0-6.4,1.4-10.7,4.3-13.4c2.9-2.5,8.2-3.9,15.5-3.9h6.8c6.2,0,10.9,0.8,14,2.5
		s4.7,4.1,4.7,7.4v3.1h-15.9v-1.2c0-1-0.2-1.7-0.8-1.9c-0.6-0.4-1.7-0.4-3.5-0.4h-3.9c-2.1,0-3.5,0.2-4.1,0.6s-1,1.2-1,2.5V89
		c2.3-1.4,5.2-1.9,8.5-1.9h5.6c5.6,0,9.7,1,12.4,2.9c2.5,1.9,3.9,4.9,3.9,8.7L447.3,102.2L447.3,102.2z M505.1,105.3h-6.8v7.8h-15.9
		v-7.8h-28.9V93.8l22.9-22.7h21.9V96h6.8V105.3z"/>
	<polygon fill="#FFFFFF" points="482.2,96 482.2,82 468.5,96 	"/>
	<path fill="#FFFFFF" d="M94.4,87.8c-5.6,0-6.6,0.6-6.6,5c0,4.7,0.8,5.4,7.4,5.4c6.2,0,7-0.8,7-5.4C102.2,88,100.8,87.8,94.4,87.8z"
		/>
</g>
</svg>
