<?xml version="1.0" encoding="UTF-8" standalone="no"?>
<svg
   xmlns:dc="http://purl.org/dc/elements/1.1/"
   xmlns:cc="http://creativecommons.org/ns#"
   xmlns:rdf="http://www.w3.org/1999/02/22-rdf-syntax-ns#"
   xmlns:svg="http://www.w3.org/2000/svg"
   xmlns="http://www.w3.org/2000/svg"
   xmlns:sodipodi="http://sodipodi.sourceforge.net/DTD/sodipodi-0.dtd"
   xmlns:inkscape="http://www.inkscape.org/namespaces/inkscape"
   version="1.0"
   id="Ebene_1"
   x="0px"
   y="0px"
   width="545.20001"
   height="91.599998"
   viewBox="0 0 545.20001 91.6"
   enable-background="new 0 0 548.5 187.3"
   xml:space="preserve"
   sodipodi:docname="c64.svg"
   inkscape:version="1.0 (4035a4fb49, 2020-05-01)"><metadata
     id="metadata25"><rdf:RDF><cc:Work
         rdf:about=""><dc:format>image/svg+xml</dc:format><dc:type
           rdf:resource="http://purl.org/dc/dcmitype/StillImage" /><dc:title></dc:title></cc:Work></rdf:RDF></metadata><defs
     id="defs23" /><sodipodi:namedview
     pagecolor="#ffffff"
     bordercolor="#666666"
     borderopacity="1"
     objecttolerance="10"
     gridtolerance="10"
     guidetolerance="10"
     inkscape:pageopacity="0"
     inkscape:pageshadow="2"
     inkscape:window-width="712"
     inkscape:window-height="480"
     id="namedview21"
     showgrid="false"
     fit-margin-top="5"
     fit-margin-left="5"
     fit-margin-right="5"
     fit-margin-bottom="5"
     inkscape:zoom="0.49772106"
     inkscape:cx="-26.691574"
     inkscape:cy="40.85"
     inkscape:window-x="0"
     inkscape:window-y="0"
     inkscape:window-maximized="0"
     inkscape:current-layer="Ebene_1"
     inkscape:document-rotation="0"
     inkscape:pagecheckerboard="true"
     lock-margins="true" /><g
     id="g18"
     transform="translate(-1.6,-47.9)"><path
       d="m 371.8,86.9 c -5.4,0 -6,0.8 -6.4,3.1 h 13.4 c -0.2,-2.8 -1,-3.1 -7,-3.1 z"
       id="path2"
       inkscape:connector-curvature="0"
       style="fill:#ffffff" /><path
       d="m 309.1,87.8 c -5.8,0 -6.8,0.6 -6.8,5 0,4.7 0.8,5.4 7.6,5.4 6.2,0 7,-0.8 7,-5.4 0,-4.8 -1.2,-5 -7.8,-5 z"
       id="path4"
       inkscape:connector-curvature="0"
       style="fill:#ffffff" /><path
       d="m 430.2,96.6 c -0.8,-0.2 -2.3,-0.4 -4.7,-0.4 h -3 c -2.3,0 -3.9,0.2 -4.7,0.4 -0.8,0.2 -1.2,1 -1.2,2.1 v 3.1 c 0,1.2 0.4,1.9 1.2,2.1 0.8,0.2 2.3,0.4 4.7,0.4 h 3.1 c 2.3,0 3.9,-0.2 4.7,-0.4 0.8,-0.2 1,-1 1,-2.1 v -3.1 c 0.1,-1.2 -0.3,-1.9 -1.1,-2.1 z"
       id="path6"
       inkscape:connector-curvature="0"
       style="fill:#ffffff" /><path
       d="m 275.1,87.6 c -6.6,0 -8.7,0.2 -8.7,5.4 0,4.5 1.7,4.7 8,4.7 6.4,0 6.6,-0.6 6.6,-5.8 0.1,-3.7 -1.4,-4.3 -5.9,-4.3 z"
       id="path8"
       inkscape:connector-curvature="0"
       style="fill:#ffffff" /><path
       d="m 236.9,87.8 c -5.8,0 -6.8,0.6 -6.8,5 0,4.7 0.8,5.4 7.6,5.4 6.2,0 7,-0.8 7,-5.4 -0.1,-4.8 -1.2,-5 -7.8,-5 z"
       id="path10"
       inkscape:connector-curvature="0"
       style="fill:#ffffff" /><path
       d="M 501.1,52.9 H 47.4 c -22.3,0 -40.8,18.2 -40.8,40.8 0,22.3 18.2,40.8 40.8,40.8 H 501 c 22.3,0 40.8,-18.2 40.8,-40.8 0,-22.6 -18.4,-40.8 -40.7,-40.8 z M 59.7,104.5 c -11.8,0 -14.6,-2.1 -14.6,-11.5 0,-9.4 2.9,-11.5 15.5,-11.5 11.3,0 13.4,1.7 14,9.3 h -8 c -0.6,-2.1 -1.4,-2.7 -6,-2.7 -6.4,0 -7.6,0 -7.6,4.3 0,4.3 1.2,5.6 6.6,5.6 6.2,0 7,-1 7,-3.1 h 8 c 0,7.9 -2.5,9.6 -14.9,9.6 z m 35.3,0 c -13.2,0 -15.5,-1.9 -15.5,-11.4 0,-9.3 1.7,-11.5 15.5,-11.5 12.8,0 15.3,1.7 15.3,10.9 0,9.7 -1.3,12 -15.3,12 z m 67.9,-0.8 h -8 V 92.1 c 0,-3.1 -1.7,-4.3 -5.4,-4.3 -3.9,0 -6.4,1 -6.4,4.3 v 11.6 h -8.2 V 93.5 c 0,-4.3 -1.2,-5.6 -5.4,-5.6 -4.5,0 -6.2,1.2 -6.2,4.5 v 11.5 h -8 V 81.6 h 7.6 v 5.2 c 1,-3.7 2.7,-5.6 8.7,-5.6 6.4,0 8.7,1.9 10.3,4.9 0.8,-2.5 3.1,-4.9 9.5,-4.9 7.4,0 11.5,3.1 11.5,9.5 z m 53.8,0 h -8 V 92.1 c 0,-3.1 -1.7,-4.3 -5.4,-4.3 -3.9,0 -6.2,1 -6.2,4.3 v 11.6 h -8.2 V 93.5 c 0,-4.3 -1.2,-5.6 -5.4,-5.6 -4.1,0 -6,1.2 -6,4.5 v 11.5 h -8 V 81.6 h 7.6 v 5.2 c 1.2,-3.7 2.7,-5.6 8.5,-5.6 6.4,0 8.7,1.9 10.3,4.9 1,-2.7 3.1,-4.9 9.5,-4.9 7.4,0 11.5,3.1 11.5,9.5 v 13 z m 20.8,0.8 c -13.2,0 -15.5,-1.9 -15.5,-11.5 0,-9.3 1.7,-11.6 15.5,-11.6 12.8,0 15.5,1.7 15.5,10.9 0,9.9 -1.6,12.2 -15.5,12.2 z m 51.8,-0.8 h -8 v -4.1 c -1.6,2.9 -3.5,4.5 -10.1,4.5 -10.3,0 -13.2,-2.5 -13.2,-11.5 0,-8.7 1.9,-11.5 12.6,-11.5 6.6,0 8.3,1.4 10.3,3.9 V 72.3 h 8.3 v 31.4 c 0,0 0.1,0 0.1,0 z m 20.4,0.8 c -13,0 -15.3,-1.9 -15.3,-11.5 0,-9.3 1.7,-11.5 15.3,-11.5 12.8,0 15.3,1.7 15.3,10.9 0,9.8 -1.3,12.1 -15.3,12.1 z m 37.8,-13 c -0.2,-2.9 -1,-3.9 -4.3,-3.9 -3.3,0 -5.2,1.6 -5.2,4.5 v 11.5 h -8.2 v -22 h 7.8 v 4.3 c 1.7,-3.7 3.5,-4.7 8.3,-4.7 8,0 9.1,2.9 9.1,10.3 0.1,0 -7.5,0 -7.5,0 z m 23.1,13 c -9.7,-0.2 -13.2,-2.3 -13.2,-11.3 0,-9.5 2.7,-11.6 14.8,-11.6 14.2,0 14.2,2.5 14.6,13.2 h -21.2 c 0,3.9 1.2,4.5 8.9,4.5 3.3,0 4.1,-0.8 4.3,-2.5 h 7.8 c 0.1,7.1 -5.1,7.7 -16,7.7 z m 76.7,-2.3 v 0 c 0,7.6 -6.6,11.3 -20,11.3 h -6.8 c -7.6,0 -12.6,-1.4 -15.5,-3.9 -2.9,-2.5 -4.3,-7 -4.3,-13.4 v -8.3 c 0,-6.4 1.4,-10.7 4.3,-13.4 2.9,-2.5 8.2,-3.9 15.5,-3.9 h 6.8 c 6.2,0 10.9,0.8 14,2.5 3.1,1.7 4.7,4.1 4.7,7.4 v 3.1 h -15.9 v -1.2 c 0,-1 -0.2,-1.7 -0.8,-1.9 -0.6,-0.4 -1.7,-0.4 -3.5,-0.4 h -3.9 c -2.1,0 -3.5,0.2 -4.1,0.6 -0.6,0.4 -1,1.2 -1,2.5 V 89 c 2.3,-1.4 5.2,-1.9 8.5,-1.9 h 5.6 c 5.6,0 9.7,1 12.4,2.9 2.5,1.9 3.9,4.9 3.9,8.7 z m 57.8,3.1 h -6.8 v 7.8 h -15.9 v -7.8 H 453.5 V 93.8 l 22.9,-22.7 h 21.9 V 96 h 6.8 z"
       id="path12"
       inkscape:connector-curvature="0"
       style="fill:#ffffff" /><polygon
       points="482.2,82 468.5,96 482.2,96 "
       id="polygon14"
       style="fill:#ffffff" /><path
       d="m 94.4,87.8 c -5.6,0 -6.6,0.6 -6.6,5 0,4.7 0.8,5.4 7.4,5.4 6.2,0 7,-0.8 7,-5.4 0,-4.8 -1.4,-5 -7.8,-5 z"
       id="path16"
       inkscape:connector-curvature="0"
       style="fill:#ffffff" /></g></svg>
