<?xml version="1.0" encoding="UTF-8" standalone="no"?>
<!-- Generator: Adobe Illustrator 16.0.3, SVG Export Plug-In . SVG Version: 6.00 Build 0)  -->

<svg
   xmlns:dc="http://purl.org/dc/elements/1.1/"
   xmlns:cc="http://creativecommons.org/ns#"
   xmlns:rdf="http://www.w3.org/1999/02/22-rdf-syntax-ns#"
   xmlns:svg="http://www.w3.org/2000/svg"
   xmlns="http://www.w3.org/2000/svg"
   xmlns:sodipodi="http://sodipodi.sourceforge.net/DTD/sodipodi-0.dtd"
   xmlns:inkscape="http://www.inkscape.org/namespaces/inkscape"
   id="Ebene_1"
   enable-background="new 0 0 566.929 87.964"
   xml:space="preserve"
   height="70.467628"
   viewBox="0 0 343.17702 70.46728"
   width="343.17691"
   version="1.1"
   y="0px"
   x="0px"
   sodipodi:docname="coco.svg"
   inkscape:version="0.92.2 (unknown)"><defs
     id="defs21" /><sodipodi:namedview
     pagecolor="#ffffff"
     bordercolor="#666666"
     borderopacity="1"
     objecttolerance="10"
     gridtolerance="10"
     guidetolerance="10"
     inkscape:pageopacity="0"
     inkscape:pageshadow="2"
     inkscape:window-width="1920"
     inkscape:window-height="1031"
     id="namedview19"
     showgrid="false"
     fit-margin-top="0"
     fit-margin-left="0"
     fit-margin-right="0"
     fit-margin-bottom="0"
     inkscape:pagecheckerboard="true"
     inkscape:zoom="1.588872"
     inkscape:cx="21.05644"
     inkscape:cy="28.044677"
     inkscape:window-x="0"
     inkscape:window-y="0"
     inkscape:window-maximized="1"
     inkscape:current-layer="Ebene_1" /><metadata
     id="metadata61"><rdf:RDF><cc:Work
         rdf:about=""><dc:format>image/svg+xml</dc:format><dc:type
           rdf:resource="http://purl.org/dc/dcmitype/StillImage" /><dc:title /></cc:Work></rdf:RDF></metadata><g
     id="g4569"
     transform="matrix(0.81916268,0,0,0.81916268,-0.46255577,-1.8496154e-4)"
     style="display:inline;fill:#ffffff;fill-opacity:1;stroke:none"><path
       id="path3999-4"
       d="m 333.43,86.024 h 34.396 L 419.501,0 h -34.384 l -51.69,86.024"
       inkscape:connector-curvature="0"
       style="display:inline;fill:#ffffff;fill-opacity:1;stroke:none" /><path
       id="path3912-8"
       d="m 135,23.469 v 46.875 h 28.125 c 8.7494,-1.435 13.753,-6.3365 15.656,-14.062 0.0175,-6.2553 0.003,-12.495 0,-18.75 -1.9033,-7.726 -6.9069,-12.627 -15.656,-14.062 H 135 Z m 11,9.4062 h 12.469 c 3.9161,0.69463 7.6321,1.9226 9.4062,7.8125 l -0.0312,12.5 c -1.7896,5.8814 -5.4902,7.1179 -9.4063,7.8125 h -12.469 l 0.0312,-28.125 z"
       inkscape:connector-curvature="0"
       style="fill:#ffffff;fill-opacity:1;stroke:none;stroke-width:1.11043465px;stroke-linecap:butt;stroke-linejoin:miter" /><path
       id="path3896"
       d="M 14.64,70.354 V 34.428 H 0.569 L 0.564669,23.493 h 43.78 l -4.6933,10.935 -10.944,0.0043 v 35.921 l -14.067,3.7e-5"
       inkscape:connector-curvature="0"
       style="fill:#ffffff;fill-opacity:1;stroke:none;stroke-width:1.11043465px;stroke-linecap:butt;stroke-linejoin:miter" /><path
       id="path3900"
       d="M 49.031,23.5 31.843,70.344 h 14.094 l 5.4375,-17.156 5.4688,7.8125 h 9.375 l 3.125,9.3438 h 14.188 l -17.312,-46.844 h -17.188 z m 8.5312,12.469 5.5312,14.094 h -10.938 l 5.4062,-14.094 z"
       inkscape:connector-curvature="0"
       style="fill:#ffffff;fill-opacity:1;stroke:none;stroke-width:1.11043465px;stroke-linecap:butt;stroke-linejoin:miter" /><path
       id="path3908"
       d="M 84.957,70.354 V 23.493 h 17.225 l 17.195,34.381 V 23.493 h 10.944 l -0.009,46.861 H 113.12 L 95.923,36.003 95.9186,70.354 h -10.961"
       inkscape:connector-curvature="0"
       style="fill:#ffffff;fill-opacity:1;stroke:none;stroke-width:1.11043465px;stroke-linecap:butt;stroke-linejoin:miter" /><path
       id="path3991"
       d="m 191.27,48.513 -18.746,-25.02 h 14.059 l 10.195,15.598 10.146,-15.598 h 15.604 l -18.804,24.942 0.0346,21.919 h -12.477 l -0.0122,-21.841"
       inkscape:connector-curvature="0"
       style="display:inline;fill:#ffffff;fill-opacity:1;stroke:none;stroke-width:1.11043465px;stroke-linecap:butt;stroke-linejoin:miter" /><path
       id="path3999-4-5"
       d="m 288.28,86.024 h 34.396 L 374.346,0 h -34.39 l -51.68,86.024"
       inkscape:connector-curvature="0"
       style="display:inline;fill:#ffffff;fill-opacity:1;stroke:none" /><path
       id="path3999-4-5-7"
       d="m 243.12,86.024 h 34.396 L 329.186,0 h -34.384 l -51.69,86.024"
       inkscape:connector-curvature="0"
       style="display:inline;fill:#ffffff;fill-opacity:1;stroke:none" /></g><flowRoot
     id="flowRoot4066"
     style="font-style:normal;font-weight:normal;font-size:40px;line-height:125%;font-family:'Open Sans Light';letter-spacing:0px;word-spacing:0px;display:none;fill:#000000"
     line-height="125%"
     font-weight="normal"
     xml:space="preserve"
     font-size="40px"
     transform="translate(-94.775816,-12.248913)"
     font-style="normal"><flowRegion
       id="flowRegion4068"><rect
         id="rect4070"
         y="24.964001"
         width="185.5"
         x="377"
         height="41" /></flowRegion><flowPara
       id="flowPara4072">Cooccc</flowPara></flowRoot><text
     id="text4074"
     style="font-style:normal;font-weight:normal;font-size:40px;line-height:125%;font-family:'Open Sans Light';letter-spacing:0px;word-spacing:0px;display:none;fill:#000000"
     font-weight="normal"
     xml:space="preserve"
     font-size="40px"
     font-style="normal"
     y="32.58157"
     x="294.84003"
     line-height="125%"><tspan
       id="tspan4076"
       font-weight="normal"
       font-style="normal"
       font-stretch="normal"
       font-variant="normal"
       y="32.58157"
       x="294.84003"
       style="font-style:normal;font-variant:normal;font-weight:normal;font-stretch:normal;font-family:Ebrima" /></text>
</svg>