<?xml version="1.0" encoding="utf-8"?>
<!-- Generator: Adobe Illustrator 21.1.0, SVG Export Plug-In . SVG Version: 6.00 Build 0)  -->
<svg version="1.0" id="Ebene_1" xmlns="http://www.w3.org/2000/svg" xmlns:xlink="http://www.w3.org/1999/xlink" x="0px" y="0px"
	 width="319.1px" height="123.1px" viewBox="0 0 319.1 123.1" enable-background="new 0 0 319.1 123.1" xml:space="preserve">
<path fill="#FFFFFF" d="M157.3,62.7v12.5h-35.6c-4,0-3.8,4,0,4c0,0,15.6,0,23.4,0c18.3,0,18.2,27.1,0,27.1c-12.3,0-36.8,0-36.8,0
	v-12c0,0,23.4,0,35.1,0c4.2,0,3.9-4,0-4c-7.3,0-21.8,0-21.8,0c-18.8,0-18.7-27.5,0-27.5C133.6,62.7,157.3,62.7,157.3,62.7z
	 M238.9,62.7h41.6c7.4,0,14.1,5.8,14.1,13.7v29.9h-14.9V80.5c0-4.3-2.6-5.2-5.6-5.3h-20.2v31.1H239L238.9,62.7L238.9,62.7z
	 M199.8,74.9c-4,0-5.6,2.5-5.6,5.6v8.1c0,3.3,2.9,5.6,5.6,5.6h16.6c2,0,5.3-1.3,5.3-5.6v-8.1c0-2.7-1.6-5.7-5.3-5.7L199.8,74.9z
	 M194.1,62.7H222c8.9,0,14.6,6,14.6,13.4v16.1c0,11.4-9.9,14.1-14.6,14.1h-27.9c-10.5,0-14.9-8.4-14.9-14.1V76.1
	C179.1,66.8,187.5,62.7,194.1,62.7z M161.4,62.7h14.9v43.6h-14.9V62.7z M89.5,62.7h14.9v43.6H89.5V62.7z M21.6,62.7h16.5L54.3,91
	l19-28.3H87l-25.8,43.6H47.6L21.6,62.7z M154.9,16.7h47.3v10.9h-32.7v4h32.7v10.9h-32.7c0,4,3,5.6,6.1,5.6h26.7v11.7H168
	c-7.7,0-13-6.4-13-13.4V16.7H154.9z M117,16.7h14.6v25.8c0,3.7,2.8,5.7,6.1,5.6h15.8v11.7h-22.6c-6.4,0-13.7-2.9-13.7-13.4L117,16.7
	L117,16.7z M251,16.7h-32.7c-9.4,0-13.3,8.6-13.4,13.4v16.1c0,10.5,8.6,14.2,13.4,14.1H251V48.2h-25.1c-1.8,0-6.1-1.3-6.1-5.3v-8.5
	c0-4,3.1-5.6,6.1-5.6H251V16.7L251,16.7z M274.5,28.8c-4,0-5.6,2.5-5.6,5.6v8.1c0,3.3,2.9,5.6,5.6,5.6h16.6c2,0,5.3-1.3,5.3-5.6v-8
	c0-2.7-1.6-5.7-5.3-5.7H274.5z M268.8,16.7h27.9c8.9,0,14.6,6,14.6,13.4v16.1c0,11.4-9.9,14.1-14.6,14.1h-27.9
	c-10.5,0-14.9-8.4-14.9-14.1V30C253.9,20.7,262.2,16.7,268.8,16.7L268.8,16.7z M77.3,28.8c-4,0-5.6,2.5-5.6,5.6v8.1
	c0,3.3,2.9,5.6,5.6,5.6h16.6c2,0,5.3-1.3,5.3-5.6v-8c0-2.7-1.6-5.7-5.3-5.7H77.3z M71.7,16.7h27.9c8.9,0,14.6,6,14.6,13.4v16.1
	c0,11.4-9.9,14.1-14.6,14.1H71.7c-10.5,0-14.6-8.4-14.6-14.1V30C57.1,20.7,65.1,16.7,71.7,16.7z M54.3,16.7H21.6
	c-9.4,0-13.3,8.6-13.3,13.3v16.1c0,10.5,8.6,14.2,13.4,14.1h32.7v-12H28.9c-1.8,0-6-1.3-6-5.3v-8.5c0-4,3.1-5.6,6.1-5.6h25.4
	L54.3,16.7L54.3,16.7z"/>
</svg>
