<?xml version="1.0" encoding="UTF-8" standalone="no"?>
<!-- Generator: Adobe Illustrator 21.1.0, SVG Export Plug-In . SVG Version: 6.00 Build 0)  -->

<svg
   xmlns:dc="http://purl.org/dc/elements/1.1/"
   xmlns:cc="http://creativecommons.org/ns#"
   xmlns:rdf="http://www.w3.org/1999/02/22-rdf-syntax-ns#"
   xmlns:svg="http://www.w3.org/2000/svg"
   xmlns="http://www.w3.org/2000/svg"
   xmlns:sodipodi="http://sodipodi.sourceforge.net/DTD/sodipodi-0.dtd"
   xmlns:inkscape="http://www.inkscape.org/namespaces/inkscape"
   version="1.0"
   id="Ebene_1"
   x="0px"
   y="0px"
   width="303"
   height="89.599998"
   viewBox="0 0 302.99999 89.6"
   enable-background="new 0 0 319.1 123.1"
   xml:space="preserve"
   sodipodi:docname="colecovision.svg"
   inkscape:version="0.92.2 (unknown)"><metadata
     id="metadata9"><rdf:RDF><cc:Work
         rdf:about=""><dc:format>image/svg+xml</dc:format><dc:type
           rdf:resource="http://purl.org/dc/dcmitype/StillImage" /><dc:title></dc:title></cc:Work></rdf:RDF></metadata><defs
     id="defs7" /><sodipodi:namedview
     pagecolor="#ffffff"
     bordercolor="#666666"
     borderopacity="1"
     objecttolerance="10"
     gridtolerance="10"
     guidetolerance="10"
     inkscape:pageopacity="0"
     inkscape:pageshadow="2"
     inkscape:window-width="698"
     inkscape:window-height="480"
     id="namedview5"
     showgrid="false"
     fit-margin-top="0"
     fit-margin-left="0"
     fit-margin-right="0"
     fit-margin-bottom="0"
     inkscape:zoom="0.85553117"
     inkscape:cx="-19.988647"
     inkscape:cy="44.750003"
     inkscape:window-x="0"
     inkscape:window-y="0"
     inkscape:window-maximized="0"
     inkscape:current-layer="Ebene_1" /><path
     d="m 149,46 v 12.5 h -35.6 c -4,0 -3.8,4 0,4 0,0 15.6,0 23.4,0 18.3,0 18.2,27.1 0,27.1 -12.3,0 -36.8,0 -36.8,0 v -12 c 0,0 23.4,0 35.1,0 4.2,0 3.9,-4 0,-4 -7.3,0 -21.8,0 -21.8,0 -18.8,0 -18.7,-27.5 0,-27.5 C 125.3,46 149,46 149,46 Z m 81.6,0 h 41.6 c 7.4,0 14.1,5.8 14.1,13.7 V 89.6 H 271.4 V 63.8 c 0,-4.3 -2.6,-5.2 -5.6,-5.3 h -20.2 v 31.1 h -14.9 z m -39.1,12.2 c -4,0 -5.6,2.5 -5.6,5.6 v 8.1 c 0,3.3 2.9,5.6 5.6,5.6 h 16.6 c 2,0 5.3,-1.3 5.3,-5.6 v -8.1 c 0,-2.7 -1.6,-5.7 -5.3,-5.7 z M 185.8,46 h 27.9 c 8.9,0 14.6,6 14.6,13.4 v 16.1 c 0,11.4 -9.9,14.1 -14.6,14.1 h -27.9 c -10.5,0 -14.9,-8.4 -14.9,-14.1 V 59.4 C 170.8,50.1 179.2,46 185.8,46 Z m -32.7,0 H 168 V 89.6 H 153.1 Z M 81.2,46 H 96.1 V 89.6 H 81.2 Z M 13.3,46 H 29.8 L 46,74.3 65,46 H 78.7 L 52.9,89.6 H 39.3 Z M 146.6,0 h 47.3 v 10.9 h -32.7 v 4 h 32.7 v 10.9 h -32.7 c 0,4 3,5.6 6.1,5.6 H 194 v 11.7 h -34.3 c -7.7,0 -13,-6.4 -13,-13.4 V 0 Z m -37.9,0 h 14.6 v 25.8 c 0,3.7 2.8,5.7 6.1,5.6 h 15.8 v 11.7 h -22.6 c -6.4,0 -13.7,-2.9 -13.7,-13.4 z m 134,0 H 210 c -9.4,0 -13.3,8.6 -13.4,13.4 v 16.1 c 0,10.5 8.6,14.2 13.4,14.1 h 32.7 V 31.5 h -25.1 c -1.8,0 -6.1,-1.3 -6.1,-5.3 v -8.5 c 0,-4 3.1,-5.6 6.1,-5.6 h 25.1 z m 23.5,12.1 c -4,0 -5.6,2.5 -5.6,5.6 v 8.1 c 0,3.3 2.9,5.6 5.6,5.6 h 16.6 c 2,0 5.3,-1.3 5.3,-5.6 v -8 c 0,-2.7 -1.6,-5.7 -5.3,-5.7 z M 260.5,0 h 27.9 c 8.9,0 14.6,6 14.6,13.4 v 16.1 c 0,11.4 -9.9,14.1 -14.6,14.1 H 260.5 C 250,43.6 245.6,35.2 245.6,29.5 V 13.3 C 245.6,4 253.9,0 260.5,0 Z M 69,12.1 c -4,0 -5.6,2.5 -5.6,5.6 v 8.1 c 0,3.3 2.9,5.6 5.6,5.6 h 16.6 c 2,0 5.3,-1.3 5.3,-5.6 v -8 c 0,-2.7 -1.6,-5.7 -5.3,-5.7 z M 63.4,0 h 27.9 c 8.9,0 14.6,6 14.6,13.4 v 16.1 c 0,11.4 -9.9,14.1 -14.6,14.1 H 63.4 C 52.9,43.6 48.8,35.2 48.8,29.5 V 13.3 C 48.8,4 56.8,0 63.4,0 Z M 46,0 H 13.3 C 3.9,0 0,8.6 0,13.3 v 16.1 c 0,10.5 8.6,14.2 13.4,14.1 h 32.7 v -12 H 20.6 c -1.8,0 -6,-1.3 -6,-5.3 v -8.5 c 0,-4 3.1,-5.6 6.1,-5.6 h 25.4 z"
     id="path2"
     inkscape:connector-curvature="0"
     style="fill:#ffffff" /></svg>