<?xml version="1.0" encoding="UTF-8" standalone="no"?>
<svg
   xmlns:dc="http://purl.org/dc/elements/1.1/"
   xmlns:cc="http://creativecommons.org/ns#"
   xmlns:rdf="http://www.w3.org/1999/02/22-rdf-syntax-ns#"
   xmlns:svg="http://www.w3.org/2000/svg"
   xmlns="http://www.w3.org/2000/svg"
   xmlns:sodipodi="http://sodipodi.sourceforge.net/DTD/sodipodi-0.dtd"
   xmlns:inkscape="http://www.inkscape.org/namespaces/inkscape"
   version="1.0"
   id="Capa_1"
   inkscape:version="1.0 (4035a4fb49, 2020-05-01)"
   sodipodi:docname="custom-collections.svg"
   x="0px"
   y="0px"
   width="305.79999"
   height="99"
   viewBox="0 0 305.79997 99"
   enable-background="new 0 0 300.7 91.6"
   xml:space="preserve"><metadata
   id="metadata43"><rdf:RDF><cc:Work
       rdf:about=""><dc:format>image/svg+xml</dc:format><dc:type
         rdf:resource="http://purl.org/dc/dcmitype/StillImage" /><dc:title></dc:title></cc:Work></rdf:RDF></metadata><defs
   id="defs41" /><sodipodi:namedview
   inkscape:document-rotation="0"
   pagecolor="#ffffff"
   bordercolor="#666666"
   borderopacity="1"
   objecttolerance="10"
   gridtolerance="10"
   guidetolerance="10"
   inkscape:pageopacity="0"
   inkscape:pageshadow="2"
   inkscape:window-width="700"
   inkscape:window-height="480"
   id="namedview39"
   showgrid="false"
   inkscape:pagecheckerboard="true"
   lock-margins="true"
   fit-margin-top="5"
   fit-margin-left="5"
   fit-margin-right="5"
   fit-margin-bottom="5"
   inkscape:zoom="3.4885266"
   inkscape:cx="152.15001"
   inkscape:cy="49.899999"
   inkscape:window-x="0"
   inkscape:window-y="0"
   inkscape:window-maximized="0"
   inkscape:current-layer="Capa_1" />
<g
   id="g22"
   transform="translate(1.8,4.1)">
	<path
   fill="#ffffff"
   d="m 10.6,73.3 c 0,1.3 0.2,2.4 0.7,3.5 0.5,1.1 1.2,2.1 2,2.9 0.8,0.8 1.8,1.5 2.9,2 1.1,0.5 2.3,0.7 3.5,0.7 1,0 1.9,-0.1 2.7,-0.4 0.9,-0.3 1.6,-0.7 2.4,-1.2 0.8,-0.5 1.7,-0.8 2.7,-0.8 0.8,0 1.5,0.1 2,0.4 0.6,0.2 1.1,0.6 1.5,1.1 l 1.9,1.9 c -0.9,1 -1.9,1.9 -3,2.7 -1,0.8 -2.1,1.5 -3.3,2 -1.1,0.6 -2.3,1 -3.5,1.3 -1.2,0.3 -2.4,0.5 -3.6,0.5 -1.5,0 -3,-0.2 -4.4,-0.6 -1.4,-0.4 -2.7,-0.9 -4,-1.7 C 10.2,86.9 9.1,86 8.1,85 7.1,84 6.2,82.9 5.5,81.7 4.8,80.5 4.2,79.2 3.8,77.8 3.4,76.4 3.2,74.9 3.2,73.4 c 0,-1.5 0.2,-3 0.6,-4.4 0.4,-1.4 1,-2.7 1.7,-3.9 0.7,-1.2 1.6,-2.3 2.6,-3.3 1,-1 2.1,-1.9 3.4,-2.6 1.3,-0.7 2.6,-1.3 4,-1.7 1.4,-0.4 2.9,-0.6 4.4,-0.6 1.2,0 2.4,0.2 3.6,0.5 1.2,0.3 2.3,0.7 3.5,1.3 1.1,0.6 2.2,1.2 3.3,2 1,0.8 2,1.7 3,2.7 l -1.9,1.9 c -0.5,0.5 -1,0.8 -1.6,1.1 -0.6,0.3 -1.3,0.4 -2,0.4 -1,0 -1.9,-0.3 -2.7,-0.8 -0.8,-0.5 -1.6,-0.9 -2.4,-1.2 -0.9,-0.3 -1.8,-0.4 -2.7,-0.4 -1.3,0 -2.4,0.2 -3.5,0.7 -1.1,0.5 -2.1,1.1 -2.9,2 -0.8,0.8 -1.5,1.8 -2,2.9 -0.8,0.9 -1,2.1 -1,3.3 z"
   id="path2" />
	<path
   fill="#ffffff"
   d="m 35.9,73.3 c 0,-1.5 0.2,-3 0.6,-4.4 0.4,-1.4 1,-2.7 1.7,-3.9 0.7,-1.2 1.6,-2.3 2.6,-3.3 1,-1 2.1,-1.9 3.4,-2.6 1.2,-0.7 2.6,-1.3 4,-1.7 1.4,-0.4 2.9,-0.6 4.4,-0.6 1.5,0 3,0.2 4.4,0.6 1.4,0.4 2.7,0.9 4,1.7 1.3,0.8 2.4,1.6 3.4,2.6 1,1 1.9,2.1 2.6,3.3 0.7,1.2 1.3,2.5 1.7,3.9 0.4,1.4 0.6,2.9 0.6,4.4 0,1.5 -0.2,3 -0.6,4.4 -0.4,1.4 -1,2.7 -1.7,3.9 -0.7,1.2 -1.6,2.3 -2.6,3.3 -1,1 -2.1,1.9 -3.4,2.6 -1.2,0.7 -2.6,1.3 -4,1.7 -1.4,0.4 -2.9,0.6 -4.4,0.6 -1.5,0 -3,-0.2 -4.4,-0.6 -1.4,-0.4 -2.7,-0.9 -4,-1.7 C 43,86.9 41.8,86 40.8,85 c -1,-1 -1.9,-2.1 -2.6,-3.3 -0.7,-1.2 -1.3,-2.5 -1.7,-3.9 -0.4,-1.5 -0.6,-2.9 -0.6,-4.5 z m 7.4,0 c 0,1.3 0.2,2.4 0.7,3.5 0.5,1.1 1.2,2.1 2,2.9 0.8,0.8 1.8,1.5 2.9,2 1.1,0.5 2.3,0.7 3.5,0.7 1.2,0 2.4,-0.2 3.5,-0.7 1.1,-0.5 2.1,-1.1 2.9,-2 0.8,-0.8 1.5,-1.8 2,-2.9 0.5,-1.1 0.7,-2.3 0.7,-3.5 0,-1.3 -0.2,-2.4 -0.7,-3.5 -0.5,-1.1 -1.2,-2.1 -2,-2.9 -0.8,-0.8 -1.8,-1.5 -2.9,-2 -1.1,-0.5 -2.3,-0.7 -3.5,-0.7 -1.2,0 -2.4,0.2 -3.5,0.7 -1.1,0.5 -2.1,1.1 -2.9,2 -0.8,0.8 -1.5,1.8 -2,2.9 -0.4,1.1 -0.7,2.3 -0.7,3.5 z"
   id="path4" />
	<path
   fill="#ffffff"
   d="M 75.2,89.5 V 57.2 h 7.4 v 25.5 h 12.8 v 6.9 H 75.2 Z"
   id="path6" />
	<path
   fill="#ffffff"
   d="M 100.2,89.5 V 57.2 h 7.4 v 25.5 h 12.8 v 6.9 h -20.2 z"
   id="path8" />
	<path
   fill="#ffffff"
   d="M 146.8,89.5 H 125.3 V 57.2 h 21.5 v 6.9 h -14.2 v 5.7 h 11.5 v 6.9 h -11.5 v 6 h 14.2 z"
   id="path10" />
	<path
   fill="#ffffff"
   d="m 158.6,73.3 c 0,1.3 0.2,2.4 0.7,3.5 0.5,1.1 1.2,2.1 2,2.9 0.8,0.8 1.8,1.5 2.9,2 1.1,0.5 2.3,0.7 3.5,0.7 1,0 1.9,-0.1 2.7,-0.4 0.9,-0.3 1.6,-0.7 2.4,-1.2 0.8,-0.5 1.7,-0.8 2.7,-0.8 0.8,0 1.5,0.1 2,0.4 0.6,0.2 1.1,0.6 1.5,1.1 l 1.9,1.9 c -0.9,1 -1.9,1.9 -3,2.7 -1,0.8 -2.1,1.5 -3.3,2 -1.1,0.6 -2.3,1 -3.5,1.3 -1.2,0.3 -2.4,0.5 -3.6,0.5 -1.5,0 -3,-0.2 -4.4,-0.6 -1.4,-0.4 -2.7,-0.9 -4,-1.7 -1.2,-0.7 -2.4,-1.6 -3.4,-2.6 -1,-1 -1.9,-2.1 -2.6,-3.3 -0.7,-1.2 -1.3,-2.5 -1.7,-3.9 -0.4,-1.4 -0.6,-2.9 -0.6,-4.4 0,-1.5 0.2,-3 0.6,-4.4 0.4,-1.4 1,-2.7 1.7,-3.9 0.7,-1.2 1.6,-2.3 2.6,-3.3 1,-1 2.1,-1.9 3.4,-2.6 1.3,-0.7 2.6,-1.3 4,-1.7 1.4,-0.4 2.9,-0.6 4.4,-0.6 1.2,0 2.4,0.2 3.6,0.5 1.2,0.3 2.3,0.7 3.5,1.3 1.1,0.6 2.2,1.2 3.3,2 1,0.8 2,1.7 3,2.7 l -1.9,1.9 c -0.5,0.5 -1,0.8 -1.6,1.1 -0.6,0.3 -1.3,0.4 -2,0.4 -1,0 -1.9,-0.3 -2.7,-0.8 -0.8,-0.5 -1.6,-0.9 -2.4,-1.2 -0.9,-0.3 -1.8,-0.4 -2.7,-0.4 -1.3,0 -2.4,0.2 -3.5,0.7 -1.1,0.5 -2.1,1.1 -2.9,2 -0.8,0.8 -1.5,1.8 -2,2.9 -0.4,0.9 -0.6,2.1 -0.6,3.3 z"
   id="path12" />
	<path
   fill="#ffffff"
   d="m 184,64.1 v -6.9 h 25.4 v 6.9 h -9 V 89.6 H 193 V 64.1 Z"
   id="path14" />
	<path
   fill="#ffffff"
   d="m 222.6,89.5 h -7.4 V 57.2 h 7.4 z"
   id="path16" />
	<path
   fill="#ffffff"
   d="m 229.4,73.3 c 0,-1.5 0.2,-3 0.6,-4.4 0.4,-1.4 1,-2.7 1.7,-3.9 0.7,-1.2 1.6,-2.3 2.6,-3.3 1,-1 2.1,-1.9 3.4,-2.6 1.3,-0.7 2.6,-1.3 4,-1.7 1.4,-0.4 2.9,-0.6 4.4,-0.6 1.5,0 3,0.2 4.4,0.6 1.4,0.4 2.7,0.9 4,1.7 1.2,0.7 2.4,1.6 3.4,2.6 1,1 1.9,2.1 2.6,3.3 0.7,1.2 1.3,2.5 1.7,3.9 0.4,1.4 0.6,2.9 0.6,4.4 0,1.5 -0.2,3 -0.6,4.4 -0.4,1.4 -1,2.7 -1.7,3.9 -0.7,1.2 -1.6,2.3 -2.6,3.3 -1,1 -2.1,1.9 -3.4,2.6 -1.2,0.7 -2.6,1.3 -4,1.7 -1.4,0.4 -2.9,0.6 -4.4,0.6 -1.5,0 -3,-0.2 -4.4,-0.6 -1.4,-0.4 -2.7,-0.9 -4,-1.7 -1.2,-0.7 -2.4,-1.6 -3.4,-2.6 -1,-1 -1.9,-2.1 -2.6,-3.3 -0.7,-1.2 -1.3,-2.5 -1.7,-3.9 -0.4,-1.4 -0.6,-2.8 -0.6,-4.4 z m 7.4,0 c 0,1.3 0.2,2.4 0.7,3.5 0.5,1.1 1.2,2.1 2,2.9 0.8,0.8 1.8,1.5 2.9,2 1.1,0.5 2.3,0.7 3.5,0.7 1.2,0 2.4,-0.2 3.5,-0.7 1.1,-0.5 2.1,-1.1 2.9,-2 0.8,-0.8 1.5,-1.8 2,-2.9 0.5,-1.1 0.7,-2.3 0.7,-3.5 0,-1.3 -0.2,-2.4 -0.7,-3.5 -0.5,-1.1 -1.2,-2.1 -2,-2.9 -0.8,-0.8 -1.8,-1.5 -2.9,-2 -1.1,-0.5 -2.3,-0.7 -3.5,-0.7 -1.3,0 -2.4,0.2 -3.5,0.7 -1.1,0.5 -2.1,1.1 -2.9,2 -0.8,0.8 -1.5,1.8 -2,2.9 -0.5,1.1 -0.7,2.3 -0.7,3.5 z"
   id="path18" />
	<path
   fill="#ffffff"
   d="m 298.9,89.5 h -7.3 L 276.1,67.1 v 22.4 h -7.4 V 57.2 h 7.3 c 0.7,0 1.4,0.1 1.9,0.3 0.6,0.2 1,0.5 1.3,1 L 290.5,75 c 0.2,0.2 0.3,0.5 0.4,0.8 0.1,0.3 0.2,0.6 0.3,0.8 0.1,0.2 0.2,0.5 0.2,0.6 0,0.2 0.1,0.3 0.1,0.3 V 57.2 h 7.4 z"
   id="path20" />
</g>
<g
   id="g36"
   transform="translate(1.8,4.1)">
	<path
   fill="#ffffff"
   d="m 14.4,25.8 c 0,1.9 0.4,3.7 1.1,5.3 0.8,1.7 1.8,3.1 3,4.4 1.3,1.3 2.8,2.2 4.4,3 1.7,0.7 3.5,1.1 5.4,1.1 1.5,0 2.8,-0.2 4.1,-0.7 1.3,-0.4 2.5,-1 3.6,-1.8 1.2,-0.8 2.6,-1.2 4.1,-1.2 1.2,0 2.2,0.2 3,0.6 0.8,0.4 1.6,0.9 2.3,1.6 l 2.9,2.9 c -1.4,1.5 -2.9,2.9 -4.5,4.1 -1.6,1.2 -3.2,2.2 -4.9,3.1 -1.7,0.8 -3.4,1.5 -5.2,1.9 -1.8,0.5 -3.6,0.7 -5.4,0.7 -2.3,0 -4.5,-0.3 -6.7,-0.9 -2.1,-0.6 -4.1,-1.4 -6,-2.5 C 13.7,46.3 12,45 10.5,43.5 9,42 7.7,40.3 6.6,38.5 5.5,36.7 4.7,34.7 4.1,32.5 3.5,30.4 3.2,28.2 3.2,25.9 3.2,23.6 3.5,21.4 4.1,19.3 4.7,17.2 5.6,15.2 6.6,13.3 7.7,11.5 9,9.8 10.5,8.3 12,6.8 13.7,5.5 15.6,4.4 17.5,3.3 19.5,2.5 21.6,1.9 23.7,1.3 26,1 28.3,1 c 1.8,0 3.6,0.2 5.4,0.7 1.9,0.3 3.6,1 5.3,1.8 1.7,0.8 3.3,1.9 4.9,3.1 1.6,1.2 3.1,2.6 4.5,4.1 l -2.9,2.9 c -0.7,0.7 -1.5,1.2 -2.4,1.6 -0.9,0.4 -1.9,0.6 -3,0.6 -1.5,0 -2.9,-0.4 -4.1,-1.3 -1.1,-0.8 -2.4,-1.4 -3.6,-1.8 -1.3,-0.4 -2.6,-0.6 -4.1,-0.6 -1.9,0 -3.7,0.4 -5.4,1.1 -1.7,0.7 -3.2,1.7 -4.4,3 -1.3,1.2 -2.3,2.7 -3,4.4 -0.8,1.6 -1.1,3.3 -1.1,5.2 z"
   id="path24" />
	<path
   fill="#ffffff"
   d="m 67.8,30.6 c 0,1.2 0.2,2.4 0.8,3.5 0.5,1.1 1.2,2 2,2.9 0.8,0.8 1.8,1.5 2.9,1.9 1.1,0.5 2.3,0.7 3.5,0.7 1.2,0 2.4,-0.2 3.5,-0.7 1.1,-0.5 2.1,-1.1 2.9,-1.9 0.9,-0.8 1.5,-1.8 2,-2.9 0.5,-1.1 0.8,-2.3 0.8,-3.5 V 1.4 h 11.2 v 29.2 c 0,2.8 -0.5,5.4 -1.6,7.9 -1.1,2.4 -2.5,4.6 -4.4,6.4 -1.9,1.8 -4,3.3 -6.5,4.3 -2.5,1.1 -5.1,1.6 -7.9,1.6 -1.9,0 -3.7,-0.2 -5.4,-0.7 -1.7,-0.5 -3.3,-1.2 -4.8,-2 C 65.3,47.2 63.9,46.2 62.7,44.9 61.4,43.7 60.4,42.3 59.5,40.8 58.6,39.3 57.9,37.7 57.4,36 56.9,34.3 56.7,32.5 56.7,30.6 V 1.4 h 11.2 v 29.2 z"
   id="path26" />
	<path
   fill="#ffffff"
   d="m 122.9,12.1 c -0.6,0 -1.2,0.1 -1.7,0.2 -0.6,0.1 -1.1,0.3 -1.5,0.5 -0.4,0.2 -0.8,0.5 -1,0.9 -0.3,0.3 -0.4,0.8 -0.4,1.2 0,0.7 0.2,1.3 0.5,1.7 0.4,0.4 0.9,0.8 1.7,1.1 0.7,0.3 1.7,0.6 2.8,0.9 1.1,0.3 2.4,0.7 3.9,1.2 1.9,0.6 3.6,1.4 5.2,2.3 1.6,0.9 2.9,2 4,3.2 1.1,1.2 2,2.6 2.6,4.2 0.6,1.5 0.9,3.3 0.9,5.2 0,2.4 -0.5,4.5 -1.5,6.5 -1,2 -2.3,3.7 -4,5.1 -1.7,1.4 -3.6,2.5 -5.8,3.3 -2.2,0.8 -4.5,1.2 -6.8,1.2 -2,0 -3.9,-0.3 -5.7,-0.9 -1.8,-0.6 -3.5,-1.4 -5,-2.5 -1.5,-1.1 -2.8,-2.3 -4,-3.8 -1.1,-1.5 -2,-3.1 -2.7,-4.8 l 3.6,-2 c 0.6,-0.3 1.2,-0.6 1.8,-0.8 0.6,-0.2 1.3,-0.3 2,-0.3 1,0 1.9,0.2 2.6,0.6 0.8,0.4 1.6,0.9 2.3,1.3 0.8,0.5 1.5,0.9 2.3,1.3 0.8,0.4 1.7,0.6 2.7,0.6 0.7,0 1.4,-0.1 2.2,-0.3 0.8,-0.2 1.6,-0.5 2.3,-0.9 0.7,-0.4 1.3,-0.9 1.7,-1.5 0.4,-0.6 0.7,-1.3 0.7,-2.1 0,-0.8 -0.2,-1.4 -0.6,-1.8 -0.4,-0.5 -1,-0.9 -1.7,-1.2 -0.7,-0.4 -1.5,-0.7 -2.5,-1 -0.9,-0.3 -1.9,-0.6 -2.9,-1.1 -1.7,-0.6 -3.3,-1.3 -5,-2.1 -1.6,-0.8 -3.1,-1.7 -4.4,-2.8 -1.3,-1.1 -2.4,-2.4 -3.2,-4 -0.8,-1.6 -1.2,-3.5 -1.2,-5.9 0,-2.2 0.4,-4.2 1.3,-5.9 0.9,-1.7 2.1,-3.2 3.6,-4.4 1.5,-1.2 3.2,-2.1 5.1,-2.7 1.9,-0.6 3.9,-0.9 5.9,-0.9 1.5,0 2.9,0.2 4.3,0.7 1.4,0.5 2.7,1.1 3.9,1.9 1.2,0.8 2.4,1.7 3.4,2.7 1,1 2,2 2.9,3.1 l -3.4,2.9 c -0.7,0.6 -1.4,1 -2.1,1.3 -0.7,0.3 -1.6,0.4 -2.5,0.4 -0.7,0 -1.4,-0.1 -1.9,-0.3 -0.5,-0.2 -1.1,-0.4 -1.5,-0.6 -0.5,-0.2 -1,-0.4 -1.4,-0.6 -0.7,-0.2 -1.2,-0.3 -1.8,-0.3 z"
   id="path28" />
	<path
   fill="#ffffff"
   d="M 143.1,11.8 V 1.3 h 38.4 V 11.8 H 167.9 V 50.3 H 156.7 V 11.8 Z"
   id="path30" />
	<path
   fill="#ffffff"
   d="m 182.7,25.8 c 0,-2.3 0.3,-4.5 0.9,-6.6 0.6,-2.1 1.5,-4.1 2.5,-6 1.1,-1.8 2.4,-3.5 3.9,-5 1.5,-1.5 3.2,-2.8 5.1,-3.9 1.9,-1.1 3.9,-1.9 6,-2.5 2.1,-0.6 4.4,-0.9 6.7,-0.9 2.3,0 4.5,0.3 6.7,0.9 2.1,0.6 4.1,1.4 6,2.5 1.9,1.1 3.6,2.4 5.1,3.9 1.5,1.5 2.8,3.2 3.9,5 1.1,1.8 1.9,3.8 2.5,6 0.6,2.1 0.9,4.3 0.9,6.6 0,2.3 -0.3,4.5 -0.9,6.6 -0.6,2.1 -1.5,4.1 -2.5,6 -1.1,1.8 -2.4,3.5 -3.9,5 -1.5,1.5 -3.2,2.8 -5.1,3.9 -1.9,1.1 -3.9,1.9 -6,2.5 -2.1,0.6 -4.4,0.9 -6.7,0.9 -2.3,0 -4.5,-0.3 -6.7,-0.9 -2.1,-0.6 -4.1,-1.4 -6,-2.5 -1.9,-1.1 -3.6,-2.4 -5.1,-3.9 -1.5,-1.5 -2.8,-3.2 -3.9,-5 -1.1,-1.8 -1.9,-3.8 -2.5,-6 -0.6,-2.1 -0.9,-4.3 -0.9,-6.6 z m 11.2,0 c 0,1.9 0.4,3.7 1.1,5.3 0.8,1.7 1.8,3.1 3,4.4 1.3,1.3 2.8,2.2 4.4,3 1.7,0.7 3.5,1.1 5.4,1.1 1.9,0 3.6,-0.4 5.3,-1.1 1.7,-0.7 3.2,-1.7 4.5,-3 1.3,-1.3 2.3,-2.7 3,-4.4 0.8,-1.7 1.1,-3.5 1.1,-5.3 0,-1.9 -0.4,-3.7 -1.1,-5.3 -0.8,-1.7 -1.8,-3.1 -3,-4.4 -1.3,-1.2 -2.8,-2.2 -4.5,-3 -1.7,-0.7 -3.5,-1.1 -5.3,-1.1 -1.9,0 -3.7,0.4 -5.4,1.1 -1.7,0.7 -3.2,1.7 -4.4,3 -1.3,1.2 -2.3,2.7 -3,4.4 -0.8,1.7 -1.1,3.4 -1.1,5.3 z"
   id="path32" />
	<path
   fill="#ffffff"
   d="M 298.9,50.3 H 287.7 V 17.7 l -12.3,32.6 h -9.7 L 253.1,17.7 V 50.3 H 242 V 1.4 h 12.2 c 0.8,0 1.5,0.1 2.3,0.3 0.7,0.2 1.4,0.5 2,0.9 0.6,0.4 1.1,0.8 1.6,1.4 0.5,0.5 0.8,1.1 1,1.8 l 8.6,24.5 c 0.1,0.4 0.2,0.8 0.3,1.2 0.1,0.5 0.2,0.9 0.3,1.3 0.1,0.5 0.2,1 0.2,1.5 0,-0.5 0.1,-1 0.2,-1.5 0.1,-0.4 0.2,-0.8 0.3,-1.3 0.1,-0.5 0.2,-0.9 0.4,-1.2 l 8.5,-24.5 c 0.2,-0.7 0.6,-1.3 1.1,-1.8 0.5,-0.5 1,-1 1.6,-1.4 0.6,-0.4 1.3,-0.6 2,-0.8 0.7,-0.2 1.5,-0.3 2.2,-0.3 H 299 v 48.8 z"
   id="path34" />
</g>
</svg>
