<?xml version="1.0" encoding="UTF-8" standalone="no"?>
<!-- Created with Inkscape (http://www.inkscape.org/) -->

<svg
   xmlns:dc="http://purl.org/dc/elements/1.1/"
   xmlns:cc="http://creativecommons.org/ns#"
   xmlns:rdf="http://www.w3.org/1999/02/22-rdf-syntax-ns#"
   xmlns:svg="http://www.w3.org/2000/svg"
   xmlns="http://www.w3.org/2000/svg"
   xmlns:sodipodi="http://sodipodi.sourceforge.net/DTD/sodipodi-0.dtd"
   xmlns:inkscape="http://www.inkscape.org/namespaces/inkscape"
   width="400"
   height="150"
   viewBox="0 0 105.83333 39.687501"
   version="1.1"
   id="svg8"
   inkscape:version="0.92.2 5c3e80d, 2017-08-06"
   sodipodi:docname="custom-racing.svg">
  <defs
     id="defs2" />
  <sodipodi:namedview
     id="base"
     pagecolor="#ffffff"
     bordercolor="#666666"
     borderopacity="1.0"
     inkscape:pageopacity="0.0"
     inkscape:pageshadow="2"
     inkscape:zoom="1.979899"
     inkscape:cx="224.8464"
     inkscape:cy="56.766054"
     inkscape:document-units="mm"
     inkscape:current-layer="layer1"
     showgrid="false"
     units="px"
     inkscape:window-width="1680"
     inkscape:window-height="940"
     inkscape:window-x="0"
     inkscape:window-y="1"
     inkscape:window-maximized="1" />
  <metadata
     id="metadata5">
    <rdf:RDF>
      <cc:Work
         rdf:about="">
        <dc:format>image/svg+xml</dc:format>
        <dc:type
           rdf:resource="http://purl.org/dc/dcmitype/StillImage" />
        <dc:title></dc:title>
      </cc:Work>
    </rdf:RDF>
  </metadata>
  <g
     inkscape:label="Calque 1"
     inkscape:groupmode="layer"
     id="layer1"
     transform="translate(0,-257.31248)">
    <g
       aria-label="RACING"
       style="font-style:normal;font-weight:normal;font-size:18.56852913px;line-height:1.25;font-family:sans-serif;letter-spacing:0px;word-spacing:0px;fill:#ffffff;fill-opacity:1;stroke:none;stroke-width:0.46421319"
       id="text12">
      <path
         d="m 15.051933,276.9123 h 2.511466 q 1.369066,0.18133 2.230399,-1.224 l 0.861333,-1.66827 q -0.09067,-0.50773 -1.495999,-0.52586 h -2.139733 z m 1.314666,3.21866 q -0.172267,-0.0272 -0.398933,-0.0272 h -2.964799 l -2.058133,3.65387 H 6.1575348 l 7.5253312,-13.0016 h 7.987732 q 4.161599,0.1904 4.424532,1.4688 l -2.148799,4.79627 q -0.68,1.18773 -2.402666,1.16053 l -1.015467,0.0997 q 1.704533,0.50774 1.8224,1.1424 l -0.389867,0.68 -0.01813,0.0272 -2.049066,3.62667 h -4.614933 l 1.650133,-3.09173 q 0.04533,-0.4352 -0.562133,-0.53494 z"
         style="font-style:normal;font-variant:normal;font-weight:normal;font-stretch:normal;font-family:'Need for Font';-inkscape-font-specification:'Need for Font';stroke-width:0.46421319;fill:#ffffff"
         id="path14" />
      <path
         d="m 30.356463,280.3939 q -1.432533,1.83146 -2.420799,3.36373 h -4.560532 q 0.616533,-1.6864 3.653866,-5.47627 2.330132,-3.13706 7.062931,-7.52533 h 6.673065 q 0.154134,0.56214 0.172267,1.59574 0,3.20959 -3.418133,11.40586 h -4.560532 q 0.8432,-1.59573 1.378133,-3.36373 z m 5.013866,-2.9104 q 0.670933,-2.13974 0.852266,-3.808 v -0.22667 q -1.849599,1.8768 -3.617599,4.03467 z"
         style="font-style:normal;font-variant:normal;font-weight:normal;font-stretch:normal;font-family:'Need for Font';-inkscape-font-specification:'Need for Font';stroke-width:0.46421319;fill:#ffffff"
         id="path16" />
      <path
         d="m 39.686063,283.74856 6.836265,-11.87733 q 4.152532,-1.1152 6.446398,-1.1152 h 1.341867 q 3.291199,0 5.204265,1.7952 l -2.257599,3.58133 h -4.234133 q 0.498667,-0.7072 0.670934,-1.56853 -0.0544,-0.60747 -1.5504,-0.68907 h -0.453333 q -2.221333,0.0363 -3.354666,1.66827 l -3.381866,5.96587 q 0,0.49866 2.021866,0.67093 2.946666,0 3.681066,-2.22133 l 1.242133,-0.0181 h 3.200533 l -2.248533,3.808 z"
         style="font-style:normal;font-variant:normal;font-weight:normal;font-stretch:normal;font-family:'Need for Font';-inkscape-font-specification:'Need for Font';stroke-width:0.46421319;fill:#ffffff"
         id="path18" />
      <path
         d="M 59.814058,283.75763 H 55.10846 l 7.398398,-12.784 h 4.587732 z"
         style="font-style:normal;font-variant:normal;font-weight:normal;font-stretch:normal;font-family:'Need for Font';-inkscape-font-specification:'Need for Font';stroke-width:0.46421319;fill:#ffffff"
         id="path20" />
      <path
         d="m 72.462054,283.75763 5.603198,-9.42027 q -0.01813,-0.3264 -0.2992,-0.42613 -0.272,-0.1088 -1.169599,-0.0544 -2.466133,0.0363 -4.551466,2.65653 l -4.070932,7.24427 h -4.705599 l 7.398398,-12.784 h 4.587732 l -0.553066,1.12427 q 2.049066,-1.34187 4.487999,-1.34187 h 1.115199 q 3.363733,0.55307 3.363733,1.7952 l -6.500799,11.2064 z"
         style="font-style:normal;font-variant:normal;font-weight:normal;font-stretch:normal;font-family:'Need for Font';-inkscape-font-specification:'Need for Font';stroke-width:0.46421319;fill:#ffffff"
         id="path22" />
      <path
         d="M 93.650848,283.74856 H 80.486051 l 6.836265,-11.87733 q 4.152532,-1.1152 6.446398,-1.1152 h 1.341867 q 3.291199,0 5.204269,1.7952 l -2.257603,3.58133 h -4.234133 q 0.498667,-0.7072 0.670933,-1.56853 -0.0544,-0.60747 -1.550399,-0.68907 h -0.453333 q -2.221333,0.0363 -3.354666,1.66827 l -3.381866,5.96587 q 0,0.49866 2.021866,0.67093 3.218666,0.136 3.399999,-1.5776 h -2.384533 l 1.894933,-3.14613 h 6.718399 z"
         style="font-style:normal;font-variant:normal;font-weight:normal;font-stretch:normal;font-family:'Need for Font';-inkscape-font-specification:'Need for Font';stroke-width:0.46421319;fill:#ffffff"
         id="path24" />
    </g>
  </g>
</svg>
