<?xml version="1.0" encoding="UTF-8" standalone="no"?>
<svg
   xmlns:dc="http://purl.org/dc/elements/1.1/"
   xmlns:cc="http://creativecommons.org/ns#"
   xmlns:rdf="http://www.w3.org/1999/02/22-rdf-syntax-ns#"
   xmlns:svg="http://www.w3.org/2000/svg"
   xmlns="http://www.w3.org/2000/svg"
   id="svg8"
   version="1.1"
   viewBox="0 0 105.83333 39.687501"
   height="150"
   width="400">
  <defs
     id="defs2" />
  <metadata
     id="metadata5">
    <rdf:RDF>
      <cc:Work
         rdf:about="">
        <dc:format>image/svg+xml</dc:format>
        <dc:type
           rdf:resource="http://purl.org/dc/dcmitype/StillImage" />
        <dc:title></dc:title>
      </cc:Work>
    </rdf:RDF>
  </metadata>
  <g
     transform="translate(0,-257.31248)"
     id="layer1">
    <path
       id="path830"
       transform="matrix(0.26458333,0,0,0.26458333,0,257.31248)"
       d="M 342.50391 20.830078 C 328.46809 21.045247 308.61233 29.914905 298.98047 43.970703 L 88.458984 43.574219 C 88.458984 43.574219 74.814494 21.198452 48.345703 21.744141 C 20.76034 21.824002 4.140625 61.855469 4.140625 61.855469 L 47.527344 61.855469 L 41.523438 86.142578 L 6.8691406 86.142578 C 6.8691406 86.142578 21.330937 123.25195 51.074219 123.25195 C 84.910605 122.97915 93.097656 103.33398 93.097656 103.33398 L 298.98047 102.66211 C 308.79705 117.07836 323.32012 123.55598 342.50391 125.80469 C 367.06599 125.80469 387.68022 108.92894 393.4043 86.142578 L 340.92578 86.142578 L 349.00781 60.601562 L 393.43164 60.601562 C 387.74661 37.759214 367.10571 20.830078 342.50391 20.830078 z M 108.66016 49.330078 L 121.76172 49.330078 L 121.63086 58.175781 L 110.88672 58.175781 C 110.10054 58.175781 109.64275 58.502014 109.51172 59.222656 L 107.74219 67.871094 C 107.54564 68.85396 108.00361 69.115234 108.98633 69.115234 L 114.94922 69.115234 C 117.96289 69.115234 119.40426 70.427017 118.68359 73.964844 L 115.53906 89.623047 C 114.49083 94.864193 112.26194 96.828125 106.82422 96.828125 L 95.097656 96.828125 L 95.164062 87.984375 L 105.38281 87.984375 C 106.2345 87.984375 106.56232 87.722633 106.69336 87.001953 L 108.39648 78.353516 C 108.65855 77.043078 108.26537 76.978516 106.95508 76.978516 L 102.04297 76.978516 C 99.22583 76.978516 96.865995 76.322508 97.783203 71.605469 L 100.99414 55.488281 C 101.78032 51.753957 104.20516 49.330078 108.66016 49.330078 z M 128.11328 49.330078 L 145.67188 49.330078 L 146.26172 58.175781 L 139.90625 58.175781 L 132.17578 96.828125 L 122.48047 96.828125 L 130.21094 58.175781 L 123.85547 58.175781 L 128.11328 49.330078 z M 150.60742 49.330078 L 168.62305 49.330078 C 173.07805 49.330078 174.58501 51.753957 173.79883 55.488281 L 169.41016 77.501953 C 169.01707 79.598419 167.05045 81.695312 164.29883 81.695312 L 166.26562 96.828125 L 156.4375 96.828125 L 154.86523 81.695312 L 153.62109 81.695312 L 150.60742 96.828125 L 141.10742 96.828125 L 150.60742 49.330078 z M 185.90234 49.330078 L 196.05664 49.330078 L 195.13867 96.828125 L 185.57422 96.828125 L 185.90234 90.931641 L 179.41602 90.931641 L 177.38477 96.828125 L 167.82031 96.828125 L 185.90234 49.330078 z M 204.50586 49.330078 L 222.0625 49.330078 L 222.65234 58.175781 L 216.29688 58.175781 L 208.56641 96.828125 L 198.87109 96.828125 L 206.60156 58.175781 L 200.24609 58.175781 L 204.50586 49.330078 z M 226.99805 49.330078 L 245.47266 49.330078 L 245.3418 58.175781 L 234.99023 58.175781 L 232.76367 69.443359 L 240.625 69.443359 L 238.98828 77.632812 L 231.125 77.632812 L 229.0293 87.984375 L 238.98828 87.984375 L 235.58008 96.828125 L 217.49805 96.828125 L 226.99805 49.330078 z M 256.04883 49.330078 L 269.61133 49.330078 L 269.47852 58.175781 L 259.0625 58.175781 C 258.40735 58.175781 258.14471 58.502191 258.01367 59.091797 L 252.38086 87.263672 C 252.24983 87.853203 252.38001 88.181641 253.03516 88.181641 L 257.35938 88.181641 L 261.1582 69.443359 L 270.39648 69.443359 L 264.89258 96.828125 L 248.31836 96.828125 C 242.88064 96.828125 241.30723 94.733371 242.35547 89.492188 L 249.23438 55.095703 C 249.95503 51.623451 252.31449 49.330078 256.04883 49.330078 z M 273.80078 49.330078 L 283.62695 49.330078 L 283.43164 71.736328 L 292.20898 49.330078 L 302.03711 49.330078 L 285.85547 84.773438 L 283.43164 96.828125 L 273.40625 96.828125 L 275.83203 84.773438 L 273.80078 49.330078 z M 158.46875 57.650391 L 155.19336 74.029297 L 159.84375 74.029297 C 160.56442 74.029297 160.76245 73.767518 160.95898 73.046875 L 163.8418 58.634766 C 163.90731 58.045122 163.77624 57.650391 163.12109 57.650391 L 158.46875 57.650391 z M 187.53906 66.560547 L 181.9707 83.398438 L 186.36133 83.398438 L 187.53906 66.560547 z "
       style="fill:#ffffff;fill-opacity:1;stroke:none;stroke-width:1.785285;stroke-miterlimit:4;stroke-dasharray:none;stroke-opacity:1" />
  </g>
</svg>
