<?xml version="1.0" encoding="UTF-8" standalone="no"?>
<svg
   xmlns:dc="http://purl.org/dc/elements/1.1/"
   xmlns:cc="http://creativecommons.org/ns#"
   xmlns:rdf="http://www.w3.org/1999/02/22-rdf-syntax-ns#"
   xmlns:svg="http://www.w3.org/2000/svg"
   xmlns="http://www.w3.org/2000/svg"
   id="svg8"
   version="1.1"
   viewBox="0 0 105.83333 39.687501"
   height="150"
   width="400">
  <defs
     id="defs2" />
  <metadata
     id="metadata5">
    <rdf:RDF>
      <cc:Work
         rdf:about="">
        <dc:format>image/svg+xml</dc:format>
        <dc:type
           rdf:resource="http://purl.org/dc/dcmitype/StillImage" />
        <dc:title></dc:title>
      </cc:Work>
    </rdf:RDF>
  </metadata>
  <g
     transform="translate(0,-257.31248)"
     id="layer1">
    <path
       id="path4575"
       d="m 0.50690426,269.33836 4.59151704,4.66254 h 7.0116977 v 0.46246 H 6.9493423 l 4.0574917,4.05749 h 5.765822 v 0.53403 H 12.39475 l 2.776381,2.77637 h 6.549242 v 0.54285 h -4.813935 l 2.464774,2.46477 H 86.4448 l 2.865569,-2.86501 h -5.125541 v -0.52468 h 6.558601 l 2.731238,-2.73123 h -4.227058 l 0.133778,-0.49934 h 5.748206 l 3.683674,-3.68368 h -5.125542 v -0.56981 h 7.190075 l 4.62675,-4.62676 z m 13.20143774,1.48648 h 13.578009 v 2.52698 H 24.52208 v 2.52698 h 2.764271 v 6.56632 l -0.969504,1.01409 h -3.176626 v -2.52699 h 2.764269 v -2.52642 h -2.764269 v -2.527 l 1.381859,-2.52698 h -8.144162 z m 13.923747,0 h 1.381861 v 2.52698 2.52698 h 1.381858 v -5.05396 h 1.382412 v 11.59386 l -1.382412,1.04051 V 278.4058 H 29.01395 v 5.05341 h -1.381861 v -7.58041 l 1.381861,-2.52698 h -1.381861 z m 4.491321,0 h 5.528538 v 11.59386 l -1.015201,1.04051 H 32.12341 v -7.58041 l 1.382408,-2.52698 H 32.12341 Z m 1.382408,2.52698 v 7.5804 h 2.76372 v -7.5804 z m 4.49132,-2.52698 h 5.528538 v 11.59386 l -1.07796,1.04051 h -4.450578 v -7.58041 l 1.382408,-2.52698 h -1.382408 z m 1.382408,2.52698 v 7.5804 h 2.76427 v -7.5804 z m 4.49132,-2.52698 h 4.146679 v 2.52698 h -1.382409 v 10.10739 h -1.381862 v -7.58041 l 1.381862,-2.52698 h -2.76427 z m 8.637998,0 h 4.146127 v 2.52698 h -1.381857 v 10.10739 h -1.381859 v -7.58041 l 1.381859,-2.52698 h -2.76427 z m 4.491868,0 h 1.38186 v 2.52698 2.52698 h 1.382412 v -5.05396 h 1.381858 v 11.59386 l -1.381858,1.04051 v -5.05341 h -1.382412 v 5.05341 h -1.38186 v -7.58041 l 1.38186,-2.52698 h -1.38186 z m 4.491869,0 h 4.146131 v 2.52698 h -2.764269 v 2.52698 h 2.073336 v 2.527 h -2.073336 v 2.52642 h 2.764269 v 1.48648 l -0.970055,1.04051 h -3.176076 v -7.58041 l 1.381862,-2.52698 h -1.381862 z m 4.491319,0 h 6.910398 v 2.52698 9.06688 l -1.381857,1.04051 v -10.10739 h -1.382412 v 10.10739 H 68.748191 V 273.35182 H 67.36633 v 10.10739 h -1.38241 v -7.58041 l 1.38241,-2.52698 h -1.38241 z m 11.402268,0 h 1.381859 v 2.52698 7.5804 h 1.382411 v -10.10738 h 1.381858 v 11.59386 l -0.969502,1.04051 h -3.176626 v -7.58041 l 1.381859,-2.52698 h -1.381859 z m 4.491867,0 h 10.374409 l -2.462022,2.48348 -3.766256,0.0171 v 1.28993 l -1.38241,2.52698 h -1.38186 v 6.31691 h -1.381861 v -7.58041 l 1.381861,-2.52698 h -1.381861 z m 1.381861,2.52698 v 3.79048 l 1.38186,-2.52699 v -1.26349 z"
       style="fill:#ffffff;fill-opacity:1;stroke:none;stroke-width:0.28187728px;stroke-linecap:butt;stroke-linejoin:miter;stroke-opacity:1" />
  </g>
</svg>
