<?xml version="1.0" encoding="utf-8"?>
<!-- Generator: Adobe Illustrator 21.1.0, SVG Export Plug-In . SVG Version: 6.00 Build 0)  -->
<svg version="1.0"
	 id="Capa_1" inkscape:version="0.92.2 (unknown)" sodipodi:docname="auto-favorites.svg" xmlns:cc="http://creativecommons.org/ns#" xmlns:dc="http://purl.org/dc/elements/1.1/" xmlns:inkscape="http://www.inkscape.org/namespaces/inkscape" xmlns:rdf="http://www.w3.org/1999/02/22-rdf-syntax-ns#" xmlns:sodipodi="http://sodipodi.sourceforge.net/DTD/sodipodi-0.dtd" xmlns:svg="http://www.w3.org/2000/svg"
	 xmlns="http://www.w3.org/2000/svg" xmlns:xlink="http://www.w3.org/1999/xlink" x="0px" y="0px" width="300.7px" height="91.6px"
	 viewBox="0 0 300.7 91.6" enable-background="new 0 0 300.7 91.6" xml:space="preserve">
<g>
	<path fill="#FFFFFF" d="M10.6,73.3c0,1.3,0.2,2.4,0.7,3.5c0.5,1.1,1.2,2.1,2,2.9c0.8,0.8,1.8,1.5,2.9,2c1.1,0.5,2.3,0.7,3.5,0.7
		c1,0,1.9-0.1,2.7-0.4c0.9-0.3,1.6-0.7,2.4-1.2c0.8-0.5,1.7-0.8,2.7-0.8c0.8,0,1.5,0.1,2,0.4c0.6,0.2,1.1,0.6,1.5,1.1l1.9,1.9
		c-0.9,1-1.9,1.9-3,2.7c-1,0.8-2.1,1.5-3.3,2c-1.1,0.6-2.3,1-3.5,1.3c-1.2,0.3-2.4,0.5-3.6,0.5c-1.5,0-3-0.2-4.4-0.6
		c-1.4-0.4-2.7-0.9-4-1.7C10.2,86.9,9.1,86,8.1,85c-1-1-1.9-2.1-2.6-3.3c-0.7-1.2-1.3-2.5-1.7-3.9c-0.4-1.4-0.6-2.9-0.6-4.4
		c0-1.5,0.2-3,0.6-4.4c0.4-1.4,1-2.7,1.7-3.9c0.7-1.2,1.6-2.3,2.6-3.3c1-1,2.1-1.9,3.4-2.6s2.6-1.3,4-1.7c1.4-0.4,2.9-0.6,4.4-0.6
		c1.2,0,2.4,0.2,3.6,0.5c1.2,0.3,2.3,0.7,3.5,1.3c1.1,0.6,2.2,1.2,3.3,2c1,0.8,2,1.7,3,2.7l-1.9,1.9c-0.5,0.5-1,0.8-1.6,1.1
		c-0.6,0.3-1.3,0.4-2,0.4c-1,0-1.9-0.3-2.7-0.8c-0.8-0.5-1.6-0.9-2.4-1.2c-0.9-0.3-1.8-0.4-2.7-0.4c-1.3,0-2.4,0.2-3.5,0.7
		c-1.1,0.5-2.1,1.1-2.9,2c-0.8,0.8-1.5,1.8-2,2.9C10.8,70.9,10.6,72.1,10.6,73.3z"/>
	<path fill="#FFFFFF" d="M35.9,73.3c0-1.5,0.2-3,0.6-4.4c0.4-1.4,1-2.7,1.7-3.9c0.7-1.2,1.6-2.3,2.6-3.3c1-1,2.1-1.9,3.4-2.6
		c1.2-0.7,2.6-1.3,4-1.7c1.4-0.4,2.9-0.6,4.4-0.6c1.5,0,3,0.2,4.4,0.6c1.4,0.4,2.7,0.9,4,1.7s2.4,1.6,3.4,2.6c1,1,1.9,2.1,2.6,3.3
		c0.7,1.2,1.3,2.5,1.7,3.9c0.4,1.4,0.6,2.9,0.6,4.4c0,1.5-0.2,3-0.6,4.4c-0.4,1.4-1,2.7-1.7,3.9c-0.7,1.2-1.6,2.3-2.6,3.3
		c-1,1-2.1,1.9-3.4,2.6c-1.2,0.7-2.6,1.3-4,1.7c-1.4,0.4-2.9,0.6-4.4,0.6c-1.5,0-3-0.2-4.4-0.6c-1.4-0.4-2.7-0.9-4-1.7
		C43,86.9,41.8,86,40.8,85c-1-1-1.9-2.1-2.6-3.3c-0.7-1.2-1.3-2.5-1.7-3.9C36.1,76.3,35.9,74.9,35.9,73.3z M43.3,73.3
		c0,1.3,0.2,2.4,0.7,3.5c0.5,1.1,1.2,2.1,2,2.9c0.8,0.8,1.8,1.5,2.9,2c1.1,0.5,2.3,0.7,3.5,0.7c1.2,0,2.4-0.2,3.5-0.7
		c1.1-0.5,2.1-1.1,2.9-2c0.8-0.8,1.5-1.8,2-2.9c0.5-1.1,0.7-2.3,0.7-3.5c0-1.3-0.2-2.4-0.7-3.5c-0.5-1.1-1.2-2.1-2-2.9
		c-0.8-0.8-1.8-1.5-2.9-2c-1.1-0.5-2.3-0.7-3.5-0.7c-1.2,0-2.4,0.2-3.5,0.7c-1.1,0.5-2.1,1.1-2.9,2c-0.8,0.8-1.5,1.8-2,2.9
		C43.6,70.9,43.3,72.1,43.3,73.3z"/>
	<path fill="#FFFFFF" d="M75.2,89.5V57.2h7.4v25.5h12.8v6.9H75.2z"/>
	<path fill="#FFFFFF" d="M100.2,89.5V57.2h7.4v25.5h12.8v6.9H100.2z"/>
	<path fill="#FFFFFF" d="M146.8,89.5h-21.5V57.2h21.5v6.9h-14.2v5.7h11.5v6.9h-11.5v6h14.2V89.5z"/>
	<path fill="#FFFFFF" d="M158.6,73.3c0,1.3,0.2,2.4,0.7,3.5c0.5,1.1,1.2,2.1,2,2.9c0.8,0.8,1.8,1.5,2.9,2c1.1,0.5,2.3,0.7,3.5,0.7
		c1,0,1.9-0.1,2.7-0.4c0.9-0.3,1.6-0.7,2.4-1.2c0.8-0.5,1.7-0.8,2.7-0.8c0.8,0,1.5,0.1,2,0.4c0.6,0.2,1.1,0.6,1.5,1.1l1.9,1.9
		c-0.9,1-1.9,1.9-3,2.7c-1,0.8-2.1,1.5-3.3,2c-1.1,0.6-2.3,1-3.5,1.3c-1.2,0.3-2.4,0.5-3.6,0.5c-1.5,0-3-0.2-4.4-0.6
		c-1.4-0.4-2.7-0.9-4-1.7c-1.2-0.7-2.4-1.6-3.4-2.6c-1-1-1.9-2.1-2.6-3.3c-0.7-1.2-1.3-2.5-1.7-3.9c-0.4-1.4-0.6-2.9-0.6-4.4
		c0-1.5,0.2-3,0.6-4.4c0.4-1.4,1-2.7,1.7-3.9c0.7-1.2,1.6-2.3,2.6-3.3c1-1,2.1-1.9,3.4-2.6s2.6-1.3,4-1.7c1.4-0.4,2.9-0.6,4.4-0.6
		c1.2,0,2.4,0.2,3.6,0.5c1.2,0.3,2.3,0.7,3.5,1.3c1.1,0.6,2.2,1.2,3.3,2c1,0.8,2,1.7,3,2.7l-1.9,1.9c-0.5,0.5-1,0.8-1.6,1.1
		c-0.6,0.3-1.3,0.4-2,0.4c-1,0-1.9-0.3-2.7-0.8c-0.8-0.5-1.6-0.9-2.4-1.2c-0.9-0.3-1.8-0.4-2.7-0.4c-1.3,0-2.4,0.2-3.5,0.7
		c-1.1,0.5-2.1,1.1-2.9,2c-0.8,0.8-1.5,1.8-2,2.9C158.8,70.9,158.6,72.1,158.6,73.3z"/>
	<path fill="#FFFFFF" d="M184,64.1v-6.9h25.4v6.9h-9v25.5H193V64.1H184z"/>
	<path fill="#FFFFFF" d="M222.6,89.5h-7.4V57.2h7.4V89.5z"/>
	<path fill="#FFFFFF" d="M229.4,73.3c0-1.5,0.2-3,0.6-4.4c0.4-1.4,1-2.7,1.7-3.9c0.7-1.2,1.6-2.3,2.6-3.3c1-1,2.1-1.9,3.4-2.6
		s2.6-1.3,4-1.7s2.9-0.6,4.4-0.6c1.5,0,3,0.2,4.4,0.6c1.4,0.4,2.7,0.9,4,1.7c1.2,0.7,2.4,1.6,3.4,2.6c1,1,1.9,2.1,2.6,3.3
		c0.7,1.2,1.3,2.5,1.7,3.9c0.4,1.4,0.6,2.9,0.6,4.4c0,1.5-0.2,3-0.6,4.4c-0.4,1.4-1,2.7-1.7,3.9c-0.7,1.2-1.6,2.3-2.6,3.3
		c-1,1-2.1,1.9-3.4,2.6c-1.2,0.7-2.6,1.3-4,1.7c-1.4,0.4-2.9,0.6-4.4,0.6c-1.5,0-3-0.2-4.4-0.6s-2.7-0.9-4-1.7
		c-1.2-0.7-2.4-1.6-3.4-2.6c-1-1-1.9-2.1-2.6-3.3c-0.7-1.2-1.3-2.5-1.7-3.9C229.6,76.3,229.4,74.9,229.4,73.3z M236.8,73.3
		c0,1.3,0.2,2.4,0.7,3.5c0.5,1.1,1.2,2.1,2,2.9c0.8,0.8,1.8,1.5,2.9,2c1.1,0.5,2.3,0.7,3.5,0.7c1.2,0,2.4-0.2,3.5-0.7
		c1.1-0.5,2.1-1.1,2.9-2c0.8-0.8,1.5-1.8,2-2.9c0.5-1.1,0.7-2.3,0.7-3.5c0-1.3-0.2-2.4-0.7-3.5c-0.5-1.1-1.2-2.1-2-2.9
		c-0.8-0.8-1.8-1.5-2.9-2c-1.1-0.5-2.3-0.7-3.5-0.7c-1.3,0-2.4,0.2-3.5,0.7c-1.1,0.5-2.1,1.1-2.9,2c-0.8,0.8-1.5,1.8-2,2.9
		C237,70.9,236.8,72.1,236.8,73.3z"/>
	<path fill="#FFFFFF" d="M298.9,89.5h-7.3l-15.5-22.4v22.4h-7.4V57.2h7.3c0.7,0,1.4,0.1,1.9,0.3c0.6,0.2,1,0.5,1.3,1L290.5,75
		c0.2,0.2,0.3,0.5,0.4,0.8c0.1,0.3,0.2,0.6,0.3,0.8c0.1,0.2,0.2,0.5,0.2,0.6c0,0.2,0.1,0.3,0.1,0.3V57.2h7.4V89.5z"/>
</g>
<g>
	<path fill="#FFFFFF" d="M14.4,25.8c0,1.9,0.4,3.7,1.1,5.3c0.8,1.7,1.8,3.1,3,4.4c1.3,1.3,2.8,2.2,4.4,3c1.7,0.7,3.5,1.1,5.4,1.1
		c1.5,0,2.8-0.2,4.1-0.7c1.3-0.4,2.5-1,3.6-1.8c1.2-0.8,2.6-1.2,4.1-1.2c1.2,0,2.2,0.2,3,0.6s1.6,0.9,2.3,1.6l2.9,2.9
		c-1.4,1.5-2.9,2.9-4.5,4.1c-1.6,1.2-3.2,2.2-4.9,3.1c-1.7,0.8-3.4,1.5-5.2,1.9c-1.8,0.5-3.6,0.7-5.4,0.7c-2.3,0-4.5-0.3-6.7-0.9
		c-2.1-0.6-4.1-1.4-6-2.5c-1.9-1.1-3.6-2.4-5.1-3.9c-1.5-1.5-2.8-3.2-3.9-5c-1.1-1.8-1.9-3.8-2.5-6c-0.6-2.1-0.9-4.3-0.9-6.6
		c0-2.3,0.3-4.5,0.9-6.6c0.6-2.1,1.5-4.1,2.5-6c1.1-1.8,2.4-3.5,3.9-5c1.5-1.5,3.2-2.8,5.1-3.9c1.9-1.1,3.9-1.9,6-2.5
		c2.1-0.6,4.4-0.9,6.7-0.9c1.8,0,3.6,0.2,5.4,0.7C35.6,2,37.3,2.7,39,3.5c1.7,0.8,3.3,1.9,4.9,3.1c1.6,1.2,3.1,2.6,4.5,4.1l-2.9,2.9
		c-0.7,0.7-1.5,1.2-2.4,1.6c-0.9,0.4-1.9,0.6-3,0.6c-1.5,0-2.9-0.4-4.1-1.3c-1.1-0.8-2.4-1.4-3.6-1.8c-1.3-0.4-2.6-0.6-4.1-0.6
		c-1.9,0-3.7,0.4-5.4,1.1c-1.7,0.7-3.2,1.7-4.4,3c-1.3,1.2-2.3,2.7-3,4.4C14.7,22.2,14.4,23.9,14.4,25.8z"/>
	<path fill="#FFFFFF" d="M67.8,30.6c0,1.2,0.2,2.4,0.8,3.5c0.5,1.1,1.2,2,2,2.9c0.8,0.8,1.8,1.5,2.9,1.9c1.1,0.5,2.3,0.7,3.5,0.7
		s2.4-0.2,3.5-0.7c1.1-0.5,2.1-1.1,2.9-1.9c0.9-0.8,1.5-1.8,2-2.9c0.5-1.1,0.8-2.3,0.8-3.5V1.4h11.2v29.2c0,2.8-0.5,5.4-1.6,7.9
		c-1.1,2.4-2.5,4.6-4.4,6.4s-4,3.3-6.5,4.3c-2.5,1.1-5.1,1.6-7.9,1.6c-1.9,0-3.7-0.2-5.4-0.7c-1.7-0.5-3.3-1.2-4.8-2
		c-1.5-0.9-2.9-1.9-4.1-3.2c-1.3-1.2-2.3-2.6-3.2-4.1c-0.9-1.5-1.6-3.1-2.1-4.8c-0.5-1.7-0.7-3.5-0.7-5.4V1.4h11.2V30.6z"/>
	<path fill="#FFFFFF" d="M122.9,12.1c-0.6,0-1.2,0.1-1.7,0.2c-0.6,0.1-1.1,0.3-1.5,0.5c-0.4,0.2-0.8,0.5-1,0.9
		c-0.3,0.3-0.4,0.8-0.4,1.2c0,0.7,0.2,1.3,0.5,1.7c0.4,0.4,0.9,0.8,1.7,1.1c0.7,0.3,1.7,0.6,2.8,0.9c1.1,0.3,2.4,0.7,3.9,1.2
		c1.9,0.6,3.6,1.4,5.2,2.3c1.6,0.9,2.9,2,4,3.2c1.1,1.2,2,2.6,2.6,4.2c0.6,1.5,0.9,3.3,0.9,5.2c0,2.4-0.5,4.5-1.5,6.5
		c-1,2-2.3,3.7-4,5.1c-1.7,1.4-3.6,2.5-5.8,3.3c-2.2,0.8-4.5,1.2-6.8,1.2c-2,0-3.9-0.3-5.7-0.9s-3.5-1.4-5-2.5
		c-1.5-1.1-2.8-2.3-4-3.8c-1.1-1.5-2-3.1-2.7-4.8l3.6-2c0.6-0.3,1.2-0.6,1.8-0.8c0.6-0.2,1.3-0.3,2-0.3c1,0,1.9,0.2,2.6,0.6
		c0.8,0.4,1.6,0.9,2.3,1.3c0.8,0.5,1.5,0.9,2.3,1.3c0.8,0.4,1.7,0.6,2.7,0.6c0.7,0,1.4-0.1,2.2-0.3c0.8-0.2,1.6-0.5,2.3-0.9
		c0.7-0.4,1.3-0.9,1.7-1.5s0.7-1.3,0.7-2.1c0-0.8-0.2-1.4-0.6-1.8c-0.4-0.5-1-0.9-1.7-1.2c-0.7-0.4-1.5-0.7-2.5-1
		c-0.9-0.3-1.9-0.6-2.9-1.1c-1.7-0.6-3.3-1.3-5-2.1c-1.6-0.8-3.1-1.7-4.4-2.8s-2.4-2.4-3.2-4c-0.8-1.6-1.2-3.5-1.2-5.9
		c0-2.2,0.4-4.2,1.3-5.9c0.9-1.7,2.1-3.2,3.6-4.4c1.5-1.2,3.2-2.1,5.1-2.7s3.9-0.9,5.9-0.9c1.5,0,2.9,0.2,4.3,0.7
		c1.4,0.5,2.7,1.1,3.9,1.9c1.2,0.8,2.4,1.7,3.4,2.7s2,2,2.9,3.1l-3.4,2.9c-0.7,0.6-1.4,1-2.1,1.3c-0.7,0.3-1.6,0.4-2.5,0.4
		c-0.7,0-1.4-0.1-1.9-0.3c-0.5-0.2-1.1-0.4-1.5-0.6c-0.5-0.2-1-0.4-1.4-0.6C124,12.2,123.5,12.1,122.9,12.1z"/>
	<path fill="#FFFFFF" d="M143.1,11.8V1.3h38.4v10.5h-13.6v38.5h-11.2V11.8H143.1z"/>
	<path fill="#FFFFFF" d="M182.7,25.8c0-2.3,0.3-4.5,0.9-6.6c0.6-2.1,1.5-4.1,2.5-6c1.1-1.8,2.4-3.5,3.9-5c1.5-1.5,3.2-2.8,5.1-3.9
		c1.9-1.1,3.9-1.9,6-2.5c2.1-0.6,4.4-0.9,6.7-0.9c2.3,0,4.5,0.3,6.7,0.9c2.1,0.6,4.1,1.4,6,2.5c1.9,1.1,3.6,2.4,5.1,3.9
		c1.5,1.5,2.8,3.2,3.9,5c1.1,1.8,1.9,3.8,2.5,6c0.6,2.1,0.9,4.3,0.9,6.6c0,2.3-0.3,4.5-0.9,6.6c-0.6,2.1-1.5,4.1-2.5,6
		c-1.1,1.8-2.4,3.5-3.9,5c-1.5,1.5-3.2,2.8-5.1,3.9c-1.9,1.1-3.9,1.9-6,2.5c-2.1,0.6-4.4,0.9-6.7,0.9c-2.3,0-4.5-0.3-6.7-0.9
		c-2.1-0.6-4.1-1.4-6-2.5c-1.9-1.1-3.6-2.4-5.1-3.9c-1.5-1.5-2.8-3.2-3.9-5c-1.1-1.8-1.9-3.8-2.5-6C183,30.3,182.7,28.1,182.7,25.8z
		 M193.9,25.8c0,1.9,0.4,3.7,1.1,5.3c0.8,1.7,1.8,3.1,3,4.4c1.3,1.3,2.8,2.2,4.4,3c1.7,0.7,3.5,1.1,5.4,1.1c1.9,0,3.6-0.4,5.3-1.1
		c1.7-0.7,3.2-1.7,4.5-3c1.3-1.3,2.3-2.7,3-4.4c0.8-1.7,1.1-3.5,1.1-5.3c0-1.9-0.4-3.7-1.1-5.3c-0.8-1.7-1.8-3.1-3-4.4
		c-1.3-1.2-2.8-2.2-4.5-3c-1.7-0.7-3.5-1.1-5.3-1.1c-1.9,0-3.7,0.4-5.4,1.1c-1.7,0.7-3.2,1.7-4.4,3c-1.3,1.2-2.3,2.7-3,4.4
		C194.2,22.2,193.9,23.9,193.9,25.8z"/>
	<path fill="#FFFFFF" d="M298.9,50.3h-11.2V17.7l-12.3,32.6h-9.7l-12.6-32.6v32.6H242V1.4h12.2c0.8,0,1.5,0.1,2.3,0.3
		c0.7,0.2,1.4,0.5,2,0.9c0.6,0.4,1.1,0.8,1.6,1.4c0.5,0.5,0.8,1.1,1,1.8l8.6,24.5c0.1,0.4,0.2,0.8,0.3,1.2c0.1,0.5,0.2,0.9,0.3,1.3
		c0.1,0.5,0.2,1,0.2,1.5c0-0.5,0.1-1,0.2-1.5c0.1-0.4,0.2-0.8,0.3-1.3c0.1-0.5,0.2-0.9,0.4-1.2l8.5-24.5c0.2-0.7,0.6-1.3,1.1-1.8
		c0.5-0.5,1-1,1.6-1.4c0.6-0.4,1.3-0.6,2-0.8s1.5-0.3,2.2-0.3h12.2V50.3z"/>
</g>
</svg>
