<?xml version="1.0" encoding="UTF-8" standalone="no"?>
<svg
   xmlns:dc="http://purl.org/dc/elements/1.1/"
   xmlns:cc="http://creativecommons.org/ns#"
   xmlns:rdf="http://www.w3.org/1999/02/22-rdf-syntax-ns#"
   xmlns:svg="http://www.w3.org/2000/svg"
   xmlns="http://www.w3.org/2000/svg"
   id="svg8"
   version="1.1"
   viewBox="0 0 105.83333 39.687501"
   height="150"
   width="400">
  <defs
     id="defs2" />
  <metadata
     id="metadata5">
    <rdf:RDF>
      <cc:Work
         rdf:about="">
        <dc:format>image/svg+xml</dc:format>
        <dc:type
           rdf:resource="http://purl.org/dc/dcmitype/StillImage" />
        <dc:title></dc:title>
      </cc:Work>
    </rdf:RDF>
  </metadata>
  <g
     transform="translate(0,-257.31248)"
     id="layer1">
    <g
       transform="matrix(3.2645388,0,0,3.2645388,-48.55348,-630.16767)"
       id="text817"
       style="font-style:normal;font-variant:normal;font-weight:normal;font-stretch:normal;font-size:10.58333302px;line-height:1.25;font-family:GRADIUS;-inkscape-font-specification:GRADIUS;letter-spacing:0px;word-spacing:0px;fill:#ffffff;fill-opacity:1;stroke:none;stroke-width:0.26458332"
       aria-label="Kids">
      <path
         id="path828"
         style="font-style:normal;font-variant:normal;font-weight:normal;font-stretch:normal;font-family:'SF Fedora Shadow';-inkscape-font-specification:'SF Fedora Shadow';stroke-width:0.26458332;fill:#ffffff"
         d="m 24.436488,272.53249 q -0.635621,0.72347 -1.529623,1.62781 -0.894002,0.90434 -2.072225,2.01538 0.542603,-1.33325 0.888835,-2.17041 0.3514,-0.83716 0.511597,-1.17306 l -2.17041,0.0103 q -1.131714,2.3151 -2.103231,4.65088 -0.966349,2.33061 -1.793172,4.75423 l 2.232421,-0.14469 q 0.423747,-1.06454 0.744141,-1.84485 0.325562,-0.78032 0.558106,-1.31258 0.63562,0.78548 0.63562,2.1394 0,0.42891 -0.06201,0.97669 l 2.413289,-0.31006 q 0.01033,-0.14987 0.0155,-0.28939 0.0052,-0.1447 0.0052,-0.27905 0,-2.11357 -0.795817,-3.87574 0.573608,-0.52193 0.992187,-0.9095 0.423747,-0.39274 0.7028,-0.65629 0.775146,-0.78032 1.44694,-1.46245 0.676961,-0.68212 1.27124,-1.30224 z m 2.041219,0.59428 q -0.599447,0.61495 -1.276408,1.30741 -0.671794,0.69247 -1.44694,1.46761 -0.02584,0.0155 -0.04134,0.0362 -0.0155,0.0207 -0.03101,0.0362 l -0.718303,0.7183 q -0.149861,0.1447 -0.346232,0.32557 -0.19637,0.1757 -0.428914,0.39274 0.733805,1.73116 0.733805,3.77238 0,0.12402 -0.0052,0.26355 -0.0052,0.13952 -0.0155,0.28422 v 0.21187 l -0.775147,0.093 q 0,0.11369 -0.0052,0.23771 -0.0052,0.12402 -0.0155,0.25321 v 0.21188 l -2.868042,0.35656 q 0.09302,-0.82165 0.09302,-1.21439 0,-0.32556 -0.03617,-0.60978 -0.03617,-0.28939 -0.108521,-0.54777 -0.304891,0.72347 -0.63562,1.58129 l -0.496094,0.031 q -0.07235,0.18087 -0.144694,0.37207 -0.07235,0.1912 -0.155029,0.38757 l -2.687174,0.18087 q 0.878499,-2.58899 1.886189,-5.03328 1.007691,-2.4443 2.175578,-4.82141 h 0.403076 q 0.09819,-0.19637 0.191203,-0.39274 0.09818,-0.20154 0.201538,-0.39791 l 2.635498,-0.0103 q -0.06718,0.13953 -0.180867,0.39274 -0.108521,0.25322 -0.258383,0.60462 -0.144694,0.34623 -0.325561,0.78031 -0.1757,0.43408 -0.377238,0.93018 0.191203,-0.19121 0.377238,-0.37207 0.186035,-0.18087 0.361735,-0.35657 0.821655,-0.83716 1.410767,-1.50379 l 0.05168,0.0207 q 0.206706,-0.21704 0.387573,-0.41857 0.186035,-0.20671 0.3514,-0.39791 l 2.020548,0.47542 0.09819,0.3514 z" />
      <path
         id="path830"
         style="font-style:normal;font-variant:normal;font-weight:normal;font-stretch:normal;font-family:'SF Fedora Shadow';-inkscape-font-specification:'SF Fedora Shadow';stroke-width:0.26458332;fill:#ffffff"
         d="m 28.012496,272.85289 q -1.767333,3.62251 -3.116088,7.53442 l 1.824178,-0.12919 q 0.599446,-1.74667 1.35909,-3.58635 0.764811,-1.83968 1.71049,-3.82922 z m 1.963705,0.0827 q -0.935344,1.96887 -1.705322,3.83956 -0.769979,1.86552 -1.395264,3.68453 l -0.5271,0.0413 q -0.07235,0.19637 -0.139526,0.38757 -0.06201,0.18604 -0.124023,0.3669 l -2.289266,0.1602 q 0.733805,-2.12907 1.55546,-4.11861 0.821656,-1.99471 1.725993,-3.8654 h 0.413412 l 0.382405,-0.79065 1.917196,-0.0103 0.186035,0.30489 z" />
      <path
         id="path832"
         style="font-style:normal;font-variant:normal;font-weight:normal;font-stretch:normal;font-family:'SF Fedora Shadow';-inkscape-font-specification:'SF Fedora Shadow';stroke-width:0.26458332;fill:#ffffff"
         d="m 33.045781,276.43923 q 0,-0.23771 -0.103353,-0.42375 -0.103353,-0.18603 -0.310059,-0.33589 -0.0155,-0.0103 -0.03617,-0.0207 -0.02067,-0.0155 -0.03617,-0.0258 -0.279053,0.56844 -0.568441,1.2299 -0.28422,0.66145 -0.578776,1.42627 0.604615,-0.18604 1.157552,-0.62012 0.475424,-0.62529 0.475424,-1.2299 z m 1.002522,-0.79582 q 0,1.0232 -1.162719,2.03605 -0.842326,0.72864 -1.819011,0.93018 0.475424,-1.28158 0.914673,-2.25826 0.43925,-0.98185 0.842326,-1.67948 l -0.320394,-0.31523 q 0.645956,0.062 1.049032,0.35657 0.496093,0.3514 0.496093,0.93017 z m 1.803508,-0.58911 q 0,-1.16789 -1.100708,-1.76733 -0.873332,-0.48576 -2.160075,-0.48576 -0.687296,0 -1.421102,0.16536 l -0.387573,1.5658 q 0.273885,-0.0879 0.485758,-0.12402 -0.754475,1.50378 -1.400431,2.98689 -0.640788,1.47795 -1.193725,2.98173 0.485758,-0.031 0.847493,-0.0517 0.361735,-0.0258 0.61495,-0.0465 1.658813,-0.14986 3.245279,-1.32292 1.612305,-1.19372 2.211752,-2.73885 0.258382,-0.65112 0.258382,-1.16272 z m 0.211873,0 q 0,0.55811 -0.268717,1.23507 -0.516765,1.34359 -1.777669,2.42362 -0.537435,0.65113 -1.302247,1.20923 -0.821655,0.60462 -1.658813,0.95085 -0.837158,0.34106 -1.705322,0.41341 -0.124024,0.0103 -0.330729,0.0258 -0.201538,0.0103 -0.444418,0.0258 -0.242879,0.0155 -0.506429,0.0362 -0.263549,0.0155 -0.506429,0.031 0.563273,-1.53479 1.183391,-2.99206 0.625284,-1.46244 1.322916,-2.88355 l -0.366902,0.10336 0.506429,-2.04122 q 0.310058,-0.0775 0.625284,-0.12403 l 0.170533,-0.66662 q 0.454752,-0.11369 0.847493,-0.1602 0.397909,-0.0517 0.738973,-0.0517 0.671794,0 1.235067,0.12919 0.563273,0.12402 1.028361,0.38757 v -0.0103 q 1.209228,0.66663 1.209228,1.95854 z" />
      <path
         id="path834"
         style="font-style:normal;font-variant:normal;font-weight:normal;font-stretch:normal;font-family:'SF Fedora Shadow';-inkscape-font-specification:'SF Fedora Shadow';stroke-width:0.26458332;fill:#ffffff"
         d="m 42.600753,272.72369 q -0.222209,-0.0207 -0.45992,-0.0362 -0.232544,-0.0155 -0.480591,-0.0155 -1.012858,0 -1.648478,0.26355 -0.816488,0.34106 -1.421102,1.00769 -0.707967,0.76998 -0.707967,1.54512 0,0.28422 0.09302,0.73898 0.05684,0.26355 0.08785,0.44441 0.03101,0.18087 0.04134,0.28422 0.01034,0.11886 0.0155,0.24805 0.0052,0.12402 0.0052,0.26355 0,0.32039 -0.113688,0.47026 -0.108521,0.15503 -0.413412,0.25838 -0.258382,0.0879 -0.614949,0.1602 -0.3514,0.0723 -0.816488,0.12402 l -0.54777,1.89652 q 0.609782,-0.0413 1.167887,-0.15503 0.558106,-0.11885 1.07487,-0.29972 1.281576,-0.45992 1.870687,-1.25057 0.09819,-0.11885 0.180867,-0.28422 0.08785,-0.16536 0.170533,-0.37207 0.180867,-0.48059 0.180867,-0.94051 0,-0.093 -0.03101,-0.40824 -0.03101,-0.31523 -0.10852,-0.863 -0.04134,-0.34107 -0.06201,-0.52193 -0.02067,-0.18604 -0.02067,-0.22738 0,-0.41341 0.707967,-0.52193 0.05168,-0.0103 1.018025,-0.0413 l 0.831991,-1.76734 z m -0.930176,1.97921 q -0.05684,0 -0.103353,0.005 -0.04651,0.005 -0.08785,0.005 l -0.366902,0.78548 h -0.222209 q -0.191203,0.0103 -0.335897,0.0155 -0.144694,0.005 -0.258382,0.005 0.01034,0.0568 0.0155,0.11885 0.01033,0.062 0.02584,0.13436 0.07235,0.54261 0.103353,0.86817 0.03617,0.32039 0.03617,0.43408 0,0.5116 -0.191203,1.01803 -0.08268,0.21704 -0.1757,0.3979 -0.09302,0.1757 -0.206706,0.31006 -0.149861,0.19121 -0.325561,0.36691 -0.1757,0.17053 -0.392741,0.32039 -0.0155,0.0258 -0.03617,0.0517 -0.02067,0.0258 -0.03617,0.0517 -0.656291,0.85266 -1.968872,1.32292 -0.537435,0.19637 -1.18339,0.32039 -0.645956,0.11886 -1.421102,0.17053 l 0.676961,-2.32027 q 0.160197,-0.0155 0.304891,-0.0362 0.144694,-0.0207 0.279053,-0.0362 l 0.211873,-0.72347 q 0.325561,-0.031 0.604614,-0.0723 0.279053,-0.0465 0.506429,-0.10335 -0.01033,-0.0879 -0.02067,-0.1757 -0.0052,-0.0879 -0.0052,-0.1757 -0.01034,-0.0879 -0.04134,-0.25839 -0.02584,-0.1757 -0.08268,-0.43925 -0.04651,-0.23254 -0.07235,-0.42374 -0.02584,-0.19637 -0.02584,-0.36174 0,-0.86299 0.764812,-1.68982 v 0.0103 q 0.129191,-0.1447 0.268717,-0.27389 0.139526,-0.13436 0.279053,-0.24804 0.05684,-0.0724 0.118855,-0.13953 0.06201,-0.0723 0.129192,-0.14469 v 0.0103 q 0.315226,-0.35657 0.687296,-0.62012 0.37207,-0.26355 0.800985,-0.43925 0.676961,-0.28422 1.736328,-0.28422 0.258382,0 0.578776,0.0207 0.325561,0.0207 0.682129,0.062 l -1.018026,2.16007 z" />
    </g>
    <g
       id="text839"
       style="font-style:italic;font-variant:normal;font-weight:normal;font-stretch:normal;font-size:9.14977932px;line-height:1.25;font-family:'SF Fedora Titles';-inkscape-font-specification:'SF Fedora Titles Italic';letter-spacing:0px;word-spacing:0px;fill:#ffffff;fill-opacity:1;stroke:none;stroke-width:0.22874448"
       transform="matrix(1.1926501,0,0,1.0002794,-9.7566158,-27.320649)"
       aria-label="FRIENDLY">
      <path
         id="path841"
         style="font-style:italic;font-variant:normal;font-weight:normal;font-stretch:normal;font-family:'SF Fedora Titles';-inkscape-font-specification:'SF Fedora Titles Italic';stroke-width:0.22874448;fill:#ffffff"
         d="m 51.519933,318.24151 h -4.266621 q -0.160836,0 -0.183174,0.15637 l -0.263593,1.52794 h 3.659019 l -0.165304,0.9114 h -3.659018 l -0.455702,2.59125 h -0.915872 l 0.915872,-5.18696 q 0.07595,-0.38422 0.384219,-0.64335 0.303801,-0.27252 0.692488,-0.27252 h 4.422989 z" />
      <path
         id="path843"
         style="font-style:italic;font-variant:normal;font-weight:normal;font-stretch:normal;font-family:'SF Fedora Titles';-inkscape-font-specification:'SF Fedora Titles Italic';stroke-width:0.22874448;fill:#ffffff"
         d="m 57.832744,318.3666 q 0,-0.12509 -0.120627,-0.12509 H 54.3569 l -0.294866,1.68431 h 3.35075 q 0.160836,0 0.183174,-0.15637 z m 0.960548,-0.27253 q 0,0.0268 -0.0045,0.067 -0.0045,0.0357 -0.0134,0.0804 -0.07595,0.47357 -0.147433,0.898 -0.07148,0.41996 -0.147433,0.78631 -0.07595,0.37528 -0.38422,0.64781 -0.317204,0.26359 -0.692488,0.26359 h -0.889065 l 1.344767,2.59125 h -1.143722 l -1.344768,-2.59125 h -1.474329 l -0.455702,2.59125 h -0.915872 l 1.081175,-6.10283 h 4.418522 q 0.330607,0 0.549523,0.21891 0.218915,0.21892 0.218915,0.54952 z" />
      <path
         id="path845"
         style="font-style:italic;font-variant:normal;font-weight:normal;font-stretch:normal;font-family:'SF Fedora Titles';-inkscape-font-specification:'SF Fedora Titles Italic';stroke-width:0.22874448;fill:#ffffff"
         d="M 61.071802,323.42847 H 60.15593 l 1.081175,-6.10283 h 0.911404 z" />
      <path
         id="path847"
         style="font-style:italic;font-variant:normal;font-weight:normal;font-stretch:normal;font-family:'SF Fedora Titles';-inkscape-font-specification:'SF Fedora Titles Italic';stroke-width:0.22874448;fill:#ffffff"
         d="m 69.605042,318.24151 h -4.26662 q -0.160836,0 -0.183175,0.15637 l -0.263592,1.52794 h 3.659018 l -0.165303,0.9114 h -3.659018 l -0.263593,1.55028 q 0,0.1251 0.11616,0.1251 h 4.275556 l -0.165304,0.91587 H 64.27065 q -0.330608,0 -0.549523,-0.21892 -0.218916,-0.21891 -0.218916,-0.54059 0,-0.0804 0.01787,-0.15636 l 0.750568,-4.27109 q 0.07595,-0.38422 0.384219,-0.64335 0.303801,-0.27252 0.692488,-0.27252 h 4.422989 z" />
      <path
         id="path849"
         style="font-style:italic;font-variant:normal;font-weight:normal;font-stretch:normal;font-family:'SF Fedora Titles';-inkscape-font-specification:'SF Fedora Titles Italic';stroke-width:0.22874448;fill:#ffffff"
         d="m 76.319945,323.42847 h -0.915872 l -2.716341,-4.44533 -0.786309,4.44533 h -0.915871 l 1.081175,-6.10283 h 0.911404 l 2.720808,4.43639 0.786309,-4.43639 h 0.915872 z" />
      <path
         id="path851"
         style="font-style:italic;font-variant:normal;font-weight:normal;font-stretch:normal;font-family:'SF Fedora Titles';-inkscape-font-specification:'SF Fedora Titles Italic';stroke-width:0.22874448;fill:#ffffff"
         d="m 83.923912,318.3666 q 0,-0.12509 -0.120627,-0.12509 H 80.448068 L 79.6975,322.5126 h 3.346282 q 0.160836,0 0.183174,-0.15637 z m 0.960548,-0.27253 q 0,0.0715 -0.01787,0.14744 l -0.750568,4.27109 q -0.07595,0.37528 -0.38422,0.65227 -0.326139,0.2636 -0.696955,0.2636 h -4.418522 l 1.081175,-6.10283 h 4.418522 q 0.330607,0 0.549523,0.21891 0.218915,0.21892 0.218915,0.54952 z" />
      <path
         id="path853"
         style="font-style:italic;font-variant:normal;font-weight:normal;font-stretch:normal;font-family:'SF Fedora Titles';-inkscape-font-specification:'SF Fedora Titles Italic';stroke-width:0.22874448;fill:#ffffff"
         d="m 89.294045,323.42847 h -3.046948 l 1.081175,-6.10283 h 0.911404 l -0.911404,5.18696 h 2.131077 z" />
      <path
         id="path855"
         style="font-style:italic;font-variant:normal;font-weight:normal;font-stretch:normal;font-family:'SF Fedora Titles';-inkscape-font-specification:'SF Fedora Titles Italic';stroke-width:0.22874448;fill:#ffffff"
         d="m 94.08785,320.52895 -0.513781,2.89952 h -0.911404 l 0.509314,-2.89952 -1.644101,-3.20331 H 92.6716 l 1.134787,2.22489 1.921097,-2.22489 h 1.143722 z" />
    </g>
  </g>
</svg>
