<?xml version="1.0" encoding="UTF-8" standalone="no"?>
<svg
   xmlns:dc="http://purl.org/dc/elements/1.1/"
   xmlns:cc="http://creativecommons.org/ns#"
   xmlns:rdf="http://www.w3.org/1999/02/22-rdf-syntax-ns#"
   xmlns:svg="http://www.w3.org/2000/svg"
   xmlns="http://www.w3.org/2000/svg"
   id="svg8"
   version="1.1"
   viewBox="0 0 105.83333 39.687501"
   height="150"
   width="400">
  <defs
     id="defs2" />
  <metadata
     id="metadata5">
    <rdf:RDF>
      <cc:Work
         rdf:about="">
        <dc:format>image/svg+xml</dc:format>
        <dc:type
           rdf:resource="http://purl.org/dc/dcmitype/StillImage" />
        <dc:title></dc:title>
      </cc:Work>
    </rdf:RDF>
  </metadata>
  <g
     transform="translate(0,-257.31248)"
     id="layer1">
    <path
       style="font-style:normal;font-variant:normal;font-weight:normal;font-stretch:normal;font-size:medium;line-height:1.25;font-family:'Fujita Ray';-inkscape-font-specification:'Fujita Ray';letter-spacing:0px;word-spacing:0px;opacity:1;fill:none;fill-opacity:1;stroke:#ffffff;stroke-width:0.62488902;stroke-opacity:1"
       d="m 86.300885,263.02263 c 0,5.27801 0,10.55603 0,15.83404 1.474671,1.24031 2.949217,2.48079 4.423785,3.72123 1.403019,-1.20155 2.805594,-2.40361 4.208413,-3.60539 0,2.97197 0,5.94394 0,8.91591 1.43557,0.98966 2.486305,3.01055 4.465874,2.54485 0.58686,-1.01861 0.08795,-3.12299 0.253491,-4.56292 0,-2.19497 0,-4.38994 0,-6.58492 1.896602,-1.39884 3.793202,-2.79765 5.689762,-4.19653 -3.25874,-1.94978 -6.721593,-3.78264 -9.854607,-5.80514 -0.150887,-1.38685 -1.96704,-2.04992 -2.782503,-3.14789 -1.239982,-1.32331 -2.161899,-1.74842 -3.172815,-2.87157 -1.077133,-1.14866 -2.154267,-2.29733 -3.2314,-3.446 0,1.06812 0,2.13621 0,3.20433 z"
       id="path1050" />
    <path
       id="path1135"
       d="m 53.386426,264.82497 0.0059,3.40287 -12.541567,0.0101 c -1.819919,0 -3.747101,0.68361 -4.19554,2.00172 l -0.0084,-2.00172 h -5.660068 c -2.062559,0 -2.963562,0.50245 -3.412776,1.72594 -0.0054,-1.48999 0.05298,-1.70663 0.05298,-1.70663 l -2.505738,-0.0118 H 7.007729 c 0.1838318,2.83424 -0.3803951,5.76291 0.3010254,8.5406 -1.3786102,0.28178 -3.6851428,-0.82812 -3.9192707,1.16993 -0.9895952,2.37602 -1.9794705,4.7521 -2.9691593,7.12807 4.7033533,-0.10203 9.4331603,0.19106 14.1229406,-0.12031 0.954099,-0.005 2.25725,0.20481 3.528135,0.10349 2.531483,-0.0458 9.738168,0.0162 12.267773,0.0326 2.971702,-0.0127 4.595181,-0.74008 5.107527,-2.09876 v 2.06857 c 0,0 3.408935,4e-5 5.187243,-0.0133 4.335508,0.0133 5.450751,0.12927 6.642855,-2.0552 v 2.06856 l 7.78705,0.0143 c 0.0026,-2.82871 0.004,-8.49011 0.004,-8.49011 l 2.504254,1.9938 v 6.47949 l 2.849837,0.003 h 1.199646 l 5.294185,3.91037 4.923843,-3.91037 h 0.462925 l 0.998631,1.87002 0.985263,-1.87249 h 12.791583 c -1.171706,-2.69952 -3.515263,-8.09848 -3.515263,-8.09848 l -1.330849,-0.002 -0.0024,-3.29346 c 0,0 2e-6,-3.62978 0,-5.4447 h -7.542964 l -1.466013,3.2583 -1.302134,-3.24889 c 0,0 -7.756935,0.0482 -12.059824,-0.0101 -2.135879,-1.17481 -4.312598,-2.27255 -6.472046,-3.40288 z m 2.088857,4.27079 0.871389,0.45254 2.488411,1.3452 v 5.78335 l -3.362772,-2.67309 c 0.01461,0.008 0.0029,-4.908 0.0029,-4.908 z m -9.418431,1.75913 h 8.557441 v 3.29543 H 52.07538 v 8.4906 H 48.360093 V 274.083 h -2.303241 z m 13.596643,0 h 6.826047 v 3.12709 H 63.20094 v 1.59722 h 2.219072 v 2.35374 h -2.303241 v 1.66455 h 3.430104 v 5.93486 l -3.628147,-2.90827 h -3.265233 z m 7.650895,0 h 3.413271 l 2.521582,5.39716 2.589413,-5.39716 h 3.412776 v 8.74062 h 2.204712 l 1.314512,3.02857 h -6.999335 v -5.21198 l -2.454742,5.11099 -2.387408,-5.11099 v 5.24565 l -3.614781,2.88549 z m -58.2152294,0.0168 h 7.2463934 v 3.21128 h -3.883623 v 0.87434 c 0.72855,0.0112 1.37297,0.15131 1.933395,0.42035 0.235378,0.11209 0.46502,0.26348 0.689188,0.45402 0.235381,0.17934 0.443015,0.40335 0.622351,0.67235 0.179337,0.26901 0.319469,0.58865 0.420345,0.95852 0.112086,0.36989 0.167842,0.79541 0.167842,1.27739 -0.03362,0.72854 -0.173756,1.37908 -0.420346,1.95072 -0.112084,0.24659 -0.252219,0.48748 -0.420346,0.72286 -0.168128,0.22416 -0.375267,0.43131 -0.621856,0.62185 -0.235378,0.17934 -0.521271,0.32509 -0.857525,0.43719 -0.336255,0.11207 -0.722905,0.16833 -1.160037,0.16833 H 3.768736 l 1.344712,-3.22806 h 6.329453 c 0.280212,0.0112 0.527225,-0.0112 0.740187,-0.0674 0.190543,-0.0559 0.358308,-0.14552 0.504018,-0.26884 0.15692,-0.1345 0.235671,-0.34215 0.235671,-0.62236 0.01121,-0.15691 -0.0338,-0.29705 -0.134669,-0.42033 -0.08967,-0.11209 -0.235427,-0.21847 -0.437179,-0.31934 -0.201753,-0.10085 -0.504522,-0.16838 -0.908028,-0.20202 -0.437131,-0.0224 -0.823781,-0.12881 -1.160036,-0.31934 -0.2914208,-0.14571 -0.5604384,-0.3866 -0.8070253,-0.72285 -0.246587,-0.33627 -0.3754705,-0.80116 -0.3866791,-1.39523 z m 8.0217314,0 h 3.698948 v 4.1698 h 1.933393 v -4.1698 h 3.698454 V 282.624 h -3.698454 v -3.81678 H 20.80984 v 3.81678 h -3.698948 z m 14.182353,0 h 4.556473 v 6.15369 c 0.01121,1.0536 -0.140175,1.98953 -0.454014,2.80775 -0.1345,0.34746 -0.314012,0.68912 -0.53818,1.02538 -0.21296,0.33624 -0.48711,0.63901 -0.823363,0.90802 -0.336257,0.2578 -0.739784,0.46494 -1.210538,0.62185 -0.459549,0.15692 -0.997585,0.23006 -1.614051,0.21885 h -3.950958 v -6.65822 c 0.02243,-0.93029 0.178934,-1.76498 0.470352,-2.50474 0.123292,-0.31384 0.280303,-0.62224 0.470848,-0.92487 0.190544,-0.30262 0.425808,-0.57163 0.706022,-0.80702 0.291421,-0.24658 0.633565,-0.44247 1.025864,-0.58819 0.392297,-0.15691 0.845954,-0.24129 1.361545,-0.2525 z m 9.42437,0 h 4.556473 v 6.15369 c 0.01122,1.0536 -0.140172,1.98953 -0.454012,2.80775 -0.134501,0.34746 -0.314012,0.68912 -0.538183,1.02538 -0.212961,0.33624 -0.487602,0.63901 -0.823858,0.90802 -0.336253,0.2578 -0.739286,0.46494 -1.210044,0.62185 -0.459546,0.15692 -0.997581,0.23006 -1.614048,0.21885 h -3.951455 v -6.65822 c 0.02243,-0.93029 0.179432,-1.76498 0.470849,-2.50474 0.123293,-0.31384 0.280302,-0.62224 0.470848,-0.92487 0.190544,-0.30262 0.42582,-0.57163 0.706021,-0.80702 0.291422,-0.24658 0.633565,-0.44247 1.025863,-0.58819 0.3923,-0.15691 0.845956,-0.24129 1.361546,-0.2525 z m -10.231395,3.26177 v 5.37984 h 1.883387 v -5.37984 z m 9.424371,0 v 5.37984 h 1.883388 v -5.37984 z"
       style="font-style:normal;font-variant:normal;font-weight:normal;font-stretch:normal;font-size:medium;line-height:1.25;font-family:Arwing;-inkscape-font-specification:Arwing;letter-spacing:0px;word-spacing:0px;opacity:1;fill:#ffffff;fill-opacity:1;stroke:none;stroke-width:0.42031866" />
    <path
       d="m 94.207261,277.20473 -0.0122,0.72008 -3.490592,2.9902 -3.148854,-2.64847 v -15.24388 l 2.20908,2.35555 v 11.85091 l 0.890956,0.68347 1.171665,-1.09843 v -9.7517 l 2.37995,2.2213 z"
       style="font-style:normal;font-variant:normal;font-weight:normal;font-stretch:normal;font-size:medium;line-height:1.25;font-family:'Fujita Ray';-inkscape-font-specification:'Fujita Ray';letter-spacing:0px;word-spacing:0px;fill:#ffffff;fill-opacity:1;stroke:none;stroke-width:0.62488902;stroke-opacity:1"
       id="path828" />
    <path
       d="m 98.04272,274.03157 v 1.62326 l -1.842941,1.22048 -0.01221,-5.62645 6.834721,3.96659 -4.650049,3.42957 v 10.5206 h -0.04876 l -2.135856,-1.85516 v -9.40994 l 3.929965,-2.63624 -1.891758,-1.13506 q -0.06103,-0.061 -0.183062,-0.0977 z"
       style="font-style:normal;font-variant:normal;font-weight:normal;font-stretch:normal;font-size:medium;line-height:1.25;font-family:'Fujita Ray';-inkscape-font-specification:'Fujita Ray';letter-spacing:0px;word-spacing:0px;fill:#ffffff;fill-opacity:1;stroke:none;stroke-width:0.62488902;stroke-opacity:1"
       id="path830" />
    <path
       style="font-style:normal;font-variant:normal;font-weight:normal;font-stretch:normal;font-size:medium;line-height:1.25;font-family:Arwing;-inkscape-font-specification:Arwing;letter-spacing:0px;word-spacing:0px;opacity:0.2;fill:#000000;fill-opacity:1;stroke:none;stroke-width:0.4387041"
       d="m 81.37968,227.90625 c 0.671443,2.7842 1.298908,-0.84555 0,0 z m 9.815419,0.9617 c 1.248201,-1.23601 -0.564554,-1.67497 0,0 z"
       id="path1121" />
  </g>
</svg>
