<?xml version="1.0" encoding="UTF-8" standalone="no"?>
<svg
   xmlns:dc="http://purl.org/dc/elements/1.1/"
   xmlns:cc="http://creativecommons.org/ns#"
   xmlns:rdf="http://www.w3.org/1999/02/22-rdf-syntax-ns#"
   xmlns:svg="http://www.w3.org/2000/svg"
   xmlns="http://www.w3.org/2000/svg"
   id="svg8"
   version="1.1"
   viewBox="0 0 105.83333 39.687501"
   height="150"
   width="400">
  <defs
     id="defs2" />
  <metadata
     id="metadata5">
    <rdf:RDF>
      <cc:Work
         rdf:about="">
        <dc:format>image/svg+xml</dc:format>
        <dc:type
           rdf:resource="http://purl.org/dc/dcmitype/StillImage" />
        <dc:title></dc:title>
      </cc:Work>
    </rdf:RDF>
  </metadata>
  <g
     transform="translate(0,-257.31247)"
     id="layer1">
    <g
       transform="matrix(1.4592271,0,0,1.4592271,-5.089154,-130.529)"
       id="text817"
       style="font-style:normal;font-weight:normal;font-size:10.58333302px;line-height:1.25;font-family:sans-serif;letter-spacing:0px;word-spacing:0px;fill:#ffffff;fill-opacity:1;stroke:none;stroke-width:0.26458332"
       aria-label="super">
      <path
         id="path846"
         style="font-style:normal;font-variant:normal;font-weight:normal;font-stretch:normal;font-family:'Super Plumber Brothers';-inkscape-font-specification:'Super Plumber Brothers';stroke-width:0.26458332;fill:#ffffff"
         d="m 15.265702,270.78503 h 0.264583 v -0.52916 h 0.264583 v -0.52917 h 0.264584 v -0.26458 h 2.180166 v 0.26458 h 0.264583 v 0.52917 h 0.264584 v 0.52916 h 0.264583 v 0.85725 h -1.852083 v 0.20109 h 0.264583 v 0.26458 h 0.529167 v 0.26458 h 0.529166 v 0.26459 h 0.264584 v 0.52916 h 0.264583 v 1.38642 h -0.264583 v 0.52917 h -0.264584 v 0.52916 h -0.264583 v 0.26459 h -2.180166 v -0.26459 h -0.264584 v -0.52916 h -0.264583 v -0.52917 h -0.264583 v -0.85725 h 2.116666 v -0.20108 h -0.529166 v -0.26459 h -0.529167 v -0.26458 h -0.529167 v -0.26458 h -0.264583 v -0.52917 h -0.264583 z" />
      <path
         id="path848"
         style="font-style:normal;font-variant:normal;font-weight:normal;font-stretch:normal;font-family:'Super Plumber Brothers';-inkscape-font-specification:'Super Plumber Brothers';stroke-width:0.26458332;fill:#ffffff"
         d="m 19.503169,269.46212 h 1.651 v 4.23333 h 0.465666 v -4.23333 h 1.651 v 5.09058 h -0.264583 v 0.52917 h -0.264583 v 0.52916 h -0.264584 v 0.26459 h -2.180166 v -0.26459 h -0.264583 v -0.52916 h -0.264584 v -0.52917 h -0.264583 z" />
      <path
         id="path850"
         style="font-style:normal;font-variant:normal;font-weight:normal;font-stretch:normal;font-family:'Super Plumber Brothers';-inkscape-font-specification:'Super Plumber Brothers';stroke-width:0.26458332;fill:#ffffff"
         d="m 23.740636,269.46212 h 2.973917 v 0.26458 h 0.264583 v 0.52917 h 0.264583 v 0.52916 h 0.264584 v 1.651 h -0.264584 v 0.52917 h -0.264583 v 0.52917 h -0.264583 v 0.26458 h -1.121834 v -2.11667 h -0.201083 v 4.23334 h -1.651 z" />
      <path
         id="path852"
         style="font-style:normal;font-variant:normal;font-weight:normal;font-stretch:normal;font-family:'Super Plumber Brothers';-inkscape-font-specification:'Super Plumber Brothers';stroke-width:0.26458332;fill:#ffffff"
         d="m 27.978104,270.78503 h 0.264583 v -0.52916 h 0.264584 v -0.52917 h 0.264583 v -0.26458 h 2.973916 v 2.18016 h -2.116666 v 2.05317 h 2.116666 v 2.18017 h -2.973916 v -0.26459 h -0.264583 v -0.52916 h -0.264584 v -0.52917 h -0.264583 z m 1.852083,1.05834 h 1.651 v 1.651 h -1.651 z" />
      <path
         id="path854"
         style="font-style:normal;font-variant:normal;font-weight:normal;font-stretch:normal;font-family:'Super Plumber Brothers';-inkscape-font-specification:'Super Plumber Brothers';stroke-width:0.26458332;fill:#ffffff"
         d="m 32.215571,269.46212 h 2.973916 v 0.26458 h 0.264584 v 0.52917 h 0.264583 v 0.52916 h 0.264583 v 1.651 h -0.264583 v 0.26459 h -0.264583 v 0.20108 h 0.264583 v 0.26458 h 0.264583 v 2.70934 h -1.651 v -2.11667 h -0.264583 v -2.11667 h -0.201083 v 4.23334 h -1.651 z" />
    </g>
    <g
       transform="matrix(1.4592271,0,0,1.4592271,-5.3649305,-131.85272)"
       id="text821"
       style="font-style:normal;font-weight:normal;font-size:10.58333302px;line-height:1.25;font-family:sans-serif;letter-spacing:0px;word-spacing:0px;fill:#ffffff;fill-opacity:1;stroke:none;stroke-width:0.26458332"
       aria-label="PLATFORMERS">
      <path
         id="path823"
         style="font-style:normal;font-variant:normal;font-weight:normal;font-stretch:normal;font-family:'Super Plumber Brothers';-inkscape-font-specification:'Super Plumber Brothers';stroke-width:0.26458332;fill:#ffffff"
         d="m 15.45469,279.9699 h 2.973917 v 0.26459 h 0.264583 v 0.52916 h 0.264583 v 0.52917 h 0.264584 v 3.76767 h -0.264584 v 0.52916 H 18.69319 v 0.52917 h -0.264583 v 0.26458 h -1.121833 v -2.18016 h 0.264583 v -2.05317 H 17.10569 v 8.46667 h -1.651 z" />
      <path
         id="path825"
         style="font-style:normal;font-variant:normal;font-weight:normal;font-stretch:normal;font-family:'Super Plumber Brothers';-inkscape-font-specification:'Super Plumber Brothers';stroke-width:0.26458332;fill:#ffffff"
         d="m 19.692158,279.9699 h 1.650999 v 8.46667 h 2.116667 v 2.18017 h -3.767666 z" />
      <path
         id="path827"
         style="font-style:normal;font-variant:normal;font-weight:normal;font-stretch:normal;font-family:'Super Plumber Brothers';-inkscape-font-specification:'Super Plumber Brothers';stroke-width:0.26458332;fill:#ffffff"
         d="m 23.929625,281.29282 h 0.264583 v -0.52917 h 0.264583 v -0.52916 h 0.264584 v -0.26459 h 2.180166 v 0.26459 h 0.264584 v 0.52916 h 0.264583 v 0.52917 h 0.264583 v 9.32392 h -1.651 v -2.11667 h -0.465666 v 2.11667 h -1.651 z m 1.651,5.02708 h 0.465666 v -4.16983 h -0.465666 z" />
      <path
         id="path829"
         style="font-style:normal;font-variant:normal;font-weight:normal;font-stretch:normal;font-family:'Super Plumber Brothers';-inkscape-font-specification:'Super Plumber Brothers';stroke-width:0.26458332;fill:#ffffff"
         d="m 28.167093,279.9699 h 3.767666 v 2.18017 h -1.058333 v 8.46667 h -1.651 v -8.46667 h -1.058333 z" />
      <path
         id="path831"
         style="font-style:normal;font-variant:normal;font-weight:normal;font-stretch:normal;font-family:'Super Plumber Brothers';-inkscape-font-specification:'Super Plumber Brothers';stroke-width:0.26458332;fill:#ffffff"
         d="m 32.404559,279.9699 h 3.767667 v 2.18017 h -2.116667 v 8.46667 h -1.651 z m 1.852084,4.23334 h 1.915583 v 2.18016 h -1.915583 z" />
      <path
         id="path833"
         style="font-style:normal;font-variant:normal;font-weight:normal;font-stretch:normal;font-family:'Super Plumber Brothers';-inkscape-font-specification:'Super Plumber Brothers';stroke-width:0.26458332;fill:#ffffff"
         d="m 36.642026,281.29282 h 0.264584 v -0.52917 h 0.264583 v -0.52916 h 0.264583 v -0.26459 h 2.180167 v 0.26459 h 0.264583 v 0.52916 h 0.264583 v 0.52917 h 0.264584 v 8.001 h -0.264584 v 0.52917 h -0.264583 v 0.52916 h -0.264583 v 0.26459 h -2.180167 v -0.26459 h -0.264583 v -0.52916 H 36.90661 v -0.52917 h -0.264584 z m 1.651,7.14375 h 0.465667 v -6.2865 h -0.465667 z" />
      <path
         id="path835"
         style="font-style:normal;font-variant:normal;font-weight:normal;font-stretch:normal;font-family:'Super Plumber Brothers';-inkscape-font-specification:'Super Plumber Brothers';stroke-width:0.26458332;fill:#ffffff"
         d="m 40.879495,279.9699 h 2.973917 v 0.26459 h 0.264583 v 0.52916 h 0.264583 v 0.52917 h 0.264583 v 3.76767 h -0.264583 v 0.26458 h -0.264583 v 0.20108 h 0.264583 v 0.26459 h 0.264583 v 4.826 h -1.650999 v -4.23334 h -0.264584 v -2.18016 h 0.264584 v -2.05317 h -0.465667 v 8.46667 h -1.651 z" />
      <path
         id="path837"
         style="font-style:normal;font-variant:normal;font-weight:normal;font-stretch:normal;font-family:'Super Plumber Brothers';-inkscape-font-specification:'Super Plumber Brothers';stroke-width:0.26458332;fill:#ffffff"
         d="m 45.116962,281.29282 h 0.264583 v -0.52917 h 0.264583 v -0.52916 h 0.264584 v -0.26459 h 1.386416 v 0.26459 h 0.264584 v 0.52916 h 0.264583 v 0.52917 h 0.465667 v -0.52917 h 0.264583 v -0.52916 h 0.264583 v -0.26459 h 1.386417 v 0.26459 h 0.264583 v 0.52916 h 0.264584 v 0.52917 h 0.264583 v 9.32392 h -1.651 v -8.46667 h -0.465667 v 8.46667 h -1.651 v -8.46667 h -0.465666 v 8.46667 h -1.651 z" />
      <path
         id="path839"
         style="font-style:normal;font-variant:normal;font-weight:normal;font-stretch:normal;font-family:'Super Plumber Brothers';-inkscape-font-specification:'Super Plumber Brothers';stroke-width:0.26458332;fill:#ffffff"
         d="m 51.462827,279.9699 h 3.767667 v 2.18017 h -2.116667 v 6.2865 h 2.116667 v 2.18017 h -3.767667 z m 1.852083,4.23334 h 1.915584 v 2.18016 H 53.31491 Z" />
      <path
         id="path841"
         style="font-style:normal;font-variant:normal;font-weight:normal;font-stretch:normal;font-family:'Super Plumber Brothers';-inkscape-font-specification:'Super Plumber Brothers';stroke-width:0.26458332;fill:#ffffff"
         d="m 55.700296,279.9699 h 2.973916 v 0.26459 h 0.264584 v 0.52916 h 0.264583 v 0.52917 h 0.264583 v 3.76767 h -0.264583 v 0.26458 h -0.264583 v 0.20108 h 0.264583 v 0.26459 h 0.264583 v 4.826 h -1.651 v -4.23334 h -0.264583 v -2.18016 h 0.264583 v -2.05317 h -0.465666 v 8.46667 h -1.651 z" />
      <path
         id="path843"
         style="font-style:normal;font-variant:normal;font-weight:normal;font-stretch:normal;font-family:'Super Plumber Brothers';-inkscape-font-specification:'Super Plumber Brothers';stroke-width:0.26458332;fill:#ffffff"
         d="m 59.937761,281.29282 h 0.264583 v -0.52917 h 0.264583 v -0.52916 h 0.264584 v -0.26459 h 2.180166 v 0.26459 h 0.264584 v 0.52916 h 0.264583 v 0.52917 h 0.264583 v 2.97392 h -1.651 v -2.11667 h -0.465666 v 2.05317 h 0.264583 v 0.26458 h 0.264583 v 0.26458 h 0.529167 v 0.26459 h 0.529167 v 0.26458 h 0.264583 v 0.52917 h 0.264583 v 3.50308 h -0.264583 v 0.52917 h -0.264583 v 0.52916 h -0.264584 v 0.26459 h -2.180166 v -0.26459 h -0.264584 v -0.52916 h -0.264583 v -0.52917 h -0.264583 v -2.97392 h 1.651 v 2.11667 h 0.465666 v -2.31775 h -0.529166 v -0.26458 h -0.529167 v -0.26459 h -0.529167 v -0.26458 h -0.264583 v -0.52917 h -0.264583 z" />
    </g>
    <g
       transform="matrix(1.6863297,0,0,1.7126753,-60.723228,-204.05362)"
       id="text882"
       style="font-style:normal;font-weight:normal;font-size:10.58333302px;line-height:1.25;font-family:sans-serif;letter-spacing:0px;word-spacing:0px;fill:#ffffff;fill-opacity:1;stroke:none;stroke-width:0.26458332"
       aria-label=".">
      <path
         id="path884"
         style="stroke-width:0.26458332;fill:#ffffff"
         d="m 88.727463,288.45091 h 1.090372 v 1.31258 h -1.090372 z" />
    </g>
    <rect
       y="259.31497"
       x="13.914134"
       height="36.482288"
       width="79.646317"
       id="rect889"
       style="fill:none;fill-opacity:1;stroke:#ffffff;stroke-width:0.30000001;stroke-miterlimit:4;stroke-dasharray:none;stroke-opacity:1" />
    <rect
       y="260.16205"
       x="14.7706"
       height="0.70158249"
       width="0.70158249"
       id="rect913"
       style="fill:#ffffff;fill-opacity:1;stroke:none;stroke-width:0.30000001;stroke-miterlimit:4;stroke-dasharray:none;stroke-opacity:1" />
    <rect
       y="294.22726"
       x="14.7706"
       height="0.70971715"
       width="0.70971715"
       id="rect983"
       style="fill:#ffffff;fill-opacity:1;stroke:none;stroke-width:0.30357254;stroke-miterlimit:4;stroke-dasharray:none;stroke-opacity:1" />
    <rect
       y="294.22913"
       x="91.986656"
       height="0.71202278"
       width="0.71202278"
       id="rect987"
       style="fill:#ffffff;fill-opacity:1;stroke:none;stroke-width:0.30266273;stroke-miterlimit:4;stroke-dasharray:none;stroke-opacity:1" />
    <rect
       y="260.16205"
       x="91.987312"
       height="0.7113654"
       width="0.7113654"
       id="rect991"
       style="fill:#ffffff;fill-opacity:1;stroke:none;stroke-width:0.30000001;stroke-miterlimit:4;stroke-dasharray:none;stroke-opacity:1" />
  </g>
</svg>
