<?xml version="1.0" encoding="UTF-8" standalone="no"?>
<svg
   xmlns:dc="http://purl.org/dc/elements/1.1/"
   xmlns:cc="http://creativecommons.org/ns#"
   xmlns:rdf="http://www.w3.org/1999/02/22-rdf-syntax-ns#"
   xmlns:svg="http://www.w3.org/2000/svg"
   xmlns="http://www.w3.org/2000/svg"
   width="400"
   height="150"
   viewBox="0 0 105.83333 39.687501"
   version="1.1"
   id="svg8">
  <defs
     id="defs2" />
  <metadata
     id="metadata5">
    <rdf:RDF>
      <cc:Work
         rdf:about="">
        <dc:format>image/svg+xml</dc:format>
        <dc:type
           rdf:resource="http://purl.org/dc/dcmitype/StillImage" />
        <dc:title></dc:title>
      </cc:Work>
    </rdf:RDF>
  </metadata>
  <g
     id="layer1"
     transform="translate(0,-257.31248)">
    <path
       id="path821"
       style="font-style:normal;font-variant:normal;font-weight:normal;font-stretch:normal;font-size:medium;line-height:1.25;font-family:Argentina;-inkscape-font-specification:Argentina;letter-spacing:0px;word-spacing:0px;fill:#ffffff;fill-opacity:1;stroke:#fffffb;stroke-width:0.391;stroke-opacity:1;stroke-miterlimit:4;stroke-dasharray:none"
       d="m 12.086862,271.09445 c 0.570576,0 0.933803,0.46065 1.091856,1.3948 0.04789,0.61543 -0.01474,1.2125 -0.189754,1.79046 0,0 -0.124599,0.41138 -0.124599,0.41138 -0.304586,1.0056 -0.882045,1.92446 -1.737868,2.75143 -0.477949,0.44638 -1.006569,0.67097 -1.5828422,0.67097 0,0 -2.3356522,0 -2.3356522,0 0,0 -1.7147206,4.95513 -1.7147206,4.95513 -0.099734,0.28821 -0.018332,0.63325 0.2459524,1.03616 0.1494531,0.15358 0.2364453,0.23053 0.2606802,0.23053 0,0 -0.021297,0.063 -0.021297,0.063 0,0 -3.6667937,0 -3.6667937,0 0,0 0.023274,-0.063 0.023274,-0.063 0.7869648,-0.3976 1.2670981,-0.84073 1.443365,-1.32824 0,0 3.9060427,-10.80323 3.9060427,-10.80323 0.1407008,-0.38914 -0.010783,-0.7423 -0.4515402,-1.06024 0,0 0.018151,-0.049 0.018151,-0.049 0,0 4.8356556,-1e-5 4.8356556,-1e-5 m -4.3226699,5.4118 c 0,0 1.5280749,0 1.5280749,0 0.714223,0 1.378593,-0.53709 1.983801,-1.59501 0.09115,-0.21723 0.154188,-0.38102 0.18935,-0.49187 0.276792,-0.87257 0.128722,-1.49332 -0.43755,-1.87116 -0.115396,-0.0562 -0.230882,-0.0843 -0.346557,-0.0843 0,0 -1.5182881,0 -1.5182881,0 0,0 -1.3988308,4.0423 -1.3988308,4.0423" />
    <path
       id="path823"
       style="font-style:normal;font-variant:normal;font-weight:normal;font-stretch:normal;font-size:medium;line-height:1.25;font-family:Argentina;-inkscape-font-specification:Argentina;letter-spacing:0px;word-spacing:0px;fill:#ffffff;fill-opacity:1;stroke:#fffffb;stroke-width:0.391;stroke-opacity:1;stroke-miterlimit:4;stroke-dasharray:none"
       d="m 17.724879,271.09445 c 0,0 -0.01303,0.049 -0.01303,0.049 -0.64596,0.29043 -1.039145,0.68769 -1.177797,1.19432 0,0 -2.833111,10.3521 -2.833111,10.3521 0,0 3.55181,0 3.55181,0 0.306436,0 0.700386,-0.53784 1.174957,-1.59812 0,0 0.03532,0 0.03532,0 0,0 -0.760116,3.24337 -0.760116,3.24337 -0.0098,0.0419 -0.02687,0.0631 -0.05113,0.0631 0,0 -7.121457,0 -7.121457,0 0,0 0.01878,-0.0631 0.01878,-0.0631 0.75803,-0.35587 1.237103,-0.8855 1.438872,-1.58402 0,0 2.98623,-10.33773 2.98623,-10.33773 0.165781,-0.57391 0.0036,-0.99598 -0.484096,-1.26992 0,0 0.01465,-0.049 0.01465,-0.049 0,0 3.220196,0 3.220196,0" />
    <path
       id="path825"
       style="font-style:normal;font-variant:normal;font-weight:normal;font-stretch:normal;font-size:medium;line-height:1.25;font-family:Argentina;-inkscape-font-specification:Argentina;letter-spacing:0px;word-spacing:0px;fill:#ffffff;fill-opacity:1;stroke:#fffffb;stroke-width:0.391;stroke-opacity:1;stroke-miterlimit:4;stroke-dasharray:none"
       d="m 26.882661,271.09445 c 0,0 -0.0081,0.049 -0.0081,0.049 -0.41512,0.14773 -0.657675,0.41424 -0.727136,0.80139 -0.01096,0.0612 0.08627,3.50147 0.314002,11.06206 -0.0094,0.4117 0.248316,0.85422 0.776334,1.32822 0,0 0.0363,0 0.0363,0 0,0 -0.0095,0.0631 -0.0095,0.0631 0,0 -3.406176,0 -3.406176,0 0,0 0.01133,-0.0631 0.01133,-0.0631 0.50844,-0.18171 0.791638,-0.44275 0.85054,-0.78205 0.02409,0 0.04925,-0.0758 0.07548,-0.22736 0,0 0.0054,-0.0311 0.0054,-0.0311 0.02731,-0.15783 0.031,-0.92348 0.0115,-2.27232 0,0 -2.793115,0 -2.793115,0 -0.529052,1.32179 -0.81527,2.07682 -0.849128,2.24141 0,0 -0.01915,0.0929 -0.01915,0.0929 -0.09663,0.46979 0.08205,0.79677 0.53775,0.97848 0,0 0.01815,0 0.01815,0 0,0 -0.01258,0.0631 -0.01258,0.0631 0,0 -3.406177,0 -3.406177,0 0,0 0.01447,-0.0631 0.01447,-0.0631 0.293479,-0.11887 0.644259,-0.41497 1.05026,-0.88551 0.07611,0 0.546144,-1.09523 1.385253,-3.22283 2.295478,-5.56516 3.368705,-8.19581 3.390873,-8.30692 0.0717,-0.35942 -0.07152,-0.6177 -0.428473,-0.77642 0,0 0.01007,-0.049 0.01007,-0.049 0,0 3.17205,10e-6 3.17205,10e-6 m -4.211895,8.30984 c 0,0 2.103107,0 2.103107,0 0,0 0.0054,-0.0289 0.0054,-0.0289 -0.05625,-3.3913 -0.07809,-5.03469 -0.06819,-5.08703 0,0 -0.03864,0 -0.03864,0 0,0 -2.001451,5.1159 -2.001451,5.1159" />
    <path
       id="path827"
       style="font-style:normal;font-variant:normal;font-weight:normal;font-stretch:normal;font-size:medium;line-height:1.25;font-family:Argentina;-inkscape-font-specification:Argentina;letter-spacing:0px;word-spacing:0px;fill:#ffffff;fill-opacity:1;stroke:#fffffb;stroke-width:0.391;stroke-opacity:1;stroke-miterlimit:4;stroke-dasharray:none"
       d="m 36.104621,271.09445 c 0.02454,0.005 0.03568,0.0215 0.03343,0.049 0,0 -0.216748,2.67608 -0.216748,2.67608 0,0 -0.03847,0 -0.03847,0 -0.136719,-0.9078 -0.334319,-1.35571 -0.594595,-1.35571 0,0 -1.708071,0 -1.708071,0 0,0 -1.08518,10.31789 -1.08518,10.31789 -0.06991,0.66445 0.195507,1.18363 0.799752,1.55341 0,0 -0.0063,0.0631 -0.0063,0.0631 0,0 -3.666793,0 -3.666793,0 0,0 0.0081,-0.0631 0.0081,-0.0631 0.475668,-0.25142 0.826422,-0.5988 1.052515,-1.04035 0.0027,-0.0208 0.02489,-0.10645 0.06704,-0.2571 0,0 1.274439,-10.57385 1.274439,-10.57385 0,0 -1.691797,0 -1.691797,0 -0.263897,0 -0.563136,0.43943 -0.902127,1.32979 0,0 -0.03298,0 -0.03298,0 0,0 0.383077,-2.65016 0.383077,-2.65016 0.0081,-0.0328 0.02139,-0.049 0.03919,-0.049 0,0 6.285269,0 6.285269,0" />
    <path
       id="path829"
       style="font-style:normal;font-variant:normal;font-weight:normal;font-stretch:normal;font-size:medium;line-height:1.25;font-family:Argentina;-inkscape-font-specification:Argentina;letter-spacing:0px;word-spacing:0px;fill:#ffffff;fill-opacity:1;stroke:#fffffb;stroke-width:0.391;stroke-opacity:1;stroke-miterlimit:4;stroke-dasharray:none"
       d="m 42.962264,271.09445 c 0.0213,0.005 0.03181,0.0215 0.03146,0.049 0,0 -0.03334,2.67608 -0.03334,2.67608 0,0 -0.03298,0 -0.03298,0 -0.198983,-0.9078 -0.429103,-1.35571 -0.693,-1.35571 0,0 -3.242606,0 -3.242606,0 0,0 -0.212175,4.09688 -0.212175,4.09688 0,0 2.143795,0 2.143795,0 0.308404,0 0.57834,-0.47149 0.806735,-1.40194 0,0 0.039,0 0.039,0 0,0 -0.105448,4.4378 -0.105448,4.4378 0,0 -0.04062,0 -0.04062,0 -0.106707,-0.67696 -0.284223,-1.15086 -0.532593,-1.42694 0,0 -0.124292,-0.0562 -0.124292,-0.0562 0,0 -2.266948,0 -2.266948,0 0,0 -0.0337,0.65102 -0.0337,0.65102 -0.04897,0.94479 -0.11722,2.37697 -0.206531,4.33491 -0.01627,0.31591 0.221457,0.69249 0.716246,1.13096 0.09375,0.07 0.154809,0.10498 0.183078,0.10498 0,0 -0.0027,0.0631 -0.0027,0.0631 0,0 -3.684972,0 -3.684972,0 0,0 0.0045,-0.0631 0.0045,-0.0631 0.669915,-0.39759 1.019582,-0.84072 1.052318,-1.32823 0,0 0.725349,-10.80325 0.725349,-10.80325 0.02614,-0.38914 -0.229338,-0.74231 -0.763692,-1.06023 0,0 0.0036,-0.049 0.0036,-0.049 0,0 6.269229,-7e-5 6.269229,-7e-5" />
    <path
       id="path833"
       style="font-style:normal;font-variant:normal;font-weight:normal;font-stretch:normal;font-size:medium;line-height:1.25;font-family:Argentina;-inkscape-font-specification:Argentina;letter-spacing:0px;word-spacing:0px;fill:#ffffff;fill-opacity:1;stroke:#fffffb;stroke-width:0.391;stroke-opacity:1;stroke-miterlimit:4;stroke-dasharray:none"
       d="m 64.952804,271.09445 c 0.570576,0 1.132805,0.46065 1.694404,1.3948 0.329063,0.64952 0.538218,1.3103 0.625129,1.9826 0.170327,1.3175 -0.07036,2.40265 -0.733175,3.23991 -0.280862,0.26748 -0.646992,0.40173 -1.097328,0.40173 0,0 -0.429354,0 -0.429354,0 0,0 4.260122,6.25332 4.260122,6.25332 0,0 0.0045,0.0316 0.0045,0.0316 0,0 -3.363762,0 -3.363762,0 0,0 -0.0063,-0.063 -0.0063,-0.063 0.46934,-0.32108 0.685442,-0.63688 0.650451,-0.94751 0,0 -0.0036,-0.0311 -0.0036,-0.0311 -0.01474,-0.13055 -0.184696,-0.41808 -0.508071,-0.86019 -1.713786,-2.58733 -2.668544,-4.01929 -2.921973,-4.38315 0,0 -0.01716,0 -0.01716,0 0,0 0.425903,4.95515 0.425903,4.95515 0.02481,0.2882 0.255216,0.63323 0.693574,1.03614 0.215796,0.15359 0.336028,0.23053 0.360262,0.23053 0,0 0.0063,0.063 0.0063,0.063 0,0 -3.666793,0 -3.666793,0 0,0 -0.0036,-0.063 -0.0036,-0.063 0.615209,-0.3976 0.903907,-0.84072 0.869572,-1.32824 0,0 -0.760968,-10.80323 -0.760968,-10.80323 -0.02741,-0.38914 -0.331472,-0.74231 -0.909569,-1.06023 0,0 -0.0027,-0.049 -0.0027,-0.049 0,0 4.83565,-4e-5 4.83565,-4e-5 m -1.984773,5.41181 c 0,0 1.528083,0 1.528083,0 0.714225,0 1.146571,-0.53709 1.294758,-1.59502 -0.0045,-0.22894 -0.01079,-0.38393 -0.02013,-0.46562 -0.10349,-0.90166 -0.520668,-1.53088 -1.248901,-1.89741 -0.139677,-0.0562 -0.267286,-0.0843 -0.38297,-0.0843 0,0 -1.51828,0 -1.51828,0 0,0 0.347439,4.04231 0.347439,4.04231" />
    <path
       id="path835"
       style="font-style:normal;font-variant:normal;font-weight:normal;font-stretch:normal;font-size:medium;line-height:1.25;font-family:Argentina;-inkscape-font-specification:Argentina;letter-spacing:0px;word-spacing:0px;fill:#ffffff;fill-opacity:1;stroke:#fffffb;stroke-width:0.391;stroke-opacity:1;stroke-miterlimit:4;stroke-dasharray:none"
       d="m 71.254122,271.09445 c 0,0 0.0081,0.049 0.0081,0.049 -0.178029,0.0438 -0.377039,0.24922 -0.598136,0.6185 -0.06128,0.17177 -0.08465,0.30239 -0.07,0.3915 0,0 3.965106,8.9086 3.965106,8.9086 0,0 0.01761,0 0.01761,0 0.362032,-5.3207 0.552353,-8.17578 0.596105,-8.93368 -0.06784,-0.32215 -0.410771,-0.6505 -1.026133,-0.98492 0,0 -0.01,-0.049 -0.01,-0.049 0,0 3.204148,0 3.204148,0 0,0 0.0115,0.049 0.0115,0.049 -0.487628,0.3014 -0.678838,0.69046 -0.570657,1.16915 0,0 2.386747,10.56113 2.386747,10.56113 0.134815,0.59656 0.565104,1.08466 1.2934,1.46139 0,0 0.01473,0.0631 0.01473,0.0631 0,0 -3.666794,0 -3.666794,0 0,0 -0.01276,-0.0631 -0.01276,-0.0631 0.563802,-0.37673 0.780963,-0.86483 0.655303,-1.46139 0,0 -1.057915,-5.02233 -1.057915,-5.02233 0,0 -0.01716,0 -0.01716,0 -0.02039,0.59431 -0.131347,2.71449 -0.343296,6.54676 0,0 -1.660662,0 -1.660662,0 -0.0364,0 -0.536734,-1.14462 -1.472453,-3.36582 -0.913278,-2.10321 -1.361565,-3.15295 -1.370812,-3.20895 0,0 -0.01717,0 -0.01717,0 0,0 0.802771,4.86648 0.802771,4.86648 0.09695,0.58772 0.336144,1.01528 0.718151,1.27895 0.242286,0.21601 0.414626,0.33831 0.516382,0.3663 0,0 0.01096,0.0631 0.01096,0.0631 0,0 -3.666794,0 -3.666794,0 0,0 -0.009,-0.0631 -0.009,-0.0631 0.583732,-0.3976 0.837358,-0.8407 0.76442,-1.32822 0,0 -1.616245,-10.80322 -1.616245,-10.80322 -0.05822,-0.38915 -0.390229,-0.74232 -0.993496,-1.06023 0,0 -0.0072,-0.049 -0.0072,-0.049 0,0 3.220196,0 3.220196,0" />
    <path
       id="path837"
       style="font-style:normal;font-variant:normal;font-weight:normal;font-stretch:normal;font-size:medium;line-height:1.25;font-family:Argentina;-inkscape-font-specification:Argentina;letter-spacing:0px;word-spacing:0px;fill:#ffffff;fill-opacity:1;stroke:#fffffb;stroke-width:0.391;stroke-opacity:1;stroke-miterlimit:4;stroke-dasharray:none"
       d="m 84.188407,271.09445 c 0.023,0.005 0.03864,0.0215 0.047,0.049 0,0 0.8112,2.67608 0.8112,2.67608 0,0 -0.03298,0 -0.03298,0 -0.48549,-0.9078 -0.856965,-1.35571 -1.120862,-1.35571 0,0 -3.242607,0 -3.242607,0 0,0 1.080803,4.09688 1.080803,4.09688 0,0 2.143796,0 2.143796,0 0.308413,0 0.429543,-0.47149 0.364287,-1.40194 0,0 0.039,0 0.039,0 0,0 1.295133,4.4378 1.295133,4.4378 0,0 -0.04062,0 -0.04062,0 -0.320357,-0.67696 -0.647442,-1.15086 -0.982947,-1.42694 0,0 -0.14204,-0.0562 -0.14204,-0.0562 0,0 -2.266957,0 -2.266957,0 0,0 1.207351,4.57656 1.207351,4.57656 0,0 3.498093,0 3.498093,0 0.354188,0 0.476908,-0.53784 0.369706,-1.59812 0,0 0.03532,0 0.03532,0 0,0 0.983163,3.24337 0.983163,3.24337 0.01276,0.042 0.0072,0.063 -0.01725,0.063 0,0 -7.121459,0 -7.121459,0 0,0 -0.0151,-0.063 -0.0151,-0.063 0.544436,-0.39761 0.754256,-0.84072 0.633127,-1.32825 0,0 -2.68418,-10.80322 -2.68418,-10.80322 -0.09669,-0.38913 -0.463609,-0.7423 -1.098307,-1.06025 0,0 -0.01178,-0.049 -0.01178,-0.049 0,0 6.269219,-3e-5 6.269219,-3e-5" />
    <path
       id="path839"
       style="font-style:normal;font-variant:normal;font-weight:normal;font-stretch:normal;font-size:medium;line-height:1.25;font-family:Argentina;-inkscape-font-specification:Argentina;letter-spacing:0px;word-spacing:0px;fill:#ffffff;fill-opacity:1;stroke:#fffffb;stroke-width:0.391;stroke-opacity:1;stroke-miterlimit:4;stroke-dasharray:none"
       d="m 89.601768,271.09445 c 0.570585,0 1.246359,0.46065 2.038221,1.3948 0.489164,0.64952 0.861187,1.3103 1.113817,1.9826 0.495086,1.3175 0.521855,2.40265 0.06541,3.23991 -0.214932,0.26748 -0.547967,0.40173 -0.998304,0.40173 0,0 -0.429354,0 -0.429354,0 0,0 5.801519,6.25332 5.801519,6.25332 0,0 0.01206,0.0316 0.01206,0.0316 0,0 -3.363775,0 -3.363775,0 0,0 -0.0222,-0.063 -0.0222,-0.063 0.390192,-0.32108 0.528451,-0.63688 0.416898,-0.94751 0,0 -0.01114,-0.0311 -0.01114,-0.0311 -0.04695,-0.13055 -0.287744,-0.41808 -0.720088,-0.86019 -2.351551,-2.58733 -3.659265,-4.01929 -4.00239,-4.38315 0,0 -0.01717,0 -0.01717,0 0,0 1.6473,4.95515 1.6473,4.95515 0.09581,0.2882 0.411301,0.63323 0.948971,1.03614 0.253654,0.15359 0.392854,0.23053 0.417088,0.23053 0,0 0.02148,0.063 0.02148,0.063 0,0 -3.666794,0 -3.666794,0 0,0 -0.01941,-0.063 -0.01941,-0.063 0.517209,-0.3976 0.696693,-0.84072 0.542181,-1.32824 0,0 -3.423869,-10.80323 -3.423869,-10.80323 -0.123332,-0.38914 -0.514442,-0.74231 -1.170905,-1.06023 0,0 -0.01519,-0.049 -0.01519,-0.049 0,0 4.835632,-4e-5 4.835632,-4e-5 m -0.650801,5.41181 c 0,0 1.528074,0 1.528074,0 0.714233,0 1.014191,-0.53709 0.901607,-1.59502 -0.06047,-0.22894 -0.105387,-0.38393 -0.134896,-0.46562 -0.325747,-0.90166 -0.898022,-1.53088 -1.716608,-1.89741 -0.153515,-0.0562 -0.288051,-0.0843 -0.403726,-0.0843 0,0 -1.51828,0 -1.51828,0 0,0 1.343829,4.04231 1.343829,4.04231" />
    <path
       id="path841"
       style="font-style:normal;font-variant:normal;font-weight:normal;font-stretch:normal;font-size:medium;line-height:1.25;font-family:Argentina;-inkscape-font-specification:Argentina;letter-spacing:0px;word-spacing:0px;fill:#ffffff;fill-opacity:1;stroke:#fffffb;stroke-width:0.391;stroke-opacity:1;stroke-miterlimit:4;stroke-dasharray:none"
       d="m 97.170866,271.09445 c 0.620506,0 1.388852,0.52955 2.319752,1.60568 0.436416,0.56669 0.757522,1.07639 0.961022,1.52729 0,0 0.14589,0.32325 0.14589,0.32325 0.0185,0.0409 0.0166,0.0614 -0.006,0.0614 0,0 -1.866089,0 -1.866089,0 0,0 -0.02658,-0.0614 -0.02658,-0.0614 0.121747,0 0.129794,-0.18081 0.02475,-0.54053 -0.170555,-0.39166 -0.528296,-0.82019 -1.070457,-1.28465 -0.25964,-0.15762 -0.461476,-0.23624 -0.606111,-0.23624 0,0 -1.22036,0 -1.22036,0 -0.441138,0 -0.59539,0.43964 -0.461021,1.33045 0.0579,0.22515 0.12193,0.42515 0.192292,0.59969 0,0 0.04228,0.10495 0.04228,0.10495 0.382474,0.94882 0.942453,1.61316 1.678541,1.98187 0.131546,0.0365 0.255649,0.0546 0.372244,0.0546 0,0 1.810946,0 1.810946,0 0.804865,0 1.745955,0.71522 2.845425,2.17516 0.34525,0.502 0.6119,0.96041 0.79858,1.37401 0,0 0.20727,0.45929 0.20727,0.45929 0.53421,1.18372 0.68064,2.2364 0.42749,3.14984 -0.17911,0.45187 -0.47729,0.67918 -0.89346,0.67918 0,0 -2.8304,0 -2.8304,0 -0.775793,0 -1.675448,-0.68265 -2.680693,-2.02352 -0.449065,-0.64518 -0.78463,-1.25648 -1.008843,-1.83492 0,0 -0.106165,-0.27393 -0.106165,-0.27393 -0.01379,-0.0456 -0.01087,-0.0683 0.0092,-0.0683 0,0 1.966787,0 1.966787,0 0,0 0.02767,0.0683 0.02767,0.0683 -0.131802,0.0976 -0.147712,0.27067 -0.04722,0.51968 0,0 0.07169,0.17762 0.07169,0.17762 0.165486,0.41007 0.529456,0.8667 1.094797,1.37102 0.283222,0.21655 0.524707,0.32516 0.723627,0.32516 0,0 1.26518,0 1.26518,0 0.52915,0 0.6762,-0.53754 0.44456,-1.59724 -0.0508,-0.19768 -0.11331,-0.38154 -0.18747,-0.55173 0,0 -0.14905,-0.342 -0.14905,-0.342 -0.34279,-0.78661 -0.8488,-1.4103 -1.517332,-1.8765 -0.188574,-0.11907 -0.374291,-0.17849 -0.557486,-0.17849 0,0 -1.820435,0 -1.820435,0 -0.595362,0 -1.239742,-0.34896 -1.926409,-1.04013 -0.71972,-0.76087 -1.244783,-1.57341 -1.578723,-2.43498 0,0 -0.128883,-0.33252 -0.128883,-0.33252 -0.441342,-1.13866 -0.462369,-2.07691 -0.07477,-2.82507 0.21522,-0.25789 0.452576,-0.38634 0.712901,-0.38634 0,0 2.621104,5e-5 2.621104,5e-5" />
    <g
       style="stroke-width:0.34860721;stroke-miterlimit:4;stroke-dasharray:none;stroke:#fffffb;stroke-opacity:1;fill:#ffffff"
       transform="matrix(0.2868558,0,0,0.2868558,43.929328,269.89434)"
       id="g1146">
      <g
         style="stroke-width:0.34860721;stroke-miterlimit:4;stroke-dasharray:none;stroke:#fffffb;stroke-opacity:1;fill:#ffffff"
         id="g1088">
        <path
           style="stroke-width:0.34860721;stroke-miterlimit:4;stroke-dasharray:none;stroke:#fffffb;stroke-opacity:1;fill:#ffffff"
           d="M 53.485,31.937 C 53.487,31.84 53.5,31.749 53.5,31.651 v -4.179 c 0,-1.819 -0.626,-3.605 -1.763,-5.027 L 48.398,19.467 C 48.394,19.425 48.394,19.382 48.39,19.34 48.345,18.892 48.263,18.455 48.191,18.015 48.148,17.751 48.125,17.485 48.072,17.223 48.071,17.22 48.069,17.218 48.069,17.215 46.077,7.406 37.388,0 27,0 16.612,0 7.922,7.407 5.931,17.217 5.931,17.219 5.929,17.22 5.929,17.222 5.89,17.415 5.875,17.612 5.841,17.806 5.753,18.314 5.662,18.82 5.61,19.339 5.606,19.379 5.607,19.42 5.603,19.46 L 2.38,22.322 2.263,22.445 C 1.126,23.867 0.5,25.652 0.5,27.472 v 4.179 c 0,0.097 0.013,0.189 0.015,0.285 -0.004,0.069 0.001,0.134 0.011,0.202 0.063,2.286 0.55,4.403 1.485,6.283 1.505,3.023 3.968,5.275 7.125,6.51 l 0.345,0.135 0.35,-0.123 c 0.063,-0.022 0.682,-0.253 1.454,-0.844 1.499,1.152 6.787,5.037 11.603,6.495 l 0.259,1.412 C 23.339,53.162 24.329,54 25.5,54 h 5 c 1.171,0 2.161,-0.838 2.353,-1.994 l 0.294,-1.773 c 4.278,-1.641 8.301,-4.974 9.597,-6.11 0.759,0.575 1.364,0.799 1.426,0.821 l 0.35,0.123 0.345,-0.135 c 3.157,-1.235 5.62,-3.486 7.125,-6.51 0.935,-1.879 1.422,-3.996 1.485,-6.284 0.009,-0.068 0.014,-0.133 0.01,-0.201 z M 51.5,27.472 v 3.851 l -4.675,1.87 -4.541,7.265 c -0.085,-0.168 -0.173,-0.335 -0.246,-0.514 -0.052,-0.128 -0.095,-0.272 -0.143,-0.409 -0.06,-0.176 -0.123,-0.349 -0.173,-0.534 -0.057,-0.213 -0.1,-0.448 -0.144,-0.682 -0.023,-0.124 -0.053,-0.242 -0.072,-0.369 l 0.054,-0.641 c 3.246,-2.983 5.518,-6.917 6.451,-11.305 0.004,-0.015 0.015,-0.027 0.018,-0.043 0.038,-0.179 0.066,-0.36 0.099,-0.539 0.046,-0.25 0.092,-0.5 0.129,-0.752 0.009,-0.061 0.016,-0.121 0.024,-0.182 0.014,-0.102 0.027,-0.203 0.04,-0.305 0.03,-0.236 0.058,-0.472 0.08,-0.708 0.015,-0.159 0.027,-0.319 0.038,-0.479 0.015,-0.218 0.029,-0.436 0.037,-0.653 0.002,-0.042 0.009,-0.084 0.011,-0.126 l 1.737,1.543 c 0.824,1.056 1.276,2.372 1.276,3.712 z M 10.365,31.609 C 10.237,31.403 10.117,31.193 9.997,30.982 9.741,30.525 9.497,30.063 9.279,29.588 9.254,29.535 9.227,29.483 9.202,29.429 9.016,29.015 8.865,28.587 8.708,28.161 c 3.528,2.334 5.812,3.503 7.391,4.31 2.909,1.486 2.909,1.486 4.494,7.096 0.009,0.032 0.02,0.07 0.029,0.103 -4.136,-1.401 -7.535,-4.03 -9.837,-7.421 -0.141,-0.212 -0.287,-0.422 -0.42,-0.64 z M 7.872,25.178 C 7.803,24.822 7.747,24.463 7.698,24.102 7.674,23.928 7.642,23.754 7.623,23.579 7.617,23.524 7.608,23.471 7.603,23.416 7.54,22.782 7.5,22.143 7.5,21.5 7.5,21.398 7.514,21.299 7.515,21.196 7.519,21.132 7.523,21.058 7.526,20.973 7.537,20.557 7.552,20.141 7.589,19.732 7.606,19.544 7.63,19.357 7.652,19.17 7.675,18.976 7.711,18.787 7.74,18.595 l 12.573,2.387 c 0.438,0.08 0.881,-0.135 1.081,-0.535 L 23.118,17 h 8.764 l 1.724,3.447 c 0.203,0.405 0.656,0.624 1.095,0.532 L 46.262,18.61 c 0.028,0.187 0.063,0.372 0.086,0.561 0.023,0.188 0.046,0.376 0.063,0.565 0.034,0.382 0.047,0.771 0.059,1.159 l -10e-4,0.017 c 0.002,0.079 0.008,0.157 0.013,0.235 0.002,0.118 0.018,0.234 0.018,0.352 0,0.639 -0.04,1.274 -0.102,1.904 -0.006,0.063 -0.016,0.126 -0.023,0.189 -0.018,0.165 -0.048,0.33 -0.071,0.495 -0.049,0.365 -0.106,0.729 -0.176,1.089 l -0.198,0.136 c -3.47,2.403 -5.854,3.878 -7.432,4.855 -3.793,2.347 -3.966,2.571 -4.644,5.975 -0.191,0.958 -0.436,2.186 -0.858,3.856 H 22.794 c -0.096,-0.337 -0.19,-0.671 -0.276,-0.976 -1.719,-6.086 -1.822,-6.45 -5.509,-8.333 -1.784,-0.911 -4.48,-2.288 -8.94,-5.376 z m 31.764,11.151 -0.002,0.026 c -1.308,1.109 -2.777,2.046 -4.373,2.79 0.244,-1.054 0.415,-1.907 0.555,-2.61 0.534,-2.684 0.534,-2.684 3.735,-4.665 1.307,-0.809 3.174,-1.967 5.735,-3.694 -1.1,2.992 -2.91,5.717 -5.351,7.887 z M 32.487,41.997 32.155,44 H 23.71 L 23.337,41.97 Z M 38.5,18.16 v -5.746 l 3.432,-3.432 c 1.845,2.197 3.197,4.809 3.933,7.668 z M 36.793,11.293 C 36.605,11.48 36.5,11.735 36.5,12 v 6.569 l -1.449,0.297 -1.657,-3.313 C 33.225,15.214 32.879,15 32.5,15 h -4 V 2.076 c 4.674,0.358 8.89,2.362 12.065,5.445 z M 26.5,15 h -4 c -0.379,0 -0.725,0.214 -0.895,0.553 L 19.943,18.877 18.5,18.602 V 12 c 0,-0.265 -0.105,-0.52 -0.293,-0.707 L 13.959,7.045 C 17.302,4.026 21.681,2.149 26.5,2.026 Z m -10,-2.586 v 5.809 L 8.139,16.636 c 0.798,-3.089 2.329,-5.878 4.406,-8.177 z M 24.445,48 24.078,46 h 7.745 l -0.332,2 z M 3.775,23.758 5.512,22.215 c 0.001,0.039 0.008,0.078 0.01,0.118 0.009,0.234 0.024,0.468 0.041,0.702 0.011,0.16 0.023,0.319 0.038,0.478 0.021,0.227 0.049,0.453 0.078,0.679 0.012,0.096 0.024,0.191 0.038,0.286 0.018,0.13 0.032,0.26 0.052,0.39 0.033,0.21 0.076,0.416 0.115,0.624 0.029,0.156 0.054,0.313 0.086,0.469 0.004,0.019 0.017,0.034 0.022,0.053 0.327,1.526 0.812,2.991 1.451,4.378 0.02,0.043 0.042,0.085 0.062,0.129 0.243,0.519 0.507,1.026 0.792,1.522 0.108,0.191 0.22,0.378 0.334,0.566 0.174,0.283 0.357,0.56 0.544,0.834 0.933,1.389 2.011,2.689 3.262,3.843 l 0.055,0.663 c -0.019,0.126 -0.048,0.244 -0.071,0.367 -0.044,0.235 -0.088,0.472 -0.145,0.685 -0.049,0.183 -0.112,0.356 -0.171,0.53 -0.048,0.139 -0.092,0.285 -0.144,0.413 -0.073,0.179 -0.16,0.345 -0.245,0.513 L 7.175,33.192 2.5,31.323 v -3.851 c 0,-1.34 0.452,-2.656 1.275,-3.714 z M 9.478,42.91 C 6.946,41.822 5.038,40.014 3.802,37.53 3.196,36.311 2.812,34.967 2.63,33.528 l 3.196,1.278 4.618,7.389 c -0.379,0.352 -0.73,0.587 -0.966,0.715 z m 3.234,-0.246 c 0.17,-0.223 0.334,-0.472 0.493,-0.737 0.002,-0.003 0.004,-0.006 0.005,-0.009 0.132,-0.219 0.257,-0.455 0.376,-0.704 0.025,-0.053 0.05,-0.106 0.074,-0.16 0.088,-0.192 0.17,-0.393 0.249,-0.602 0.033,-0.087 0.065,-0.174 0.095,-0.262 0.06,-0.175 0.115,-0.359 0.167,-0.547 0.021,-0.074 0.048,-0.144 0.067,-0.219 l 2.984,1.326 -1.285,4.175 C 14.518,44.006 13.361,43.163 12.708,42.67 Z m 4.984,3.347 1.368,-4.443 2.359,1.048 0.776,4.223 0.279,1.517 C 20.86,47.758 19.202,46.898 17.696,46.011 Z M 30.5,52 h -5 c -0.189,0 -0.349,-0.135 -0.383,-0.338 L 24.812,50 h 6.347 l -0.278,1.678 C 30.849,51.865 30.689,52 30.5,52 Z m 3.958,-9.663 0.02,-0.121 c 0.01,-0.035 0.018,-0.066 0.027,-0.101 l 1.284,-0.642 1.354,4.398 c -1.111,0.731 -2.343,1.454 -3.61,2.036 z m 4.406,2.327 -1.261,-4.098 2.173,-1.087 c 0.018,0.067 0.042,0.129 0.061,0.195 0.053,0.188 0.109,0.37 0.17,0.545 0.03,0.087 0.061,0.172 0.093,0.257 0.08,0.211 0.163,0.412 0.252,0.604 0.023,0.049 0.045,0.099 0.068,0.147 0.265,0.548 0.559,1.029 0.868,1.436 l 0.022,0.054 c -0.506,0.438 -1.373,1.154 -2.446,1.947 z m 5.659,-1.754 c -0.238,-0.129 -0.589,-0.365 -0.967,-0.714 l 4.618,-7.389 3.197,-1.279 c -0.182,1.439 -0.566,2.784 -1.173,4.002 -1.235,2.484 -3.143,4.292 -5.675,5.38 z"
           id="path1082" />
        <path
           style="stroke-width:0.34860721;stroke-miterlimit:4;stroke-dasharray:none;stroke:#fffffb;stroke-opacity:1;fill:#ffffff"
           d="m 20.5,29 c 0.256,0 0.512,-0.098 0.707,-0.293 l 6,-6 c 0.391,-0.391 0.391,-1.023 0,-1.414 -0.391,-0.391 -1.023,-0.391 -1.414,0 l -6,6 c -0.391,0.391 -0.391,1.023 0,1.414 C 19.988,28.902 20.244,29 20.5,29 Z"
           id="path1084" />
        <path
           style="stroke-width:0.34860721;stroke-miterlimit:4;stroke-dasharray:none;stroke:#fffffb;stroke-opacity:1;fill:#ffffff"
           d="M 24.793,28.707 C 24.988,28.902 25.244,29 25.5,29 c 0.256,0 0.512,-0.098 0.707,-0.293 l 3,-3 c 0.391,-0.391 0.391,-1.023 0,-1.414 -0.391,-0.391 -1.023,-0.391 -1.414,0 l -3,3 c -0.391,0.391 -0.391,1.023 0,1.414 z"
           id="path1086" />
      </g>
      <g
         style="stroke-width:0.34860721;stroke-miterlimit:4;stroke-dasharray:none;stroke:#fffffb;stroke-opacity:1;fill:#ffffff"
         id="g1090" />
      <g
         style="stroke-width:0.34860721;stroke-miterlimit:4;stroke-dasharray:none;stroke:#fffffb;stroke-opacity:1;fill:#ffffff"
         id="g1092" />
      <g
         style="stroke-width:0.34860721;stroke-miterlimit:4;stroke-dasharray:none;stroke:#fffffb;stroke-opacity:1;fill:#ffffff"
         id="g1094" />
      <g
         style="stroke-width:0.34860721;stroke-miterlimit:4;stroke-dasharray:none;stroke:#fffffb;stroke-opacity:1;fill:#ffffff"
         id="g1096" />
      <g
         style="stroke-width:0.34860721;stroke-miterlimit:4;stroke-dasharray:none;stroke:#fffffb;stroke-opacity:1;fill:#ffffff"
         id="g1098" />
      <g
         style="stroke-width:0.34860721;stroke-miterlimit:4;stroke-dasharray:none;stroke:#fffffb;stroke-opacity:1;fill:#ffffff"
         id="g1100" />
      <g
         style="stroke-width:0.34860721;stroke-miterlimit:4;stroke-dasharray:none;stroke:#fffffb;stroke-opacity:1;fill:#ffffff"
         id="g1102" />
      <g
         style="stroke-width:0.34860721;stroke-miterlimit:4;stroke-dasharray:none;stroke:#fffffb;stroke-opacity:1;fill:#ffffff"
         id="g1104" />
      <g
         style="stroke-width:0.34860721;stroke-miterlimit:4;stroke-dasharray:none;stroke:#fffffb;stroke-opacity:1;fill:#ffffff"
         id="g1106" />
      <g
         style="stroke-width:0.34860721;stroke-miterlimit:4;stroke-dasharray:none;stroke:#fffffb;stroke-opacity:1;fill:#ffffff"
         id="g1108" />
      <g
         style="stroke-width:0.34860721;stroke-miterlimit:4;stroke-dasharray:none;stroke:#fffffb;stroke-opacity:1;fill:#ffffff"
         id="g1110" />
      <g
         style="stroke-width:0.34860721;stroke-miterlimit:4;stroke-dasharray:none;stroke:#fffffb;stroke-opacity:1;fill:#ffffff"
         id="g1112" />
      <g
         style="stroke-width:0.34860721;stroke-miterlimit:4;stroke-dasharray:none;stroke:#fffffb;stroke-opacity:1;fill:#ffffff"
         id="g1114" />
      <g
         style="stroke-width:0.34860721;stroke-miterlimit:4;stroke-dasharray:none;stroke:#fffffb;stroke-opacity:1;fill:#ffffff"
         id="g1116" />
      <g
         style="stroke-width:0.34860721;stroke-miterlimit:4;stroke-dasharray:none;stroke:#fffffb;stroke-opacity:1;fill:#ffffff"
         id="g1118" />
    </g>
  </g>
</svg>
