<?xml version="1.0" encoding="UTF-8" standalone="no"?>
<!-- Created with Inkscape (http://www.inkscape.org/) -->

<svg
   xmlns:dc="http://purl.org/dc/elements/1.1/"
   xmlns:cc="http://creativecommons.org/ns#"
   xmlns:rdf="http://www.w3.org/1999/02/22-rdf-syntax-ns#"
   xmlns:svg="http://www.w3.org/2000/svg"
   xmlns="http://www.w3.org/2000/svg"
   xmlns:sodipodi="http://sodipodi.sourceforge.net/DTD/sodipodi-0.dtd"
   xmlns:inkscape="http://www.inkscape.org/namespaces/inkscape"
   width="400"
   height="150"
   viewBox="0 0 105.83333 39.687501"
   version="1.1"
   id="svg8"
   inkscape:version="0.92.2 5c3e80d, 2017-08-06"
   sodipodi:docname="custom-rpgs.svg">
  <defs
     id="defs2" />
  <sodipodi:namedview
     id="base"
     pagecolor="#ffffff"
     bordercolor="#666666"
     borderopacity="1.0"
     inkscape:pageopacity="0.0"
     inkscape:pageshadow="2"
     inkscape:zoom="3.959798"
     inkscape:cx="213.49213"
     inkscape:cy="65.566752"
     inkscape:document-units="mm"
     inkscape:current-layer="layer1"
     showgrid="false"
     units="px"
     inkscape:window-width="1680"
     inkscape:window-height="940"
     inkscape:window-x="0"
     inkscape:window-y="1"
     inkscape:window-maximized="1"
     showguides="true"
     inkscape:guide-bbox="true">
    <sodipodi:guide
       position="56.861591,11.960311"
       orientation="0,1"
       id="guide119"
       inkscape:locked="false" />
  </sodipodi:namedview>
  <metadata
     id="metadata5">
    <rdf:RDF>
      <cc:Work
         rdf:about="">
        <dc:format>image/svg+xml</dc:format>
        <dc:type
           rdf:resource="http://purl.org/dc/dcmitype/StillImage" />
        <dc:title></dc:title>
      </cc:Work>
    </rdf:RDF>
  </metadata>
  <g
     inkscape:label="Calque 1"
     inkscape:groupmode="layer"
     id="layer1"
     transform="translate(0,-257.31249)">
    <g
       aria-label="Role Playing "
       style="font-style:normal;font-variant:normal;font-weight:normal;font-stretch:extra-condensed;font-size:11.99116135px;line-height:1.25;font-family:Ferrum;-inkscape-font-specification:'Ferrum, Extra-Condensed';font-variant-ligatures:normal;font-variant-caps:normal;font-variant-numeric:normal;font-feature-settings:normal;text-align:start;letter-spacing:0px;word-spacing:0px;writing-mode:lr-tb;text-anchor:start;fill:#ffffff;fill-opacity:1;stroke:none;stroke-width:0.29977903"
       id="text12">
      <path
         d="m 7.4659056,283.22928 c -0.2038498,-0.06 -0.4196907,-0.31177 -0.4676553,-0.59955 -0.2038497,-1.03124 -0.3477437,-1.95456 -0.5276111,-3.28558 -0.1079205,-0.82739 -0.299779,-1.12717 -1.0911957,-1.18713 0.9712841,-0.15588 1.6068156,-1.09119 1.6068156,-2.33827 0,-1.23509 -0.6235404,-2.30231 -2.086462,-2.25434 -0.5515935,0.024 -0.8273902,0.024 -1.0672134,0.024 -0.2518144,0 -0.7194697,0 -1.0552222,-0.024 v 0.19186 l 0.011991,0.024 c 0.2398232,0.0719 0.3957083,0.20385 0.4436729,0.51562 0.047965,0.34774 0.083938,0.85137 0.083938,4.2089 0,3.35752 -0.035973,3.86115 -0.083938,4.20889 -0.047965,0.31177 -0.2038497,0.44368 -0.4436729,0.51562 l -0.011991,0.024 v 0.19185 c 0.3357525,-0.024 0.8034078,-0.024 1.0552222,-0.024 0.2518144,0 0.7194697,0 1.0552222,0.024 v -0.19185 l -0.011991,-0.024 c -0.2398232,-0.0719 -0.3957083,-0.20385 -0.4436729,-0.51562 -0.047965,-0.34774 -0.083938,-1.10318 -0.083938,-4.26885 h 0.3117702 c 0.4796465,0 0.5755758,0.43168 0.6235404,0.91133 0.1798674,1.69075 0.3597349,2.88987 0.5276111,4.04102 l 0.023982,0.024 c 0.4796465,0 1.3070366,0 1.6427892,0.024 v -0.19185 z M 4.671965,278.10906 H 4.3482036 c 0,-2.67403 0.011991,-3.44147 0.047965,-4.13695 h 0.2877879 c 0.6954873,0 1.115178,0.59956 1.115178,1.99053 0,1.41496 -0.3837172,2.14642 -1.1271692,2.14642 z"
         style="font-style:normal;font-variant:normal;font-weight:normal;font-stretch:extra-condensed;font-size:11.99116135px;font-family:Ferrum;-inkscape-font-specification:'Ferrum, Extra-Condensed';font-variant-ligatures:normal;font-variant-caps:normal;font-variant-numeric:normal;font-feature-settings:normal;text-align:start;writing-mode:lr-tb;text-anchor:start;stroke-width:0.29977903;fill:#ffffff"
         id="path832" />
      <path
         d="m 10.307811,276.34636 c -1.1151782,0 -1.8106655,1.15115 -1.8106655,3.74124 0,2.24235 0.6355315,3.45345 1.7866835,3.45345 1.043231,0 1.810665,-1.2111 1.810665,-3.80119 0,-1.84664 -0.599558,-3.3935 -1.786683,-3.3935 z m 0,6.78699 c -0.5515936,0 -0.7554433,-0.85137 -0.7554433,-3.16566 0,-2.50615 0.1798674,-3.20164 0.7434523,-3.20164 0.587567,0 0.743452,1.06721 0.743452,3.08173 0,2.50615 -0.179868,3.28557 -0.731461,3.28557 z"
         style="font-style:normal;font-variant:normal;font-weight:normal;font-stretch:extra-condensed;font-size:11.99116135px;font-family:Ferrum;-inkscape-font-specification:'Ferrum, Extra-Condensed';font-variant-ligatures:normal;font-variant-caps:normal;font-variant-numeric:normal;font-feature-settings:normal;text-align:start;writing-mode:lr-tb;text-anchor:start;stroke-width:0.29977903;fill:#ffffff"
         id="path834" />
      <path
         d="m 14.234167,283.42114 c 0.791417,0 1.402966,0 2.110445,0.024 0,-0.58756 0.03597,-1.24708 0.07195,-1.91858 h -0.227832 l -0.02398,0.012 c -0.119911,0.56358 -0.203849,0.87536 -0.395708,1.15115 -0.215841,0.31177 -0.359735,0.37173 -0.62354,0.37173 -0.287788,0 -0.4077,-0.10792 -0.431682,-0.41969 -0.03597,-0.47965 -0.04796,-0.99527 -0.04796,-2.69801 0,-1.88262 0.03597,-2.41023 0.08394,-2.75797 0.04796,-0.31177 0.09593,-0.43168 0.287788,-0.5396 l 0.01199,-0.024 v -0.17986 c -0.335752,0.024 -0.563584,0.024 -0.815399,0.024 -0.251814,0 -0.479646,0 -0.815399,-0.024 v 0.17986 l 0.01199,0.024 c 0.191858,0.10792 0.239823,0.22783 0.287787,0.5396 0.04797,0.34774 0.08394,0.87535 0.08394,2.75797 0,1.88261 -0.03597,2.41022 -0.08394,2.75796 -0.04796,0.31177 -0.09593,0.44368 -0.287787,0.53961 l -0.01199,0.024 v 0.17986 c 0.335753,-0.024 0.563585,-0.024 0.815399,-0.024 z"
         style="font-style:normal;font-variant:normal;font-weight:normal;font-stretch:extra-condensed;font-size:11.99116135px;font-family:Ferrum;-inkscape-font-specification:'Ferrum, Extra-Condensed';font-variant-ligatures:normal;font-variant-caps:normal;font-variant-numeric:normal;font-feature-settings:normal;text-align:start;writing-mode:lr-tb;text-anchor:start;stroke-width:0.29977903;fill:#ffffff"
         id="path836" />
      <path
         d="m 18.309288,276.46627 c -0.251814,0 -0.479646,0 -0.815399,-0.024 v 0.17986 l 0.01199,0.024 c 0.191858,0.10792 0.239823,0.22783 0.287787,0.5396 0.04797,0.34774 0.08394,0.87535 0.08394,2.75797 0,1.88261 -0.03597,2.41022 -0.08394,2.75796 -0.04796,0.31177 -0.09593,0.44368 -0.287787,0.53961 l -0.01199,0.024 v 0.17986 c 0.335753,-0.024 0.563585,-0.024 0.815399,-0.024 0.791417,0 1.402966,0 2.110445,0.024 0,-0.58756 0.03597,-1.24708 0.07195,-1.91858 h -0.227832 l -0.02398,0.012 c -0.119911,0.56358 -0.203849,0.87536 -0.395708,1.15115 -0.215841,0.31177 -0.359735,0.37173 -0.62354,0.37173 -0.287788,0 -0.4077,-0.10792 -0.431682,-0.41969 -0.03597,-0.47965 -0.04796,-0.98328 -0.04796,-2.56611 h 0.155885 c 0.251815,0 0.395709,0.072 0.51562,0.29978 0.119912,0.23982 0.167876,0.38371 0.20385,0.79141 l 0.02398,0.012 h 0.227832 c -0.01199,-0.2758 -0.02398,-0.73147 -0.02398,-1.25908 0,-0.52761 0.01199,-0.98327 0.02398,-1.25907 h -0.227832 l -0.02398,0.012 c -0.03597,0.4077 -0.08394,0.5516 -0.20385,0.79142 -0.119911,0.22783 -0.263805,0.29978 -0.51562,0.29978 H 18.74097 c 0,-2.67403 0.01199,-2.24235 0.04796,-2.93784 h 0.167876 c 0.467655,0 0.755443,0.10792 0.947302,0.44368 0.191858,0.32376 0.263805,0.61155 0.299779,1.0792 l 0.02398,0.012 h 0.227832 c -0.03597,-0.6715 -0.07195,-1.46292 -0.07195,-1.91858 -0.743452,0.024 -1.331019,0.024 -2.074471,0.024 z"
         style="font-style:normal;font-variant:normal;font-weight:normal;font-stretch:extra-condensed;font-size:11.99116135px;font-family:Ferrum;-inkscape-font-specification:'Ferrum, Extra-Condensed';font-variant-ligatures:normal;font-variant-caps:normal;font-variant-numeric:normal;font-feature-settings:normal;text-align:start;writing-mode:lr-tb;text-anchor:start;stroke-width:0.29977903;fill:#ffffff"
         id="path838" />
      <path
         d="m 26.62085,278.44481 c 0,-2.67403 0.01199,-3.77722 0.04796,-4.4727 h 0.287788 c 0.695487,0 1.175134,0.59956 1.175134,1.99053 0,1.34301 -0.347744,1.97854 -1.175134,2.25434 -0.04797,0.024 -0.08394,0.072 -0.07195,0.11991 0.03597,0.0959 0.07195,0.15589 0.155885,0.22783 1.199116,-0.16787 2.278321,-1.0792 2.278321,-2.74597 0,-1.23509 -0.683496,-2.30231 -2.146418,-2.25434 -0.551593,0.024 -0.82739,0.024 -1.067213,0.024 -0.251815,0 -0.71947,0 -1.055223,-0.024 v 0.19186 l 0.01199,0.024 c 0.239823,0.0719 0.395708,0.20385 0.443673,0.51562 0.04796,0.34774 0.08394,0.85137 0.08394,4.2089 0,3.35752 -0.03597,3.86115 -0.08394,4.20889 -0.04797,0.31177 -0.20385,0.44368 -0.443673,0.51562 l -0.01199,0.024 v 0.19185 c 0.335753,-0.024 0.803408,-0.024 1.055223,-0.024 0.251814,0 0.719469,0 1.055222,0.024 v -0.19185 l -0.01199,-0.024 c -0.239824,-0.0719 -0.395709,-0.20385 -0.443673,-0.51562 -0.04797,-0.34774 -0.08394,-1.10318 -0.08394,-4.26885 z"
         style="font-style:normal;font-variant:normal;font-weight:normal;font-stretch:extra-condensed;font-size:11.99116135px;font-family:Ferrum;-inkscape-font-specification:'Ferrum, Extra-Condensed';font-variant-ligatures:normal;font-variant-caps:normal;font-variant-numeric:normal;font-feature-settings:normal;text-align:start;writing-mode:lr-tb;text-anchor:start;stroke-width:0.29977903;fill:#ffffff"
         id="path840" />
      <path
         d="m 31.143578,283.42114 c 0.791417,0 1.402966,0 2.110444,0.024 0,-0.58756 0.03597,-1.24708 0.07195,-1.91858 h -0.227832 l -0.02398,0.012 c -0.119912,0.56358 -0.20385,0.87536 -0.395708,1.15115 -0.215841,0.31177 -0.359735,0.37173 -0.623541,0.37173 -0.287788,0 -0.407699,-0.10792 -0.431682,-0.41969 -0.03597,-0.47965 -0.04796,-0.99527 -0.04796,-2.69801 0,-1.88262 0.03597,-2.41023 0.08394,-2.75797 0.04796,-0.31177 0.09593,-0.43168 0.287788,-0.5396 l 0.01199,-0.024 v -0.17986 c -0.335753,0.024 -0.563585,0.024 -0.815399,0.024 -0.251815,0 -0.479647,0 -0.815399,-0.024 v 0.17986 l 0.01199,0.024 c 0.191859,0.10792 0.239823,0.22783 0.287788,0.5396 0.04797,0.34774 0.08394,0.87535 0.08394,2.75797 0,1.88261 -0.03597,2.41022 -0.08394,2.75796 -0.04796,0.31177 -0.09593,0.44368 -0.287788,0.53961 l -0.01199,0.024 v 0.17986 c 0.335752,-0.024 0.563584,-0.024 0.815399,-0.024 z"
         style="font-style:normal;font-variant:normal;font-weight:normal;font-stretch:extra-condensed;font-size:11.99116135px;font-family:Ferrum;-inkscape-font-specification:'Ferrum, Extra-Condensed';font-variant-ligatures:normal;font-variant-caps:normal;font-variant-numeric:normal;font-feature-settings:normal;text-align:start;writing-mode:lr-tb;text-anchor:start;stroke-width:0.29977903;fill:#ffffff"
         id="path842" />
      <path
         d="m 37.832774,283.24128 c -0.215841,-0.0839 -0.347744,-0.22784 -0.4077,-0.53961 -0.443673,-2.20637 -0.815399,-4.28084 -1.13916,-6.53518 h -0.10792 c -0.263806,0.26381 -0.503629,0.43168 -0.803408,0.61155 l -0.02398,0.048 c -0.323761,2.08647 -0.707478,4.24487 -1.091195,5.87567 -0.07195,0.31177 -0.227832,0.46766 -0.443673,0.53961 l -0.01199,0.024 v 0.17986 c 0.215841,-0.024 0.347743,-0.024 0.539602,-0.024 0.191859,0 0.407699,0 0.62354,0.024 v -0.17986 l -0.01199,-0.024 c -0.155885,-0.072 -0.20385,-0.22784 -0.155885,-0.53961 0.05996,-0.46765 0.191859,-1.355 0.299779,-1.90659 0.155885,-0.012 0.287788,-0.024 0.455664,-0.024 0.20385,0 0.4077,0.012 0.563585,0.024 0.119911,0.63553 0.251814,1.55885 0.31177,2.08646 0.02398,0.20385 -0.07195,0.31177 -0.263806,0.35974 l -0.01199,0.024 v 0.17986 c 0.335753,-0.024 0.539603,-0.024 0.791417,-0.024 0.251814,0 0.563585,0 0.899337,0.024 v -0.17986 z m -2.254338,-2.78195 c -0.143894,0 -0.299779,-0.012 -0.431682,-0.024 0.131903,-0.95929 0.287788,-1.82265 0.503629,-2.68602 0.119911,0.6835 0.31177,1.9066 0.41969,2.68602 -0.155885,0.012 -0.299779,0.024 -0.491637,0.024 z"
         style="font-style:normal;font-variant:normal;font-weight:normal;font-stretch:extra-condensed;font-size:11.99116135px;font-family:Ferrum;-inkscape-font-specification:'Ferrum, Extra-Condensed';font-variant-ligatures:normal;font-variant-caps:normal;font-variant-numeric:normal;font-feature-settings:normal;text-align:start;writing-mode:lr-tb;text-anchor:start;stroke-width:0.29977903;fill:#ffffff"
         id="path844" />
      <path
         d="m 41.527735,276.46627 c -0.191858,0 -0.395708,0 -0.611549,-0.024 v 0.17986 l 0.01199,0.024 c 0.155885,0.0719 0.227832,0.22783 0.155885,0.5396 -0.10792,0.47965 -0.239823,0.89934 -0.707478,2.25434 -0.383717,-1.13916 -0.587567,-1.85863 -0.731461,-2.43421 -0.04796,-0.20385 0.04796,-0.31177 0.239823,-0.35973 l 0.01199,-0.024 v -0.17986 c -0.335752,0.024 -0.51562,0.024 -0.767434,0.024 -0.251814,0 -0.563585,0 -0.899337,-0.024 v 0.17986 l 0.01199,0.024 c 0.215841,0.0839 0.335752,0.15588 0.443673,0.45566 0.359735,1.01925 0.659514,1.91859 0.911328,2.86589 0.03597,0.14389 0.04796,0.22783 0.04796,0.37172 0,1.53487 -0.03597,2.02651 -0.08394,2.36226 -0.04797,0.31177 -0.09593,0.44368 -0.287788,0.53961 l -0.01199,0.024 v 0.17986 c 0.335752,-0.024 0.563584,-0.024 0.815399,-0.024 0.251814,0 0.479646,0 0.815399,0.024 v -0.17986 l -0.01199,-0.024 c -0.191858,-0.0959 -0.239823,-0.22784 -0.287787,-0.53961 -0.04796,-0.33575 -0.08394,-0.69548 -0.08394,-2.33827 0,-0.15589 0.03597,-0.22784 0.08394,-0.38372 0.251814,-0.87536 0.611549,-1.85863 0.995266,-2.87788 0.10792,-0.29978 0.251814,-0.38372 0.467655,-0.45566 l 0.01199,-0.024 v -0.17986 c -0.21584,0.024 -0.347743,0.024 -0.539602,0.024 z"
         style="font-style:normal;font-variant:normal;font-weight:normal;font-stretch:extra-condensed;font-size:11.99116135px;font-family:Ferrum;-inkscape-font-specification:'Ferrum, Extra-Condensed';font-variant-ligatures:normal;font-variant-caps:normal;font-variant-numeric:normal;font-feature-settings:normal;text-align:start;writing-mode:lr-tb;text-anchor:start;stroke-width:0.29977903;fill:#ffffff"
         id="path846" />
      <path
         d="m 44.128509,279.94371 c 0,-1.88262 0.03597,-2.41023 0.08394,-2.75797 0.04797,-0.31177 0.09593,-0.43168 0.287788,-0.5396 l 0.01199,-0.024 v -0.17986 c -0.335752,0.024 -0.563584,0.024 -0.815399,0.024 -0.251814,0 -0.479646,0 -0.815399,-0.024 v 0.17986 l 0.01199,0.024 c 0.191859,0.10792 0.239824,0.22783 0.287788,0.5396 0.04796,0.34774 0.08394,0.87535 0.08394,2.75797 0,1.88261 -0.03597,2.41022 -0.08394,2.75796 -0.04796,0.31177 -0.09593,0.44368 -0.287788,0.53961 l -0.01199,0.024 v 0.17986 c 0.335753,-0.024 0.563585,-0.024 0.815399,-0.024 0.251815,0 0.479647,0 0.815399,0.024 v -0.17986 l -0.01199,-0.024 c -0.191859,-0.0959 -0.239823,-0.22784 -0.287788,-0.53961 -0.04796,-0.34774 -0.08394,-0.87535 -0.08394,-2.75796 z"
         style="font-style:normal;font-variant:normal;font-weight:normal;font-stretch:extra-condensed;font-size:11.99116135px;font-family:Ferrum;-inkscape-font-specification:'Ferrum, Extra-Condensed';font-variant-ligatures:normal;font-variant-caps:normal;font-variant-numeric:normal;font-feature-settings:normal;text-align:start;writing-mode:lr-tb;text-anchor:start;stroke-width:0.29977903;fill:#ffffff"
         id="path848" />
      <path
         d="m 46.752323,276.46627 c -0.251815,0 -0.479647,0 -0.815399,-0.024 v 0.17986 l 0.01199,0.024 c 0.191858,0.10792 0.239823,0.22783 0.287788,0.5396 0.04796,0.34774 0.08394,0.87535 0.08394,2.75797 0,1.88261 -0.03597,2.41022 -0.08394,2.75796 -0.04796,0.31177 -0.09593,0.44368 -0.287788,0.53961 l -0.01199,0.024 v 0.17986 c 0.215841,-0.024 0.407699,-0.024 0.599558,-0.024 0.191858,0 0.383717,0 0.599558,0.024 v -0.17986 l -0.01199,-0.024 c -0.191859,-0.0959 -0.239824,-0.22784 -0.287788,-0.53961 -0.04796,-0.34774 -0.08394,-0.86336 -0.08394,-2.75796 0,-0.80341 0,-1.27107 -0.02398,-1.69076 0.563585,1.31903 1.642789,3.95709 2.1704,5.3001 l 0.02398,0.012 h 0.143894 c -0.02398,-1.03124 -0.02398,-1.7627 -0.02398,-3.62133 0,-1.85863 0.03597,-2.41023 0.08394,-2.75797 0.04796,-0.31177 0.09593,-0.43168 0.287787,-0.5396 l 0.01199,-0.024 v -0.17986 c -0.215841,0.024 -0.4077,0.024 -0.599559,0.024 -0.191858,0 -0.383717,0 -0.599558,-0.024 v 0.17986 l 0.01199,0.024 c 0.191858,0.10792 0.239823,0.22783 0.287787,0.5396 0.04796,0.34774 0.08394,1.19911 0.08394,2.75797 0,0.28778 0,0.37172 0.02398,0.74345 -0.119912,-0.43168 -0.299779,-0.93531 -0.467655,-1.355 -0.815399,-1.94257 -0.92332,-2.24235 -1.103187,-2.86589 z"
         style="font-style:normal;font-variant:normal;font-weight:normal;font-stretch:extra-condensed;font-size:11.99116135px;font-family:Ferrum;-inkscape-font-specification:'Ferrum, Extra-Condensed';font-variant-ligatures:normal;font-variant-caps:normal;font-variant-numeric:normal;font-feature-settings:normal;text-align:start;writing-mode:lr-tb;text-anchor:start;stroke-width:0.29977903;fill:#ffffff"
         id="path850" />
      <path
         d="m 53.879195,283.2053 v -0.11991 l -0.01199,-0.036 c -0.02398,-0.048 -0.03597,-0.15589 -0.03597,-0.23983 v -0.8034 c 0,-0.37173 0,-0.53961 0.02398,-0.88735 0.01199,-0.31177 0.04796,-0.41969 0.167876,-0.5396 l 0.01199,-0.024 v -0.17987 c -0.251814,0.024 -0.359734,0.024 -0.611549,0.024 -0.251814,0 -0.491637,0 -0.82739,-0.024 v 0.17987 l 0.01199,0.024 c 0.20385,0.0839 0.263806,0.17986 0.31177,0.49163 0.04796,0.34775 0.07195,0.89934 0.07195,1.78669 0,0.17987 -0.08394,0.29978 -0.395708,0.29978 -0.431682,0 -0.887346,-0.74345 -0.887346,-3.18965 0,-2.61408 0.563585,-3.20164 1.103187,-3.20164 0.215841,0 0.443673,0.11991 0.539602,0.27579 0.119912,0.19186 0.155885,0.35974 0.191859,0.82739 l 0.02398,0.012 h 0.227832 c 0,-0.49164 0,-0.91133 0.01199,-1.21111 -0.215841,-0.19186 -0.563584,-0.32376 -0.983275,-0.32376 -1.115178,0 -2.1704,1.05522 -2.1704,3.74124 0,2.31429 0.791417,3.45345 1.810665,3.45345 0.551594,0 0.995267,-0.11991 1.414957,-0.33575 z"
         style="font-style:normal;font-variant:normal;font-weight:normal;font-stretch:extra-condensed;font-size:11.99116135px;font-family:Ferrum;-inkscape-font-specification:'Ferrum, Extra-Condensed';font-variant-ligatures:normal;font-variant-caps:normal;font-variant-numeric:normal;font-feature-settings:normal;text-align:start;writing-mode:lr-tb;text-anchor:start;stroke-width:0.29977903;fill:#ffffff"
         id="path852" />
    </g>
    <path
       style="fill:#ffffff;stroke-width:0.02631208"
       d="m 64.848918,288.54102 c 0,-0.0657 0.251347,-0.2008 0.625938,-0.33639 0.352979,-0.12774 1.091932,-0.35155 1.166278,-0.35317 0.03456,-7.7e-4 0.145668,-0.035 0.24697,-0.0762 0.101299,-0.0412 0.188032,-0.0646 0.192738,-0.0519 0.0043,0.0122 0.09024,-0.0181 0.1901,-0.0684 0.193343,-0.0973 0.221798,-0.10678 0.196031,-0.0651 -0.04189,0.0677 0.142883,-0.0258 0.296006,-0.14976 0.09945,-0.0806 0.111829,-0.0847 0.111829,-0.0377 0,0.14478 0.138118,0.0496 0.260052,-0.17911 0.316439,-0.5937 0.396059,-1.80175 0.241161,-3.65915 -0.02956,-0.35454 -0.06102,-0.79264 -0.06988,-0.97355 -0.0089,-0.18089 -0.03206,-0.37817 -0.05162,-0.43839 -0.01956,-0.0603 -0.09595,-0.40361 -0.169839,-0.76306 -0.09267,-0.45086 -0.15444,-0.69027 -0.199176,-0.77195 -0.234629,-0.4284 -0.262042,-0.55234 -0.25321,-1.14462 0.0087,-0.55103 -0.0077,-0.62664 -0.190713,-0.92069 -0.159644,-0.25613 -0.191022,-0.27206 -0.06378,-0.0324 0.0555,0.10449 0.101205,0.19766 0.101583,0.20693 6.56e-4,0.0161 -0.328589,-0.17325 -0.771123,-0.44355 -0.268773,-0.16417 -0.527395,-0.43608 -0.657791,-0.69159 -0.100704,-0.19734 -0.100704,-0.19734 -0.08437,-0.0526 0.04008,0.35617 0.2219,0.56362 0.860843,0.98236 0.553663,0.36285 0.702829,0.51569 0.736094,0.75423 0.0069,0.0523 -8.63e-4,0.0641 -0.04042,0.0572 -0.03904,-0.007 -0.04532,10e-4 -0.0293,0.0395 0.102935,0.24296 0.07902,0.31678 -0.05852,0.18095 -0.542466,-0.53543 -1.810977,-0.85229 -2.754466,-0.688 -1.27164,0.22142 -2.423543,-0.0952 -2.671539,-0.73422 -0.0337,-0.0868 -0.09669,-0.21453 -0.139997,-0.28379 -0.173865,-0.27801 0.02267,-0.79056 0.564348,-1.4719 0.06748,-0.0849 0.01473,-0.17825 -0.100624,-0.17825 -0.117682,0 -0.666098,0.37084 -0.730379,0.49389 -0.05817,0.11124 -0.164539,0.1952 -0.450048,0.35484 -0.737153,0.41221 -1.001523,0.6964 -0.72358,0.77785 0.338017,0.0991 0.435321,0.16264 0.248848,0.16264 -0.300977,0 -0.754466,0.15758 -1.252809,0.43535 -0.170676,0.0952 -0.420136,0.20847 -0.554368,0.25186 -0.29441,0.0952 -0.516114,0.21201 -0.9996,0.52683 -0.201399,0.13112 -0.370568,0.23405 -0.375935,0.22867 -0.01244,-0.0122 0.780508,-0.7241 1.025221,-0.92006 0.528436,-0.42315 1.248051,-1.22652 1.250257,-1.39575 3.19e-4,-0.0243 0.02318,-0.0515 0.05076,-0.0603 0.04636,-0.0147 0.133876,-0.18297 0.134133,-0.25786 6e-5,-0.0177 0.03524,-0.0852 0.07808,-0.14992 0.04292,-0.0646 0.08523,-0.15061 0.09412,-0.19099 0.0089,-0.0404 0.02698,-0.0668 0.04034,-0.0585 0.03636,0.0224 0.02697,0.1695 -0.01844,0.28811 -0.202803,0.52941 -0.208603,0.57775 -0.06317,0.52644 0.395662,-0.1396 1.073343,-0.78278 1.34651,-1.27795 0.147417,-0.2672 0.164102,-0.26213 0.141238,0.0428 -0.01887,0.25179 -0.01887,0.25179 0.121846,0.15324 0.27821,-0.19478 0.350868,-0.28904 0.20651,-0.26784 -0.101124,0.0149 -0.100516,0.0122 0.03542,-0.14751 0.137144,-0.1612 0.15488,-0.19331 0.243971,-0.4415 0.112573,-0.31358 0.304537,-0.65703 0.344748,-0.61681 0.0077,0.008 -0.0312,0.12368 -0.08592,0.25827 -0.188921,0.46423 -0.146434,0.58697 0.160671,0.4642 0.256071,-0.10232 0.309216,-0.14389 0.288698,-0.22565 -0.01818,-0.0725 0.114911,-0.2103 0.150631,-0.15598 0.03189,0.0485 0.23007,-0.17616 0.23007,-0.26087 0,-0.0646 0.0061,-0.0685 0.08548,-0.0534 0.322592,0.0618 0.264844,0.0919 1.180231,-0.61792 0.331665,-0.25718 0.331665,-0.25718 0.346126,-0.4167 0.01698,-0.1875 0.08109,-0.31051 0.199796,-0.38345 0.341689,-0.20994 0.416259,-0.31218 0.451213,-0.61862 0.04489,-0.39341 0.07859,-0.4625 0.344705,-0.70636 0.240722,-0.22057 0.33282,-0.36641 0.583953,-0.92469 0.238369,-0.52991 0.370025,-0.77062 0.558987,-1.022 0.139885,-0.18608 0.144021,-0.17367 -0.170944,-0.51322 -0.130294,-0.14046 -0.159619,-0.19247 -0.221365,-0.39258 -0.04861,-0.15753 -0.114925,-0.29515 -0.20919,-0.43414 -0.21623,-0.31881 -0.294213,-0.64316 -0.228778,-0.95153 0.03319,-0.15625 0.03292,-0.15744 -0.0455,-0.25702 -0.24261,-0.30804 -0.29511,-0.54185 -0.295713,-1.31698 -2.66e-4,-0.32199 0.0026,-0.58623 0.0061,-0.58718 0.0034,-8.6e-4 0.157155,-0.0108 0.341197,-0.0234 0.467414,-0.0303 0.49768,-0.0496 0.536952,-0.34467 0.0362,-0.27198 0.07093,-0.35585 0.243454,-0.58767 0.315292,-0.42372 0.230984,-0.64514 -0.17589,-0.46193 -0.207457,0.0934 -0.281924,0.045 -0.345558,-0.22463 -0.01698,-0.0721 -0.05877,-0.16758 -0.09278,-0.21217 -0.03404,-0.0446 -0.08032,-0.12531 -0.102935,-0.17944 -0.04111,-0.0984 -0.04111,-0.0984 -0.117574,-0.0418 -0.152503,0.11273 -0.175478,0.0761 -0.171608,-0.27364 0.0034,-0.29349 -2.6e-5,-0.31424 -0.05954,-0.37848 -0.03464,-0.0374 -0.07024,-0.11314 -0.07902,-0.1682 -0.01387,-0.0866 -0.02241,-0.0968 -0.06368,-0.0747 -0.07016,0.0376 -0.08247,0.0315 -0.05196,-0.0256 0.152656,-0.28524 -0.326626,0.21335 -0.51066,0.53122 -0.137962,0.23831 -0.157818,0.0228 -0.02801,-0.30361 0.0767,-0.19275 0.02257,-0.15203 -0.07825,0.0589 -0.0854,0.17868 -0.133674,0.20703 -0.110626,0.065 0.01603,-0.099 -0.01733,-0.0942 -0.106247,0.0153 -0.06352,0.0781 -0.03827,-0.14383 0.02732,-0.24045 0.05265,-0.0776 0.129186,-0.23849 0.26736,-0.56207 0.01853,-0.0434 0.106869,-0.17366 0.196289,-0.28943 0.136497,-0.17674 0.160205,-0.22265 0.147822,-0.28628 -0.02241,-0.11516 0.06748,-0.23441 0.318541,-0.4222 0.121927,-0.0912 0.257975,-0.21516 0.302314,-0.27546 0.10357,-0.14083 0.176079,-0.17657 0.483943,-0.23851 0.340043,-0.0684 0.467181,-0.145 0.557616,-0.33602 0.0711,-0.15011 0.330167,-0.45482 0.360976,-0.42452 0.0093,0.009 -0.03094,0.091 -0.08961,0.18167 -0.220849,0.34171 -0.05558,0.25594 0.664255,-0.34463 0.443042,-0.36966 0.49911,-0.40271 0.330734,-0.19501 -0.354382,0.43714 -0.256527,0.69662 0.19815,0.52547 0.236164,-0.0888 0.537701,-0.13786 0.963078,-0.15643 0.410554,-0.018 0.398369,-0.001 -0.08342,0.11165 -0.542475,0.1276 -0.784844,0.27196 -0.784844,0.46753 0,0.10368 0.06912,0.15414 0.187205,0.13681 0.0926,-0.0137 0.09268,-0.0122 0.0069,0.10003 -0.182939,0.23983 -0.07843,0.51151 0.221582,0.57613 0.06955,0.015 0.08083,0.0258 0.05696,0.0546 -0.07274,0.0876 0.0936,0.14315 0.429409,0.14337 0.266869,1.6e-4 0.473361,0.0585 0.706283,0.19969 0.319239,0.19344 0.260958,0.22105 -0.108829,0.0515 -0.266136,-0.12206 -0.482047,-0.17161 -0.748037,-0.17195 -0.143072,-1.9e-4 -0.151992,0.004 -0.105233,0.0384 0.02999,0.0227 0.11083,0.0391 0.195788,0.0397 0.09654,7.2e-4 0.232311,0.0322 0.407839,0.0944 0.14471,0.0514 0.366724,0.12923 0.493346,0.17313 0.126631,0.0439 0.230234,0.0899 0.230234,0.10219 0,0.0438 -0.454582,-0.051 -0.653405,-0.13606 -0.06955,-0.0299 -0.172133,-0.048 -0.26312,-0.0468 -0.1146,0.001 -0.13389,0.007 -0.08334,0.0234 0.07437,0.0242 0.402177,0.11477 0.575636,0.15932 0.170056,0.0437 0.116439,0.0676 -0.365929,0.16332 -0.40884,0.0811 -0.42461,0.0865 -0.278718,0.0941 0.115465,0.005 0.224399,-0.0135 0.429977,-0.0756 0.295764,-0.0898 0.777424,-0.1034 0.964862,-0.0276 0.119954,0.0487 0.06256,0.0622 -0.114736,0.0273 -0.193996,-0.0383 -0.526085,-0.0187 -0.750639,0.0439 -0.416509,0.11625 -0.405556,0.11206 -0.302418,0.11408 0.05076,8.7e-4 0.133633,-0.0108 0.18419,-0.0261 0.135378,-0.0411 0.544285,-0.0336 0.696114,0.0122 0.113073,0.0345 0.14833,0.035 0.26312,0.004 0.185533,-0.0508 0.334242,-0.0693 0.315767,-0.0393 -0.0087,0.0136 -0.02706,0.0247 -0.04136,0.0247 -0.0143,0 -0.176433,0.0614 -0.360243,0.13637 -0.273272,0.11152 -0.372575,0.13912 -0.544698,0.15141 -0.210492,0.015 -0.210492,0.015 0.08454,0.0881 0.404676,0.10029 0.572638,0.11151 0.912655,0.0607 0.306872,-0.0458 0.369016,-0.0396 0.220807,0.0223 -0.330029,0.13789 -0.997782,0.11057 -1.369082,-0.0561 -0.152501,-0.0684 -0.152501,-0.0684 -0.355926,-0.0204 -0.355226,0.0841 -0.757844,0.056 -0.852544,-0.0595 -0.03112,-0.038 -0.02775,-0.0403 0.03077,-0.0215 0.22502,0.0725 0.79945,0.0254 0.858612,-0.0703 0.02974,-0.0481 -0.01353,-0.0499 -0.09969,-0.004 -0.112667,0.0599 -0.435063,0.0598 -0.597776,-3.8e-4 -0.137344,-0.0507 -0.509013,-0.0596 -0.397955,-0.009 0.05954,0.0269 0.0505,0.0311 -0.0965,0.0443 -0.155914,0.014 -0.240265,0.0491 -0.174899,0.0726 0.07402,0.0265 0.245487,0.17011 0.313663,0.26267 0.04067,0.0553 0.192876,0.225 0.33819,0.37719 0.290947,0.30474 0.391197,0.4567 0.541277,0.82052 0.11556,0.28012 0.323789,0.26555 0.574706,-0.0403 0.05102,-0.0622 0.08574,-0.0545 0.06937,0.0151 -0.04077,0.17354 0.117967,0.15809 0.422663,-0.0411 0.333346,-0.21793 1.23179,-0.54943 1.655752,-0.61091 0.182259,-0.0265 0.151011,-0.008 -0.197339,0.11977 -1.053109,0.38454 -1.305206,0.93358 -0.428668,0.93358 0.177889,0 0.323427,0.003 0.323427,0.005 -8e-6,0.003 -0.02964,0.0491 -0.06575,0.10233 -0.102746,0.1514 -0.07954,0.31332 0.07644,0.53326 0.12824,0.18081 0.119751,0.50282 -0.02198,0.83246 -0.1018,0.23681 -0.1018,0.23681 -0.118467,0.81568 -0.01913,0.6652 -0.02568,0.68722 -0.302702,1.02523 -0.134728,0.16438 -0.146442,0.18928 -0.146442,0.31133 0,0.1053 -0.02533,0.18334 -0.122387,0.37759 -0.168702,0.33764 -0.190437,0.95777 -0.04146,1.18276 0.0123,0.0185 0.146769,-0.0589 0.374349,-0.21567 0.87509,-0.60248 0.94903,-0.66167 0.885069,-0.70844 -0.0536,-0.0392 -0.0051,-0.0871 0.266084,-0.26097 0.182656,-0.11733 0.228993,-0.17843 0.15787,-0.20832 -0.02352,-0.009 -0.01982,-0.022 0.01325,-0.043 0.07652,-0.0484 0.05239,-0.103 -0.07238,-0.16368 -0.09226,-0.0447 -0.118413,-0.0716 -0.118413,-0.1218 0,-0.086 -0.201054,-0.0707 -0.532814,0.0403 -0.260199,0.087 -0.277158,0.0788 -0.118413,-0.0576 0.245626,-0.21101 0.516313,-0.30436 1.256404,-0.43331 0.497231,-0.0867 0.651569,-0.13193 0.724441,-0.2124 0.06317,-0.0699 0.108504,-0.065 0.128253,0.0136 0.0097,0.0388 0.04136,0.0716 0.07774,0.0807 0.03378,0.008 0.105192,0.0679 0.158783,0.13193 0.119089,0.14247 0.163541,0.14649 0.198727,0.018 0.01483,-0.0543 0.05085,-0.13743 0.07997,-0.18481 0.03386,-0.0552 0.05291,-0.13193 0.05291,-0.21362 0,-0.12747 0,-0.12747 0.09397,-0.0389 0.14534,0.13708 0.407072,0.0289 0.509745,-0.21054 0.06188,-0.14428 0.112844,-0.16397 0.245514,-0.0948 0.137351,0.0716 0.214093,0.0527 0.387355,-0.0952 0.206078,-0.17591 0.154535,0.0314 -0.06947,0.27933 -0.08873,0.0983 -0.07833,0.17661 0.01568,0.11855 0.01517,-0.009 0.02758,-0.005 0.02758,0.008 0,0.0339 -0.339966,0.26313 -0.5798,0.39088 -0.109045,0.0581 -0.253865,0.14805 -0.321799,0.1999 -0.06791,0.0519 -0.147779,0.10192 -0.177432,0.11138 -0.02964,0.009 -0.13643,0.14011 -0.237284,0.29042 -0.211569,0.31534 -0.24497,0.33972 -0.438045,0.3198 -0.172468,-0.0178 -0.20787,0.0299 -0.232742,0.31382 -0.03421,0.39019 -0.05911,0.39571 -0.198055,0.0438 -0.02034,-0.0515 -0.03197,-0.055 -0.100853,-0.031 -0.09987,0.0347 -0.115439,0.0791 -0.06782,0.19299 0.02111,0.0506 0.03843,0.14023 0.03843,0.1993 0,0.0591 0.01853,0.14322 0.04119,0.187 0.09858,0.19062 0.03447,0.94395 -0.08032,0.94395 -0.266929,0 -0.284052,-0.0781 -0.138075,-0.63032 0.0455,-0.172 0.03413,-0.25656 -0.02757,-0.20563 -0.07851,0.0648 -0.135861,0.2509 -0.177011,0.57459 -0.168781,1.3277 -1.28504,3.4488 -2.293094,4.35731 -0.615503,0.55471 -0.573587,0.49319 -0.583092,0.85586 -0.0061,0.2122 0.0069,0.43256 0.03732,0.63951 0.0374,0.25758 0.04904,0.59935 0.06334,1.855 0.01621,1.42401 0.02171,1.56093 0.07386,1.82869 0.06653,0.34154 0.307114,1.23161 0.433789,1.60504 0.04912,0.14472 0.104111,0.32528 0.122265,0.40126 0.01818,0.076 0.04559,0.13814 0.06102,0.13814 0.05387,0 0.284742,-0.1652 0.362199,-0.25917 0.07524,-0.0912 0.07817,-0.0925 0.07817,-0.0296 -2.7e-5,0.10448 -0.139859,0.3696 -0.272376,0.51636 -0.09946,0.11017 -0.122589,0.15434 -0.123954,0.23681 -0.0018,0.0934 -0.0034,0.0962 -0.02758,0.0365 -0.01422,-0.0357 -0.03043,-0.0693 -0.03594,-0.0749 -0.06878,-0.0688 -0.735387,0.52988 -0.788214,0.70779 -0.116466,0.39219 0.105598,0.50303 0.489709,0.24442 0.280941,-0.18914 0.402107,-0.22247 0.196606,-0.0541 -0.06368,0.0522 -0.173511,0.16702 -0.244056,0.25519 -0.111235,0.13903 -0.161439,0.17615 -0.37822,0.27968 -0.681059,0.32524 -0.65861,0.81598 0.0274,0.59925 0.273073,-0.0862 0.273624,-0.0831 0.01999,0.11639 -0.228365,0.1795 -0.343326,0.23182 -0.567132,0.25813 -0.237154,0.0278 -0.359251,0.17579 -0.258465,0.31313 0.03732,0.0508 0.359595,0.0656 0.495335,0.0227 0.08903,-0.0281 0.04395,0.0292 -0.07928,0.10097 -0.06851,0.0399 -0.186593,0.12517 -0.262353,0.18965 -0.07575,0.0645 -0.185326,0.1299 -0.243462,0.14561 -0.214395,0.0577 -0.556092,1.38945 -0.516484,2.01296 0.0312,0.49121 0.03258,0.49199 0.279365,0.15787 0.266256,-0.36051 0.265868,-0.35183 -0.01095,0.24561 -0.09612,0.20744 -0.204347,0.47929 -0.240516,0.60408 -0.09408,0.32466 -0.861698,0.41971 -1.100222,0.13624 -0.08119,-0.0964 -0.06171,-0.0977 -0.299815,0.0199 -0.198519,0.0981 -0.198519,0.0981 -0.858819,0.11625 -0.948073,0.0261 -2.173236,0.0262 -2.173236,1.9e-4 z m 3.92383,-5.14809 c 0.05722,-0.23628 0.235629,-0.72245 0.337551,-0.9199 0.0879,-0.17029 0.07213,-0.25917 -0.09189,-0.51791 -0.440588,-0.69499 -0.47755,-1.08909 -0.1441,-1.53636 0.183422,-0.24604 0.253141,-0.4239 0.137963,-0.35198 -0.19653,0.12274 -0.216014,-0.21633 -0.03275,-0.57043 0.111951,-0.21631 0.107545,-0.22869 -0.04266,-0.1199 -0.148718,0.10773 -0.236499,0.22137 -0.340878,0.44134 -0.169892,0.358 -0.342275,0.2102 -0.41812,-0.35849 -0.0218,-0.1635 -0.07213,-0.23681 -0.162421,-0.23681 -0.03396,0 -0.06171,-0.0135 -0.06171,-0.0296 0,-0.0704 -0.08446,-0.59023 -0.10061,-0.61918 -0.0099,-0.0176 -0.01379,0.17132 -0.0089,0.41971 0.0096,0.48766 0.02439,0.5539 0.118291,0.53033 0.08742,-0.0219 0.135542,0.0492 0.202537,0.29934 0.123265,0.46027 0.272236,0.48568 0.482538,0.0823 0.09814,-0.18826 0.160774,-0.23996 0.12048,-0.0995 -0.04335,0.1511 -0.03051,0.32324 0.02974,0.39989 0.06455,0.082 0.07455,0.0524 -0.114235,0.33662 -0.380099,0.57215 -0.45703,0.99168 -0.298332,1.62691 0.05093,0.20391 0.09761,0.4729 0.109559,0.63148 0.02086,0.27629 0.02086,0.27629 0.066,-0.0526 0.0518,-0.37682 0.04093,-0.46907 -0.08471,-0.71799 -0.110923,-0.21975 -0.101421,-0.52403 0.02456,-0.78598 0.07126,-0.14818 0.0805,-0.15802 0.08256,-0.0879 0.0034,0.12896 0.05145,0.2741 0.181594,0.55256 0.156707,0.33524 0.170676,0.59333 0.05127,0.94723 -0.135369,0.40114 -0.239482,1.09091 -0.208501,1.38138 0.01176,0.1103 0.01586,0.10057 0.06023,-0.1447 0.0262,-0.14473 0.07343,-0.3697 0.104962,-0.49994 z m 2.45161,-1.82211 c -0.02284,-0.0688 -0.146012,-0.3574 -0.273719,-0.64145 -0.288336,-0.64133 -0.432883,-1.06021 -0.590814,-1.7121 -0.350694,-1.44754 -0.349997,-1.44505 -0.469999,-1.68906 -0.125914,-0.25606 -0.234844,-0.40999 -0.267325,-0.37778 -0.04067,0.0403 -0.04093,0.30167 -3.54e-4,0.47522 0.05524,0.2363 0.05318,0.27842 -0.01999,0.41598 -0.05343,0.10057 -0.05903,0.13584 -0.04136,0.26047 0.04489,0.31677 0.02887,0.49648 -0.03636,0.40743 -0.245729,-0.33537 -0.334019,-0.35043 -0.334019,-0.0569 0,0.51576 0.252831,1.08401 0.657446,1.47768 0.373739,0.36365 0.554161,0.66449 0.607524,1.01302 0.06222,0.4064 0.226003,0.54873 0.634488,0.55141 0.176002,8.6e-4 0.176002,8.6e-4 0.134485,-0.12382 z m -2.440675,-3.61072 c 0.08515,-0.35166 0.191988,-0.61653 0.366405,-0.90837 0.211912,-0.35461 0.281045,-0.88015 0.176011,-1.33816 -0.03878,-0.16908 -0.05283,-0.16767 -0.118845,0.0122 -0.0586,0.15956 -0.201786,0.32322 -0.368594,0.42144 -0.136635,0.0806 -0.06472,0.10652 0.09938,0.036 0.09357,-0.0403 -0.06265,0.19224 -0.237059,0.35265 -0.173642,0.15974 -0.299332,0.33013 -0.382934,0.51911 -0.07041,0.15924 -0.04611,0.17271 0.05265,0.0292 0.146881,-0.21349 0.477704,-0.44978 0.477704,-0.34121 0,0.14346 -0.266489,0.57111 -0.514615,0.82584 -0.08256,0.0847 -0.13966,0.15397 -0.126901,0.15384 0.0586,-6.2e-4 0.29896,-0.16525 0.417861,-0.28626 0.167418,-0.17036 0.173459,-0.16872 0.117804,0.032 -0.04835,0.1743 -0.06317,0.33823 -0.05619,0.62067 0.0051,0.21632 0.01784,0.19985 0.09737,-0.12882 z m 2.303772,-3.88758 c 1.362437,-1.44528 2.626131,-4.26425 2.119582,-4.72822 -0.06256,-0.0573 -0.09612,-0.11152 -0.09612,-0.15531 0,-0.15963 -0.193713,-0.0762 -0.613943,0.26434 -0.396033,0.32098 -0.506748,0.39712 -0.62282,0.42838 -0.313061,0.0842 -0.802312,0.6858 -0.506419,0.62259 0.03981,-0.008 0.155242,-0.0334 0.256544,-0.0554 0.1013,-0.022 0.238938,-0.0403 0.305864,-0.0404 0.06687,-2.6e-4 0.172013,-0.0181 0.233535,-0.0399 0.06153,-0.0218 0.118994,-0.0395 0.127712,-0.0395 0.0087,0 -0.08032,0.0977 -0.197865,0.21708 -0.117547,0.11936 -0.285458,0.31908 -0.373144,0.44376 -0.08767,0.12463 -0.222134,0.28321 -0.29878,0.35229 -0.07946,0.0716 -0.11675,0.11923 -0.08674,0.11085 0.02895,-0.008 0.09407,-0.0232 0.144719,-0.0333 0.05068,-0.009 0.19273,-0.0634 0.315741,-0.11854 0.218444,-0.0979 0.464311,-0.1745 0.486967,-0.15185 0.0061,0.005 -0.109666,0.0968 -0.257552,0.2011 -0.147882,0.10436 -0.381366,0.29745 -0.518846,0.42905 -0.13748,0.13166 -0.321006,0.2869 -0.407839,0.34511 -0.09227,0.0619 -0.130537,0.0987 -0.09209,0.0885 0.421282,-0.11071 0.46657,-0.0493 0.11183,0.15146 -0.454954,0.25762 -0.529903,0.33027 -0.560109,0.54309 -0.04723,0.33285 -0.03291,0.55942 0.04516,0.71484 0.08746,0.17406 0.109058,0.45343 0.05497,0.71103 -0.04154,0.19812 0.04843,0.14346 0.429643,-0.26091 z m -3.186332,-2.87524 c 0.03059,-0.0306 0.05291,-0.0884 0.05326,-0.13813 3.45e-4,-0.047 0.01054,-0.12842 0.02275,-0.1808 0.01982,-0.0854 0.01706,-0.0939 -0.02697,-0.0824 -0.06894,0.018 -0.06687,-0.17887 0.0043,-0.38934 0.09493,-0.28182 0.102692,-0.49513 0.01552,-0.42656 -0.03939,0.0309 -0.133065,0.0762 -0.208225,0.10057 -0.07514,0.0243 -0.147899,0.0547 -0.161643,0.0675 -0.07455,0.0688 -0.07902,-0.0646 -0.0069,-0.2098 0.03214,-0.0648 -0.02241,-0.1355 -0.104517,-0.1355 -0.05912,0 -0.03766,-0.0461 0.02931,-0.0629 0.244332,-0.0614 0.419869,-0.44216 0.261293,-0.5669 -0.06825,-0.0537 -0.06868,-0.0558 -0.02086,-0.10868 0.143358,-0.15841 -0.355382,-0.34627 -0.7482,-0.28181 -0.282726,0.0464 -0.242859,0.37666 0.09154,0.7584 0.06919,0.079 0.14733,0.16817 0.173718,0.19828 0.04455,0.0508 0.04507,0.0629 0.0077,0.16776 -0.07144,0.20245 -0.05334,0.36597 0.06541,0.59 0.107828,0.20353 0.123617,0.28032 0.08075,0.39297 -0.03327,0.0876 0.07472,0.18921 0.234966,0.22115 0.100286,0.02 0.11744,0.0324 0.112141,0.0812 -0.0077,0.0734 0.05387,0.0758 0.124671,0.005 z m 1.854446,-1.60251 c 0.01465,-0.0666 0.0026,-0.10233 -0.06309,-0.19208 -0.07489,-0.10193 -0.08109,-0.12653 -0.08109,-0.32496 0,-0.21471 0,-0.21471 -0.211672,-0.40585 -0.398712,-0.36001 -0.438699,-0.59874 -0.210886,-1.25898 0.09395,-0.27229 0.117655,-0.36725 0.08548,-0.34241 -0.684324,0.5285 -0.92946,0.91508 -1.110735,1.75166 -0.04154,0.19149 -0.09966,0.40462 -0.129253,0.47363 -0.05377,0.12544 -0.05377,0.12544 0.07386,-0.0108 0.08109,-0.0864 0.153095,-0.19956 0.197357,-0.31011 0.224727,-0.56137 0.6149,-0.8991 0.740117,-0.64069 0.04343,0.0896 0.130686,0.22278 0.193936,0.29596 0.131754,0.15243 0.27883,0.44192 0.258492,0.5088 -0.0077,0.0249 -0.02844,0.0817 -0.04645,0.12625 -0.02878,0.0714 -0.02602,0.0903 0.02267,0.15787 0.04318,0.06 0.129011,0.37179 0.138575,0.50328 0.0026,0.036 0.123766,-0.24591 0.142643,-0.33184 z m -2.130726,-1.49466 c 0.115736,-0.0735 0.321101,-0.2564 0.552558,-0.49208 0.202597,-0.2063 0.415682,-0.41149 0.473508,-0.45601 0.196029,-0.15082 -0.399136,0.005 -0.789256,0.20674 -0.630826,0.32611 -0.617167,0.32054 -0.818213,0.33345 -0.186782,0.0122 -0.194357,0.009 -0.273547,-0.0691 -0.100367,-0.10043 -0.118048,-0.0715 -0.0993,0.16191 0.02352,0.29325 0.119345,0.46206 0.201881,0.35571 0.156922,-0.20218 0.41102,-0.37604 0.640547,-0.43826 0.126239,-0.0342 0.12586,-0.0328 -0.04662,0.17048 -0.386441,0.45551 -0.32953,0.53712 0.158447,0.22718 z m 3.548618,-0.17209 c 0.08394,-0.14563 0.134701,-0.2987 0.239731,-0.72322 0.118102,-0.47747 0.225503,-0.61007 0.434933,-0.53706 0.08084,0.0281 0.08394,0.0269 0.06722,-0.0293 -0.07593,-0.25541 -0.05206,-0.48919 0.07747,-0.75928 0.162541,-0.33889 0.17795,-0.46769 0.07799,-0.65141 -0.112465,-0.20667 -0.156869,-0.23701 -0.206457,-0.14112 -0.04713,0.0911 -0.275064,0.32205 -0.317868,0.32205 -0.01637,0 -0.04835,-0.0992 -0.07136,-0.22071 -0.08204,-0.43434 -0.168745,-0.55493 -0.266963,-0.37111 -0.188679,0.35309 -0.249495,0.39989 -0.314457,0.24188 -0.04412,-0.10746 -0.338378,-0.49541 -0.389742,-0.51397 -0.01371,-0.005 -0.0243,0.0987 -0.0243,0.23856 0,0.24012 -0.03679,0.52226 -0.07764,0.59564 -0.01414,0.0254 -0.04396,-0.005 -0.101097,-0.1053 -0.04455,-0.0777 -0.124738,-0.18277 -0.178198,-0.23342 -0.05343,-0.0507 -0.130808,-0.14415 -0.171901,-0.20779 -0.104246,-0.16146 -0.142702,-0.0723 -0.13508,0.31304 0.0051,0.27055 -0.02344,0.50025 -0.07256,0.57884 -0.02025,0.0324 -0.04713,0.018 -0.150596,-0.0806 -0.06929,-0.066 -0.168626,-0.15114 -0.220772,-0.18914 -0.05214,-0.038 -0.110572,-0.10719 -0.129821,-0.15361 -0.04938,-0.11922 -0.07376,-0.0453 -0.07609,0.23169 -0.0035,0.41312 0.194796,0.75432 0.387449,0.66654 0.06687,-0.0305 0.06687,-0.0305 -0.07274,-0.15264 -0.160352,-0.14027 -0.264033,-0.3353 -0.262223,-0.49325 8.61e-4,-0.1053 8.61e-4,-0.1053 0.05895,-0.0264 0.137878,0.1885 0.412959,0.40785 0.511479,0.40785 0.04895,0 0.146726,-0.56922 0.130659,-0.76081 -0.0087,-0.1026 -0.0069,-0.18643 0.0026,-0.18643 0.05576,0 0.33103,0.40188 0.374351,0.54645 0.02931,0.0979 0.03551,0.1026 0.113533,0.0867 0.09495,-0.0193 0.105206,-0.0631 0.138213,-0.59121 0.02043,-0.32629 0.01637,-0.32623 0.191832,-0.003 0.05489,0.10138 0.114831,0.25524 0.133147,0.34206 0.04688,0.222 0.114749,0.3478 0.127861,0.23687 0.01014,-0.0858 0.234517,-0.69523 0.270591,-0.73488 0.04826,-0.0531 0.110045,0.18662 0.129362,0.50224 0.02301,0.37596 0.04034,0.42207 0.104503,0.27866 0.02551,-0.0569 0.09723,-0.14397 0.159344,-0.19326 0.06214,-0.0493 0.159637,-0.13409 0.216713,-0.18829 0.05706,-0.0543 0.108315,-0.0987 0.113843,-0.0987 0.03715,0 8.45e-4,0.35743 -0.05343,0.52617 -0.0349,0.10854 -0.0877,0.28031 -0.117304,0.3816 -0.192281,0.65772 -0.499413,0.72216 -1.003271,0.2105 -0.286673,-0.29111 -0.39157,-0.356 -0.571234,-0.35336 -0.167979,0.003 -0.257897,0.0346 -0.172762,0.0616 0.169083,0.0538 0.205182,0.24489 0.09935,0.52604 -0.09372,0.24897 -0.09185,0.35667 0.0034,0.21256 0.169581,-0.25584 0.404158,-0.41659 0.404158,-0.27697 0,0.0283 0.02903,0.0944 0.06464,0.14669 0.07885,0.11612 0.166773,0.34559 0.204665,0.53393 0.02818,0.14005 0.02818,0.14005 0.07937,0.0592 0.09808,-0.15492 0.163541,0.0675 0.164015,0.55723 1.55e-4,0.15557 0.0026,0.28285 0.0061,0.28285 0.0034,0 0.03456,-0.0503 0.06998,-0.11179 z m -4.348232,-3.92169 c 0.04904,-0.0331 0.145443,-0.0876 0.214205,-0.12071 0.258878,-0.12503 0.316094,-0.24916 0.198994,-0.43166 -0.07885,-0.12287 -0.08109,-0.13261 -0.03679,-0.16502 0.131051,-0.0958 -0.24472,-0.0983 -0.381485,-0.003 -0.06023,0.0422 -0.129375,0.0318 -0.129375,-0.0195 0,-0.0199 -0.05704,-0.0326 -0.159688,-0.0354 -0.19522,-0.005 -0.261303,-0.0246 -0.261303,-0.076 0,-0.0216 0.01271,-0.0314 0.02827,-0.0218 0.01552,0.009 0.05403,-0.005 0.08548,-0.0353 0.03145,-0.0291 0.08093,-0.057 0.109883,-0.0622 0.03301,-0.005 0.05566,-0.0339 0.06076,-0.075 0.0043,-0.0361 0.03559,-0.0892 0.0692,-0.11814 0.09514,-0.0819 0.156492,-0.21919 0.118466,-0.26501 -0.04601,-0.0554 -0.05602,-0.0495 -0.151518,0.0906 -0.129456,0.18993 -0.275332,0.23821 -0.406934,0.13476 -0.08178,-0.0643 -0.08549,-0.0526 -0.113209,0.35313 -0.01784,0.26084 -0.01784,0.26084 0.07429,0.20393 0.124603,-0.0771 0.139402,-0.0731 0.188041,0.0484 0.04042,0.10097 0.04688,0.1053 0.160731,0.1053 0.136653,0 0.157052,0.0478 0.06309,0.1478 -0.167954,0.17877 0.06773,0.48057 0.268919,0.34437 z"
       id="path109"
       inkscape:connector-curvature="0" />
    <g
       aria-label="Games"
       style="font-style:normal;font-weight:normal;font-size:12.73499966px;line-height:1.25;font-family:sans-serif;letter-spacing:0px;word-spacing:0px;fill:#ffffff;fill-opacity:1;stroke:none;stroke-width:0.31837499"
       id="text117">
      <path
         d="m 80.375439,282.94493 c -0.86598,0 -1.42632,-1.057 -1.42632,-5.03032 0,-3.64221 0.56034,-4.77563 1.45179,-4.77563 0.496665,0 0.68769,0.24197 0.91692,0.70043 0.17829,0.34384 0.292905,0.7641 0.35658,1.33717 l 0.02547,0.0127 h 0.318375 c 0,-0.52214 0,-1.41359 0.01274,-1.94846 -0.343845,-0.30564 -0.853245,-0.57307 -1.57914,-0.57307 -1.591875,0 -2.839905,1.91025 -2.839905,5.50152 0,3.8205 1.260765,5.24682 2.67435,5.24682 0.624015,0 1.362645,-0.15282 1.88478,-0.39479 v -0.12735 l -0.01274,-0.0382 c -0.02547,-0.0509 -0.06368,-0.16556 -0.06368,-0.2547 0,-2.02487 0.01274,-2.61068 0.08915,-3.34931 0.03821,-0.33111 0.10188,-0.45846 0.22923,-0.53487 l 0.01274,-0.0255 v -0.20376 c -0.35658,0.0255 -0.725895,0.0255 -0.99333,0.0255 -0.267435,0 -0.573075,0 -0.929655,-0.0255 v 0.20376 l 0.01273,0.0255 c 0.20376,0.0764 0.35658,0.28017 0.40752,0.61128 0.06367,0.49667 0.07641,0.75137 0.07641,3.20922 0,0.2547 -0.33111,0.40752 -0.624015,0.40752 z"
         style="font-style:normal;font-variant:normal;font-weight:normal;font-stretch:normal;font-family:Ferrum;-inkscape-font-specification:Ferrum;stroke-width:0.31837499;fill:#ffffff"
         id="path821" />
      <path
         d="m 87.588224,283.07228 c -0.22923,-0.0891 -0.369315,-0.24196 -0.43299,-0.57307 -0.471195,-2.34324 -0.86598,-4.5464 -1.209825,-6.94058 h -0.114615 c -0.28017,0.28017 -0.53487,0.45846 -0.853245,0.64949 l -0.02547,0.0509 c -0.343845,2.21589 -0.751365,4.50819 -1.158885,6.24015 -0.07641,0.33111 -0.241965,0.49666 -0.471195,0.57307 l -0.01274,0.0255 v 0.19103 c 0.22923,-0.0255 0.369315,-0.0255 0.573075,-0.0255 0.20376,0 0.43299,0 0.66222,0.0255 v -0.19103 l -0.01274,-0.0255 c -0.165555,-0.0764 -0.216495,-0.24196 -0.165555,-0.57307 0.06368,-0.49667 0.20376,-1.43906 0.318375,-2.02487 0.165555,-0.0127 0.30564,-0.0255 0.48393,-0.0255 0.216495,0 0.43299,0.0127 0.598545,0.0255 0.12735,0.67496 0.267435,1.65555 0.33111,2.21589 0.02547,0.2165 -0.07641,0.33111 -0.28017,0.38205 l -0.01274,0.0255 v 0.19103 c 0.35658,-0.0255 0.573075,-0.0255 0.84051,-0.0255 0.267435,0 0.598545,0 0.955125,0.0255 v -0.19103 z m -2.39418,-2.95452 c -0.15282,0 -0.318375,-0.0127 -0.45846,-0.0255 0.140085,-1.0188 0.30564,-1.93572 0.53487,-2.85264 0.12735,0.7259 0.33111,2.02487 0.445725,2.85264 -0.165555,0.0127 -0.318375,0.0255 -0.522135,0.0255 z"
         style="font-style:normal;font-variant:normal;font-weight:normal;font-stretch:normal;font-family:Ferrum;-inkscape-font-specification:Ferrum;stroke-width:0.31837499;fill:#ffffff"
         id="path823" />
      <path
         d="m 91.181286,280.88186 c -0.86598,-3.0564 -1.17162,-4.35537 -1.24803,-5.00485 h -0.45846 c -0.267435,0 -0.5094,0 -0.86598,-0.0255 v 0.19102 l 0.01273,0.0255 c 0.20376,0.11462 0.2547,0.24197 0.30564,0.57308 0.05094,0.36931 0.08915,0.92965 0.08915,2.92905 0,1.99939 -0.0382,2.55973 -0.08915,2.92905 -0.05094,0.33111 -0.10188,0.47119 -0.30564,0.57307 l -0.01273,0.0255 v 0.19103 c 0.22923,-0.0255 0.43299,-0.0255 0.63675,-0.0255 0.20376,0 0.40752,0 0.63675,0.0255 v -0.19103 l -0.01274,-0.0255 c -0.20376,-0.10188 -0.2547,-0.24196 -0.30564,-0.57307 -0.05094,-0.36932 -0.08915,-0.91692 -0.08915,-2.92905 0,-0.85325 0,-1.28624 -0.02547,-1.79564 0.522135,1.84658 1.0188,3.93512 1.40085,5.62887 l 0.02547,0.0127 h 0.140085 l 0.02547,-0.0127 c 0.445725,-2.24136 1.082475,-5.00485 1.5282,-6.76228 -0.02547,0.36931 -0.03821,0.92965 -0.03821,2.92905 0,1.99939 -0.0382,2.55973 -0.08914,2.92905 -0.05094,0.33111 -0.10188,0.47119 -0.30564,0.57307 l -0.01273,0.0255 v 0.19103 c 0.35658,-0.0255 0.598545,-0.0255 0.86598,-0.0255 0.267435,0 0.5094,0 0.86598,0.0255 v -0.19103 l -0.01274,-0.0255 c -0.20376,-0.10188 -0.2547,-0.24196 -0.30564,-0.57307 -0.05094,-0.36932 -0.08915,-0.92966 -0.08915,-2.92905 0,-1.9994 0.03821,-2.55974 0.08915,-2.92905 0.05094,-0.33111 0.10188,-0.45846 0.30564,-0.57308 l 0.01274,-0.0255 v -0.19102 c -0.35658,0.0255 -0.598545,0.0255 -0.86598,0.0255 h -0.73863 c -0.140085,0.87871 -0.5094,2.72529 -1.06974,5.00485 z"
         style="font-style:normal;font-variant:normal;font-weight:normal;font-stretch:normal;font-family:Ferrum;-inkscape-font-specification:Ferrum;stroke-width:0.31837499;fill:#ffffff"
         id="path825" />
      <path
         d="m 96.278469,275.87701 c -0.267435,0 -0.5094,0 -0.86598,-0.0255 v 0.19102 l 0.01274,0.0255 c 0.20376,0.11462 0.2547,0.24197 0.30564,0.57308 0.05094,0.36931 0.08915,0.92965 0.08915,2.92905 0,1.99939 -0.03821,2.55973 -0.08915,2.92905 -0.05094,0.33111 -0.10188,0.47119 -0.30564,0.57307 l -0.01274,0.0255 v 0.19103 c 0.35658,-0.0255 0.598545,-0.0255 0.86598,-0.0255 0.84051,0 1.489995,0 2.24136,0.0255 0,-0.62402 0.03821,-1.32444 0.07641,-2.0376 h -0.241965 l -0.02547,0.0127 c -0.12735,0.59855 -0.216495,0.92966 -0.420255,1.22256 -0.22923,0.33111 -0.38205,0.39479 -0.66222,0.39479 -0.30564,0 -0.43299,-0.11462 -0.45846,-0.44573 -0.03821,-0.5094 -0.05094,-1.04427 -0.05094,-2.72529 h 0.165555 c 0.267435,0 0.420255,0.0764 0.547605,0.31838 0.12735,0.2547 0.17829,0.40752 0.216495,0.84051 l 0.02547,0.0127 h 0.241965 c -0.01274,-0.2929 -0.02547,-0.77683 -0.02547,-1.33717 0,-0.56034 0.01274,-1.04427 0.02547,-1.33718 h -0.241965 l -0.02547,0.0127 c -0.03821,0.43299 -0.08915,0.58581 -0.216495,0.84051 -0.12735,0.24196 -0.28017,0.31837 -0.547605,0.31837 h -0.165555 c 0,-2.8399 0.01273,-2.38144 0.05094,-3.12007 h 0.17829 c 0.496665,0 0.802305,0.11461 1.006065,0.47119 0.20376,0.34385 0.28017,0.64949 0.318375,1.14615 l 0.02547,0.0127 h 0.241965 c -0.03821,-0.71316 -0.07641,-1.55367 -0.07641,-2.0376 -0.78957,0.0255 -1.413585,0.0255 -2.203155,0.0255 z"
         style="font-style:normal;font-variant:normal;font-weight:normal;font-stretch:normal;font-family:Ferrum;-inkscape-font-specification:Ferrum;stroke-width:0.31837499;fill:#ffffff"
         id="path827" />
      <path
         d="m 101.48947,276.19538 c 0.26744,0 0.44573,0.12735 0.54761,0.29291 0.12735,0.20376 0.17829,0.38205 0.21649,0.87871 l 0.0255,0.0127 h 0.24197 c 0,-0.52214 0,-1.03154 0.0127,-1.34991 -0.19102,-0.16556 -0.58581,-0.28017 -0.98059,-0.28017 -0.89145,0 -1.5282,0.77683 -1.5282,1.93572 0,0.8023 0.30564,1.42632 0.86598,2.17768 0.63675,0.85325 0.77683,1.42632 0.77683,2.01213 0,0.73863 -0.17829,1.09521 -0.68769,1.09521 -0.22923,0 -0.42025,-0.14008 -0.52213,-0.31837 -0.12735,-0.20376 -0.19103,-0.43299 -0.24197,-0.85325 l -0.0255,-0.0127 h -0.241963 c 0,0.36931 -0.01274,1.03153 -0.02547,1.34991 0.267433,0.17829 0.649483,0.28017 1.031533,0.28017 0.99333,0 1.73196,-0.75137 1.73196,-2.12675 0,-0.64948 -0.30564,-1.33717 -1.057,-2.35597 -0.53487,-0.7259 -0.78957,-1.20983 -0.78957,-1.85931 0,-0.57308 0.28017,-0.87872 0.64948,-0.87872 z"
         style="font-style:normal;font-variant:normal;font-weight:normal;font-stretch:normal;font-family:Ferrum;-inkscape-font-specification:Ferrum;stroke-width:0.31837499;fill:#ffffff"
         id="path829" />
    </g>
    <path
       style="fill:#ffffff;stroke:#ffffff;stroke-width:0.3;stroke-linecap:butt;stroke-linejoin:miter;stroke-opacity:1;stroke-miterlimit:4;stroke-dasharray:none"
       d="M 2.7395127,284.89676 H 53.85481"
       id="path121"
       inkscape:connector-curvature="0" />
    <path
       style="fill:#ffffff;stroke:#ffffff;stroke-width:0.3;stroke-linecap:butt;stroke-linejoin:miter;stroke-opacity:1;stroke-miterlimit:4;stroke-dasharray:none"
       d="m 77.708614,285.03968 h 24.789246 v 0"
       id="path14"
       inkscape:connector-curvature="0" />
  </g>
</svg>
