<?xml version="1.0" encoding="UTF-8" standalone="no"?>
<svg
   xmlns:dc="http://purl.org/dc/elements/1.1/"
   xmlns:cc="http://creativecommons.org/ns#"
   xmlns:rdf="http://www.w3.org/1999/02/22-rdf-syntax-ns#"
   xmlns:svg="http://www.w3.org/2000/svg"
   xmlns="http://www.w3.org/2000/svg"
   id="svg8"
   version="1.1"
   viewBox="0 0 105.83333 39.687501"
   height="150"
   width="400">
  <defs
     id="defs2" />
  <metadata
     id="metadata5">
    <rdf:RDF>
      <cc:Work
         rdf:about="">
        <dc:format>image/svg+xml</dc:format>
        <dc:type
           rdf:resource="http://purl.org/dc/dcmitype/StillImage" />
        <dc:title></dc:title>
      </cc:Work>
    </rdf:RDF>
  </metadata>
  <g
     transform="translate(0,-257.31248)"
     id="layer1">
    <path
       d="m 17.991894,277.52597 q -0.374199,-0.4451 -0.746732,-1.16622 -0.365404,-0.73003 -0.425303,-1.26698 l -0.819775,-7.3488 q -0.132311,-1.18607 0.839649,-2.21944 0.971063,-1.04141 2.469676,-1.20859 l 4.295482,-0.47915 q 2.21987,-0.24764 3.854302,0.65727 1.642445,0.90401 2.578195,2.60087 0.935744,1.69685 1.170859,3.8045 0.144197,1.87441 -0.474803,3.67171 -0.611873,1.78834 -2.052059,3.20664 -1.441077,1.41024 -3.674964,2.18685 -0.613454,0.24678 -0.929367,0.68783 -0.307916,0.44003 -0.20779,1.33758 l 0.150187,1.34635 q 0.17075,1.53067 -0.687258,2.49455 -0.849989,0.963 -2.132222,1.10604 -1.234153,0.13767 -2.221114,-0.5636 -0.979843,-0.71021 -1.140755,-2.15268 l -0.515826,-4.62407 q -0.0599,-0.53695 0.152627,-1.2503 0.220522,-0.71427 0.517009,-0.82036 z m 7.290866,-9.12173 q -1.092805,-0.4136 -2.326953,-0.27593 -0.689201,0.0769 -1.106781,0.18844 -0.599234,0.15606 -0.818963,0.65928 -0.211726,0.50236 -0.154514,1.01524 l 0.541753,4.85647 q 0.17075,1.53066 -0.584193,1.96376 -0.360628,0.0403 -0.386544,-0.1921 -0.01609,-0.1443 0.135216,-0.31527 0.25818,-0.15855 0.282088,-0.45338 0.03102,-0.30368 -0.04674,-1.00087 l -0.527449,-4.72826 q -0.118003,-1.05785 0.407981,-1.72504 0.525989,-0.66717 2.289062,-0.86384 1.338332,-0.1493 2.580813,0.44231 0.06767,0.0249 0.08199,0.1532 0.02592,0.23231 -0.366773,0.27611 z m -3.934942,16.58519 q -0.392685,0.0438 -0.424862,-0.24465 -0.03041,-0.27263 0.3204,-0.40084 0.468303,-0.23879 0.345817,-1.33679 -0.261038,-2.34005 0.415199,-3.55142 0.684256,-1.21224 2.25662,-1.73653 1.467332,-0.44756 2.551473,-1.49357 1.091272,-1.0548 1.604459,-2.49139 0.521196,-1.43746 0.351341,-2.9601 -0.11353,-1.01777 -0.523582,-2.00248 -0.059,-0.52893 0.109292,-0.5477 0.248439,-0.0277 0.397284,0.28834 0.534829,1.23042 0.659985,2.35237 0.191313,1.715 -0.442054,3.23798 -0.62534,1.52213 -1.834143,2.6144 -1.208802,1.09225 -2.676093,1.61293 -0.792425,0.24252 -1.323007,0.57761 -0.52345,0.32625 -0.87748,1.22568 -0.354019,0.89956 -0.16986,2.55046 0.0885,0.79334 -0.02611,1.36598 -0.106616,0.57173 -0.714651,0.93976 z m 1.39959,-14.87436 0.475594,4.26341 q 1.127068,-0.66122 1.553275,-1.42279 0.425319,-0.76956 0.287648,-2.00368 -0.117842,-0.69277 -0.676243,-0.82521 -0.558385,-0.13239 -1.640272,-0.0115 z m -4.773551,4.84896 q 0.133204,1.1941 0.848552,1.86075 0.714457,0.65866 1.515852,0.56925 0.681186,-0.076 1.091435,-0.6897 0.418259,-0.61461 0.298463,-1.68852 l -0.464866,-4.16723 q -0.106388,-0.95368 0.01453,-1.39719 0.128916,-0.44437 0.533138,-0.60309 0.411348,-0.16741 1.365011,-0.27379 2.949141,-0.32898 3.281701,2.65221 0.114621,1.46388 -0.483337,2.50424 -0.590828,1.03144 -2.129129,2.07932 -0.429913,0.4374 -0.918572,0.93007 -0.480646,0.49175 -1.035241,0.90249 -0.554595,0.41076 -1.172527,0.54462 -0.657148,0.0733 -1.504082,-0.10006 -0.728264,0.30859 -0.573623,1.69485 l 0.479172,4.29548 q 0.08135,0.72926 0.627383,1.1146 0.554049,0.38445 1.227221,0.30935 0.745302,-0.083 1.230353,-0.68086 0.485053,-0.59772 0.374201,-1.59144 l -0.15019,-1.34635 q -0.129627,-1.16205 0.286781,-1.93871 0.424423,-0.77761 1.594337,-1.20017 2.010419,-0.67053 3.301946,-1.96676 1.299541,-1.29709 1.826896,-2.89755 0.526469,-1.60844 0.346781,-3.21922 -0.151085,-1.35439 -0.814133,-2.57051 -1.953424,-3.40078 -5.094897,-3.05034 l -4.431721,0.49437 q -0.969692,0.10822 -1.650561,0.91434 -0.680866,0.80622 -0.593259,1.59157 z"
       style="font-style:normal;font-variant:normal;font-weight:normal;font-stretch:normal;font-size:medium;line-height:1.25;font-family:QuickSilver;-inkscape-font-specification:QuickSilver;letter-spacing:0px;word-spacing:0px;fill:#ffffff;fill-opacity:1;stroke:none;stroke-width:0.82572013"
       id="path819" />
    <path
       d="m 40.880006,273.89094 -1.298906,9.82288 q -0.145388,1.0995 -0.911274,2.04959 -0.75926,0.95099 -1.937122,1.44896 -1.171236,0.49884 -2.515837,0.32106 -0.331182,-0.0439 -0.991906,-0.24575 -0.314937,-0.11569 -0.293034,-0.28131 0.01838,-0.13919 0.342964,-0.0963 0.350295,0.1541 0.913307,0.22854 1.046537,0.1384 2.143765,-0.20852 1.10473,-0.35265 1.905589,-1.21049 0.801736,-0.86444 0.973408,-2.1627 l 1.28489,-9.71689 q 0.021,-0.15896 0.18662,-0.13705 0.218589,0.0289 0.197573,0.18785 z M 30.2641,271.30102 q 0.141022,-1.06642 0.947571,-1.55958 0.807427,-0.49977 1.81422,-0.36663 0.9803,0.12966 1.615952,0.82697 0.642274,0.69823 0.496884,1.79774 l -1.313793,9.93546 q -0.112116,0.84784 0.190001,1.3663 0.30874,0.51931 0.81876,0.58676 0.437157,0.0578 0.811644,-0.27682 0.37448,-0.33462 0.464697,-1.01687 l 1.338314,-10.12091 q 0.152402,-1.15255 0.967718,-1.71194 0.82281,-0.56513 1.803109,-0.43551 1.006792,0.13318 1.668175,0.94171 0.668002,0.80945 0.499837,2.08119 l -1.424156,10.77008 q -0.183931,1.39094 -1.188426,2.56558 -1.004499,1.17463 -2.519567,1.7763 -1.508439,0.60253 -3.108241,0.41792 -1.728774,-0.22857 -3.022624,-1.24888 -1.286361,-1.02599 -1.888398,-2.48721 -0.608664,-1.46206 -0.417728,-2.906 z m 2.980042,1.06127 q 0.04729,-0.35768 0.285755,-0.32615 0.192074,0.0255 0.144787,0.38308 l -1.248104,9.43869 q -0.22247,1.68241 0.461517,2.57486 0.04598,0.06 0.03195,0.16595 -0.02894,0.21867 -0.221,0.19325 -0.139069,-0.0188 -0.197945,-0.13393 -0.432834,-0.54923 -0.544723,-1.13013 -0.111022,-0.58755 0.02911,-1.64733 z m -1.918064,-0.52995 -1.395252,10.55149 q -0.158533,1.19887 0.343442,2.39746 0.50947,1.19287 1.571773,2.02749 1.063177,0.82802 2.493887,1.01719 0.93341,0.0767 1.865183,-0.19137 0.938375,-0.26685 1.713941,-0.83147 0.782196,-0.56379 1.283347,-1.34669 0.502034,-0.78953 0.623779,-1.71023 l 1.388243,-10.49848 q 0.109483,-0.82795 -0.221756,-1.33005 -0.330359,-0.5087 -0.88012,-0.5814 -0.549765,-0.0727 -1.017748,0.35741 -0.4671,0.42345 -0.583594,1.30442 l -1.288393,9.74338 q -0.17167,1.29824 -0.94626,1.9574 -0.767959,0.65999 -1.675397,0.53999 -0.920688,-0.12172 -1.490704,-0.95867 -0.562514,-0.84267 -0.384712,-2.1873 l 1.324301,-10.01493 q 0.09722,-0.73524 -0.233524,-1.19008 -0.330746,-0.45484 -0.86064,-0.52489 -0.576254,-0.0762 -1.052227,0.31238 -0.475968,0.38859 -0.577569,1.15695 z"
       style="font-style:normal;font-variant:normal;font-weight:normal;font-stretch:normal;font-size:medium;line-height:1.25;font-family:QuickSilver;-inkscape-font-specification:QuickSilver;letter-spacing:0px;word-spacing:0px;fill:#ffffff;fill-opacity:1;stroke:none;stroke-width:0.68416595"
       id="path821" />
    <path
       d="m 47.454232,269.49578 -2.667514,-0.25 q -1.024434,-0.096 -1.575132,-0.87905 -0.550078,-0.7897 -0.45968,-1.75428 0.09414,-1.00447 0.826059,-1.65391 0.738574,-0.64882 1.98918,-0.53162 l 6.31955,0.59225 q 1.190736,0.11159 1.774279,0.83064 0.584166,0.71237 0.492524,1.69022 -0.07232,0.77169 -0.546051,1.45871 l -6.100135,9.02447 3.924775,0.36781 q 0.811564,0.0761 1.34042,0.44773 0.536134,0.36565 0.759623,0.91671 0.223489,0.5511 0.166758,1.15645 -0.09413,1.00447 -0.812338,1.7223 -0.718197,0.71782 -1.795848,0.61683 l -8.341807,-0.78177 q -0.89139,-0.0835 -1.525655,-0.83416 -0.634266,-0.75064 -0.538261,-1.77506 0.07169,-0.765 0.614028,-1.53958 z m 2.003305,-0.82553 -7.207668,10.31645 q -0.317625,0.45339 -0.364382,0.9523 -0.05486,0.58539 0.240965,1.00904 0.29645,0.41698 0.835277,0.46747 l 8.115634,0.76058 q 0.532174,0.0499 0.917984,-0.34343 0.392462,-0.3927 0.445452,-0.95813 0.04924,-0.52552 -0.269647,-0.91778 -0.318279,-0.39891 -1.030058,-0.46561 l -5.694249,-0.53365 7.313679,-10.58837 q 0.153633,-0.20713 0.194149,-0.63946 0.05549,-0.59205 -0.315805,-1.06972 -0.371289,-0.47769 -1.315895,-0.56622 l -5.860553,-0.54924 q -0.731737,-0.0685 -1.124619,0.257 -0.386227,0.32614 -0.436102,0.85833 -0.04987,0.53216 0.240966,1.00904 0.291464,0.4702 0.74381,0.51259 z m -6.069061,11.98673 7.576813,0.71006 q 0.485607,0.0455 0.607621,-0.32555 0.03055,-0.32596 0.24341,-0.30602 0.27274,0.0255 0.237204,0.40475 -0.111624,0.33176 -0.383104,0.50765 -0.271493,0.17583 -0.61074,0.14403 l -7.763072,-0.72753 q -0.272739,-0.0255 -0.257152,-0.19187 0.008,-0.0865 0.102066,-0.15822 0.100595,-0.0712 0.246966,-0.0574 z m 8.900785,-12.27164 -7.09957,10.38027 q -0.03825,0.0502 -0.144688,0.0401 -0.246124,-0.0231 -0.22868,-0.20922 0.0075,-0.0799 0.0688,-0.16133 l 7.03056,-10.14514 q 0.09063,-0.17954 0.263594,-0.16333 0.133053,0.0125 0.109986,0.25859 z m -6.834483,-0.96931 3.924774,0.36782 q 0.379174,0.0355 0.359221,0.24844 -0.02058,0.21961 -0.399755,0.18408 l -3.871556,-0.36283 q -0.272739,-0.0255 -0.252157,-0.24517 0.01994,-0.21291 0.239483,-0.19234 z"
       style="font-style:normal;font-variant:normal;font-weight:normal;font-stretch:normal;font-size:medium;line-height:1.25;font-family:QuickSilver;-inkscape-font-specification:QuickSilver;letter-spacing:0px;word-spacing:0px;fill:#ffffff;fill-opacity:1;stroke:none;stroke-width:0.68416595"
       id="path823" />
    <path
       d="m 56.232555,275.46385 -2.675443,-0.14201 q -1.027473,-0.0545 -1.609369,-0.81468 -0.58154,-0.76682 -0.530196,-1.73427 0.05347,-1.00745 0.758545,-1.68593 0.711753,-0.67814 1.966073,-0.61157 l 6.338323,0.33637 q 1.194274,0.0634 1.806395,0.75825 0.612478,0.6882 0.560427,1.66895 -0.04108,0.77398 -0.486658,1.47959 l -5.730458,9.26361 3.936434,0.20892 q 0.813975,0.0432 1.35742,0.39318 0.550471,0.34368 0.796048,0.88528 0.245573,0.54159 0.213351,1.14874 -0.05347,1.00746 -0.742068,1.75375 -0.688607,0.74624 -1.769454,0.68887 l -8.366587,-0.44402 q -0.894037,-0.0474 -1.558121,-0.77182 -0.664081,-0.72439 -0.609551,-1.75186 0.04073,-0.76726 0.551305,-1.56313 z m 1.968305,-0.90582 -6.784879,10.5993 q -0.299042,0.46585 -0.325598,0.96624 -0.03115,0.58712 0.281544,0.99847 0.313061,0.40466 0.853486,0.43335 l 8.139742,0.43198 q 0.533754,0.0284 0.903352,-0.38024 0.376275,-0.40823 0.406372,-0.97534 0.02797,-0.52709 -0.306519,-0.90614 -0.334137,-0.38572 -1.048032,-0.42361 l -5.711162,-0.3031 6.87981,-10.87528 q 0.145138,-0.21317 0.16815,-0.64678 0.03152,-0.5938 -0.358777,-1.05607 -0.39029,-0.46231 -1.337703,-0.51259 l -5.87796,-0.31196 q -0.733911,-0.039 -1.113316,0.30222 -0.372731,0.3415 -0.401059,0.87527 -0.02833,0.53374 0.281545,0.99847 0.310227,0.45805 0.763918,0.48213 z m -5.5797,12.22219 7.599316,0.4033 q 0.487051,0.0258 0.593966,-0.34985 0.01735,-0.32693 0.230848,-0.3156 0.273545,0.0145 0.253362,0.39483 -0.09813,0.33601 -0.362276,0.52271 -0.264166,0.18667 -0.604422,0.16861 L 52.545836,287.191 q -0.273553,-0.0145 -0.264698,-0.18132 0.0046,-0.0869 0.09557,-0.16221 0.09765,-0.0752 0.244448,-0.0672 z m 8.397597,-12.6213 -6.674287,10.65869 q -0.03619,0.0516 -0.142944,0.046 -0.246857,-0.0131 -0.23695,-0.1998 0.0043,-0.0801 0.06222,-0.16398 l 6.614838,-10.42098 q 0.08331,-0.18305 0.256778,-0.17383 0.133454,0.007 0.120347,0.25392 z m -6.868071,-0.69233 3.936432,0.20892 q 0.3803,0.0202 0.368968,0.23372 -0.01169,0.22026 -0.391989,0.20007 l -3.883058,-0.20606 q -0.273549,-0.0145 -0.26186,-0.2348 0.01133,-0.21354 0.231516,-0.20185 z"
       style="font-style:normal;font-variant:normal;font-weight:normal;font-stretch:normal;font-size:medium;line-height:1.25;font-family:QuickSilver;-inkscape-font-specification:QuickSilver;letter-spacing:0px;word-spacing:0px;fill:#ffffff;fill-opacity:1;stroke:none;stroke-width:0.68416595"
       id="path825" />
    <path
       d="m 61.67606,276.56476 q -0.04407,-0.94774 0.28529,-1.6319 0.336037,-0.68447 0.901161,-1.04518 0.571492,-0.36771 1.218878,-0.39782 1.007788,-0.0469 1.782757,0.65283 0.774968,0.69973 0.836423,2.02117 l 0.489478,10.52507 q 0.02669,0.57397 0.654058,0.54478 l 1.668522,-0.0775 q 1.248057,-0.058 1.969942,0.6508 0.721572,0.70218 0.76875,1.71665 0.04501,0.96774 -0.549457,1.70437 -0.588099,0.72964 -1.716021,0.78211 l -5.11236,0.23774 q -1.134594,0.0528 -1.839559,-0.72375 -0.698294,-0.77683 -0.745162,-1.78463 z m 1.166882,-0.22149 0.612701,13.17468 q 0.036,0.77418 0.323763,1.20891 0.294433,0.43445 1.315571,0.38697 l 4.64517,-0.21604 q 0.65406,-0.0303 1.002513,-0.44793 0.355127,-0.41782 0.328745,-0.98511 -0.02421,-0.52058 -0.374987,-0.87214 -0.350777,-0.35155 -0.998163,-0.32144 l -2.596223,0.12074 q -0.634039,0.0295 -0.837985,-0.3289 -0.203954,-0.3584 -0.21699,-0.6387 L 65.52592,276.2185 q -0.036,-0.7742 -0.44933,-1.17634 -0.406652,-0.40247 -0.940581,-0.37764 -0.55395,0.0257 -0.941203,0.47183 -0.387254,0.44609 -0.351871,1.20692 z m 1.874798,0.18704 q -0.02049,-0.44049 0.226454,-0.45196 0.240271,-0.0112 0.26324,0.4827 l 0.533863,11.47944 q 0.01676,0.36041 -0.223513,0.37159 -0.246938,0.0115 -0.266183,-0.40232 z m 0.396181,13.84022 4.725257,-0.21975 q 0.246937,-0.0115 0.387562,-0.15186 0.146988,-0.14739 0.137059,-0.36086 0.03351,-0.1421 0.160317,-0.148 0.220256,-0.0105 0.23174,0.23668 -0.05603,0.37715 -0.326412,0.60379 -0.270691,0.21993 -0.624418,0.23638 l -4.725259,0.21975 q -0.300335,0.0139 -0.308096,-0.15289 -0.01148,-0.24694 0.342245,-0.26339 z"
       style="font-style:normal;font-variant:normal;font-weight:normal;font-stretch:normal;font-size:medium;line-height:1.25;font-family:QuickSilver;-inkscape-font-specification:QuickSilver;letter-spacing:0px;word-spacing:0px;fill:#ffffff;fill-opacity:1;stroke:none;stroke-width:0.68416595"
       id="path827" />
    <path
       d="m 70.498654,274.8157 -1.808551,-2.09718 q -0.78683,-0.89752 -0.613554,-2.15508 0.09394,-0.68175 0.479568,-1.22887 0.38563,-0.54712 1.050422,-0.81969 0.671413,-0.2717 1.564948,-0.14858 l 6.936474,0.95576 q 1.125191,0.15504 1.70478,0.99028 0.586209,0.83617 0.446676,1.84882 -0.146832,1.06563 -1.07335,1.72033 -0.919898,0.65558 -2.508402,0.4367 l 1.842346,2.24348 q 0.64075,0.78296 0.484798,1.91478 -0.148656,1.07886 -0.961508,1.78967 -0.81194,0.70421 -2.069506,0.53093 l -3.276294,-0.45144 -0.328315,2.38274 4.433892,0.66496 q 1.045767,0.14409 1.557343,0.98346 0.519111,0.83365 0.38231,1.82647 -0.142266,1.03251 -0.918616,1.67419 -0.775435,0.63504 -2.059476,0.45811 l -6.996045,-0.96397 q -2.329808,-0.32103 -1.978691,-2.86925 l 1.023257,-7.42626 q 0.127679,-0.92664 0.772563,-1.59317 0.652414,-0.67222 1.912921,-0.66713 z m -1.298168,11.42828 6.837194,0.94209 q 0.64202,0.0884 1.084274,-0.28223 0.442258,-0.37072 0.519776,-0.9333 0.07752,-0.56261 -0.251651,-1.01262 -0.329169,-0.45001 -1.030759,-0.54669 l -4.143352,-0.5709 q -1.224472,-0.16872 -1.094055,-1.11522 l 0.351116,-2.54822 q 0.153214,-1.11195 1.212216,-0.96603 l 3.143918,0.4332 q 0.655259,0.0903 1.218243,-0.32449 0.569604,-0.41387 0.6608,-1.07572 0.105795,-0.76782 -0.570552,-1.48821 l -3.680089,-4.12883 3.574139,0.49247 q 0.873677,0.12039 1.41522,-0.23666 0.548154,-0.3561 0.629321,-0.94518 0.07296,-0.5295 -0.286334,-0.95669 -0.35267,-0.4263 -1.113831,-0.53117 l -6.340784,-0.87369 q -0.920009,-0.12677 -1.449454,0.19145 -0.529451,0.31825 -0.610619,0.90731 -0.122205,0.88691 0.688362,1.80795 l 3.694917,4.07015 -3.117441,-0.42955 q -0.635404,-0.0876 -1.041594,0.3151 -0.406193,0.40266 -0.476418,0.91232 l -0.963977,6.99603 q -0.101225,0.73468 0.06956,1.2573 0.171706,0.516 1.071852,0.64003 z m 0.304117,-0.78766 6.578375,0.96043 q 0.178699,0.0246 0.403057,-0.0862 0.231842,-0.11631 0.296872,-0.34352 0.0137,-0.0994 0.119999,-0.18574 0.106347,-0.0867 0.218888,-0.0712 0.132384,0.0182 0.08405,0.36905 -0.130502,0.35969 -0.511152,0.57701 -0.38066,0.21736 -0.671886,0.17722 l -6.585679,-0.90743 q -0.297843,-0.041 -0.264102,-0.28593 0.03375,-0.24489 0.331589,-0.20384 z m 1.210879,-2.3758 q -0.07843,0.56922 -0.29686,0.53912 -0.211796,-0.0293 -0.133364,-0.5984 l 0.470589,-3.41529 q 0.0839,-0.60892 0.590523,-0.95728 0.507532,-0.35496 1.043652,-0.28109 l 3.607915,0.44312 q 0.218429,0.03 0.488605,-0.16865 0.270191,-0.19874 0.343651,-0.43825 0.113175,-0.23396 0.252175,-0.21481 0.218429,0.03 0.169179,0.38753 -0.05654,0.41035 -0.474856,0.65623 -0.417392,0.23921 -0.774806,0.18997 l -3.448379,-0.47515 q -0.416984,-0.0575 -0.859034,0.16491 -0.43452,0.21665 -0.512041,0.77926 z m 3.439083,-7.28899 q 0.06849,0.0903 0.05663,0.17643 -0.02555,0.18547 -0.217496,0.15902 -0.08604,-0.0119 -0.253122,-0.16984 l -1.56269,-1.67885 q -0.147232,-0.15525 -0.128087,-0.29419 0.02643,-0.19187 0.244868,-0.16178 0.112532,0.0154 0.202925,0.14261 z m -1.255242,-3.12701 q 0.142425,0.14106 0.11416,0.34621 -0.0228,0.16549 -0.155189,0.14726 -0.09265,-0.0129 -0.275041,-0.20655 l -0.698259,-0.75716 q -0.08948,-0.13377 -0.07216,-0.25949 0.03739,-0.27135 0.467609,-0.21207 l 5.175881,0.71317 q 0.211795,0.0292 0.459641,-0.10528 0.254448,-0.13356 0.349828,-0.33624 0.07344,-0.23942 0.225686,-0.21844 0.05956,0.009 0.110042,0.0824 0.05801,0.0684 0.04888,0.13483 -0.0611,0.44347 -0.463441,0.6713 -0.402338,0.22782 -0.892126,0.16034 l -4.825088,-0.66479 z"
       style="font-style:normal;font-variant:normal;font-weight:normal;font-stretch:normal;font-size:medium;line-height:1.25;font-family:QuickSilver;-inkscape-font-specification:QuickSilver;letter-spacing:0px;word-spacing:0px;fill:#ffffff;fill-opacity:1;stroke:none;stroke-width:0.68416595"
       id="path829" />
    <path
       d="m 79.456603,280.22074 q -1.218484,-1.32749 -1.411309,-2.85206 -0.179406,-1.41847 0.534354,-2.96342 0.604667,-1.34257 1.989086,-2.16416 1.383572,-0.82828 2.934644,-1.02445 0.649592,-0.0822 1.342474,-0.035 1.776228,0.19963 2.717052,0.92918 0.939988,0.72292 1.058197,1.65755 0.116531,0.92135 -0.527932,1.68307 -0.638668,0.75423 -1.739,0.8934 -0.974389,0.12324 -2.024153,-0.29623 -0.312615,-0.12883 -0.670555,-0.0835 -0.67108,0.12524 -0.60736,0.62903 0.05197,0.41098 0.543716,0.62492 0.532428,0.26937 1.289311,0.44978 0.763503,0.17952 1.618213,0.38795 0.860499,0.20096 1.48161,0.47933 1.474383,0.63513 2.272441,1.78007 0.797227,1.13836 0.976632,2.55683 0.161805,1.27931 -0.166219,2.51954 -0.322237,1.23277 -1.034421,2.1512 -0.889165,1.16979 -2.207457,1.87527 -1.312495,0.69805 -2.790651,0.885 -2.114492,0.26745 -3.994288,-0.4848 -1.873163,-0.75306 -2.646936,-2.2917 -0.523618,-1.05169 -0.666139,-2.17854 -0.358821,-2.837 1.728696,-5.12811 z m 0.809094,0.75297 q -0.82762,0.75118 -1.167464,1.84475 -0.339837,1.09357 -0.197317,2.22041 0.153422,1.21304 0.778066,2.21154 0.631274,0.99768 1.558373,1.40572 1.744786,0.80297 3.660422,0.56069 1.385356,-0.17522 2.560252,-0.89626 1.174065,-0.72764 1.875193,-1.83998 0.70776,-1.11318 0.761422,-2.39279 0.01835,-0.49394 -0.0437,-0.98445 -0.391512,-3.0955 -3.667797,-3.9203 -0.460128,-0.12372 -1.124116,-0.26189 -0.657386,-0.13918 -1.14568,-0.27261 -0.489143,-0.14015 -0.961002,-0.35663 -1.127707,-0.45 -1.266876,-1.55034 -0.08635,-0.68273 0.359573,-1.20381 0.451707,-0.52855 1.445982,-0.6543 0.522892,-0.019 1.985455,0.46947 0.215553,0.0536 0.447543,0.0242 0.536911,-0.0679 0.941541,-0.48947 0.403789,-0.4282 0.339237,-0.93859 -0.0981,-0.77553 -1.295512,-1.29754 -1.183329,-0.51707 -2.661484,-0.33011 -1.358845,0.17187 -2.469896,0.91849 -1.104417,0.74581 -1.549319,1.96716 -0.346624,0.98666 -0.213325,2.04059 0.220487,1.74329 1.666306,2.6851 0.08961,0.0695 0.19567,0.0562 0.112697,-0.0143 0.102634,-0.0937 -0.005,-0.0398 -0.107131,-0.15483 -0.03325,-0.0498 -0.160999,-0.15478 -0.127768,-0.10511 -0.151852,-0.13563 -0.04108,-0.3248 0.151143,-0.34911 0.112698,-0.0143 0.202287,0.0553 0.808176,0.69246 1.716984,1.06238 0.907974,0.36333 2.276586,0.64143 0.197251,0.0154 0.212343,0.13474 0.03102,0.24526 -0.214233,0.27628 -0.380403,-0.0258 -0.650668,-0.0861 -0.270264,-0.0603 -0.743623,-0.18207 -0.46757,-0.12931 -0.620112,-0.16397 -0.101856,0.0465 -0.09265,0.11942 0.02096,0.16572 0.186759,0.19871 0.871245,0.17942 1.328004,0.27651 0.463383,0.0962 1.049609,0.31175 0.586215,0.21542 1.064096,0.58601 0.477042,0.36394 0.649326,0.87416 0.08733,0.2113 0.135101,0.58903 0.140844,1.11357 -0.629559,1.89121 -0.763772,0.7768 -1.772066,0.95145 -1.113589,0.14084 -2.15093,-0.28691 -1.031558,-0.43524 -1.173241,-1.55545 -0.07461,-0.58993 0.182723,-1.43063 0.0626,-0.25031 0.333682,-0.76953 0.27769,-0.52002 0.326215,-0.77532 0.07336,-0.27193 0.0373,-0.55695 -0.057,-0.45074 -0.340825,-0.72464 -0.283812,-0.27388 -0.741184,-0.21604 -0.556793,0.0705 -1.217263,0.65231 z m 1.268235,-4.3493 q 0.02479,0.51544 -0.12105,0.53387 -0.0928,0.0118 -0.204036,-0.12223 -0.105443,-0.14149 -0.13228,-0.35367 -0.02481,-1.10131 0.61562,-1.78844 0.647055,-0.68794 1.621445,-0.81118 0.470626,-0.0595 0.941482,0.0426 0.214706,0.0469 0.751923,0.19448 0.536387,0.14093 0.819893,0.19937 0.283521,0.0585 0.416089,0.0417 0.291654,-0.0369 0.344293,-0.31292 0.01894,-0.063 0.09849,-0.0731 0.192224,-0.0242 0.233306,0.30049 -0.209811,0.471 -0.680434,0.53053 -0.374547,0.0205 -1.049373,-0.15012 -0.675659,-0.1772 -1.05448,-0.24377 -0.378816,-0.0666 -1.001895,0.0123 -0.709251,0.0896 -1.184723,0.8031 -0.476312,0.70676 -0.414274,1.19725 z m 2.09723,11.78956 q 0.676336,0.0761 1.299417,-0.003 1.259415,-0.15929 2.309208,-0.85777 1.056424,-0.69931 1.55962,-1.72597 0.607258,-1.26884 0.432878,-2.64756 -0.237255,-1.87586 -1.719334,-2.67839 -0.115262,-0.0594 -0.127017,-0.15231 -0.01091,-0.0863 0.119925,-0.17001 0.137453,-0.0845 0.230269,-0.0963 1.760034,1.03003 2.002318,2.94565 0.181087,1.43176 -0.468224,2.84732 -0.488027,1.19986 -1.680216,1.99716 -1.18556,0.79648 -2.710115,0.98931 -0.70925,0.0896 -1.293551,0.0491 -0.383707,9.9e-4 -0.418905,-0.27701 -0.02012,-0.15907 0.463763,-0.22027 z m -1.049286,-1.80008 q 0.149353,0.11586 0.166949,0.25497 0.02346,0.18549 -0.142264,0.20645 -0.08617,0.0109 -0.281917,-0.0991 -0.715063,-0.48873 -1.024949,-1.02197 -0.304087,-0.5407 -0.418105,-1.44218 -0.02274,-0.34058 0.08096,-0.74432 0.109621,-0.41119 0.338323,-0.99908 0.228699,-0.58791 0.334286,-0.92452 0.104736,-0.34323 0.0712,-0.60837 -0.04527,-0.35795 0.08731,-0.37472 0.258511,-0.0327 0.429725,0.30933 0.04023,0.31816 -0.08682,0.6979 -0.121292,0.37228 -0.36659,0.93536 -0.245308,0.56304 -0.351652,0.94689 -0.110395,0.45843 -0.04165,1.00196 0.175218,1.38536 1.205178,1.86122 z m 0.877388,-4.13824 q -0.634926,1.05008 -0.522588,1.93828 0.08384,0.66288 0.670967,0.93879 0.461954,0.24466 1.177834,0.15411 0.66948,-0.0847 1.103973,-0.4831 0.440284,-0.40589 0.354772,-1.08199 -0.125362,-0.72496 -0.862513,-1.01559 -0.737987,-0.29727 -1.922445,-0.4505 z"
       style="font-style:normal;font-variant:normal;font-weight:normal;font-stretch:normal;font-size:medium;line-height:1.25;font-family:QuickSilver;-inkscape-font-specification:QuickSilver;letter-spacing:0px;word-spacing:0px;fill:#ffffff;fill-opacity:1;stroke:none;stroke-width:0.68416595"
       id="path831" />
  </g>
</svg>
