<?xml version="1.0" encoding="utf-8"?>
<!-- Generator: Adobe Illustrator 21.1.0, SVG Export Plug-In . SVG Version: 6.00 Build 0)  -->
<svg version="1.0"
	 id="Layer_1" inkscape:version="0.92.2 (unknown)" sodipodi:docname="3do.svg" xmlns:cc="http://creativecommons.org/ns#" xmlns:dc="http://purl.org/dc/elements/1.1/" xmlns:inkscape="http://www.inkscape.org/namespaces/inkscape" xmlns:rdf="http://www.w3.org/1999/02/22-rdf-syntax-ns#" xmlns:sodipodi="http://sodipodi.sourceforge.net/DTD/sodipodi-0.dtd" xmlns:svg="http://www.w3.org/2000/svg"
	 xmlns="http://www.w3.org/2000/svg" xmlns:xlink="http://www.w3.org/1999/xlink" x="0px" y="0px" width="313.4px" height="95.6px"
	 viewBox="0 0 313.4 95.6" enable-background="new 0 0 313.4 95.6" xml:space="preserve">
<sodipodi:namedview  bordercolor="#666666" borderopacity="1" fit-margin-bottom="0" fit-margin-left="0" fit-margin-right="0" fit-margin-top="0" gridtolerance="10" guidetolerance="10" id="namedview21" inkscape:current-layer="Layer_1" inkscape:cx="157.25" inkscape:cy="47.250001" inkscape:pagecheckerboard="true" inkscape:pageopacity="0" inkscape:pageshadow="2" inkscape:window-height="1055" inkscape:window-maximized="1" inkscape:window-width="1920" inkscape:window-x="0" inkscape:window-y="0" inkscape:zoom="0.58848891" objecttolerance="10" pagecolor="#ffffff" showgrid="false">
	</sodipodi:namedview>
<title  id="title2">3DO Logo</title>
<g>
	<g>
		<path fill-rule="evenodd" clip-rule="evenodd" fill="#FFFFFF" d="M65.5,10.5l-27,1l-3-5l-15,15h31l-12,13l4,3l1,29l-4,4h7l-8,8
			h-19l10,11h14l49-49L65.5,10.5z M55.5,22.5h2l19,19l-21,21V22.5z M151.5,51.5l18-22l-9-8h-33l4,4l-1,33l-20-37h-20l10,11l-17,37
			h14l19-9l2,5l-4,4h31l-4-4v-14H151.5z M141.5,31.5h12l-9,9h-3V31.5z M102.5,54.5l5-9l4,3L102.5,54.5z M282.5,58.5h-10l-6-5v-3h8
			l4,4l10-20l-7,6h-16l7-9h7l1,4l7-15h-21l-19,20v-15l3-4h-18l4,3v17l-12-20h-12v45l-4,2l-3-2v-42l4-4h-18l4,4v16h-14v-15l5-5h-19
			l4,5v41l-4,3h18l-4-4v-15h14v16l-4,4h35l-3-5v-21l13,26h11v-20l20,19h12l3,5l10-20L282.5,58.5z"/>
	</g>
</g>
</svg>
