<?xml version="1.0" encoding="UTF-8" standalone="no"?>
<svg
   xmlns:ns="http://ns.adobe.com/SaveForWeb/1.0/"
   xmlns:dc="http://purl.org/dc/elements/1.1/"
   xmlns:cc="http://creativecommons.org/ns#"
   xmlns:rdf="http://www.w3.org/1999/02/22-rdf-syntax-ns#"
   xmlns:svg="http://www.w3.org/2000/svg"
   xmlns="http://www.w3.org/2000/svg"
   xmlns:sodipodi="http://sodipodi.sourceforge.net/DTD/sodipodi-0.dtd"
   xmlns:inkscape="http://www.inkscape.org/namespaces/inkscape"
   version="1.1"
   width="519.80969"
   height="77.005531"
   viewBox="0 0 519.80969 77.005535"
   id="svg2"
   xml:space="preserve"
   inkscape:version="1.0 (4035a4fb49, 2020-05-01)"
   sodipodi:docname="dragon32.svg"><sodipodi:namedview
     pagecolor="#ffffff"
     bordercolor="#666666"
     borderopacity="1"
     objecttolerance="10"
     gridtolerance="10"
     guidetolerance="10"
     inkscape:pageopacity="0"
     inkscape:pageshadow="2"
     inkscape:window-width="1920"
     inkscape:window-height="1017"
     id="namedview18"
     showgrid="false"
     fit-margin-top="5"
     fit-margin-left="5"
     fit-margin-right="5"
     fit-margin-bottom="5"
     inkscape:zoom="1.8045977"
     inkscape:cx="130.67146"
     inkscape:cy="36.739001"
     inkscape:window-x="-8"
     inkscape:window-y="-8"
     inkscape:window-maximized="1"
     inkscape:current-layer="svg2"
     inkscape:pagecheckerboard="true"
     inkscape:document-rotation="0"
     lock-margins="true" /><defs
     id="defs28" /><metadata
     id="metadata7"><rdf:RDF><cc:Work
         rdf:about=""><dc:format>image/svg+xml</dc:format><dc:type
           rdf:resource="http://purl.org/dc/dcmitype/StillImage" /><dc:title></dc:title></cc:Work></rdf:RDF><ns:sfw><ns:slices /><ns:sliceSourceBounds
         bottomLeftOrigin="true"
         height="120.809"
         width="990.562"
         x="-202.828"
         y="383.641" /></ns:sfw><ns:sfw><ns:slices /><ns:sliceSourceBounds
         bottomLeftOrigin="true"
         height="120.81"
         width="990.562"
         x="381.274"
         y="83.733" /></ns:sfw></metadata><linearGradient
     x1="895.85522"
     y1="-429.6785"
     x2="1304.7458"
     y2="-429.6785"
     id="path21_1_"
     gradientUnits="userSpaceOnUse"
     gradientTransform="matrix(0.67196365,0,0,-0.67196365,-442.04051,-248.75067)"><stop
       id="stop6"
       style="stop-color:#f50019;stop-opacity:1"
       offset="0" /><stop
       id="stop8"
       style="stop-color:#f66d19;stop-opacity:1"
       offset="0.27610001" /><stop
       id="stop10"
       style="stop-color:#fbfa35;stop-opacity:1"
       offset="0.47850001" /><stop
       id="stop12"
       style="stop-color:#74b719;stop-opacity:1"
       offset="0.68099999" /><stop
       id="stop14"
       style="stop-color:#17710a;stop-opacity:1"
       offset="0.79140002" /><stop
       id="stop16"
       style="stop-color:#226887;stop-opacity:1"
       offset="0.88340002" /><stop
       id="stop18"
       style="stop-color:#3262d9;stop-opacity:1"
       offset="1" /></linearGradient><path
     d="m 153.06411,17.333893 h 22.14592 c 14.60043,0 19.75304,10.796441 19.75304,21.839491 0,13.434571 -7.1161,21.962462 -22.39117,21.962462 H 153.06479 V 17.333893 Z m 13.49574,32.574781 h 5.27625 c 8.40425,0 9.63126,-6.809678 9.63126,-10.919407 0,-2.760426 -0.85878,-10.429548 -10.61299,-10.429548 h -4.29452 z m 33.00282,-32.574781 h 25.70463 c 7.66776,0 14.29332,4.233372 14.29332,12.514651 0,4.539786 -2.08576,9.32484 -6.56373,10.981231 3.68102,1.411795 5.94958,5.459705 6.44077,10.91941 0.18345,2.146922 0.24459,7.361362 1.4716,9.385991 h -13.49572 c -0.67533,-2.208075 -0.92059,-4.477298 -1.1047,-6.747864 -0.36825,-4.171549 -0.73716,-8.526546 -6.07388,-8.526546 h -7.1786 v 15.275752 h -13.4957 v -43.802625 0 z m 13.4957,19.139541 h 7.05496 c 2.51515,0 5.95091,-0.430055 5.95091,-4.354998 0,-2.759753 -1.53343,-4.354996 -6.68739,-4.354996 h -6.31848 z m 46.56106,-19.139541 h 13.18928 l 15.94975,43.801283 H 274.7722 l -1.83982,-6.257329 h -13.92647 l -1.96347,6.257329 h -13.55753 z m 10.61229,28.157295 -3.92626,-13.495719 h -0.12296 l -4.23272,13.495719 z m 52.38765,11.166021 c -3.00638,3.863793 -7.66778,5.520175 -12.45216,5.520175 -12.94538,0 -20.91957,-10.060634 -20.91957,-22.513467 0,-16.685529 11.71771,-23.372239 21.59422,-23.372239 11.16468,0 18.21963,6.073207 20.18244,16.379115 h -12.94471 c -0.48986,-3.189813 -3.18914,-5.459706 -6.37895,-5.459706 -9.26301,0 -8.95661,9.754224 -8.95661,12.759918 0,4.109059 1.6564,11.287645 9.87585,11.287645 3.12866,0 6.31846,-1.595241 6.99311,-4.846203 h -5.94955 v -9.386658 h 17.91321 v 24.109387 h -8.52723 z m 37.78719,-40.366203 c 13.31295,0 22.20706,9.569434 22.20706,22.943525 0,13.374094 -8.89478,22.943525 -22.20706,22.943525 -13.31225,0 -22.20771,-9.569431 -22.20771,-22.943525 0,-13.373419 8.89613,-22.943525 22.20771,-22.943525 z m 0,34.966973 c 3.4351,0 8.71136,-2.269894 8.71136,-12.02479 0,-9.754224 -5.27626,-12.024118 -8.71136,-12.024118 -3.43507,0 -8.71133,2.269894 -8.71133,12.024118 0,9.754896 5.27694,12.02479 8.71133,12.02479 z M 388.3784,17.333893 h 13.8028 l 12.75992,23.434061 h 0.12298 V 17.333893 h 12.75992 V 61.135176 H 414.69586 L 401.26129,37.210578 h -0.12296 V 61.135176 H 388.3784 Z"
     id="path21"
     style="fill:#ffffff;fill-opacity:1;stroke:none"
     inkscape:connector-curvature="0" /><path
     d="m 440.45895,32.670121 c 0.0624,-5.029649 2.08577,-8.711338 5.33674,-11.164676 3.25163,-2.392864 7.66845,-3.558048 12.45349,-3.558048 12.39035,0 16.50208,7.36136 16.50208,10.981229 0,8.955931 -5.64383,8.955931 -5.64383,9.141395 v 0.122969 c 0,0.490533 6.99381,0.490533 6.99381,9.999491 0,5.214438 -3.92627,13.435245 -17.9132,13.435245 -19.20002,0 -19.26251,-13.496394 -18.95609,-16.686877 h 11.65655 c -0.0618,2.269892 0.48985,3.988777 1.65706,5.091468 1.16452,1.411124 2.94454,1.901657 5.09147,1.901657 3.49623,0 5.70429,-1.288153 5.70429,-4.78438 0,-3.742168 -2.88338,-4.416818 -5.70429,-4.416818 -1.77869,0 -2.6388,0.183444 -3.55804,0.306416 v -8.343774 c 0.91924,0.06183 1.90097,0.245267 3.55804,0.245267 2.57631,0 5.82794,-0.551683 5.82794,-3.864463 0,-2.700622 -3.06683,-3.742167 -5.58335,-3.742167 -3.31278,0 -6.01139,1.778691 -5.88975,5.336738 z m 38.21726,3.742164 c -0.67533,-11.717701 6.6249,-18.464888 18.09799,-18.464888 10.36705,0 17.42202,4.354994 17.42202,13.434568 0,10.919409 -10.67415,14.354488 -18.71084,19.262511 v 0.06183 h 19.32433 v 10.429551 h -36.99159 c -0.24528,-4.110404 0.98173,-7.669125 3.06618,-10.551849 3.55803,-4.969843 9.69305,-8.220131 15.15277,-11.532912 2.20807,-1.349973 5.76611,-3.067514 5.76611,-6.196849 0,-3.865135 -2.26989,-5.214438 -5.15262,-5.214438 -4.90801,0 -6.56441,3.558048 -6.44144,8.772486 h -11.53291 v 0 z"
     id="path23"
     style="fill:#ffffff;fill-opacity:1;stroke:none"
     inkscape:connector-curvature="0" /><path
     d="M 69.177231,40.995077 H 62.534879 L 78.34685,13.60987 C 81.396891,8.29867 87.091126,5 93.210696,5 h 32.674244 l -3.32085,5.752009 H 93.210696 c -4.071425,0 -7.858621,2.198666 -9.879218,5.727146 z m 17.792931,-22.42141 c 1.279415,-2.235623 3.670927,-3.624573 6.241204,-3.624573 h 26.928944 l 1.43666,-2.48761 H 93.211366 c -3.45927,0 -6.677984,1.868731 -8.397536,4.872409 L 71.152804,40.995077 h 2.871983 z m 2.516499,10.564612 h 22.461749 l 3.88396,-6.727029 1.18197,-2.048145 2.13954,-3.704536 H 93.212036 c -1.958776,0 -3.781813,1.059016 -4.757501,2.763786 l -12.454858,21.57205 h 6.642364 z m -51.038999,0 c -0.0039,0.04704 -0.0071,0.06853 -0.005,0.06853 -0.05238,0.177397 -0.29432,0.687419 -1.140994,2.10795 -1.789438,3.003679 -3.619871,6.757267 -3.620541,11.819169 0,9.449826 7.687939,17.138429 17.138429,17.138429 h 65.256414 l -6.77407,11.73316 h 6.64237 l 5.32061,-9.215985 c 0.49927,-0.840622 0.76267,-1.805561 0.76267,-2.789991 0,-3.021145 -2.45736,-5.478516 -5.47853,-5.478516 H 50.820141 c -6.27883,0 -11.386422,-5.108268 -11.386422,-11.386425 0,-3.452549 1.123527,-6.044985 2.810823,-8.873952 1.569041,-2.634097 1.96415,-3.543264 1.963478,-5.394525 0,-3.020477 -2.45737,-5.477847 -5.477848,-5.477847 H 19.455951 l 3.320181,5.752009 h 15.67153 z M 116.548,50.323277 H 50.819186 c -3.963242,0 -7.188664,-3.225425 -7.188664,-7.189339 6.69e-4,-2.189931 0.602076,-4.012967 2.218154,-6.725012 1.737691,-2.915651 2.556146,-4.610344 2.556146,-7.544135 0,-5.334048 -4.340213,-9.674934 -9.675606,-9.674934 H 12.222936 L 11.286226,17.56908 5,20.411486 l 9.728016,3.118583 -1.069768,-1.853274 h 25.070968 c 3.963912,0 7.187991,3.225424 7.187991,7.187996 6.82e-4,2.23159 -0.495905,3.402151 -2.204708,6.269421 -1.848569,3.101111 -2.568241,5.344125 -2.568241,7.999054 0,5.335392 4.340885,9.676276 9.675599,9.676276 h 65.728823 c 3.96391,0 7.18867,3.225425 7.18867,7.188668 0,1.291516 -0.34675,2.558842 -1.00929,3.676317 l -4.80926,8.329658 h 2.8713 l 4.08421,-7.073085 c 0.88295,-1.489075 1.35065,-3.194519 1.35065,-4.93289 0,-5.33472 -4.34089,-9.674933 -9.67696,-9.674933 z M 56.970339,62.138414 H 50.32866 l -5.697586,9.867114 h 6.642361 z m -0.850031,9.866443 5.696914,-9.867116 h -2.871308 l -5.696903,9.867116 z m 14.313497,-9.866443 h -6.642362 l -5.696903,9.867114 h 6.64169 z M 116.548,42.86045 H 51.10141 c 0.03488,-0.419979 0.216379,-1.052296 1.157128,-2.632084 2.044786,-3.429702 3.608447,-6.445474 3.608447,-11.363575 0,-9.449827 -7.687269,-17.138436 -17.138442,-17.138436 H 38.27833 l -3.789872,3.790549 -3.789883,-3.790549 H 12.721539 l 3.321512,5.752683 h 22.684821 c 6.27883,0 11.38575,5.108267 11.38575,11.385753 6.72e-4,3.474722 -1.056329,5.498005 -2.797384,8.419032 -1.458834,2.448636 -1.976245,3.979368 -1.976245,5.850115 0,3.020477 2.458042,5.478521 5.47852,5.478521 h 65.728817 c 6.27883,0 11.38643,5.107595 11.38643,11.385751 0,2.039404 -0.5463,4.040522 -1.58048,5.788965 l -3.58962,6.21701 h 6.64237 l 1.91509,-3.318155 c 1.54685,-2.628054 2.36465,-5.631057 2.36465,-8.688491 C 133.68643,50.549058 125.9985,42.86045 116.548,42.86045 Z M 40.170581,10.996604 34.488458,5.315151 28.807006,10.996604 h 2.638127 l 3.043325,-3.043323 3.043987,3.043323 z"
     id="path24"
     style="display:inline;fill:#ffffff;fill-opacity:1;stroke:none"
     inkscape:connector-curvature="0" /></svg>
