<?xml version="1.0" encoding="utf-8"?>
<!-- Generator: Adobe Illustrator 21.1.0, SVG Export Plug-In . SVG Version: 6.00 Build 0)  -->
<svg version="1.0" id="Layer_1" xmlns="http://www.w3.org/2000/svg" xmlns:xlink="http://www.w3.org/1999/xlink" x="0px" y="0px"
	 width="567.1px" height="172.9px" viewBox="0 0 567.1 172.9" enable-background="new 0 0 567.1 172.9" xml:space="preserve">
<g>
	<g>
		<path fill="#FFFFFF" d="M130.2,58.3c0-2.4-0.5-5.5-1.5-6.8c7,0,22,0,28.5,0c14.9,0,37.3,8.2,37.3,36.1c0,20.6-15.8,36-37.3,36
			c-4.7,0-22.7-0.1-29-0.1c1.3-2.4,2.1-5.7,2.1-8.3L130.2,58.3L130.2,58.3z M140.9,116.5c6.9,0.9,13.2,1.2,18.9,0.3
			c5.5-0.8,24.2-4.8,24-29.5c-0.1-23.4-14.6-28.8-25.7-29.4c-5.8-0.3-11.4-0.1-17.2,0.9V116.5L140.9,116.5z"/>
		<path fill="#FFFFFF" d="M200.6,73.6l10.7-1.7c0,2.2,0,8.6,0,9.4c2.7-6.8,11.3-12.2,23.4-7.5l-2.8,7.4
			c-11.1-5.3-20.5-0.6-20.5,11.7v25.4c0,1.2,0.3,3.6,1,5.2h-11.1c1.1-1.4,1.6-4,1.6-5.2V81.7C202.8,79.1,202.3,75,200.6,73.6
			L200.6,73.6z"/>
		<path fill="#FFFFFF" d="M538.1,78.7c0,0.7,0,30.2,0,32.4c0,10.2,7,12.9,12.2,12.9c2.2,0.1,5.3-0.4,7.5-0.9l1.3-6.3
			c-2.5,1-5.5,1.2-7.2,1.2c-3.3,0-5.6-2.2-5.6-5.5c0-3-0.1-32.8,0-33.8l0,0c0.4,0,7.2,0,7.9,0c2.2,0.1,3.9,0.2,5.4,0.8v-5.9
			c0,0-13,0-13.2,0l0.1-15.2l-9.8,2.7c1.4,1.3,1.8,5,1.8,7.4c0,0,0,4.5,0,5.1c-0.4,0-5.4,0-6.3,0v5
			C532.9,78.7,538.1,78.7,538.1,78.7L538.1,78.7z"/>
		<path fill="#FFFFFF" d="M495.6,113c4.2,3,10.9,5.7,15.7,5.7c6.8,0,11.6-3.3,11.6-9.5c0-11.4-26-9.5-26-24
			c0-9.8,8.8-13.5,17.1-13.5c2.7,0,8.8,0.6,12.7,2.1v6.7c-3.5-3-8.7-3.7-12.2-3.7c-5.5,0-9.7,2.7-9.7,8.1c0,7.9,26,7.4,26,23.6
			c0,10.5-9.1,15.4-19.1,15.4c-4.9,0-9.9-0.9-14.2-2.1L495.6,113L495.6,113z"/>
		<path fill="#FFFFFF" d="M338.5,78.8c0-0.6,0-5.9,0-6.6l-10.8,1.7c1.3,1.4,2.3,5.6,2.3,8.7V118c0,1.2-0.5,4.1-1.6,5.5h11.8
			c-1.1-1.4-1.6-4.3-1.6-5.5V91.4c0-9.8,6-13.2,12-13.2c5.4,0,10.3,2.4,10.3,13.2V118c0,1.2-0.5,4.1-1.6,5.5h11.4
			c-1.1-1.4-1.6-4.3-1.6-5.5V91.4c0-10.8,6.7-13.2,12.1-13.2s11.1,3.4,11.1,13.2V118c0,1.2-0.5,4.1-1.6,5.5h11
			c-1.1-1.4-1.6-4.3-1.6-5.5V86.3c0-5.4-5.5-14.1-18.4-14.1c-7.5,0-11.8,3.3-15.1,6.2c-2.8-3.3-7.3-6.3-14.6-6.3
			C344.8,72.1,340.6,76.3,338.5,78.8L338.5,78.8z"/>
		<path fill="#FFFFFF" d="M313,95.5c-1.5,1.5-4.8,2.6-8.1,3c-8.8,1.1-16.4,2.6-16.4,11.1c0,5.1,5.5,9,9.9,9
			c11.6,0,14.6-8.4,14.6-14.9V95.5L313,95.5L313,95.5z M285.7,74.6c4.4-1.8,11.5-2.6,16-2.6c11.4,0,19,5.7,19,19v22
			c0,4.1,0.1,7.9,1.5,10.6H313l-0.3-5.8c-3.5,4.5-7.6,6.5-14.7,6.5c-13.9,0-16.9-9.5-16.9-14.1c0-16.3,15.5-16.5,22.2-17.4
			c3.7-0.5,8.5-1.6,9.2-5.1c1.2-5.8-2.9-10.1-11.4-10.1c-6.2,0-11.3,1.9-15.5,4.4L285.7,74.6L285.7,74.6z M483,95.5
			c-1.5,1.5-4.8,2.6-8.1,3c-8.8,1.1-16.3,2.6-16.3,11.1c0,5.1,5.5,9,9.9,9c11.6,0,14.6-8.4,14.6-14.9v-8.2H483z M455.6,74.6
			c4.4-1.8,11.6-2.6,16-2.6c11.4,0,19,5.7,19,19v22c0,4.1-0.9,7.8,1.5,10.6h-9.2l-0.3-5.8c-3.5,4.5-7.6,6.5-14.7,6.5
			c-13.9,0-16.9-9.5-16.9-14.1c0-16.3,15.5-16.5,22.2-17.4c3.7-0.5,8.5-1.6,9.2-5.1c1.2-5.8-2.9-10.1-11.4-10.1
			c-6.2,0-11.3,1.9-15.5,4.4L455.6,74.6L455.6,74.6L455.6,74.6z"/>
		<path fill="#FFFFFF" d="M445.9,81.3c-3.4-2-8.9-3.6-12.7-3.6c-13.3,0-19.4,8.2-19.4,20c0,11.7,6,20.6,19,20.6
			c4.5,0,10.5-2,15.2-4.9l-1.9,8.6c-4.8,1.4-8.8,2.1-14.2,2.1c-18.3,0-26.9-13-26.9-26.5c0-14.9,11.5-25.4,27.1-25.4
			c6.8,0,11.8,1.7,13.8,2.2V81.3L445.9,81.3z"/>
		<path fill="#FFFFFF" d="M241,98.3c0-1.2,0.2-2.4,0.3-3.5h35.4c0-12.2-6.1-22.6-20.5-22.6c-15,0-23.9,11.7-23.9,26.6
			c0,13.5,9.9,25.6,26.8,25.6c5.4,0,9.8-1.3,14.7-3l1.7-8.6c-4.1,3.4-10.8,5.4-16.8,5.4C247.9,118.1,241,110.3,241,98.3L241,98.3z
			 M242.5,89.4c1.1-5.9,6.6-12,13.2-12c10,0,12.9,7.8,12.9,12H242.5L242.5,89.4z"/>
	</g>
	<path fill="#FFFFFF" d="M72.5,40.3c4,0.6,8,2,10.1,2.6c4.3,1.3,11.2,5.4,13.6,7.3c1.2,0.9,3.6,3.3,4.5,4.5s2.7,3.7,3.8,5.3
		c1.8,2.6,3.9,6.5,5.6,10c2,4,2.1,5.1,2.7,8.5l1.3,5.9c0.1,1,0.2,4.7-2,5.3c-2.2,0.5-4.2-0.5-5.2-2c-1.3-2-1.1-4.9-2.6-8.2
		c-1.2-2.7-1.7-6.6-3.5-9.4l-1.5-2.5c-2.6-4-5.3-7.1-6.9-9.2c-1.4-1.7-4-4.1-6.5-5.7c-2.3-1.4-6-3-8.7-3.8c-0.9-0.3-4.5-1.4-6.8-1.7
		c-3.1-0.3-5.1-0.8-8.1-1c-3.6-0.3-5.4-0.6-10.1,0c-1.8,0.5-4.6,0.7-7.1,1.6c-2.1,0.8-4.9,2.2-7.7,3.8c-3,1.7-7.6,5-10.6,7.9
		c-3.1,3.3-4.6,5-6.7,9.1c-0.9,2-2.7,5.2-3.5,7.4c-0.2,2.5-1.2,6.7-1,8.8c0.1,3.7-0.2,4.4,0,7.5c0,2.7,0.9,4.6,1.3,6.8
		c0.3,1.5,1.8,6.8,2.7,8.1c4.1,8.8,9.6,12.6,15.8,15.4c1.7,0.9,7.2,2.3,8.8,2.8c2.7,0.5,6.2,0.8,9.6,0.9c3.6,0.1,8.5-0.4,11.5-1.5
		c3.2-1.2,7-2.9,7-2.8c1.5-0.8,3.8-2.2,4.5-2.8c1.4-0.9,2.2-1.2,3-2.1c1.2-1,1.9-1.6,2.8-2.9c0.5-0.7,1.3-1.8,2.1-2.8
		c0.8-1.4,1.3-2.8,2.1-4.6c1-2.6,0.8-2.5,1-5.3c0.2-0.8,0-3.5-0.2-4c-0.4-2.5-0.3-4.7-0.9-7.1c-0.8-3.3-1.4-5.7-2.4-8.9
		c-0.9-3.5-3.7-6.8-5.7-9.2c-1.3-1.5-5.2-4.9-10.7-7c-1.5-0.5-4-1.1-5.6-1.4c-3.4-0.4-4-0.1-7.2,0.1c-1.1,0.2-3.7,0.7-4.7,1.1
		c-2.8,1-3.8,1.6-6.7,3.4c-1.3,0.6-2.3,1.2-3.6,2.5c-1.1,1-1.9,2.7-2.7,3.7c-1.2,1.6-2.6,3.8-3.5,6.2c-1,2.4-1.3,5.7-1.1,7.8
		c0,1.6,0.4,4.6,0.6,5.2c0.2,0.7,0.6,2.7,0.7,3.1c0.1,0.4,1.1,2.5,1.3,2.9c0.6,1.3,1.7,3.1,3.6,4.9c1.4,1.5,4.1,3.1,6.2,3.6
		c1.8,1,4.9,1.2,6.6,1.2c0.8-0.1,3-0.2,4.1-0.5c2.3-0.5,2.7-0.6,5-1.6c2.1-1,3.5-1.3,5-2.4c0,0,2-1.6,2.9-2.7
		c0.5-0.6,1.3-3.5,1.2-5.3c-0.1-2.5,0.3-3.8-0.2-5.9c-0.5-2-1.4-4.4-2.3-5.8c-0.9-1.5-3-2.9-5.3-4c-1.3-0.6-4.3-1.2-5.6-1.4
		c-2.5-0.3-4.5,0.8-5.8,2.1c-1.1,1.2-3.2,3.8-2.4,6.5c0.8,2.4,1.7,5,5.3,4.8c2.5,0.5,5.3-0.2,6.3,0.2c1.4,0.8,2,2.6,1.4,3.8
		c-0.4,2.4-2.6,2.7-5.1,2.9c-2.2,0.4-7.7-0.7-8.9-1.6c-0.8-0.5-2.1-1.6-2.9-2.4c-0.6-0.6-1.3-1.8-1.8-2.7c-0.6-1.1-0.9-1.9-1.1-2.7
		c-0.2-0.9-0.6-2.5-0.4-4.1c0.1-1.1,0.4-1.6,0.7-3.2c0.6-1.8,1.3-3.2,2.5-4.8c1.5-1.6,3.5-3.4,5.4-4.3c1.7-0.9,4.6-1.2,7.3-1.1
		c2.2,0.2,4.7,0.5,6.4,1c2.9,1,3.7,1.2,6.1,2.7c2,1.2,4,3.5,5.1,5.4c2.4,4.9,3.8,10.3,2.8,17.7c-0.1,1.2-0.5,2.4-1.2,4.1
		c-0.7,1.5-2,3.3-3.8,4.7c-0.8,0.7-1.9,1.6-2.9,2.1c-1.4,0.8-2.3,1.3-3.7,2c-1.3,0.6-2.7,1.3-4.6,1.8c-2.1,0.8-3.7,0.9-6.3,1.2
		c-2.6,0.6-9.6,0.2-13.8-1.7c-2.9-1.2-6.1-3.3-8.5-5.9c-1.4-1.4-2.7-4-3.1-4.5c-1.9-3.7-2.3-7.2-2.6-8c-0.4-1-0.6-3.2-0.9-4.8
		c-0.3-1.7-0.1-8.9,1.6-13.6c1-1.8,1.6-3.5,2.2-4.4c1.2-1.7,1.8-2.8,2.8-4c1.5-1.9,2.6-3.4,4.1-4.4c3.8-3.1,7-4.7,11.2-6.7
		c5.3-2.2,6.9-1.7,12-1.6c2.3,0,5.6,0.7,7.2,1c3,0.4,4.7,1.1,6.8,1.7c2.2,0.6,3.4,1.6,5.2,2.7c1.5,0.9,3.2,2.3,4.3,3.3
		c2.9,2.1,4.3,4.4,6.1,7.2c0.3,0.5,2.5,5,2.8,6.3c0.2,0.6,0.6,2.4,0.9,3.5c0.4,1.7,0.6,3.2,1,5.1c0.4,2,1.1,5.7,1.4,9.1
		c0.5,3-0.3,9-0.8,10.9c-1,3.5-2.8,7.7-6.4,11.8c-1.5,1.8-3.1,3.2-5,4.7c-1.4,1.2-2.7,1.9-4.9,3.2c-3,1.8-5.3,2.9-9.5,4.6
		c-1.7,0.5-3.9,1.3-6.2,1.8c-4.5,0.4-9.1,0.8-14.2,0.2c-5-0.6-10.1-2-13.1-2.9c-1.6-0.6-4.8-2-6.2-2.7c-0.9-0.4-3.8-2.4-4.3-2.9
		c-2-1.2-6.5-5.4-9.4-9.4c-0.6-1.2-2.9-4.9-3.4-6.4c-1.3-2.7-2.2-6-2.8-7.4c-0.6-3.3-1.5-5.3-1.9-8.6c0-0.8-0.2-2.6-0.3-3.6
		c0.3-2.2-0.1-4.3,0.4-6.8c0.4-2.1,0.9-2.9,1-4.8c0.1-0.8,1.1-3.2,1.4-4.2c0.8-1.8,1-3.2,2.1-5.1c1.5-3,3.2-6.6,5.7-9.6
		c0.7-1,2.7-3.2,3.4-4c1.6-1.6,2.6-1.9,4.4-3.5c0.2-0.1,1.4-1.5,2.7-2c2.2-1.8,4-2.4,6-3.9c4-2,5.5-2.7,9.5-4.4
		c2.3-0.8,5.5-1.3,6.7-1.7c2.2-0.1,4.5-0.8,6.8-0.7c2.6,0,5.2,0.2,7.9,0.4C67,39.5,69.3,39.6,72.5,40.3L72.5,40.3z"/>
</g>
</svg>
