<?xml version="1.0" encoding="UTF-8" standalone="no"?>
<svg
   xmlns:dc="http://purl.org/dc/elements/1.1/"
   xmlns:cc="http://creativecommons.org/ns#"
   xmlns:rdf="http://www.w3.org/1999/02/22-rdf-syntax-ns#"
   xmlns:svg="http://www.w3.org/2000/svg"
   xmlns="http://www.w3.org/2000/svg"
   xmlns:sodipodi="http://sodipodi.sourceforge.net/DTD/sodipodi-0.dtd"
   xmlns:inkscape="http://www.inkscape.org/namespaces/inkscape"
   version="1.0"
   id="Layer_1"
   x="0px"
   y="0px"
   width="562.29999"
   height="104.91571"
   viewBox="0 0 562.30001 104.91571"
   enable-background="new 0 0 567.1 172.9"
   xml:space="preserve"
   sodipodi:docname="dreamcast.svg"
   inkscape:version="1.0 (4035a4fb49, 2020-05-01)"><metadata
     id="metadata29"><rdf:RDF><cc:Work
         rdf:about=""><dc:format>image/svg+xml</dc:format><dc:type
           rdf:resource="http://purl.org/dc/dcmitype/StillImage" /><dc:title></dc:title></cc:Work></rdf:RDF></metadata><defs
     id="defs27" /><sodipodi:namedview
     pagecolor="#ffffff"
     bordercolor="#666666"
     borderopacity="1"
     objecttolerance="10"
     gridtolerance="10"
     guidetolerance="10"
     inkscape:pageopacity="0"
     inkscape:pageshadow="2"
     inkscape:window-width="700"
     inkscape:window-height="480"
     id="namedview25"
     showgrid="false"
     fit-margin-top="5"
     fit-margin-left="5"
     fit-margin-right="5"
     fit-margin-bottom="5"
     inkscape:zoom="0.4813966"
     inkscape:cx="-23.072891"
     inkscape:cy="52.455973"
     inkscape:window-x="0"
     inkscape:window-y="0"
     inkscape:window-maximized="0"
     inkscape:current-layer="Layer_1"
     inkscape:document-rotation="0"
     inkscape:pagecheckerboard="true"
     lock-margins="true" /><g
     id="g22"
     transform="translate(-2.3,-33.990252)"><g
       id="g18"><path
         d="m 130.2,58.3 c 0,-2.4 -0.5,-5.5 -1.5,-6.8 7,0 22,0 28.5,0 14.9,0 37.3,8.2 37.3,36.1 0,20.6 -15.8,36 -37.3,36 -4.7,0 -22.7,-0.1 -29,-0.1 1.3,-2.4 2.1,-5.7 2.1,-8.3 z m 10.7,58.2 c 6.9,0.9 13.2,1.2 18.9,0.3 5.5,-0.8 24.2,-4.8 24,-29.5 -0.1,-23.4 -14.6,-28.8 -25.7,-29.4 -5.8,-0.3 -11.4,-0.1 -17.2,0.9 z"
         id="path2"
         inkscape:connector-curvature="0"
         style="fill:#ffffff" /><path
         d="m 200.6,73.6 10.7,-1.7 c 0,2.2 0,8.6 0,9.4 2.7,-6.8 11.3,-12.2 23.4,-7.5 l -2.8,7.4 c -11.1,-5.3 -20.5,-0.6 -20.5,11.7 v 25.4 c 0,1.2 0.3,3.6 1,5.2 h -11.1 c 1.1,-1.4 1.6,-4 1.6,-5.2 V 81.7 c -0.1,-2.6 -0.6,-6.7 -2.3,-8.1 z"
         id="path4"
         inkscape:connector-curvature="0"
         style="fill:#ffffff" /><path
         d="m 538.1,78.7 c 0,0.7 0,30.2 0,32.4 0,10.2 7,12.9 12.2,12.9 2.2,0.1 5.3,-0.4 7.5,-0.9 l 1.3,-6.3 c -2.5,1 -5.5,1.2 -7.2,1.2 -3.3,0 -5.6,-2.2 -5.6,-5.5 0,-3 -0.1,-32.8 0,-33.8 v 0 c 0.4,0 7.2,0 7.9,0 2.2,0.1 3.9,0.2 5.4,0.8 v -5.9 c 0,0 -13,0 -13.2,0 l 0.1,-15.2 -9.8,2.7 c 1.4,1.3 1.8,5 1.8,7.4 0,0 0,4.5 0,5.1 -0.4,0 -5.4,0 -6.3,0 v 5 c 0.7,0.1 5.9,0.1 5.9,0.1 z"
         id="path6"
         inkscape:connector-curvature="0"
         style="fill:#ffffff" /><path
         d="m 495.6,113 c 4.2,3 10.9,5.7 15.7,5.7 6.8,0 11.6,-3.3 11.6,-9.5 0,-11.4 -26,-9.5 -26,-24 0,-9.8 8.8,-13.5 17.1,-13.5 2.7,0 8.8,0.6 12.7,2.1 v 6.7 c -3.5,-3 -8.7,-3.7 -12.2,-3.7 -5.5,0 -9.7,2.7 -9.7,8.1 0,7.9 26,7.4 26,23.6 0,10.5 -9.1,15.4 -19.1,15.4 -4.9,0 -9.9,-0.9 -14.2,-2.1 z"
         id="path8"
         inkscape:connector-curvature="0"
         style="fill:#ffffff" /><path
         d="m 338.5,78.8 c 0,-0.6 0,-5.9 0,-6.6 l -10.8,1.7 c 1.3,1.4 2.3,5.6 2.3,8.7 V 118 c 0,1.2 -0.5,4.1 -1.6,5.5 h 11.8 c -1.1,-1.4 -1.6,-4.3 -1.6,-5.5 V 91.4 c 0,-9.8 6,-13.2 12,-13.2 5.4,0 10.3,2.4 10.3,13.2 V 118 c 0,1.2 -0.5,4.1 -1.6,5.5 h 11.4 c -1.1,-1.4 -1.6,-4.3 -1.6,-5.5 V 91.4 c 0,-10.8 6.7,-13.2 12.1,-13.2 5.4,0 11.1,3.4 11.1,13.2 V 118 c 0,1.2 -0.5,4.1 -1.6,5.5 h 11 c -1.1,-1.4 -1.6,-4.3 -1.6,-5.5 V 86.3 c 0,-5.4 -5.5,-14.1 -18.4,-14.1 -7.5,0 -11.8,3.3 -15.1,6.2 -2.8,-3.3 -7.3,-6.3 -14.6,-6.3 -7.2,0 -11.4,4.2 -13.5,6.7 z"
         id="path10"
         inkscape:connector-curvature="0"
         style="fill:#ffffff" /><path
         d="m 313,95.5 c -1.5,1.5 -4.8,2.6 -8.1,3 -8.8,1.1 -16.4,2.6 -16.4,11.1 0,5.1 5.5,9 9.9,9 11.6,0 14.6,-8.4 14.6,-14.9 z M 285.7,74.6 c 4.4,-1.8 11.5,-2.6 16,-2.6 11.4,0 19,5.7 19,19 v 22 c 0,4.1 0.1,7.9 1.5,10.6 H 313 l -0.3,-5.8 c -3.5,4.5 -7.6,6.5 -14.7,6.5 -13.9,0 -16.9,-9.5 -16.9,-14.1 0,-16.3 15.5,-16.5 22.2,-17.4 3.7,-0.5 8.5,-1.6 9.2,-5.1 1.2,-5.8 -2.9,-10.1 -11.4,-10.1 -6.2,0 -11.3,1.9 -15.5,4.4 z M 483,95.5 c -1.5,1.5 -4.8,2.6 -8.1,3 -8.8,1.1 -16.3,2.6 -16.3,11.1 0,5.1 5.5,9 9.9,9 11.6,0 14.6,-8.4 14.6,-14.9 V 95.5 Z M 455.6,74.6 c 4.4,-1.8 11.6,-2.6 16,-2.6 11.4,0 19,5.7 19,19 v 22 c 0,4.1 -0.9,7.8 1.5,10.6 h -9.2 l -0.3,-5.8 c -3.5,4.5 -7.6,6.5 -14.7,6.5 -13.9,0 -16.9,-9.5 -16.9,-14.1 0,-16.3 15.5,-16.5 22.2,-17.4 3.7,-0.5 8.5,-1.6 9.2,-5.1 1.2,-5.8 -2.9,-10.1 -11.4,-10.1 -6.2,0 -11.3,1.9 -15.5,4.4 z"
         id="path12"
         inkscape:connector-curvature="0"
         style="fill:#ffffff" /><path
         d="m 445.9,81.3 c -3.4,-2 -8.9,-3.6 -12.7,-3.6 -13.3,0 -19.4,8.2 -19.4,20 0,11.7 6,20.6 19,20.6 4.5,0 10.5,-2 15.2,-4.9 l -1.9,8.6 c -4.8,1.4 -8.8,2.1 -14.2,2.1 -18.3,0 -26.9,-13 -26.9,-26.5 0,-14.9 11.5,-25.4 27.1,-25.4 6.8,0 11.8,1.7 13.8,2.2 z"
         id="path14"
         inkscape:connector-curvature="0"
         style="fill:#ffffff" /><path
         d="m 241,98.3 c 0,-1.2 0.2,-2.4 0.3,-3.5 h 35.4 c 0,-12.2 -6.1,-22.6 -20.5,-22.6 -15,0 -23.9,11.7 -23.9,26.6 0,13.5 9.9,25.6 26.8,25.6 5.4,0 9.8,-1.3 14.7,-3 l 1.7,-8.6 c -4.1,3.4 -10.8,5.4 -16.8,5.4 C 247.9,118.1 241,110.3 241,98.3 Z m 1.5,-8.9 c 1.1,-5.9 6.6,-12 13.2,-12 10,0 12.9,7.8 12.9,12 z"
         id="path16"
         inkscape:connector-curvature="0"
         style="fill:#ffffff" /></g><path
       d="m 72.5,40.3 c 4,0.6 8,2 10.1,2.6 4.3,1.3 11.2,5.4 13.6,7.3 1.2,0.9 3.6,3.3 4.5,4.5 0.9,1.2 2.7,3.7 3.8,5.3 1.8,2.6 3.9,6.5 5.6,10 2,4 2.1,5.1 2.7,8.5 l 1.3,5.9 c 0.1,1 0.2,4.7 -2,5.3 -2.2,0.5 -4.2,-0.5 -5.2,-2 -1.3,-2 -1.1,-4.9 -2.6,-8.2 -1.2,-2.7 -1.7,-6.6 -3.5,-9.4 l -1.5,-2.5 c -2.6,-4 -5.3,-7.1 -6.9,-9.2 -1.4,-1.7 -4,-4.1 -6.5,-5.7 -2.3,-1.4 -6,-3 -8.7,-3.8 -0.9,-0.3 -4.5,-1.4 -6.8,-1.7 -3.1,-0.3 -5.1,-0.8 -8.1,-1 -3.6,-0.3 -5.4,-0.6 -10.1,0 -1.8,0.5 -4.6,0.7 -7.1,1.6 -2.1,0.8 -4.9,2.2 -7.7,3.8 -3,1.7 -7.6,5 -10.6,7.9 -3.1,3.3 -4.6,5 -6.7,9.1 -0.9,2 -2.7,5.2 -3.5,7.4 -0.2,2.5 -1.2,6.7 -1,8.8 0.1,3.7 -0.2,4.4 0,7.5 0,2.7 0.9,4.6 1.3,6.8 0.3,1.5 1.8,6.8 2.7,8.1 4.1,8.8 9.6,12.6 15.8,15.4 1.7,0.9 7.2,2.3 8.8,2.8 2.7,0.5 6.2,0.8 9.6,0.9 3.6,0.1 8.5,-0.4 11.5,-1.5 3.2,-1.2 7,-2.9 7,-2.8 1.5,-0.8 3.8,-2.2 4.5,-2.8 1.4,-0.9 2.2,-1.2 3,-2.1 1.2,-1 1.9,-1.6 2.8,-2.9 0.5,-0.7 1.3,-1.8 2.1,-2.8 0.8,-1.4 1.3,-2.8 2.1,-4.6 1,-2.6 0.8,-2.5 1,-5.3 0.2,-0.8 0,-3.5 -0.2,-4 -0.4,-2.5 -0.3,-4.7 -0.9,-7.1 -0.8,-3.3 -1.4,-5.7 -2.4,-8.9 -0.9,-3.5 -3.7,-6.8 -5.7,-9.2 -1.3,-1.5 -5.2,-4.9 -10.7,-7 -1.5,-0.5 -4,-1.1 -5.6,-1.4 -3.4,-0.4 -4,-0.1 -7.2,0.1 -1.1,0.2 -3.7,0.7 -4.7,1.1 -2.8,1 -3.8,1.6 -6.7,3.4 -1.3,0.6 -2.3,1.2 -3.6,2.5 -1.1,1 -1.9,2.7 -2.7,3.7 -1.2,1.6 -2.6,3.8 -3.5,6.2 -1,2.4 -1.3,5.7 -1.1,7.8 0,1.6 0.4,4.6 0.6,5.2 0.2,0.7 0.6,2.7 0.7,3.1 0.1,0.4 1.1,2.5 1.3,2.9 0.6,1.3 1.7,3.1 3.6,4.9 1.4,1.5 4.1,3.1 6.2,3.6 1.8,1 4.9,1.2 6.6,1.2 0.8,-0.1 3,-0.2 4.1,-0.5 2.3,-0.5 2.7,-0.6 5,-1.6 2.1,-1 3.5,-1.3 5,-2.4 0,0 2,-1.6 2.9,-2.7 0.5,-0.6 1.3,-3.5 1.2,-5.3 -0.1,-2.5 0.3,-3.8 -0.2,-5.9 -0.5,-2 -1.4,-4.4 -2.3,-5.8 -0.9,-1.5 -3,-2.9 -5.3,-4 -1.3,-0.6 -4.3,-1.2 -5.6,-1.4 -2.5,-0.3 -4.5,0.8 -5.8,2.1 -1.1,1.2 -3.2,3.8 -2.4,6.5 0.8,2.4 1.7,5 5.3,4.8 2.5,0.5 5.3,-0.2 6.3,0.2 1.4,0.8 2,2.6 1.4,3.8 -0.4,2.4 -2.6,2.7 -5.1,2.9 -2.2,0.4 -7.7,-0.7 -8.9,-1.6 -0.8,-0.5 -2.1,-1.6 -2.9,-2.4 -0.6,-0.6 -1.3,-1.8 -1.8,-2.7 -0.6,-1.1 -0.9,-1.9 -1.1,-2.7 -0.2,-0.9 -0.6,-2.5 -0.4,-4.1 0.1,-1.1 0.4,-1.6 0.7,-3.2 0.6,-1.8 1.3,-3.2 2.5,-4.8 1.5,-1.6 3.5,-3.4 5.4,-4.3 1.7,-0.9 4.6,-1.2 7.3,-1.1 2.2,0.2 4.7,0.5 6.4,1 2.9,1 3.7,1.2 6.1,2.7 2,1.2 4,3.5 5.1,5.4 2.4,4.9 3.8,10.3 2.8,17.7 -0.1,1.2 -0.5,2.4 -1.2,4.1 -0.7,1.5 -2,3.3 -3.8,4.7 -0.8,0.7 -1.9,1.6 -2.9,2.1 -1.4,0.8 -2.3,1.3 -3.7,2 -1.3,0.6 -2.7,1.3 -4.6,1.8 -2.1,0.8 -3.7,0.9 -6.3,1.2 -2.6,0.6 -9.6,0.2 -13.8,-1.7 -2.9,-1.2 -6.1,-3.3 -8.5,-5.9 -1.4,-1.4 -2.7,-4 -3.1,-4.5 -1.9,-3.7 -2.3,-7.2 -2.6,-8 -0.4,-1 -0.6,-3.2 -0.9,-4.8 -0.3,-1.7 -0.1,-8.9 1.6,-13.6 1,-1.8 1.6,-3.5 2.2,-4.4 1.2,-1.7 1.8,-2.8 2.8,-4 1.5,-1.9 2.6,-3.4 4.1,-4.4 3.8,-3.1 7,-4.7 11.2,-6.7 5.3,-2.2 6.9,-1.7 12,-1.6 2.3,0 5.6,0.7 7.2,1 3,0.4 4.7,1.1 6.8,1.7 2.2,0.6 3.4,1.6 5.2,2.7 1.5,0.9 3.2,2.3 4.3,3.3 2.9,2.1 4.3,4.4 6.1,7.2 0.3,0.5 2.5,5 2.8,6.3 0.2,0.6 0.6,2.4 0.9,3.5 0.4,1.7 0.6,3.2 1,5.1 0.4,2 1.1,5.7 1.4,9.1 0.5,3 -0.3,9 -0.8,10.9 -1,3.5 -2.8,7.7 -6.4,11.8 -1.5,1.8 -3.1,3.2 -5,4.7 -1.4,1.2 -2.7,1.9 -4.9,3.2 -3,1.8 -5.3,2.9 -9.5,4.6 -1.7,0.5 -3.9,1.3 -6.2,1.8 -4.5,0.4 -9.1,0.8 -14.2,0.2 -5,-0.6 -10.1,-2 -13.1,-2.9 -1.6,-0.6 -4.8,-2 -6.2,-2.7 -0.9,-0.4 -3.8,-2.4 -4.3,-2.9 -2,-1.2 -6.5,-5.4 -9.4,-9.4 -0.6,-1.2 -2.9,-4.9 -3.4,-6.4 -1.3,-2.7 -2.2,-6 -2.8,-7.4 C 8.9,98.6 8,96.6 7.6,93.3 7.6,92.5 7.4,90.7 7.3,89.7 7.6,87.5 7.2,85.4 7.7,82.9 c 0.4,-2.1 0.9,-2.9 1,-4.8 0.1,-0.8 1.1,-3.2 1.4,-4.2 0.8,-1.8 1,-3.2 2.1,-5.1 1.5,-3 3.2,-6.6 5.7,-9.6 0.7,-1 2.7,-3.2 3.4,-4 1.6,-1.6 2.6,-1.9 4.4,-3.5 0.2,-0.1 1.4,-1.5 2.7,-2 2.2,-1.8 4,-2.4 6,-3.9 4,-2 5.5,-2.7 9.5,-4.4 2.3,-0.8 5.5,-1.3 6.7,-1.7 2.2,-0.1 4.5,-0.8 6.8,-0.7 2.6,0 5.2,0.2 7.9,0.4 1.7,0.1 4,0.2 7.2,0.9 z"
       id="path20"
       inkscape:connector-curvature="0"
       style="fill:#ffffff" /></g></svg>
