<?xml version="1.0" encoding="UTF-8" standalone="no"?>
<!-- Generator: Adobe Illustrator 21.1.0, SVG Export Plug-In . SVG Version: 6.00 Build 0)  -->

<svg
   xmlns:dc="http://purl.org/dc/elements/1.1/"
   xmlns:cc="http://creativecommons.org/ns#"
   xmlns:rdf="http://www.w3.org/1999/02/22-rdf-syntax-ns#"
   xmlns:svg="http://www.w3.org/2000/svg"
   xmlns="http://www.w3.org/2000/svg"
   xmlns:sodipodi="http://sodipodi.sourceforge.net/DTD/sodipodi-0.dtd"
   xmlns:inkscape="http://www.inkscape.org/namespaces/inkscape"
   version="1.0"
   id="Capa_1"
   x="0px"
   y="0px"
   width="568.09998"
   height="71.300003"
   viewBox="0 0 568.09996 71.300004"
   enable-background="new 0 0 574.7 121.1"
   xml:space="preserve"
   sodipodi:docname="fds.svg"
   inkscape:version="0.92.2 (unknown)"><metadata
     id="metadata43"><rdf:RDF><cc:Work
         rdf:about=""><dc:format>image/svg+xml</dc:format><dc:type
           rdf:resource="http://purl.org/dc/dcmitype/StillImage" /><dc:title></dc:title></cc:Work></rdf:RDF></metadata><defs
     id="defs41" /><sodipodi:namedview
     pagecolor="#ffffff"
     bordercolor="#666666"
     borderopacity="1"
     objecttolerance="10"
     gridtolerance="10"
     guidetolerance="10"
     inkscape:pageopacity="0"
     inkscape:pageshadow="2"
     inkscape:window-width="698"
     inkscape:window-height="480"
     id="namedview39"
     showgrid="false"
     fit-margin-top="0"
     fit-margin-left="0"
     fit-margin-right="0"
     fit-margin-bottom="0"
     inkscape:zoom="0.47503044"
     inkscape:cx="-25.551279"
     inkscape:cy="37.649998"
     inkscape:window-x="0"
     inkscape:window-y="0"
     inkscape:window-maximized="0"
     inkscape:current-layer="Capa_1" /><g
     id="g36"
     transform="translate(-4.5,-26.9)"><polygon
       points="15.1,50.2 34.7,50.2 34.7,61 15.1,61 15.1,83.7 4.5,83.7 4.5,26.9 34.7,26.9 34.7,37.4 15.1,37.4 "
       id="polygon2"
       style="fill:#ffffff" /><path
       d="M 69,83.7 H 58.7 V 74.9 H 38.8 l -5.9,8.8 H 20.8 L 60.6,26.9 H 69 Z M 58.7,64.1 V 47.5 L 46.5,64.1 Z"
       id="path4"
       inkscape:connector-curvature="0"
       style="fill:#ffffff" /><polygon
       points="130.7,26.9 130.7,83.7 120,83.7 120,55.1 106.9,83.7 96.2,83.7 83.6,55.1 83.6,83.7 73,83.7 73,26.9 84.9,26.9 101.7,65.1 118.6,26.9 "
       id="polygon6"
       style="fill:#ffffff" /><polygon
       points="386.1,26.9 386.1,83.7 375.5,83.7 375.5,55.1 362.4,83.7 351.6,83.7 339,55.1 339,83.7 328.4,83.7 328.4,26.9 340.3,26.9 357.1,65.1 374,26.9 "
       id="polygon8"
       style="fill:#ffffff" /><rect
       x="134"
       y="26.9"
       width="11"
       height="56.799999"
       id="rect10"
       style="fill:#ffffff" /><polygon
       points="173.3,83.7 148,83.7 148,26.9 159,26.9 159,73.3 173.3,73.3 "
       id="polygon12"
       style="fill:#ffffff" /><polygon
       points="208.1,26.9 189.9,63 189.9,83.7 179.3,83.7 179.3,63 161.1,26.9 173.3,26.9 184.8,50.2 196,26.9 "
       id="polygon14"
       style="fill:#ffffff" /><path
       d="M 267.9,69"
       id="path16"
       inkscape:connector-curvature="0"
       style="fill:#ffffff" /><path
       d="M 267.8,42.6 C 263,33.4 253.4,27.2 242.3,27.2 c -15.9,0 -28.8,12.9 -28.8,28.8 0,15.9 12.9,28.8 28.8,28.8 11.2,0 20.9,-6.4 25.6,-15.6 l -13.1,0.1 c -3.2,3 -7.5,4.8 -12.2,4.8 -10,0 -18.1,-8.1 -18.1,-18.1 0,-10 8.1,-18.1 18.1,-18.1 4.7,0 8.9,1.8 12.1,4.7 z"
       id="path18"
       inkscape:connector-curvature="0"
       style="fill:#ffffff" /><path
       d="m 296.3,84.9 c -16,0 -29,-13 -29,-29 0,-16 13,-29 29,-29 16,0 29,13 29,29 0,16 -13,29 -29,29 z m 18.4,-29 c 0,-10.1 -8.2,-18.3 -18.3,-18.3 -10.1,0 -18.3,8.2 -18.3,18.3 0,10.1 8.2,18.3 18.3,18.3 10.1,0.1 18.3,-8.1 18.3,-18.3 z"
       id="path20"
       inkscape:connector-curvature="0"
       style="fill:#ffffff" /><path
       d="m 408.7,26.9 c 9.6,0.8 17.2,8.8 17.2,18.6 0,9.8 -7.6,17.8 -17.2,18.6 h -8.3 V 83.7 H 389.8 V 26.9 h 10.6 z m -8.3,10.9 v 15.4 h 8.3 c 3.6,-0.7 6.4,-3.9 6.4,-7.7 0,-3.8 -2.7,-7 -6.4,-7.7 z"
       id="path22"
       inkscape:connector-curvature="0"
       style="fill:#ffffff" /><path
       d="m 542.8,84.4 h -10.5 v -57 h 14.6 8.3 c 9.6,0.8 17.2,8.8 17.2,18.6 0,8 -5,14.8 -12.1,17.5 l 12.3,20.9 H 561 L 543.8,55 h -1 z m -6.6,-0.3 m 10.7,0 m 8.3,-30.4 c 3.6,-0.7 6.4,-3.9 6.4,-7.7 0,-3.8 -2.7,-7 -6.4,-7.7 h -12.4 v 15.4 z"
       id="path24"
       inkscape:connector-curvature="0"
       style="fill:#ffffff" /><path
       d="m 455.1,49.1 m 0,0 m -15.3,0 m -0.1,10.6 m 0,8.3 c 0.7,3.6 3.9,6.4 7.7,6.4 3.8,0 7,-2.7 7.7,-6.4 V 27.4 H 466 V 59.7 68 c -0.8,9.6 -8.8,17.2 -18.6,17.2 -9.8,0 -17.8,-7.6 -18.6,-17.2 V 59.7 27.4 h 10.9 z"
       id="path26"
       inkscape:connector-curvature="0"
       style="fill:#ffffff" /><polygon
       points="497.3,27.4 467.6,27.4 467.6,38.1 476.9,38.1 476.9,84.4 487.7,84.4 487.7,38.1 497.3,38.1 "
       id="polygon28"
       style="fill:#ffffff" /><polygon
       points="529.5,37.8 510.5,37.8 510.5,51.4 529.5,51.4 529.5,62 510.5,62 510.5,73.9 529.5,73.9 529.5,84.4 499.9,84.4 499.9,27.4 529.5,27.4 "
       id="polygon30"
       style="fill:#ffffff" /><path
       d="M 542.8,55.1"
       id="path32"
       inkscape:connector-curvature="0"
       style="fill:#ffffff" /><polygon
       points="4.5,92.7 4.5,98.2 561,98.2 572.5,92.7 "
       id="polygon34"
       style="fill:#ffffff" /></g></svg>