<?xml version="1.0" encoding="UTF-8" standalone="no"?>
<svg
   xmlns:dc="http://purl.org/dc/elements/1.1/"
   xmlns:cc="http://creativecommons.org/ns#"
   xmlns:rdf="http://www.w3.org/1999/02/22-rdf-syntax-ns#"
   xmlns:svg="http://www.w3.org/2000/svg"
   xmlns="http://www.w3.org/2000/svg"
   xmlns:sodipodi="http://sodipodi.sourceforge.net/DTD/sodipodi-0.dtd"
   xmlns:inkscape="http://www.inkscape.org/namespaces/inkscape"
   inkscape:version="1.0 (4035a4fb49, 2020-05-01)"
   sodipodi:docname="fba.svg"
   xml:space="preserve"
   enable-background="new 0 0 253.6 25"
   viewBox="0 0 263.6 35.099998"
   height="35.099998"
   width="263.60001"
   y="0px"
   x="0px"
   id="Capa_1"
   version="1.0"><metadata
   id="metadata39"><rdf:RDF><cc:Work
       rdf:about=""><dc:format>image/svg+xml</dc:format><dc:type
         rdf:resource="http://purl.org/dc/dcmitype/StillImage" /><dc:title></dc:title></cc:Work></rdf:RDF></metadata><defs
   id="defs37" /><sodipodi:namedview
   inkscape:current-layer="Capa_1"
   inkscape:window-maximized="0"
   inkscape:window-y="0"
   inkscape:window-x="0"
   inkscape:cy="17.5"
   inkscape:cx="131.8"
   inkscape:zoom="4.1364352"
   fit-margin-bottom="5"
   fit-margin-right="5"
   fit-margin-left="5"
   fit-margin-top="5"
   lock-margins="true"
   inkscape:pagecheckerboard="true"
   showgrid="false"
   id="namedview35"
   inkscape:window-height="480"
   inkscape:window-width="708"
   inkscape:pageshadow="2"
   inkscape:pageopacity="0"
   guidetolerance="10"
   gridtolerance="10"
   objecttolerance="10"
   borderopacity="1"
   bordercolor="#666666"
   pagecolor="#ffffff" />
<path
   id="path2"
   d="M 32.7,8.8 C 31.8,6.9 30.5,5.5 28.5,5 20.7,5 12.8,5 5,5 c 0,1 0,2 0,3 0.1,0 0.2,0.1 0.3,0.1 6,2.1 12,4.1 18,6.2 0.2,0.1 0.4,0.1 0.6,0.1 3,0 5.9,0 8.9,0 0.1,0 0.2,0 0.4,0 0,-1.3 0,-2.5 0,-3.7 C 33.1,10 33,9.4 32.7,8.8 Z"
   fill="#ffffff" />
<path
   id="path4"
   d="m 21.7,22.5 c 0,-2.5 0,-5 0,-7.5 0,-0.2 0,-0.3 -0.2,-0.4 -2.3,-0.8 -4.6,-1.6 -6.9,-2.4 -0.1,0 -0.1,0 -0.2,0 0,0.2 0,0.3 0,0.5 0,3.8 0,7.5 0,11.3 0,0.3 -0.1,0.4 -0.3,0.5 -0.9,0.5 -1.9,1 -2.8,1.4 -0.3,0.1 -0.4,0.3 -0.4,0.5 0,1 0,1.9 0,2.9 0,0.1 0,0.2 0,0.4 4.5,0 9,0 13.5,0 0,-2.3 0,-4.5 0,-6.8 -0.9,0 -1.8,0 -2.7,0 0,-0.2 0,-0.3 0,-0.4 z"
   fill="#ffffff" />
<path
   id="path6"
   d="m 23,21.7 c 3.4,0 6.8,0 10.1,0 0,-2 0,-4 0,-6 -3.4,0 -6.8,0 -10.1,0 0,1.9 0,3.9 0,6 z"
   fill="#ffffff" />
<path
   id="path8"
   d="m 39.5,5 h -5 c -0.2,0 -0.4,0.1 -0.4,0.4 v 23.9 c 0,0.2 0.1,0.4 0.4,0.4 h 5 c 0.2,0 0.4,-0.1 0.4,-0.4 V 5.4 C 39.9,5.1 39.8,5 39.5,5 Z"
   fill="#ffffff" />
<path
   id="path10"
   d="M 56.4,5 H 52.1 C 51.9,5 51.7,5.1 51.7,5.4 V 19.1 H 51.5 L 47.7,5.4 C 47.7,5.1 47.5,5 47.2,5 H 42 c -0.2,0 -0.4,0.1 -0.4,0.4 v 23.9 c 0,0.2 0.1,0.4 0.4,0.4 h 4.3 c 0.2,0 0.4,-0.1 0.4,-0.4 V 15.6 h 0.2 l 3.9,13.7 c 0.1,0.2 0.2,0.4 0.5,0.4 h 5.2 c 0.2,0 0.4,-0.1 0.4,-0.4 V 5.4 C 56.7,5.1 56.6,5 56.4,5 Z"
   fill="#ffffff" />
<path
   id="path12"
   d="M 69.2,5.4 C 69.2,5.1 69,5 68.8,5 h -5.6 c -0.3,0 -0.4,0.1 -0.4,0.4 l -5.4,23.9 c 0,0.2 0.1,0.4 0.3,0.4 h 5 c 0.3,0 0.4,-0.1 0.4,-0.4 l 0.7,-3.9 h 4.4 l 0.7,3.9 c 0,0.2 0.2,0.4 0.4,0.4 h 5 c 0.2,0 0.4,-0.1 0.3,-0.4 z m -4.7,15.7 1.5,-8 v 0 l 1.3,8 z"
   fill="#ffffff" />
<path
   id="path14"
   d="m 86.1,24.5 h -5 c -0.1,0 -0.2,-0.1 -0.2,-0.2 V 5.4 C 80.9,5.2 80.8,5 80.5,5 h -5 c -0.2,0 -0.4,0.1 -0.4,0.4 v 23.9 c 0,0.2 0.1,0.4 0.4,0.4 h 10.6 c 0.2,0 0.4,-0.1 0.4,-0.4 v -4.4 c 0,-0.2 -0.1,-0.4 -0.4,-0.4 z"
   fill="#ffffff" />
<path
   id="path16"
   d="m 105.2,16.9 v 0 C 107,16 108.1,14.5 108.1,11.4 108.1,7.2 106,5 101.2,5 H 94 c -0.2,0 -0.4,0.1 -0.4,0.4 v 23.9 c 0,0.2 0.1,0.4 0.4,0.4 h 7 c 4.8,0 7.4,-1.9 7.4,-7.2 0,-3.5 -1.3,-5.1 -3.2,-5.6 z M 99.4,9.8 c 0,-0.1 0.1,-0.2 0.2,-0.2 h 0.8 c 1.5,0 2,0.6 2,2.6 0,2.1 -0.5,2.7 -2,2.7 h -0.8 c -0.1,0 -0.2,-0.1 -0.2,-0.2 z m 1,15.3 h -0.8 c -0.1,0 -0.2,-0.1 -0.2,-0.2 v -5.5 c 0,-0.1 0.1,-0.2 0.2,-0.2 h 0.8 c 1.6,0 2.2,0.6 2.2,2.9 0,2.3 -0.6,3 -2.2,3 z"
   fill="#ffffff" />
<path
   id="path18"
   d="m 123.6,5 h -5 c -0.2,0 -0.4,0.1 -0.4,0.4 v 17.8 c 0,1.1 -0.5,1.7 -1.5,1.7 -0.9,0 -1.5,-0.6 -1.5,-1.7 V 5.4 C 115.2,5.2 115.1,5 114.8,5 h -5 c -0.2,0 -0.4,0.1 -0.4,0.4 v 17.2 c 0,5 2.8,7.5 7.3,7.5 4.4,0 7.3,-2.5 7.3,-7.5 V 5.4 C 124,5.1 123.9,5 123.6,5 Z"
   fill="#ffffff" />
<path
   id="path20"
   d="m 137.8,19 c 1.6,-1.2 2.6,-3.2 2.6,-6.2 0,-5.6 -3,-7.8 -7.4,-7.8 h -7 c -0.2,0 -0.4,0.1 -0.4,0.4 v 23.9 c 0,0.2 0.1,0.4 0.4,0.4 h 5 c 0.2,0 0.4,-0.1 0.4,-0.4 v -8.6 c 0,-0.1 0.1,-0.2 0.2,-0.2 h 0.8 l 2.5,8.9 c 0.1,0.2 0.2,0.3 0.5,0.3 h 5.4 c 0.2,0 0.3,-0.2 0.2,-0.4 z m -5.3,-3.3 h -0.8 c -0.1,0 -0.2,-0.1 -0.2,-0.2 v -5.4 c 0,-0.1 0.1,-0.2 0.2,-0.2 h 0.8 c 1.5,0 2.1,0.7 2.1,2.9 0,2.2 -0.7,2.9 -2.1,2.9 z"
   fill="#ffffff" />
<path
   id="path22"
   d="m 156.6,5 h -4.3 c -0.2,0 -0.4,0.1 -0.4,0.4 v 13.7 h -0.2 L 148,5.4 C 147.9,5.2 147.8,5 147.5,5 h -5.3 c -0.2,0 -0.4,0.1 -0.4,0.4 v 23.9 c 0,0.2 0.1,0.4 0.4,0.4 h 4.3 c 0.2,0 0.4,-0.1 0.4,-0.4 V 15.6 h 0.2 l 3.9,13.7 c 0.1,0.2 0.2,0.4 0.5,0.4 h 5.2 c 0.2,0 0.4,-0.1 0.4,-0.4 V 5.4 C 157,5.1 156.8,5 156.6,5 Z"
   fill="#ffffff" />
<path
   id="path24"
   d="M 175.6,5.4 C 175.6,5.2 175.4,5 175.2,5 h -5.6 c -0.3,0 -0.4,0.1 -0.4,0.4 l -5.4,23.9 c 0,0.2 0.1,0.4 0.3,0.4 h 5 c 0.3,0 0.4,-0.1 0.4,-0.4 l 0.7,-3.9 h 4.4 l 0.7,3.9 c 0,0.2 0.2,0.4 0.4,0.4 h 5 c 0.2,0 0.4,-0.1 0.3,-0.4 z m -4.8,15.7 1.5,-8 h 0.1 l 1.3,8 z"
   fill="#ffffff" />
<path
   id="path26"
   d="m 192.5,24.5 h -5 c -0.1,0 -0.2,-0.1 -0.2,-0.2 V 5.4 C 187.3,5.2 187.2,5 186.9,5 h -5 c -0.2,0 -0.4,0.1 -0.4,0.4 v 23.9 c 0,0.2 0.1,0.4 0.4,0.4 h 10.6 c 0.2,0 0.4,-0.1 0.4,-0.4 v -4.4 c -0.1,-0.2 -0.2,-0.4 -0.4,-0.4 z"
   fill="#ffffff" />
<path
   id="path28"
   d="m 202,5 h -6.8 c -0.2,0 -0.4,0.1 -0.4,0.4 v 23.9 c 0,0.2 0.1,0.4 0.4,0.4 h 5 c 0.2,0 0.4,-0.1 0.4,-0.4 v -8.2 c 0,-0.1 0.1,-0.2 0.2,-0.2 h 1.2 c 4.4,0 7.5,-2.3 7.5,-7.9 0.1,-5.6 -2.8,-8 -7.5,-8 z m -0.3,11 h -0.8 c -0.1,0 -0.2,-0.1 -0.2,-0.2 v -5.7 c 0,-0.1 0.1,-0.2 0.2,-0.2 h 0.8 c 1.5,0 2.1,0.7 2.1,3.1 0,2.4 -0.6,3 -2.1,3 z"
   fill="#ffffff" />
<path
   id="path30"
   d="m 225,5 h -5 c -0.2,0 -0.4,0.1 -0.4,0.4 v 8.9 c 0,0.1 -0.1,0.2 -0.2,0.2 h -2.7 c -0.1,0 -0.2,-0.1 -0.2,-0.2 V 5.4 C 216.5,5.2 216.4,5 216.1,5 h -5 c -0.2,0 -0.4,0.1 -0.4,0.4 v 23.9 c 0,0.2 0.1,0.4 0.4,0.4 h 5 c 0.2,0 0.4,-0.1 0.4,-0.4 v -9.5 c 0,-0.1 0.1,-0.2 0.2,-0.2 h 2.7 c 0.1,0 0.2,0.1 0.2,0.2 v 9.5 c 0,0.2 0.1,0.4 0.4,0.4 h 5 c 0.2,0 0.4,-0.1 0.4,-0.4 V 5.4 C 225.4,5.1 225.2,5 225,5 Z"
   fill="#ffffff" />
<path
   id="path32"
   d="m 237.4,5 h -2.4 -3.2 c -0.3,0 -0.4,0.1 -0.4,0.4 L 226,29.3 c 0,0.2 0.1,0.4 0.3,0.4 h 5 c 0.3,0 0.4,-0.1 0.4,-0.4 l 0.7,-3.9 h 4.4 l 0.7,3.9 c 0,0.2 0.2,0.4 0.4,0.4 h 5 c 0.2,0 0.4,-0.1 0.3,-0.4 l -3.1,-13.9 -4.8,1.6 0.7,4.1 h -2.9 l 1.5,-8 h 0.1 l 0.5,2.9 4.7,-1.6 v 0 l 0.4,-0.1 c 0,0 12,-4.1 18,-6.2 0.1,0 0.2,-0.1 0.3,-0.1 0,-1 0,-2 0,-3 -7.1,0 -14.1,0 -21.2,0 z"
   fill="#ffffff" />
</svg>
