<?xml version="1.0" encoding="utf-8"?>
<!-- Generator: Adobe Illustrator 21.1.0, SVG Export Plug-In . SVG Version: 6.00 Build 0)  -->
<svg version="1.0" id="Capa_1" xmlns="http://www.w3.org/2000/svg" xmlns:xlink="http://www.w3.org/1999/xlink" x="0px" y="0px"
	 width="253.6px" height="25px" viewBox="0 0 253.6 25" enable-background="new 0 0 253.6 25" xml:space="preserve">
<path fill="#FFFFFF" d="M27.7,3.8c-0.9-1.9-2.2-3.3-4.2-3.8C15.7,0,7.8,0,0,0c0,1,0,2,0,3c0.1,0,0.2,0.1,0.3,0.1
	c6,2.1,12,4.1,18,6.2c0.2,0.1,0.4,0.1,0.6,0.1c3,0,5.9,0,8.9,0c0.1,0,0.2,0,0.4,0c0-1.3,0-2.5,0-3.7C28.1,5,28,4.4,27.7,3.8z"/>
<path fill="#FFFFFF" d="M16.7,17.5c0-2.5,0-5,0-7.5c0-0.2,0-0.3-0.2-0.4C14.2,8.8,11.9,8,9.6,7.2c-0.1,0-0.1,0-0.2,0
	c0,0.2,0,0.3,0,0.5c0,3.8,0,7.5,0,11.3c0,0.3-0.1,0.4-0.3,0.5c-0.9,0.5-1.9,1-2.8,1.4C6,21,5.9,21.2,5.9,21.4c0,1,0,1.9,0,2.9
	c0,0.1,0,0.2,0,0.4c4.5,0,9,0,13.5,0c0-2.3,0-4.5,0-6.8c-0.9,0-1.8,0-2.7,0C16.7,17.7,16.7,17.6,16.7,17.5z"/>
<path fill="#FFFFFF" d="M18,16.7c3.4,0,6.8,0,10.1,0c0-2,0-4,0-6c-3.4,0-6.8,0-10.1,0C18,12.6,18,14.6,18,16.7z"/>
<path fill="#FFFFFF" d="M34.5,0h-5c-0.2,0-0.4,0.1-0.4,0.4v23.9c0,0.2,0.1,0.4,0.4,0.4h5c0.2,0,0.4-0.1,0.4-0.4V0.4
	C34.9,0.1,34.8,0,34.5,0z"/>
<path fill="#FFFFFF" d="M51.4,0h-4.3c-0.2,0-0.4,0.1-0.4,0.4v13.7h-0.2L42.7,0.4c0-0.3-0.2-0.4-0.5-0.4H37c-0.2,0-0.4,0.1-0.4,0.4
	v23.9c0,0.2,0.1,0.4,0.4,0.4h4.3c0.2,0,0.4-0.1,0.4-0.4V10.6h0.2l3.9,13.7c0.1,0.2,0.2,0.4,0.5,0.4h5.2c0.2,0,0.4-0.1,0.4-0.4V0.4
	C51.7,0.1,51.6,0,51.4,0z"/>
<path fill="#FFFFFF" d="M64.2,0.4C64.2,0.1,64,0,63.8,0h-5.6c-0.3,0-0.4,0.1-0.4,0.4l-5.4,23.9c0,0.2,0.1,0.4,0.3,0.4h5
	c0.3,0,0.4-0.1,0.4-0.4l0.7-3.9h4.4l0.7,3.9c0,0.2,0.2,0.4,0.4,0.4h5c0.2,0,0.4-0.1,0.3-0.4L64.2,0.4z M59.5,16.1l1.5-8l0,0l1.3,8
	H59.5z"/>
<path fill="#FFFFFF" d="M81.1,19.5h-5c-0.1,0-0.2-0.1-0.2-0.2V0.4c0-0.2-0.1-0.4-0.4-0.4h-5c-0.2,0-0.4,0.1-0.4,0.4v23.9
	c0,0.2,0.1,0.4,0.4,0.4h10.6c0.2,0,0.4-0.1,0.4-0.4v-4.4C81.5,19.7,81.4,19.5,81.1,19.5z"/>
<path fill="#FFFFFF" d="M100.2,11.9L100.2,11.9c1.8-0.9,2.9-2.4,2.9-5.5c0-4.2-2.1-6.4-6.9-6.4H89c-0.2,0-0.4,0.1-0.4,0.4v23.9
	c0,0.2,0.1,0.4,0.4,0.4h7c4.8,0,7.4-1.9,7.4-7.2C103.4,14,102.1,12.4,100.2,11.9z M94.4,4.8c0-0.1,0.1-0.2,0.2-0.2h0.8
	c1.5,0,2,0.6,2,2.6c0,2.1-0.5,2.7-2,2.7h-0.8c-0.1,0-0.2-0.1-0.2-0.2V4.8z M95.4,20.1h-0.8c-0.1,0-0.2-0.1-0.2-0.2v-5.5
	c0-0.1,0.1-0.2,0.2-0.2h0.8c1.6,0,2.2,0.6,2.2,2.9S97,20.1,95.4,20.1z"/>
<path fill="#FFFFFF" d="M118.6,0h-5c-0.2,0-0.4,0.1-0.4,0.4v17.8c0,1.1-0.5,1.7-1.5,1.7c-0.9,0-1.5-0.6-1.5-1.7V0.4
	c0-0.2-0.1-0.4-0.4-0.4h-5c-0.2,0-0.4,0.1-0.4,0.4v17.2c0,5,2.8,7.5,7.3,7.5c4.4,0,7.3-2.5,7.3-7.5V0.4C119,0.1,118.9,0,118.6,0z"/>
<path fill="#FFFFFF" d="M132.8,14c1.6-1.2,2.6-3.2,2.6-6.2c0-5.6-3-7.8-7.4-7.8h-7c-0.2,0-0.4,0.1-0.4,0.4v23.9
	c0,0.2,0.1,0.4,0.4,0.4h5c0.2,0,0.4-0.1,0.4-0.4v-8.6c0-0.1,0.1-0.2,0.2-0.2h0.8l2.5,8.9c0.1,0.2,0.2,0.3,0.5,0.3h5.4
	c0.2,0,0.3-0.2,0.2-0.4L132.8,14z M127.5,10.7h-0.8c-0.1,0-0.2-0.1-0.2-0.2V5.1c0-0.1,0.1-0.2,0.2-0.2h0.8c1.5,0,2.1,0.7,2.1,2.9
	S128.9,10.7,127.5,10.7z"/>
<path fill="#FFFFFF" d="M151.6,0h-4.3c-0.2,0-0.4,0.1-0.4,0.4v13.7h-0.2L143,0.4c-0.1-0.2-0.2-0.4-0.5-0.4h-5.3
	c-0.2,0-0.4,0.1-0.4,0.4v23.9c0,0.2,0.1,0.4,0.4,0.4h4.3c0.2,0,0.4-0.1,0.4-0.4V10.6h0.2l3.9,13.7c0.1,0.2,0.2,0.4,0.5,0.4h5.2
	c0.2,0,0.4-0.1,0.4-0.4V0.4C152,0.1,151.8,0,151.6,0z"/>
<path fill="#FFFFFF" d="M170.6,0.4c0-0.2-0.2-0.4-0.4-0.4h-5.6c-0.3,0-0.4,0.1-0.4,0.4l-5.4,23.9c0,0.2,0.1,0.4,0.3,0.4h5
	c0.3,0,0.4-0.1,0.4-0.4l0.7-3.9h4.4l0.7,3.9c0,0.2,0.2,0.4,0.4,0.4h5c0.2,0,0.4-0.1,0.3-0.4L170.6,0.4z M165.8,16.1l1.5-8h0.1l1.3,8
	H165.8z"/>
<path fill="#FFFFFF" d="M187.5,19.5h-5c-0.1,0-0.2-0.1-0.2-0.2V0.4c0-0.2-0.1-0.4-0.4-0.4h-5c-0.2,0-0.4,0.1-0.4,0.4v23.9
	c0,0.2,0.1,0.4,0.4,0.4h10.6c0.2,0,0.4-0.1,0.4-0.4v-4.4C187.8,19.7,187.7,19.5,187.5,19.5z"/>
<path fill="#FFFFFF" d="M197,0h-6.8c-0.2,0-0.4,0.1-0.4,0.4v23.9c0,0.2,0.1,0.4,0.4,0.4h5c0.2,0,0.4-0.1,0.4-0.4v-8.2
	c0-0.1,0.1-0.2,0.2-0.2h1.2c4.4,0,7.5-2.3,7.5-7.9C204.6,2.4,201.7,0,197,0z M196.7,11h-0.8c-0.1,0-0.2-0.1-0.2-0.2V5.1
	c0-0.1,0.1-0.2,0.2-0.2h0.8c1.5,0,2.1,0.7,2.1,3.1S198.2,11,196.7,11z"/>
<path fill="#FFFFFF" d="M220,0h-5c-0.2,0-0.4,0.1-0.4,0.4v8.9c0,0.1-0.1,0.2-0.2,0.2h-2.7c-0.1,0-0.2-0.1-0.2-0.2V0.4
	c0-0.2-0.1-0.4-0.4-0.4h-5c-0.2,0-0.4,0.1-0.4,0.4v23.9c0,0.2,0.1,0.4,0.4,0.4h5c0.2,0,0.4-0.1,0.4-0.4v-9.5c0-0.1,0.1-0.2,0.2-0.2
	h2.7c0.1,0,0.2,0.1,0.2,0.2v9.5c0,0.2,0.1,0.4,0.4,0.4h5c0.2,0,0.4-0.1,0.4-0.4V0.4C220.4,0.1,220.2,0,220,0z"/>
<path fill="#FFFFFF" d="M232.4,0H230h-3.2c-0.3,0-0.4,0.1-0.4,0.4L221,24.3c0,0.2,0.1,0.4,0.3,0.4h5c0.3,0,0.4-0.1,0.4-0.4l0.7-3.9
	h4.4l0.7,3.9c0,0.2,0.2,0.4,0.4,0.4h5c0.2,0,0.4-0.1,0.3-0.4l-3.1-13.9l-4.8,1.6l0.7,4.1h-2.9l1.5-8h0.1l0.5,2.9l4.7-1.6l0,0
	l0.4-0.1c0,0,12-4.1,18-6.2c0.1,0,0.2-0.1,0.3-0.1c0-1,0-2,0-3C246.5,0,239.5,0,232.4,0z"/>
</svg>
