<?xml version="1.0" encoding="UTF-8" standalone="no"?>
<svg
   xmlns:dc="http://purl.org/dc/elements/1.1/"
   xmlns:cc="http://creativecommons.org/ns#"
   xmlns:rdf="http://www.w3.org/1999/02/22-rdf-syntax-ns#"
   xmlns:svg="http://www.w3.org/2000/svg"
   xmlns="http://www.w3.org/2000/svg"
   xmlns:sodipodi="http://sodipodi.sourceforge.net/DTD/sodipodi-0.dtd"
   xmlns:inkscape="http://www.inkscape.org/namespaces/inkscape"
   sodipodi:docname="fighting.svg"
   inkscape:version="1.0 (4035a4fb49, 2020-05-01)"
   id="svg8"
   version="1.1"
   viewBox="0 0 84.831576 37.667768"
   height="142.36636"
   width="320.62329">
  <defs
     id="defs2" />
  <sodipodi:namedview
     fit-margin-bottom="5"
     fit-margin-right="5"
     fit-margin-left="5"
     fit-margin-top="5"
     lock-margins="true"
     inkscape:pagecheckerboard="true"
     inkscape:document-rotation="0"
     units="px"
     inkscape:snap-global="false"
     inkscape:window-maximized="1"
     inkscape:window-y="-8"
     inkscape:window-x="-8"
     inkscape:window-height="1017"
     inkscape:window-width="1920"
     showgrid="false"
     inkscape:current-layer="layer1"
     inkscape:document-units="mm"
     inkscape:cy="86.533689"
     inkscape:cx="130.28229"
     inkscape:zoom="1.4"
     inkscape:pageshadow="2"
     inkscape:pageopacity="0.0"
     borderopacity="1.0"
     bordercolor="#666666"
     pagecolor="#ffffff"
     id="base" />
  <metadata
     id="metadata5">
    <rdf:RDF>
      <cc:Work
         rdf:about="">
        <dc:format>image/svg+xml</dc:format>
        <dc:type
           rdf:resource="http://purl.org/dc/dcmitype/StillImage" />
        <dc:title></dc:title>
      </cc:Work>
    </rdf:RDF>
  </metadata>
  <g
     transform="translate(-9.4862943,-258.54594)"
     id="layer1"
     inkscape:groupmode="layer"
     inkscape:label="Calque 1">
    <path
       sodipodi:nodetypes="cccccccccsscccccccscccccccccccccscscc"
       inkscape:connector-curvature="0"
       id="path826"
       d="m 14.101636,274.31952 33.832466,-9.34745 -2.876138,2.19494 1.438069,0.60551 c 0,0 -0.378439,0.49198 -0.870408,0.90826 0,0 0.462522,1.01528 -0.0692,1.52024 -0.665516,0.31764 -17.830981,4.68615 -17.830981,4.68615 l -0.681192,2.27064 4.465584,-1.09747 c 0,0 -0.56766,1.02178 -0.908254,1.40021 -0.340596,0.37845 0.643346,0.6812 0.491971,1.09749 -0.151377,0.41629 -0.605503,0.15138 -0.643347,0.56766 -0.03784,0.41628 0.144884,1.24426 0.144884,1.24426 l -4.761843,0.95068 -1.438069,5.22247 -0.794721,-0.0379 -0.454127,-0.68119 c 0,0 -0.983942,0.98395 -1.286694,1.02179 -0.302751,0.0379 -0.264907,-0.3406 -0.605502,-0.3406 -0.340596,0 -0.340596,0.41629 -0.340596,0.41629 l -0.378439,-0.0378 1.021786,-4.69264 -2.762606,0.55007 c 0,0 -0.227064,-0.28517 -0.07569,-0.51222 0.151375,-0.22707 1.400225,-0.94611 1.551601,-1.21101 0.151376,-0.26491 -0.491971,-0.37844 -0.30275,-0.64335 0.189219,-0.2649 0.605502,-0.6055 0.68119,-0.79472 0.07569,-0.18922 -1.721898,-0.4352 -1.419148,-0.5109 0.302753,-0.0757 3.500563,-0.88933 3.500563,-0.88933 l 0.491974,-2.23281 -12.412808,3.02752 3.141046,-2.11927 c 0,0 0.171643,-0.64334 0.171643,-0.83256 0,-0.18922 -1.11774,-0.30275 -1.11774,-0.30275 0.03785,-0.41629 0.719035,-0.56766 0.908254,-0.87041 0.18922,-0.30276 0.18922,-0.52982 0.18922,-0.52982 z"
       style="fill:#ffffff;fill-opacity:1;stroke:none;stroke-width:0.35;stroke-linecap:butt;stroke-linejoin:miter;stroke-miterlimit:4;stroke-dasharray:none;stroke-opacity:1" />
    <path
       inkscape:connector-curvature="0"
       id="path847"
       d="m 32.93253,274.84816 0.756878,0.0757 c 0,0 0.491971,-0.47306 0.813644,-0.56767 0.321675,-0.0945 0.983944,-0.0379 0.983944,-0.0379 l -3.311344,11.23965 -0.700114,0.019 c 0,0 -0.227063,-0.35951 -0.359517,-0.35951 -0.132453,0 -0.208141,0.45412 -0.208141,0.45412 l -1.021786,0.0568 z"
       style="fill:#ffffff;fill-opacity:1;stroke:none;stroke-width:0.35;stroke-linecap:butt;stroke-linejoin:miter;stroke-miterlimit:4;stroke-dasharray:none;stroke-opacity:1" />
    <path
       sodipodi:nodetypes="cccccsscssccccccccccscc"
       inkscape:connector-curvature="0"
       id="path849"
       d="m 38.871567,273.68103 6.02339,-1.53044 c 0,0 0.0078,8.3e-4 -0.07243,0.21541 -0.08028,0.21408 -0.615473,0.29435 -0.722512,0.56196 -0.10704,0.26759 0.267595,0.50843 0.107039,0.69574 -0.160559,0.18732 -0.321117,1.68586 -0.481676,1.92671 -0.160558,0.24084 -3.880156,0.56195 -4.174512,0.80278 -0.294358,0.24085 -1.284466,1.09715 -1.552064,1.47179 -0.267596,0.37463 -1.016867,3.21116 -1.016867,3.42524 0,0.21407 0.374635,0.66899 0.668993,0.74927 0.294356,0.0803 2.006975,-0.29436 2.006975,-0.29436 l -0.03134,-1.23878 -1.547473,0.24868 0.401396,-2.89005 5.566017,-1.10986 c 0,0 -0.502221,2.58002 -0.716297,2.84762 -0.214078,0.26759 -1.005784,0.71143 -1.005784,0.71143 l -1.167967,4.31967 c 0,0 -5.367057,0.74009 -5.726574,0.6644 -0.756877,-0.81365 -0.901992,-1.25121 -0.966595,-1.76155 -0.02676,-0.47249 0.03912,-1.29851 0.190564,-2.05187 0.173029,-0.86077 1.430694,-4.66806 1.67153,-5.01594 0.933433,-1.68963 0.926812,-1.95288 2.546202,-2.74785 z"
       style="fill:#ffffff;fill-opacity:1;stroke:none;stroke-width:0.35;stroke-linecap:butt;stroke-linejoin:miter;stroke-miterlimit:4;stroke-dasharray:none;stroke-opacity:1" />
    <path
       sodipodi:nodetypes="ccccccccccccc"
       inkscape:connector-curvature="0"
       id="path851"
       d="m 46.535136,271.71459 2.255651,-0.57304 -1.238783,4.81025 2.461893,-0.37464 1.68586,-5.15028 2.400535,-0.62657 -3.604722,13.51041 -2.77517,0.38112 1.08931,-4.04719 -2.301333,-0.0267 -1.032545,4.36508 -2.95465,0.41572 z"
       style="fill:#ffffff;fill-opacity:1;stroke:none;stroke-width:0.35;stroke-linecap:butt;stroke-linejoin:miter;stroke-miterlimit:4;stroke-dasharray:none;stroke-opacity:1" />
    <path
       sodipodi:nodetypes="ccccscccccsccccccccccccccc"
       inkscape:connector-curvature="0"
       id="path853"
       d="m 55.762449,267.78249 -6.047693,1.41826 c 0,0 0,0 -0.240837,-0.29435 0,0 0.294356,-0.34788 0.240837,-0.48168 -0.05351,-0.13379 -0.668992,-0.18731 -0.668992,-0.18731 -0.04787,-0.26329 1.097146,-2.54218 1.230946,-2.70273 0.133798,-0.16056 0.03919,-1.2342 0.03919,-1.2342 l 15.882834,-4.38534 c 0,0 0.294352,-0.1338 0.240835,0.0536 -0.05352,0.18731 -0.776035,0.82955 -0.80279,0.96335 -0.0268,0.1338 0.374636,0.16056 0.374636,0.32112 0,0.16056 -1.1004,0.90064 -1.207439,1.08796 -0.107035,0.18732 0.993359,-0.25842 1.020121,-0.0979 0.02673,0.16056 -1.230944,1.1239 -1.257706,1.28446 -0.02673,0.16057 1.445024,0.90984 1.364745,1.04364 -0.08028,0.13379 -0.936591,-0.1338 -1.043631,-0.0267 -0.10704,0.10705 0.428154,0.80279 0.321119,0.88307 -0.10704,0.0803 -6.12797,1.60557 -6.12797,1.60557 l -5.137864,17.01918 -0.508435,-0.29436 -0.294358,0.37464 -0.267596,-0.37464 -0.240836,0.99011 -0.615475,-0.77603 -0.776031,0.93658 z"
       style="fill:#ffffff;fill-opacity:1;stroke:none;stroke-width:0.35;stroke-linecap:butt;stroke-linejoin:miter;stroke-miterlimit:4;stroke-dasharray:none;stroke-opacity:1" />
    <path
       sodipodi:nodetypes="ccccccsccc"
       style="fill:#ffffff;fill-opacity:1;stroke:none;stroke-width:0.35;stroke-linecap:butt;stroke-linejoin:miter;stroke-miterlimit:4;stroke-dasharray:none;stroke-opacity:1"
       d="m 59.707483,268.36607 0.870403,-0.37844 c 0,0 0.567665,0.20814 0.88934,0.11354 0.427054,0.13818 1.284591,-0.35251 1.475908,-0.52981 l -4.443619,14.56991 c -0.456739,-0.39584 -0.260873,-0.30097 -1.018308,0.20528 0,0 -0.322462,-0.2074 -0.454916,-0.2074 -0.132452,0 -0.454914,0.2007 -0.454914,0.2007 l -1.042613,0.2366 z"
       id="path917"
       inkscape:connector-curvature="0" />
    <path
       sodipodi:nodetypes="cccccccscccccccczcccccc"
       inkscape:connector-curvature="0"
       id="path923"
       d="m 60.05363,281.98356 c 1.400071,-5.28613 3.004632,-10.21607 4.238515,-14.87266 l 0.510891,0.26491 0.444669,-0.50143 0.477775,0.052 0.572393,-0.34533 c -0.07569,0.49197 -0.151382,0.98395 -0.227067,1.47592 0,0 2.016574,-2.07839 4.260134,-1.82356 2.103586,0.23893 4.043371,2.79878 4.459653,3.74487 0.113525,1.66514 -2.134942,10.71856 -2.134942,10.71856 l -0.681188,-0.004 -0.567659,-0.57239 -0.378442,0.48252 -0.851488,0.33113 -0.813648,-0.12299 2.220363,-10.16166 c 0,0 -1.299029,-1.5195 -2.365249,-1.49483 -1.066212,0.0247 -2.951822,2.06248 -2.951822,2.06248 l -2.920473,10.27519 -0.766339,-0.42574 -0.879875,0.67173 -0.842022,-0.0473 z"
       style="fill:#ffffff;fill-opacity:1;stroke:none;stroke-width:0.35;stroke-linecap:butt;stroke-linejoin:miter;stroke-miterlimit:4;stroke-dasharray:none;stroke-opacity:1" />
    <path
       inkscape:connector-curvature="0"
       id="path958"
       d="m 90.298641,261.44587 -10.554354,2.68378 c -1.949653,0.7453 -3.816972,2.70388 -4.156748,7.1244 -0.339776,4.42052 2.04776,5.8064 4.366325,6.92546 1.159283,0.55957 3.177265,0.84785 4.437906,0.5866 1.260647,-0.26127 1.36627,-0.32518 1.10205,0.38735 -2.078109,4.30052 -4.973363,6.49804 -6.857964,7.66142 -1.807002,1.08963 -7.780906,2.30029 -7.678014,2.71933 0.102886,0.41904 2.021414,0.88429 2.021414,0.88429 l -0.436103,0.78392 0.483123,0.35297 -0.02796,1.09726 1.129185,0.25571 -0.02122,0.83275 0.816821,0.62614 1.597726,-0.29995 -0.547377,0.66737 c 0,0 0.971363,0.51716 3.340063,-0.33102 2.368699,-0.84819 7.240293,-6.32709 8.699837,-8.63698 1.459537,-2.30988 2.701078,-7.95654 2.701078,-7.95654 l 2.280525,-0.35802 -1.524788,-1.06135 0.808349,-2.02334 -0.863196,-0.28718 0.06373,-1.02036 -1.63062,0.10991 -1.109788,-5.47984 3.503958,-0.81897 -0.273805,-1.14268 0.582651,-0.591 -0.998171,-0.9342 -0.01362,-0.94633 -1.016494,-0.21509 0.894054,-0.92373 z m -5.531571,6.85211 1.415004,5.38992 c 0,0 -3.093783,0.61679 -4.494545,-0.0882 -1.638111,-0.84478 -1.797463,-2.99008 -1.101427,-4.04308 0.805777,-1.15728 2.894882,-1.21114 4.180969,-1.25867 z"
       style="fill:#ffffff;fill-opacity:1;stroke:none;stroke-width:0.35;stroke-linecap:butt;stroke-linejoin:miter;stroke-miterlimit:4;stroke-dasharray:none;stroke-opacity:1" />
  </g>
</svg>
