<?xml version="1.0" encoding="UTF-8" standalone="no"?>
<svg
   xmlns:dc="http://purl.org/dc/elements/1.1/"
   xmlns:cc="http://creativecommons.org/ns#"
   xmlns:rdf="http://www.w3.org/1999/02/22-rdf-syntax-ns#"
   xmlns:svg="http://www.w3.org/2000/svg"
   xmlns="http://www.w3.org/2000/svg"
   xmlns:sodipodi="http://sodipodi.sourceforge.net/DTD/sodipodi-0.dtd"
   xmlns:inkscape="http://www.inkscape.org/namespaces/inkscape"
   id="svg8"
   version="1.1"
   viewBox="0 0 105.83333 39.687501"
   height="150"
   width="400"
   sodipodi:docname="fixedscreen.svg"
   inkscape:version="0.92.2 5c3e80d, 2017-08-06">
  <sodipodi:namedview
     pagecolor="#ffffff"
     bordercolor="#666666"
     borderopacity="1"
     objecttolerance="10"
     gridtolerance="10"
     guidetolerance="10"
     inkscape:pageopacity="0"
     inkscape:pageshadow="2"
     inkscape:window-width="1680"
     inkscape:window-height="940"
     id="namedview18"
     showgrid="false"
     showguides="true"
     inkscape:guide-bbox="true"
     inkscape:zoom="1.4743176"
     inkscape:cx="173.48792"
     inkscape:cy="38.908942"
     inkscape:window-x="0"
     inkscape:window-y="1"
     inkscape:window-maximized="1"
     inkscape:current-layer="svg8"
     inkscape:snap-global="false" />
  <defs
     id="defs2" />
  <metadata
     id="metadata5">
    <rdf:RDF>
      <cc:Work
         rdf:about="">
        <dc:format>image/svg+xml</dc:format>
        <dc:type
           rdf:resource="http://purl.org/dc/dcmitype/StillImage" />
        <dc:title></dc:title>
      </cc:Work>
    </rdf:RDF>
  </metadata>
  <g
     id="g864"
     transform="matrix(1.4585976,0,0,1.4585976,17.381624,-15.708227)"
     style="fill:#ffffff">
    <path
       inkscape:connector-curvature="0"
       d="m 5.4307152,24.11511 v -0.30069 h 1.575055 v -1.44619 h 0.3006923 v 1.74688 z M 8.4233197,19.2038 v -0.30069 h 1.5893733 v -1.43187 h 0.300693 V 19.2038 Z M 10.614078,16.56917 H 4.6861437 v 7.88959 H 7.6501109 V 21.49479 H 9.2538032 V 19.93406 H 7.6501109 V 19.51882 H 10.614078 Z M 9.8408692,20.1202 v 1.97598 H 8.2371768 v 2.94965 H 4.0990778 V 23.87169 H 2.9106272 v -9.07804 h 7.1020658 v 1.17413 h 1.188451 v 4.15242 z"
       style="font-style:normal;font-variant:normal;font-weight:normal;font-stretch:normal;font-size:medium;line-height:1.25;font-family:'Crack Man';-inkscape-font-specification:'Crack Man';letter-spacing:0px;word-spacing:0px;fill:#ffffff;fill-opacity:1;stroke:none;stroke-width:0.35796705"
       id="path819" />
    <path
       inkscape:connector-curvature="0"
       d="m 14.441193,24.11511 v -0.30069 h 1.589374 v -1.44619 h 0.286373 v 1.74688 z m 2.219396,-7.54594 h -2.963968 v 7.88959 h 2.963968 z m -3.565352,8.47666 v -1.17414 h -1.174132 v -9.07804 h 4.138099 v 1.17413 h 1.18845 v 9.07805 z"
       style="font-style:normal;font-variant:normal;font-weight:normal;font-stretch:normal;font-size:medium;line-height:1.25;font-family:'Crack Man';-inkscape-font-specification:'Crack Man';letter-spacing:0px;word-spacing:0px;fill:#ffffff;fill-opacity:1;stroke:none;stroke-width:0.35796705"
       id="path821" />
    <path
       inkscape:connector-curvature="0"
       d="m 23.010924,24.18671 v -0.3007 h 1.159813 l -0.630022,-1.28868 0.257736,-0.14319 0.830484,1.73257 z m -0.08591,-3.73718 -0.21478,-0.20046 1.703923,-3.39353 0.272055,0.14319 z m 0.443879,0.0573 1.975978,-3.93763 h -5.913615 l 1.975978,3.93763 -1.975978,3.95196 h 5.913615 z m -4.896989,4.53903 0.587066,-1.17414 h -1.775517 l 2.262352,-4.53902 -2.262352,-4.53902 h 7.832319 l -0.587066,1.17413 h 1.775517 l -2.276671,4.53902 2.276671,4.53903 z"
       style="font-style:normal;font-variant:normal;font-weight:normal;font-stretch:normal;font-size:medium;line-height:1.25;font-family:'Crack Man';-inkscape-font-specification:'Crack Man';letter-spacing:0px;word-spacing:0px;fill:#ffffff;fill-opacity:1;stroke:none;stroke-width:0.35796705"
       id="path823" />
    <path
       inkscape:connector-curvature="0"
       d="m 32.017151,24.11511 v -0.30069 h 1.575055 v -1.44619 h 0.300692 v 1.74688 z m 0,-4.91131 v -0.30069 h 1.575055 v -1.43187 h 0.300692 v 1.73256 z m 2.205077,2.29099 h -2.591682 v -0.37228 h 1.231407 V 19.8911 h -1.231407 v -0.37228 h 2.591682 v -2.94965 h -5.913616 v 7.88959 h 5.913616 z m -6.500682,3.55104 v -1.17414 h -1.18845 v -9.07804 h 7.102066 v 1.17413 h 1.18845 v 4.15242 h -1.18845 v 0.78753 h 1.18845 v 4.1381 z"
       style="font-style:normal;font-variant:normal;font-weight:normal;font-stretch:normal;font-size:medium;line-height:1.25;font-family:'Crack Man';-inkscape-font-specification:'Crack Man';letter-spacing:0px;word-spacing:0px;fill:#ffffff;fill-opacity:1;stroke:none;stroke-width:0.35796705"
       id="path825" />
    <path
       inkscape:connector-curvature="0"
       d="m 44.869285,20.5068 q 0,0.73026 -0.286374,1.38892 -0.286373,0.65866 -0.773208,1.15981 -0.486836,0.50115 -1.145495,0.80185 -0.658659,0.28637 -1.388912,0.28637 v -0.30069 q 0.615703,0 1.202769,-0.27206 0.601385,-0.27205 1.059583,-0.73025 0.472516,-0.47252 0.75889,-1.0739 0.286373,-0.60139 0.286373,-1.26005 z m -3.107154,0 q 0,0.21478 -0.143187,0.35797 -0.143187,0.14319 -0.343648,0.14319 -0.21478,0 -0.357967,-0.14319 -0.143187,-0.14319 -0.143187,-0.35797 0,-0.20046 0.143187,-0.34364 0.143187,-0.14319 0.357967,-0.14319 0.200461,0 0.343648,0.14319 0.143187,0.14318 0.143187,0.34364 z m 3.450802,0 q 0,-0.81616 -0.315011,-1.53209 -0.300692,-0.71594 -0.844802,-1.24573 -0.529791,-0.54411 -1.245725,-0.8448 -0.715934,-0.31501 -1.532099,-0.31501 H 37.32334 v 7.88959 h 3.951956 q 0.816165,0 1.532099,-0.31501 0.715934,-0.31501 1.245725,-0.8448 0.54411,-0.54411 0.844802,-1.26005 0.315011,-0.71593 0.315011,-1.5321 z m 0.601385,0 q 0,0.93072 -0.357967,1.7612 -0.357967,0.83049 -0.97367,1.44619 -0.615704,0.6157 -1.446187,0.97367 -0.830484,0.35797 -1.761198,0.35797 h -4.539022 v -1.17414 h -1.188451 v -9.07804 h 4.539022 q 1.159814,0 2.133484,0.51547 0.97367,0.50116 1.618011,1.44619 0.945033,0.64434 1.460505,1.61801 0.515473,0.97367 0.515473,2.13348 z"
       style="font-style:normal;font-variant:normal;font-weight:normal;font-stretch:normal;font-size:medium;line-height:1.25;font-family:'Crack Man';-inkscape-font-specification:'Crack Man';letter-spacing:0px;word-spacing:0px;fill:#ffffff;fill-opacity:1;stroke:none;stroke-width:0.35796705"
       id="path827" />
  </g>
  <g
     id="g857"
     transform="matrix(1.1346098,0,0,1.1346098,-33.816809,6.3487308)"
     style="fill:#ffffff">
    <path
       inkscape:connector-curvature="0"
       d="m 55.543861,21.79549 q 0,0.48683 -0.186142,0.91639 -0.171825,0.42956 -0.486836,0.75889 -0.315011,0.31501 -0.744571,0.50116 -0.415242,0.18614 -0.887758,0.18614 v -0.28638 q 0.400923,0 0.75889,-0.18614 0.372286,-0.18614 0.64434,-0.47252 0.272055,-0.30069 0.429561,-0.67297 0.171824,-0.37229 0.171824,-0.74457 z m -2.49145,-2.80647 -0.21478,-0.21478 1.331637,-1.44618 0.21478,0.20046 z m 2.82078,2.84942 q 0,-0.54411 -0.21478,-1.01662 -0.200462,-0.48684 -0.558429,-0.83049 -0.357967,-0.35797 -0.844802,-0.55843 -0.472516,-0.21478 -1.016626,-0.21478 l 1.875747,-1.87574 q -0.75889,-0.77321 -1.875747,-0.77321 -0.54411,0 -1.016627,0.20046 -0.472516,0.20046 -0.830483,0.55843 -0.357967,0.34365 -0.572748,0.83048 -0.200461,0.47252 -0.200461,1.01663 0,0.54411 0.200461,1.03094 0.214781,0.47252 0.558429,0.83049 0.357967,0.34364 0.830484,0.55842 0.486835,0.20047 1.030945,0.20047 l -1.904385,1.90438 q 0.687297,0.75889 1.904385,0.75889 0.558428,0 1.030945,-0.20046 0.486835,-0.21478 0.830483,-0.57275 0.357967,-0.35797 0.558429,-0.83048 0.21478,-0.47252 0.21478,-1.01663 z m 0.587066,0 q 0,0.64434 -0.257736,1.23141 -0.243418,0.58706 -0.687297,1.03094 -0.42956,0.42956 -1.016626,0.6873 -0.587066,0.25774 -1.260044,0.25774 -1.489143,0 -2.72055,-1.36028 l 0.157506,-0.1575 Q 49.945257,23.1844 49.343872,22.4971 l 1.360275,-1.36027 q -0.128868,-0.14319 -0.243418,-0.35797 -0.744571,-0.44388 -1.18845,-1.17413 -0.429561,-0.74457 -0.429561,-1.6037 0,-0.67297 0.257737,-1.26004 0.257736,-0.58707 0.687296,-1.01663 0.443879,-0.42956 1.016627,-0.67297 0.587066,-0.25774 1.245725,-0.25774 1.360275,0 2.72055,1.36027 l -0.157506,0.15751 q 0.630022,0.31501 1.345956,1.03095 l -1.345956,1.36027 q 0.11455,0.15751 0.229099,0.35797 0.773209,0.42956 1.188451,1.17413 0.42956,0.73025 0.42956,1.60369 z"
       style="font-style:normal;font-variant:normal;font-weight:normal;font-stretch:normal;font-size:medium;line-height:1.25;font-family:'Crack Man';-inkscape-font-specification:'Crack Man';letter-spacing:0px;word-spacing:0px;fill:#ffffff;fill-opacity:1;stroke:none;stroke-width:0.35796705"
       id="path829" />
    <path
       inkscape:connector-curvature="0"
       d="m 65.348356,22.46846 q -0.257736,0.3007 -0.443879,0.48684 -0.171824,0.18614 -0.315011,0.31501 -0.143187,0.11455 -0.272055,0.20046 -0.128868,0.0859 -0.300692,0.21478 l -0.157506,-0.25773 q 0.243418,-0.15751 0.486835,-0.37229 0.243418,-0.21478 0.501154,-0.48684 l -2.878055,-1.51778 0.128868,-0.27205 z m 0.558429,-3.72285 q -0.501154,-1.03095 -1.446187,-1.6037 -0.945033,-0.57274 -2.090528,-0.57274 -0.816165,0 -1.532099,0.31501 -0.715934,0.31501 -1.260044,0.85912 -0.529791,0.52979 -0.844802,1.24572 -0.300692,0.71594 -0.300692,1.51778 0,0.81617 0.300692,1.54642 0.315011,0.71594 0.844802,1.26005 0.529792,0.52979 1.245726,0.8448 0.730252,0.30069 1.546417,0.30069 0.572748,0 1.102539,-0.15751 0.54411,-0.17182 1.002308,-0.45819 0.458197,-0.28638 0.816164,-0.6873 0.372286,-0.40092 0.615704,-0.87344 L 62.37007,20.5068 Z m -1.618011,1.47482 1.217088,0.6157 q -0.05727,0.11455 -0.128869,0.2291 -0.05727,0.11455 -0.114549,0.2291 l 1.431868,0.71594 q -1.532099,3.03556 -4.324242,3.03556 -1.131176,0 -2.119165,-0.5298 -0.987989,-0.51547 -1.632329,-1.43186 -0.945033,-0.64434 -1.460506,-1.61801 -0.515472,-0.97367 -0.515472,-2.13349 0,-0.93071 0.357967,-1.7612 0.372285,-0.83048 0.987989,-1.44618 0.630022,-0.61571 1.446187,-0.97367 0.830483,-0.35797 1.761197,-0.35797 2.233715,0 3.679902,1.96166 1.131175,0.78753 1.832791,2.24803 z"
       style="font-style:normal;font-variant:normal;font-weight:normal;font-stretch:normal;font-size:medium;line-height:1.25;font-family:'Crack Man';-inkscape-font-specification:'Crack Man';letter-spacing:0px;word-spacing:0px;fill:#ffffff;fill-opacity:1;stroke:none;stroke-width:0.35796705"
       id="path831" />
    <path
       inkscape:connector-curvature="0"
       d="m 74.495083,18.83152 q 0,0.41524 -0.186143,0.77321 -0.171824,0.35796 -0.472516,0.6157 -0.300693,0.25774 -0.687297,0.40092 -0.386604,0.14319 -0.801846,0.14319 h -0.343649 l 2.205077,3.42217 H 72.57638 v -0.3007 h 1.059582 l -2.176439,-3.42216 h 0.887758 q 0.300692,0 0.630022,-0.12887 0.329329,-0.14319 0.601384,-0.37229 0.272055,-0.22909 0.44388,-0.51547 0.186142,-0.30069 0.186142,-0.6157 z m -1.589374,0 q 0,0.21478 -0.143186,0.35797 -0.143187,0.14318 -0.343649,0.14318 -0.21478,0 -0.357967,-0.14318 -0.143187,-0.14319 -0.143187,-0.35797 0,-0.20046 0.143187,-0.34365 0.143187,-0.14319 0.357967,-0.14319 0.200462,0 0.343649,0.14319 0.143186,0.14319 0.143186,0.34365 z m -0.200461,2.27667 q 0.42956,0 0.816165,-0.18614 0.400923,-0.18615 0.701615,-0.50116 0.300692,-0.31501 0.472517,-0.71593 0.171824,-0.41524 0.171824,-0.87344 0,-0.44388 -0.186143,-0.8448 -0.171824,-0.41525 -0.472517,-0.73026 -0.286373,-0.31501 -0.687296,-0.50115 -0.386605,-0.18614 -0.816165,-0.18614 h -3.951956 v 7.88959 h 6.114077 z m -4.539022,3.93764 v -1.17414 h -1.188451 v -9.07804 h 4.539022 q 0.687297,0 1.345956,0.41524 0.65866,0.40092 1.059583,1.08822 0.75889,0.4582 1.145494,1.08822 0.400923,0.63002 0.400923,1.44619 0,0.42956 -0.128868,0.8448 -0.128868,0.41524 -0.372285,0.77321 -0.229099,0.34365 -0.572748,0.63002 -0.329329,0.27206 -0.730252,0.42956 l 2.290989,3.53672 z"
       style="font-style:normal;font-variant:normal;font-weight:normal;font-stretch:normal;font-size:medium;line-height:1.25;font-family:'Crack Man';-inkscape-font-specification:'Crack Man';letter-spacing:0px;word-spacing:0px;fill:#ffffff;fill-opacity:1;stroke:none;stroke-width:0.35796705"
       id="path833" />
    <path
       inkscape:connector-curvature="0"
       d="M 81.461345,24.11511 V 23.81442 H 83.0364 v -1.44619 h 0.300693 v 1.74688 z m 0,-4.91131 V 18.90311 H 83.0364 v -1.43187 h 0.300693 v 1.73256 z m 2.205077,2.29099 h -2.591681 v -0.37228 h 1.231407 V 19.8911 h -1.231407 v -0.37228 h 2.591681 v -2.94965 h -5.913615 v 7.88959 h 5.913615 z m -6.500681,3.55104 V 23.87169 H 75.97729 v -9.07804 h 7.102067 v 1.17413 h 1.18845 v 4.15242 h -1.18845 v 0.78753 h 1.18845 v 4.1381 z"
       style="font-style:normal;font-variant:normal;font-weight:normal;font-stretch:normal;font-size:medium;line-height:1.25;font-family:'Crack Man';-inkscape-font-specification:'Crack Man';letter-spacing:0px;word-spacing:0px;fill:#ffffff;fill-opacity:1;stroke:none;stroke-width:0.35796705"
       id="path835" />
    <path
       inkscape:connector-curvature="0"
       d="m 90.66222,24.11511 v -0.30069 h 1.575055 v -1.44619 h 0.300692 v 1.74688 z m 0,-4.91131 v -0.30069 h 1.575055 v -1.43187 h 0.300692 v 1.73256 z m 2.205077,2.29099 h -2.591682 v -0.37228 h 1.231407 V 19.8911 h -1.231407 v -0.37228 h 2.591682 v -2.94965 h -5.913616 v 7.88959 h 5.913616 z m -6.500682,3.55104 v -1.17414 h -1.18845 v -9.07804 h 7.102066 v 1.17413 h 1.18845 v 4.15242 h -1.18845 v 0.78753 h 1.18845 v 4.1381 z"
       style="font-style:normal;font-variant:normal;font-weight:normal;font-stretch:normal;font-size:medium;line-height:1.25;font-family:'Crack Man';-inkscape-font-specification:'Crack Man';letter-spacing:0px;word-spacing:0px;fill:#ffffff;fill-opacity:1;stroke:none;stroke-width:0.35796705"
       id="path837" />
    <path
       inkscape:connector-curvature="0"
       d="m 101.28064,24.11511 v -0.30069 h 1.58938 v -1.44619 h 0.30069 v 1.74688 z m 2.17644,-7.54594 h -1.97597 v 4.92562 l -4.93995,-4.92562 v 7.88959 h 6.91592 z m -7.502986,8.47666 v -1.17414 h -1.188451 v -9.92284 l 4.939946,4.93994 v -4.09514 h 3.164431 v 1.17413 h 1.17413 v 9.07805 z"
       style="font-style:normal;font-variant:normal;font-weight:normal;font-stretch:normal;font-size:medium;line-height:1.25;font-family:'Crack Man';-inkscape-font-specification:'Crack Man';letter-spacing:0px;word-spacing:0px;fill:#ffffff;fill-opacity:1;stroke:none;stroke-width:0.35796705"
       id="path839" />
  </g>
  <path
     style="fill:#ffffff;stroke:none;stroke-width:0.30000001;stroke-linecap:round;stroke-linejoin:round;stroke-miterlimit:4;stroke-dasharray:none;stroke-opacity:1"
     d="m 13.768486,17.353367 h 5.456635 V 1.998651 h 67.129295 v 15.354716 h 5.710431 c 0.813252,0 0.809445,-1.033769 0,-1.058334 H 87.412749 V 0.94031765 H 18.166788 V 16.295033 h -4.398302 c -0.801432,0 -0.801432,1.058334 0,1.058334 z"
     id="path824"
     inkscape:connector-curvature="0"
     sodipodi:nodetypes="sccccccccccss" />
  <path
     sodipodi:nodetypes="sccccccccccss"
     inkscape:connector-curvature="0"
     id="path1139"
     d="m 13.764767,23.063799 h 5.456635 V 38.418515 H 86.350697 V 23.063799 h 5.710431 c 0.813252,0 0.809445,1.033769 0,1.058334 H 87.40903 V 39.476848 H 18.163069 V 24.122133 h -4.398302 c -0.801432,0 -0.801432,-1.058334 0,-1.058334 z"
     style="fill:#ffffff;stroke:none;stroke-width:0.30000001;stroke-linecap:round;stroke-linejoin:round;stroke-miterlimit:4;stroke-dasharray:none;stroke-opacity:1" />
</svg>
