<?xml version="1.0" encoding="UTF-8" standalone="no"?>
<svg
   xmlns:dc="http://purl.org/dc/elements/1.1/"
   xmlns:cc="http://creativecommons.org/ns#"
   xmlns:rdf="http://www.w3.org/1999/02/22-rdf-syntax-ns#"
   xmlns:svg="http://www.w3.org/2000/svg"
   xmlns="http://www.w3.org/2000/svg"
   xmlns:sodipodi="http://sodipodi.sourceforge.net/DTD/sodipodi-0.dtd"
   xmlns:inkscape="http://www.inkscape.org/namespaces/inkscape"
   inkscape:version="1.0 (4035a4fb49, 2020-05-01)"
   sodipodi:docname="gamegear.svg"
   xml:space="preserve"
   enable-background="new 0 0 387.1 127"
   viewBox="0 0 287.39999 129.63692"
   height="129.63692"
   width="287.39999"
   y="0px"
   x="0px"
   id="Layer_1"
   version="1.0"><metadata
     id="metadata22"><rdf:RDF><cc:Work
         rdf:about=""><dc:format>image/svg+xml</dc:format><dc:type
           rdf:resource="http://purl.org/dc/dcmitype/StillImage" /><dc:title></dc:title></cc:Work></rdf:RDF></metadata><defs
     id="defs20" /><sodipodi:namedview
     lock-margins="true"
     inkscape:pagecheckerboard="true"
     inkscape:document-rotation="0"
     inkscape:current-layer="Layer_1"
     inkscape:window-maximized="0"
     inkscape:window-y="0"
     inkscape:window-x="0"
     inkscape:cy="64.8"
     inkscape:cx="143.75"
     inkscape:zoom="0.70524411"
     fit-margin-bottom="5"
     fit-margin-right="5"
     fit-margin-left="5"
     fit-margin-top="5"
     showgrid="false"
     id="namedview18"
     inkscape:window-height="480"
     inkscape:window-width="712"
     inkscape:pageshadow="2"
     inkscape:pageopacity="0"
     guidetolerance="10"
     gridtolerance="10"
     objecttolerance="10"
     borderopacity="1"
     bordercolor="#666666"
     pagecolor="#ffffff" /><g
     transform="translate(-49.8,1.3369119)"
     id="g15"><g
       id="g3_1_"><path
         style="fill:#ffffff"
         inkscape:connector-curvature="0"
         d="m 85.5,115.6 c -3.3,4.5 -6.6,5.8 -8.1,6.5 -1.5,0.7 -3.6,1.2 -5.5,1.2 -5.4,0 -9.5,-1.8 -12.6,-5.2 -3,-3.5 -4.5,-8.4 -4.5,-14.7 0,-7.5 1.9,-13.9 5.7,-19.2 3.8,-5.3 8.9,-7.9 15.2,-7.9 4.8,0 8.7,1.3 11.7,4.1 3.1,2.7 4.6,6.9 4.6,12.7 h -9.2 c 0,-2.8 -0.6,-4.7 -1.8,-5.8 -1.2,-1.1 -2.9,-1.7 -5.2,-1.7 -3.7,0 -6.6,1.8 -8.6,5.4 -2,3.6 -3.1,7.7 -3.1,12.4 0,3.1 0.7,5.8 2,7.7 1.3,2 3.3,3 5.9,3 2.8,0 4.9,-0.8 6.4,-2.3 1.5,-1.5 2.7,-3.5 3.4,-6 h -8.7 l 1.4,-8.4 h 16.8 l -1.5,8 c 0.1,0 -1,5.6 -4.3,10.2 z"
         id="path5_3_" /><polygon
         style="fill:#ffffff"
         points="142,122.2 135.4,122.2 132.3,87.5 127.5,122.2 119.3,122.2 126.8,77.4 138.3,77.4 140.8,109 153.7,77.4 165.2,77.4 157.8,122.2 149.6,122.2 156,87.5 "
         id="polygon9_1_" /><polygon
         style="fill:#ffffff"
         points="170.7,113 185.6,113 184.2,122.2 160.7,122.2 168.1,77.4 191.3,77.4 189.8,86.6 175.3,86.6 173.8,94.8 187,94.8 185.6,103.5 172.4,103.5 "
         id="polygon11_1_" /><path
         style="fill:#ffffff"
         inkscape:connector-curvature="0"
         d="m 103.4,77.4 -18,44.9 h 8.8 l 3.2,-8.7 H 109 l 0.8,8.7 h 8.5 l -5.1,-44.9 z m -3.2,28.4 6.5,-17.9 1.5,17.9 z"
         id="path13_1_" /></g><g
       id="g9_1_"><path
         style="fill:#ffffff"
         inkscape:connector-curvature="0"
         d="m 236.9,115.6 c -3.3,4.5 -6.6,5.8 -8.1,6.5 -1.5,0.7 -3.6,1.2 -5.5,1.2 -5.4,0 -9.5,-1.8 -12.6,-5.2 -3,-3.5 -4.5,-8.4 -4.5,-14.7 0,-7.5 1.9,-13.9 5.7,-19.2 3.8,-5.2 8.9,-7.8 15.2,-7.8 4.8,0 8.7,1.3 11.7,4.1 3.1,2.7 4.6,6.9 4.6,12.7 h -9.2 c 0,-2.8 -0.6,-4.7 -1.8,-5.8 -1.2,-1.1 -2.9,-1.7 -5.2,-1.7 -3.7,0 -6.6,1.8 -8.6,5.4 -2,3.6 -3.1,7.7 -3.1,12.4 0,3.1 0.7,5.8 2,7.7 1.3,2 3.3,3 5.9,3 2.8,0 4.9,-0.8 6.4,-2.3 1.5,-1.5 2.7,-3.5 3.4,-6 h -8.7 l 1.4,-8.4 h 16.8 l -1.5,8.1 c 0.1,-0.2 -1,5.4 -4.3,10 z"
         id="path5_2_" /><polygon
         style="fill:#ffffff"
         points="251,113 266,113 264.4,122.2 240.9,122.2 248.4,77.4 271.6,77.4 270.2,86.6 255.6,86.6 254.1,94.8 267.3,94.8 266,103.5 252.8,103.5 "
         id="polygon15_1_" /><path
         style="fill:#ffffff"
         inkscape:connector-curvature="0"
         d="m 283.3,77.4 -18.1,44.8 h 8.8 l 3.2,-8.7 h 11.5 l 0.8,8.7 h 8.5 l -5.1,-44.9 z m -3.2,28.4 6.5,-17.9 1.5,17.9 z"
         id="path17_1_" /><path
         style="fill:#ffffff"
         inkscape:connector-curvature="0"
         d="m 311.7,97.1 2,-11 h 4.7 c 1.8,0 3,0.3 3.9,0.9 0.8,0.6 1.3,1.9 1.3,3.8 0,2.1 -0.7,3.7 -2.1,4.8 -1.4,1.1 -3.2,1.5 -5.4,1.5 z m -5.4,-19.7 -7.4,44.8 h 8.6 l 2.9,-17.1 h 4 l 6.7,17.1 h 9.8 l -7.4,-19 c 2.5,-1.3 4.8,-3.5 6.3,-5.8 1.6,-2.3 2.4,-5.1 2.4,-8.2 0,-4.2 -0.9,-7.3 -2.8,-9.1 -1.9,-1.8 -4.6,-2.8 -8.1,-2.8 z"
         id="path19_1_" /></g><path
       style="fill:#ffffff"
       inkscape:connector-curvature="0"
       d="m 125.6,25.1 c 14.1,-16.5 31.2,-25.3 38.1,-19.8 6.9,5.5 1,23.3 -13.1,39.8 -14.1,16.4 -31.2,25.3 -38.1,19.8 -6.9,-5.5 -1,-23.3 13.1,-39.8 z"
       id="path21_5_" /><path
       style="fill:#ffffff"
       inkscape:connector-curvature="0"
       d="m 182.6,25.1 c 14.1,-16.5 31.2,-25.3 38.1,-19.8 6.9,5.5 1,23.3 -13.1,39.8 -14.1,16.5 -31.2,25.3 -38.1,19.8 -6.9,-5.5 -1,-23.3 13.1,-39.8 z"
       id="path21_4_" /><path
       style="fill:#ffffff"
       inkscape:connector-curvature="0"
       d="M 237.7,25.1 C 251.8,8.6 269,-0.2 275.9,5.3 c 6.9,5.5 1,23.3 -13.1,39.8 -14.1,16.5 -31.2,25.3 -38.1,19.8 -6.9,-5.5 -1.1,-23.3 13,-39.8 z"
       id="path21_1_" /></g></svg>
