<?xml version="1.0" encoding="UTF-8" standalone="no"?>
<!-- Generator: Adobe Illustrator 21.1.0, SVG Export Plug-In . SVG Version: 6.00 Build 0)  -->

<svg
   xmlns:dc="http://purl.org/dc/elements/1.1/"
   xmlns:cc="http://creativecommons.org/ns#"
   xmlns:rdf="http://www.w3.org/1999/02/22-rdf-syntax-ns#"
   xmlns:svg="http://www.w3.org/2000/svg"
   xmlns="http://www.w3.org/2000/svg"
   xmlns:sodipodi="http://sodipodi.sourceforge.net/DTD/sodipodi-0.dtd"
   xmlns:inkscape="http://www.inkscape.org/namespaces/inkscape"
   version="1.0"
   id="Capa_1"
   x="0px"
   y="0px"
   width="557.59998"
   height="83.5"
   viewBox="0 0 557.59995 83.500003"
   enable-background="new 0 0 566.9 170.9"
   xml:space="preserve"
   sodipodi:docname="gameandwatch.svg"
   inkscape:version="0.92.2 (unknown)"><metadata
     id="metadata58"><rdf:RDF><cc:Work
         rdf:about=""><dc:format>image/svg+xml</dc:format><dc:type
           rdf:resource="http://purl.org/dc/dcmitype/StillImage" /><dc:title></dc:title></cc:Work></rdf:RDF></metadata><defs
     id="defs56" /><sodipodi:namedview
     pagecolor="#ffffff"
     bordercolor="#666666"
     borderopacity="1"
     objecttolerance="10"
     gridtolerance="10"
     guidetolerance="10"
     inkscape:pageopacity="0"
     inkscape:pageshadow="2"
     inkscape:window-width="698"
     inkscape:window-height="480"
     id="namedview54"
     showgrid="false"
     fit-margin-top="0"
     fit-margin-left="0"
     fit-margin-right="0"
     fit-margin-bottom="0"
     inkscape:zoom="0.48156639"
     inkscape:cx="278.75001"
     inkscape:cy="41.750003"
     inkscape:window-x="0"
     inkscape:window-y="0"
     inkscape:window-maximized="0"
     inkscape:current-layer="Capa_1" /><g
     id="g51"
     transform="translate(-4.7,-43.7)"><g
       id="g6"><g
         id="g4"><path
           d="m 290,95.3 6.8,-15.6 -8.5,-0.1 -4.4,10.1 -6.9,-6.2 c 5.2,-5 5.8,-6.2 6.1,-11 0.3,-4.8 -4.1,-10.8 -12.3,-10.8 -8.2,0 -11.4,6.7 -11.4,11.2 0,4.4 2.4,7.2 5.4,10 -5,3.3 -9,6.4 -9,16.1 0,7.4 6.6,14 16,14 9.4,0 13.4,-7.5 14.7,-10.2 3.1,2.9 10.2,9.3 10.2,9.3 l 5.2,-5.7 z M 271.3,69.5 c 2,0 4,1.1 4,3.6 0,2.9 -4,5.2 -4,5.2 -3.3,-2.7 -4.1,-3.2 -4.1,-5.5 0,-2.4 2.3,-3.3 4.1,-3.3 z m 0.5,35.9 c -3.1,0 -8.3,-0.9 -8.3,-6.7 0,-5.8 2.2,-7.1 7.4,-10.4 0,0 8.2,7.4 9.9,8.9 -2.6,6.8 -5.9,8.2 -9,8.2 z"
           id="path2"
           inkscape:connector-curvature="0"
           style="fill:#ffffff" /></g></g><polygon
       points="165.2,60.9 165.2,96.1 188.9,61 197.4,61 197.4,111.8 188.9,111.8 188.9,76.7 165.2,112 156.8,112 156.8,76.5 133.3,111.8 123,111.8 156.9,60.9 "
       id="polygon8"
       style="fill:#ffffff" /><polygon
       points="230.9,61 230.9,69.6 213.3,69.6 213.3,82.6 230.9,82.6 230.9,91.3 213.2,91.3 213.2,103.3 230.8,103.3 230.8,111.9 204.7,111.9 204.7,61 "
       id="polygon10"
       style="fill:#ffffff" /><g
       id="g16"><g
         id="g14"><path
           d="M 111.9,61 78.1,112.1 H 88.5 L 95.7,101 h 16.4 v 11.1 h 8.4 V 61 Z m 0.1,31.2 h -10.4 l 10.3,-15.6 z"
           id="path12"
           inkscape:connector-curvature="0"
           style="fill:#ffffff" /></g></g><g
       id="g22"><g
         id="g20"><path
           d="M 83.7,87.2 H 57.1 v 8.3 l 17.3,0.1 c -3,6.7 -9.7,11.3 -17.5,11.3 -10.6,0 -19.2,-8.6 -19.2,-19.2 0,-10.6 8.6,-19.2 19.2,-19.2 6.6,0 12.4,3.3 15.8,8.4 h 8.8 c -4.2,-9.4 -13.6,-16 -24.6,-16 -14.8,0 -26.9,12 -26.9,26.9 0,14.8 12,26.9 26.9,26.9 14.9,0 26.9,-12 26.9,-26.9 -0.1,-0.3 -0.1,-0.4 -0.1,-0.6 z"
           id="path18"
           inkscape:connector-curvature="0"
           style="fill:#ffffff" /></g></g><g
       id="g42"><g
         id="g28"><g
           id="g26"><path
             d="m 403.5,59.6 -33.8,51.1 h 10.4 l 7.2,-11.1 h 16.4 v 11.1 h 8.4 V 59.6 Z m 0,31.1 h -10.3 l 10.3,-15.6 z"
             id="path24"
             inkscape:connector-curvature="0"
             style="fill:#ffffff" /></g></g><g
         id="g34"><g
           id="g32"><path
             d="m 481.9,96.9 c -3.4,3.9 -8.4,6.4 -14,6.4 -10.2,0 -18.4,-8.3 -18.4,-18.4 0,-10.2 8.3,-18.4 18.4,-18.4 5.4,0 10.2,2.3 13.6,5.9 h 9.9 C 486.9,63.9 478,58.2 467.8,58.2 c -14.7,0 -26.7,12 -26.7,26.7 0,14.7 12,26.7 26.7,26.7 10.4,0 19.4,-6 23.8,-14.7 0,0 -9.7,0 -9.7,0 z"
             id="path30"
             inkscape:connector-curvature="0"
             style="fill:#ffffff" /></g></g><polygon
         points="331.5,110.7 354.7,75.9 354.7,110.6 363.6,110.6 397.2,59.8 386.7,59.8 363.5,95 363.5,59.9 354.8,59.9 331.5,95.1 331.5,59.8 322.7,59.8 322.7,110.7 "
         id="polygon36"
         style="fill:#ffffff" /><polygon
         points="443.3,68.3 433.5,68.3 433.5,110.5 424.8,110.5 424.8,68.4 415,68.4 415.1,59.7 443.3,59.7 "
         id="polygon38"
         style="fill:#ffffff" /><polygon
         points="502.6,110.7 502.6,89.1 518.3,89.1 518.3,110.6 527.1,110.6 527.1,59.8 518.5,59.8 518.5,80.4 502.6,80.4 502.6,59.8 494,59.8 494,110.7 "
         id="polygon40"
         style="fill:#ffffff" /></g><g
       id="Layer_3"><g
         id="g48"><g
           id="g46"><path
             d="M 553.7,43.7 H 13.3 c -4.7,0 -8.6,3.8 -8.6,8.6 v 66.3 c 0,4.7 3.8,8.6 8.6,8.6 h 540.4 c 4.7,0 8.6,-3.8 8.6,-8.6 V 52.2 c 0,-4.7 -3.9,-8.5 -8.6,-8.5 z m 7,74.7 c 0,4.1 -3.3,7.4 -7.4,7.4 H 13.7 c -4.1,0 -7.4,-3.3 -7.4,-7.4 V 52.5 c 0,-4.1 3.3,-7.4 7.4,-7.4 h 539.6 c 4.1,0 7.4,3.3 7.4,7.4 z"
             id="path44"
             inkscape:connector-curvature="0"
             style="fill:#ffffff" /></g></g></g></g></svg>