<?xml version="1.0" encoding="utf-8"?>
<!-- Generator: Adobe Illustrator 21.1.0, SVG Export Plug-In . SVG Version: 6.00 Build 0)  -->
<svg version="1.0" id="Capa_1" xmlns="http://www.w3.org/2000/svg" xmlns:xlink="http://www.w3.org/1999/xlink" x="0px" y="0px"
	 width="566.9px" height="170.9px" viewBox="0 0 566.9 170.9" enable-background="new 0 0 566.9 170.9" xml:space="preserve">
<g>
	<g>
		<g>
			<path fill="#FFFFFF" d="M290,95.3l6.8-15.6l-8.5-0.1l-4.4,10.1l-6.9-6.2c5.2-5,5.8-6.2,6.1-11c0.3-4.8-4.1-10.8-12.3-10.8
				s-11.4,6.7-11.4,11.2c0,4.4,2.4,7.2,5.4,10c-5,3.3-9,6.4-9,16.1c0,7.4,6.6,14,16,14s13.4-7.5,14.7-10.2
				c3.1,2.9,10.2,9.3,10.2,9.3l5.2-5.7L290,95.3z M271.3,69.5c2,0,4,1.1,4,3.6c0,2.9-4,5.2-4,5.2c-3.3-2.7-4.1-3.2-4.1-5.5
				C267.2,70.4,269.5,69.5,271.3,69.5z M271.8,105.4c-3.1,0-8.3-0.9-8.3-6.7c0-5.8,2.2-7.1,7.4-10.4c0,0,8.2,7.4,9.9,8.9
				C278.2,104,274.9,105.4,271.8,105.4z"/>
		</g>
	</g>
	<polygon fill="#FFFFFF" points="123,111.8 156.9,60.9 165.2,60.9 165.2,96.1 188.9,61 197.4,61 197.4,111.8 188.9,111.8 
		188.9,76.7 165.2,112 156.8,112 156.8,76.5 133.3,111.8 	"/>
	<polygon fill="#FFFFFF" points="204.7,111.9 204.7,61 230.9,61 230.9,69.6 213.3,69.6 213.3,82.6 230.9,82.6 230.9,91.3 
		213.2,91.3 213.2,103.3 230.8,103.3 230.8,111.9 	"/>
	<g>
		<g>
			<path fill="#FFFFFF" d="M111.9,61l-33.8,51.1h10.4l7.2-11.1h16.4v11.1h8.4V61H111.9z M112,92.2h-10.4l10.3-15.6L112,92.2
				L112,92.2z"/>
		</g>
	</g>
	<g>
		<g>
			<path fill="#FFFFFF" d="M83.7,87.2H57.1v8.3l17.3,0.1c-3,6.7-9.7,11.3-17.5,11.3c-10.6,0-19.2-8.6-19.2-19.2s8.6-19.2,19.2-19.2
				c6.6,0,12.4,3.3,15.8,8.4h8.8c-4.2-9.4-13.6-16-24.6-16c-14.8,0-26.9,12-26.9,26.9c0,14.8,12,26.9,26.9,26.9s26.9-12,26.9-26.9
				C83.7,87.5,83.7,87.4,83.7,87.2z"/>
		</g>
	</g>
	<g>
		<g>
			<g>
				<path fill="#FFFFFF" d="M403.5,59.6l-33.8,51.1h10.4l7.2-11.1h16.4v11.1h8.4V59.6H403.5z M403.5,90.7h-10.3l10.3-15.6V90.7z"/>
			</g>
		</g>
		<g>
			<g>
				<path fill="#FFFFFF" d="M481.9,96.9c-3.4,3.9-8.4,6.4-14,6.4c-10.2,0-18.4-8.3-18.4-18.4c0-10.2,8.3-18.4,18.4-18.4
					c5.4,0,10.2,2.3,13.6,5.9h9.9c-4.5-8.5-13.4-14.2-23.6-14.2c-14.7,0-26.7,12-26.7,26.7s12,26.7,26.7,26.7
					c10.4,0,19.4-6,23.8-14.7C491.6,96.9,481.9,96.9,481.9,96.9z"/>
			</g>
		</g>
		<polygon fill="#FFFFFF" points="322.7,59.8 322.7,110.7 331.5,110.7 354.7,75.9 354.7,110.6 363.6,110.6 397.2,59.8 386.7,59.8 
			363.5,95 363.5,59.9 354.8,59.9 331.5,95.1 331.5,59.8 		"/>
		<polygon fill="#FFFFFF" points="415.1,59.7 443.3,59.7 443.3,68.3 433.5,68.3 433.5,110.5 424.8,110.5 424.8,68.4 415,68.4 		"/>
		<polygon fill="#FFFFFF" points="494,59.8 494,110.7 502.6,110.7 502.6,89.1 518.3,89.1 518.3,110.6 527.1,110.6 527.1,59.8 
			518.5,59.8 518.5,80.4 502.6,80.4 502.6,59.8 		"/>
	</g>
	<g id="Layer_3">
		<g>
			<g>
				<path fill="#FFFFFF" d="M553.7,43.7H13.3c-4.7,0-8.6,3.8-8.6,8.6v66.3c0,4.7,3.8,8.6,8.6,8.6h540.4c4.7,0,8.6-3.8,8.6-8.6V52.2
					C562.3,47.5,558.4,43.7,553.7,43.7z M560.7,118.4c0,4.1-3.3,7.4-7.4,7.4H13.7c-4.1,0-7.4-3.3-7.4-7.4V52.5
					c0-4.1,3.3-7.4,7.4-7.4h539.6c4.1,0,7.4,3.3,7.4,7.4V118.4z"/>
			</g>
		</g>
	</g>
</g>
</svg>
