<?xml version="1.0" encoding="utf-8"?>
<!-- Generator: Adobe Illustrator 21.1.0, SVG Export Plug-In . SVG Version: 6.00 Build 0)  -->
<svg version="1.0"
	 id="Layer_1" xmlns:cc="http://creativecommons.org/ns#" xmlns:dc="http://purl.org/dc/elements/1.1/" xmlns:rdf="http://www.w3.org/1999/02/22-rdf-syntax-ns#"
	 xmlns="http://www.w3.org/2000/svg" xmlns:xlink="http://www.w3.org/1999/xlink" x="0px" y="0px" width="387.1px" height="127px"
	 viewBox="0 0 387.1 127" enable-background="new 0 0 387.1 127" xml:space="preserve">
<g>
	<g id="g3_1_">
		<path id="path5_3_" fill="#FFFFFF" d="M85.5,115.6c-3.3,4.5-6.6,5.8-8.1,6.5s-3.6,1.2-5.5,1.2c-5.4,0-9.5-1.8-12.6-5.2
			c-3-3.5-4.5-8.4-4.5-14.7c0-7.5,1.9-13.9,5.7-19.2s8.9-7.9,15.2-7.9c4.8,0,8.7,1.3,11.7,4.1c3.1,2.7,4.6,6.9,4.6,12.7h-9.2
			c0-2.8-0.6-4.7-1.8-5.8c-1.2-1.1-2.9-1.7-5.2-1.7c-3.7,0-6.6,1.8-8.6,5.4s-3.1,7.7-3.1,12.4c0,3.1,0.7,5.8,2,7.7
			c1.3,2,3.3,3,5.9,3c2.8,0,4.9-0.8,6.4-2.3s2.7-3.5,3.4-6h-8.7l1.4-8.4h16.8l-1.5,8C89.9,105.4,88.8,111,85.5,115.6L85.5,115.6z"/>
		<polygon id="polygon9_1_" fill="#FFFFFF" points="165.2,77.4 157.8,122.2 149.6,122.2 156,87.5 142,122.2 135.4,122.2 132.3,87.5 
			127.5,122.2 119.3,122.2 126.8,77.4 138.3,77.4 140.8,109 153.7,77.4 		"/>
		<polygon id="polygon11_1_" fill="#FFFFFF" points="173.8,94.8 187,94.8 185.6,103.5 172.4,103.5 170.7,113 185.6,113 184.2,122.2 
			160.7,122.2 168.1,77.4 191.3,77.4 189.8,86.6 175.3,86.6 		"/>
		<path id="path13_1_" fill="#FFFFFF" d="M103.4,77.4l-18,44.9h8.8l3.2-8.7H109l0.8,8.7h8.5l-5.1-44.9H103.4L103.4,77.4z
			 M100.2,105.8l6.5-17.9l1.5,17.9H100.2L100.2,105.8z"/>
	</g>
	<g id="g9_1_">
		<path id="path5_2_" fill="#FFFFFF" d="M236.9,115.6c-3.3,4.5-6.6,5.8-8.1,6.5s-3.6,1.2-5.5,1.2c-5.4,0-9.5-1.8-12.6-5.2
			c-3-3.5-4.5-8.4-4.5-14.7c0-7.5,1.9-13.9,5.7-19.2c3.8-5.2,8.9-7.8,15.2-7.8c4.8,0,8.7,1.3,11.7,4.1c3.1,2.7,4.6,6.9,4.6,12.7
			h-9.2c0-2.8-0.6-4.7-1.8-5.8c-1.2-1.1-2.9-1.7-5.2-1.7c-3.7,0-6.6,1.8-8.6,5.4s-3.1,7.7-3.1,12.4c0,3.1,0.7,5.8,2,7.7
			c1.3,2,3.3,3,5.9,3c2.8,0,4.9-0.8,6.4-2.3s2.7-3.5,3.4-6h-8.7l1.4-8.4h16.8l-1.5,8.1C241.3,105.4,240.2,111,236.9,115.6
			L236.9,115.6z"/>
		<polygon id="polygon15_1_" fill="#FFFFFF" points="254.1,94.8 267.3,94.8 266,103.5 252.8,103.5 251,113 266,113 264.4,122.2 
			240.9,122.2 248.4,77.4 271.6,77.4 270.2,86.6 255.6,86.6 		"/>
		<path id="path17_1_" fill="#FFFFFF" d="M283.3,77.4l-18.1,44.8h8.8l3.2-8.7h11.5l0.8,8.7h8.5l-5.1-44.9L283.3,77.4L283.3,77.4z
			 M280.1,105.8l6.5-17.9l1.5,17.9H280.1L280.1,105.8z"/>
		<path id="path19_1_" fill="#FFFFFF" d="M311.7,97.1l2-11h4.7c1.8,0,3,0.3,3.9,0.9c0.8,0.6,1.3,1.9,1.3,3.8c0,2.1-0.7,3.7-2.1,4.8
			c-1.4,1.1-3.2,1.5-5.4,1.5L311.7,97.1L311.7,97.1z M306.3,77.4l-7.4,44.8h8.6l2.9-17.1h4l6.7,17.1h9.8l-7.4-19
			c2.5-1.3,4.8-3.5,6.3-5.8c1.6-2.3,2.4-5.1,2.4-8.2c0-4.2-0.9-7.3-2.8-9.1s-4.6-2.8-8.1-2.8L306.3,77.4L306.3,77.4z"/>
	</g>
	<path id="path21_5_" fill="#FFFFFF" d="M125.6,25.1c14.1-16.5,31.2-25.3,38.1-19.8s1,23.3-13.1,39.8
		c-14.1,16.4-31.2,25.3-38.1,19.8C105.6,59.4,111.5,41.6,125.6,25.1z"/>
	<path id="path21_4_" fill="#FFFFFF" d="M182.6,25.1c14.1-16.5,31.2-25.3,38.1-19.8s1,23.3-13.1,39.8s-31.2,25.3-38.1,19.8
		C162.6,59.4,168.5,41.6,182.6,25.1z"/>
	<path id="path21_1_" fill="#FFFFFF" d="M237.7,25.1C251.8,8.6,269-0.2,275.9,5.3s1,23.3-13.1,39.8s-31.2,25.3-38.1,19.8
		C217.8,59.4,223.6,41.6,237.7,25.1z"/>
</g>
</svg>
