<?xml version="1.0" encoding="UTF-8" standalone="no"?>
<svg
   xmlns:dc="http://purl.org/dc/elements/1.1/"
   xmlns:cc="http://creativecommons.org/ns#"
   xmlns:rdf="http://www.w3.org/1999/02/22-rdf-syntax-ns#"
   xmlns:svg="http://www.w3.org/2000/svg"
   xmlns="http://www.w3.org/2000/svg"
   xmlns:sodipodi="http://sodipodi.sourceforge.net/DTD/sodipodi-0.dtd"
   xmlns:inkscape="http://www.inkscape.org/namespaces/inkscape"
   inkscape:version="1.0 (4035a4fb49, 2020-05-01)"
   sodipodi:docname="gb.svg"
   xml:space="preserve"
   enable-background="new 0 0 574.7 121.1"
   viewBox="0 0 532.7022 102.92784"
   height="102.92783"
   width="532.70221"
   y="0px"
   x="0px"
   id="Capa_1"
   version="1.0"><metadata
     id="metadata19"><rdf:RDF><cc:Work
         rdf:about=""><dc:format>image/svg+xml</dc:format><dc:type
           rdf:resource="http://purl.org/dc/dcmitype/StillImage" /><dc:title></dc:title></cc:Work></rdf:RDF></metadata><defs
     id="defs17" /><sodipodi:namedview
     lock-margins="true"
     inkscape:pagecheckerboard="true"
     inkscape:document-rotation="0"
     inkscape:current-layer="Capa_1"
     inkscape:window-maximized="0"
     inkscape:window-y="0"
     inkscape:window-x="0"
     inkscape:cy="51.438117"
     inkscape:cx="266.35223"
     inkscape:zoom="0.47503044"
     fit-margin-bottom="5"
     fit-margin-right="5"
     fit-margin-left="5"
     fit-margin-top="5"
     showgrid="false"
     id="namedview15"
     inkscape:window-height="480"
     inkscape:window-width="710"
     inkscape:pageshadow="2"
     inkscape:pageopacity="0"
     guidetolerance="10"
     gridtolerance="10"
     objecttolerance="10"
     borderopacity="1"
     bordercolor="#666666"
     pagecolor="#ffffff" /><g
     transform="translate(-20.997778,-9.0602795)"
     id="g12"><path
       style="fill:#ffffff"
       inkscape:connector-curvature="0"
       id="path2"
       d="m 107.8,105.2 12,-26.5 h 21.1 l 4.6,26.5 h 31.2 l 15.8,-49.7 10.2,49.7 h 12.2 l 23.7,-55.1 2.4,55.1 h 18.2 L 255.4,16.4 H 233.5 L 213,65.1 204,16.4 h -18 l -23.3,71.8 -12,-71.8 H 128.2 L 93.9,93.9 99.1,61.6 h -34 l -2.6,16.6 h 14.2 l -1.6,9 C 66.9,90.4 53.2,89.2 47.4,78.6 43.6,72 40,57.1 55.8,43.3 68.5,32 90.7,30 103.4,36 c 0,0 1.6,-9.4 2.8,-18.2 C 81.7,9.5 62.7,16.5 50,24.4 32.4,35.2 24,51.6 26.4,73.9 29,99.8 62.5,116 90.8,99.6 91,99.4 91.2,99.4 91.4,99.2 l -2.6,6 z m 27.2,-61 3.4,17.2 h -11 z" /><polygon
       style="fill:#ffffff"
       id="polygon4"
       points="316.1,51.4 288,51.4 290.4,35.6 322.3,35.6 325.3,16.5 274.8,16.5 260.6,105.2 311.5,105.2 314.5,86.3 282.8,86.3 285.2,70.5 312.9,70.5 " /><polygon
       style="fill:#ffffff"
       id="polygon6"
       points="498.6,63.3 491.8,105.2 510.2,105.2 515.8,68.1 548.7,16.5 527.4,16.5 509.4,45.6 498,16.5 477.1,16.5 " /><path
       style="fill:#ffffff"
       inkscape:connector-curvature="0"
       id="path8"
       d="m 459.5,17.2 c -20.1,-4.6 -41.3,11.4 -46.9,36.1 -5.6,24.5 6.2,48.3 26.3,52.9 20.1,4.6 41.3,-11.4 46.9,-35.9 5.8,-24.7 -6.1,-48.5 -26.3,-53.1 z m 7.2,52.3 c -5,14.8 -16.8,23.3 -26.3,19 -9.6,-4.4 -13.6,-19.7 -8.6,-34.5 5,-14.8 16.8,-23.3 26.3,-19 9.6,4.2 13.4,19.8 8.6,34.5 z" /><path
       style="fill:#ffffff"
       inkscape:connector-curvature="0"
       id="path10"
       d="m 380.1,105.2 c 17,0 41.7,-24.9 19.2,-45.3 23.1,-23.9 0.2,-42.7 -12.2,-42.9 -9.8,-0.2 -34.3,0 -34.3,0 h 0.2 l -14,88.2 c 0,0 29.2,0 41.1,0 z M 368.8,35.6 c 0,0 0.4,0 12,0 13,0 10.2,16.6 -2,16.6 -10,0 -12.8,0 -12.8,0 z m -5.6,34.7 c 0,0 3.8,0 15.4,0 14.6,0 14.2,17.8 -2,17.8 -10,0 -16.2,0 -16.2,0 z" /></g></svg>
