<?xml version="1.0" encoding="utf-8"?>
<!-- Generator: Adobe Illustrator 21.1.0, SVG Export Plug-In . SVG Version: 6.00 Build 0)  -->
<svg version="1.0" id="Capa_1" xmlns="http://www.w3.org/2000/svg" xmlns:xlink="http://www.w3.org/1999/xlink" x="0px" y="0px"
	 width="574.7px" height="121.1px" viewBox="0 0 574.7 121.1" enable-background="new 0 0 574.7 121.1" xml:space="preserve">
<g>
	<path fill="#FFFFFF" d="M107.8,105.2l12-26.5h21.1l4.6,26.5h31.2l15.8-49.7l10.2,49.7h12.2l23.7-55.1l2.4,55.1h18.2l-3.8-88.8
		h-21.9L213,65.1l-9-48.7h-18l-23.3,71.8l-12-71.8h-22.5L93.9,93.9l5.2-32.3h-34l-2.6,16.6h14.2l-1.6,9c-8.2,3.2-21.9,2-27.7-8.6
		C43.6,72,40,57.1,55.8,43.3C68.5,32,90.7,30,103.4,36c0,0,1.6-9.4,2.8-18.2C81.7,9.5,62.7,16.5,50,24.4
		C32.4,35.2,24,51.6,26.4,73.9C29,99.8,62.5,116,90.8,99.6c0.2-0.2,0.4-0.2,0.6-0.4l-2.6,6H107.8z M135,44.2l3.4,17.2h-11L135,44.2z
		"/>
	<polygon fill="#FFFFFF" points="314.5,86.3 282.8,86.3 285.2,70.5 312.9,70.5 316.1,51.4 288,51.4 290.4,35.6 322.3,35.6 
		325.3,16.5 274.8,16.5 260.6,105.2 311.5,105.2 	"/>
	<polygon fill="#FFFFFF" points="527.4,16.5 509.4,45.6 498,16.5 477.1,16.5 498.6,63.3 491.8,105.2 510.2,105.2 515.8,68.1 
		548.7,16.5 	"/>
	<path fill="#FFFFFF" d="M459.5,17.2c-20.1-4.6-41.3,11.4-46.9,36.1c-5.6,24.5,6.2,48.3,26.3,52.9s41.3-11.4,46.9-35.9
		C491.6,45.6,479.7,21.8,459.5,17.2z M466.7,69.5c-5,14.8-16.8,23.3-26.3,19c-9.6-4.4-13.6-19.7-8.6-34.5s16.8-23.3,26.3-19
		C467.7,39.2,471.5,54.8,466.7,69.5z"/>
	<path fill="#FFFFFF" d="M380.1,105.2c17,0,41.7-24.9,19.2-45.3c23.1-23.9,0.2-42.7-12.2-42.9c-9.8-0.2-34.3,0-34.3,0h0.2l-14,88.2
		C339,105.2,368.2,105.2,380.1,105.2z M368.8,35.6c0,0,0.4,0,12,0c13,0,10.2,16.6-2,16.6c-10,0-12.8,0-12.8,0L368.8,35.6z
		 M363.2,70.3c0,0,3.8,0,15.4,0c14.6,0,14.2,17.8-2,17.8c-10,0-16.2,0-16.2,0L363.2,70.3z"/>
</g>
</svg>
