<?xml version="1.0" encoding="utf-8"?>
<!-- Generator: Adobe Illustrator 21.1.0, SVG Export Plug-In . SVG Version: 6.00 Build 0)  -->
<svg version="1.0" id="Capa_1" xmlns="http://www.w3.org/2000/svg" xmlns:xlink="http://www.w3.org/1999/xlink" x="0px" y="0px"
	 width="386.2px" height="107.1px" viewBox="0 0 386.2 107.1" enable-background="new 0 0 386.2 107.1" xml:space="preserve">
<g>
	<path fill="#FFFFFF" d="M269.1,45.6c2.3,1,4.7,0.6,7.4-1.1c2.6-1.6,4.5-4.1,5.7-7.4c1.2-3.4,1.5-6.6,0.6-9.6s-2.4-5.1-4.9-6
		c-2.4-1-4.9-0.6-7.4,1c-2.6,1.7-4.5,4.3-5.7,7.5c-1.2,3.3-1.5,6.4-0.6,9.6C265,42.6,266.5,44.7,269.1,45.6z"/>
	<path fill="#FFFFFF" d="M238.3,29.3c1.5,0,2.6-0.4,3.5-1.1s1.5-1.6,1.6-2.6s-0.1-1.8-0.7-2.6c-0.7-0.7-1.8-1.1-3.4-1.1h-6l-1.5,7.4
		l0,0L238.3,29.3L238.3,29.3C238.2,29.3,238.3,29.3,238.3,29.3z"/>
	<polygon fill="#FFFFFF" points="117.2,25.8 113.3,33.5 118.9,33.5 	"/>
	<path fill="#FFFFFF" d="M243.5,41.6c0.1-1.1-0.4-2.1-1.2-2.8l0,0c-1-0.9-2.3-1.3-4-1.3h-7.5l-1.5,8h7.9c2.1,0,3.5-0.5,4.5-1.2
		C242.8,43.6,243.5,42.6,243.5,41.6z"/>
	<path fill="#FFFFFF" d="M332.3,13.2c2.1-2.9,0-7-3.6-7h-53.6c-4.7,0.1-9.2,1.3-13.2,3.6l-4.8,3.2c-2.1-2.3-4.1-3.9-6.2-5
		c-2.6-1.3-5.3-1.8-8.6-1.8H137l-3.4,9.5l-1.7-9.5h-23.1L108,8l-2.2-0.7C93.6,3.5,82,4.6,70.9,10.8c-5.6,3.3-9.8,7.3-12.4,12.3
		c-2.7,5.1-3.6,10.6-2.9,16.9c0.5,3.8,1.8,7.3,4.4,10.5c2.6,3.2,5.7,5.7,9.7,7.5c1.7,0.9,3.5,1.5,5.3,1.9h-1L53.6,95.1
		c-1.7,3,0.5,6.8,3.9,6.8h64c10,0,17.4-2.4,21.8-7.3l4.9,7.3h69.5v-9.2l12.5,9.2h81.3c2.6,0,4.6-2.1,4.6-4.6V63.4
		c0-1.8-1.5-3.4-3.4-3.4h-2.2l3.6-21.6L332.3,13.2z M297.6,13.2l5.6,13.1l9-13.1h10.6l-16.3,23.3l-2.8,16.6h-9.1l3.4-19l-10.8-21
		h10.5L297.6,13.2L297.6,13.2z M255.1,29.8c1.6-5.6,4.5-10,9.1-13c4.5-3.2,9.2-4.3,14.3-3.2c5,1,8.7,3.9,11.3,8.5s3.2,9.7,1.8,15.2
		c-1.5,5.6-4.5,10-9,13.1c-4.5,3.1-9.2,4.3-14.3,3.2c-5.1-1-8.9-3.9-11.4-8.6C254.4,40.5,253.8,35.2,255.1,29.8z M225.7,13.5h16.8
		c1.7,0,3.4,0.5,5.2,1.6c1.9,1.1,3.4,2.4,4.6,4.1c2.7,4.4,1.5,8.9-3.6,13.6c2.6,2.2,4,4.6,4.4,7c0.2,2.3-0.2,4.5-1.8,6.7
		c-1.5,1.9-3.2,3.5-5.5,4.7c-2.3,1.3-4.6,1.9-6.8,1.9h-20.3L225.7,13.5z M186.8,13.2h25l-1.5,8.6h-15.9l-1.2,7.2h14l-1.5,8.6H192
		l-1.2,7.2h15.9l-1.6,8.5h-25.3L186.8,13.2z M66.8,46.8c-2.1-2.3-3.2-5-3.5-7.8c-1.1-9.8,2.8-17.4,11.7-22.2c9-5,18.4-6.1,28.1-2.9
		l-1.3,8c-3.4-1.3-7.4-1.8-11.9-1.1c-4.7,0.6-8.7,1.9-11.9,4.5c-3.4,2.8-5.2,5.8-5.6,9.2c-0.2,2.4,0.2,4.6,1.5,6.7
		c1.5,2.2,3.5,3.6,6.4,4.4l7.4-0.5l0.7-4h-7l1.2-7.5h16.8L97,48.2l17-34.9h11.1l6,32.3l11.5-32.3h9l4.4,21.9l10.2-21.9h10.9l1.8,40
		h-9l-1.2-24.8l-11.8,24.8h-6.1l-5.1-22.4l-7.5,22.4h-15.4l-2.3-11.9H110l-6.1,11.9h-9.4l1.3-2.7l-0.4,0.2
		c-3.4,1.7-6.9,2.7-10.8,2.9c-3.5,0.1-6.8-0.4-10-1.6C71.4,50.8,68.8,49.1,66.8,46.8z M152.3,94.8l-11.8-18.5
		c0.5,1.3,0.6,2.9,0.6,4.5c0,9.2-6.4,14-19.3,14H107v0.1h-9.5L85.2,74.2l-8.5,14.3h8.5v6.2H64.3L81.8,67h7.4l14.9,23V67h19.6
		c5.8,0,10.5,1.3,13.5,4.1l-2.7-4.1h9.7l11.2,18.2L166.1,67h9l-17,27.8H152.3L152.3,94.8L152.3,94.8z M238.3,94.8h-5.8L210.3,78
		v16.8h-4.9v0.1h-9.6l-12.3-20.7l-8.4,14.3h8.4v6.2h-12v0.1h-8.9L180.1,67h7.4l14.9,23.2V67.1h5.7l22.5,16.6V67h7.7L238.3,94.8
		L238.3,94.8z M274.4,77.3h-8.5v-3.8h-16.4v14.6h16.4v-4.3l8.5,0.2v3.8c0,2.7-0.6,4.5-1.8,5.5c-1.1,1-3.3,1.6-6.3,1.6h-17.4
		c-3,0-5.1-0.5-6.2-1.6c-1.2-1-1.8-2.8-1.8-5.5V74c0-2.6,0.6-4.4,1.8-5.5c1.1-1.1,3.2-1.6,6.2-1.6h17.4c3.2,0,5.2,0.5,6.3,1.6
		c1.1,0.9,1.8,2.7,1.8,5.5V77.3z M309.1,94.8h-31.8V67h31.5v6.3h-23v4h13.5v6.1h-13.5v5h23.3V94.8z"/>
	<path fill="#FFFFFF" d="M123.6,73.3h-11.2v15.1h7.9c4.5,0,7.7-0.6,9.4-1.7s2.7-3.2,2.7-6.1C132.4,75.7,129.5,73.3,123.6,73.3z"/>
</g>
</svg>
