<?xml version="1.0" encoding="UTF-8" standalone="no"?>
<!-- Generator: Adobe Illustrator 21.1.0, SVG Export Plug-In . SVG Version: 6.00 Build 0)  -->

<svg
   xmlns:dc="http://purl.org/dc/elements/1.1/"
   xmlns:cc="http://creativecommons.org/ns#"
   xmlns:rdf="http://www.w3.org/1999/02/22-rdf-syntax-ns#"
   xmlns:svg="http://www.w3.org/2000/svg"
   xmlns="http://www.w3.org/2000/svg"
   xmlns:sodipodi="http://sodipodi.sourceforge.net/DTD/sodipodi-0.dtd"
   xmlns:inkscape="http://www.inkscape.org/namespaces/inkscape"
   version="1.0"
   id="Capa_1"
   x="0px"
   y="0px"
   width="280.12326"
   height="96.798683"
   viewBox="0 0 280.12325 96.798685"
   enable-background="new 0 0 386.2 107.1"
   xml:space="preserve"
   sodipodi:docname="gba.svg"
   inkscape:version="0.92.2 (unknown)"><metadata
     id="metadata21"><rdf:RDF><cc:Work
         rdf:about=""><dc:format>image/svg+xml</dc:format><dc:type
           rdf:resource="http://purl.org/dc/dcmitype/StillImage" /></cc:Work></rdf:RDF></metadata><defs
     id="defs19" /><sodipodi:namedview
     pagecolor="#ffffff"
     bordercolor="#666666"
     borderopacity="1"
     objecttolerance="10"
     gridtolerance="10"
     guidetolerance="10"
     inkscape:pageopacity="0"
     inkscape:pageshadow="2"
     inkscape:window-width="640"
     inkscape:window-height="480"
     id="namedview17"
     showgrid="false"
     fit-margin-top="0"
     fit-margin-left="0"
     fit-margin-right="0"
     fit-margin-bottom="0"
     inkscape:zoom="0.7068876"
     inkscape:cx="140.08747"
     inkscape:cy="48.350001"
     inkscape:window-x="0"
     inkscape:window-y="0"
     inkscape:window-maximized="0"
     inkscape:current-layer="Capa_1" /><g
     id="g14"
     transform="translate(-53.012533,-5.1013198)"><path
       d="m 269.1,45.6 c 2.3,1 4.7,0.6 7.4,-1.1 2.6,-1.6 4.5,-4.1 5.7,-7.4 1.2,-3.4 1.5,-6.6 0.6,-9.6 -0.9,-3 -2.4,-5.1 -4.9,-6 -2.4,-1 -4.9,-0.6 -7.4,1 -2.6,1.7 -4.5,4.3 -5.7,7.5 -1.2,3.3 -1.5,6.4 -0.6,9.6 0.8,3 2.3,5.1 4.9,6 z"
       id="path2"
       inkscape:connector-curvature="0"
       style="fill:#ffffff" /><path
       d="m 238.3,29.3 c 1.5,0 2.6,-0.4 3.5,-1.1 0.9,-0.7 1.5,-1.6 1.6,-2.6 0.1,-1 -0.1,-1.8 -0.7,-2.6 -0.7,-0.7 -1.8,-1.1 -3.4,-1.1 h -6 l -1.5,7.4 v 0 h 6.5 v 0 c -0.1,0 0,0 0,0 z"
       id="path4"
       inkscape:connector-curvature="0"
       style="fill:#ffffff" /><polygon
       points="118.9,33.5 117.2,25.8 113.3,33.5 "
       id="polygon6"
       style="fill:#ffffff" /><path
       d="m 243.5,41.6 c 0.1,-1.1 -0.4,-2.1 -1.2,-2.8 v 0 c -1,-0.9 -2.3,-1.3 -4,-1.3 h -7.5 l -1.5,8 h 7.9 c 2.1,0 3.5,-0.5 4.5,-1.2 1.1,-0.7 1.8,-1.7 1.8,-2.7 z"
       id="path8"
       inkscape:connector-curvature="0"
       style="fill:#ffffff" /><path
       d="m 332.3,13.2 c 2.1,-2.9 0,-7 -3.6,-7 h -53.6 c -4.7,0.1 -9.2,1.3 -13.2,3.6 L 257.1,13 C 255,10.7 253,9.1 250.9,8 248.3,6.7 245.6,6.2 242.3,6.2 H 137 l -3.4,9.5 -1.7,-9.5 H 108.8 L 108,8 105.8,7.3 C 93.6,3.5 82,4.6 70.9,10.8 c -5.6,3.3 -9.8,7.3 -12.4,12.3 -2.7,5.1 -3.6,10.6 -2.9,16.9 0.5,3.8 1.8,7.3 4.4,10.5 2.6,3.2 5.7,5.7 9.7,7.5 1.7,0.9 3.5,1.5 5.3,1.9 H 74 L 53.6,95.1 c -1.7,3 0.5,6.8 3.9,6.8 h 64 c 10,0 17.4,-2.4 21.8,-7.3 l 4.9,7.3 h 69.5 v -9.2 l 12.5,9.2 h 81.3 c 2.6,0 4.6,-2.1 4.6,-4.6 V 63.4 c 0,-1.8 -1.5,-3.4 -3.4,-3.4 h -2.2 l 3.6,-21.6 z m -34.7,0 5.6,13.1 9,-13.1 h 10.6 l -16.3,23.3 -2.8,16.6 h -9.1 l 3.4,-19 -10.8,-21 h 10.5 z m -42.5,16.6 c 1.6,-5.6 4.5,-10 9.1,-13 4.5,-3.2 9.2,-4.3 14.3,-3.2 5,1 8.7,3.9 11.3,8.5 2.6,4.6 3.2,9.7 1.8,15.2 -1.5,5.6 -4.5,10 -9,13.1 -4.5,3.1 -9.2,4.3 -14.3,3.2 -5.1,-1 -8.9,-3.9 -11.4,-8.6 -2.5,-4.5 -3.1,-9.8 -1.8,-15.2 z M 225.7,13.5 h 16.8 c 1.7,0 3.4,0.5 5.2,1.6 1.9,1.1 3.4,2.4 4.6,4.1 2.7,4.4 1.5,8.9 -3.6,13.6 2.6,2.2 4,4.6 4.4,7 0.2,2.3 -0.2,4.5 -1.8,6.7 -1.5,1.9 -3.2,3.5 -5.5,4.7 -2.3,1.3 -4.6,1.9 -6.8,1.9 h -20.3 z m -38.9,-0.3 h 25 l -1.5,8.6 h -15.9 l -1.2,7.2 h 14 l -1.5,8.6 H 192 l -1.2,7.2 h 15.9 l -1.6,8.5 H 179.8 Z M 66.8,46.8 C 64.7,44.5 63.6,41.8 63.3,39 62.2,29.2 66.1,21.6 75,16.8 c 9,-5 18.4,-6.1 28.1,-2.9 l -1.3,8 c -3.4,-1.3 -7.4,-1.8 -11.9,-1.1 -4.7,0.6 -8.7,1.9 -11.9,4.5 -3.4,2.8 -5.2,5.8 -5.6,9.2 -0.2,2.4 0.2,4.6 1.5,6.7 1.5,2.2 3.5,3.6 6.4,4.4 l 7.4,-0.5 0.7,-4 h -7 l 1.2,-7.5 H 99.4 L 97,48.2 114,13.3 h 11.1 l 6,32.3 11.5,-32.3 h 9 l 4.4,21.9 10.2,-21.9 h 10.9 l 1.8,40 h -9 l -1.2,-24.8 -11.8,24.8 h -6.1 l -5.1,-22.4 -7.5,22.4 H 122.8 L 120.5,41.4 H 110 l -6.1,11.9 h -9.4 l 1.3,-2.7 -0.4,0.2 c -3.4,1.7 -6.9,2.7 -10.8,2.9 -3.5,0.1 -6.8,-0.4 -10,-1.6 -3.2,-1.3 -5.8,-3 -7.8,-5.3 z m 85.5,48 -11.8,-18.5 c 0.5,1.3 0.6,2.9 0.6,4.5 0,9.2 -6.4,14 -19.3,14 H 107 v 0.1 H 97.5 L 85.2,74.2 76.7,88.5 h 8.5 v 6.2 H 64.3 L 81.8,67 h 7.4 l 14.9,23 V 67 h 19.6 c 5.8,0 10.5,1.3 13.5,4.1 L 134.5,67 h 9.7 L 155.4,85.2 166.1,67 h 9 l -17,27.8 h -5.8 z m 86,0 h -5.8 L 210.3,78 v 16.8 h -4.9 v 0.1 h -9.6 l -12.3,-20.7 -8.4,14.3 h 8.4 v 6.2 h -12 v 0.1 h -8.9 L 180.1,67 h 7.4 l 14.9,23.2 V 67.1 h 5.7 l 22.5,16.6 V 67 h 7.7 z m 36.1,-17.5 h -8.5 v -3.8 h -16.4 v 14.6 h 16.4 v -4.3 l 8.5,0.2 v 3.8 c 0,2.7 -0.6,4.5 -1.8,5.5 -1.1,1 -3.3,1.6 -6.3,1.6 h -17.4 c -3,0 -5.1,-0.5 -6.2,-1.6 -1.2,-1 -1.8,-2.8 -1.8,-5.5 V 74 c 0,-2.6 0.6,-4.4 1.8,-5.5 1.1,-1.1 3.2,-1.6 6.2,-1.6 h 17.4 c 3.2,0 5.2,0.5 6.3,1.6 1.1,0.9 1.8,2.7 1.8,5.5 z m 34.7,17.5 H 277.3 V 67 h 31.5 v 6.3 h -23 v 4 h 13.5 v 6.1 h -13.5 v 5 h 23.3 z"
       id="path10"
       inkscape:connector-curvature="0"
       style="fill:#ffffff" /><path
       d="m 123.6,73.3 h -11.2 v 15.1 h 7.9 c 4.5,0 7.7,-0.6 9.4,-1.7 1.7,-1.1 2.7,-3.2 2.7,-6.1 0,-4.9 -2.9,-7.3 -8.8,-7.3 z"
       id="path12"
       inkscape:connector-curvature="0"
       style="fill:#ffffff" /></g></svg>