<?xml version="1.0" encoding="UTF-8" standalone="no"?>
<svg
   xmlns:dc="http://purl.org/dc/elements/1.1/"
   xmlns:cc="http://creativecommons.org/ns#"
   xmlns:rdf="http://www.w3.org/1999/02/22-rdf-syntax-ns#"
   xmlns:svg="http://www.w3.org/2000/svg"
   xmlns="http://www.w3.org/2000/svg"
   xmlns:sodipodi="http://sodipodi.sourceforge.net/DTD/sodipodi-0.dtd"
   xmlns:inkscape="http://www.inkscape.org/namespaces/inkscape"
   inkscape:version="1.0 (4035a4fb49, 2020-05-01)"
   sodipodi:docname="gbc.svg"
   xml:space="preserve"
   enable-background="new 0 0 326.9 96.9"
   viewBox="0 0 264.0051 106.63615"
   height="106.63615"
   width="264.0051"
   y="0px"
   x="0px"
   id="Capa_1"
   version="1.0"><metadata
     id="metadata42"><rdf:RDF><cc:Work
         rdf:about=""><dc:format>image/svg+xml</dc:format><dc:type
           rdf:resource="http://purl.org/dc/dcmitype/StillImage" /><dc:title></dc:title></cc:Work></rdf:RDF></metadata><defs
     id="defs40" /><sodipodi:namedview
     inkscape:pagecheckerboard="true"
     lock-margins="true"
     inkscape:document-rotation="0"
     inkscape:current-layer="Capa_1"
     inkscape:window-maximized="0"
     inkscape:window-y="0"
     inkscape:window-x="0"
     inkscape:cy="53.124743"
     inkscape:cx="132.0551"
     inkscape:zoom="0.83511779"
     fit-margin-bottom="5"
     fit-margin-right="5"
     fit-margin-left="5"
     fit-margin-top="5"
     showgrid="false"
     id="namedview38"
     inkscape:window-height="480"
     inkscape:window-width="710"
     inkscape:pageshadow="2"
     inkscape:pageopacity="0"
     guidetolerance="10"
     gridtolerance="10"
     objecttolerance="10"
     borderopacity="1"
     bordercolor="#666666"
     pagecolor="#ffffff" /><g
     transform="translate(-31.394901,5.0614163)"
     id="g35"><path
       style="fill:#ffffff"
       inkscape:connector-curvature="0"
       id="path23"
       d="m 76.1,44.3 5.8,-12.9 h 10.3 l 2.2,12.9 h 15.1 l 7.7,-24.1 4.9,24.1 h 5.9 l 11.5,-26.8 1.2,26.8 h 8.8 L 147.7,1.1 H 137 L 127,24.8 122.6,1.1 h -8.7 L 102.6,36 96.9,1.2 h -11 L 69.3,38.8 71.8,23.1 H 55.3 l -1.3,8 h 6.9 l -0.8,4.4 c -4,1.6 -10.7,1 -13.5,-4.2 -1.8,-3.2 -3.5,-10.5 4.2,-17.2 6.1,-5.4 16.9,-6.4 23.1,-3.5 0,0 0.8,-4.6 1.4,-8.8 C 63.4,-2.3 54.2,1.1 48,5 39.5,10.2 35.4,18.2 36.6,29.1 c 1.3,12.6 17.6,20.5 31.3,12.5 0.1,-0.1 0.2,-0.1 0.3,-0.2 l -1.3,2.9 z M 89.3,14.6 90.9,23 h -5.3 z" /><polygon
       style="fill:#ffffff"
       id="polygon25"
       points="164.8,10.5 180.4,10.5 181.8,1.2 157.3,1.2 150.4,44.3 175.1,44.3 176.6,35.1 161.2,35.1 162.3,27.4 175.8,27.4 177.4,18.1 163.7,18.1 " /><polygon
       style="fill:#ffffff"
       id="polygon27"
       points="271.7,44.3 274.4,26.3 290.4,1.2 280.1,1.2 271.3,15.3 265.8,1.2 255.6,1.2 266.1,23.9 262.8,44.3 " /><path
       style="fill:#ffffff"
       inkscape:connector-curvature="0"
       id="path29"
       d="M 247.1,1.5 C 237.3,-0.7 227,7 224.3,19.1 c -2.7,11.9 3,23.5 12.8,25.7 9.8,2.2 20.1,-5.5 22.8,-17.5 2.8,-12 -3,-23.5 -12.8,-25.8 z m 3.5,25.5 c -2.4,7.2 -8.1,11.3 -12.8,9.2 -4.7,-2.1 -6.6,-9.6 -4.2,-16.8 2.4,-7.2 8.1,-11.3 12.8,-9.2 4.7,2 6.5,9.6 4.2,16.8 z" /><path
       style="fill:#ffffff"
       inkscape:connector-curvature="0"
       id="path31"
       d="m 208.5,44.3 c 8.2,0 20.3,-12.1 9.3,-22 11.2,-11.6 0.1,-20.8 -5.9,-20.8 -4.8,-0.1 -16.7,0 -16.7,0 h 0.1 l -6.9,42.9 c 0.1,-0.1 14.3,-0.1 20.1,-0.1 z M 203,10.5 c 0,0 0.2,0 5.8,0 6.3,0 4.9,8 -1,8 -4.8,0 -6.2,0 -6.2,0 z m -2.8,16.8 c 0,0 1.8,0 7.5,0 7.1,0 6.9,8.6 -1,8.6 -4.8,0 -7.9,0 -7.9,0 z" /><path
       style="fill:#ffffff"
       inkscape:connector-curvature="0"
       id="path33"
       d="m 234.1,87.3 c 0,0 -8,-6.5 -13.5,-11 3.7,-2 5.4,-3.4 5.4,-3.4 0,0 5,-3.4 6.2,-8.5 1.6,-5.7 -2.8,-7.9 -2.8,-7.9 0,0 -2.7,-1.9 -4.9,-2.9 -5.7,-2.8 -11,-2.2 -11,-2.2 0,0 -7.5,-0.5 -12.4,5.5 -2.2,2.9 -0.9,6.8 -0.9,6.8 0,0 0.3,0.6 0.9,3.5 0,0 0,0 0,0.1 v 0 c -4.6,-7.4 -12.5,-8.5 -12.5,-8.5 0,0 -2.5,-0.9 -8,-0.1 -10.2,1.9 -13.8,9.8 -13.8,9.8 0,0 -3.7,5.7 -2.2,12.7 v 0 0 c -2.1,-0.5 -5.7,0.4 -5.7,0.4 0,0 -4.8,1.7 -5.6,1.7 -0.3,-0.4 -0.9,-8.3 -0.7,-11.5 0.1,-5.6 -0.4,-10.2 -0.4,-10.2 0,0 -0.2,-5.4 -3.1,-8.6 -3.4,-3.5 -5.8,-1.9 -7.2,-1.2 -3.3,2.9 -1.7,6.6 -1.7,6.6 l 1.7,4.8 c 0,0 0.9,2 0.7,5.4 -0.9,-2.6 -3.1,-5 -3.1,-5 0,0 -3.4,-4.4 -10.1,-5.9 -5.7,-1.2 -10.2,1.4 -10.2,1.4 0,0 -4.1,1.6 -7.1,5 -4.8,4.7 -6.3,11.5 -6.3,11.5 0,0 -1.8,5.9 1.1,10.7 v 0 c -2.3,-0.7 -4.9,-0.2 -4.9,-0.2 0,0 -7.5,0.7 -11.4,-0.1 -6,-1.1 -5.8,-7.6 -5.8,-7.6 0,0 -0.2,-4.4 3.5,-10.2 4.5,-7.3 9.5,-8.5 9.5,-8.5 0,0 1.3,-0.5 2.4,0.2 0.7,4.2 4.8,4.2 4.8,4.2 0,0 5.8,0.4 5.5,-6.7 -0.7,-5.8 -6.3,-6.6 -8.6,-7.2 -7.1,-1.3 -11.6,2.5 -11.6,2.5 0,0 -4.8,2.5 -10.4,11.5 -3.9,5.5 -4.4,9.9 -4.4,9.9 0,0 -0.5,1.1 -0.3,5.6 -0.1,3.6 1.3,6.2 1.3,6.2 0,0 2,6.2 8.5,8.7 4,1.6 9.7,1.6 9.7,1.6 0,0 5.5,-0.1 9.8,-0.3 2.3,0.2 3.5,-1.1 3.5,-1.1 0,0 2.6,-1.7 2.3,-4.7 v 0 0 c 4.6,3.8 9.4,4.2 9.4,4.2 0,0 3.9,0.9 8.4,-0.3 4,-0.8 6.9,-2.8 6.9,-2.8 0,0 6.6,-3.7 8.4,-11.2 0,1.6 1.3,11.8 1.3,11.8 0,0 0.1,3.3 3.3,4 3.3,0.6 6.5,-1.1 7.9,-1.7 1.4,-0.6 3.2,-1.3 3.2,-1.3 0,0 1.6,-0.3 3,-0.5 3.5,-0.3 4.8,-1 4.8,-1 0,0 1.4,-0.2 2.3,-1.6 v 0 0 c 3.3,3.1 4.7,3.1 4.8,3.3 4.4,1.9 9.4,0.9 9.4,0.9 0,0 6.4,-0.6 12.2,-5.1 4.7,-3.4 6.7,-8.4 6.7,-8.4 0,0 0.2,4.2 -0.5,5.1 -0.9,1.9 -0.8,3.7 -0.8,3.7 0,0 -0.6,5.6 5.9,6.5 4.5,0 5,-3.7 5,-5.3 0.3,-1.3 0.2,-7 0.2,-7 l 5.8,4.8 c 0,0 4.2,3.5 6.7,5.5 2.5,2 3.2,2.4 3.2,2.4 0,0 0.6,0.7 2.5,0.4 1.6,0 3,-1.4 3,-1.4 0,0 1.8,-1.4 2.3,-3.7 0.6,-2.8 -1.5,-4.1 -1.5,-4.1 z M 132.4,81 c 0,0 -2.6,4.7 -8.4,4.1 -6.8,-0.7 -7.7,-6.7 -7.7,-6.7 0,0 -1,-4.4 3.3,-8.2 4.3,-3.6 8.7,-3 8.7,-3 0,0 3,0.3 4.5,5.2 2,6.1 -0.4,8.6 -0.4,8.6 z m 56.4,1.3 c -7.4,4.4 -11.9,-0.4 -11.9,-0.4 0,0 -2,-1.4 -2.5,-5.4 -0.3,-4.8 4.4,-7.2 4.4,-7.2 0,0 2.5,-1.6 5.6,-1.3 3.1,0.2 4.1,0 6.6,1.9 2.4,2.1 2.2,3.7 2.2,3.7 0,0 0.8,5.3 -4.4,8.7 z m 23.4,-13.4 -0.5,-6.8 c 0,0 4.8,-0.1 6.7,0.2 3.9,0.6 3.7,1.6 3.7,1.6 0,0 -0.1,1.4 -3.1,2.7 -3.2,1.7 -6.8,2.3 -6.8,2.3 z" /></g></svg>
