<?xml version="1.0" encoding="utf-8"?>
<!-- Generator: Adobe Illustrator 21.1.0, SVG Export Plug-In . SVG Version: 6.00 Build 0)  -->
<svg version="1.0" id="Capa_1" xmlns="http://www.w3.org/2000/svg" xmlns:xlink="http://www.w3.org/1999/xlink" x="0px" y="0px"
	 width="326.9px" height="96.9px" viewBox="0 0 326.9 96.9" enable-background="new 0 0 326.9 96.9" xml:space="preserve">
<g>
	<path fill="#FFFFFF" d="M76.1,44.3l5.8-12.9h10.3l2.2,12.9h15.1l7.7-24.1l4.9,24.1h5.9l11.5-26.8l1.2,26.8h8.8l-1.8-43.2H137
		l-10,23.7l-4.4-23.7h-8.7L102.6,36L96.9,1.2h-11L69.3,38.8l2.5-15.7H55.3l-1.3,8h6.9l-0.8,4.4c-4,1.6-10.7,1-13.5-4.2
		c-1.8-3.2-3.5-10.5,4.2-17.2c6.1-5.4,16.9-6.4,23.1-3.5c0,0,0.8-4.6,1.4-8.8C63.4-2.3,54.2,1.1,48,5c-8.5,5.2-12.6,13.2-11.4,24.1
		c1.3,12.6,17.6,20.5,31.3,12.5c0.1-0.1,0.2-0.1,0.3-0.2l-1.3,2.9H76.1z M89.3,14.6l1.6,8.4h-5.3L89.3,14.6z"/>
	<polygon fill="#FFFFFF" points="176.6,35.1 161.2,35.1 162.3,27.4 175.8,27.4 177.4,18.1 163.7,18.1 164.8,10.5 180.4,10.5 
		181.8,1.2 157.3,1.2 150.4,44.3 175.1,44.3 	"/>
	<polygon fill="#FFFFFF" points="280.1,1.2 271.3,15.3 265.8,1.2 255.6,1.2 266.1,23.9 262.8,44.3 271.7,44.3 274.4,26.3 290.4,1.2 
			"/>
	<path fill="#FFFFFF" d="M247.1,1.5C237.3-0.7,227,7,224.3,19.1c-2.7,11.9,3,23.5,12.8,25.7c9.8,2.2,20.1-5.5,22.8-17.5
		C262.7,15.3,256.9,3.8,247.1,1.5z M250.6,27c-2.4,7.2-8.1,11.3-12.8,9.2s-6.6-9.6-4.2-16.8s8.1-11.3,12.8-9.2
		C251.1,12.2,252.9,19.8,250.6,27z"/>
	<path fill="#FFFFFF" d="M208.5,44.3c8.2,0,20.3-12.1,9.3-22c11.2-11.6,0.1-20.8-5.9-20.8c-4.8-0.1-16.7,0-16.7,0h0.1l-6.9,42.9
		C188.5,44.3,202.7,44.3,208.5,44.3z M203,10.5c0,0,0.2,0,5.8,0c6.3,0,4.9,8-1,8c-4.8,0-6.2,0-6.2,0L203,10.5z M200.2,27.3
		c0,0,1.8,0,7.5,0c7.1,0,6.9,8.6-1,8.6c-4.8,0-7.9,0-7.9,0L200.2,27.3z"/>
	<path fill="#FFFFFF" d="M234.1,87.3c0,0-8-6.5-13.5-11c3.7-2,5.4-3.4,5.4-3.4s5-3.4,6.2-8.5c1.6-5.7-2.8-7.9-2.8-7.9
		s-2.7-1.9-4.9-2.9c-5.7-2.8-11-2.2-11-2.2s-7.5-0.5-12.4,5.5c-2.2,2.9-0.9,6.8-0.9,6.8s0.3,0.6,0.9,3.5c0,0,0,0,0,0.1l0,0
		c-4.6-7.4-12.5-8.5-12.5-8.5s-2.5-0.9-8-0.1c-10.2,1.9-13.8,9.8-13.8,9.8s-3.7,5.7-2.2,12.7l0,0l0,0c-2.1-0.5-5.7,0.4-5.7,0.4
		s-4.8,1.7-5.6,1.7c-0.3-0.4-0.9-8.3-0.7-11.5c0.1-5.6-0.4-10.2-0.4-10.2s-0.2-5.4-3.1-8.6c-3.4-3.5-5.8-1.9-7.2-1.2
		c-3.3,2.9-1.7,6.6-1.7,6.6l1.7,4.8c0,0,0.9,2,0.7,5.4c-0.9-2.6-3.1-5-3.1-5s-3.4-4.4-10.1-5.9c-5.7-1.2-10.2,1.4-10.2,1.4
		s-4.1,1.6-7.1,5c-4.8,4.7-6.3,11.5-6.3,11.5s-1.8,5.9,1.1,10.7l0,0c-2.3-0.7-4.9-0.2-4.9-0.2s-7.5,0.7-11.4-0.1
		c-6-1.1-5.8-7.6-5.8-7.6s-0.2-4.4,3.5-10.2c4.5-7.3,9.5-8.5,9.5-8.5s1.3-0.5,2.4,0.2c0.7,4.2,4.8,4.2,4.8,4.2s5.8,0.4,5.5-6.7
		c-0.7-5.8-6.3-6.6-8.6-7.2c-7.1-1.3-11.6,2.5-11.6,2.5s-4.8,2.5-10.4,11.5c-3.9,5.5-4.4,9.9-4.4,9.9s-0.5,1.1-0.3,5.6
		c-0.1,3.6,1.3,6.2,1.3,6.2s2,6.2,8.5,8.7c4,1.6,9.7,1.6,9.7,1.6s5.5-0.1,9.8-0.3c2.3,0.2,3.5-1.1,3.5-1.1s2.6-1.7,2.3-4.7l0,0l0,0
		c4.6,3.8,9.4,4.2,9.4,4.2s3.9,0.9,8.4-0.3c4-0.8,6.9-2.8,6.9-2.8s6.6-3.7,8.4-11.2c0,1.6,1.3,11.8,1.3,11.8s0.1,3.3,3.3,4
		c3.3,0.6,6.5-1.1,7.9-1.7s3.2-1.3,3.2-1.3s1.6-0.3,3-0.5c3.5-0.3,4.8-1,4.8-1s1.4-0.2,2.3-1.6l0,0l0,0c3.3,3.1,4.7,3.1,4.8,3.3
		c4.4,1.9,9.4,0.9,9.4,0.9s6.4-0.6,12.2-5.1c4.7-3.4,6.7-8.4,6.7-8.4s0.2,4.2-0.5,5.1c-0.9,1.9-0.8,3.7-0.8,3.7s-0.6,5.6,5.9,6.5
		c4.5,0,5-3.7,5-5.3c0.3-1.3,0.2-7,0.2-7l5.8,4.8c0,0,4.2,3.5,6.7,5.5s3.2,2.4,3.2,2.4s0.6,0.7,2.5,0.4c1.6,0,3-1.4,3-1.4
		s1.8-1.4,2.3-3.7C236.2,88.6,234.1,87.3,234.1,87.3z M132.4,81c0,0-2.6,4.7-8.4,4.1c-6.8-0.7-7.7-6.7-7.7-6.7s-1-4.4,3.3-8.2
		c4.3-3.6,8.7-3,8.7-3s3,0.3,4.5,5.2C134.8,78.5,132.4,81,132.4,81z M188.8,82.3c-7.4,4.4-11.9-0.4-11.9-0.4s-2-1.4-2.5-5.4
		c-0.3-4.8,4.4-7.2,4.4-7.2s2.5-1.6,5.6-1.3c3.1,0.2,4.1,0,6.6,1.9c2.4,2.1,2.2,3.7,2.2,3.7S194,78.9,188.8,82.3z M212.2,68.9
		l-0.5-6.8c0,0,4.8-0.1,6.7,0.2c3.9,0.6,3.7,1.6,3.7,1.6s-0.1,1.4-3.1,2.7C215.8,68.3,212.2,68.9,212.2,68.9z"/>
</g>
</svg>
