<?xml version="1.0" encoding="utf-8"?>
<!-- Generator: Adobe Illustrator 21.1.0, SVG Export Plug-In . SVG Version: 6.00 Build 0)  -->
<svg version="1.0" id="Capa_1" xmlns="http://www.w3.org/2000/svg" xmlns:xlink="http://www.w3.org/1999/xlink" x="0px" y="0px"
	 width="432.9px" height="198.6px" viewBox="0 0 432.9 198.6" enable-background="new 0 0 432.9 198.6" xml:space="preserve">
<g>
	<path fill="#FFFFFF" d="M401.4,93.9l-0.1-0.1H294.1l-28.9-33.9h-97l-28.9,33.9H31.6l-26,14.7v32.4l25.9,14.6l0.1,0.1h369.6L427,141
		l0.2-0.1v-32.4L401.4,93.9z M423.5,138.1l-23.9,13.4h-366L9.7,138.1v-26.8l23.9-13.4h108.1L170.6,64h0.1h91.5h0.2l28.9,33.9h108.1
		l24,13.4L423.5,138.1L423.5,138.1z"/>
	<path id="path16" fill="#FFFFFF" d="M240.8,73.4L234,94.1h3.3l6.8-19.9c0.2-0.9,1-1.6,1.9-1.6s1.6,0.7,1.9,1.6l5.8,16.9h-9v3h13.4
		l-6.8-20.7c-0.7-2.3-2.7-3.9-5.3-3.9C243.5,69.5,241.5,71.1,240.8,73.4z M244.8,86.3l1.2-3.6l1.3,3.6H244.8z M244.3,76.2l-6.1,17.9
		h3.9l2.5-7.4v3.5h7.9l-4.7-14c-0.2-0.8-1-3-1.8-3C245.3,73.1,244.5,75.4,244.3,76.2L244.3,76.2z M222.9,73.4h11.7v-3.3h-12
		c-3.3,0-5.9,2.7-5.9,5.9v12.3c0,3.3,2.6,5.9,5.9,5.9h12V78.5h-9.5v3.1h6.2v9.3h-8.4c-1.6,0-2.8-1.3-2.8-2.8V76.2
		C220.1,74.7,221.3,73.4,222.9,73.4z M225.1,82.4v3.3h1.9v0.8h-1.9c-0.4,0-0.8-0.4-0.8-0.8v-7.3c0-0.4,0.4-0.8,0.8-0.8h9.5v-3.3
		h-10.9c-1.6,0-2.8,1.3-2.8,2.8v10.1c0,1.6,1.3,2.8,2.8,2.8h6.7v-7.6H225.1L225.1,82.4z M203.5,73.4h11.8v-3.3h-12
		c-3.3,0-5.9,2.7-5.9,5.9v12.2c0,3.3,2.6,5.9,5.9,5.9h12v-3.3h-11.7c-1.6,0-2.8-1.3-2.8-2.8V76.3C200.8,74.7,202,73.4,203.5,73.4
		L203.5,73.4z M212.8,81.5v-3.1h-7.9c0-0.4,0.4-0.8,0.8-0.8h9.6v-3.3h-10.9c-1.6,0-2.8,1.3-2.8,2.8v4.4H212.8L212.8,81.5z
		 M212.8,82.6v3.1h-7.9c0,0.4,0.4,0.8,0.8,0.8h9.6v3.3h-10.9c-1.6,0-2.8-1.3-2.8-2.8v-4.4H212.8L212.8,82.6z M184,86.9h-7v3h10.7
		h0.1c2-0.1,3.6-1.7,3.6-3.8s-1.7-3.8-3.8-3.8h-4.2c-1.7-0.7-3.2-2.4-3.2-4.4c0-2.5,2.4-4.6,4.9-4.6h10.5V70h-10.9
		c-4.3,0-7.9,3.5-7.9,7.9c0,4.3,3.8,7.9,8.1,7.9l0,0l0,0h2.5c0.3,0,0.6,0.2,0.6,0.6c0,0.3-0.2,0.6-0.6,0.6L184,86.9L184,86.9z
		 M188.7,77.4h7v-3.1H185h-0.1c-2,0.1-3.6,1.7-3.6,3.8c0,2.1,1.7,3.8,3.8,3.8h4.2c1.7,0.7,3.2,2.4,3.2,4.3c0,2.5-2.4,4.6-4.9,4.6
		h-10.5v3.3h10.8c4.3,0,7.9-3.5,7.9-7.9c0-4.3-3.8-7.9-8.1-7.9v0.1v-0.1h-2.5c-0.3,0-0.6-0.2-0.6-0.6c0-0.3,0.2-0.6,0.6-0.6
		L188.7,77.4L188.7,77.4z"/>
	<polygon id="polygon37" fill="#FFFFFF" points="199.5,105.4 199.5,144.1 186.5,144.1 186.5,129.8 161.5,115.6 161.5,144.1 
		148.5,144.1 148.5,105.4 162.1,105.4 186.5,119.3 186.5,105.4 	"/>
	<rect id="rect58" x="327.5" y="105.2" fill="#FFFFFF" width="13.6" height="38.9"/>
	<polygon id="polygon79" fill="#FFFFFF" points="244.1,113 221.9,113 221.9,120.8 248.6,120.8 235.8,128.6 221.9,128.6 221.9,136.4 
		258.1,136.4 245.3,144.2 208.6,144.2 208.6,114.1 221.9,105.2 257,105.2 	"/>
	<polygon id="polygon100" fill="#FFFFFF" points="125.9,113.2 103.8,113.2 103.8,120.9 130.4,120.9 117.6,128.7 103.8,128.7 
		103.8,136.4 139.7,136.4 127,144.1 90.6,144.1 90.6,114.3 103.8,105.4 138.7,105.4 	"/>
	<polygon id="polygon121" fill="#FFFFFF" points="28.2,114.3 41.5,105.4 81.8,105.4 69.1,113.2 41.5,113.2 41.5,136.4 66.3,136.4 
		66.3,127 50.9,127 63.6,119.2 79.7,119.2 79.7,135.3 66.3,144.2 28.2,144.2 	"/>
	<polygon fill="#FFFFFF" points="319.2,136.2 306.2,144.2 266.2,144.2 279.1,136.2 304.5,136.2 304.5,128.4 266.2,128.4 
		266.2,113.1 279.1,105.2 319.7,105.2 306.7,113.1 280.2,113.1 280.2,120.4 319.2,120.4 	"/>
	<polygon id="polygon142" fill="#FFFFFF" points="304.5,136.2 304.5,128.4 266.2,128.4 266.2,113.1 279.1,105.2 319.7,105.2 
		306.7,113.1 280.2,113.1 280.2,120.4 319.2,120.4 319.2,136.2 306.2,144.2 266.2,144.2 279.1,136.2 	"/>
	<polygon fill="#FFFFFF" points="401.6,136.2 388.7,144.2 348.7,144.2 361.6,136.2 387,136.2 387,128.4 348.7,128.4 348.7,113.1 
		361.6,105.2 402.2,105.2 389.3,113.1 362.7,113.1 362.7,120.4 401.6,120.4 	"/>
	<polygon id="polygon163" fill="#FFFFFF" points="387,136.2 387,128.4 348.7,128.4 348.7,113.1 361.6,105.2 402.2,105.2 
		389.3,113.1 362.7,113.1 362.7,120.4 401.6,120.4 401.6,136.2 388.7,144.2 348.7,144.2 361.6,136.2 	"/>
</g>
</svg>
