<?xml version="1.0" encoding="UTF-8" standalone="no"?>
<svg
   xmlns:dc="http://purl.org/dc/elements/1.1/"
   xmlns:cc="http://creativecommons.org/ns#"
   xmlns:rdf="http://www.w3.org/1999/02/22-rdf-syntax-ns#"
   xmlns:svg="http://www.w3.org/2000/svg"
   xmlns="http://www.w3.org/2000/svg"
   xmlns:sodipodi="http://sodipodi.sourceforge.net/DTD/sodipodi-0.dtd"
   xmlns:inkscape="http://www.inkscape.org/namespaces/inkscape"
   inkscape:version="1.0 (4035a4fb49, 2020-05-01)"
   sodipodi:docname="genesis.svg"
   xml:space="preserve"
   enable-background="new 0 0 432.9 198.6"
   viewBox="0 0 431.60001 105.69999"
   height="105.7"
   width="431.60001"
   y="0px"
   x="0px"
   id="Capa_1"
   version="1.0"><metadata
     id="metadata65"><rdf:RDF><cc:Work
         rdf:about=""><dc:format>image/svg+xml</dc:format><dc:type
           rdf:resource="http://purl.org/dc/dcmitype/StillImage" /><dc:title></dc:title></cc:Work></rdf:RDF></metadata><defs
     id="defs63" /><sodipodi:namedview
     inkscape:pagecheckerboard="true"
     lock-margins="true"
     inkscape:document-rotation="0"
     inkscape:current-layer="Capa_1"
     inkscape:window-maximized="0"
     inkscape:window-y="0"
     inkscape:window-x="0"
     inkscape:cy="61.300009"
     inkscape:cx="-253.52143"
     inkscape:zoom="0.63063064"
     fit-margin-bottom="5"
     fit-margin-right="5"
     fit-margin-left="5"
     fit-margin-top="5"
     showgrid="false"
     id="namedview61"
     inkscape:window-height="480"
     inkscape:window-width="710"
     inkscape:pageshadow="2"
     inkscape:pageopacity="0"
     guidetolerance="10"
     gridtolerance="10"
     objecttolerance="10"
     borderopacity="1"
     bordercolor="#666666"
     pagecolor="#ffffff" /><g
     transform="translate(-0.6,-54.9)"
     id="g58"><path
       style="fill:#ffffff"
       inkscape:connector-curvature="0"
       id="path44"
       d="m 401.4,93.9 -0.1,-0.1 H 294.1 L 265.2,59.9 h -97 L 139.3,93.8 H 31.6 l -26,14.7 v 32.4 l 25.9,14.6 0.1,0.1 H 401.2 L 427,141 l 0.2,-0.1 v -32.4 z m 22.1,44.2 -23.9,13.4 H 33.6 L 9.7,138.1 V 111.3 L 33.6,97.9 H 141.7 L 170.6,64 h 0.1 91.5 0.2 l 28.9,33.9 h 108.1 l 24,13.4 z" /><path
       style="fill:#ffffff"
       inkscape:connector-curvature="0"
       d="M 240.8,73.4 234,94.1 h 3.3 l 6.8,-19.9 c 0.2,-0.9 1,-1.6 1.9,-1.6 0.9,0 1.6,0.7 1.9,1.6 l 5.8,16.9 h -9 v 3 h 13.4 l -6.8,-20.7 c -0.7,-2.3 -2.7,-3.9 -5.3,-3.9 -2.5,0 -4.5,1.6 -5.2,3.9 z m 4,12.9 1.2,-3.6 1.3,3.6 z m -0.5,-10.1 -6.1,17.9 h 3.9 l 2.5,-7.4 v 3.5 h 7.9 l -4.7,-14 c -0.2,-0.8 -1,-3 -1.8,-3 -0.7,-0.1 -1.5,2.2 -1.7,3 z m -21.4,-2.8 h 11.7 v -3.3 h -12 c -3.3,0 -5.9,2.7 -5.9,5.9 v 12.3 c 0,3.3 2.6,5.9 5.9,5.9 h 12 V 78.5 h -9.5 v 3.1 h 6.2 v 9.3 h -8.4 c -1.6,0 -2.8,-1.3 -2.8,-2.8 V 76.2 c 0,-1.5 1.2,-2.8 2.8,-2.8 z m 2.2,9 v 3.3 h 1.9 v 0.8 h -1.9 c -0.4,0 -0.8,-0.4 -0.8,-0.8 v -7.3 c 0,-0.4 0.4,-0.8 0.8,-0.8 h 9.5 v -3.3 h -10.9 c -1.6,0 -2.8,1.3 -2.8,2.8 v 10.1 c 0,1.6 1.3,2.8 2.8,2.8 h 6.7 v -7.6 z m -21.6,-9 h 11.8 v -3.3 h -12 c -3.3,0 -5.9,2.7 -5.9,5.9 v 12.2 c 0,3.3 2.6,5.9 5.9,5.9 h 12 v -3.3 h -11.7 c -1.6,0 -2.8,-1.3 -2.8,-2.8 V 76.3 c 0,-1.6 1.2,-2.9 2.7,-2.9 z m 9.3,8.1 v -3.1 h -7.9 c 0,-0.4 0.4,-0.8 0.8,-0.8 h 9.6 v -3.3 h -10.9 c -1.6,0 -2.8,1.3 -2.8,2.8 v 4.4 z m 0,1.1 v 3.1 h -7.9 c 0,0.4 0.4,0.8 0.8,0.8 h 9.6 v 3.3 h -10.9 c -1.6,0 -2.8,-1.3 -2.8,-2.8 V 82.6 Z M 184,86.9 h -7 v 3 h 10.7 0.1 c 2,-0.1 3.6,-1.7 3.6,-3.8 0,-2.1 -1.7,-3.8 -3.8,-3.8 h -4.2 c -1.7,-0.7 -3.2,-2.4 -3.2,-4.4 0,-2.5 2.4,-4.6 4.9,-4.6 h 10.5 V 70 h -10.9 c -4.3,0 -7.9,3.5 -7.9,7.9 0,4.3 3.8,7.9 8.1,7.9 v 0 0 h 2.5 c 0.3,0 0.6,0.2 0.6,0.6 0,0.3 -0.2,0.6 -0.6,0.6 z m 4.7,-9.5 h 7 V 74.3 H 185 184.9 c -2,0.1 -3.6,1.7 -3.6,3.8 0,2.1 1.7,3.8 3.8,3.8 h 4.2 c 1.7,0.7 3.2,2.4 3.2,4.3 0,2.5 -2.4,4.6 -4.9,4.6 h -10.5 v 3.3 h 10.8 c 4.3,0 7.9,-3.5 7.9,-7.9 0,-4.3 -3.8,-7.9 -8.1,-7.9 v 0.1 -0.1 h -2.5 c -0.3,0 -0.6,-0.2 -0.6,-0.6 0,-0.3 0.2,-0.6 0.6,-0.6 z"
       id="path16" /><polygon
       style="fill:#ffffff"
       points="199.5,144.1 186.5,144.1 186.5,129.8 161.5,115.6 161.5,144.1 148.5,144.1 148.5,105.4 162.1,105.4 186.5,119.3 186.5,105.4 199.5,105.4 "
       id="polygon37" /><rect
       style="fill:#ffffff"
       height="38.900002"
       width="13.6"
       y="105.2"
       x="327.5"
       id="rect58" /><polygon
       style="fill:#ffffff"
       points="257,105.2 244.1,113 221.9,113 221.9,120.8 248.6,120.8 235.8,128.6 221.9,128.6 221.9,136.4 258.1,136.4 245.3,144.2 208.6,144.2 208.6,114.1 221.9,105.2 "
       id="polygon79" /><polygon
       style="fill:#ffffff"
       points="138.7,105.4 125.9,113.2 103.8,113.2 103.8,120.9 130.4,120.9 117.6,128.7 103.8,128.7 103.8,136.4 139.7,136.4 127,144.1 90.6,144.1 90.6,114.3 103.8,105.4 "
       id="polygon100" /><polygon
       style="fill:#ffffff"
       points="66.3,144.2 28.2,144.2 28.2,114.3 41.5,105.4 81.8,105.4 69.1,113.2 41.5,113.2 41.5,136.4 66.3,136.4 66.3,127 50.9,127 63.6,119.2 79.7,119.2 79.7,135.3 "
       id="polygon121" /><polygon
       style="fill:#ffffff"
       id="polygon52"
       points="280.2,120.4 319.2,120.4 319.2,136.2 306.2,144.2 266.2,144.2 279.1,136.2 304.5,136.2 304.5,128.4 266.2,128.4 266.2,113.1 279.1,105.2 319.7,105.2 306.7,113.1 280.2,113.1 " /><polygon
       style="fill:#ffffff"
       points="266.2,144.2 279.1,136.2 304.5,136.2 304.5,128.4 266.2,128.4 266.2,113.1 279.1,105.2 319.7,105.2 306.7,113.1 280.2,113.1 280.2,120.4 319.2,120.4 319.2,136.2 306.2,144.2 "
       id="polygon142" /><polygon
       style="fill:#ffffff"
       id="polygon55"
       points="362.7,120.4 401.6,120.4 401.6,136.2 388.7,144.2 348.7,144.2 361.6,136.2 387,136.2 387,128.4 348.7,128.4 348.7,113.1 361.6,105.2 402.2,105.2 389.3,113.1 362.7,113.1 " /><polygon
       style="fill:#ffffff"
       points="348.7,144.2 361.6,136.2 387,136.2 387,128.4 348.7,128.4 348.7,113.1 361.6,105.2 402.2,105.2 389.3,113.1 362.7,113.1 362.7,120.4 401.6,120.4 401.6,136.2 388.7,144.2 "
       id="polygon163" /></g></svg>
