<?xml version="1.0" encoding="UTF-8" standalone="no"?>
<svg
   xmlns:dc="http://purl.org/dc/elements/1.1/"
   xmlns:cc="http://creativecommons.org/ns#"
   xmlns:rdf="http://www.w3.org/1999/02/22-rdf-syntax-ns#"
   xmlns:svg="http://www.w3.org/2000/svg"
   xmlns="http://www.w3.org/2000/svg"
   xmlns:sodipodi="http://sodipodi.sourceforge.net/DTD/sodipodi-0.dtd"
   xmlns:inkscape="http://www.inkscape.org/namespaces/inkscape"
   inkscape:version="1.0 (4035a4fb49, 2020-05-01)"
   sodipodi:docname="intellivision.svg"
   xml:space="preserve"
   viewBox="0 0 576.93 99.332306"
   height="99.332306"
   width="576.92999"
   y="0px"
   x="0px"
   id="Ebene_1"
   version="1.2"><metadata
     id="metadata13"><rdf:RDF><cc:Work
         rdf:about=""><dc:format>image/svg+xml</dc:format><dc:type
           rdf:resource="http://purl.org/dc/dcmitype/StillImage" /><dc:title></dc:title></cc:Work></rdf:RDF></metadata><defs
     id="defs11" /><sodipodi:namedview
     lock-margins="true"
     inkscape:document-rotation="0"
     inkscape:current-layer="Ebene_1"
     inkscape:window-maximized="1"
     inkscape:window-y="-8"
     inkscape:window-x="-8"
     inkscape:cy="49.665303"
     inkscape:cx="288.46476"
     inkscape:zoom="0.48154094"
     fit-margin-bottom="5"
     fit-margin-right="5"
     fit-margin-left="5"
     fit-margin-top="5"
     inkscape:pagecheckerboard="true"
     showgrid="false"
     id="namedview9"
     inkscape:window-height="1017"
     inkscape:window-width="1920"
     inkscape:pageshadow="2"
     inkscape:pageopacity="0"
     guidetolerance="10"
     gridtolerance="10"
     objecttolerance="10"
     borderopacity="1"
     bordercolor="#666666"
     pagecolor="#ffffff" /><g
     style="fill:#ffffff"
     id="g6"
     transform="translate(-1.844,-485.88)"><path
       style="fill:#ffffff"
       inkscape:connector-curvature="0"
       id="path2"
       d="m 429.039,490.88 c -0.636,0 -0.999,0.541 -0.999,1.212 l -0.132,13.085 c 0,0.636 0.541,0.966 1.212,0.966 l 6.011,-0.049 c 0.672,0 1.213,-0.362 1.213,-0.999 v -2.424 c 0,-0.637 -0.541,-0.982 -1.213,-0.982 l -3.881,0.016 c -0.671,0 -1.229,-0.33 -1.229,-0.967 v -8.646 c 0,-0.671 -0.344,-1.212 -0.982,-1.212 z m 29.396,0 c -0.079,0 -0.157,0.017 -0.229,0.033 -0.496,0.113 -0.771,0.591 -0.771,1.179 l -0.146,13.085 c 0,0.398 0.218,0.665 0.54,0.818 0.063,0.031 0.142,0.061 0.213,0.082 0.073,0.021 0.15,0.039 0.229,0.049 0.078,0.01 0.161,0.017 0.245,0.017 l 5.993,-0.049 c 0.672,0 1.212,-0.362 1.212,-0.999 v -2.424 c 0,-0.636 -0.54,-0.982 -1.212,-0.982 l -3.882,0.016 c -0.671,0 -1.212,-0.33 -1.212,-0.966 l -0.017,-8.647 c 0.002,-0.671 -0.327,-1.212 -0.963,-1.212 z m -94,0.017 c -0.673,0 -1.229,0.378 -1.229,1.015 l 0.065,1.965 -0.065,10.988 c 0,0.672 0.346,1.212 0.981,1.212 0.079,0 0.143,0 0.214,-0.016 0.496,-0.113 0.786,-0.608 0.786,-1.196 v -8.646 c 0,-0.636 0.54,-0.999 1.211,-0.999 h 0.836 c 0.671,0 1.212,0.363 1.212,0.999 l 0.817,4.602 c 0,0.672 0.33,1.212 0.968,1.212 h 2.146 c 0.078,0 0.157,-0.002 0.229,-0.016 0.491,-0.098 0.77,-0.527 1.079,-1.13 0,0 2.47,-5.901 2.57,-6.125 0.223,-0.483 0.836,-0.403 0.836,0.065 v 8.793 l 0.033,1.294 c 0,0.672 0.328,1.229 0.965,1.229 l 2.475,0.016 c 0.079,0 0.146,-10e-4 0.213,-0.016 0.065,-0.015 0.127,-0.037 0.181,-0.066 0.323,-0.168 0.471,-0.574 0.786,-1.13 l 1.852,-4.045 c 0.302,-0.585 0.704,-0.987 1.211,-0.999 h 3.063 c 0.672,0 1.212,0.362 1.212,0.999 l 0.164,4.308 c -0.009,0.436 0.219,0.678 0.573,0.818 0.118,0.047 0.252,0.089 0.394,0.115 0.565,0.105 1.291,0.065 1.884,0.082 0.563,0.015 1.44,-0.358 1.44,-0.981 l 0.032,-13.363 c 0,-0.637 -0.54,-0.982 -1.212,-0.982 h -6.484 c -0.671,0 -1.021,0.34 -1.212,0.982 0,0 -4.267,10.776 -4.372,11.021 -0.014,0.03 -0.035,0.055 -0.064,0.082 -0.063,0.052 -0.164,0.092 -0.264,0.115 -0.244,0.055 -0.539,-0.002 -0.539,-0.312 0,-0.496 -0.018,-10.546 -0.018,-10.546 0,-0.672 -0.279,-1.294 -0.917,-1.294 h -2.293 c -0.638,0 -0.871,0.426 -1.326,1.212 0,0 -2.704,6.669 -2.866,6.977 -0.039,0.077 -0.108,0.146 -0.181,0.196 -0.069,0.051 -0.136,0.087 -0.212,0.098 -0.154,0.022 -0.304,-0.047 -0.347,-0.262 -0.081,-0.429 -1.323,-7.254 -1.323,-7.254 0,-0.636 -0.541,-1.015 -1.213,-1.015 z m 118.383,0 c -0.672,0 -1.229,0.345 -1.229,0.982 l -0.063,13.232 c 0,0.238 0.081,0.432 0.212,0.59 0.132,0.157 0.307,0.277 0.523,0.343 0.071,0.021 0.149,0.038 0.229,0.049 0.078,0.011 0.161,0.017 0.245,0.017 l 2.063,0.016 v 0.017 h 5.044 c 0.084,0 0.168,-0.006 0.246,-0.017 0.078,-0.01 0.156,-0.028 0.229,-0.049 0.437,-0.124 0.736,-0.423 0.736,-0.9 0,-0.636 -0.541,-1.016 -1.213,-1.016 h -5.044 v 0.033 c -0.646,-0.017 -1.161,-0.395 -1.161,-1.015 l 0.082,-6.977 c 0,-0.636 0.539,-0.966 1.212,-0.966 h 4.979 c 0.672,0 1.229,-0.33 1.229,-0.966 v -2.326 c 0,-0.637 -0.558,-0.999 -1.229,-0.999 z m 21.633,0 c -0.084,0 -0.166,0.006 -0.245,0.017 -0.555,0.072 -0.981,0.408 -0.981,0.966 -0.002,0.332 0.003,0.651 0,0.982 -0.023,3.76 -0.104,7.54 -0.049,11.299 0.003,0.23 -0.037,0.477 -0.051,0.721 -0.007,0.123 -0.002,0.245 0.018,0.361 0.02,0.116 0.055,0.225 0.114,0.327 0.158,0.269 0.388,0.44 0.64,0.541 0.252,0.1 0.536,0.123 0.818,0.115 0.442,-0.012 0.862,0.034 1.261,0.016 0.133,-0.006 0.271,-0.027 0.394,-0.049 0.495,-0.088 0.906,-0.331 1.181,-0.982 l 0.163,-4.308 c 0,-0.636 0.54,-0.999 1.212,-0.999 h 3.274 c 0.672,0 1.212,0.362 1.212,0.999 l 0.05,4.045 c 0,0.672 0.328,1.212 0.966,1.212 0.079,0 0.158,0 0.229,-0.016 0.496,-0.113 0.785,-0.608 0.785,-1.196 v -3.537 -2.014 c 0,-0.955 -0.838,-1.264 -1.457,-1.573 -0.188,-0.092 -0.354,-0.187 -0.477,-0.294 -0.12,-0.107 -0.181,-0.234 -0.181,-0.393 0,-0.842 -0.017,-5.257 -0.017,-5.257 0,-0.637 -0.542,-0.982 -1.212,-0.982 z m 14.528,0 c -0.084,0 -0.168,0.006 -0.246,0.017 -0.555,0.072 -0.982,0.408 -0.982,0.966 l -0.064,13.232 c 0,0.318 0.142,0.565 0.359,0.736 0.057,0.043 0.115,0.082 0.182,0.115 0.192,0.099 0.421,0.148 0.672,0.148 h 8.435 c 0.67,0 1.211,-0.363 1.211,-0.999 l -0.063,-13.232 c 0,-0.637 -0.54,-0.982 -1.213,-0.982 z m 13.116,0 c -0.084,0 -0.167,0.005 -0.245,0.017 -0.158,0.022 -0.297,0.065 -0.428,0.13 -0.322,0.163 -0.539,0.47 -0.539,0.868 l 0.064,1.965 -0.064,10.988 c 0,0.588 0.264,1.083 0.754,1.196 0.068,0.016 0.133,0.016 0.213,0.016 0.079,0 0.158,0 0.229,-0.016 0.496,-0.113 0.786,-0.608 0.786,-1.196 v -8.646 c 0,-0.636 0.542,-0.999 1.212,-0.999 h 4.438 c 0.671,0 1.212,0.363 1.212,0.999 l 0.05,8.614 c 0,0.672 0.33,1.212 0.966,1.212 0.079,0 0.158,0 0.229,-0.016 0.496,-0.113 0.786,-0.608 0.786,-1.196 l -0.018,-9.58 0.018,-3.341 c 0,-0.637 -0.559,-1.015 -1.229,-1.015 z m 20.831,0 c -0.505,0 -0.945,0.193 -1.131,0.557 -0.063,0.121 -0.082,0.267 -0.082,0.426 l -0.081,13.232 c 0,0.238 0.081,0.432 0.213,0.59 0.219,0.262 0.58,0.409 0.999,0.409 l 7.105,0.033 c 0.671,0 1.212,-0.329 1.212,-0.966 0,-0.636 -0.541,-1.015 -1.212,-1.015 l -4.979,0.033 c -0.671,0 -1.229,-0.38 -1.229,-1.016 l 0.082,-6.977 c 0,-0.636 0.54,-0.966 1.212,-0.966 h 4.979 c 0.673,0 1.229,-0.33 1.229,-0.966 v -2.326 c 0,-0.637 -0.557,-0.999 -1.229,-0.999 z m -5.961,0.017 c -0.396,0 -0.682,0.2 -0.834,0.524 -0.063,0.128 -0.109,0.284 -0.133,0.442 -0.01,0.079 -0.016,0.161 -0.016,0.245 l 0.063,8.729 c 0,0.478 -0.25,0.793 -0.653,0.918 -0.068,0.02 -0.14,0.038 -0.215,0.049 -0.074,0.011 -0.16,0 -0.244,0 h -0.459 c -0.672,0 -1.326,0.329 -1.326,0.966 v 2.325 c 0,0.319 0.163,0.565 0.408,0.737 0.063,0.042 0.127,0.082 0.196,0.114 0.213,0.099 0.47,0.148 0.722,0.148 h 3.995 c 0.671,0 1.212,-0.363 1.212,-0.999 v -2.325 c 0,-0.1 -0.004,-0.184 -0.018,-0.263 -0.088,-0.551 -0.473,-0.62 -0.852,-0.687 -0.162,-0.029 -0.319,-0.062 -0.458,-0.131 -0.232,-0.116 -0.396,-0.336 -0.396,-0.852 v -8.729 c 0.006,-0.671 -0.355,-1.211 -0.992,-1.211 z m -150.449,0.032 c -0.672,0 -1.229,0.361 -1.229,0.999 v 2.326 c 0,0.636 0.558,0.966 1.229,0.966 h 1.521 c 0.671,0 1.212,0.33 1.212,0.966 l -0.064,8.729 c 0,0.671 0.347,1.212 0.982,1.212 0.079,0 0.143,0 0.212,-0.017 0.497,-0.113 0.786,-0.607 0.786,-1.195 v -8.729 c 0,-0.557 0.412,-0.877 0.967,-0.949 0.079,-0.011 0.162,-0.017 0.245,-0.017 h 4.193 c 0.669,0 1.211,0.33 1.211,0.966 v 8.729 c 0,0.671 0.361,1.212 0.999,1.212 0.08,0 0.159,0 0.229,-0.017 0.49,-0.113 0.735,-0.607 0.735,-1.195 l -0.064,-8.729 c 0,-0.557 0.431,-0.877 0.981,-0.949 0.079,-0.011 0.162,-0.017 0.246,-0.017 h 1.521 c 0.672,0 1.212,-0.33 1.212,-0.966 v -2.326 c 0,-0.637 -0.539,-0.999 -1.212,-0.999 z m 96.767,0 c -0.168,0 -0.329,0.021 -0.476,0.064 -0.072,0.022 -0.147,0.049 -0.213,0.082 -0.323,0.163 -0.54,0.454 -0.54,0.852 v 2.326 c 0,0.636 0.558,0.966 1.229,0.966 h 1.522 c 0.671,0 1.212,0.33 1.212,0.966 l -0.064,8.729 c 0,0.335 0.082,0.648 0.246,0.868 0.04,0.055 0.097,0.104 0.146,0.146 0.103,0.088 0.221,0.148 0.359,0.18 0.07,0.017 0.148,0.017 0.229,0.017 0.079,0 0.143,0 0.214,-0.017 0.495,-0.113 0.784,-0.607 0.784,-1.195 v -8.729 c 0,-0.557 0.414,-0.877 0.968,-0.949 0.078,-0.011 0.161,-0.017 0.244,-0.017 h 1.523 c 0.67,0 1.211,-0.33 1.211,-0.966 v -2.326 c 0,-0.637 -0.541,-0.999 -1.211,-0.999 h -7.385 v 0.002 z m 78.426,0 -7.188,0.049 c -0.084,0 -0.168,0.005 -0.245,0.015 -0.556,0.08 -0.968,0.427 -0.968,0.983 l 0.082,6.681 c 0,0.637 0.541,0.982 1.212,0.982 l 3.521,0.065 c 0.671,0 1.212,0.379 1.212,1.015 l -0.082,2.44 c 0,0.159 -0.036,0.305 -0.099,0.426 -0.122,0.242 -0.349,0.409 -0.64,0.491 -0.071,0.021 -0.149,0.022 -0.229,0.033 -0.079,0.011 -0.162,0.016 -0.246,0.016 l -5.011,0.017 c -0.085,0 -0.167,0.007 -0.246,0.016 -0.554,0.074 -0.966,0.409 -0.966,0.967 0,0.318 0.124,0.565 0.344,0.736 0.221,0.172 0.532,0.263 0.868,0.263 h 9.448 c 0.335,0 0.633,-0.083 0.853,-0.246 0.22,-0.163 0.36,-0.401 0.36,-0.72 l 0.082,-6.567 c 0,-0.636 -0.559,-0.966 -1.229,-0.966 h -5.829 c -0.673,0 -1.213,-0.33 -1.213,-0.967 l -0.082,-2.768 c 0,-0.636 0.559,-0.999 1.229,-0.999 l 5.061,0.017 c 0.673,0 1.213,-0.363 1.213,-0.999 0,-0.634 -0.54,-0.981 -1.212,-0.98 z m -153.527,0.114 c -0.671,0 -1.212,0.33 -1.212,0.967 v 4.603 c 0,0.67 -0.329,1.212 -0.967,1.212 l -1.311,0.033 c -0.671,0 -1.212,0.33 -1.212,0.966 l -0.082,6.271 c 0,0.479 0.317,0.8 0.754,0.933 0.071,0.022 0.134,0.038 0.213,0.049 0.079,0.011 0.162,0.017 0.245,0.017 l 9.843,0.033 c 0.671,0 1.212,-0.33 1.212,-0.966 0,-0.636 -0.541,-1.015 -1.212,-1.015 l -7.713,0.033 c -0.672,0 -1.212,-0.38 -1.212,-1.016 l 0.063,-2.342 c 0,-0.636 0.541,-0.966 1.213,-0.966 l 7.647,0.016 c 0.084,0 0.167,-0.006 0.245,-0.016 0.079,-0.011 0.141,-0.029 0.213,-0.049 0.438,-0.124 0.754,-0.439 0.754,-0.917 0,-0.557 -0.413,-0.904 -0.967,-0.982 -0.078,-0.012 -0.161,-0.017 -0.245,-0.017 l -1.703,-0.017 c -0.084,0 -0.167,-0.005 -0.246,-0.016 -0.315,-0.045 -0.577,-0.167 -0.753,-0.377 -0.131,-0.157 -0.213,-0.367 -0.213,-0.606 l 0.064,-2.866 c 0,-0.636 0.558,-0.982 1.229,-0.982 h 1.621 c 0.671,0 1.212,-0.346 1.212,-0.982 0,-0.637 -0.541,-0.999 -1.212,-0.999 z m 29.381,0 c -0.421,0 -0.781,0.124 -1,0.377 -0.044,0.05 -0.085,0.119 -0.114,0.179 -0.063,0.121 -0.099,0.25 -0.099,0.41 v 4.602 c 0,0.67 -0.328,1.212 -0.966,1.212 l -1.312,0.033 c -0.671,0 -1.212,0.33 -1.212,0.966 l -0.082,6.271 c 0,0.238 0.082,0.432 0.213,0.59 0.131,0.157 0.321,0.277 0.54,0.343 0.072,0.022 0.149,0.038 0.229,0.049 0.079,0.011 0.161,0.017 0.245,0.017 l 9.825,0.033 c 0.672,0 1.212,-0.33 1.212,-0.966 0,-0.636 -0.54,-1.015 -1.212,-1.015 l -7.713,0.033 c -0.671,0 -1.212,-0.38 -1.212,-1.016 l 0.064,-2.342 c 0,-0.636 0.559,-0.966 1.229,-0.966 l 7.63,0.016 c 0.085,0 0.167,-0.006 0.246,-0.016 0.08,-0.011 0.156,-0.029 0.229,-0.049 0.437,-0.124 0.735,-0.439 0.735,-0.917 0,-0.557 -0.411,-0.904 -0.967,-0.982 -0.079,-0.012 -0.161,-0.017 -0.246,-0.017 l -1.702,-0.017 c -0.084,0 -0.166,-0.005 -0.246,-0.016 -0.314,-0.045 -0.577,-0.167 -0.753,-0.377 -0.132,-0.157 -0.213,-0.367 -0.213,-0.606 l 0.082,-2.866 c 0,-0.636 0.541,-0.982 1.211,-0.982 h 1.622 c 0.672,0 1.212,-0.346 1.212,-0.982 0,-0.637 -0.54,-0.999 -1.212,-0.999 z m 24.382,0 c -0.42,0 -0.797,0.124 -1.017,0.377 -0.044,0.05 -0.083,0.119 -0.113,0.179 -0.063,0.121 -0.1,0.25 -0.1,0.41 l 0.018,4.602 c 0,0.67 -0.348,1.212 -0.982,1.212 l -1.294,0.033 c -0.672,0 -1.212,0.33 -1.212,0.966 l -0.082,6.271 c 0,0.238 0.082,0.432 0.214,0.59 0.132,0.157 0.306,0.277 0.523,0.343 0.071,0.022 0.149,0.038 0.229,0.049 0.077,0.011 0.16,0.017 0.244,0.017 l 9.826,0.033 c 0.671,0 1.229,-0.33 1.229,-0.966 0,-0.636 -0.559,-1.015 -1.229,-1.015 l -7.696,0.033 c -0.672,0 -1.229,-0.38 -1.229,-1.016 l 0.081,-2.342 c 0,-0.636 0.54,-0.966 1.212,-0.966 l 7.632,0.016 c 0.084,0 0.166,-0.006 0.246,-0.016 0.078,-0.011 0.155,-0.029 0.229,-0.049 0.438,-0.124 0.754,-0.439 0.754,-0.917 0,-0.557 -0.431,-0.904 -0.981,-0.982 -0.08,-0.012 -0.162,-0.017 -0.246,-0.017 l -1.688,-0.017 c -0.083,0 -0.166,-0.005 -0.245,-0.016 -0.315,-0.045 -0.595,-0.167 -0.771,-0.377 -0.131,-0.157 -0.195,-0.367 -0.195,-0.606 l 0.064,-2.866 c 0,-0.636 0.54,-0.982 1.212,-0.982 h 1.621 c 0.671,0 1.229,-0.346 1.229,-0.982 0,-0.637 -0.559,-0.999 -1.229,-0.999 z m -84.452,2.015 h 2.702 c 0.67,0 1.212,0.33 1.212,0.966 l 0.082,2.849 c 0,0.637 -0.542,0.999 -1.212,0.999 h -4.014 c -1.378,-0.019 -1.196,-0.984 -1.112,-1.31 l 1.13,-2.539 c 0.326,-0.554 0.54,-0.965 1.212,-0.965 z m 119.104,0 h 3.343 c 0.671,0 1.212,0.33 1.212,0.966 l 0.082,2.849 c 0,0.637 -0.56,0.999 -1.229,0.999 h -3.472 c -0.672,0 -1.212,-0.362 -1.212,-0.999 l 0.064,-2.849 c 0.001,-0.636 0.542,-0.966 1.212,-0.966 z m 14.314,0 h 4.404 c 0.671,0 1.212,0.33 1.212,0.966 l 0.063,6.993 c 0,0.636 -0.541,0.999 -1.212,0.999 h -4.534 c -0.672,0 -1.213,-0.362 -1.213,-0.999 l 0.065,-6.993 c 0.003,-0.636 0.544,-0.966 1.215,-0.966 z" /><path
       style="fill:#ffffff"
       inkscape:connector-curvature="0"
       id="path4"
       d="m 340.803,496.705 c 0,0 -15.496,59.529 -15.91,60.881 -0.542,1.758 -2.217,2.334 -3.094,0.304 -1.082,-2.165 -12.816,-42.374 -12.816,-42.374 h -21.38 c 0,0 15.962,52.369 16.685,53.92 7.577,16.234 24.275,9.75 27.705,-2.154 3.527,-12.254 18.618,-70.576 18.618,-70.576 h -9.808 z m -220.761,4.447 -33.175,21.159 c -0.001,-4.093 0,-6.685 0,-6.685 H 76.315 v 29.198 c 0,0.729 -1.371,2.065 -2.597,0.275 0,0 -14.051,-20.15 -19.144,-26.242 -4.228,-5.062 -18.975,-4.803 -19.031,7.182 -0.038,7.607 0.026,52.151 0.026,52.151 h 10.553 v -36.819 c 0,-2.039 1.806,-1.322 2.928,-0.058 0.521,0.588 23.124,35.004 24.142,36.381 2.306,3.108 13.701,5.406 13.701,-6.354 0,-8.427 -0.021,-33.382 -0.028,-46.849 h 10.304 c 1.081,0 2.457,1.213 2.458,1.215 -0.01,1.021 -0.166,33.137 -0.166,37.375 0,9.528 7.895,15.966 16.436,15.966 h 19.032 v -9.255 h -8.756 c -3.138,0 -5.607,-2.306 -5.607,-5.44 V 528.25 c 0,-1.942 1.559,-4.696 4.668,-4.696 3.111,0 9.75,-0.083 9.75,-0.083 v -7.956 h -13.093 c -1.218,0 -1.851,-0.958 -1.851,-1.851 z M 7.01,501.511 c 0,0 -0.166,73.3 -0.166,77.675 l 20.468,-0.027 v -77.646 z m 478.674,13.259 c -9.841,0 -18.67,4.102 -24.807,10.635 -0.359,0.385 -0.708,0.786 -1.05,1.188 -4.783,5.61 -7.679,12.791 -7.679,20.636 0,4.48 0.953,8.769 2.65,12.649 0.213,0.485 0.429,0.964 0.662,1.437 4.005,8.041 11.321,14.246 20.247,16.935 0.526,0.158 1.067,0.28 1.604,0.414 2.68,0.668 5.476,1.021 8.369,1.021 18.524,0 33.563,-14.529 33.563,-32.455 0.002,-17.931 -15.034,-32.46 -33.559,-32.46 z m -89.525,0.469 c -12.309,0 -21.851,8.804 -21.851,21.326 0,12.896 14.228,16.998 21.739,17.789 4.726,0.496 9.28,3.765 9.28,8.396 0,3.727 -3.219,6.74 -6.687,6.74 l -21.96,-0.084 v 9.254 h 24.31 c 0.384,0 0.752,-0.008 1.132,-0.027 11.773,-0.579 21.132,-10.041 21.132,-21.711 0,-1.926 -0.106,-3.633 -0.358,-5.166 -0.063,-0.383 -0.145,-0.743 -0.221,-1.104 -2.104,-9.762 -9.756,-11.649 -21.685,-14.807 0,0 -6.326,-1.967 -6.326,-5.773 0,-2.379 1.377,-4.012 3.261,-4.889 0.188,-0.088 0.382,-0.175 0.579,-0.249 0.986,-0.364 2.065,-0.524 3.149,-0.524 l 14.888,0.055 v -9.227 h -20.382 z m -133.805,0.083 c 0,0 -0.166,6.508 -0.166,10.883 l 20.469,-0.056 v -10.828 z m 86.929,0 c 0,0 -0.14,6.508 -0.14,10.883 l 20.441,-0.056 v -10.828 z m 78.282,0 c 0,0 -0.139,6.508 -0.139,10.883 l 20.439,-0.056 v -10.828 z m -274.596,0.056 c -5.871,0 -10.142,3.04 -12.237,8.039 -0.189,0.455 -0.343,0.923 -0.497,1.41 -0.617,1.942 -0.938,4.135 -0.938,6.519 v 31.188 c 0,9.527 5.134,16.324 13.673,16.324 h 30.661 v -9.228 h -18.259 c -3.137,0 -5.578,-2.657 -5.552,-5.802 v -12.209 h 20.966 v -9.227 l -20.993,-0.057 -0.056,-12.265 c 0,-3.137 2.498,-5.44 5.635,-5.44 h 18.259 v -9.254 z m 34.97,0.11 c 0,0 -0.166,43.219 -0.166,47.594 0,1.785 0.276,3.451 0.746,4.998 0.156,0.517 0.321,1.033 0.524,1.521 2.234,5.345 7.184,8.819 12.928,9.364 0.521,0.049 1.068,0.083 1.602,0.083 h 19.032 v -9.254 h -8.396 c -3.137,0 -5.607,-2.306 -5.607,-5.44 v -48.866 z m 36.241,0 c 0,0 -0.138,43.219 -0.138,47.594 0,8.934 6.365,15.141 14.197,15.883 0.522,0.049 1.041,0.083 1.575,0.083 h 19.031 v -9.255 h -8.729 c -3.137,0 -5.635,-2.305 -5.635,-5.439 v -48.866 z m 339.013,0.138 v 29.198 c 0,0.729 -1.369,2.064 -2.598,0.275 0,0 -14.022,-20.15 -19.113,-26.242 -4.23,-5.062 -19.001,-4.803 -19.062,7.182 -0.035,7.607 0.027,52.151 0.027,52.151 H 533 v -36.819 c 0,-2.039 1.805,-1.322 2.929,-0.058 0.521,0.588 23.151,35.004 24.17,36.381 0.433,0.582 1.164,1.136 2.101,1.573 0.313,0.146 0.646,0.298 0.994,0.414 4.171,1.403 10.58,0.479 10.58,-8.342 0,-11.761 -0.028,-55.715 -0.028,-55.715 h -10.553 z m -77.509,6.712 c 8.129,0 11.382,11.144 11.382,24.889 0,13.743 -3.822,24.871 -11.382,24.889 -2.065,0.005 -3.795,-0.676 -5.248,-1.935 -0.183,-0.157 -0.353,-0.323 -0.523,-0.497 -0.52,-0.523 -0.998,-1.125 -1.438,-1.796 -0.146,-0.224 -0.306,-0.452 -0.441,-0.69 -2.616,-4.539 -3.701,-11.812 -3.701,-19.971 0,-0.859 0.013,-1.705 0.027,-2.542 0.143,-7.528 0.985,-14.067 3.563,-18.093 0.146,-0.225 0.288,-0.428 0.442,-0.635 1.694,-2.286 4.047,-3.619 7.319,-3.619 z m -223.33,7.846 c 0,0 -0.166,44.626 -0.166,49.001 l 20.469,-0.026 v -48.975 z m 86.929,0 c 0,0 -0.14,44.626 -0.14,49.001 l 20.441,-0.026 v -48.975 z m 78.282,0 c 0,0 -0.139,44.626 -0.139,49.001 l 20.439,-0.026 v -48.975 z" /></g></svg>
