<?xml version="1.0" encoding="UTF-8" standalone="no"?>
<svg
   xmlns:dc="http://purl.org/dc/elements/1.1/"
   xmlns:cc="http://creativecommons.org/ns#"
   xmlns:rdf="http://www.w3.org/1999/02/22-rdf-syntax-ns#"
   xmlns:svg="http://www.w3.org/2000/svg"
   xmlns="http://www.w3.org/2000/svg"
   id="svg8"
   version="1.1"
   viewBox="0 0 105.83333 39.687501"
   height="150"
   width="400">
  <defs
     id="defs2" />
  <metadata
     id="metadata5">
    <rdf:RDF>
      <cc:Work
         rdf:about="">
        <dc:format>image/svg+xml</dc:format>
        <dc:type
           rdf:resource="http://purl.org/dc/dcmitype/StillImage" />
        <dc:title></dc:title>
      </cc:Work>
    </rdf:RDF>
  </metadata>
  <g
     aria-label="Kids"
     style="font-style:normal;font-variant:normal;font-weight:normal;font-stretch:normal;font-size:10.58333302px;line-height:1.25;font-family:GRADIUS;-inkscape-font-specification:GRADIUS;letter-spacing:0px;word-spacing:0px;fill:#ffffff;fill-opacity:1;stroke:none;stroke-width:0.26458332"
     id="text817"
     transform="matrix(3.2645388,0,0,3.2645388,-48.55348,-887.48015)">
    <path
       d="m 24.436488,272.53249 q -0.635621,0.72347 -1.529623,1.62781 -0.894002,0.90434 -2.072225,2.01538 0.542603,-1.33325 0.888835,-2.17041 0.3514,-0.83716 0.511597,-1.17306 l -2.17041,0.0103 q -1.131714,2.3151 -2.103231,4.65088 -0.966349,2.33061 -1.793172,4.75423 l 2.232421,-0.14469 q 0.423747,-1.06454 0.744141,-1.84485 0.325562,-0.78032 0.558106,-1.31258 0.63562,0.78548 0.63562,2.1394 0,0.42891 -0.06201,0.97669 l 2.413289,-0.31006 q 0.01033,-0.14987 0.0155,-0.28939 0.0052,-0.1447 0.0052,-0.27905 0,-2.11357 -0.795817,-3.87574 0.573608,-0.52193 0.992187,-0.9095 0.423747,-0.39274 0.7028,-0.65629 0.775146,-0.78032 1.44694,-1.46245 0.676961,-0.68212 1.27124,-1.30224 z m 2.041219,0.59428 q -0.599447,0.61495 -1.276408,1.30741 -0.671794,0.69247 -1.44694,1.46761 -0.02584,0.0155 -0.04134,0.0362 -0.0155,0.0207 -0.03101,0.0362 l -0.718303,0.7183 q -0.149861,0.1447 -0.346232,0.32557 -0.19637,0.1757 -0.428914,0.39274 0.733805,1.73116 0.733805,3.77238 0,0.12402 -0.0052,0.26355 -0.0052,0.13952 -0.0155,0.28422 v 0.21187 l -0.775147,0.093 q 0,0.11369 -0.0052,0.23771 -0.0052,0.12402 -0.0155,0.25321 v 0.21188 l -2.868042,0.35656 q 0.09302,-0.82165 0.09302,-1.21439 0,-0.32556 -0.03617,-0.60978 -0.03617,-0.28939 -0.108521,-0.54777 -0.304891,0.72347 -0.63562,1.58129 l -0.496094,0.031 q -0.07235,0.18087 -0.144694,0.37207 -0.07235,0.1912 -0.155029,0.38757 l -2.687174,0.18087 q 0.878499,-2.58899 1.886189,-5.03328 1.007691,-2.4443 2.175578,-4.82141 h 0.403076 q 0.09819,-0.19637 0.191203,-0.39274 0.09818,-0.20154 0.201538,-0.39791 l 2.635498,-0.0103 q -0.06718,0.13953 -0.180867,0.39274 -0.108521,0.25322 -0.258383,0.60462 -0.144694,0.34623 -0.325561,0.78031 -0.1757,0.43408 -0.377238,0.93018 0.191203,-0.19121 0.377238,-0.37207 0.186035,-0.18087 0.361735,-0.35657 0.821655,-0.83716 1.410767,-1.50379 l 0.05168,0.0207 q 0.206706,-0.21704 0.387573,-0.41857 0.186035,-0.20671 0.3514,-0.39791 l 2.020548,0.47542 0.09819,0.3514 z"
       style="font-style:normal;font-variant:normal;font-weight:normal;font-stretch:normal;font-family:'SF Fedora Shadow';-inkscape-font-specification:'SF Fedora Shadow';fill:#ffffff;stroke-width:0.26458332"
       id="path828" />
    <path
       d="m 28.012496,272.85289 q -1.767333,3.62251 -3.116088,7.53442 l 1.824178,-0.12919 q 0.599446,-1.74667 1.35909,-3.58635 0.764811,-1.83968 1.71049,-3.82922 z m 1.963705,0.0827 q -0.935344,1.96887 -1.705322,3.83956 -0.769979,1.86552 -1.395264,3.68453 l -0.5271,0.0413 q -0.07235,0.19637 -0.139526,0.38757 -0.06201,0.18604 -0.124023,0.3669 l -2.289266,0.1602 q 0.733805,-2.12907 1.55546,-4.11861 0.821656,-1.99471 1.725993,-3.8654 h 0.413412 l 0.382405,-0.79065 1.917196,-0.0103 0.186035,0.30489 z"
       style="font-style:normal;font-variant:normal;font-weight:normal;font-stretch:normal;font-family:'SF Fedora Shadow';-inkscape-font-specification:'SF Fedora Shadow';fill:#ffffff;stroke-width:0.26458332"
       id="path830" />
    <path
       d="m 33.045781,276.43923 q 0,-0.23771 -0.103353,-0.42375 -0.103353,-0.18603 -0.310059,-0.33589 -0.0155,-0.0103 -0.03617,-0.0207 -0.02067,-0.0155 -0.03617,-0.0258 -0.279053,0.56844 -0.568441,1.2299 -0.28422,0.66145 -0.578776,1.42627 0.604615,-0.18604 1.157552,-0.62012 0.475424,-0.62529 0.475424,-1.2299 z m 1.002522,-0.79582 q 0,1.0232 -1.162719,2.03605 -0.842326,0.72864 -1.819011,0.93018 0.475424,-1.28158 0.914673,-2.25826 0.43925,-0.98185 0.842326,-1.67948 l -0.320394,-0.31523 q 0.645956,0.062 1.049032,0.35657 0.496093,0.3514 0.496093,0.93017 z m 1.803508,-0.58911 q 0,-1.16789 -1.100708,-1.76733 -0.873332,-0.48576 -2.160075,-0.48576 -0.687296,0 -1.421102,0.16536 l -0.387573,1.5658 q 0.273885,-0.0879 0.485758,-0.12402 -0.754475,1.50378 -1.400431,2.98689 -0.640788,1.47795 -1.193725,2.98173 0.485758,-0.031 0.847493,-0.0517 0.361735,-0.0258 0.61495,-0.0465 1.658813,-0.14986 3.245279,-1.32292 1.612305,-1.19372 2.211752,-2.73885 0.258382,-0.65112 0.258382,-1.16272 z m 0.211873,0 q 0,0.55811 -0.268717,1.23507 -0.516765,1.34359 -1.777669,2.42362 -0.537435,0.65113 -1.302247,1.20923 -0.821655,0.60462 -1.658813,0.95085 -0.837158,0.34106 -1.705322,0.41341 -0.124024,0.0103 -0.330729,0.0258 -0.201538,0.0103 -0.444418,0.0258 -0.242879,0.0155 -0.506429,0.0362 -0.263549,0.0155 -0.506429,0.031 0.563273,-1.53479 1.183391,-2.99206 0.625284,-1.46244 1.322916,-2.88355 l -0.366902,0.10336 0.506429,-2.04122 q 0.310058,-0.0775 0.625284,-0.12403 l 0.170533,-0.66662 q 0.454752,-0.11369 0.847493,-0.1602 0.397909,-0.0517 0.738973,-0.0517 0.671794,0 1.235067,0.12919 0.563273,0.12402 1.028361,0.38757 v -0.0103 q 1.209228,0.66663 1.209228,1.95854 z"
       style="font-style:normal;font-variant:normal;font-weight:normal;font-stretch:normal;font-family:'SF Fedora Shadow';-inkscape-font-specification:'SF Fedora Shadow';fill:#ffffff;stroke-width:0.26458332"
       id="path832" />
    <path
       d="m 42.600753,272.72369 q -0.222209,-0.0207 -0.45992,-0.0362 -0.232544,-0.0155 -0.480591,-0.0155 -1.012858,0 -1.648478,0.26355 -0.816488,0.34106 -1.421102,1.00769 -0.707967,0.76998 -0.707967,1.54512 0,0.28422 0.09302,0.73898 0.05684,0.26355 0.08785,0.44441 0.03101,0.18087 0.04134,0.28422 0.01034,0.11886 0.0155,0.24805 0.0052,0.12402 0.0052,0.26355 0,0.32039 -0.113688,0.47026 -0.108521,0.15503 -0.413412,0.25838 -0.258382,0.0879 -0.614949,0.1602 -0.3514,0.0723 -0.816488,0.12402 l -0.54777,1.89652 q 0.609782,-0.0413 1.167887,-0.15503 0.558106,-0.11885 1.07487,-0.29972 1.281576,-0.45992 1.870687,-1.25057 0.09819,-0.11885 0.180867,-0.28422 0.08785,-0.16536 0.170533,-0.37207 0.180867,-0.48059 0.180867,-0.94051 0,-0.093 -0.03101,-0.40824 -0.03101,-0.31523 -0.10852,-0.863 -0.04134,-0.34107 -0.06201,-0.52193 -0.02067,-0.18604 -0.02067,-0.22738 0,-0.41341 0.707967,-0.52193 0.05168,-0.0103 1.018025,-0.0413 l 0.831991,-1.76734 z m -0.930176,1.97921 q -0.05684,0 -0.103353,0.005 -0.04651,0.005 -0.08785,0.005 l -0.366902,0.78548 h -0.222209 q -0.191203,0.0103 -0.335897,0.0155 -0.144694,0.005 -0.258382,0.005 0.01034,0.0568 0.0155,0.11885 0.01033,0.062 0.02584,0.13436 0.07235,0.54261 0.103353,0.86817 0.03617,0.32039 0.03617,0.43408 0,0.5116 -0.191203,1.01803 -0.08268,0.21704 -0.1757,0.3979 -0.09302,0.1757 -0.206706,0.31006 -0.149861,0.19121 -0.325561,0.36691 -0.1757,0.17053 -0.392741,0.32039 -0.0155,0.0258 -0.03617,0.0517 -0.02067,0.0258 -0.03617,0.0517 -0.656291,0.85266 -1.968872,1.32292 -0.537435,0.19637 -1.18339,0.32039 -0.645956,0.11886 -1.421102,0.17053 l 0.676961,-2.32027 q 0.160197,-0.0155 0.304891,-0.0362 0.144694,-0.0207 0.279053,-0.0362 l 0.211873,-0.72347 q 0.325561,-0.031 0.604614,-0.0723 0.279053,-0.0465 0.506429,-0.10335 -0.01033,-0.0879 -0.02067,-0.1757 -0.0052,-0.0879 -0.0052,-0.1757 -0.01034,-0.0879 -0.04134,-0.25839 -0.02584,-0.1757 -0.08268,-0.43925 -0.04651,-0.23254 -0.07235,-0.42374 -0.02584,-0.19637 -0.02584,-0.36174 0,-0.86299 0.764812,-1.68982 v 0.0103 q 0.129191,-0.1447 0.268717,-0.27389 0.139526,-0.13436 0.279053,-0.24804 0.05684,-0.0724 0.118855,-0.13953 0.06201,-0.0723 0.129192,-0.14469 v 0.0103 q 0.315226,-0.35657 0.687296,-0.62012 0.37207,-0.26355 0.800985,-0.43925 0.676961,-0.28422 1.736328,-0.28422 0.258382,0 0.578776,0.0207 0.325561,0.0207 0.682129,0.062 l -1.018026,2.16007 z"
       style="font-style:normal;font-variant:normal;font-weight:normal;font-stretch:normal;font-family:'SF Fedora Shadow';-inkscape-font-specification:'SF Fedora Shadow';fill:#ffffff;stroke-width:0.26458332"
       id="path834" />
  </g>
  <g
     aria-label="friendly"
     style="font-style:normal;font-variant:normal;font-weight:normal;font-stretch:normal;font-size:15.10043526px;line-height:1.25;font-family:'New Walt Disney Font';-inkscape-font-specification:'New Walt Disney Font';letter-spacing:0px;word-spacing:0px;fill:#ffffff;fill-opacity:1;stroke:none;stroke-width:0.37751088"
     id="text843">
    <path
       d="m 71.931607,30.627105 q 0.899537,0 1.179721,0.184332 0.287557,0.176958 0.294931,0.471888 -0.03687,0.33917 -1.253454,0.33917 h -1.06175 q -0.184331,0.272811 -0.33917,1.282947 h 0.02949 q 1.776956,-0.09585 1.872808,-0.09585 0.516128,0.02212 0.516128,0.346543 0,0.552995 -2.58064,0.619354 -0.02949,1.371426 -0.02949,1.917047 0,0.538248 -0.464516,0.486636 -0.457142,-0.05161 -0.457142,-0.99539 0,-0.435023 0.08848,-1.459906 -0.516128,0 -0.516128,-0.302303 0,-0.309677 0.641474,-0.412903 0.117972,-0.744699 0.309677,-1.415666 -0.737326,-0.06636 -0.737326,-0.353916 0.04424,-0.611981 2.506908,-0.611981 z"
       style="stroke-width:0.37751088;fill:#ffffff"
       id="path845" />
    <path
       d="m 74.962016,36.193916 q -0.766819,0 -0.95115,-2.506908 -0.258064,-0.213825 -0.258064,-0.390783 0,-0.280184 0.132719,-0.258064 0.03687,0.01475 0.09585,0.01475 0,-1.120736 0.250691,-1.666357 0.31705,-0.707833 1.150228,-0.781565 0.154839,-0.01475 1.223961,-0.01475 0.847925,0 1.496772,0.272811 0.877418,0.368663 0.877418,1.098615 0,0.958524 -1.681103,1.541011 -0.169585,0.06636 -0.825805,0.169585 0.729952,0.376037 1.961287,1.688477 0.243317,0.27281 0.243317,0.604607 0,0.420276 -0.27281,0.420276 -0.140092,0 -0.243318,-0.07373 -2.337323,-2.28571 -3.089396,-2.035019 0.01475,0.567741 0.294931,1.356679 0.103225,0.560368 -0.40553,0.560368 z m -0.01475,-3.00829 q 1.105989,-0.147465 2.086632,-0.538248 0.980644,-0.390782 0.980644,-0.693086 0,-0.494008 -1.120736,-0.494008 -1.135482,0 -1.850688,0.05899 -0.09585,0.479262 -0.09585,1.430412 z"
       style="stroke-width:0.37751088;fill:#ffffff"
       id="path847" />
    <path
       d="m 81.583204,26.129417 q 1.069122,0 1.253454,0.545621 1.128108,0 1.128108,0.855298 0,0.840552 -1.467278,1.681103 -0.796312,0.398156 -1.703223,0.398156 -0.494009,0 -1.128109,-0.184331 -0.309677,0.457142 -0.552994,0.457142 -0.08111,-0.02212 -0.08848,-0.154838 0,-0.221198 0.184331,-0.670967 -0.368663,-0.309677 -0.368663,-0.884791 0,-1.172348 1.681103,-1.887555 0.464516,-0.154838 1.06175,-0.154838 z m -1.858062,1.924421 q -0.03687,0.191704 0.02949,0.27281 1.157602,-1.128108 2.101379,-1.356679 -1.835941,-0.132719 -2.130872,1.083869 z m 0.545621,0.818432 q 0.132719,0.09585 0.766819,0.154838 1.319814,0 2.197232,-1.128109 0.08848,-0.132718 0.08848,-0.33917 0,-0.243317 -0.243318,-0.243317 -0.92903,0 -2.713359,1.437785 z m 0.06636,1.740089 q 0.442395,0 0.486635,1.518891 0,3.789856 -0.641474,3.789856 -0.479262,0 -0.545621,-1.828569 0,-1.813822 0.545621,-3.354833 0.05161,-0.08848 0.154839,-0.125345 z"
       style="stroke-width:0.37751088;fill:#ffffff"
       id="path849" />
    <path
       d="m 84.473521,30.745077 q 1.03963,-0.02212 1.393546,0.368663 0.117972,0.191705 0.0074,0.435023 -0.258064,0.191704 -1.179721,0.191704 H 83.63297 q -0.184332,0.272811 -0.412903,1.504145 h 0.02949 q 1.187095,-0.09585 1.282947,-0.09585 0.516128,0.02212 0.516128,0.346543 -0.221197,0.479262 -0.921657,0.552995 -0.560368,0.05161 -1.069123,0.06636 l -0.02949,0.707833 q 0.04424,0.508755 0.449769,0.508755 1.65161,-0.08111 2.020273,-0.154839 0.162212,-0.0074 0.162212,0.09585 0,0.582487 -1.961287,1.054376 -0.294931,0.06636 -0.575114,0.06636 -1.091243,0 -1.091243,-1.091242 0,-0.435023 0.162212,-1.31244 -0.516128,-0.147466 -0.516128,-0.376037 0,-0.162211 0.641473,-0.265437 0.191705,-0.965897 0.420276,-1.636864 h -0.03687 q -0.737326,-0.06636 -0.737326,-0.353916 0.04424,-0.464515 2.506908,-0.611981 z"
       style="stroke-width:0.37751088;fill:#ffffff"
       id="path851" />
    <path
       d="m 89.856002,30.228949 q -0.02949,-0.07373 0.06636,-0.07373 0.508755,0 0.943777,1.563131 0.08848,0.449768 0.08848,1.076496 0,3.082022 -0.840551,3.082022 -0.486636,0 -1.843315,-2.123499 -0.589861,-0.870044 -0.737326,-0.943777 -0.184332,2.565894 -0.258064,2.846078 -0.02949,0.08111 -0.125346,0.07373 -0.619353,-0.280184 -0.619353,-0.958524 0,-2.543774 0.707832,-3.524418 0.08848,-0.103226 0.206452,-0.02949 0.567741,0.471889 1.238707,1.622117 0.641474,1.010137 1.179722,1.592624 0.287557,0 0.29493,-1.710596 0,-1.622117 -0.302303,-2.492162 z"
       style="stroke-width:0.37751088;fill:#ffffff"
       id="path853" />
    <path
       d="m 93.240326,31.371804 q 0,2.580641 0.07373,3.75299 0.206451,0.09585 0.781565,0.09585 1.386173,-0.07373 1.533638,-1.364053 0,-0.921658 -0.67834,-1.644237 -0.670966,-0.729953 -1.710596,-0.840552 z M 92.84217,30.612359 q 0.125346,-0.191705 0.287557,-0.191705 h 0.103226 v 0.221198 q 1.762209,0.213824 2.897691,1.688476 0.471888,0.729953 0.471888,1.415666 0,1.061749 -0.803685,1.65161 -0.796312,0.582488 -2.396309,0.582488 h -0.08848 q -0.08111,0.33917 -0.376037,0.376036 -0.398156,0 -0.398156,-0.604607 v -0.05899 q -0.936403,-0.427649 -0.936403,-0.988016 0,-0.457142 0.103225,-0.604608 0.221198,0.457143 0.72258,0.693087 -0.01475,-0.169585 -0.01475,-0.597234 0,-2.042393 0.206451,-2.905064 -0.265437,-0.01475 -0.965897,0.02212 -0.309677,-0.0074 -0.309677,-0.191704 0,-0.191705 0.36129,-0.353917 0.368663,-0.162211 0.906911,-0.162211 0.117972,0 0.228571,0.0074 z"
       style="stroke-width:0.37751088;fill:#ffffff"
       id="path855" />
    <path
       d="m 98.408982,30.361668 q 0.176958,0.0074 0.147465,0.243318 -0.457142,3.222114 -0.471889,4.379716 0.405529,0 1.880181,-0.272811 0.06636,0 0.06636,0.154838 0,0.663594 -1.312442,1.032257 -0.213824,0.03687 -0.641473,0.03687 -0.951151,0 -0.958524,-1.135482 0,-1.887554 1.03963,-4.283864 0.07373,-0.154838 0.250691,-0.154838 z"
       style="stroke-width:0.37751088;fill:#ffffff"
       id="path857" />
    <path
       d="m 101.95552,30.155217 q 0.14746,0.0074 0.10322,0.176958 -0.0369,0.140092 -0.25069,0.597234 -0.20645,0.457142 -0.38341,1.010136 -0.3834,1.216588 -0.3834,2.0129 0.0295,0.707833 0.25806,0.707833 0.48663,-1.142855 1.53364,-2.588014 1.12811,-1.62949 1.82119,-1.62949 0.7447,0 0.72995,1.253454 0,1.65161 -1.37142,3.376953 -0.84793,0.892164 -1.77696,0.892164 -0.24331,0 -0.42765,-0.08848 -0.4129,1.187095 -1.11336,3.826722 -0.059,0.199078 -0.22857,0.125345 -0.508754,-0.243318 -0.508754,-0.929031 0,-1.164975 0.929034,-3.347459 -0.64148,-0.552995 -0.64148,-1.599998 0,-1.511518 1.53364,-3.730869 0.059,-0.06636 0.17696,-0.06636 z m 0.26544,4.947457 q 1.06912,0 1.9834,-1.629491 0.50876,-1.047002 0.50876,-1.717969 0,-0.324423 -0.25069,-0.324423 -0.64148,0 -2.29309,3.487551 -0.0664,0.169585 0.0516,0.184332 z"
       style="stroke-width:0.37751088;fill:#ffffff"
       id="path859" />
  </g>
</svg>
