<?xml version="1.0" encoding="utf-8"?>
<!-- Generator: Adobe Illustrator 21.1.0, SVG Export Plug-In . SVG Version: 6.00 Build 0)  -->
<svg version="1.0"
	 id="Ebene_1" inkscape:version="0.48.5 r10040" sodipodi:docname="Kodi.svg" xmlns:cc="http://creativecommons.org/ns#" xmlns:dc="http://purl.org/dc/elements/1.1/" xmlns:inkscape="http://www.inkscape.org/namespaces/inkscape" xmlns:rdf="http://www.w3.org/1999/02/22-rdf-syntax-ns#" xmlns:sodipodi="http://sodipodi.sourceforge.net/DTD/sodipodi-0.dtd" xmlns:svg="http://www.w3.org/2000/svg"
	 xmlns="http://www.w3.org/2000/svg" xmlns:xlink="http://www.w3.org/1999/xlink" x="0px" y="0px" width="328.7px" height="129.1px"
	 viewBox="0 0 328.7 129.1" enable-background="new 0 0 328.7 129.1" xml:space="preserve">
<sodipodi:namedview  bordercolor="#666666" borderopacity="1" fit-margin-bottom="0" fit-margin-left="0" fit-margin-right="0" fit-margin-top="0" gridtolerance="10" guidetolerance="10" id="namedview31" inkscape:current-layer="Ebene_1" inkscape:cx="481.8057" inkscape:cy="11.282395" inkscape:pageopacity="0" inkscape:pageshadow="2" inkscape:window-height="706" inkscape:window-maximized="1" inkscape:window-width="1366" inkscape:window-x="-8" inkscape:window-y="-8" inkscape:zoom="0.67942367" objecttolerance="10" pagecolor="#ffffff" showgrid="false">
	</sodipodi:namedview>
<g id="g3" transform="matrix(0.4237353,0,0,0.4237353,-53.58646,-83.348259)">
	<g id="g5">
		<path id="path7" inkscape:connector-curvature="0" fill="#FFFFFF" d="M628.9,283.5c1.2,0.1,2.3,0.1,3.6,0.2
			c9,0.6,17.6,2.7,25.7,6.9c5.8,3,10.8,6.9,15.4,11.4c4.9,5,9,10.6,12,17c2.2,4.7,3.8,9.6,4.9,14.6c1.4,6.1,1.7,12.4,1.5,18.8
			c-0.4,10.1-2.7,19.8-7.4,28.8c-3.3,6.3-7.6,11.8-12.8,16.7c-8.2,7.9-18,12.9-29.1,15.2c-4.2,0.9-8.2,1.5-12.5,1.6
			c-0.2,0-0.4,0.1-0.6,0.1h-4.9c-1.1-0.1-2.2-0.1-3.2-0.2c-12.9-1-24.7-4.9-34.9-13c-8.1-6.4-14.4-14.3-18.7-23.6
			c-2.2-4.8-3.7-9.7-4.7-14.9c-1.1-5.8-1.5-11.7-1.1-17.6c0.6-12.4,3.9-24.1,11.1-34.3c8.5-12,19.6-20.7,33.7-24.7
			c4.3-1.2,8.7-2.1,13.3-2.5c1.5-0.1,2.8-0.1,4.3-0.2c0.2,0,0.5,0,0.7-0.1L628.9,283.5L628.9,283.5z M627,397.9
			c4.5,0,9-0.4,13.4-1.5c9.5-2.3,17.3-7.3,23.6-14.8c6.4-7.6,9.7-16.6,10.6-26.4c0.4-3.3,0.4-6.8,0.1-10.1
			c-0.2-3.7-0.7-7.3-1.7-10.8c-3.1-11.1-9.2-19.9-18.8-26.3c-7.1-4.8-15.1-7-23.7-7.4c-4.7-0.2-9.3,0-13.9,0.9
			c-8,1.5-15.2,4.8-21.4,10.2c-6,5.3-10.3,11.6-13,19.1c-2,5.7-2.8,11.6-3,17.6c-0.1,4.7,0.2,9.2,1.2,13.8
			c1.8,8.2,5.5,15.5,11.3,21.6c5,5.4,11.2,9.3,18.2,11.8C615.6,397.3,621.3,397.9,627,397.9"/>
		<path id="path9" inkscape:connector-curvature="0" fill="#FFFFFF" d="M862.3,411.9c-0.5,1.2-0.9,1.4-2.2,1.4c-4.3,0-8.6,0-13,0
			c-1.5,0-2.1-0.6-2.1-2.1v-124c0-1.6,0.6-2.1,2.2-2.1c4.3,0,8.6,0,13,0c0.5,0,1.1,0.2,1.6,0.5c0.2,0.1,0.4,0.6,0.5,1V411.9
			L862.3,411.9L862.3,411.9z"/>
		<path id="path11" inkscape:connector-curvature="0" fill="#FFFFFF" d="M509.2,337c2.2,3,4.3,5.8,6.5,8.6
			c4.5,6.1,9.2,12.2,13.8,18.3c5.9,7.9,11.8,15.7,17.7,23.5c5.8,7.6,11.6,15.4,17.3,23c0.5,0.6,0.6,1.1,0.4,1.8
			c-0.4,0.6-0.9,0.9-1.6,0.9c-0.4,0-0.6,0-1,0c-5.3,0-10.7,0-16,0c-0.9,0-1.6-0.2-2.2-1.1c-10.1-13.4-20.2-26.9-30.2-40.3
			c-5.8-7.6-11.4-15.2-17.2-22.9c0-0.1-0.1-0.1-0.1-0.2c-0.7,0.6-1.4,1.2-2.1,2c-4.7,4.3-9.2,8.7-13.9,13c-2.6,2.3-5.2,4.8-7.7,7.1
			c-0.4,0.2-0.5,0.6-0.5,1.1c0,13,0,25.9,0,39c0,0.1,0,0.4,0,0.5c0,1.2-0.6,1.8-1.8,1.8c-4.5,0-9.1,0-13.6,0c-1.1,0-1.7-0.6-1.8-1.8
			c0-0.1,0-0.2,0-0.4V287.3v-0.1c0-1.6,0.6-2.1,2.1-2.1c4.2,0,8.4,0,12.4,0c0.2,0,0.5,0,0.9,0c1.2,0,1.8,0.6,1.8,1.8
			c0,0.1,0,0.4,0,0.5v60v0.9c1-1,2-1.8,2.8-2.7c5.5-5.2,10.9-10.3,16.5-15.4c7.1-6.8,14.4-13.5,21.5-20.2c6-5.7,12-11.3,18.1-17
			c2.6-2.3,5-4.8,7.6-7.1c0.5-0.5,1.1-0.7,1.8-0.7c6.4,0,12.7,0,19.1,0c1.1,0,1.7,0.4,2,1.2c0.2,0.6-0.1,1.2-0.5,1.6
			c-1.8,1.7-3.7,3.4-5.5,5.3c-3.3,3.1-6.5,6.1-9.8,9.2c-4.5,4.3-9.1,8.5-13.5,12.8c-4.7,4.4-9.2,8.7-13.9,13.2
			C515.4,331.2,512.4,334.1,509.2,337"/>
		<path id="path13" inkscape:connector-curvature="0" fill="#FFFFFF" d="M711.8,349.2v-61.7c0-0.1,0-0.4,0-0.5
			c0-1.1,0.6-1.7,1.7-1.8c0.1,0,0.1,0,0.2,0c17.7,0,35.3,0,53,0c8.1,0,15.9,1.8,23.2,5.2c6.4,2.8,12,6.9,17.1,11.9
			c8,8.2,13.4,18,16,29.1c1.5,6.4,2.1,13,2,19.6c-0.2,8.9-1.7,17.5-5,25.7c-2.8,6.9-6.9,13-11.9,18.4c-7.7,8.4-17.2,13.8-28.3,16.5
			c-4.8,1.1-9.6,1.7-14.5,1.7c-17.1,0-34.2,0-51.3,0c-0.2,0-0.6,0-0.9-0.1c-0.6-0.1-1-0.5-1.1-1.1c0-0.4-0.1-0.6-0.1-1
			C711.8,390.5,711.8,369.8,711.8,349.2 M729.1,396.8h0.7c11.4,0,23,0,34.4,0c2.1,0,4.2-0.1,6.1-0.2c4.3-0.4,8.4-1.5,12.2-3.2
			c5-2.3,9.3-5.8,13-10c3.4-3.9,6.1-8.2,8.1-13c2.1-5.2,3.3-10.5,3.7-16c0.4-5,0.2-10.1-0.5-15c-0.9-5.9-2.8-11.4-5.8-16.6
			c-3.3-5.8-7.5-10.7-12.9-14.5c-6.5-4.5-13.9-6.6-21.8-6.8c-12.3,0-24.6,0-36.9,0h-0.5v95.3H729.1L729.1,396.8z"/>
	</g>
	<g id="g15">
		<path id="path17" inkscape:connector-curvature="0" fill="#FFFFFF" d="M396,350.9c-0.7,2.5-2.3,4.2-4.1,5.9
			c-11.7,11.6-23.2,23.2-34.8,34.8c-4.2,4.2-8.6,4.2-12.9,0c-11.9-12-24-24-35.9-36c-4.1-4.1-4.1-8.6,0-12.7
			c12-12,24.1-24.1,36.1-36.1c3.9-3.9,8.5-3.9,12.4,0c11.7,11.7,23.4,23.4,35,35c1.7,1.7,3.3,3.4,4.1,5.9L396,350.9L396,350.9
			L396,350.9z"/>
		<path id="path19" inkscape:connector-curvature="0" fill="#FFFFFF" d="M280.5,463.3c-2.3-0.7-4.2-2.5-5.9-4.2
			c-11.6-11.7-23.2-23.2-34.8-34.9c-4.2-4.2-4.2-8.6,0-12.8c12-12,24-24.1,36-36c4.1-4.1,8.6-4.1,12.5,0c12,12,24,24.1,36,36
			c4.2,4.2,4.2,8.6,0,12.8c-11.7,11.7-23.5,23.5-35.2,35.2c-1.7,1.7-3.4,3.2-5.8,3.8L280.5,463.3L280.5,463.3z"/>
		<path id="path21" inkscape:connector-curvature="0" fill="#FFFFFF" d="M238.3,320.5c0-13.4,0.1-26.8-0.1-40.1
			c0-3.8,0.9-6.9,3.8-9.5c2.3-2.1,4.4-4.4,6.8-6.6c8.9-8.9,17.6-17.6,26.4-26.4c4.2-4.2,8.6-4.2,12.8,0c11.9,12,24,24,35.9,36
			c4.2,4.2,4.1,8.6,0,12.8c-14.1,14.1-28.4,28.4-42.5,42.5c-12.5,12.5-25.1,25.1-37.5,37.6c-2.3,2.3-4.4,1.8-5.2-1.5
			c-0.2-1-0.2-2.1-0.2-3.1C238.3,348.3,238.3,334.4,238.3,320.5"/>
		<path id="path23" inkscape:connector-curvature="0" fill="#FFFFFF" d="M209.6,349.4c0,12.3,0,24.6,0,36.8c0,1.1-0.2,2.5-0.6,3.4
			c-0.9,2.1-2.3,2.3-3.9,0.7c-5.7-5.7-11.3-11.3-17-17c-6.5-6.5-13-13-19.6-19.6c-2.7-2.7-2.7-6.4,0-9.2c11.9-12.2,24-24.2,36-36.4
			c0.7-0.9,1.6-1.8,3-1.4c1.2,0.5,1.8,1.6,2,3c0.1,0.7,0.2,1.6,0.2,2.5C209.6,324.8,209.6,337.1,209.6,349.4L209.6,349.4
			L209.6,349.4z"/>
	</g>
</g>
</svg>
