<?xml version="1.0" encoding="UTF-8" standalone="no"?>
<!-- Generator: Adobe Illustrator 21.1.0, SVG Export Plug-In . SVG Version: 6.00 Build 0)  -->

<svg
   xmlns:dc="http://purl.org/dc/elements/1.1/"
   xmlns:cc="http://creativecommons.org/ns#"
   xmlns:rdf="http://www.w3.org/1999/02/22-rdf-syntax-ns#"
   xmlns:svg="http://www.w3.org/2000/svg"
   xmlns="http://www.w3.org/2000/svg"
   xmlns:sodipodi="http://sodipodi.sourceforge.net/DTD/sodipodi-0.dtd"
   xmlns:inkscape="http://www.inkscape.org/namespaces/inkscape"
   version="1.0"
   id="Ebene_1"
   inkscape:version="0.92.2 (unknown)"
   sodipodi:docname="kodi.svg"
   x="0px"
   y="0px"
   width="294.84561"
   height="96.844704"
   viewBox="0 0 294.8456 96.844699"
   enable-background="new 0 0 328.7 129.1"
   xml:space="preserve"><metadata
     id="metadata82"><rdf:RDF><cc:Work
         rdf:about=""><dc:format>image/svg+xml</dc:format><dc:type
           rdf:resource="http://purl.org/dc/dcmitype/StillImage" /><dc:title></dc:title></cc:Work></rdf:RDF></metadata><defs
     id="defs80" /><sodipodi:namedview
     bordercolor="#666666"
     borderopacity="1"
     fit-margin-bottom="0"
     fit-margin-left="0"
     fit-margin-right="0"
     fit-margin-top="0"
     gridtolerance="10"
     guidetolerance="10"
     id="namedview31"
     inkscape:current-layer="Ebene_1"
     inkscape:cx="464.85083"
     inkscape:cy="-4.8493056"
     inkscape:pageopacity="0"
     inkscape:pageshadow="2"
     inkscape:window-height="1055"
     inkscape:window-maximized="1"
     inkscape:window-width="1920"
     inkscape:window-x="0"
     inkscape:window-y="0"
     inkscape:zoom="0.67942367"
     objecttolerance="10"
     pagecolor="#ffffff"
     showgrid="false"
     inkscape:pagecheckerboard="false" /><g
     id="g3"
     transform="matrix(0.4237353,0,0,0.4237353,-70.541334,-99.471862)"><g
       id="g5"><path
         id="path7"
         inkscape:connector-curvature="0"
         d="m 628.9,283.5 c 1.2,0.1 2.3,0.1 3.6,0.2 9,0.6 17.6,2.7 25.7,6.9 5.8,3 10.8,6.9 15.4,11.4 4.9,5 9,10.6 12,17 2.2,4.7 3.8,9.6 4.9,14.6 1.4,6.1 1.7,12.4 1.5,18.8 -0.4,10.1 -2.7,19.8 -7.4,28.8 -3.3,6.3 -7.6,11.8 -12.8,16.7 -8.2,7.9 -18,12.9 -29.1,15.2 -4.2,0.9 -8.2,1.5 -12.5,1.6 -0.2,0 -0.4,0.1 -0.6,0.1 h -4.9 c -1.1,-0.1 -2.2,-0.1 -3.2,-0.2 -12.9,-1 -24.7,-4.9 -34.9,-13 -8.1,-6.4 -14.4,-14.3 -18.7,-23.6 -2.2,-4.8 -3.7,-9.7 -4.7,-14.9 -1.1,-5.8 -1.5,-11.7 -1.1,-17.6 0.6,-12.4 3.9,-24.1 11.1,-34.3 8.5,-12 19.6,-20.7 33.7,-24.7 4.3,-1.2 8.7,-2.1 13.3,-2.5 1.5,-0.1 2.8,-0.1 4.3,-0.2 0.2,0 0.5,0 0.7,-0.1 z M 627,397.9 c 4.5,0 9,-0.4 13.4,-1.5 9.5,-2.3 17.3,-7.3 23.6,-14.8 6.4,-7.6 9.7,-16.6 10.6,-26.4 0.4,-3.3 0.4,-6.8 0.1,-10.1 -0.2,-3.7 -0.7,-7.3 -1.7,-10.8 -3.1,-11.1 -9.2,-19.9 -18.8,-26.3 -7.1,-4.8 -15.1,-7 -23.7,-7.4 -4.7,-0.2 -9.3,0 -13.9,0.9 -8,1.5 -15.2,4.8 -21.4,10.2 -6,5.3 -10.3,11.6 -13,19.1 -2,5.7 -2.8,11.6 -3,17.6 -0.1,4.7 0.2,9.2 1.2,13.8 1.8,8.2 5.5,15.5 11.3,21.6 5,5.4 11.2,9.3 18.2,11.8 5.7,1.7 11.4,2.3 17.1,2.3"
         style="fill:#ffffff" /><path
         id="path9"
         inkscape:connector-curvature="0"
         d="m 862.3,411.9 c -0.5,1.2 -0.9,1.4 -2.2,1.4 -4.3,0 -8.6,0 -13,0 -1.5,0 -2.1,-0.6 -2.1,-2.1 v -124 c 0,-1.6 0.6,-2.1 2.2,-2.1 4.3,0 8.6,0 13,0 0.5,0 1.1,0.2 1.6,0.5 0.2,0.1 0.4,0.6 0.5,1 v 125.3 z"
         style="fill:#ffffff" /><path
         id="path11"
         inkscape:connector-curvature="0"
         d="m 509.2,337 c 2.2,3 4.3,5.8 6.5,8.6 4.5,6.1 9.2,12.2 13.8,18.3 5.9,7.9 11.8,15.7 17.7,23.5 5.8,7.6 11.6,15.4 17.3,23 0.5,0.6 0.6,1.1 0.4,1.8 -0.4,0.6 -0.9,0.9 -1.6,0.9 -0.4,0 -0.6,0 -1,0 -5.3,0 -10.7,0 -16,0 -0.9,0 -1.6,-0.2 -2.2,-1.1 -10.1,-13.4 -20.2,-26.9 -30.2,-40.3 -5.8,-7.6 -11.4,-15.2 -17.2,-22.9 0,-0.1 -0.1,-0.1 -0.1,-0.2 -0.7,0.6 -1.4,1.2 -2.1,2 -4.7,4.3 -9.2,8.7 -13.9,13 -2.6,2.3 -5.2,4.8 -7.7,7.1 -0.4,0.2 -0.5,0.6 -0.5,1.1 0,13 0,25.9 0,39 0,0.1 0,0.4 0,0.5 0,1.2 -0.6,1.8 -1.8,1.8 -4.5,0 -9.1,0 -13.6,0 -1.1,0 -1.7,-0.6 -1.8,-1.8 0,-0.1 0,-0.2 0,-0.4 v -123.6 -0.1 c 0,-1.6 0.6,-2.1 2.1,-2.1 4.2,0 8.4,0 12.4,0 0.2,0 0.5,0 0.9,0 1.2,0 1.8,0.6 1.8,1.8 0,0.1 0,0.4 0,0.5 v 60 0.9 c 1,-1 2,-1.8 2.8,-2.7 5.5,-5.2 10.9,-10.3 16.5,-15.4 7.1,-6.8 14.4,-13.5 21.5,-20.2 6,-5.7 12,-11.3 18.1,-17 2.6,-2.3 5,-4.8 7.6,-7.1 0.5,-0.5 1.1,-0.7 1.8,-0.7 6.4,0 12.7,0 19.1,0 1.1,0 1.7,0.4 2,1.2 0.2,0.6 -0.1,1.2 -0.5,1.6 -1.8,1.7 -3.7,3.4 -5.5,5.3 -3.3,3.1 -6.5,6.1 -9.8,9.2 -4.5,4.3 -9.1,8.5 -13.5,12.8 -4.7,4.4 -9.2,8.7 -13.9,13.2 -3.2,2.7 -6.2,5.6 -9.4,8.5"
         style="fill:#ffffff" /><path
         id="path13"
         inkscape:connector-curvature="0"
         d="m 711.8,349.2 v -61.7 c 0,-0.1 0,-0.4 0,-0.5 0,-1.1 0.6,-1.7 1.7,-1.8 0.1,0 0.1,0 0.2,0 17.7,0 35.3,0 53,0 8.1,0 15.9,1.8 23.2,5.2 6.4,2.8 12,6.9 17.1,11.9 8,8.2 13.4,18 16,29.1 1.5,6.4 2.1,13 2,19.6 -0.2,8.9 -1.7,17.5 -5,25.7 -2.8,6.9 -6.9,13 -11.9,18.4 -7.7,8.4 -17.2,13.8 -28.3,16.5 -4.8,1.1 -9.6,1.7 -14.5,1.7 -17.1,0 -34.2,0 -51.3,0 -0.2,0 -0.6,0 -0.9,-0.1 -0.6,-0.1 -1,-0.5 -1.1,-1.1 0,-0.4 -0.1,-0.6 -0.1,-1 -0.1,-20.6 -0.1,-41.3 -0.1,-61.9 m 17.3,47.6 h 0.7 c 11.4,0 23,0 34.4,0 2.1,0 4.2,-0.1 6.1,-0.2 4.3,-0.4 8.4,-1.5 12.2,-3.2 5,-2.3 9.3,-5.8 13,-10 3.4,-3.9 6.1,-8.2 8.1,-13 2.1,-5.2 3.3,-10.5 3.7,-16 0.4,-5 0.2,-10.1 -0.5,-15 -0.9,-5.9 -2.8,-11.4 -5.8,-16.6 -3.3,-5.8 -7.5,-10.7 -12.9,-14.5 -6.5,-4.5 -13.9,-6.6 -21.8,-6.8 -12.3,0 -24.6,0 -36.9,0 h -0.5 v 95.3 z"
         style="fill:#ffffff" /></g><g
       id="g15"><path
         id="path17"
         inkscape:connector-curvature="0"
         d="m 396,350.9 c -0.7,2.5 -2.3,4.2 -4.1,5.9 -11.7,11.6 -23.2,23.2 -34.8,34.8 -4.2,4.2 -8.6,4.2 -12.9,0 -11.9,-12 -24,-24 -35.9,-36 -4.1,-4.1 -4.1,-8.6 0,-12.7 12,-12 24.1,-24.1 36.1,-36.1 3.9,-3.9 8.5,-3.9 12.4,0 11.7,11.7 23.4,23.4 35,35 1.7,1.7 3.3,3.4 4.1,5.9 l 0.1,3.2 z"
         style="fill:#ffffff" /><path
         id="path19"
         inkscape:connector-curvature="0"
         d="m 280.5,463.3 c -2.3,-0.7 -4.2,-2.5 -5.9,-4.2 -11.6,-11.7 -23.2,-23.2 -34.8,-34.9 -4.2,-4.2 -4.2,-8.6 0,-12.8 12,-12 24,-24.1 36,-36 4.1,-4.1 8.6,-4.1 12.5,0 12,12 24,24.1 36,36 4.2,4.2 4.2,8.6 0,12.8 -11.7,11.7 -23.5,23.5 -35.2,35.2 -1.7,1.7 -3.4,3.2 -5.8,3.8 z"
         style="fill:#ffffff" /><path
         id="path21"
         inkscape:connector-curvature="0"
         d="m 238.3,320.5 c 0,-13.4 0.1,-26.8 -0.1,-40.1 0,-3.8 0.9,-6.9 3.8,-9.5 2.3,-2.1 4.4,-4.4 6.8,-6.6 8.9,-8.9 17.6,-17.6 26.4,-26.4 4.2,-4.2 8.6,-4.2 12.8,0 11.9,12 24,24 35.9,36 4.2,4.2 4.1,8.6 0,12.8 -14.1,14.1 -28.4,28.4 -42.5,42.5 -12.5,12.5 -25.1,25.1 -37.5,37.6 -2.3,2.3 -4.4,1.8 -5.2,-1.5 -0.2,-1 -0.2,-2.1 -0.2,-3.1 -0.2,-13.9 -0.2,-27.8 -0.2,-41.7"
         style="fill:#ffffff" /><path
         id="path23"
         inkscape:connector-curvature="0"
         d="m 209.6,349.4 c 0,12.3 0,24.6 0,36.8 0,1.1 -0.2,2.5 -0.6,3.4 -0.9,2.1 -2.3,2.3 -3.9,0.7 -5.7,-5.7 -11.3,-11.3 -17,-17 -6.5,-6.5 -13,-13 -19.6,-19.6 -2.7,-2.7 -2.7,-6.4 0,-9.2 11.9,-12.2 24,-24.2 36,-36.4 0.7,-0.9 1.6,-1.8 3,-1.4 1.2,0.5 1.8,1.6 2,3 0.1,0.7 0.2,1.6 0.2,2.5 -0.1,12.6 -0.1,24.9 -0.1,37.2 z"
         style="fill:#ffffff" /></g></g></svg>