<?xml version="1.0" encoding="UTF-8" standalone="no"?>
<svg
   xmlns:osb="http://www.openswatchbook.org/uri/2009/osb"
   xmlns:dc="http://purl.org/dc/elements/1.1/"
   xmlns:cc="http://creativecommons.org/ns#"
   xmlns:rdf="http://www.w3.org/1999/02/22-rdf-syntax-ns#"
   xmlns:svg="http://www.w3.org/2000/svg"
   xmlns="http://www.w3.org/2000/svg"
   xmlns:sodipodi="http://sodipodi.sourceforge.net/DTD/sodipodi-0.dtd"
   xmlns:inkscape="http://www.inkscape.org/namespaces/inkscape"
   inkscape:version="1.0 (4035a4fb49, 2020-05-01)"
   sodipodi:docname="mame.svg"
   xml:space="preserve"
   enable-background="new 0 -0.001 566.929 157.78"
   viewBox="0 -0.001 577.92875 169.08218"
   height="169.08218"
   width="577.92877"
   y="0px"
   x="0px"
   id="TEXT"
   version="1.1"><metadata
     id="metadata339"><rdf:RDF><cc:Work
         rdf:about=""><dc:format>image/svg+xml</dc:format><dc:type
           rdf:resource="http://purl.org/dc/dcmitype/StillImage" /><dc:title></dc:title></cc:Work></rdf:RDF></metadata><defs
     id="defs337"><linearGradient
       osb:paint="solid"
       id="linearGradient5174"><stop
         id="stop5172"
         offset="0"
         style="stop-color:#ffffff;stop-opacity:1;" /></linearGradient></defs><sodipodi:namedview
     lock-margins="true"
     inkscape:document-rotation="0"
     showguides="true"
     inkscape:current-layer="TEXT"
     inkscape:window-maximized="1"
     inkscape:window-y="-8"
     inkscape:window-x="-8"
     inkscape:cy="104.8138"
     inkscape:cx="568.20927"
     inkscape:zoom="1.9261669"
     fit-margin-bottom="5"
     fit-margin-right="5"
     fit-margin-left="5"
     fit-margin-top="5"
     inkscape:pagecheckerboard="true"
     showgrid="false"
     id="namedview335"
     inkscape:window-height="1017"
     inkscape:window-width="1920"
     inkscape:pageshadow="2"
     inkscape:pageopacity="0"
     guidetolerance="10"
     gridtolerance="10"
     objecttolerance="10"
     borderopacity="1"
     bordercolor="#666666"
     pagecolor="#ffffff" /><linearGradient
     gradientTransform="translate(-0.1797,-875.4102)"
     y2="955.59772"
     x2="11.77"
     y1="955.59772"
     x1="558.12842"
     gradientUnits="userSpaceOnUse"
     id="SVGID_1_"><stop
       id="stop2"
       style="stop-color:#013A67"
       offset="0" /><stop
       id="stop4"
       style="stop-color:#6CD1FF"
       offset="1" /></linearGradient><polygon
     transform="translate(5.5,5.5001205)"
     style="opacity:1;fill:#ffffff;fill-opacity:1;fill-rule:evenodd;stroke:#ffffff;stroke-opacity:1"
     id="polygon7"
     points="396.686,9.001 355.481,51.055 345.625,52.224 345.625,9.374 261.264,92.842 250.775,93.958 251.667,8.077 177.937,82.94 168.255,82.987 167.12,11.089 127.342,51.15 116.278,51.717 116.697,8.939 11.591,114.895 46.209,114.328 91.598,70.276 100.303,70.276 99.883,114.54 136.035,77.543 144.679,77.543 144.679,115.23 104.892,154.73 143.019,154.165 218.036,78.299 228.14,78.299 228.14,115.57 274.897,115.854 320.115,70.353 328.843,69.786 328.708,112.799 364.839,76.667 373.375,76.667 373.941,113.102 373.203,114.998 482.378,114.998 503.279,93.815 435.398,92.661 434.781,82.809 445.357,71.67 470.968,71.667 493.216,49.133 479.769,48.565 479.769,39.082 491.191,27.662 536.777,27.946 557.949,5.927 479.951,5.642 406.662,79.217 396.4,79.784 " /><linearGradient
     gradientTransform="translate(-0.1797,-875.4102)"
     y2="934.84479"
     x2="60.764999"
     y1="938.78912"
     x1="64.709503"
     gradientUnits="userSpaceOnUse"
     id="SVGID_2_"><stop
       id="stop9"
       style="stop-color:#08406F"
       offset="0" /><stop
       id="stop11"
       style="stop-color:#60C5F5"
       offset="1" /></linearGradient><path
     inkscape:connector-curvature="0"
     style="opacity:1;fill:#ffffff;fill-opacity:1;fill-rule:evenodd;stroke:#ffffff;stroke-opacity:1"
     id="path14"
     d="M 120.192,18.713121 19.077,119.82812 l -11.471,4.313 c 0,0 -0.604,0.039 -0.271,-0.445 0,0 117.26,-117.2919995 117.472,-117.4709995 0.212,-0.181 0.467,-0.028 0.467,-0.028 z" /><linearGradient
     gradientTransform="translate(-0.1797,-875.4102)"
     y2="1010.2849"
     x2="119.6701"
     y1="1013.9102"
     x1="123.2954"
     gradientUnits="userSpaceOnUse"
     id="SVGID_3_"><stop
       id="stop16"
       style="stop-color:#08406F"
       offset="0" /><stop
       id="stop18"
       style="stop-color:#60C5F5"
       offset="1" /></linearGradient><path
     inkscape:connector-curvature="0"
     style="opacity:1;fill:#ffffff;fill-opacity:1;fill-rule:evenodd;stroke:#ffffff;stroke-opacity:1"
     id="path21"
     d="m 151.314,121.29712 -37.518,37.521 -11.065,4.457 c 0,0 -0.576,0.065 -0.236,-0.407 l 43.929,-43.749 z" /><linearGradient
     gradientTransform="translate(-0.1797,-875.4102)"
     y2="989.73828"
     x2="25.7236"
     y1="994.05078"
     x1="25.7236"
     gradientUnits="userSpaceOnUse"
     id="SVGID_4_"><stop
       id="stop23"
       style="stop-color:#08406F"
       offset="0" /><stop
       id="stop25"
       style="stop-color:#60C5F5"
       offset="1" /></linearGradient><polygon
     transform="translate(5.5,5.5001205)"
     style="opacity:1;fill:#ffffff;fill-opacity:1;fill-rule:evenodd;stroke:#ffffff;stroke-opacity:1"
     id="polygon28"
     points="13.603,114.328 46.209,114.328 48.982,118.641 2.106,118.641 " /><linearGradient
     gradientTransform="translate(-0.1797,-875.4102)"
     y2="1028.7246"
     x2="121.1855"
     y1="1033.1816"
     x1="121.1855"
     gradientUnits="userSpaceOnUse"
     id="SVGID_5_"><stop
       id="stop30"
       style="stop-color:#08406F"
       offset="0" /><stop
       id="stop32"
       style="stop-color:#60C5F5"
       offset="1" /></linearGradient><polygon
     transform="translate(5.5,5.5001205)"
     style="opacity:1;fill:#ffffff;fill-opacity:1;fill-rule:evenodd;stroke:#ffffff;stroke-opacity:1"
     id="polygon35"
     points="108.296,153.314 142.168,153.314 144.781,157.771 97.23,157.771 " /><linearGradient
     gradientTransform="translate(-0.1797,-875.4102)"
     y2="989.55658"
     x2="427.69379"
     y1="994.02338"
     x1="427.69379"
     gradientUnits="userSpaceOnUse"
     id="SVGID_6_"><stop
       id="stop37"
       style="stop-color:#08406F"
       offset="0" /><stop
       id="stop39"
       style="stop-color:#60C5F5"
       offset="1" /></linearGradient><polygon
     transform="translate(5.5,5.5001205)"
     style="opacity:1;fill:#ffffff;fill-opacity:1;fill-rule:evenodd;stroke:#ffffff;stroke-opacity:1"
     id="polygon42"
     points="374.052,114.148 481.529,114.146 484.787,118.613 370.242,118.584 " /><linearGradient
     gradientTransform="translate(-0.1797,-875.4102)"
     y2="990.41602"
     x2="251.0645"
     y1="994.89447"
     x1="251.0645"
     gradientUnits="userSpaceOnUse"
     id="SVGID_7_"><stop
       id="stop44"
       style="stop-color:#08406F"
       offset="0" /><stop
       id="stop46"
       style="stop-color:#60C5F5"
       offset="1" /></linearGradient><path
     inkscape:connector-curvature="0"
     style="opacity:1;fill:#ffffff;fill-opacity:1;fill-rule:evenodd;stroke:#ffffff;stroke-opacity:1"
     id="path49"
     d="m 282.553,124.98412 -51.527,-0.029 c -0.333,0.005 -0.81,-0.335 -0.81,-0.335 l 4.561,-4.115 h 45.054 z" /><linearGradient
     gradientTransform="translate(-0.1797,-875.4102)"
     y2="877.32422"
     x2="522.28082"
     y1="882.1875"
     x1="522.28082"
     gradientUnits="userSpaceOnUse"
     id="SVGID_8_"><stop
       id="stop51"
       style="stop-color:#08406F"
       offset="0" /><stop
       id="stop53"
       style="stop-color:#60C5F5"
       offset="1" /></linearGradient><path
     inkscape:connector-curvature="0"
     style="opacity:1;fill:#ffffff;fill-opacity:1;fill-rule:evenodd;stroke:#ffffff;stroke-opacity:1"
     id="path56"
     d="m 482.882,7.4131205 h 88.652 c 0.785,0 0.785,0.313 0.785,0.313 L 561.747,12.27612 h -75.164 z" /><linearGradient
     gradientTransform="translate(-0.1797,-875.4102)"
     y2="902.50488"
     x2="515.01318"
     y1="906.71478"
     x1="515.01318"
     gradientUnits="userSpaceOnUse"
     id="SVGID_9_"><stop
       id="stop58"
       style="stop-color:#08406F"
       offset="0" /><stop
       id="stop60"
       style="stop-color:#60C5F5"
       offset="1" /></linearGradient><polygon
     transform="translate(5.5,5.5001205)"
     style="opacity:1;fill:#ffffff;fill-opacity:1;fill-rule:evenodd;stroke:#ffffff;stroke-opacity:1"
     id="polygon63"
     points="490.625,27.094 535.927,27.094 539.042,31.304 492.697,31.304 " /><linearGradient
     gradientTransform="translate(-0.1797,-875.4102)"
     y2="946.51172"
     x2="459.3696"
     y1="950.23053"
     x1="459.3696"
     gradientUnits="userSpaceOnUse"
     id="SVGID_10_"><stop
       id="stop65"
       style="stop-color:#08406F"
       offset="0" /><stop
       id="stop67"
       style="stop-color:#60C5F5"
       offset="1" /></linearGradient><polygon
     transform="translate(5.5,5.5001205)"
     style="opacity:1;fill:#ffffff;fill-opacity:1;fill-rule:evenodd;stroke:#ffffff;stroke-opacity:1"
     id="polygon70"
     points="444.791,71.102 470.402,71.1 473.589,74.82 448.91,74.82 " /><linearGradient
     gradientTransform="translate(-0.1797,-875.4102)"
     y2="919.55658"
     x2="490.16061"
     y1="925.11133"
     x1="490.16061"
     gradientUnits="userSpaceOnUse"
     id="SVGID_11_"><stop
       id="stop72"
       style="stop-color:#08406F"
       offset="0" /><stop
       id="stop74"
       style="stop-color:#60C5F5"
       offset="1" /></linearGradient><path
     inkscape:connector-curvature="0"
     style="opacity:1;fill:#ffffff;fill-opacity:1;fill-rule:evenodd;stroke:#ffffff;stroke-opacity:1"
     id="path77"
     d="m 497.3,55.200121 h -13.58 l -1.193,-5.548 h 25.467 c 0.346,-0.043 0.441,0.146 0.441,0.146 z" /><linearGradient
     gradientTransform="translate(-0.1797,-875.4102)"
     y2="965.28198"
     x2="70.846001"
     y1="968.8252"
     x1="74.389198"
     gradientUnits="userSpaceOnUse"
     id="SVGID_12_"><stop
       id="stop79"
       style="stop-color:#08406F"
       offset="0" /><stop
       id="stop81"
       style="stop-color:#60C5F5"
       offset="1" /></linearGradient><path
     inkscape:connector-curvature="0"
     style="opacity:1;fill:#ffffff;fill-opacity:1;fill-rule:evenodd;stroke:#ffffff;stroke-opacity:1"
     id="path84"
     d="m 102.372,76.134121 -47.89,48.008999 -2.773,-4.313 46.601,-46.364999 c 2,-2.313 4.675,-1.731 4.675,-1.731 z" /><linearGradient
     gradientTransform="translate(-0.1797,-875.4102)"
     y2="904.36908"
     x2="114.8892"
     y1="904.36908"
     x1="120.2554"
     gradientUnits="userSpaceOnUse"
     id="SVGID_13_"><stop
       id="stop86"
       style="stop-color:#08406F"
       offset="0" /><stop
       id="stop88"
       style="stop-color:#60C5F5"
       offset="1" /></linearGradient><path
     inkscape:connector-curvature="0"
     style="opacity:1;fill:#ffffff;fill-opacity:1;fill-rule:evenodd;stroke:#ffffff;stroke-opacity:1"
     id="path91"
     d="m 120.21,57.169121 v -38.476 l 5.063,-12.4990005 c 0,0 0.303,0.075 0.303,0.571 0,0.493 0,53.6470005 0,53.6470005 l -0.315,2.311 c 0,10e-4 -4.496,0.025 -5.051,-5.554 z" /><linearGradient
     gradientTransform="translate(-0.1797,-875.4102)"
     y2="919.96088"
     x2="166.4209"
     y1="919.96088"
     x1="173.0811"
     gradientUnits="userSpaceOnUse"
     id="SVGID_14_"><stop
       id="stop93"
       style="stop-color:#08406F"
       offset="0" /><stop
       id="stop95"
       style="stop-color:#60C5F5"
       offset="1" /></linearGradient><path
     inkscape:connector-curvature="0"
     style="opacity:1;fill:#ffffff;fill-opacity:1;fill-rule:evenodd;stroke:#ffffff;stroke-opacity:1"
     id="path98"
     d="m 178.402,94.343121 c 0,0 -6.539,1.95 -6.621,-5.625 -0.08,-7.313 -0.013,-69.291 -0.013,-69.291 l 5.214,-13.8960005 c 0,0 0.182,-0.027 0.182,0.725 l -0.017,81.7930005 z" /><linearGradient
     gradientTransform="translate(-0.1797,-875.4102)"
     y2="925.21582"
     x2="249.9951"
     y1="925.21582"
     x1="255.9883"
     gradientUnits="userSpaceOnUse"
     id="SVGID_15_"><stop
       id="stop100"
       style="stop-color:#08406F"
       offset="0" /><stop
       id="stop102"
       style="stop-color:#60C5F5"
       offset="1" /></linearGradient><path
     inkscape:connector-curvature="0"
     style="opacity:1;fill:#ffffff;fill-opacity:1;fill-rule:evenodd;stroke:#ffffff;stroke-opacity:1"
     id="path105"
     d="m 261.309,104.41012 c 0,0 -5.889,0.577 -5.96,-6.087999 l -0.033,-80.063 4.651,-12.0710005 c 0,0 0.583,0.153 0.583,0.907 l -0.016,91.1400005 z" /><linearGradient
     gradientTransform="translate(-0.1797,-875.4102)"
     y2="904.625"
     x2="343.57571"
     y1="904.625"
     x1="349.27689"
     gradientUnits="userSpaceOnUse"
     id="SVGID_16_"><stop
       id="stop107"
       style="stop-color:#08406F"
       offset="0" /><stop
       id="stop109"
       style="stop-color:#60C5F5"
       offset="1" /></linearGradient><path
     inkscape:connector-curvature="0"
     style="opacity:1;fill:#ffffff;fill-opacity:1;fill-rule:evenodd;stroke:#ffffff;stroke-opacity:1"
     id="path112"
     d="m 354.597,62.925121 c 0,0 -4.868,0.452 -5.701,-4.563 v -39.723 l 4.393,-12.1470005 c 0,0 0.563,0.134 0.563,0.886 V 57.045121 Z" /><linearGradient
     gradientTransform="translate(-0.1797,-875.4102)"
     y2="918.44629"
     x2="395.1636"
     y1="918.44629"
     x1="400.96039"
     gradientUnits="userSpaceOnUse"
     id="SVGID_17_"><stop
       id="stop114"
       style="stop-color:#08406F"
       offset="0" /><stop
       id="stop116"
       style="stop-color:#60C5F5"
       offset="1" /></linearGradient><path
     inkscape:connector-curvature="0"
     style="opacity:1;fill:#ffffff;fill-opacity:1;fill-rule:evenodd;stroke:#ffffff;stroke-opacity:1"
     id="path119"
     d="m 406.281,90.833121 c 0,0 -4.938,0.643 -5.797,-4.373 v -67.706 l 4.85,-12.5440005 c 0,0 0.268,0.221 0.268,1.708 V 85.144121 Z" /><linearGradient
     gradientTransform="translate(-0.1797,-875.4102)"
     y2="968.93848"
     x2="96.654297"
     y1="968.93848"
     x1="101.7651"
     gradientUnits="userSpaceOnUse"
     id="SVGID_18_"><stop
       id="stop121"
       style="stop-color:#08406F"
       offset="0" /><stop
       id="stop123"
       style="stop-color:#60C5F5"
       offset="1" /></linearGradient><path
     inkscape:connector-curvature="0"
     style="opacity:1;fill:#ffffff;fill-opacity:1;fill-rule:evenodd;stroke:#ffffff;stroke-opacity:1"
     id="path126"
     d="m 103.259,126.32012 c 0,0 -0.833,-0.069 -0.809,-1.149 -0.001,-0.917 -0.078,-49.035999 -0.078,-49.035999 0,0 -1.218,-1.577 0.613,-4.4 0.547,0.131 3.495,0.727 4.101,4.256 v 40.369999 z" /><linearGradient
     gradientTransform="translate(-0.1797,-875.4102)"
     y2="970.28583"
     x2="117.6964"
     y1="973.83789"
     x1="121.2485"
     gradientUnits="userSpaceOnUse"
     id="SVGID_19_"><stop
       id="stop128"
       style="stop-color:#08406F"
       offset="0" /><stop
       id="stop130"
       style="stop-color:#60C5F5"
       offset="1" /></linearGradient><path
     inkscape:connector-curvature="0"
     style="opacity:1;fill:#ffffff;fill-opacity:1;fill-rule:evenodd;stroke:#ffffff;stroke-opacity:1"
     id="path133"
     d="m 146.343,84.098121 c 0,0 -41.489,41.547999 -41.883,41.937999 -0.346,0.379 -1.202,0.282 -1.202,0.282 l 3.827,-9.963 36.059,-36.087999 c 0,0 1.34,-1.727 3.831,-1.637 z" /><linearGradient
     gradientTransform="translate(-0.1797,-875.4102)"
     y2="888.83112"
     x2="549.76727"
     y1="892.5"
     x1="553.43597"
     gradientUnits="userSpaceOnUse"
     id="SVGID_20_"><stop
       id="stop135"
       style="stop-color:#08406F"
       offset="0" /><stop
       id="stop137"
       style="stop-color:#60C5F5"
       offset="1" /></linearGradient><path
     inkscape:connector-curvature="0"
     style="opacity:1;fill:#ffffff;fill-opacity:1;fill-rule:evenodd;stroke:#ffffff;stroke-opacity:1"
     id="path140"
     d="m 572.109,9.1391205 -27.566,27.6650005 -3.115,-4.211 20.312,-20.324001 10.582,-4.5419995 c 0,0.001 0.349,0.847 -0.213,1.412 z" /><linearGradient
     gradientTransform="translate(-0.1797,-875.4102)"
     y2="969.87891"
     x2="140.5957"
     y1="969.87891"
     x1="145.99409"
     gradientUnits="userSpaceOnUse"
     id="SVGID_21_"><stop
       id="stop142"
       style="stop-color:#08406F"
       offset="0" /><stop
       id="stop144"
       style="stop-color:#60C5F5"
       offset="1" /></linearGradient><path
     inkscape:connector-curvature="0"
     style="opacity:1;fill:#ffffff;fill-opacity:1;fill-rule:evenodd;stroke:#ffffff;stroke-opacity:1"
     id="path147"
     d="m 146.424,119.11612 -0.079,-35.024999 c 0,0 -1.301,-2.633 0.631,-5.456 0.593,-0.007 3.7,0.421 4.339,4.146 l -0.001,38.519999 z" /><linearGradient
     gradientTransform="translate(-0.1797,-875.4102)"
     y2="902.52197"
     x2="144.28909"
     y1="907.00983"
     x1="148.7769"
     gradientUnits="userSpaceOnUse"
     id="SVGID_22_"><stop
       id="stop149"
       style="stop-color:#08406F"
       offset="0" /><stop
       id="stop151"
       style="stop-color:#60C5F5"
       offset="1" /></linearGradient><path
     inkscape:connector-curvature="0"
     style="opacity:1;fill:#ffffff;fill-opacity:1;fill-rule:evenodd;stroke:#ffffff;stroke-opacity:1"
     id="path154"
     d="m 171.769,19.426121 -41.462,41.463 c -1.987,1.986 -5.045,1.836 -5.045,1.836 -1.795,-3.531 0.315,-6.065 0.315,-6.065 0,0 50.503,-50.4900005 50.867,-50.8700005 0.331,-0.417 0.541,-0.264 0.541,-0.264 z" /><linearGradient
     gradientTransform="translate(-0.1797,-875.4102)"
     y2="918.16357"
     x2="211.688"
     y1="922.32129"
     x1="215.8457"
     gradientUnits="userSpaceOnUse"
     id="SVGID_23_"><stop
       id="stop156"
       style="stop-color:#08406F"
       offset="0" /><stop
       id="stop158"
       style="stop-color:#60C5F5"
       offset="1" /></linearGradient><path
     inkscape:connector-curvature="0"
     style="opacity:1;fill:#ffffff;fill-opacity:1;fill-rule:evenodd;stroke:#ffffff;stroke-opacity:1"
     id="path161"
     d="m 255.315,18.262121 -74.376,74.375 c -1.55,1.551 -2.537,1.703 -2.537,1.703 -3.781,-1.878 -1.213,-6.255 -1.213,-6.255 0,0 80.652,-80.6350005 81.016,-81.0150005 0.943,-1.093 1.761,-0.883 1.761,-0.883 z" /><linearGradient
     gradientTransform="translate(-0.1797,-875.4102)"
     y2="923.42627"
     x2="299.9317"
     y1="927.81049"
     x1="304.31589"
     gradientUnits="userSpaceOnUse"
     id="SVGID_24_"><stop
       id="stop163"
       style="stop-color:#08406F"
       offset="0" /><stop
       id="stop165"
       style="stop-color:#60C5F5"
       offset="1" /></linearGradient><path
     inkscape:connector-curvature="0"
     style="opacity:1;fill:#ffffff;fill-opacity:1;fill-rule:evenodd;stroke:#ffffff;stroke-opacity:1"
     id="path168"
     d="m 348.896,18.639121 -84.163,84.160999 c -1.429,1.432 -3.424,1.608 -3.424,1.608 -3.115,-1.556 -0.776,-6.174999 -0.776,-6.174999 0,0 90.61,-90.5000005 90.974,-90.8810005 0.941,-1.098 1.781,-0.862 1.781,-0.862 z" /><linearGradient
     gradientTransform="translate(-0.1797,-875.4102)"
     y2="902.65302"
     x2="372.76331"
     y1="906.86133"
     x1="376.97119"
     gradientUnits="userSpaceOnUse"
     id="SVGID_25_"><stop
       id="stop170"
       style="stop-color:#08406F"
       offset="0" /><stop
       id="stop172"
       style="stop-color:#60C5F5"
       offset="1" /></linearGradient><path
     inkscape:connector-curvature="0"
     style="opacity:1;fill:#ffffff;fill-opacity:1;fill-rule:evenodd;stroke:#ffffff;stroke-opacity:1"
     id="path175"
     d="m 400.484,18.754121 -42.513,42.514 c -1.429,1.432 -3.374,1.657 -3.374,1.657 -2.932,-1.908 -0.588,-5.983 -0.588,-5.983 0,0 49.584,-49.6900005 49.947,-50.0700005 1.047,-1.033 1.377,-0.66 1.377,-0.66 z" /><linearGradient
     gradientTransform="translate(-0.1797,-875.4102)"
     y2="931.80859"
     x2="485.28159"
     y1="935.26459"
     x1="488.73779"
     gradientUnits="userSpaceOnUse"
     id="SVGID_26_"><stop
       id="stop177"
       style="stop-color:#08406F"
       offset="0" /><stop
       id="stop179"
       style="stop-color:#60C5F5"
       offset="1" /></linearGradient><path
     inkscape:connector-curvature="0"
     style="opacity:1;fill:#ffffff;fill-opacity:1;fill-rule:evenodd;stroke:#ffffff;stroke-opacity:1"
     id="path182"
     d="m 508.458,50.953121 -29.369,29.367 -3.188,-3.722 21.399,-21.398 11.135,-5.401 c 0,0 0.414,0.294 0.023,1.154 z" /><linearGradient
     gradientTransform="translate(-0.1797,-875.4102)"
     y2="975.41748"
     x2="495.84851"
     y1="979.37701"
     x1="499.80811"
     gradientUnits="userSpaceOnUse"
     id="SVGID_27_"><stop
       id="stop184"
       style="stop-color:#08406F"
       offset="0" /><stop
       id="stop186"
       style="stop-color:#60C5F5"
       offset="1" /></linearGradient><path
     inkscape:connector-curvature="0"
     style="opacity:1;fill:#ffffff;fill-opacity:1;fill-rule:evenodd;stroke:#ffffff;stroke-opacity:1"
     id="path189"
     d="m 519.134,95.460121 -28.848,28.650999 -3.258,-4.465 20.049,-20.048999 12.289,-5.38 c 10e-4,0.003 0.397,0.435 -0.232,1.243 z" /><linearGradient
     gradientTransform="translate(-0.1797,-875.4102)"
     y2="917.33063"
     x2="437.55469"
     y1="921.61328"
     x1="441.8374"
     gradientUnits="userSpaceOnUse"
     id="SVGID_28_"><stop
       id="stop191"
       style="stop-color:#08406F"
       offset="0" /><stop
       id="stop193"
       style="stop-color:#60C5F5"
       offset="1" /></linearGradient><path
     inkscape:connector-curvature="0"
     style="opacity:1;fill:#ffffff;fill-opacity:1;fill-rule:evenodd;stroke:#ffffff;stroke-opacity:1"
     id="path196"
     d="m 486.583,12.27712 -76.912,76.913001 c -1.43,1.432 -3.395,1.644 -3.395,1.644 -2.449,-3.092 -0.686,-5.979 -0.686,-5.979 L 482.879,7.4151205 Z" /><linearGradient
     gradientTransform="translate(-0.1797,-875.4102)"
     y2="911.53528"
     x2="481.74481"
     y1="916.64941"
     x1="486.85889"
     gradientUnits="userSpaceOnUse"
     id="SVGID_29_"><stop
       id="stop198"
       style="stop-color:#08406F"
       offset="0" /><stop
       id="stop200"
       style="stop-color:#60C5F5"
       offset="1" /></linearGradient><path
     inkscape:connector-curvature="0"
     style="opacity:1;fill:#ffffff;fill-opacity:1;fill-rule:evenodd;stroke:#ffffff;stroke-opacity:1"
     id="path203"
     d="m 498.197,36.804121 -12.676,12.786 c -2.771,2.282 -1.801,5.608 -1.801,5.608 -2.25,-0.21 -3.125,-2.065 -3.412,-3.695 -0.285,-1.63 0.303,-3.422 1.348,-4.467 l 14.469,-14.44 z" /><linearGradient
     gradientTransform="translate(-0.1797,-875.4102)"
     y2="988.68817"
     x2="182.33521"
     y1="992.33008"
     x1="185.9771"
     gradientUnits="userSpaceOnUse"
     id="SVGID_30_"><stop
       id="stop205"
       style="stop-color:#08406F"
       offset="0" /><stop
       id="stop207"
       style="stop-color:#60C5F5"
       offset="1" /></linearGradient><path
     inkscape:connector-curvature="0"
     style="opacity:1;fill:#ffffff;fill-opacity:1;fill-rule:evenodd;stroke:#ffffff;stroke-opacity:1"
     id="path210"
     d="m 147.67,158.81612 77.913,-77.942999 c 0,0 1.437,-1.873 4.267,-1.771 l -0.456,5.223 c 0,0 -78.666,78.505999 -79.113,78.947999 z" /><linearGradient
     gradientTransform="translate(-0.1797,-875.4102)"
     y2="965.49908"
     x2="299.3873"
     y1="969.13959"
     x1="303.0278"
     gradientUnits="userSpaceOnUse"
     id="SVGID_31_"><stop
       id="stop212"
       style="stop-color:#08406F"
       offset="0" /><stop
       id="stop214"
       style="stop-color:#60C5F5"
       offset="1" /></linearGradient><path
     inkscape:connector-curvature="0"
     style="opacity:1;fill:#ffffff;fill-opacity:1;fill-rule:evenodd;stroke:#ffffff;stroke-opacity:1"
     id="path217"
     d="m 279.83,120.50412 47.643,-47.658999 c 0,0 1.437,-1.871 4.267,-1.771 l -0.857,5.621 -48.325,48.289999 z" /><linearGradient
     gradientTransform="translate(-0.1797,-875.4102)"
     y2="969.57562"
     x2="346.37991"
     y1="973.08502"
     x1="349.88919"
     gradientUnits="userSpaceOnUse"
     id="SVGID_32_"><stop
       id="stop219"
       style="stop-color:#08406F"
       offset="0" /><stop
       id="stop221"
       style="stop-color:#60C5F5"
       offset="1" /></linearGradient><path
     inkscape:connector-curvature="0"
     style="opacity:1;fill:#ffffff;fill-opacity:1;fill-rule:evenodd;stroke:#ffffff;stroke-opacity:1"
     id="path224"
     d="m 335.625,115.75012 36.779,-36.788999 c 0.842,-0.843 1.779,-1.771 3.396,-1.771 l -0.107,5.501 -43.081,43.042999 c -0.569,0.563 -1.019,0.399 -1.019,0.399 z" /><linearGradient
     gradientTransform="translate(-0.1797,-875.4102)"
     y2="989.21692"
     x2="366.38129"
     y1="993.63959"
     x1="370.8042"
     gradientUnits="userSpaceOnUse"
     id="SVGID_33_"><stop
       id="stop226"
       style="stop-color:#08406F"
       offset="0" /><stop
       id="stop228"
       style="stop-color:#60C5F5"
       offset="1" /></linearGradient><path
     inkscape:connector-curvature="0"
     style="opacity:1;fill:#ffffff;fill-opacity:1;fill-rule:evenodd;stroke:#ffffff;stroke-opacity:1"
     id="path231"
     d="m 367.484,123.55712 7.25,-7.281 5.557,2.326 -0.734,1.047 -3.813,4.437 -0.272,0.3 h -7.72 c -0.34,0.014 -0.521,-0.271 -0.521,-0.271 0,0 -0.155,-0.147 0.253,-0.558 z" /><linearGradient
     gradientTransform="translate(-0.1797,-875.4102)"
     y2="971.76862"
     x2="223.4189"
     y1="971.76862"
     x1="229.457"
     gradientUnits="userSpaceOnUse"
     id="SVGID_34_"><stop
       id="stop233"
       style="stop-color:#08406F"
       offset="0" /><stop
       id="stop235"
       style="stop-color:#60C5F5"
       offset="1" /></linearGradient><path
     inkscape:connector-curvature="0"
     style="opacity:1;fill:#ffffff;fill-opacity:1;fill-rule:evenodd;stroke:#ffffff;stroke-opacity:1"
     id="path238"
     d="m 229.483,122.83812 -0.09,-38.514999 c 0,0 -1.738,-2.016 0.457,-5.223 0.673,-0.01 4.202,0.478 4.928,4.707 l -0.001,36.693999 -4.561,4.115 c 0,0.003 -0.73,-0.475 -0.733,-1.778 z" /><linearGradient
     gradientTransform="translate(-0.1797,-875.4102)"
     y2="968.51862"
     x2="325.09229"
     y1="968.51862"
     x1="330.3042"
     gradientUnits="userSpaceOnUse"
     id="SVGID_35_"><stop
       id="stop240"
       style="stop-color:#08406F"
       offset="0" /><stop
       id="stop242"
       style="stop-color:#60C5F5"
       offset="1" /></linearGradient><path
     inkscape:connector-curvature="0"
     style="opacity:1;fill:#ffffff;fill-opacity:1;fill-rule:evenodd;stroke:#ffffff;stroke-opacity:1"
     id="path245"
     d="m 330.949,125.44512 -0.08,-48.749999 c 0,0 -1.472,-2.681 0.871,-5.621 0.596,-0.009 3.243,0.472 3.885,4.702 v 39.974999 l -4.028,10.39 c -0.004,-0.002 -0.605,-0.143 -0.648,-0.696 z" /><linearGradient
     gradientTransform="translate(-0.1797,-875.4102)"
     y2="967.80658"
     x2="368.7251"
     y1="967.80658"
     x1="374.97021"
     gradientUnits="userSpaceOnUse"
     id="SVGID_36_"><stop
       id="stop247"
       style="stop-color:#08406F"
       offset="0" /><stop
       id="stop249"
       style="stop-color:#60C5F5"
       offset="1" /></linearGradient><path
     inkscape:connector-curvature="0"
     style="opacity:1;fill:#ffffff;fill-opacity:1;fill-rule:evenodd;stroke:#ffffff;stroke-opacity:1"
     id="path252"
     d="M 374.734,116.27512 V 83.646121 c 0,0 -2.113,-3.379 1.064,-6.456 0.693,-0.008 4.132,0.24 4.492,4.323 v 37.087999 z" /><linearGradient
     gradientTransform="translate(-0.1797,-875.4102)"
     y2="955.25677"
     x2="436.21909"
     y1="959.6748"
     x1="440.63721"
     gradientUnits="userSpaceOnUse"
     id="SVGID_37_"><stop
       id="stop254"
       style="stop-color:#08406F"
       offset="0" /><stop
       id="stop256"
       style="stop-color:#60C5F5"
       offset="1" /></linearGradient><path
     inkscape:connector-curvature="0"
     style="opacity:1;fill:#ffffff;fill-opacity:1;fill-rule:evenodd;stroke:#ffffff;stroke-opacity:1"
     id="path259"
     d="m 454.41,80.320121 -13.451,13.479 -3.844,4.809 c -3.896,-2.458 -1.953,-6.874 -0.912,-7.925 l 14.088,-14.079 z" /><linearGradient
     gradientTransform="translate(-0.1797,-875.4102)"
     y2="963.70801"
     x2="472.92041"
     y1="969.50983"
     x1="472.92041"
     gradientUnits="userSpaceOnUse"
     id="SVGID_38_"><stop
       id="stop261"
       style="stop-color:#08406F"
       offset="0" /><stop
       id="stop263"
       style="stop-color:#60C5F5"
       offset="1" /></linearGradient><path
     inkscape:connector-curvature="0"
     style="opacity:1;fill:#ffffff;fill-opacity:1;fill-rule:evenodd;stroke:#ffffff;stroke-opacity:1"
     id="path266"
     d="m 507.08,99.598121 h -66.391 c -2.502,-0.196 -3.574,-0.992 -3.574,-0.992 -0.012,-3.571 3.844,-4.809 3.844,-4.809 l 77.746,10e-4 c 0.543,-10e-4 0.662,0.422 0.662,0.422 z" /><g
     transform="translate(5.5,5.5001205)"
     style="opacity:1;fill:#ffffff;fill-opacity:1;fill-rule:evenodd;stroke:#ffffff;stroke-opacity:1"
     id="g284"><path
       inkscape:connector-curvature="0"
       style="fill:#ffffff;fill-opacity:1;fill-rule:evenodd;stroke:#ffffff;stroke-opacity:1"
       id="path268"
       d="m 0,142.055 v -9.521 h 2.876 l 1.728,6.494 1.708,-6.494 h 2.883 v 9.521 H 7.41 v -7.496 l -1.89,7.496 H 3.669 l -1.883,-7.496 v 7.496 z" /><path
       inkscape:connector-curvature="0"
       style="fill:#ffffff;fill-opacity:1;fill-rule:evenodd;stroke:#ffffff;stroke-opacity:1"
       id="path270"
       d="m 17.224,132.532 h 1.922 v 5.155 c 0,0.816 0.024,1.35 0.071,1.592 0.083,0.391 0.278,0.701 0.588,0.938 0.31,0.237 0.732,0.354 1.27,0.354 0.545,0 0.957,-0.11 1.234,-0.334 0.277,-0.223 0.443,-0.496 0.5,-0.821 0.056,-0.324 0.084,-0.863 0.084,-1.616 v -5.268 h 1.922 v 5.001 c 0,1.144 -0.052,1.95 -0.155,2.423 -0.104,0.472 -0.296,0.87 -0.575,1.193 -0.279,0.324 -0.652,0.582 -1.12,0.773 -0.468,0.192 -1.078,0.289 -1.832,0.289 -0.909,0 -1.599,-0.104 -2.068,-0.313 -0.47,-0.211 -0.841,-0.482 -1.114,-0.818 -0.273,-0.335 -0.452,-0.688 -0.539,-1.057 -0.125,-0.545 -0.188,-1.353 -0.188,-2.416 z" /><path
       inkscape:connector-curvature="0"
       style="fill:#ffffff;fill-opacity:1;fill-rule:evenodd;stroke:#ffffff;stroke-opacity:1"
       id="path272"
       d="m 33.025,142.055 v -9.443 h 1.922 v 7.84 h 4.78 v 1.604 h -6.702 z" /><path
       inkscape:connector-curvature="0"
       style="fill:#ffffff;fill-opacity:1;fill-rule:evenodd;stroke:#ffffff;stroke-opacity:1"
       id="path274"
       d="m 48.385,142.055 v -7.91 H 45.56 v -1.61 h 7.566 v 1.61 h -2.819 v 7.91 z" /><path
       inkscape:connector-curvature="0"
       style="fill:#ffffff;fill-opacity:1;fill-rule:evenodd;stroke:#ffffff;stroke-opacity:1"
       id="path276"
       d="m 60.438,142.055 v -9.521 h 1.922 v 9.521 z" /><path
       inkscape:connector-curvature="0"
       style="fill:#ffffff;fill-opacity:1;fill-rule:evenodd;stroke:#ffffff;stroke-opacity:1"
       id="path278"
       d="m 70.324,142.055 v -9.521 h 3.085 c 1.169,0 1.931,0.048 2.286,0.144 0.545,0.146 1.002,0.453 1.37,0.935 0.368,0.479 0.552,1.098 0.552,1.854 0,0.584 -0.106,1.075 -0.318,1.477 -0.212,0.396 -0.482,0.711 -0.809,0.938 -0.327,0.229 -0.659,0.378 -0.997,0.452 -0.459,0.09 -1.124,0.136 -1.994,0.136 h -1.253 v 3.594 z m 1.922,-7.91 v 2.701 h 1.052 c 0.757,0 1.264,-0.053 1.52,-0.15 0.256,-0.098 0.456,-0.254 0.601,-0.467 0.145,-0.213 0.217,-0.459 0.217,-0.74 0,-0.346 -0.102,-0.633 -0.305,-0.856 -0.204,-0.225 -0.461,-0.362 -0.773,-0.422 -0.229,-0.043 -0.691,-0.063 -1.383,-0.063 z" /><path
       inkscape:connector-curvature="0"
       style="fill:#ffffff;fill-opacity:1;fill-rule:evenodd;stroke:#ffffff;stroke-opacity:1"
       id="path280"
       d="m 85.378,142.055 v -9.443 H 87.3 v 7.84 h 4.78 v 1.604 h -6.702 z" /><path
       inkscape:connector-curvature="0"
       style="fill:#ffffff;fill-opacity:1;fill-rule:evenodd;stroke:#ffffff;stroke-opacity:1"
       id="path282"
       d="m 99.582,142.055 v -9.521 h 7.059 v 1.609 h -5.137 v 2.108 h 4.78 v 1.604 h -4.78 v 2.592 h 5.319 v 1.604 z" /></g><g
     transform="translate(5.5,5.5001205)"
     style="opacity:1;fill:#ffffff;fill-opacity:1;fill-rule:evenodd;stroke:#ffffff;stroke-opacity:1"
     id="g298"><path
       inkscape:connector-curvature="0"
       style="fill:#ffffff;fill-opacity:1;fill-rule:evenodd;stroke:#ffffff;stroke-opacity:1"
       id="path286"
       d="m 189.966,142.055 h -2.091 l -0.831,-2.164 h -3.806 l -0.786,2.164 h -2.039 l 3.708,-9.521 h 2.032 z m -3.539,-3.769 -1.313,-3.532 -1.286,3.532 z" /><path
       inkscape:connector-curvature="0"
       style="fill:#ffffff;fill-opacity:1;fill-rule:evenodd;stroke:#ffffff;stroke-opacity:1"
       id="path288"
       d="m 197.124,142.055 v -9.521 h 4.046 c 1.018,0 1.757,0.086 2.218,0.258 0.461,0.171 0.83,0.477 1.107,0.912 0.277,0.438 0.416,0.938 0.416,1.5 0,0.714 -0.21,1.304 -0.63,1.771 -0.419,0.465 -1.047,0.758 -1.883,0.879 0.416,0.242 0.758,0.51 1.029,0.799 0.271,0.291 0.635,0.808 1.094,1.548 l 1.162,1.856 h -2.299 l -1.39,-2.072 c -0.493,-0.739 -0.832,-1.207 -1.013,-1.398 -0.181,-0.189 -0.375,-0.322 -0.578,-0.396 -0.203,-0.069 -0.526,-0.104 -0.968,-0.104 h -0.389 v 3.978 h -1.922 z m 1.922,-5.496 h 1.422 c 0.922,0 1.498,-0.037 1.727,-0.115 0.23,-0.077 0.409,-0.213 0.539,-0.402 0.13,-0.188 0.195,-0.43 0.195,-0.714 0,-0.32 -0.085,-0.579 -0.256,-0.776 -0.171,-0.193 -0.412,-0.318 -0.724,-0.371 -0.156,-0.021 -0.623,-0.031 -1.403,-0.031 h -1.5 z" /><path
       inkscape:connector-curvature="0"
       style="fill:#ffffff;fill-opacity:1;fill-rule:evenodd;stroke:#ffffff;stroke-opacity:1"
       id="path290"
       d="m 218.945,138.552 1.864,0.593 c -0.286,1.041 -0.761,1.813 -1.425,2.313 -0.664,0.504 -1.508,0.757 -2.53,0.757 -1.264,0 -2.303,-0.433 -3.117,-1.296 -0.814,-0.86 -1.221,-2.044 -1.221,-3.542 0,-1.585 0.409,-2.813 1.228,-3.689 0.818,-0.877 1.894,-1.313 3.228,-1.313 1.165,0 2.11,0.344 2.838,1.03 0.433,0.406 0.757,0.992 0.974,1.755 l -1.903,0.452 c -0.113,-0.491 -0.347,-0.881 -0.705,-1.168 -0.358,-0.284 -0.791,-0.428 -1.302,-0.428 -0.706,0 -1.278,0.252 -1.718,0.76 -0.44,0.507 -0.66,1.326 -0.66,2.461 0,1.203 0.217,2.062 0.65,2.572 0.433,0.51 0.996,0.767 1.688,0.767 0.511,0 0.95,-0.162 1.318,-0.486 0.369,-0.33 0.633,-0.84 0.793,-1.538 z" /><path
       inkscape:connector-curvature="0"
       style="fill:#ffffff;fill-opacity:1;fill-rule:evenodd;stroke:#ffffff;stroke-opacity:1"
       id="path292"
       d="m 237.175,142.055 h -2.091 l -0.832,-2.164 h -3.806 l -0.786,2.164 h -2.039 l 3.708,-9.521 h 2.033 z m -3.539,-3.769 -1.313,-3.532 -1.286,3.532 z" /><path
       inkscape:connector-curvature="0"
       style="fill:#ffffff;fill-opacity:1;fill-rule:evenodd;stroke:#ffffff;stroke-opacity:1"
       id="path294"
       d="m 244.32,132.532 h 3.514 c 0.792,0 1.396,0.062 1.812,0.183 0.559,0.165 1.037,0.457 1.435,0.877 0.398,0.419 0.702,0.936 0.91,1.542 0.208,0.608 0.312,1.358 0.312,2.251 0,0.782 -0.098,1.458 -0.292,2.025 -0.238,0.691 -0.578,1.254 -1.02,1.682 -0.333,0.325 -0.784,0.578 -1.351,0.762 -0.424,0.136 -0.991,0.203 -1.701,0.203 h -3.617 v -9.521 z m 1.922,1.613 v 6.307 h 1.435 c 0.537,0 0.924,-0.03 1.163,-0.092 0.312,-0.077 0.57,-0.211 0.776,-0.396 0.206,-0.188 0.374,-0.49 0.503,-0.92 0.13,-0.426 0.195,-1.007 0.195,-1.743 0,-0.733 -0.065,-1.301 -0.195,-1.692 -0.13,-0.396 -0.312,-0.701 -0.545,-0.924 -0.234,-0.223 -0.53,-0.369 -0.89,-0.447 -0.269,-0.063 -0.795,-0.09 -1.578,-0.09 z" /><path
       inkscape:connector-curvature="0"
       style="fill:#ffffff;fill-opacity:1;fill-rule:evenodd;stroke:#ffffff;stroke-opacity:1"
       id="path296"
       d="m 260.063,142.055 v -9.521 h 7.059 v 1.609 h -5.137 v 2.108 h 4.78 v 1.604 h -4.78 v 2.592 h 5.319 v 1.604 z" /></g><g
     transform="translate(5.5,5.5001205)"
     style="opacity:1;fill:#ffffff;fill-opacity:1;fill-rule:evenodd;stroke:#ffffff;stroke-opacity:1"
     id="g314"><path
       inkscape:connector-curvature="0"
       style="fill:#ffffff;fill-opacity:1;fill-rule:evenodd;stroke:#ffffff;stroke-opacity:1"
       id="path300"
       d="m 283.18,142.055 v -9.521 h 2.877 l 1.729,6.494 1.707,-6.494 h 2.883 v 9.521 h -1.785 v -7.496 l -1.891,7.496 h -1.854 l -1.887,-7.496 v 7.496 z" /><path
       inkscape:connector-curvature="0"
       style="fill:#ffffff;fill-opacity:1;fill-rule:evenodd;stroke:#ffffff;stroke-opacity:1"
       id="path302"
       d="m 309.001,142.055 h -2.09 l -0.832,-2.164 h -3.809 l -0.782,2.164 h -2.04 l 3.709,-9.521 h 2.029 z m -3.539,-3.769 -1.313,-3.532 -1.286,3.532 z" /><path
       inkscape:connector-curvature="0"
       style="fill:#ffffff;fill-opacity:1;fill-rule:evenodd;stroke:#ffffff;stroke-opacity:1"
       id="path304"
       d="m 322.246,138.552 1.863,0.593 c -0.285,1.041 -0.761,1.813 -1.425,2.313 -0.665,0.505 -1.509,0.757 -2.53,0.757 -1.264,0 -2.303,-0.433 -3.115,-1.296 -0.813,-0.86 -1.223,-2.044 -1.223,-3.542 0,-1.585 0.409,-2.813 1.229,-3.689 0.818,-0.877 1.896,-1.313 3.229,-1.313 1.165,0 2.108,0.344 2.839,1.03 0.434,0.406 0.76,0.992 0.977,1.755 l -1.902,0.452 c -0.111,-0.491 -0.35,-0.881 -0.704,-1.168 -0.356,-0.284 -0.791,-0.428 -1.303,-0.428 -0.705,0 -1.277,0.252 -1.718,0.76 -0.439,0.507 -0.66,1.326 -0.66,2.461 0,1.203 0.218,2.062 0.648,2.572 0.434,0.51 0.994,0.767 1.688,0.767 0.51,0 0.946,-0.162 1.313,-0.486 0.369,-0.33 0.633,-0.84 0.794,-1.538 z" /><path
       inkscape:connector-curvature="0"
       style="fill:#ffffff;fill-opacity:1;fill-rule:evenodd;stroke:#ffffff;stroke-opacity:1"
       id="path306"
       d="m 331.897,142.055 v -9.521 h 1.923 v 3.748 h 3.766 v -3.748 h 1.924 v 9.521 h -1.924 v -4.164 h -3.766 v 4.164 z" /><path
       inkscape:connector-curvature="0"
       style="fill:#ffffff;fill-opacity:1;fill-rule:evenodd;stroke:#ffffff;stroke-opacity:1"
       id="path308"
       d="m 347.569,142.055 v -9.521 h 1.923 v 9.521 z" /><path
       inkscape:connector-curvature="0"
       style="fill:#ffffff;fill-opacity:1;fill-rule:evenodd;stroke:#ffffff;stroke-opacity:1"
       id="path310"
       d="m 357.472,142.055 v -9.521 h 1.871 l 3.896,6.357 v -6.357 h 1.786 v 9.521 h -1.929 l -3.839,-6.209 v 6.209 z" /><path
       inkscape:connector-curvature="0"
       style="fill:#ffffff;fill-opacity:1;fill-rule:evenodd;stroke:#ffffff;stroke-opacity:1"
       id="path312"
       d="m 373.19,142.055 v -9.521 h 7.06 v 1.609 h -5.138 v 2.108 h 4.78 v 1.604 h -4.78 v 2.592 h 5.319 v 1.604 z" /></g><g
     transform="translate(5.5,5.5001205)"
     style="opacity:1;fill:#ffffff;fill-opacity:1;fill-rule:evenodd;stroke:#ffffff;stroke-opacity:1"
     id="g332"><path
       inkscape:connector-curvature="0"
       style="fill:#ffffff;fill-opacity:1;fill-rule:evenodd;stroke:#ffffff;stroke-opacity:1"
       id="path316"
       d="m 397.091,142.055 v -9.521 h 7.06 v 1.609 h -5.137 v 2.108 h 4.78 v 1.604 h -4.78 v 2.592 h 5.319 v 1.604 z" /><path
       inkscape:connector-curvature="0"
       style="fill:#ffffff;fill-opacity:1;fill-rule:evenodd;stroke:#ffffff;stroke-opacity:1"
       id="path318"
       d="m 412.069,142.055 v -9.521 h 2.877 l 1.728,6.494 1.709,-6.494 h 2.883 v 9.521 h -1.783 v -7.496 l -1.893,7.496 h -1.852 l -1.884,-7.496 v 7.496 z" /><path
       inkscape:connector-curvature="0"
       style="fill:#ffffff;fill-opacity:1;fill-rule:evenodd;stroke:#ffffff;stroke-opacity:1"
       id="path320"
       d="m 429.292,132.532 h 1.922 v 5.155 c 0,0.816 0.023,1.35 0.07,1.592 0.082,0.391 0.273,0.701 0.588,0.938 0.311,0.236 0.729,0.354 1.27,0.354 0.547,0 0.957,-0.11 1.234,-0.334 0.277,-0.223 0.443,-0.496 0.5,-0.821 0.057,-0.324 0.084,-0.863 0.084,-1.616 v -5.268 h 1.924 v 5.001 c 0,1.144 -0.053,1.95 -0.156,2.423 -0.104,0.472 -0.297,0.87 -0.574,1.193 -0.279,0.324 -0.652,0.582 -1.121,0.773 -0.467,0.192 -1.078,0.289 -1.83,0.289 -0.91,0 -1.6,-0.104 -2.068,-0.313 -0.471,-0.211 -0.842,-0.482 -1.109,-0.818 -0.271,-0.335 -0.451,-0.688 -0.537,-1.057 -0.127,-0.545 -0.189,-1.353 -0.189,-2.416 v -5.077 z" /><path
       inkscape:connector-curvature="0"
       style="fill:#ffffff;fill-opacity:1;fill-rule:evenodd;stroke:#ffffff;stroke-opacity:1"
       id="path322"
       d="m 445.093,142.055 v -9.443 h 1.922 v 7.84 h 4.781 v 1.604 h -6.703 z" /><path
       inkscape:connector-curvature="0"
       style="fill:#ffffff;fill-opacity:1;fill-rule:evenodd;stroke:#ffffff;stroke-opacity:1"
       id="path324"
       d="m 467.882,142.055 h -2.092 l -0.83,-2.164 h -3.807 l -0.785,2.164 h -2.039 l 3.707,-9.521 h 2.033 z m -3.539,-3.769 -1.313,-3.532 -1.285,3.532 z" /><path
       inkscape:connector-curvature="0"
       style="fill:#ffffff;fill-opacity:1;fill-rule:evenodd;stroke:#ffffff;stroke-opacity:1"
       id="path326"
       d="m 476.191,142.055 v -7.91 h -2.826 v -1.61 h 7.564 v 1.61 h -2.816 v 7.91 z" /><path
       inkscape:connector-curvature="0"
       style="fill:#ffffff;fill-opacity:1;fill-rule:evenodd;stroke:#ffffff;stroke-opacity:1"
       id="path328"
       d="m 487.671,137.352 c 0,-0.972 0.146,-1.783 0.438,-2.44 0.215,-0.484 0.51,-0.92 0.885,-1.308 0.375,-0.387 0.785,-0.67 1.23,-0.854 0.594,-0.251 1.277,-0.376 2.053,-0.376 1.402,0 2.525,0.438 3.367,1.305 0.842,0.87 1.264,2.081 1.264,3.633 0,1.535 -0.418,2.737 -1.254,3.605 -0.836,0.867 -1.953,1.302 -3.352,1.302 -1.416,0 -2.541,-0.433 -3.377,-1.296 -0.836,-0.863 -1.254,-2.057 -1.254,-3.571 z m 1.983,-0.066 c 0,1.078 0.248,1.896 0.746,2.45 0.498,0.558 1.131,0.834 1.896,0.834 0.768,0 1.396,-0.273 1.887,-0.825 0.492,-0.554 0.736,-1.381 0.736,-2.485 0,-1.09 -0.238,-1.902 -0.717,-2.439 -0.48,-0.535 -1.113,-0.805 -1.906,-0.805 -0.793,0 -1.43,0.271 -1.916,0.813 -0.486,0.542 -0.726,1.362 -0.726,2.457 z" /><path
       inkscape:connector-curvature="0"
       style="fill:#ffffff;fill-opacity:1;fill-rule:evenodd;stroke:#ffffff;stroke-opacity:1"
       id="path330"
       d="m 504.544,142.055 v -9.521 h 4.047 c 1.018,0 1.756,0.086 2.217,0.258 0.461,0.171 0.83,0.477 1.107,0.912 0.277,0.438 0.416,0.938 0.416,1.5 0,0.714 -0.211,1.304 -0.631,1.771 -0.42,0.465 -1.047,0.758 -1.883,0.879 0.416,0.242 0.76,0.51 1.021,0.799 0.271,0.291 0.645,0.808 1.102,1.548 l 1.156,1.856 H 510.8 l -1.391,-2.072 c -0.492,-0.739 -0.83,-1.207 -1.012,-1.398 -0.186,-0.189 -0.375,-0.322 -0.578,-0.396 -0.203,-0.069 -0.525,-0.104 -0.971,-0.104 h -0.391 v 3.978 h -1.92 v -0.006 h 0.004 v -0.002 h 0.003 z m 1.922,-5.496 h 1.424 c 0.922,0 1.498,-0.037 1.727,-0.115 0.23,-0.077 0.41,-0.213 0.541,-0.402 0.129,-0.188 0.193,-0.43 0.193,-0.714 0,-0.32 -0.086,-0.579 -0.258,-0.776 -0.17,-0.193 -0.41,-0.318 -0.723,-0.371 -0.156,-0.021 -0.623,-0.031 -1.402,-0.031 h -1.502 z" /></g></svg>
