<?xml version="1.0" encoding="UTF-8" standalone="no"?>
<!-- Generator: Adobe Illustrator 13.0.0, SVG Export Plug-In . SVG Version: 6.00 Build 14948)  -->

<svg
   xmlns:dc="http://purl.org/dc/elements/1.1/"
   xmlns:cc="http://creativecommons.org/ns#"
   xmlns:rdf="http://www.w3.org/1999/02/22-rdf-syntax-ns#"
   xmlns:svg="http://www.w3.org/2000/svg"
   xmlns="http://www.w3.org/2000/svg"
   xmlns:sodipodi="http://sodipodi.sourceforge.net/DTD/sodipodi-0.dtd"
   xmlns:inkscape="http://www.inkscape.org/namespaces/inkscape"
   version="1.1"
   id="Layer_2"
   x="0px"
   y="0px"
   width="600.29694"
   height="43.768543"
   viewBox="0 0 600.29693 43.768543"
   enable-background="new 0 0 685 182"
   xml:space="preserve"
   sodipodi:docname="mame-advmame.svg"
   inkscape:version="0.92.2 (unknown)"><metadata
     id="metadata176"><rdf:RDF><cc:Work
         rdf:about=""><dc:format>image/svg+xml</dc:format><dc:type
           rdf:resource="http://purl.org/dc/dcmitype/StillImage" /><dc:title></dc:title></cc:Work></rdf:RDF></metadata><defs
     id="defs174" /><sodipodi:namedview
     pagecolor="#ffffff"
     bordercolor="#666666"
     borderopacity="1"
     objecttolerance="10"
     gridtolerance="10"
     guidetolerance="10"
     inkscape:pageopacity="0"
     inkscape:pageshadow="2"
     inkscape:window-width="1920"
     inkscape:window-height="1031"
     id="namedview172"
     showgrid="false"
     inkscape:pagecheckerboard="true"
     fit-margin-top="0"
     fit-margin-left="0"
     fit-margin-right="0"
     fit-margin-bottom="0"
     inkscape:zoom="0.79708029"
     inkscape:cx="546.41865"
     inkscape:cy="74.244305"
     inkscape:window-x="0"
     inkscape:window-y="0"
     inkscape:window-maximized="1"
     inkscape:current-layer="Layer_2" /><g
     id="g11"
     style="fill:#ffffff;fill-opacity:1"
     transform="matrix(0.57338952,0,0,0.57338952,-7.694314,-7.4534904)"><linearGradient
       id="SVGID_1_"
       gradientUnits="userSpaceOnUse"
       x1="-115.667"
       y1="311.5"
       x2="-115.667"
       y2="238"
       gradientTransform="matrix(1,0,0,-1,654,325)"><stop
         offset="0"
         style="stop-color:#7ED3F7"
         id="stop2" /><stop
         offset="1"
         style="stop-color:#003D7E"
         id="stop4" /></linearGradient><path
       d="m 503.083,14.5 c -3.728,0 -6.75,3.855 -6.75,7.583 v 58.834 c 0,3.728 3.022,6.915 6.75,6.915 h 77.25 v -20.5 h -61 V 34.667 h 61 V 14.5 Z"
       id="path7"
       inkscape:connector-curvature="0"
       style="fill:#ffffff;fill-opacity:1" /><path
       d="m 503.083,88.834 c -4.317,-0.017 -7.745,-3.648 -7.751,-7.917 v 0 -58.833 c 0.031,-4.223 3.293,-8.512 7.751,-8.584 v 0 1 1 c -1.508,-0.002 -2.937,0.785 -4.014,2.043 v 0 c -1.074,1.252 -1.742,2.948 -1.738,4.541 v 0 58.833 c 0.006,3.188 2.611,5.908 5.751,5.915 v 0 h 76.249 V 68.331 h -61 V 33.666 h 61 V 15.5 h -76.249 v -1 -1 h 78.249 v 22.166 h -61 v 30.666 h 61 v 22.503 z"
       id="path9"
       inkscape:connector-curvature="0"
       style="fill:#ffffff;fill-opacity:1" /></g><g
     id="g22"
     transform="matrix(0.57338952,0,0,0.57338952,247.75759,-56.191026)"
     style="fill:#ffffff;fill-opacity:1"><linearGradient
       id="SVGID_2_"
       gradientUnits="userSpaceOnUse"
       x1="-374.1665"
       y1="224.5"
       x2="-374.1665"
       y2="151.5"
       gradientTransform="matrix(1,0,0,-1,654,325)"><stop
         offset="0"
         style="stop-color:#7ED3F7"
         id="stop13" /><stop
         offset="1"
         style="stop-color:#003D7E"
         id="stop15" /></linearGradient><path
       d="m 235,107.084 c 0,-3.729 3.022,-7.584 6.75,-7.584 h 83.584 v 73.333 h -23.5 v -53.167 h -10.167 v 53.167 H 268 v -53.167 h -10.5 v 53.167 h -23.167 z"
       id="path18"
       inkscape:connector-curvature="0"
       style="fill:#ffffff;fill-opacity:1" /><path
       d="m 267,173.833 v -53.17 h -8.501 v 53.17 H 233.322 L 234,107.083 h -0.002 c 0.031,-4.224 3.294,-8.513 7.752,-8.585 v 0 h 84.583 v 75.333 h -25.502 v -53.166 h -8.166 v 53.168 z m 35.834,-55.168 -0.002,53.167 h 21.501 V 100.5 h -82.582 c -1.509,-0.004 -2.937,0.784 -4.014,2.043 v 0 c -1.075,1.251 -1.743,2.947 -1.736,4.54 v 0 h -1 l 0.998,0.011 -0.656,64.738 H 256.5 V 118.665 H 269 v 53.167 h 21.666 v -53.167 z"
       id="path20"
       inkscape:connector-curvature="0"
       style="fill:#ffffff;fill-opacity:1" /></g><g
     id="g33"
     transform="matrix(0.57338952,0,0,0.57338952,247.75759,-56.191026)"
     style="fill:#ffffff;fill-opacity:1"><linearGradient
       id="SVGID_3_"
       gradientUnits="userSpaceOnUse"
       x1="-177.166"
       y1="224.5"
       x2="-177.166"
       y2="151.5"
       gradientTransform="matrix(1,0,0,-1,654,325)"><stop
         offset="0"
         style="stop-color:#7ED3F7"
         id="stop24" /><stop
         offset="1"
         style="stop-color:#003D7E"
         id="stop26" /></linearGradient><path
       d="m 432,107.084 c 0,-3.729 3.021,-7.584 6.75,-7.584 h 83.584 v 73.333 h -23.5 v -53.167 h -10.167 v 53.167 H 465 v -53.167 h -10.5 v 53.167 h -23.166 z"
       id="path29"
       inkscape:connector-curvature="0"
       style="fill:#ffffff;fill-opacity:1" /><path
       d="m 463.999,173.833 v -53.17 H 455.5 v 53.17 H 430.323 L 431,107.072 v 0 c 0.036,-4.219 3.297,-8.502 7.75,-8.574 v 0 h 84.584 v 75.333 h -25.5 v -53.166 h -8.167 v 53.168 z m 35.834,-55.168 v 53.167 h 21.501 V 100.5 H 438.75 c -1.507,-0.004 -2.936,0.784 -4.014,2.043 v 0 c -1.073,1.251 -1.741,2.947 -1.736,4.54 v 0 h -1 l 1,0.011 -0.656,64.738 H 453.5 V 118.665 H 466 l -0.002,53.167 h 21.668 v -53.167 z"
       id="path31"
       inkscape:connector-curvature="0"
       style="fill:#ffffff;fill-opacity:1" /></g><g
     id="g44"
     style="fill:#ffffff;fill-opacity:1"
     transform="matrix(0.57338952,0,0,0.57338952,-7.694314,-7.4534904)"><linearGradient
       id="SVGID_4_"
       gradientUnits="userSpaceOnUse"
       x1="-626.74951"
       y1="311.5"
       x2="-626.74951"
       y2="238"
       gradientTransform="matrix(1,0,0,-1,654,325)"><stop
         offset="0"
         style="stop-color:#7ED3F7"
         id="stop35" /><stop
         offset="1"
         style="stop-color:#003D7E"
         id="stop37" /></linearGradient><rect
       x="15.167"
       y="14.5"
       width="24.167"
       height="24.834"
       id="rect40"
       style="fill:#ffffff;fill-opacity:1" /><path
       d="M 14.166,40.334 V 13.5 h 26.167 v 25.834 1 z m 25.167,-1 v -1 z m -23.167,-1 H 38.334 V 15.499 H 16.166 Z"
       id="path42"
       inkscape:connector-curvature="0"
       style="fill:#ffffff;fill-opacity:1" /></g><g
     id="g55"
     style="fill:#ffffff;fill-opacity:1"
     transform="matrix(0.57338952,0,0,0.57338952,-7.694314,-7.4534904)"><linearGradient
       id="SVGID_5_"
       gradientUnits="userSpaceOnUse"
       x1="-270.74951"
       y1="311.5"
       x2="-270.74951"
       y2="238"
       gradientTransform="matrix(1,0,0,-1,654,325)"><stop
         offset="0"
         style="stop-color:#7ED3F7"
         id="stop46" /><stop
         offset="1"
         style="stop-color:#003D7E"
         id="stop48" /></linearGradient><rect
       x="371.16699"
       y="14.5"
       width="24.167"
       height="24.834"
       id="rect51"
       style="fill:#ffffff;fill-opacity:1" /><path
       d="M 370.166,40.334 V 13.5 h 26.167 v 25.834 1 z m 25.167,-1 v -1 z m -23.166,-1 h 22.166 V 15.499 h -22.166 z"
       id="path53"
       inkscape:connector-curvature="0"
       style="fill:#ffffff;fill-opacity:1" /></g><g
     id="g66"
     transform="matrix(0.57338952,0,0,0.57338952,247.75759,-56.191026)"
     style="fill:#ffffff;fill-opacity:1"><linearGradient
       id="SVGID_6_"
       gradientUnits="userSpaceOnUse"
       x1="-308.75"
       y1="224.5"
       x2="-308.75"
       y2="151.5"
       gradientTransform="matrix(1,0,0,-1,654,325)"><stop
         offset="0"
         style="stop-color:#7ED3F7"
         id="stop57" /><stop
         offset="1"
         style="stop-color:#003D7E"
         id="stop59" /></linearGradient><rect
       x="333.16599"
       y="99.5"
       width="24.167999"
       height="24.834"
       id="rect62"
       style="fill:#ffffff;fill-opacity:1" /><path
       d="M 332.166,125.334 V 98.499 h 26.167 v 25.835 1 z m 25.169,-1 v -1.002 z m -23.17,-1.002 h 22.17 V 100.5 h -22.17 z"
       id="path64"
       inkscape:connector-curvature="0"
       style="fill:#ffffff;fill-opacity:1" /></g><g
     id="g77"
     style="fill:#ffffff;fill-opacity:1"
     transform="matrix(0.57338952,0,0,0.57338952,-7.694314,-7.4534904)"><linearGradient
       id="SVGID_7_"
       gradientUnits="userSpaceOnUse"
       x1="-593.4165"
       y1="311.5"
       x2="-593.4165"
       y2="238"
       gradientTransform="matrix(1,0,0,-1,654,325)"><stop
         offset="0"
         style="stop-color:#7ED3F7"
         id="stop68" /><stop
         offset="1"
         style="stop-color:#003D7E"
         id="stop70" /></linearGradient><polygon
       points="69.5,68.5 81.667,68.5 81.667,39.333 43,87.833 15.5,87.833 74.167,14.5 105.667,14.5 105.667,87.833 54.667,87.833 "
       id="polygon73"
       style="fill:#ffffff;fill-opacity:1" /><path
       d="m 52.636,88.832 16.37,-21.334 h 11.66 V 42.19 L 43.482,88.832 H 15.499 v -0.999 l 0.781,0.623 -0.781,-0.623 v 0.999 h -2.08 L 73.686,13.499 h 32.98 V 88.832 Z M 42.517,86.833 82.666,36.476 V 69.5 L 69.991,69.497 56.693,86.831 h 47.973 V 15.499 H 74.646 L 17.579,86.833 Z"
       id="path75"
       inkscape:connector-curvature="0"
       style="fill:#ffffff;fill-opacity:1" /></g><g
     id="g88"
     transform="matrix(0.57338952,0,0,0.57338952,247.75759,-56.191026)"
     style="fill:#ffffff;fill-opacity:1"><linearGradient
       id="SVGID_8_"
       gradientUnits="userSpaceOnUse"
       x1="-274.91699"
       y1="224.5"
       x2="-274.91699"
       y2="151.5"
       gradientTransform="matrix(1,0,0,-1,654,325)"><stop
         offset="0"
         style="stop-color:#7ED3F7"
         id="stop79" /><stop
         offset="1"
         style="stop-color:#003D7E"
         id="stop81" /></linearGradient><polygon
       points="424.166,99.5 424.166,172.833 373.166,172.833 388,153.5 400.166,153.5 400.166,124.334 361.5,172.833 334,172.833 392.666,99.5 "
       id="polygon84"
       style="fill:#ffffff;fill-opacity:1" /><path
       d="m 371.136,173.832 16.371,-21.334 h 11.657 v -25.307 l -37.183,46.641 H 334 v -1 l 0.781,0.624 -0.781,-0.624 v 1 h -2.081 l 60.265,-75.333 h 32.981 v 75.333 z m -10.118,-1.999 40.148,-50.356 V 154.5 l -12.674,-0.002 -13.3,17.332 h 47.973 v -71.331 h -30.019 l -57.067,71.334 z"
       id="path86"
       inkscape:connector-curvature="0"
       style="fill:#ffffff;fill-opacity:1" /></g><g
     id="g99"
     style="fill:#ffffff;fill-opacity:1"
     transform="matrix(0.57338952,0,0,0.57338952,-7.694314,-7.4534904)"><linearGradient
       id="SVGID_9_"
       gradientUnits="userSpaceOnUse"
       x1="-303.91699"
       y1="311.5"
       x2="-303.91699"
       y2="238"
       gradientTransform="matrix(1,0,0,-1,654,325)"><stop
         offset="0"
         style="stop-color:#7ED3F7"
         id="stop90" /><stop
         offset="1"
         style="stop-color:#003D7E"
         id="stop92" /></linearGradient><polygon
       points="341.166,68.5 329,68.5 329,39.333 367.666,87.833 395.166,87.833 336.5,14.5 305,14.5 305,87.833 356,87.833 "
       id="polygon95"
       style="fill:#ffffff;fill-opacity:1" /><path
       d="m 367.183,88.832 -37.185,-46.64 v 25.306 h 11.66 l 16.37,21.334 h -54.03 V 13.499 h 32.98 l 58.967,73.708 -0.781,0.626 v -1 1 l 0.781,-0.626 1.302,1.625 z m 0.963,-1.999 h 24.938 L 336.017,15.499 h -30.02 V 86.831 H 353.97 L 340.673,69.5 H 327.998 V 36.474 Z"
       id="path97"
       inkscape:connector-curvature="0"
       style="fill:#ffffff;fill-opacity:1" /></g><g
     id="g114"
     style="fill:#ffffff;fill-opacity:1"
     transform="matrix(0.57338952,0,0,0.57338952,-7.694314,-7.4534904)"><g
       id="g108"
       style="fill:#ffffff;fill-opacity:1"><linearGradient
         id="SVGID_10_"
         gradientUnits="userSpaceOnUse"
         x1="-498.50049"
         y1="311.84671"
         x2="-498.50049"
         y2="236.83659"
         gradientTransform="matrix(1,0,0,-1,654,325)"><stop
           offset="0"
           style="stop-color:#7ED3F7"
           id="stop101" /><stop
           offset="1"
           style="stop-color:#003D7E"
           id="stop103" /></linearGradient><path
         d="m 190.083,13.999 h -76.416 v 47.667 h 23.666 V 35.5 h 36.333 v 33.166 l -59.999,0.002 v 19.665 h 76.416 c 4.022,-0.007 7.247,-3.417 7.249,-7.414 V 22.084 c -0.015,-3.977 -3.157,-8.048 -7.249,-8.085 z"
         id="path106"
         inkscape:connector-curvature="0"
         style="fill:#ffffff;fill-opacity:1" /></g><g
       id="g112"
       style="fill:#ffffff;fill-opacity:1"><path
         d="M 112.667,89.332 V 67.668 l 59.999,-0.002 V 36.499 H 138.333 V 62.666 H 112.667 V 12.999 h 77.416 v 0.999 l 0.01,-0.999 c 4.793,0.101 8.201,4.625 8.238,9.085 v 0 58.835 c -0.006,4.534 -3.64,8.395 -8.249,8.413 v 0 z m 2,-2 h 75.414 c 3.439,-0.004 6.254,-2.954 6.252,-6.413 v 0 -58.831 c 0.006,-3.498 -2.871,-7.095 -6.258,-7.089 v 0 h -75.408 v 45.667 h 21.666 V 34.499 h 38.333 v 35.167 h -59.999 z"
         id="path110"
         inkscape:connector-curvature="0"
         style="fill:#ffffff;fill-opacity:1" /></g></g><g
     id="g125"
     style="fill:#ffffff;fill-opacity:1"
     transform="matrix(0.57338952,0,0,0.57338952,-7.694314,-7.4534904)"><linearGradient
       id="SVGID_11_"
       gradientUnits="userSpaceOnUse"
       x1="-403"
       y1="311.5"
       x2="-403"
       y2="238"
       gradientTransform="matrix(1,0,0,-1,654,325)"><stop
         offset="0"
         style="stop-color:#7ED3F7"
         id="stop116" /><stop
         offset="1"
         style="stop-color:#003D7E"
         id="stop118" /></linearGradient><polygon
       points="206,14.5 206,87.833 238.833,87.833 296,14.5 268.667,14.5 229.167,62.334 229.167,14.5 "
       id="polygon121"
       style="fill:#ffffff;fill-opacity:1" /><path
       d="M 204.999,88.834 V 14.5 v -1 h 25.169 V 59.549 L 268.195,13.5 h 29.853 l -58.726,75.334 z m 2,-2.002 h 31.346 L 293.951,15.5 H 269.138 L 228.166,65.114 V 15.5 H 207 Z M 206,15.5 v -1 z"
       id="path123"
       inkscape:connector-curvature="0"
       style="fill:#ffffff;fill-opacity:1" /></g><g
     id="g136"
     style="fill:#ffffff;fill-opacity:1"
     transform="matrix(0.57338952,0,0,0.57338952,-7.694314,-7.4534904)"><linearGradient
       id="SVGID_12_"
       gradientUnits="userSpaceOnUse"
       x1="-369.74951"
       y1="311.5"
       x2="-369.74951"
       y2="238"
       gradientTransform="matrix(1,0,0,-1,654,325)"><stop
         offset="0"
         style="stop-color:#7ED3F7"
         id="stop127" /><stop
         offset="1"
         style="stop-color:#003D7E"
         id="stop129" /></linearGradient><rect
       x="272.16699"
       y="62.667"
       width="24.167"
       height="25.166"
       id="rect132"
       style="fill:#ffffff;fill-opacity:1" /><path
       d="M 271.166,88.834 V 61.665 h 26.167 v 26.167 1.002 z m 25.167,-1.002 v -1 z m -23.167,-1 h 22.167 V 63.666 h -22.167 z"
       id="path134"
       inkscape:connector-curvature="0"
       style="fill:#ffffff;fill-opacity:1" /></g><g
     id="g147"
     style="fill:#ffffff;fill-opacity:1"
     transform="matrix(0.57338952,0,0,0.57338952,-7.694314,-7.4534904)"><linearGradient
       id="SVGID_13_"
       gradientUnits="userSpaceOnUse"
       x1="-208.3335"
       y1="311.5"
       x2="-208.3335"
       y2="238"
       gradientTransform="matrix(1,0,0,-1,654,325)"><stop
         offset="0"
         style="stop-color:#7ED3F7"
         id="stop138" /><stop
         offset="1"
         style="stop-color:#003D7E"
         id="stop140" /></linearGradient><polygon
       points="463.833,14.5 487.5,14.5 487.5,87.833 462.167,87.833 427,45.167 427,87.833 403.833,87.833 403.833,14.5 431.667,14.5 463.833,53.667 "
       id="polygon143"
       style="fill:#ffffff;fill-opacity:1" /><path
       d="M 461.695,88.834 428,47.953 v 40.881 h -24.167 v -1.002 h 1 -1 v 1.002 h -1 V 13.5 h 29.305 l 30.695,37.372 V 13.5 H 488.5 V 88.834 Z M 404.833,86.832 426,86.829 v -44.45 l 36.639,44.45 h 23.859 V 15.5 H 464.833 V 56.461 L 431.194,15.5 h -26.361 z"
       id="path145"
       inkscape:connector-curvature="0"
       style="fill:#ffffff;fill-opacity:1" /></g><g
     id="g158"
     style="fill:#ffffff;fill-opacity:1"
     transform="matrix(0.57338952,0,0,0.57338952,-7.694314,-7.4534904)"><linearGradient
       id="SVGID_14_"
       gradientUnits="userSpaceOnUse"
       x1="-24"
       y1="311.5"
       x2="-24"
       y2="238"
       gradientTransform="matrix(1,0,0,-1,654,325)"><stop
         offset="0"
         style="stop-color:#7ED3F7"
         id="stop149" /><stop
         offset="1"
         style="stop-color:#003D7E"
         id="stop151" /></linearGradient><polygon
       points="671.833,87.833 671.833,68.167 611.667,68.167 611.667,60.667 671.833,60.667 671.833,40.5 611.5,40.5 611.5,34.833 671.833,34.833 671.833,14.5 588.167,14.5 588.167,87.833 "
       id="polygon154"
       style="fill:#ffffff;fill-opacity:1" /><path
       d="M 587.167,88.834 V 14.5 v -1 h 85.667 V 35.833 H 612.499 V 39.5 h 60.335 v 22.167 h -60.168 v 5.499 h 60.168 v 21.668 z m 2,-2.005 h 81.666 V 69.166 h -60.166 v -9.501 h 60.166 V 41.5 H 610.5 v -7.667 h 60.333 V 15.5 h -81.666 z m -1,-71.329 v -1 z"
       id="path156"
       inkscape:connector-curvature="0"
       style="fill:#ffffff;fill-opacity:1" /></g><g
     id="g169"
     transform="matrix(0.57338952,0,0,0.57338952,247.75759,-56.191026)"
     style="fill:#ffffff;fill-opacity:1"><linearGradient
       id="SVGID_15_"
       gradientUnits="userSpaceOnUse"
       x1="-82"
       y1="224.5"
       x2="-82"
       y2="151.5"
       gradientTransform="matrix(1,0,0,-1,654,325)"><stop
         offset="0"
         style="stop-color:#7ED3F7"
         id="stop160" /><stop
         offset="1"
         style="stop-color:#003D7E"
         id="stop162" /></linearGradient><polygon
       points="613.834,119.834 613.834,99.5 530.166,99.5 530.166,172.833 613.834,172.833 613.834,153.167 553.666,153.167 553.666,145.667 613.834,145.667 613.834,125.5 553.5,125.5 553.5,119.834 "
       id="polygon165"
       style="fill:#ffffff;fill-opacity:1" /><path
       d="M 529.165,173.833 V 99.5 98.498 h 85.669 v 22.336 L 554.5,120.832 v 3.667 h 60.334 v 22.167 l -60.169,-0.003 v 5.502 h 60.169 v 21.668 z m 2,-2.001 h 81.668 v -17.667 h -60.167 v -9.499 h 60.167 V 126.499 H 552.5 v -7.667 h 60.332 V 100.5 h -81.668 z m -1,-71.332 v -1 z"
       id="path167"
       inkscape:connector-curvature="0"
       style="fill:#ffffff;fill-opacity:1" /></g></svg>