<?xml version="1.0" encoding="UTF-8" standalone="no"?>
<svg
   xmlns:dc="http://purl.org/dc/elements/1.1/"
   xmlns:cc="http://creativecommons.org/ns#"
   xmlns:rdf="http://www.w3.org/1999/02/22-rdf-syntax-ns#"
   xmlns:svg="http://www.w3.org/2000/svg"
   xmlns="http://www.w3.org/2000/svg"
   xmlns:sodipodi="http://sodipodi.sourceforge.net/DTD/sodipodi-0.dtd"
   xmlns:inkscape="http://www.inkscape.org/namespaces/inkscape"
   inkscape:version="1.0 (4035a4fb49, 2020-05-01)"
   sodipodi:docname="mastersystem.svg"
   xml:space="preserve"
   enable-background="new 0 0 364.6 112.2"
   viewBox="0 0 232.56981 122.38555"
   height="122.38557"
   width="232.56981"
   y="0px"
   x="0px"
   id="Capa_1"
   version="1.0"><metadata
     id="metadata82"><rdf:RDF><cc:Work
         rdf:about=""><dc:format>image/svg+xml</dc:format><dc:type
           rdf:resource="http://purl.org/dc/dcmitype/StillImage" /><dc:title></dc:title></cc:Work></rdf:RDF></metadata><defs
     id="defs80" /><sodipodi:namedview
     lock-margins="true"
     inkscape:document-rotation="0"
     inkscape:snap-bbox-midpoints="true"
     inkscape:bbox-nodes="true"
     inkscape:snap-bbox-edge-midpoints="true"
     inkscape:bbox-paths="true"
     inkscape:snap-bbox="true"
     inkscape:pagecheckerboard="true"
     inkscape:current-layer="g6708"
     inkscape:window-maximized="1"
     inkscape:window-y="-8"
     inkscape:window-x="-8"
     inkscape:cy="50.459223"
     inkscape:cx="40.60413"
     inkscape:zoom="2.1178294"
     fit-margin-bottom="5"
     fit-margin-right="5"
     fit-margin-left="5"
     fit-margin-top="5"
     showgrid="false"
     id="namedview78"
     inkscape:window-height="1017"
     inkscape:window-width="1920"
     inkscape:pageshadow="2"
     inkscape:pageopacity="0"
     guidetolerance="10"
     gridtolerance="10"
     objecttolerance="10"
     borderopacity="1"
     bordercolor="#666666"
     pagecolor="#ffffff" /><g
     transform="translate(-63.030197,5)"
     id="g75"><g
       id="g57"><path
         style="fill:#ffffff"
         inkscape:connector-curvature="0"
         id="path41"
         d="m 99.1,23.7 h -7.7 c -0.7,0 -1,-0.5 -1,-1 0,-0.7 0.5,-1.1 1,-1.1 h 29.1 l 0.1,-9.2 H 91.5 c -5.6,0 -10.2,4.5 -10.2,10.2 0,5.7 4.5,10.2 10.2,10.2 h 7.7 c 6.9,0 12.4,5.6 12.4,12.4 0,6.9 -5.6,12.4 -12.4,12.4 H 70 v 9.3 0 h 29.1 c 11.9,0 21.6,-9.6 21.6,-21.6 0.1,-11.9 -9.5,-21.6 -21.6,-21.6 z" /><path
         style="fill:#ffffff"
         inkscape:connector-curvature="0"
         id="path43"
         d="m 99.1,46.3 h -29 v 9.2 h 29.1 c 5.7,0 10.2,-4.6 10.2,-10.2 0,-5.6 -4.5,-10.2 -10.2,-10.2 h -7.7 c -6.9,0 -12.4,-5.6 -12.4,-12.5 0,-6.9 5.5,-12.4 12.4,-12.4 h 29.1 V 1 h -29 C 79.7,1 70,10.6 70,22.6 c 0,12 9.6,21.6 21.6,21.6 h 7.6 c 0.7,0 1,0.5 1,1 0,0.5 -0.5,1.1 -1.1,1.1 z" /><path
         style="fill:#ffffff"
         inkscape:connector-curvature="0"
         id="path45"
         d="m 125.1,19.4 v 29.1 c 0,10.1 8.1,18.3 18.3,18.3 h 31 v -9.2 h -31 c -5,0 -9.2,-4 -9.2,-9.2 V 19.2 c 0,-4.9 4.1,-9 9.2,-9 h 31.1 V 1 h -31.1 c -10.2,0 -18.3,8.3 -18.3,18.4 z" /><path
         style="fill:#ffffff"
         inkscape:connector-curvature="0"
         id="path47"
         d="m 136.4,19.4 v 13.4 h 31.5 v -9.2 h -22.3 c 0,0 0,-2.2 2.2,-2.2 h 26.8 v -9.2 h -31.2 c -4,0.2 -7,3.4 -7,7.2 z" /><path
         style="fill:#ffffff"
         inkscape:connector-curvature="0"
         id="path49"
         d="m 167.9,35.1 h -31.6 v 13.4 c 0,3.9 3.1,7 7,7 h 31 v -9.2 h -26.8 c 0,0 -2.2,0 -2.2,-2.2 h 22.3 z" /><path
         style="fill:#ffffff"
         inkscape:connector-curvature="0"
         id="path51"
         d="m 200.5,21.5 h 25.9 v -9.2 h -30.2 c -3.9,0 -7,3.2 -7,7 v 29.1 c 0,3.9 3.2,7 7,7 h 18.9 V 35 h -14.6 v 9.3 h 5.5 v 2.2 h -5.4 c -1.1,0 -2.2,-0.9 -2.2,-2.2 V 23.7 c 0,0 0,-2.2 2.1,-2.2 z" /><path
         style="fill:#ffffff"
         inkscape:connector-curvature="0"
         id="path53"
         d="m 253.5,55.6 h 21.4 L 260.3,12.2 c -0.5,-1.1 -1.5,-2.1 -2.7,-2.1 -1.3,0 -2.4,0.9 -2.7,2.1 l -18.4,54.5 h 10.8 l 6.5,-19.4 z m 4,-19.9 3.2,9.6 h -6.5 z" /><path
         style="fill:#ffffff"
         inkscape:connector-curvature="0"
         id="path55"
         d="M 271.4,9.6 C 269.6,4 264.1,0 257.5,0 251,0 245.4,4.1 243.7,9.6 L 226.4,60.4 V 23.7 h -26 v 9.2 h 16.7 v 24.8 h -20.9 c -5,0 -9.3,-4.1 -9.3,-9.2 V 19.4 c 0,-5 4.1,-9.2 9.2,-9.2 h 30.2 V 1 H 196.1 C 186,1 177.8,9.1 177.8,19.3 v 29.1 c 0,10.1 8.2,18.3 18.3,18.3 h 30.2 v 0 h 7.6 l 18.9,-55.6 c 0.8,-1.8 2.7,-3.1 4.8,-3.1 2.1,0 3.9,1.3 4.7,3.1 l 15.6,46.4 h -24.4 v 9.2 h 37.1 z" /></g><g
       transform="translate(-67.069808,39.506873)"
       id="g6708"><g
         transform="matrix(1.0376741,0,0,1.0376741,-5.0897657,986.96581)"
         id="flowRoot6696"><path
           style="fill:#ffffff"
           inkscape:connector-curvature="0"
           d="m 170.1,-890 h -12.6 v -1.4 c 0.5,0 1,-0.1 1.7,-0.1 0.8,-0.1 1.1,-0.2 1.5,-0.3 0.5,-0.2 0.8,-0.6 0.9,-0.9 0.2,-0.3 0.3,-0.8 0.3,-1.1 v -20.6 h -0.3 l -9.6,24.1 h -0.9 l -9.3,-24.6 h -0.2 v 16.8 c 0,1.6 0.1,2.9 0.3,3.8 0.2,0.9 0.6,1.5 0.9,1.8 0.3,0.3 0.9,0.6 1.8,0.8 0.9,0.2 1.5,0.5 1.8,0.5 v 1.4 h -11.3 v -1.4 c 0.7,0 1.1,-0.1 1.9,-0.3 0.7,-0.1 1.1,-0.3 1.5,-0.7 0.5,-0.3 0.8,-0.9 0.9,-1.7 0.2,-0.8 0.2,-2.1 0.2,-3.9 v -14.5 c 0,-0.9 -0.1,-1.5 -0.3,-2.1 -0.2,-0.6 -0.6,-0.9 -0.9,-1.3 -0.5,-0.3 -0.9,-0.7 -1.5,-0.8 -0.7,-0.2 -1.1,-0.3 -1.8,-0.3 v -1.4 h 9.6 l 8,21.3 6.9,-17.7 c 0.2,-0.7 0.5,-1.3 0.7,-2.1 0.2,-0.8 0.3,-1.1 0.3,-1.4 h 9.3 v 1.4 c -0.3,0 -0.9,0.1 -1.4,0.2 -0.6,0.1 -0.9,0.2 -1.3,0.3 -0.5,0.1 -0.8,0.5 -0.9,0.8 -0.1,0.3 -0.2,0.8 -0.2,1.1 v 20.4 c 0,0.5 0.1,0.9 0.2,1.1 0.1,0.3 0.5,0.7 0.9,0.9 0.2,0.1 0.7,0.2 1.3,0.3 0.7,0.1 1,0.2 1.5,0.2 z"
           id="path6717" /><path
           style="fill:#ffffff"
           inkscape:connector-curvature="0"
           d="m 187.9,-890.4 c -0.7,0.2 -1.1,0.5 -1.6,0.6 -0.5,0.1 -0.9,0.2 -1.6,0.2 -1,0 -1.8,-0.2 -2.5,-0.8 -0.7,-0.6 -0.9,-1.1 -1.1,-2.2 H 181 c -0.9,0.9 -1.8,1.7 -2.7,2.2 -0.9,0.6 -2.2,0.8 -3.5,0.8 -1.5,0 -2.6,-0.5 -3.7,-1.4 -0.9,-0.9 -1.4,-2.1 -1.4,-3.5 0,-0.8 0.1,-1.4 0.3,-2.1 0.2,-0.7 0.6,-1.1 0.9,-1.6 0.3,-0.5 0.8,-0.8 1.3,-1 0.6,-0.3 1,-0.6 1.5,-0.8 0.7,-0.2 1.8,-0.7 3.7,-1.3 1.8,-0.6 3.1,-1 3.7,-1.4 v -1.9 c 0,-0.2 0,-0.6 -0.1,-0.9 -0.1,-0.6 -0.2,-0.9 -0.5,-1.4 -0.2,-0.6 -0.7,-0.9 -1,-1.3 -0.6,-0.3 -1.1,-0.6 -2.1,-0.6 -0.7,0 -1.1,0.1 -1.7,0.3 -0.6,0.2 -0.9,0.5 -1,0.7 0,0.2 0.1,0.7 0.2,1.1 0.1,0.6 0.2,0.9 0.2,1.4 0,0.5 -0.2,0.9 -0.7,1.3 -0.5,0.5 -0.9,0.6 -1.7,0.6 -0.7,0 -1.1,-0.2 -1.5,-0.8 -0.3,-0.5 -0.5,-0.9 -0.5,-1.6 0,-0.7 0.2,-1.1 0.7,-1.7 0.5,-0.6 0.9,-1 1.7,-1.5 0.7,-0.3 1.3,-0.7 2.2,-0.9 0.9,-0.2 1.7,-0.5 2.5,-0.5 1,0 2.1,0.1 2.9,0.2 0.9,0.1 1.6,0.5 2.3,0.9 0.7,0.5 1.1,1.1 1.5,2.1 0.3,0.9 0.6,1.9 0.6,3.2 0,1.9 0,3.5 -0.1,5 0,1.5 -0.1,3.1 -0.1,4.8 0,0.6 0.1,0.9 0.3,1.3 0.2,0.3 0.5,0.6 0.9,0.8 0.2,0.1 0.6,0.2 0.9,0.2 0.5,0 0.9,0 1.3,0 z m -7,-10.6 c -1.1,0.3 -2.2,0.7 -3,0.9 -0.9,0.3 -1.6,0.8 -2.4,1.1 -0.7,0.5 -1.1,0.9 -1.6,1.6 -0.5,0.7 -0.6,1.4 -0.6,2.3 0,1 0.3,1.9 0.9,2.5 0.6,0.6 1.3,0.8 2.3,0.8 0.9,0 1.8,-0.2 2.5,-0.7 0.8,-0.5 1.3,-0.9 1.8,-1.6 z"
           id="path6719" /><path
           style="fill:#ffffff"
           inkscape:connector-curvature="0"
           d="m 198.5,-899.6 c 0.6,0.5 0.9,1 1.3,1.6 0.3,0.7 0.5,1.4 0.5,2.3 0,1.8 -0.7,3.3 -2.1,4.5 -1.4,1.1 -3.1,1.7 -5.3,1.7 -1.1,0 -2.2,-0.2 -3.1,-0.7 -0.9,-0.5 -1.6,-0.8 -2.1,-1.1 l -0.5,1.3 h -1.4 l -0.2,-6.9 h 1.4 c 0.1,0.6 0.3,1 0.7,1.8 0.3,0.7 0.8,1.3 1.3,1.8 0.6,0.6 1.1,1 1.8,1.5 0.8,0.5 1.5,0.7 2.5,0.7 1.3,0 2.3,-0.3 2.9,-0.9 0.7,-0.6 1,-1.4 1,-2.5 0,-0.6 -0.1,-1 -0.3,-1.4 -0.2,-0.5 -0.6,-0.8 -0.9,-1 -0.5,-0.3 -0.9,-0.6 -1.6,-0.9 -0.7,-0.2 -1.4,-0.6 -2.2,-0.8 -0.7,-0.2 -1.3,-0.5 -2.1,-0.8 -0.8,-0.3 -1.4,-0.8 -1.9,-1.1 -0.6,-0.5 -1,-1 -1.4,-1.7 -0.3,-0.7 -0.6,-1.5 -0.6,-2.4 0,-1.6 0.7,-3 1.8,-4.1 1.1,-1 2.7,-1.7 4.8,-1.7 0.8,0 1.6,0.1 2.4,0.3 0.8,0.2 1.5,0.5 1.9,0.8 l 0.5,-1 h 1.4 l 0.3,6.3 h -1.4 c -0.3,-1.4 -0.9,-2.6 -1.8,-3.4 -0.9,-0.9 -2.1,-1.3 -3.3,-1.3 -1,0 -1.9,0.3 -2.6,0.9 -0.7,0.6 -0.9,1.1 -0.9,1.9 0,0.7 0.1,1 0.3,1.5 0.2,0.5 0.6,0.8 0.9,0.9 0.5,0.2 0.9,0.6 1.5,0.8 0.7,0.2 1.4,0.6 2.3,0.8 0.9,0.3 1.7,0.7 2.5,0.9 0.6,0.5 1.2,1 1.7,1.4 z"
           id="path6721" /><path
           style="fill:#ffffff"
           inkscape:connector-curvature="0"
           d="m 211.1,-890.9 c -0.9,0.3 -1.7,0.7 -2.5,0.9 -0.8,0.2 -1.7,0.3 -2.7,0.3 -1.6,0 -2.7,-0.5 -3.4,-1.3 -0.7,-0.9 -0.9,-2.1 -0.9,-3.5 v -13.3 h -3.5 v -1.9 h 3.7 v -6.1 h 3.7 v 6.1 h 5.7 v 1.9 h -5.6 v 11 c 0,0.9 0,1.5 0.1,2.1 0.1,0.6 0.2,1 0.5,1.4 0.2,0.5 0.6,0.7 0.9,0.9 0.5,0.2 0.9,0.3 1.7,0.3 0.3,0 0.9,0 1.5,-0.1 0.7,-0.1 1,-0.1 1.4,-0.2 z"
           id="path6723" /><path
           style="fill:#ffffff"
           inkscape:connector-curvature="0"
           d="m 226.4,-894.5 c -0.9,1.6 -1.9,2.7 -3.3,3.8 -1.4,0.9 -3,1.4 -4.7,1.4 -1.6,0 -3,-0.3 -4.2,-0.9 -1.1,-0.6 -2.2,-1.3 -2.9,-2.3 -0.8,-0.9 -1.4,-2.1 -1.7,-3.3 -0.5,-1.3 -0.6,-2.6 -0.6,-4.1 0,-1.3 0.2,-2.6 0.7,-3.8 0.5,-1.1 0.9,-2.4 1.8,-3.3 0.8,-0.9 1.7,-1.7 2.7,-2.3 1,-0.6 2.4,-0.9 3.8,-0.9 1.4,0 2.6,0.2 3.7,0.7 1,0.5 1.8,1 2.5,1.8 0.7,0.8 1,1.6 1.4,2.6 0.3,0.9 0.5,2.2 0.5,3.3 v 1.3 h -12.9 c 0,1.3 0.1,2.5 0.3,3.5 0.2,1 0.7,1.9 1.1,2.7 0.6,0.8 1.1,1.4 2.1,1.8 0.9,0.5 1.8,0.7 3,0.7 1.2,0 2.3,-0.3 3.1,-0.9 0.9,-0.6 1.7,-1.5 2.5,-3 z m -4.6,-7.6 c 0,-0.8 -0.1,-1.5 -0.2,-2.4 -0.1,-0.9 -0.3,-1.6 -0.7,-2.2 -0.3,-0.7 -0.8,-1 -1.3,-1.5 -0.6,-0.5 -1.1,-0.6 -2.1,-0.6 -1.4,0 -2.6,0.6 -3.4,1.7 -0.9,1.1 -1.4,2.7 -1.5,4.8 z"
           id="path6725" /><path
           style="fill:#ffffff"
           inkscape:connector-curvature="0"
           d="m 239.5,-907.1 c 0,0.7 -0.2,1.3 -0.6,1.8 -0.3,0.6 -0.9,0.8 -1.5,0.8 -0.8,0 -1.3,-0.2 -1.7,-0.6 -0.5,-0.5 -0.6,-0.9 -0.6,-1.3 0,-0.4 0,-0.6 0.1,-0.8 0,-0.2 0.1,-0.5 0.1,-0.8 -0.7,0 -1.4,0.2 -2.2,0.8 -0.9,0.6 -1.5,1.1 -2.2,2.2 v 11.4 c 0,0.5 0.1,0.9 0.3,1.1 0.2,0.3 0.5,0.6 0.9,0.7 0.3,0.1 0.8,0.2 1.3,0.3 0.5,0.1 0.9,0.1 1.4,0.1 v 1.3 h -10.4 v -1.3 c 0.3,0 0.7,0 0.9,-0.1 0.3,0 0.7,-0.1 0.9,-0.1 0.3,-0.1 0.7,-0.3 0.9,-0.7 0.2,-0.3 0.3,-0.7 0.3,-1.1 v -12.1 c 0,-0.5 -0.1,-0.9 -0.3,-1.1 -0.2,-0.5 -0.5,-0.8 -0.9,-0.9 -0.2,-0.1 -0.6,-0.3 -0.9,-0.3 -0.3,-0.1 -0.8,-0.1 -1,-0.1 v -1.3 l 6.5,-0.5 0.3,0.3 v 2.7 h 0.1 c 0.9,-1 1.7,-1.9 2.7,-2.5 0.9,-0.6 1.9,-0.9 2.7,-0.9 0.8,0 1.5,0.3 2.1,0.9 0.4,0.5 0.8,1.2 0.8,2.1 z"
           id="path6727" /><path
           style="fill:#ffffff"
           inkscape:connector-curvature="0"
           d="m 260.6,-903 c 0.7,0.7 1,1.4 1.3,2.2 0.3,0.8 0.5,1.7 0.5,2.7 0,2.5 -0.9,4.5 -2.7,6.2 -1.8,1.6 -4.2,2.5 -6.9,2.5 -1.3,0 -2.6,-0.2 -3.8,-0.6 -1.3,-0.5 -2.4,-0.9 -3.2,-1.4 l -0.9,1.5 h -1.6 l -0.3,-9.6 h 1.6 c 0.3,1.1 0.8,2.3 1.1,3.2 0.3,0.9 1,1.8 1.7,2.6 0.7,0.8 1.5,1.4 2.5,1.8 1,0.5 2.1,0.7 3.2,0.7 0.9,0 1.7,-0.1 2.4,-0.3 0.7,-0.2 1.3,-0.6 1.7,-0.9 0.5,-0.5 0.8,-0.9 0.9,-1.5 0.2,-0.6 0.3,-1.3 0.3,-2.1 0,-1 -0.3,-2.2 -0.9,-3.1 -0.7,-0.9 -1.6,-1.7 -2.9,-2.3 -0.9,-0.3 -1.8,-0.8 -3,-1.1 -1,-0.5 -2.1,-0.9 -2.9,-1.1 -1.6,-0.8 -2.7,-1.6 -3.8,-2.7 -0.9,-1.1 -1.3,-2.6 -1.3,-4.5 0,-1 0.2,-2.1 0.7,-3 0.5,-0.9 1,-1.7 1.8,-2.5 0.8,-0.7 1.7,-1.1 2.6,-1.6 1,-0.5 2.2,-0.6 3.3,-0.6 1.3,0 2.5,0.2 3.5,0.7 1,0.5 1.9,0.9 2.7,1.4 l 0.9,-1.4 h 1.6 l 0.1,9.4 h -1.6 c -0.3,-1 -0.7,-2.2 -0.9,-3.1 -0.3,-0.9 -0.9,-1.8 -1.4,-2.6 -0.6,-0.8 -1.3,-1.4 -2.1,-1.8 -0.9,-0.5 -1.8,-0.7 -3,-0.7 -1.3,0 -2.4,0.5 -3.2,1.1 -0.9,0.9 -1.3,1.8 -1.3,3 0,1.1 0.3,2.3 0.9,3 0.6,0.7 1.4,1.5 2.5,1.9 0.9,0.5 1.9,0.9 2.9,1.1 0.9,0.3 1.8,0.8 2.6,1 0.8,0.3 1.6,0.8 2.3,1.1 1,0.4 1.6,0.8 2.1,1.4 z"
           id="path6729" /><path
           style="fill:#ffffff"
           inkscape:connector-curvature="0"
           d="m 259.6,-883.7 c 0,-0.7 0.2,-1.1 0.6,-1.6 0.3,-0.5 0.9,-0.7 1.4,-0.7 0.5,0 0.8,0.1 1,0.2 0.3,0.1 0.6,0.3 0.9,0.7 0.2,0.2 0.5,0.5 0.7,0.9 0.2,0.3 0.5,0.7 0.6,0.9 0.7,-0.3 1.5,-1.3 2.4,-2.7 0.9,-1.5 1.6,-2.7 2.1,-4 -1.3,-3.1 -2.4,-6.1 -3.4,-8.5 -1,-2.5 -2.2,-5 -3.2,-7.8 -0.2,-0.7 -0.7,-1 -1.3,-1.4 -0.7,-0.3 -1.1,-0.6 -1.8,-0.7 v -1.3 h 9 v 1.4 c -0.5,0 -0.9,0.1 -1.4,0.2 -0.6,0.1 -0.9,0.3 -0.9,0.6 0,0.1 0,0.2 0.1,0.5 0.1,0.2 0.1,0.5 0.2,0.6 0.6,1.3 1.3,3.2 2.4,5.7 1.1,2.5 1.8,4.5 2.4,5.9 0.7,-1.4 1.1,-2.9 1.8,-4.3 0.7,-1.5 1.4,-3.3 2.2,-5.4 0.1,-0.2 0.2,-0.7 0.5,-1 0.2,-0.5 0.2,-0.9 0.2,-1.1 0,-0.2 -0.3,-0.7 -0.9,-0.9 -0.7,-0.3 -1.1,-0.5 -1.7,-0.6 v -1.3 h 7.3 v 1.3 c -0.5,0.1 -0.9,0.3 -1.6,0.7 -0.7,0.5 -1.1,0.9 -1.5,1.7 -1.6,3.7 -3,7 -4.2,10 -1.1,3 -2.2,5.3 -2.7,6.6 -0.9,1.8 -1.6,3.3 -2.3,4.3 -0.7,1 -1.3,1.8 -1.9,2.5 -0.7,0.6 -1.1,0.9 -1.6,1.1 -0.6,0.2 -0.9,0.3 -1.5,0.3 -1,0 -1.8,-0.2 -2.5,-0.8 -1,-0.6 -1.4,-1.3 -1.4,-2 z"
           id="path6731" /><path
           style="fill:#ffffff"
           inkscape:connector-curvature="0"
           d="m 290,-899.6 c 0.6,0.5 0.9,1 1.3,1.6 0.3,0.7 0.5,1.4 0.5,2.3 0,1.8 -0.7,3.3 -2.1,4.5 -1.4,1.1 -3.1,1.7 -5.3,1.7 -1.1,0 -2.2,-0.2 -3.1,-0.7 -0.9,-0.5 -1.6,-0.8 -2.1,-1.1 l -0.5,1.3 h -1.5 l -0.2,-6.9 h 1.4 c 0.1,0.6 0.3,1 0.7,1.8 0.3,0.7 0.8,1.3 1.3,1.8 0.6,0.6 1.1,1 1.8,1.5 0.8,0.5 1.5,0.7 2.5,0.7 1.3,0 2.3,-0.3 2.9,-0.9 0.7,-0.6 1,-1.4 1,-2.5 0,-0.6 -0.1,-1 -0.3,-1.4 -0.2,-0.5 -0.6,-0.8 -0.9,-1 -0.5,-0.3 -0.9,-0.6 -1.6,-0.9 -0.7,-0.2 -1.4,-0.6 -2.2,-0.8 -0.7,-0.2 -1.3,-0.5 -2.1,-0.8 -0.8,-0.3 -1.4,-0.8 -1.9,-1.1 -0.6,-0.5 -1,-1 -1.4,-1.7 -0.3,-0.7 -0.6,-1.5 -0.6,-2.4 0,-1.6 0.7,-3 1.8,-4.1 1.1,-1 2.7,-1.7 4.8,-1.7 0.8,0 1.6,0.1 2.4,0.3 0.8,0.2 1.5,0.5 1.9,0.8 l 0.5,-1 h 1.4 l 0.3,6.3 h -1.4 c -0.3,-1.4 -0.9,-2.6 -1.8,-3.4 -0.9,-0.9 -2.1,-1.3 -3.3,-1.3 -1,0 -1.9,0.3 -2.6,0.9 -0.7,0.6 -0.9,1.1 -0.9,1.9 0,0.7 0.1,1 0.3,1.5 0.2,0.5 0.6,0.8 0.9,0.9 0.5,0.2 0.9,0.6 1.5,0.8 0.7,0.2 1.4,0.6 2.3,0.8 0.9,0.3 1.7,0.7 2.5,0.9 0.8,0.5 1.3,1 1.8,1.4 z"
           id="path6733" /><path
           style="fill:#ffffff"
           inkscape:connector-curvature="0"
           d="m 302.5,-890.9 c -0.9,0.3 -1.7,0.7 -2.5,0.9 -0.8,0.2 -1.7,0.3 -2.7,0.3 -1.6,0 -2.7,-0.5 -3.4,-1.3 -0.7,-0.9 -0.9,-2.1 -0.9,-3.5 v -13.3 h -3.5 v -1.9 h 3.7 v -6.1 h 3.7 v 6.1 h 5.7 v 1.9 h -5.7 v 11 c 0,0.9 0,1.5 0.1,2.1 0.1,0.6 0.2,1 0.5,1.4 0.2,0.5 0.6,0.7 0.9,0.9 0.5,0.2 0.9,0.3 1.7,0.3 0.3,0 0.9,0 1.5,-0.1 0.7,-0.1 1,-0.1 1.4,-0.2 z"
           id="path6735" /><path
           style="fill:#ffffff"
           inkscape:connector-curvature="0"
           d="m 317.7,-894.5 c -0.9,1.6 -1.9,2.7 -3.3,3.8 -1.4,0.9 -3,1.4 -4.7,1.4 -1.6,0 -3,-0.3 -4.2,-0.9 -1.1,-0.6 -2.2,-1.3 -2.9,-2.3 -0.8,-0.9 -1.4,-2.1 -1.7,-3.3 -0.5,-1.3 -0.6,-2.6 -0.6,-4.1 0,-1.3 0.2,-2.6 0.7,-3.8 0.5,-1.1 0.9,-2.4 1.8,-3.3 0.8,-0.9 1.7,-1.7 2.7,-2.3 1,-0.6 2.4,-0.9 3.8,-0.9 1.4,0 2.6,0.2 3.7,0.7 1,0.5 1.8,1 2.5,1.8 0.7,0.8 1,1.6 1.4,2.6 0.3,0.9 0.5,2.2 0.5,3.3 v 1.3 h -12.9 c 0,1.3 0.1,2.5 0.3,3.5 0.2,1 0.7,1.9 1.1,2.7 0.6,0.8 1.1,1.4 2.1,1.8 0.9,0.5 1.8,0.7 3,0.7 1.2,0 2.3,-0.3 3.1,-0.9 0.9,-0.6 1.7,-1.5 2.5,-3 z m -4.3,-7.6 c 0,-0.8 -0.1,-1.5 -0.2,-2.4 -0.1,-0.9 -0.3,-1.6 -0.7,-2.2 -0.3,-0.7 -0.8,-1 -1.3,-1.5 -0.6,-0.5 -1.1,-0.6 -2.1,-0.6 -1.4,0 -2.6,0.6 -3.4,1.7 -0.9,1.1 -1.4,2.7 -1.5,4.8 z"
           id="path6737" /><path
           style="fill:#ffffff"
           inkscape:connector-curvature="0"
           d="M 349.5,-890 H 340 v -1.3 c 0.3,0 0.7,0 0.9,-0.1 0.3,0 0.6,-0.1 0.9,-0.1 0.3,-0.1 0.7,-0.3 0.9,-0.7 0.2,-0.3 0.3,-0.7 0.3,-1.1 v -10.2 c 0,-1.4 -0.3,-2.5 -0.9,-3.2 -0.7,-0.8 -1.4,-1 -2.4,-1 -0.7,0 -1.3,0.1 -1.8,0.3 -0.6,0.2 -1,0.5 -1.6,0.9 -0.5,0.3 -0.8,0.7 -0.9,0.9 -0.2,0.3 -0.5,0.7 -0.6,0.9 v 11.3 c 0,0.5 0.1,0.9 0.2,1.1 0.1,0.3 0.5,0.6 0.9,0.7 0.3,0.1 0.6,0.2 0.9,0.3 0.2,0.1 0.6,0.1 0.9,0.1 v 1.3 h -9.4 v -1.3 c 0.3,0 0.7,0 0.9,-0.1 0.3,0 0.6,-0.1 0.8,-0.2 0.3,-0.1 0.7,-0.3 0.9,-0.7 0.2,-0.3 0.3,-0.7 0.3,-1.1 v -10.2 c 0,-1.4 -0.3,-2.5 -0.9,-3.2 -0.7,-0.8 -1.4,-1 -2.4,-1 -0.7,0 -1.3,0.1 -1.8,0.3 -0.6,0.2 -1,0.6 -1.6,0.9 -0.5,0.3 -0.8,0.7 -0.9,0.9 -0.2,0.3 -0.5,0.7 -0.7,0.9 v 11.2 c 0,0.5 0.1,0.9 0.3,1.1 0.2,0.2 0.5,0.6 0.9,0.8 0.3,0.1 0.6,0.2 0.9,0.3 0.3,0.1 0.7,0.1 0.9,0.1 v 1.3 h -10 v -1.3 c 0.3,0 0.7,0 0.9,-0.1 0.3,0 0.7,-0.1 0.9,-0.1 0.3,-0.1 0.7,-0.3 0.9,-0.7 0.2,-0.4 0.3,-0.7 0.3,-1.1 v -12.2 c 0,-0.5 -0.1,-0.9 -0.3,-1.1 -0.2,-0.3 -0.5,-0.7 -0.9,-0.9 -0.2,-0.1 -0.6,-0.3 -0.9,-0.5 -0.3,-0.1 -0.8,-0.2 -1.1,-0.2 v -1.3 l 6.5,-0.5 0.3,0.3 v 2.7 h 0.1 c 0.3,-0.3 0.8,-0.8 1.1,-1.1 0.5,-0.5 0.9,-0.9 1.3,-1 0.5,-0.3 1,-0.6 1.7,-0.8 0.7,-0.2 1.5,-0.3 2.3,-0.3 1.3,0 2.4,0.3 3.3,1 0.9,0.7 1.6,1.5 1.9,2.5 0.5,-0.5 0.9,-0.9 1.3,-1.1 0.3,-0.3 0.9,-0.8 1.4,-1 0.6,-0.3 1,-0.7 1.8,-0.9 0.7,-0.2 1.4,-0.3 2.3,-0.3 1.6,0 3,0.6 4,1.6 1,1 1.5,2.7 1.5,5 v 10 c 0,0.5 0.1,0.9 0.2,1.1 0.1,0.3 0.5,0.6 0.9,0.7 0.3,0.1 0.7,0.2 0.9,0.3 0.3,0.1 0.7,0.1 0.9,0.1 z"
           id="path6739" /></g></g></g></svg>
