<?xml version="1.0" encoding="utf-8"?>
<!-- Generator: Adobe Illustrator 21.1.0, SVG Export Plug-In . SVG Version: 6.00 Build 0)  -->
<svg version="1.0" id="Capa_1" xmlns="http://www.w3.org/2000/svg" xmlns:xlink="http://www.w3.org/1999/xlink" x="0px" y="0px"
	 width="364.6px" height="112.2px" viewBox="0 0 364.6 112.2" enable-background="new 0 0 364.6 112.2" xml:space="preserve">
<g>
	<g>
		<path fill="#FFFFFF" d="M99.1,23.7h-7.7c-0.7,0-1-0.5-1-1c0-0.7,0.5-1.1,1-1.1h29.1l0.1-9.2H91.5c-5.6,0-10.2,4.5-10.2,10.2
			s4.5,10.2,10.2,10.2h7.7c6.9,0,12.4,5.6,12.4,12.4c0,6.9-5.6,12.4-12.4,12.4H70v9.3l0,0h29.1c11.9,0,21.6-9.6,21.6-21.6
			C120.8,33.4,111.2,23.7,99.1,23.7z"/>
		<path fill="#FFFFFF" d="M99.1,46.3h-29v9.2h29.1c5.7,0,10.2-4.6,10.2-10.2s-4.5-10.2-10.2-10.2h-7.7c-6.9,0-12.4-5.6-12.4-12.5
			s5.5-12.4,12.4-12.4h29.1V1h-29C79.7,1,70,10.6,70,22.6s9.6,21.6,21.6,21.6h7.6c0.7,0,1,0.5,1,1S99.7,46.3,99.1,46.3z"/>
		<path fill="#FFFFFF" d="M125.1,19.4v29.1c0,10.1,8.1,18.3,18.3,18.3h31v-9.2h-31c-5,0-9.2-4-9.2-9.2V19.2c0-4.9,4.1-9,9.2-9h31.1
			V1h-31.1C133.2,1,125.1,9.3,125.1,19.4z"/>
		<path fill="#FFFFFF" d="M136.4,19.4v13.4h31.5v-9.2h-22.3c0,0,0-2.2,2.2-2.2h26.8v-9.2h-31.2C139.4,12.4,136.4,15.6,136.4,19.4z"
			/>
		<path fill="#FFFFFF" d="M167.9,35.1h-31.6v13.4c0,3.9,3.1,7,7,7h31v-9.2h-26.8c0,0-2.2,0-2.2-2.2h22.3L167.9,35.1L167.9,35.1z"/>
		<path fill="#FFFFFF" d="M200.5,21.5h25.9v-9.2h-30.2c-3.9,0-7,3.2-7,7v29.1c0,3.9,3.2,7,7,7h18.9V35h-14.6v9.3h5.5v2.2h-5.4
			c-1.1,0-2.2-0.9-2.2-2.2V23.7C198.4,23.7,198.4,21.5,200.5,21.5z"/>
		<path fill="#FFFFFF" d="M253.5,55.6h21.4l-14.6-43.4c-0.5-1.1-1.5-2.1-2.7-2.1c-1.3,0-2.4,0.9-2.7,2.1l-18.4,54.5h10.8l6.5-19.4
			L253.5,55.6L253.5,55.6z M257.5,35.7l3.2,9.6h-6.5L257.5,35.7z"/>
		<path fill="#FFFFFF" d="M271.4,9.6C269.6,4,264.1,0,257.5,0c-6.5,0-12.1,4.1-13.8,9.6l-17.3,50.8V23.7h-26v9.2h16.7v24.8h-20.9
			c-5,0-9.3-4.1-9.3-9.2V19.4c0-5,4.1-9.2,9.2-9.2h30.2V1h-30.2c-10.1,0-18.3,8.1-18.3,18.3v29.1c0,10.1,8.2,18.3,18.3,18.3h30.2
			l0,0h7.6l18.9-55.6c0.8-1.8,2.7-3.1,4.8-3.1c2.1,0,3.9,1.3,4.7,3.1l15.6,46.4h-24.4v9.2h37.1L271.4,9.6z"/>
	</g>
	<g id="g6708" transform="translate(-67.069808,39.506873)">
		<g id="flowRoot6696" transform="translate(0,952.36218)">
			<path id="path6717" fill="#FFFFFF" d="M170.1-890h-12.6v-1.4c0.5,0,1-0.1,1.7-0.1c0.8-0.1,1.1-0.2,1.5-0.3
				c0.5-0.2,0.8-0.6,0.9-0.9c0.2-0.3,0.3-0.8,0.3-1.1v-20.6h-0.3l-9.6,24.1h-0.9l-9.3-24.6h-0.2v16.8c0,1.6,0.1,2.9,0.3,3.8
				c0.2,0.9,0.6,1.5,0.9,1.8s0.9,0.6,1.8,0.8c0.9,0.2,1.5,0.5,1.8,0.5v1.4h-11.3v-1.4c0.7,0,1.1-0.1,1.9-0.3
				c0.7-0.1,1.1-0.3,1.5-0.7c0.5-0.3,0.8-0.9,0.9-1.7c0.2-0.8,0.2-2.1,0.2-3.9v-14.5c0-0.9-0.1-1.5-0.3-2.1s-0.6-0.9-0.9-1.3
				c-0.5-0.3-0.9-0.7-1.5-0.8c-0.7-0.2-1.1-0.3-1.8-0.3v-1.4h9.6l8,21.3l6.9-17.7c0.2-0.7,0.5-1.3,0.7-2.1s0.3-1.1,0.3-1.4h9.3v1.4
				c-0.3,0-0.9,0.1-1.4,0.2c-0.6,0.1-0.9,0.2-1.3,0.3c-0.5,0.1-0.8,0.5-0.9,0.8c-0.1,0.3-0.2,0.8-0.2,1.1v20.4
				c0,0.5,0.1,0.9,0.2,1.1c0.1,0.3,0.5,0.7,0.9,0.9c0.2,0.1,0.7,0.2,1.3,0.3c0.7,0.1,1,0.2,1.5,0.2L170.1-890L170.1-890L170.1-890z"
				/>
			<path id="path6719" fill="#FFFFFF" d="M187.9-890.4c-0.7,0.2-1.1,0.5-1.6,0.6s-0.9,0.2-1.6,0.2c-1,0-1.8-0.2-2.5-0.8
				s-0.9-1.1-1.1-2.2H181c-0.9,0.9-1.8,1.7-2.7,2.2c-0.9,0.6-2.2,0.8-3.5,0.8c-1.5,0-2.6-0.5-3.7-1.4c-0.9-0.9-1.4-2.1-1.4-3.5
				c0-0.8,0.1-1.4,0.3-2.1c0.2-0.7,0.6-1.1,0.9-1.6s0.8-0.8,1.3-1c0.6-0.3,1-0.6,1.5-0.8c0.7-0.2,1.8-0.7,3.7-1.3
				c1.8-0.6,3.1-1,3.7-1.4v-1.9c0-0.2,0-0.6-0.1-0.9c-0.1-0.6-0.2-0.9-0.5-1.4c-0.2-0.6-0.7-0.9-1-1.3c-0.6-0.3-1.1-0.6-2.1-0.6
				c-0.7,0-1.1,0.1-1.7,0.3c-0.6,0.2-0.9,0.5-1,0.7c0,0.2,0.1,0.7,0.2,1.1c0.1,0.6,0.2,0.9,0.2,1.4s-0.2,0.9-0.7,1.3
				c-0.5,0.5-0.9,0.6-1.7,0.6c-0.7,0-1.1-0.2-1.5-0.8c-0.3-0.5-0.5-0.9-0.5-1.6c0-0.7,0.2-1.1,0.7-1.7s0.9-1,1.7-1.5
				c0.7-0.3,1.3-0.7,2.2-0.9s1.7-0.5,2.5-0.5c1,0,2.1,0.1,2.9,0.2c0.9,0.1,1.6,0.5,2.3,0.9c0.7,0.5,1.1,1.1,1.5,2.1
				c0.3,0.9,0.6,1.9,0.6,3.2c0,1.9,0,3.5-0.1,5c0,1.5-0.1,3.1-0.1,4.8c0,0.6,0.1,0.9,0.3,1.3c0.2,0.3,0.5,0.6,0.9,0.8
				c0.2,0.1,0.6,0.2,0.9,0.2c0.5,0,0.9,0,1.3,0L187.9-890.4L187.9-890.4L187.9-890.4z M180.9-901c-1.1,0.3-2.2,0.7-3,0.9
				c-0.9,0.3-1.6,0.8-2.4,1.1c-0.7,0.5-1.1,0.9-1.6,1.6s-0.6,1.4-0.6,2.3c0,1,0.3,1.9,0.9,2.5c0.6,0.6,1.3,0.8,2.3,0.8
				c0.9,0,1.8-0.2,2.5-0.7c0.8-0.5,1.3-0.9,1.8-1.6L180.9-901L180.9-901z"/>
			<path id="path6721" fill="#FFFFFF" d="M198.5-899.6c0.6,0.5,0.9,1,1.3,1.6c0.3,0.7,0.5,1.4,0.5,2.3c0,1.8-0.7,3.3-2.1,4.5
				c-1.4,1.1-3.1,1.7-5.3,1.7c-1.1,0-2.2-0.2-3.1-0.7c-0.9-0.5-1.6-0.8-2.1-1.1l-0.5,1.3h-1.4l-0.2-6.9h1.4c0.1,0.6,0.3,1,0.7,1.8
				c0.3,0.7,0.8,1.3,1.3,1.8c0.6,0.6,1.1,1,1.8,1.5c0.8,0.5,1.5,0.7,2.5,0.7c1.3,0,2.3-0.3,2.9-0.9c0.7-0.6,1-1.4,1-2.5
				c0-0.6-0.1-1-0.3-1.4c-0.2-0.5-0.6-0.8-0.9-1c-0.5-0.3-0.9-0.6-1.6-0.9c-0.7-0.2-1.4-0.6-2.2-0.8c-0.7-0.2-1.3-0.5-2.1-0.8
				s-1.4-0.8-1.9-1.1c-0.6-0.5-1-1-1.4-1.7c-0.3-0.7-0.6-1.5-0.6-2.4c0-1.6,0.7-3,1.8-4.1c1.1-1,2.7-1.7,4.8-1.7
				c0.8,0,1.6,0.1,2.4,0.3s1.5,0.5,1.9,0.8l0.5-1h1.4l0.3,6.3h-1.4c-0.3-1.4-0.9-2.6-1.8-3.4c-0.9-0.9-2.1-1.3-3.3-1.3
				c-1,0-1.9,0.3-2.6,0.9c-0.7,0.6-0.9,1.1-0.9,1.9c0,0.7,0.1,1,0.3,1.5s0.6,0.8,0.9,0.9c0.5,0.2,0.9,0.6,1.5,0.8
				c0.7,0.2,1.4,0.6,2.3,0.8c0.9,0.3,1.7,0.7,2.5,0.9C197.4-900.5,198-900,198.5-899.6z"/>
			<path id="path6723" fill="#FFFFFF" d="M211.1-890.9c-0.9,0.3-1.7,0.7-2.5,0.9s-1.7,0.3-2.7,0.3c-1.6,0-2.7-0.5-3.4-1.3
				c-0.7-0.9-0.9-2.1-0.9-3.5v-13.3h-3.5v-1.9h3.7v-6.1h3.7v6.1h5.7v1.9h-5.6v11c0,0.9,0,1.5,0.1,2.1s0.2,1,0.5,1.4
				c0.2,0.5,0.6,0.7,0.9,0.9c0.5,0.2,0.9,0.3,1.7,0.3c0.3,0,0.9,0,1.5-0.1c0.7-0.1,1-0.1,1.4-0.2L211.1-890.9L211.1-890.9z"/>
			<path id="path6725" fill="#FFFFFF" d="M226.4-894.5c-0.9,1.6-1.9,2.7-3.3,3.8c-1.4,0.9-3,1.4-4.7,1.4c-1.6,0-3-0.3-4.2-0.9
				c-1.1-0.6-2.2-1.3-2.9-2.3c-0.8-0.9-1.4-2.1-1.7-3.3c-0.5-1.3-0.6-2.6-0.6-4.1c0-1.3,0.2-2.6,0.7-3.8c0.5-1.1,0.9-2.4,1.8-3.3
				c0.8-0.9,1.7-1.7,2.7-2.3s2.4-0.9,3.8-0.9s2.6,0.2,3.7,0.7c1,0.5,1.8,1,2.5,1.8s1,1.6,1.4,2.6c0.3,0.9,0.5,2.2,0.5,3.3v1.3h-12.9
				c0,1.3,0.1,2.5,0.3,3.5s0.7,1.9,1.1,2.7c0.6,0.8,1.1,1.4,2.1,1.8c0.9,0.5,1.8,0.7,3,0.7s2.3-0.3,3.1-0.9c0.9-0.6,1.7-1.5,2.5-3
				L226.4-894.5z M221.8-902.1c0-0.8-0.1-1.5-0.2-2.4s-0.3-1.6-0.7-2.2c-0.3-0.7-0.8-1-1.3-1.5c-0.6-0.5-1.1-0.6-2.1-0.6
				c-1.4,0-2.6,0.6-3.4,1.7c-0.9,1.1-1.4,2.7-1.5,4.8L221.8-902.1L221.8-902.1z"/>
			<path id="path6727" fill="#FFFFFF" d="M239.5-907.1c0,0.7-0.2,1.3-0.6,1.8c-0.3,0.6-0.9,0.8-1.5,0.8c-0.8,0-1.3-0.2-1.7-0.6
				c-0.5-0.5-0.6-0.9-0.6-1.3s0-0.6,0.1-0.8c0-0.2,0.1-0.5,0.1-0.8c-0.7,0-1.4,0.2-2.2,0.8c-0.9,0.6-1.5,1.1-2.2,2.2v11.4
				c0,0.5,0.1,0.9,0.3,1.1c0.2,0.3,0.5,0.6,0.9,0.7c0.3,0.1,0.8,0.2,1.3,0.3s0.9,0.1,1.4,0.1v1.3h-10.4v-1.3c0.3,0,0.7,0,0.9-0.1
				c0.3,0,0.7-0.1,0.9-0.1c0.3-0.1,0.7-0.3,0.9-0.7c0.2-0.3,0.3-0.7,0.3-1.1v-12.1c0-0.5-0.1-0.9-0.3-1.1c-0.2-0.5-0.5-0.8-0.9-0.9
				c-0.2-0.1-0.6-0.3-0.9-0.3c-0.3-0.1-0.8-0.1-1-0.1v-1.3l6.5-0.5l0.3,0.3v2.7h0.1c0.9-1,1.7-1.9,2.7-2.5c0.9-0.6,1.9-0.9,2.7-0.9
				s1.5,0.3,2.1,0.9C239.1-908.7,239.5-908,239.5-907.1L239.5-907.1z"/>
			<path id="path6729" fill="#FFFFFF" d="M260.6-903c0.7,0.7,1,1.4,1.3,2.2s0.5,1.7,0.5,2.7c0,2.5-0.9,4.5-2.7,6.2
				c-1.8,1.6-4.2,2.5-6.9,2.5c-1.3,0-2.6-0.2-3.8-0.6c-1.3-0.5-2.4-0.9-3.2-1.4l-0.9,1.5h-1.6l-0.3-9.6h1.6c0.3,1.1,0.8,2.3,1.1,3.2
				s1,1.8,1.7,2.6s1.5,1.4,2.5,1.8c1,0.5,2.1,0.7,3.2,0.7c0.9,0,1.7-0.1,2.4-0.3s1.3-0.6,1.7-0.9c0.5-0.5,0.8-0.9,0.9-1.5
				c0.2-0.6,0.3-1.3,0.3-2.1c0-1-0.3-2.2-0.9-3.1c-0.7-0.9-1.6-1.7-2.9-2.3c-0.9-0.3-1.8-0.8-3-1.1c-1-0.5-2.1-0.9-2.9-1.1
				c-1.6-0.8-2.7-1.6-3.8-2.7c-0.9-1.1-1.3-2.6-1.3-4.5c0-1,0.2-2.1,0.7-3s1-1.7,1.8-2.5c0.8-0.7,1.7-1.1,2.6-1.6
				c1-0.5,2.2-0.6,3.3-0.6c1.3,0,2.5,0.2,3.5,0.7c1,0.5,1.9,0.9,2.7,1.4l0.9-1.4h1.6l0.1,9.4h-1.6c-0.3-1-0.7-2.2-0.9-3.1
				c-0.3-0.9-0.9-1.8-1.4-2.6c-0.6-0.8-1.3-1.4-2.1-1.8c-0.9-0.5-1.8-0.7-3-0.7c-1.3,0-2.4,0.5-3.2,1.1c-0.9,0.9-1.3,1.8-1.3,3
				c0,1.1,0.3,2.3,0.9,3s1.4,1.5,2.5,1.9c0.9,0.5,1.9,0.9,2.9,1.1c0.9,0.3,1.8,0.8,2.6,1c0.8,0.3,1.6,0.8,2.3,1.1
				C259.5-904,260.1-903.6,260.6-903L260.6-903z"/>
			<path id="path6731" fill="#FFFFFF" d="M259.6-883.7c0-0.7,0.2-1.1,0.6-1.6c0.3-0.5,0.9-0.7,1.4-0.7s0.8,0.1,1,0.2
				c0.3,0.1,0.6,0.3,0.9,0.7c0.2,0.2,0.5,0.5,0.7,0.9c0.2,0.3,0.5,0.7,0.6,0.9c0.7-0.3,1.5-1.3,2.4-2.7c0.9-1.5,1.6-2.7,2.1-4
				c-1.3-3.1-2.4-6.1-3.4-8.5c-1-2.5-2.2-5-3.2-7.8c-0.2-0.7-0.7-1-1.3-1.4c-0.7-0.3-1.1-0.6-1.8-0.7v-1.3h9v1.4
				c-0.5,0-0.9,0.1-1.4,0.2c-0.6,0.1-0.9,0.3-0.9,0.6c0,0.1,0,0.2,0.1,0.5c0.1,0.2,0.1,0.5,0.2,0.6c0.6,1.3,1.3,3.2,2.4,5.7
				s1.8,4.5,2.4,5.9c0.7-1.4,1.1-2.9,1.8-4.3c0.7-1.5,1.4-3.3,2.2-5.4c0.1-0.2,0.2-0.7,0.5-1c0.2-0.5,0.2-0.9,0.2-1.1
				s-0.3-0.7-0.9-0.9c-0.7-0.3-1.1-0.5-1.7-0.6v-1.3h7.3v1.3c-0.5,0.1-0.9,0.3-1.6,0.7c-0.7,0.5-1.1,0.9-1.5,1.7
				c-1.6,3.7-3,7-4.2,10c-1.1,3-2.2,5.3-2.7,6.6c-0.9,1.8-1.6,3.3-2.3,4.3c-0.7,1-1.3,1.8-1.9,2.5c-0.7,0.6-1.1,0.9-1.6,1.1
				c-0.6,0.2-0.9,0.3-1.5,0.3c-1,0-1.8-0.2-2.5-0.8C260-882.3,259.6-883,259.6-883.7L259.6-883.7z"/>
			<path id="path6733" fill="#FFFFFF" d="M290-899.6c0.6,0.5,0.9,1,1.3,1.6c0.3,0.7,0.5,1.4,0.5,2.3c0,1.8-0.7,3.3-2.1,4.5
				c-1.4,1.1-3.1,1.7-5.3,1.7c-1.1,0-2.2-0.2-3.1-0.7s-1.6-0.8-2.1-1.1l-0.5,1.3h-1.5l-0.2-6.9h1.4c0.1,0.6,0.3,1,0.7,1.8
				c0.3,0.7,0.8,1.3,1.3,1.8c0.6,0.6,1.1,1,1.8,1.5c0.8,0.5,1.5,0.7,2.5,0.7c1.3,0,2.3-0.3,2.9-0.9c0.7-0.6,1-1.4,1-2.5
				c0-0.6-0.1-1-0.3-1.4c-0.2-0.5-0.6-0.8-0.9-1c-0.5-0.3-0.9-0.6-1.6-0.9c-0.7-0.2-1.4-0.6-2.2-0.8c-0.7-0.2-1.3-0.5-2.1-0.8
				c-0.8-0.3-1.4-0.8-1.9-1.1c-0.6-0.5-1-1-1.4-1.7c-0.3-0.7-0.6-1.5-0.6-2.4c0-1.6,0.7-3,1.8-4.1c1.1-1,2.7-1.7,4.8-1.7
				c0.8,0,1.6,0.1,2.4,0.3s1.5,0.5,1.9,0.8l0.5-1h1.4l0.3,6.3h-1.4c-0.3-1.4-0.9-2.6-1.8-3.4c-0.9-0.9-2.1-1.3-3.3-1.3
				c-1,0-1.9,0.3-2.6,0.9c-0.7,0.6-0.9,1.1-0.9,1.9c0,0.7,0.1,1,0.3,1.5c0.2,0.5,0.6,0.8,0.9,0.9c0.5,0.2,0.9,0.6,1.5,0.8
				c0.7,0.2,1.4,0.6,2.3,0.8c0.9,0.3,1.7,0.7,2.5,0.9C289-900.5,289.5-900,290-899.6L290-899.6z"/>
			<path id="path6735" fill="#FFFFFF" d="M302.5-890.9c-0.9,0.3-1.7,0.7-2.5,0.9s-1.7,0.3-2.7,0.3c-1.6,0-2.7-0.5-3.4-1.3
				c-0.7-0.9-0.9-2.1-0.9-3.5v-13.3h-3.5v-1.9h3.7v-6.1h3.7v6.1h5.7v1.9h-5.7v11c0,0.9,0,1.5,0.1,2.1s0.2,1,0.5,1.4
				c0.2,0.5,0.6,0.7,0.9,0.9c0.5,0.2,0.9,0.3,1.7,0.3c0.3,0,0.9,0,1.5-0.1c0.7-0.1,1-0.1,1.4-0.2L302.5-890.9L302.5-890.9z"/>
			<path id="path6737" fill="#FFFFFF" d="M317.7-894.5c-0.9,1.6-1.9,2.7-3.3,3.8c-1.4,0.9-3,1.4-4.7,1.4c-1.6,0-3-0.3-4.2-0.9
				c-1.1-0.6-2.2-1.3-2.9-2.3c-0.8-0.9-1.4-2.1-1.7-3.3c-0.5-1.3-0.6-2.6-0.6-4.1c0-1.3,0.2-2.6,0.7-3.8c0.5-1.1,0.9-2.4,1.8-3.3
				c0.8-0.9,1.7-1.7,2.7-2.3s2.4-0.9,3.8-0.9s2.6,0.2,3.7,0.7c1,0.5,1.8,1,2.5,1.8s1,1.6,1.4,2.6c0.3,0.9,0.5,2.2,0.5,3.3v1.3h-12.9
				c0,1.3,0.1,2.5,0.3,3.5c0.2,1,0.7,1.9,1.1,2.7c0.6,0.8,1.1,1.4,2.1,1.8c0.9,0.5,1.8,0.7,3,0.7s2.3-0.3,3.1-0.9
				c0.9-0.6,1.7-1.5,2.5-3L317.7-894.5z M313.4-902.1c0-0.8-0.1-1.5-0.2-2.4s-0.3-1.6-0.7-2.2c-0.3-0.7-0.8-1-1.3-1.5
				c-0.6-0.5-1.1-0.6-2.1-0.6c-1.4,0-2.6,0.6-3.4,1.7c-0.9,1.1-1.4,2.7-1.5,4.8L313.4-902.1L313.4-902.1z"/>
			<path id="path6739" fill="#FFFFFF" d="M349.5-890H340v-1.3c0.3,0,0.7,0,0.9-0.1c0.3,0,0.6-0.1,0.9-0.1c0.3-0.1,0.7-0.3,0.9-0.7
				c0.2-0.3,0.3-0.7,0.3-1.1v-10.2c0-1.4-0.3-2.5-0.9-3.2c-0.7-0.8-1.4-1-2.4-1c-0.7,0-1.3,0.1-1.8,0.3c-0.6,0.2-1,0.5-1.6,0.9
				c-0.5,0.3-0.8,0.7-0.9,0.9c-0.2,0.3-0.5,0.7-0.6,0.9v11.3c0,0.5,0.1,0.9,0.2,1.1c0.1,0.3,0.5,0.6,0.9,0.7
				c0.3,0.1,0.6,0.2,0.9,0.3c0.2,0.1,0.6,0.1,0.9,0.1v1.3h-9.4v-1.3c0.3,0,0.7,0,0.9-0.1c0.3,0,0.6-0.1,0.8-0.2
				c0.3-0.1,0.7-0.3,0.9-0.7c0.2-0.3,0.3-0.7,0.3-1.1v-10.2c0-1.4-0.3-2.5-0.9-3.2c-0.7-0.8-1.4-1-2.4-1c-0.7,0-1.3,0.1-1.8,0.3
				c-0.6,0.2-1,0.6-1.6,0.9c-0.5,0.3-0.8,0.7-0.9,0.9c-0.2,0.3-0.5,0.7-0.7,0.9v11.2c0,0.5,0.1,0.9,0.3,1.1c0.2,0.2,0.5,0.6,0.9,0.8
				c0.3,0.1,0.6,0.2,0.9,0.3s0.7,0.1,0.9,0.1v1.3h-10v-1.3c0.3,0,0.7,0,0.9-0.1c0.3,0,0.7-0.1,0.9-0.1c0.3-0.1,0.7-0.3,0.9-0.7
				s0.3-0.7,0.3-1.1v-12.2c0-0.5-0.1-0.9-0.3-1.1c-0.2-0.3-0.5-0.7-0.9-0.9c-0.2-0.1-0.6-0.3-0.9-0.5c-0.3-0.1-0.8-0.2-1.1-0.2v-1.3
				l6.5-0.5l0.3,0.3v2.7h0.1c0.3-0.3,0.8-0.8,1.1-1.1c0.5-0.5,0.9-0.9,1.3-1c0.5-0.3,1-0.6,1.7-0.8s1.5-0.3,2.3-0.3
				c1.3,0,2.4,0.3,3.3,1s1.6,1.5,1.9,2.5c0.5-0.5,0.9-0.9,1.3-1.1c0.3-0.3,0.9-0.8,1.4-1c0.6-0.3,1-0.7,1.8-0.9
				c0.7-0.2,1.4-0.3,2.3-0.3c1.6,0,3,0.6,4,1.6s1.5,2.7,1.5,5v10c0,0.5,0.1,0.9,0.2,1.1c0.1,0.3,0.5,0.6,0.9,0.7
				c0.3,0.1,0.7,0.2,0.9,0.3c0.3,0.1,0.7,0.1,0.9,0.1L349.5-890L349.5-890L349.5-890L349.5-890z"/>
		</g>
		<g id="text6704" transform="scale(1.0267638,0.97393384)">
			<path id="path6742" fill="#FFFFFF" d="M354,48.8h-2.6v-0.5c0.1,0,0.2,0,0.3,0c0.1,0,0.2,0,0.3-0.1c0.1,0,0.1-0.1,0.2-0.1
				c0,0,0-0.1,0-0.2v-3.1h-0.1l-1.8,4h-0.2l-1.7-4h-0.1v2.6c0,0.2,0,0.5,0,0.7c0,0.1,0.1,0.2,0.2,0.3c0.1,0,0.2,0.1,0.3,0.1
				s0.3,0.1,0.5,0.1v0.5h-2.4v-0.3c0.1,0,0.2,0,0.3-0.1c0.1,0,0.3-0.1,0.3-0.1c0.1-0.1,0.1-0.1,0.2-0.2c0-0.1,0-0.3,0-0.7v-2.9
				c0-0.1,0-0.2-0.1-0.3c0-0.1-0.1-0.1-0.1-0.2c-0.1-0.1-0.2-0.1-0.3-0.1c-0.1,0-0.2,0-0.5-0.1v-0.3h2.1l1.6,3.5l1.3-2.9
				c0.1-0.1,0.1-0.2,0.1-0.3s0-0.2,0.1-0.3h2.1v0.5c-0.1,0-0.2,0-0.3,0s-0.2,0-0.3,0.1c-0.1,0-0.1,0-0.1,0.1c0,0,0,0.1,0,0.2v3.5
				c0,0.1,0,0.1,0,0.2l0.1,0.1c0,0,0.1,0,0.2,0s0.2,0,0.3,0L354,48.8L354,48.8L354,48.8z M346,45.1h-0.3c0-0.2-0.1-0.3-0.3-0.7
				c-0.1-0.2-0.3-0.5-0.5-0.5c-0.1,0-0.2,0-0.3,0s-0.2,0-0.2,0h-0.3v4c0,0.1,0,0.1,0,0.2l0.2,0.1c0,0,0.1,0,0.3,0.1
				c0.1,0,0.2,0,0.3,0v0.5h-2.6v-0.5c0.1,0,0.2,0,0.3,0s0.2,0,0.3,0c0.1,0,0.1-0.1,0.1-0.1s0-0.1,0-0.2v-4h-0.3c-0.1,0-0.2,0-0.3,0
				s-0.2,0-0.3,0s-0.3,0.2-0.5,0.5c-0.1,0.2-0.2,0.5-0.3,0.7H341v-1.5h5V45.1L346,45.1z"/>
		</g>
	</g>
</g>
</svg>
