<?xml version="1.0" encoding="UTF-8" standalone="no"?>
<!-- Generator: Adobe Illustrator 21.1.0, SVG Export Plug-In . SVG Version: 6.00 Build 0)  -->

<svg
   xmlns:dc="http://purl.org/dc/elements/1.1/"
   xmlns:cc="http://creativecommons.org/ns#"
   xmlns:rdf="http://www.w3.org/1999/02/22-rdf-syntax-ns#"
   xmlns:svg="http://www.w3.org/2000/svg"
   xmlns="http://www.w3.org/2000/svg"
   xmlns:sodipodi="http://sodipodi.sourceforge.net/DTD/sodipodi-0.dtd"
   xmlns:inkscape="http://www.inkscape.org/namespaces/inkscape"
   version="1.0"
   id="Capa_1"
   x="0px"
   y="0px"
   width="299.20001"
   height="104.1"
   viewBox="0 0 299.20002 104.1"
   enable-background="new 0 0 452.9 132.9"
   xml:space="preserve"
   sodipodi:docname="mega32x.svg"
   inkscape:version="0.92.3 (unknown)"><metadata
     id="metadata239"><rdf:RDF><cc:Work
         rdf:about=""><dc:format>image/svg+xml</dc:format><dc:type
           rdf:resource="http://purl.org/dc/dcmitype/StillImage" /><dc:title></dc:title></cc:Work></rdf:RDF></metadata><defs
     id="defs237"><linearGradient
       id="rect7344_1_"
       gradientUnits="userSpaceOnUse"
       x1="284.85349"
       y1="-415.7005"
       x2="284.85349"
       y2="-480.57599"
       gradientTransform="matrix(0.64499644,0,0,-0.64499644,41.689583,-262.71811)"><stop
         offset="0"
         style="stop-color:#F1F3F2"
         id="stop36" /><stop
         offset="0.1937"
         style="stop-color:#A4B5D3"
         id="stop38" /><stop
         offset="0.5858"
         style="stop-color:#F1F3F2"
         id="stop40" /><stop
         offset="0.6"
         style="stop-color:#5878B5"
         id="stop42" /><stop
         offset="1"
         style="stop-color:#F1F3F2"
         id="stop44" /></linearGradient></defs><sodipodi:namedview
     pagecolor="#ffffff"
     bordercolor="#666666"
     borderopacity="1"
     objecttolerance="10"
     gridtolerance="10"
     guidetolerance="10"
     inkscape:pageopacity="0"
     inkscape:pageshadow="2"
     inkscape:window-width="1920"
     inkscape:window-height="1031"
     id="namedview235"
     showgrid="false"
     fit-margin-top="0"
     fit-margin-left="0"
     fit-margin-right="0"
     fit-margin-bottom="0"
     inkscape:zoom="2.4111283"
     inkscape:cx="223.72581"
     inkscape:cy="151.64884"
     inkscape:window-x="0"
     inkscape:window-y="0"
     inkscape:window-maximized="1"
     inkscape:current-layer="g232"
     inkscape:pagecheckerboard="true"
     inkscape:snap-bbox="true"
     inkscape:bbox-paths="true"
     inkscape:bbox-nodes="true"
     inkscape:snap-bbox-midpoints="true"
     inkscape:snap-bbox-edge-midpoints="true" /><g
     id="g232"
     transform="translate(-76.8,-14.4)"><path
       d="m 256.8,118.1 c -1.2,-1.3 -4.4,-1.4 -4.9,-1.4 -22.4,0 -44.9,0 -67.3,0 -2.3,0 -2.6,0.2 -2.4,-2.5 0.4,-4.6 2.2,-9.2 5.6,-12.5 0.7,-0.7 0.9,-0.9 2.3,-2.2 6.4,-5.7 19.1,-10.4 19.1,-10.4 0,0 10.6,-4 16.6,-6.3 2.6,-1.1 5.3,-2.2 7.7,-4 8.6,-6.7 4.2,-13.6 -7.3,-15.2 -7.9,-1.2 -15.3,0.8 -22,5.2 -0.9,0.6 -1.7,1.2 -2.4,1.8 -1.5,1.3 -2.8,2.8 -3.1,4.4 -0.1,0.9 0,1.5 0,1.7 0,0.4 0.2,1.2 -0.1,1.5 -0.4,0.3 -1.3,0 -1.7,-0.3 -3.5,-3.3 -6.8,-6.5 -10.4,-9.8 -0.2,-0.2 -0.6,-0.7 -0.6,-0.7 0,0 -0.3,-0.4 -0.3,-0.7 0,-0.3 0.3,-0.7 0.7,-0.8 1.9,-0.3 2.8,-0.4 3.9,-1.3 3.1,-2.2 6.2,-4.2 9.7,-5.9 4.5,-2.2 9.4,-3.5 14.4,-4.2 3.9,-0.4 15.2,-2.3 28.4,3.6 3.5,1.5 6.4,3.8 8.7,6.7 1.3,1.8 6.4,11.7 -3.9,19.7 -3.6,2.9 -8.1,4.7 -12.5,6.3 -3.8,1.3 -6.5,2.3 -12.7,4.1 -4.6,1.4 -8.1,2.4 -13.5,5.1 -4.3,2 -7.2,4.5 -7.2,4.5 0,0 -1.4,1.1 -1.2,1.9 0.2,0.7 1.4,0.7 2.1,0.7 16.6,0 33.1,0 49.7,0 1.8,0 3.4,-0.1 4.6,-1.5 0.2,-0.2 0.7,-0.3 0.9,-0.2 0.2,0.1 0.3,0.6 0.3,0.8 0,3.9 0,7.8 0,11.7 0,0.3 -0.1,0.4 -0.3,0.6 0.1,0 -0.6,0 -0.9,-0.4 z"
       id="path224"
       inkscape:connector-curvature="0"
       style="fill:#ffffff" /><path
       d="m 133.3,117.6 c -2.6,-0.1 -5.5,-0.4 -8.2,-0.9 -10.8,-1.9 -16,-4.5 -19.1,-5.7 -1.4,-0.6 -2.9,-1.2 -4.4,-0.6 -0.2,0.1 -0.3,0.1 -0.6,0.1 -1.1,0 -1.3,-0.3 -0.9,-1.3 0.4,-1.1 1.2,-2.1 1.8,-3.2 1.7,-2.8 3.4,-5.5 5.1,-8.3 0.1,-0.1 0.1,-0.2 0.2,-0.3 0.3,-0.6 0.7,-1.1 1.5,-1.1 0.7,0.1 0.9,0.7 1.1,1.3 0.3,1.3 1.1,2.2 2.1,2.9 2.3,1.9 5.2,3.1 7.9,4.1 3.6,1.3 7.5,2.1 11.4,2.6 4.5,0.7 9.2,0.8 13.7,0.6 3.9,-0.2 7.7,-0.9 11.4,-2.3 2.2,-0.8 3.9,-2.4 5.3,-4.3 1.8,-2.4 1.1,-5.9 -1.4,-7.8 -3.3,-2.6 -7.2,-3.6 -11.3,-4.3 -3.6,-0.6 -7.4,-0.6 -11,-0.4 -1.8,0 -5.9,0.2 -7.4,1.7 -0.6,0.4 -1.1,0.6 -1.3,0.3 -0.3,-0.5 -0.3,-0.8 -0.3,-1.2 0,-3.6 0,-7.2 0,-10.7 0,-1.2 0.6,-1.5 1.5,-0.9 1.2,0.8 2.4,1.2 3.8,1.3 2.2,0.2 9.5,0 10.8,-0.1 4,-0.4 3.6,-0.4 5.9,-1.1 2.4,-0.7 4.7,-2.3 6.1,-3.9 0,0 0,0 0.1,-0.1 1.8,-2.1 1.2,-4.4 -0.4,-6.1 -1.5,-1.7 -3.4,-2.6 -5.6,-3.3 -3.5,-1.1 -7.2,-1.7 -10.7,-1.4 -6.6,0.3 -13.1,1.3 -19.1,4.3 -1.4,0.7 -2.6,1.7 -3.9,2.4 -1.1,0.7 -1.7,1.9 -1.7,3.2 0,0.7 0.1,1.5 -0.7,1.8 -0.8,0.3 -1.3,-0.4 -1.8,-0.9 -3.1,-3.1 -6.1,-6.2 -9.2,-9.3 -0.1,-0.2 -0.3,-0.3 -0.4,-0.6 -0.3,-0.6 -0.1,-1.1 0.6,-1.2 0.8,-0.1 1.7,0 2.3,-0.2 1.1,-0.3 2.1,-0.9 3.2,-1.4 2.6,-1.3 5.4,-2.8 8.2,-4 4.4,-1.9 9.2,-2.8 13.8,-3.4 4.5,-0.6 12.6,-0.8 18.3,0.1 3.9,0.6 7.7,1.4 11.4,2.9 3.2,1.4 6.3,3.1 8.6,5.7 1.8,2 2.9,4.1 3.3,6.6 0.3,2.4 0,4.7 -1.2,7.1 -0.7,1.5 -1.9,2.5 -3.4,3.5 -3.1,1.8 -4.7,2.2 -5.2,2.4 -0.6,0.3 -0.6,0.8 0,1.2 0.6,0.4 1.2,0.4 1.8,0.7 3.6,1.2 6.6,3.1 9.3,5.9 1.9,2 3.1,4.3 3.4,7.2 0.3,2.8 -0.2,5.4 -1.5,7.8 -0.9,2 -2.5,3.3 -4.2,4.5 -3.4,2.4 -7.2,4.2 -11.3,5.4 -3.1,0.9 -6.1,1.5 -9.2,1.9 -10.5,1.6 -16,0.9 -18.5,0.8 z"
       id="path226"
       inkscape:connector-curvature="0"
       style="fill:#ffffff" /><path
       d="m 279.2,54.3 c 3.5,0 7.1,0 10.6,0 0.3,0 0.7,0 1.1,0 0.8,0.1 0.9,0.4 0.4,1.1 -0.9,1.2 -0.8,1.3 0.1,2.3 l 0.1,0.1 c 4.9,5.1 9.8,9.9 14.8,15 0.2,0.2 0.4,0.4 0.7,0.7 0.4,0.3 1.1,0.3 1.5,0 0.2,-0.2 0.4,-0.4 0.7,-0.7 4.9,-4.9 9.7,-9.8 14.6,-14.7 0.2,-0.2 0.3,-0.3 0.4,-0.6 0.7,-0.8 0.6,-1.1 0,-2 -0.6,-0.7 -0.6,-1.2 0.6,-1.2 0.2,0 0.4,0 0.7,0 7.2,0 14.4,0 21.5,0 0.4,0 0.9,0 1.3,0.1 0.2,0 0.3,0.3 0.4,0.4 0,0.2 -0.1,0.6 -0.2,0.6 -0.4,0.2 -1.1,0.4 -1.5,0.6 -2,0.4 -3.6,1.4 -5.2,2.9 -6.2,6.3 -12.5,12.6 -18.8,19 -1.5,1.7 -3.2,3.2 -4.6,4.7 -0.9,1.1 -0.9,1.5 0,2.5 1.8,1.8 3.5,3.5 5.3,5.3 1.3,1.3 2.4,2.6 3.8,4 3.4,3.5 6.8,6.8 10.3,10.4 2.3,2.3 4.5,4.6 6.8,7.1 1.3,1.4 2.8,2.3 4.6,2.8 0.7,0.1 1.3,0.4 2,0.7 0.1,0.1 0.3,0.3 0.3,0.6 0,0.3 -0.2,0.4 -0.4,0.4 -0.3,0.1 -0.7,0.1 -1.1,0.1 -7.4,0 -14.6,0 -22,0 -0.3,0 -0.6,0 -0.9,-0.1 -0.4,-0.1 -0.6,-0.4 -0.3,-0.9 0.2,-0.3 0.6,-0.8 0.6,-1.3 0,-0.4 -0.4,-0.8 -0.8,-1.2 -5.7,-5.9 -11.4,-11.6 -17.1,-17.3 -0.2,-0.2 -0.4,-0.4 -0.6,-0.6 -1.3,-1.2 -1.8,-1.3 -2.9,0 -3.6,3.6 -7.3,7.3 -10.8,10.8 -2.3,2.3 -4.6,4.7 -6.8,7.3 -0.8,0.9 -0.8,0.9 -0.2,2.2 0.3,0.7 0.2,0.9 -0.6,1.1 -0.3,0 -0.7,0 -1.1,0 -7.1,0 -14.1,0 -21.2,0 -0.6,0 -1.8,0.1 -1.8,-0.6 -0.1,-0.8 0.8,-0.8 1.4,-0.9 2.5,-0.6 4.5,-2.1 6.3,-4 5.9,-6 11.7,-11.8 17.6,-17.8 1.9,-1.9 3.5,-3.8 5.4,-5.6 0.7,-0.7 1.4,-1.4 2.1,-2.1 1.5,-1.5 1.5,-1.9 0.1,-3.3 -4.3,-4.3 -8.6,-8.6 -12.8,-13.1 -3.5,-3.5 -7.1,-7.1 -10.4,-10.6 -1.3,-1.4 -2.9,-2.2 -4.6,-2.6 -0.3,-0.1 -0.7,-0.2 -1.1,-0.2 -0.4,-0.1 -1.1,-0.2 -0.9,-0.9 0.1,-0.7 0.6,-0.7 1.2,-0.7 0.3,0 0.6,0 0.9,0 3.4,0.2 7.1,0.2 10.5,0.2 z"
       id="path228"
       inkscape:connector-curvature="0"
       style="display:inline;fill:#ffffff" /><path
       style="display:inline;fill:#ffffff"
       d="M 0,0 V 30.599609 H 299.19922 V 0 Z m 232.63672,6.6777344 h 7.82617 l 2.86328,4.2890626 h -7.82812 z m 23.76367,0 h 7.82422 l -2.86133,4.2890626 h -7.82617 z M 7.0644531,7.0449219 H 41.839844 C 43.761924,7.0816869 45.3125,8.826071 45.3125,10.96875 H 41.839844 7.0644531 Z m 42.2324219,0 H 74.470703 V 10.96875 H 49.296875 Z m 32.283203,0 h 0.02148 26.214848 V 10.96875 H 85.136719 81.580078 78.066406 c 0,-2.159449 1.572222,-3.9109281 3.513672,-3.9238281 z m 33.263672,0 h 21.04687 c 0.0348,-0.0013 0.0648,0 0.10157,0 1.94918,0 3.53515,1.7585751 3.53515,3.9238281 h -3.63867 -17.48828 -3.55664 -3.49414 c 0,-2.151064 1.56172,-3.8999581 3.49414,-3.9238281 z m 41.23242,0 h 25.92969 c 1.92984,0.0258 3.49219,1.7734101 3.49219,3.9238281 h -3.49219 -25.92969 z m 37.31055,0 h 22.02734 c 1.93111,0.023865 3.49219,1.7727641 3.49219,3.9238281 h -1.32813 -5.74023 -1.67578 -12.97461 -3.80078 -3.24805 c 0,-2.06141 1.43045,-3.7423847 3.24805,-3.9023438 z m 29.70898,0 h 7.05078 V 10.96875 h -7.05078 z m 43.86719,0 h 25.17188 V 10.96875 h -25.17188 z m -48.52344,5.2285161 h 0.46875 v 2.105468 c 0,2.109136 -1.30565,3.912605 -3.14648,4.660156 l 4.86328,4.882813 h -8.43945 l -3.57617,-3.595703 h -9.84961 v -4.578125 h 10.25781 1.55273 c 0.69014,0 1.24623,-0.538977 1.26563,-1.224609 0.002,-0.01354 0,-0.02748 0,-0.04102 v -2.207031 z m -211.3749969,0.002 H 14.050781 V 23.921875 H 7.0644531 Z m 15.5488279,0 h 7.007813 v 11.646484 h -7.007813 z m 15.56836,0 h 7.070312 v 11.646484 h -7.070312 z m 11.115234,0 6.416016,0.002 h 0.654297 c 0,0.865585 0.685214,1.572265 1.552734,1.572265 h 15.326172 v 3.595703 H 56.367188 v 0.980469 C 56.367188,19.291367 57.052402,20 57.919922,20 h 16.550781 v 3.921875 H 54.140625 c -2.61094,0 -4.74955,-1.860372 -4.84375,-4.189453 z m 28.769531,0 h 7.06836 v 6.455078 c 0,0.706271 0.559355,1.267578 1.265625,1.267578 h 12.955078 c 0.706921,0 1.267581,-0.560663 1.267581,-1.267578 0,-0.706918 -0.56066,-1.28711 -1.267581,-1.28711 h -8.72461 v -3.595703 h 12.076171 c 0.027,-0.0013 0.0549,0 0.082,0 2.78186,0 5.02539,2.265649 5.02539,5.046875 0,2.670286 -2.07473,4.834936 -4.69922,5.00586 v 0.01953 H 82.458984 v -0.01953 c -2.35358,-0.196079 -4.219546,-1.908048 -4.373046,-4.044922 h -0.01953 z m 33.285154,0 h 7.04883 v 11.646484 h -7.04883 z m 21.10547,0 h 7.07031 v 11.646484 h -7.07031 v -3.59375 H 119.64648 V 15.75 h 12.81055 z m 23.61914,0 h 7.04883 v 11.646484 h -7.04883 z m 22.35352,0 H 185.5 v 7.294921 c 0,2.27942 -1.95551,4.14305 -4.43359,4.332032 v 0.01953 H 164.10547 V 20 h 13.05664 c 0.70756,0 1.26758,-0.560661 1.26758,-1.267578 z m 11.70703,0 h 7.05078 v 11.646484 h -7.05078 z m 32.95898,0 h 7.05078 v 11.646484 h -7.05078 z m 13.25977,0 h 7.82226 l 4.25,6.375 4.25,-6.375 h 7.82618 l -7.76368,11.646484 h -0.79687 -7.02734 -0.79688 z m 30.60742,0 7.05078,0.002 c 0,0.865585 0.70604,1.572265 1.57227,1.572265 h 15.30468 v 3.595703 h -16.87695 v 0.980469 c 0,0.865586 0.70604,1.574219 1.57227,1.574219 h 16.55078 v 3.921875 h -20.33203 c -2.61031,0 -4.747,-1.860372 -4.8418,-4.189453 z"
       transform="translate(76.8,14.4)"
       id="path230"
       inkscape:connector-curvature="0" /></g></svg>