<?xml version="1.0" encoding="UTF-8" standalone="no"?>
<!-- Generator: Adobe Illustrator 16.0.0, SVG Export Plug-In . SVG Version: 6.00 Build 0)  -->

<svg
   xmlns:dc="http://purl.org/dc/elements/1.1/"
   xmlns:cc="http://creativecommons.org/ns#"
   xmlns:rdf="http://www.w3.org/1999/02/22-rdf-syntax-ns#"
   xmlns:svg="http://www.w3.org/2000/svg"
   xmlns="http://www.w3.org/2000/svg"
   xmlns:sodipodi="http://sodipodi.sourceforge.net/DTD/sodipodi-0.dtd"
   xmlns:inkscape="http://www.inkscape.org/namespaces/inkscape"
   version="1.1"
   id="Layer_1"
   x="0px"
   y="0px"
   width="198.01062"
   height="104.30258"
   viewBox="0 0 198.01062 104.30258"
   enable-background="new 0 0 467 62"
   xml:space="preserve"
   sodipodi:docname="megacd.svg"
   inkscape:version="0.92.3 (unknown)"><metadata
   id="metadata71"><rdf:RDF><cc:Work
       rdf:about=""><dc:format>image/svg+xml</dc:format><dc:type
         rdf:resource="http://purl.org/dc/dcmitype/StillImage" /><dc:title></dc:title></cc:Work></rdf:RDF></metadata><defs
   id="defs69" /><sodipodi:namedview
   pagecolor="#ffffff"
   bordercolor="#666666"
   borderopacity="1"
   objecttolerance="10"
   gridtolerance="10"
   guidetolerance="10"
   inkscape:pageopacity="0"
   inkscape:pageshadow="2"
   inkscape:window-width="1920"
   inkscape:window-height="1031"
   id="namedview67"
   showgrid="false"
   inkscape:pagecheckerboard="true"
   inkscape:zoom="4.6766595"
   inkscape:cx="80.728339"
   inkscape:cy="59.433478"
   inkscape:window-x="0"
   inkscape:window-y="0"
   inkscape:window-maximized="1"
   inkscape:current-layer="Layer_1"
   fit-margin-top="0"
   fit-margin-left="0"
   fit-margin-right="0"
   fit-margin-bottom="0"
   viewbox-width="80.16"
   scale-x="1.00497"
   inkscape:lockguides="false" />



<path
   style="fill:#ffffff;fill-opacity:1;stroke:none;stroke-width:1.24123073;stroke-miterlimit:4;stroke-dasharray:none;stroke-opacity:1"
   d="m 114.68924,27.356445 c -11.56275,-0.57019 -28.293808,6.86733 -43.341248,20.31544 -20.976797,18.74508 -30.729107,42.05917 -21.77487,52.07839 8.951757,10.019195 33.220375,2.948435 54.197178,-15.79664 5.68731,-5.08159 10.53692,-10.49916 14.42446,-15.89357 l -20.96032,15.08387 28.53376,-28.24767 c 0.0894,-0.21101 0.17742,-0.42417 0.26183,-0.63518 l -28.79559,21.76516 29.30468,-30.49741 -29.30468,22.38093 28.08769,-29.67315 -28.08769,22.89972 27.04041,-30.46833 c -2.45144,-2.04245 -5.73135,-3.12151 -9.58561,-3.31156 z m -44.412777,23.88883 h 23.636716 v 16.03902 h -9.338323 v -7.99041 l -9.629234,-0.11145 v 24.18461 h 9.629234 v -6.64738 h 9.338323 v 14.70084 h -23.56399 c -2.351475,0 -4.552794,-2.329 -4.552794,-4.55766 v -31.00654 c 0,-3.33324 1.587438,-4.61096 4.480068,-4.61096 z"
   id="path38"
   inkscape:connector-curvature="0" />

<path
   style="fill:#ffffff;fill-opacity:1;stroke:none;stroke-width:1.24123073;stroke-miterlimit:4;stroke-dasharray:none;stroke-opacity:1"
   d="M 182.37511,8.5830722e-4 C 170.88999,0.09223831 154.91653,7.4630453 140.49326,20.350275 c -5.68731,5.0816 -10.53692,10.49668 -14.42445,15.89355 l 20.95547,-15.08384 -28.52891,28.2477 c -0.0894,0.21349 -0.17743,0.42414 -0.26183,0.63516 l 28.79558,-21.76033 -29.30952,30.49742 29.30468,-22.39064 -28.08285,29.67317 28.08285,-22.89487 -27.03557,30.46832 c 9.80573,8.16977 32.86361,0.92443 52.92686,-17.0039 20.9768,-18.74506 30.72177,-42.06161 21.77002,-52.0783397 -2.79741,-3.131006 -7.08998,-4.59432599 -12.31048,-4.55281699278 z M 150.90797,13.062885 h 23.56884 c 2.27487,0.25951 4.54794,2.18817 4.54794,4.60613 v 31.01621 c 0,2.27488 -2.36038,4.50915 -4.54794,4.54796 l -23.56884,-0.0387 z m 18.97241,7.93226 -9.605,0.11145 v 24.04885 h 9.605 z"
   id="path42"
   inkscape:connector-curvature="0" />
<g
   id="g46"
   style="fill:#da0000;fill-opacity:1;stroke:none"
   transform="matrix(0.97694827,0,0,0.97694827,-12.576885,52.957585)">
	
</g>
<g
   id="g58"
   style="fill:#ffffff;fill-opacity:1;stroke:none"
   transform="matrix(2.4824614,0,0,2.4824614,-35.519058,-24.014015)">
	<path
   d="m 19.633,11.192 c 0.313,-0.467 0.78,-0.939 1.387,-0.919 1.149,-0.032 2.299,0 3.451,-0.009 -0.008,0.386 -0.018,0.771 -0.031,1.156 0.468,-0.518 0.973,-1.174 1.749,-1.146 1.591,-0.029 3.182,0 4.773,-0.009 0,3.111 0.002,6.224 0,9.336 -1.076,0.002 -2.154,0 -3.229,0 -0.006,-2.226 0.001,-4.451 -0.006,-6.676 -0.604,-0.053 -0.894,0.522 -1.167,0.955 -1.17,1.909 -2.407,3.781 -3.518,5.724 -1.132,0.022 -2.261,0.02 -3.393,-0.002 1.358,-2.291 2.815,-4.521 4.209,-6.791 -0.712,0.042 -1.629,-0.195 -2.158,0.421 -1.345,2.111 -2.645,4.253 -3.978,6.372 -1.139,-0.004 -2.276,0.002 -3.414,-0.004 1.773,-2.805 3.554,-5.602 5.325,-8.408 z"
   id="path48"
   inkscape:connector-curvature="0"
   style="fill:#ffffff;fill-opacity:1;stroke:none" />
	<path
   d="m 32.342,11.402 c 0.43,-0.554 1.292,-1.228 2.133,-1.143 2.385,-0.006 4.771,-0.006 7.156,0.003 0.002,0.692 0.005,1.382 -0.016,2.075 -1.777,0.054 -3.559,-0.025 -5.334,0.039 -0.652,0.247 -0.793,1.076 -1.212,1.577 2.227,0.014 4.453,-0.007 6.68,0.009 -0.441,0.601 -0.858,1.22 -1.277,1.835 -1.811,0.014 -3.622,-0.02 -5.43,0.018 0.009,0.584 0.012,1.169 0.014,1.757 2.193,0.004 4.386,-0.009 6.58,0.007 -0.005,0.678 -0.007,1.358 0.006,2.035 -3.314,0.018 -6.629,0.007 -9.943,0.007 -0.005,-1.903 -0.007,-3.806 -0.002,-5.711 -0.076,-0.936 0.188,-1.785 0.645,-2.508 z"
   id="path50"
   inkscape:connector-curvature="0"
   style="fill:#ffffff;fill-opacity:1;stroke:none" />
	<path
   d="m 43.122,11.125 c 0.287,-0.408 1.099,-0.902 1.674,-0.867 2.562,-0.01 5.124,0 7.683,-0.002 0.004,0.7 -0.007,1.398 -0.034,2.096 -1.665,0.011 -3.328,-0.016 -4.991,0.011 -1.139,-0.063 -1.598,1.194 -1.946,2.057 -0.045,1.399 -0.278,1.42 -0.085,3.147 1.88,0.119 2.321,0.07 4.657,0.035 0.12,-0.491 0.047,-1.006 0.072,-1.508 -0.806,-0.132 -0.632,-0.077 -2.196,-0.122 0.39,-0.665 0.764,-1.342 1.136,-2.019 1.333,0.006 2.667,-0.011 4,0.013 -0.005,1.551 0.008,3.102 0,4.653 0.01,0.325 -0.133,0.625 -0.231,0.93 -3.062,0.127 -6.129,0.026 -9.193,0.053 -0.802,0.132 -1.342,-0.727 -1.271,-1.441 0.022,-1.697 -0.039,-3.398 0.027,-5.092 -0.033,-0.793 0.299,-1.316 0.698,-1.944 z"
   id="path52"
   inkscape:connector-curvature="0"
   style="fill:#ffffff;fill-opacity:1;stroke:none" />
	<g
   id="g56"
   style="fill:#ffffff;fill-opacity:1;stroke:none">
		<path
   d="m 53.966,10.267 c 1.726,-0.023 3.454,-0.005 5.18,-0.014 0.925,-0.092 1.595,0.698 2.048,1.398 1.631,2.669 3.339,5.294 4.95,7.974 -1.176,-0.004 -2.353,0.001 -3.529,-0.004 -0.453,-0.596 -0.791,-1.322 -1.408,-1.762 -1.042,-0.041 -2.084,-0.002 -3.124,-0.011 -0.32,-0.491 -0.634,-0.984 -0.919,-1.495 0.029,1.084 0.018,2.169 0.018,3.253 -1.073,0 -2.145,0.011 -3.216,-0.009 -0.002,-3.11 -0.002,-6.221 0,-9.33 z m 3.282,2.014 c -0.019,1.17 0.004,2.34 -0.019,3.51 0.946,0.021 1.89,0.002 2.833,0.026 -0.607,-0.943 -1.109,-1.952 -1.726,-2.891 -0.251,-0.372 -0.672,-0.54 -1.088,-0.645 z"
   id="path54"
   inkscape:connector-curvature="0"
   style="fill:#ffffff;fill-opacity:1;stroke:none" />
	</g>
</g>

</svg>