<?xml version="1.0" encoding="UTF-8" standalone="no"?>
<svg
   xmlns:dc="http://purl.org/dc/elements/1.1/"
   xmlns:cc="http://creativecommons.org/ns#"
   xmlns:rdf="http://www.w3.org/1999/02/22-rdf-syntax-ns#"
   xmlns:svg="http://www.w3.org/2000/svg"
   xmlns="http://www.w3.org/2000/svg"
   xmlns:sodipodi="http://sodipodi.sourceforge.net/DTD/sodipodi-0.dtd"
   xmlns:inkscape="http://www.inkscape.org/namespaces/inkscape"
   sodipodi:docname="msx.svg"
   inkscape:version="1.0 (4035a4fb49, 2020-05-01)"
   version="1.1"
   id="svg2"
   height="163.63152"
   width="458.30569">
  <defs
     id="defs4">
    <inkscape:perspective
       id="perspective10"
       inkscape:persp3d-origin="372.04724 : 360.78739 : 1"
       inkscape:vp_z="744.09448 : 536.18109 : 1"
       inkscape:vp_y="0 : 1000 : 0"
       inkscape:vp_x="0 : 536.18109 : 1"
       sodipodi:type="inkscape:persp3d" />
    <inkscape:perspective
       sodipodi:type="inkscape:persp3d"
       inkscape:vp_x="0 : 10.5 : 1"
       inkscape:vp_y="0 : 1000 : 0"
       inkscape:vp_z="1 : 10.5 : 1"
       inkscape:persp3d-origin="0.5 : 10.333333 : 1"
       id="perspective2824" />
  </defs>
  <sodipodi:namedview
     lock-margins="true"
     inkscape:document-rotation="0"
     fit-margin-bottom="5"
     fit-margin-right="5"
     fit-margin-left="5"
     fit-margin-top="5"
     inkscape:pagecheckerboard="true"
     inkscape:window-maximized="1"
     inkscape:window-y="-8"
     inkscape:window-x="-8"
     inkscape:window-height="1017"
     inkscape:window-width="1920"
     showgrid="false"
     inkscape:current-layer="layer1"
     inkscape:document-units="px"
     inkscape:cy="117.94999"
     inkscape:cx="19.379118"
     inkscape:zoom="2"
     inkscape:pageshadow="2"
     inkscape:pageopacity="0.0"
     borderopacity="1.0"
     bordercolor="#666666"
     pagecolor="#ffffff"
     id="base" />
  <metadata
     id="metadata7">
    <rdf:RDF>
      <cc:Work
         rdf:about="">
        <dc:format>image/svg+xml</dc:format>
        <dc:type
           rdf:resource="http://purl.org/dc/dcmitype/StillImage" />
        <dc:title></dc:title>
      </cc:Work>
    </rdf:RDF>
  </metadata>
  <g
     transform="translate(-28.587572,-864.22152)"
     id="layer1"
     inkscape:groupmode="layer"
     inkscape:label="Ebene 1">
    <path
       inkscape:connector-curvature="0"
       sodipodi:nodetypes="cccccccccccccccccccccccccccccccccccc"
       transform="translate(0,840.36218)"
       id="path2830"
       d="M 33.587572,181.94796 72.478445,28.859344 h 36.062445 l 18.73833,66.82159 19.44544,-66.82159 h 33.94112 l 31.81981,112.783536 77.6353,-0.14645 c 8.14964,-0.0794 8.64953,-16.93207 -0.60356,-16.92767 l -45.21194,-0.60355 C 224.89048,124.15304 204.41758,103.14886 205.41452,75.174838 205.62167,49.515734 227.99624,29.30949 256.6191,29.31645 l 115.31907,-0.103553 29.34493,39.951533 28.63782,-40.305086 47.72971,0.353553 -52.3259,73.539103 56.56854,79.73886 -47.47971,-0.14645 -32.92335,-45.75484 -31.31981,45.75484 -48.43681,-0.0429 55.15432,-78.84241 -24.04163,-35.001787 -100.24495,0.146447 c -10.94025,0.100271 -10.5391,17.311276 0.0858,16.98833 l 42.23707,0.646446 c 17.85089,0.115598 42.99112,18.665604 42.36574,47.626154 0.27297,33.66878 -30.05167,49.04998 -44.65128,48.22971 L 182.08,182.24086 163.69522,113.3586 145.31044,182.09441 h -34.89823 l -19.195435,-68.38225 -16.86701,68.4858 z"
       style="fill:#ffffff;fill-opacity:1;stroke:none;stroke-width:0;stroke-linecap:butt;stroke-linejoin:miter;stroke-miterlimit:4;stroke-dasharray:none;stroke-opacity:1" />
  </g>
</svg>
