<?xml version="1.0" encoding="UTF-8" standalone="no"?>
<svg
   xmlns:dc="http://purl.org/dc/elements/1.1/"
   xmlns:cc="http://creativecommons.org/ns#"
   xmlns:rdf="http://www.w3.org/1999/02/22-rdf-syntax-ns#"
   xmlns:svg="http://www.w3.org/2000/svg"
   xmlns="http://www.w3.org/2000/svg"
   xmlns:sodipodi="http://sodipodi.sourceforge.net/DTD/sodipodi-0.dtd"
   xmlns:inkscape="http://www.inkscape.org/namespaces/inkscape"
   xml:space="preserve"
   enable-background="new 0 0 559.5 153.6"
   viewBox="0 0 566.01483 163.69999"
   height="163.7"
   width="566.01483"
   y="0px"
   x="0px"
   sodipodi:docname="msx2.svg"
   inkscape:version="1.0 (4035a4fb49, 2020-05-01)"
   id="svg2"
   version="1.1"><metadata
   id="metadata12"><rdf:RDF><cc:Work
       rdf:about=""><dc:format>image/svg+xml</dc:format><dc:type
         rdf:resource="http://purl.org/dc/dcmitype/StillImage" /><dc:title></dc:title></cc:Work></rdf:RDF></metadata>
<defs
   id="defs4">
	
	
		<inkscape:perspective
   sodipodi:type="inkscape:persp3d"
   inkscape:vp_z="744.09448 : 536.28108 : 1"
   inkscape:vp_y="0 : 1000 : 0"
   inkscape:vp_x="0 : 536.28108 : 1"
   inkscape:persp3d-origin="372.04724 : 360.88738 : 1"
   id="perspective10">
		</inkscape:perspective>
	
		<inkscape:perspective
   sodipodi:type="inkscape:persp3d"
   inkscape:vp_z="1 : 10.59999 : 1"
   inkscape:vp_y="0 : 1000 : 0"
   inkscape:vp_x="0 : 10.59999 : 1"
   inkscape:persp3d-origin="0.5 : 10.433324 : 1"
   id="perspective2824">
		</inkscape:perspective>
</defs>
<sodipodi:namedview
   lock-margins="true"
   inkscape:document-rotation="0"
   showgrid="false"
   pagecolor="#ffffff"
   inkscape:zoom="2"
   inkscape:window-y="-8"
   inkscape:window-x="-8"
   inkscape:window-width="1920"
   inkscape:window-maximized="1"
   inkscape:window-height="1017"
   inkscape:pageshadow="2"
   inkscape:pageopacity="0.0"
   inkscape:pagecheckerboard="true"
   inkscape:document-units="px"
   inkscape:cy="117.97151"
   inkscape:cx="19.36669"
   inkscape:current-layer="layer1"
   id="base"
   fit-margin-top="5"
   fit-margin-right="5"
   fit-margin-left="5"
   fit-margin-bottom="5"
   borderopacity="1.0"
   bordercolor="#666666">
	</sodipodi:namedview>
<g
   inkscape:label="Ebene 1"
   inkscape:groupmode="layer"
   transform="translate(-28.6,-864.2)"
   id="layer1">
	
		<path
   d="M 33.6,1022.3 72.5,869.2 h 36.1 l 18.7,66.8 19.4,-66.8 h 33.9 l 31.9,112.8 77.6,-0.1 c 8.1,-0.1 8.6,-16.9 -0.6,-16.9 l -45.2,-0.6 c -19.4,0.2 -39.9,-20.8 -38.9,-48.8 0.2,-25.7 22.6,-45.9 51.2,-45.9 l 115.3,-0.1 29.3,40 28.6,-40.3 47.7,0.4 -52.3,73.5 56.6,79.7 -47.5,-0.1 -32.8,-45.8 -31.3,45.8 H 321.8 L 377,944 353,909 H 252.6 c -10.9,0.1 -10.5,17.3 0.1,17 l 42.2,0.6 c 17.9,0.1 43,18.7 42.4,47.6 0.3,33.7 -30.1,49 -44.7,48.2 l -110.6,0.1 -18.4,-68.9 -18.4,68.7 h -34.9 l -19.2,-68.4 -16.9,68.5 z"
   fill="#ffffff"
   sodipodi:nodetypes="cccccccccccccccccccccccccccccccccccc"
   inkscape:connector-curvature="0"
   id="path2830" />
</g>
<path
   id="path9"
   d="m 505.78757,121.22152 c 17.2,0 34.3,0 51.6,0 0,12.4 0,24.8 0,37.3 -0.5,0 -1,0.1 -1.5,0.1 -31.4,0 -62.8,0 -94.2,0 -1.3,0 -1.8,-0.3 -1.8,-1.7 -0.5,-14.2 1.6,-28 7.7,-40.9 5.3,-11.3 12.1,-21.3 22.2,-28.9 8,-6 15.7,-12.5 23.4,-18.9 4.1,-3.5 5.7,-8.5 6.6,-13.6 0.7,-3.7 0.7,-7.3 -0.7,-10.8 -1.2,-3 -3.3,-5 -6.6,-5.7 -8.5,-1.7 -14.1,2.8 -14.8,11.9 -0.2,3 -0.3,6 -0.5,9.1 -12.5,0 -24.9,0 -37.7,0 0,-2.7 0,-5.4 0,-8.1 0.1,-13.2 4.2,-24.6 14.3,-33.5 7.7,-6.8 17,-10.4 27,-11.7 13.7,-1.8 26.8,0.4 38.7,7.4 15.3,9 22.6,22.6 21.4,40.4 -0.4,6.8 -2.1,13.4 -4.7,19.6 -2.5,5.8 -6.5,10.6 -11.3,14.5 -6.7,5.3 -13.7,10.2 -20.7,15.2 -6.6,4.7 -12.9,9.8 -17.6,16.6 -0.3,0.4 -0.5,0.7 -0.7,1.1 -0.1,0.1 0,0.2 -0.1,0.6 z"
   fill="#ffffff" />
</svg>
