<?xml version="1.0" encoding="UTF-8" standalone="no"?>
<svg
   xmlns:dc="http://purl.org/dc/elements/1.1/"
   xmlns:cc="http://creativecommons.org/ns#"
   xmlns:rdf="http://www.w3.org/1999/02/22-rdf-syntax-ns#"
   xmlns:svg="http://www.w3.org/2000/svg"
   xmlns="http://www.w3.org/2000/svg"
   xmlns:sodipodi="http://sodipodi.sourceforge.net/DTD/sodipodi-0.dtd"
   xmlns:inkscape="http://www.inkscape.org/namespaces/inkscape"
   inkscape:version="1.0 (4035a4fb49, 2020-05-01)"
   sodipodi:docname="n64.svg"
   xml:space="preserve"
   enable-background="new 0 0 538.7 211.1"
   viewBox="0 0 530.99999 104.5"
   height="104.5"
   width="531"
   y="0px"
   x="0px"
   id="Capa_1"
   version="1.0"><metadata
     id="metadata146"><rdf:RDF><cc:Work
         rdf:about=""><dc:format>image/svg+xml</dc:format><dc:type
           rdf:resource="http://purl.org/dc/dcmitype/StillImage" /><dc:title></dc:title></cc:Work></rdf:RDF></metadata><defs
     id="defs144" /><sodipodi:namedview
     lock-margins="true"
     inkscape:pagecheckerboard="true"
     inkscape:document-rotation="0"
     inkscape:current-layer="Capa_1"
     inkscape:window-maximized="0"
     inkscape:window-y="0"
     inkscape:window-x="0"
     inkscape:cy="52.249997"
     inkscape:cx="265.45001"
     inkscape:zoom="0.50677556"
     fit-margin-bottom="5"
     fit-margin-right="5"
     fit-margin-left="5"
     fit-margin-top="5"
     showgrid="false"
     id="namedview142"
     inkscape:window-height="480"
     inkscape:window-width="712"
     inkscape:pageshadow="2"
     inkscape:pageopacity="0"
     guidetolerance="10"
     gridtolerance="10"
     objecttolerance="10"
     borderopacity="1"
     bordercolor="#666666"
     pagecolor="#ffffff" /><g
     transform="translate(-3.9,-53.3)"
     id="g139"><g
       id="layer3"><polygon
         style="fill:#ffffff"
         points="43,63.4 35.7,76.5 42,89.2 45.2,88 56.3,68.5 "
         id="polygon3538" /><polygon
         style="fill:#ffffff"
         points="70.4,89.2 66.7,87.8 76.7,76.5 90.1,81.6 90.1,117.4 "
         id="polygon3540" /><polygon
         style="fill:#ffffff"
         points="22.3,108.4 42,146.9 56.3,152.8 56.3,94.6 42,89.2 42,118.8 22.3,81.6 8.9,76.5 8.9,132.9 22.3,138.5 "
         id="polygon3552" /></g><g
       id="layer4"><polygon
         style="fill:#ffffff"
         points="90.1,138.5 70.4,112.7 70.4,126.8 74.5,132.4 "
         id="polygon3556" /></g><g
       id="layer5"><polygon
         style="fill:#ffffff"
         points="70.4,89.2 56.3,94.6 42,89.2 56.3,83.8 "
         id="polygon3544" /><polygon
         style="fill:#ffffff"
         points="76.7,76.5 90.1,71.2 103.6,76.5 90.1,81.6 "
         id="polygon3546" /><polygon
         style="fill:#ffffff"
         points="8.9,76.5 22.3,71.2 35.7,76.5 22.3,81.6 "
         id="polygon3548" /><polygon
         style="fill:#ffffff"
         points="69.4,63.4 56.3,58.3 43,63.4 56.3,68.5 "
         id="polygon3550" /></g><g
       id="g137"><g
         id="g3516"><polygon
           style="fill:#ffffff"
           points="156.8,114.4 156.8,114.4 148,89.2 128.4,89.2 128.4,132.9 141.7,132.9 141.7,107.7 141.8,107.7 150.5,132.9 170.2,132.9 170.2,89.2 156.8,89.2 "
           id="polygon3518" /><polygon
           style="fill:#ffffff"
           points="230.9,114.4 230.9,114.4 222.1,89.2 202.5,89.2 202.5,132.9 215.8,132.9 215.8,107.7 215.8,107.7 224.6,132.9 244.2,132.9 244.2,89.2 230.9,89.2 "
           id="polygon3520" /><polygon
           style="fill:#ffffff"
           points="358.6,114.4 358.5,114.4 349.8,89.2 330.1,89.2 330.1,132.9 343.3,132.9 343.3,107.7 343.5,107.7 352.2,132.9 371.9,132.9 371.9,89.2 358.6,89.2 "
           id="polygon3522" /><polygon
           style="fill:#ffffff"
           points="178.2,89.2 194.6,89.2 194.6,132.9 178.2,132.9 "
           id="polygon3524" /><polygon
           style="fill:#ffffff"
           points="286.2,101.1 275.8,101.1 275.8,132.9 259.5,132.9 259.5,101.1 249,101.1 249,89.2 286.2,89.2 "
           id="polygon3526" /><polygon
           style="fill:#ffffff"
           points="307.3,105.4 322.3,105.4 322.3,116.6 307.3,116.6 307.3,121.5 324,121.5 324,132.9 291.1,132.9 291.1,89.2 323.4,89.2 323.4,100.8 307.3,100.8 "
           id="polygon3536" /></g><g
         id="layer6"><path
           style="fill:#ffffff"
           inkscape:connector-curvature="0"
           d="m 378.9,89.2 h 19.4 c 16.5,0 21.8,9.4 21.8,22.3 0,13.3 -8.2,21.4 -20.9,21.4 H 378.7 V 89.2 Z M 395,123 h 1.5 c 2.7,0 4.4,-0.9 5.4,-2.6 1,-1.9 1.2,-5.1 1.2,-9.4 0,-4.3 -0.2,-7.5 -1.2,-9.4 -1,-1.7 -2.7,-2.6 -5.4,-2.6 H 395 Z"
           id="path3528" /><path
           style="fill:#ffffff"
           inkscape:connector-curvature="0"
           d="m 445.9,88.2 c 14.3,0 21.4,9.4 21.4,23 0,13.6 -7.1,23 -21.4,23 -14.3,0 -21.4,-9.4 -21.4,-23 0,-13.6 7.1,-23 21.4,-23 z m 0,34.8 c 2.6,0 4.4,-1.2 4.4,-11.9 0,-10.4 -1.7,-11.9 -4.4,-11.9 -2.6,0 -4.4,1.5 -4.4,11.9 0,10.8 1.8,11.9 4.4,11.9 z"
           id="path3530" /><polygon
           style="fill:#ffffff"
           points="156.8,114.4 156.8,114.4 148,89.2 128.4,89.2 128.4,132.9 141.7,132.9 141.7,107.7 141.8,107.7 150.5,132.9 170.2,132.9 170.2,89.2 156.8,89.2 "
           id="polygon3566" /><polygon
           style="fill:#ffffff"
           points="230.9,114.4 230.9,114.4 222.1,89.2 202.5,89.2 202.5,132.9 215.8,132.9 215.8,107.7 215.8,107.7 224.6,132.9 244.2,132.9 244.2,89.2 230.9,89.2 "
           id="polygon3568" /><polygon
           style="fill:#ffffff"
           points="358.6,114.4 358.5,114.4 349.8,89.2 330.1,89.2 330.1,132.9 343.3,132.9 343.3,107.7 343.5,107.7 352.2,132.9 371.9,132.9 371.9,89.2 358.6,89.2 "
           id="polygon3570" /><polygon
           style="fill:#ffffff"
           points="178.2,89.2 194.6,89.2 194.6,132.9 178.2,132.9 "
           id="polygon3572" /><polygon
           style="fill:#ffffff"
           points="286.2,101.1 275.8,101.1 275.8,132.9 259.5,132.9 259.5,101.1 249,101.1 249,89.2 286.2,89.2 "
           id="polygon3574" /><polygon
           style="fill:#ffffff"
           points="307.3,105.4 322.3,105.4 322.3,116.6 307.3,116.6 307.3,121.5 324,121.5 324,132.9 291.1,132.9 291.1,89.2 323.4,89.2 323.4,100.8 307.3,100.8 "
           id="polygon3576" /></g><g
         id="layer7"><path
           style="fill:#ffffff"
           inkscape:connector-curvature="0"
           d="m 496.6,83.4 c -0.9,0 -1.7,0 -2.9,0 -7,0.3 -9.7,3.2 -10.7,6.6 h 0.2 c 1.7,-1.5 3.9,-2.2 6.6,-2.2 5.4,0 10.5,3.9 10.5,11.4 0,7.1 -5.4,12.8 -12.9,12.8 -9.7,0 -13.9,-7.5 -13.9,-15.5 0,-6.5 2.4,-11.9 6.1,-15.5 3.6,-3.4 8.2,-4.9 13.9,-5.1 1.5,-0.2 2.4,0 3.1,0 z m -9.2,21.6 c 2.2,0 3.6,-2.2 3.6,-5.3 0,-2.6 -1.2,-5.1 -4.1,-5.1 -1.9,0 -3.2,1.2 -3.7,2.6 -0.2,0.5 -0.3,1 -0.3,2 0.1,2.9 1.4,5.8 4.5,5.8 z"
           id="path3532" /><path
           style="fill:#ffffff"
           inkscape:connector-curvature="0"
           d="m 517.5,111.5 v -7.8 h -14.6 v -6.3 l 11.7,-20.9 h 11.6 v 19.9 h 3.7 v 7.1 h -3.7 v 7.8 h -8.7 z m 0,-15 v -6 c 0,-2.2 0.2,-4.6 0.2,-7 h -0.2 c -1,2.4 -2,4.6 -3.2,7 l -2.9,5.8 v 0.2 z"
           id="path3534" /></g></g></g></svg>
