<?xml version="1.0" encoding="UTF-8" standalone="no"?>
<!-- Generator: Adobe Illustrator 21.1.0, SVG Export Plug-In . SVG Version: 6.00 Build 0)  -->

<svg
   xmlns:dc="http://purl.org/dc/elements/1.1/"
   xmlns:cc="http://creativecommons.org/ns#"
   xmlns:rdf="http://www.w3.org/1999/02/22-rdf-syntax-ns#"
   xmlns:svg="http://www.w3.org/2000/svg"
   xmlns="http://www.w3.org/2000/svg"
   xmlns:sodipodi="http://sodipodi.sourceforge.net/DTD/sodipodi-0.dtd"
   xmlns:inkscape="http://www.inkscape.org/namespaces/inkscape"
   version="1.0"
   id="Layer_1"
   inkscape:output_extension="org.inkscape.output.svg.inkscape"
   inkscape:version="0.92.2 (unknown)"
   sodipodi:docname="neogeo.svg"
   sodipodi:version="0.32"
   x="0px"
   y="0px"
   width="567.14423"
   height="96.859116"
   viewBox="0 0 567.1442 96.859114"
   enable-background="new 0 0 567.4 96.9"
   xml:space="preserve"><metadata
     id="metadata171"><rdf:RDF><cc:Work
         rdf:about=""><dc:format>image/svg+xml</dc:format><dc:type
           rdf:resource="http://purl.org/dc/dcmitype/StillImage" /><dc:title></dc:title></cc:Work></rdf:RDF></metadata><defs
     id="defs149"><inkscape:perspective
       id="perspective2709"
       inkscape:persp3d-origin="580 : 113.33333 : 1"
       inkscape:vp_x="0 : 170 : 1"
       inkscape:vp_y="0 : 1000 : 0"
       inkscape:vp_z="1160 : 170 : 1"
       sodipodi:type="inkscape:persp3d" /></defs><sodipodi:namedview
     bordercolor="#666666"
     borderopacity="1.0"
     gridtolerance="10.0"
     guidetolerance="10.0"
     id="namedview2703"
     inkscape:current-layer="Layer_1"
     inkscape:cx="365.12037"
     inkscape:cy="172.81571"
     inkscape:pageopacity="0.0"
     inkscape:pageshadow="2"
     inkscape:window-height="725"
     inkscape:window-width="1280"
     inkscape:window-x="10"
     inkscape:window-y="25"
     inkscape:zoom="0.95344828"
     objecttolerance="10.0"
     pagecolor="#ffffff"
     showgrid="false"
     fit-margin-top="0"
     fit-margin-left="0"
     fit-margin-right="0"
     fit-margin-bottom="0"
     inkscape:window-maximized="0" /><g
     transform="matrix(0.93403196,0,0,0.93403196,69.305171,27.647346)"
     id="g168"><g
       transform="translate(1.5605469e-5)"
       id="g158"><path
         d="m 304.7,32.7 h 2.4 c 2.2,0 6.1,0.5 7.7,1.4 1.6,0.9 2.6,2 3.1,3.1 0.5,1.1 0.8,3.7 0.8,7.6 V 60 c 0,4.6 -4.9,7 -7.2,7.5 -2.4,0.5 -4.6,0.8 -6.9,0.8 -6.4,0 -12,-1.7 -16.7,-5 -4.7,-3.4 -8.1,-8.6 -10.2,-15.7 -2.1,-7.1 -3.1,-15.4 -3.1,-24.9 0,-7.8 1,-15.4 2.9,-22.9 1.9,-7.4 5.2,-13.2 9.8,-17.4 4.6,-4.1 10.4,-6.2 17.3,-6.2 7.3,0 11.5,1.8 16.9,7.4 5.5,5.7 10.7,12.1 13.8,21.6 h 4.5 v -34.8 h -2.5 c -0.9,2.8 -1.9,4.7 -3,5.7 -1.1,1 -2.3,1.5 -3.6,1.5 -0.8,0 -3.5,-0.9 -8,-2.7 -4.5,-1.8 -7.8,-2.9 -9.8,-3.3 -3.7,-0.8 -6.6,-1.2 -11.2,-1.2 -14.9,0 -27.3,5.1 -37.1,15.4 -9.9,10.2 -14.8,22.7 -14.8,37.6 0,8.3 1.6,15.8 4.8,22.5 2.5,5.2 6,9.9 10.5,14 4.5,4.1 9.6,7.5 15.4,10 5.8,2.5 13.2,3.8 22,3.8 6.9,0 13.6,-0.7 20,-2.1 6.4,-1.4 12.6,-3.5 18.6,-6.4 V 44.7 c 0,-3.6 0.2,-5.9 0.6,-6.8 0.7,-1.8 1.8,-3 3.1,-3.8 1.3,-0.8 5,-1.2 8.4,-1.5 v -3.4 h -48.5 z"
         id="path152"
         inkscape:connector-curvature="0"
         style="fill:#ffffff" /><path
         d="m 416.1,59.3 c -5.5,4.2 -12.9,6.3 -22.1,6.3 h -5.2 c -2.8,0 -4.8,-0.4 -6.1,-1.2 -1.2,-0.8 -2.1,-1.8 -2.6,-3 -0.5,-1.2 -0.7,-4.5 -0.7,-9.9 V 24.1 c 4.7,0 10.2,0.6 12.7,1.8 2.5,1.2 4.6,3.6 6.5,7.2 1.9,3.6 3.1,7.5 3.7,13.1 h 4 V -4.5 h -4 c -0.8,7.6 -2.6,12.7 -5.4,16.6 -2.8,3.9 -7.4,5.9 -13.6,5.9 h -3.9 v -34 c 0,-5.9 5.2,-5.2 5.2,-5.2 h 6.2 c 7.4,0 12.5,0.4 15.2,1.3 4.6,1.4 8.2,3.7 10.8,6.8 2.5,3.1 4.5,8.2 5.9,15.2 h 3.3 v -29 h -82.9 v 4 h 2.6 c 3.2,0 5.7,0.7 7.5,2 1.3,0.9 2.2,2.2 2.7,3.9 0.2,1 0.4,3.7 0.4,8.2 v 61.3 c 0,4.9 -0.3,7.9 -0.8,9.1 -0.7,1.6 -1.6,2.8 -2.9,3.5 -1.7,1 -4,1.5 -6.9,1.5 h -2.6 v 4.6 h 84.3 L 432.5,40 h -4.6 c -2.3,8.6 -6.3,15.1 -11.8,19.3"
         id="path154"
         inkscape:connector-curvature="0"
         style="fill:#ffffff" /><path
         d="m 481.4,-28.4 c -14.1,-0.6 -26,4 -35.7,13.8 -9.7,9.8 -14.5,22 -14.5,36.7 0,13.1 3.7,24.4 11.2,33.9 9.4,12.1 22.7,18.1 40,18.1 17.2,0 30.5,-6.3 39.9,-19 C 529.4,45.6 533,34.5 533,22 533,7.3 528.2,-4.9 518.7,-14.7 509,-24.4 496.6,-29 481.4,-28.4 M 503.9,50 c -2.3,6.8 -5.5,11.8 -9.7,14.9 -3.2,2.4 -7.3,3.6 -12.2,3.6 -7.2,0 -12.8,-2.8 -16.8,-8.5 -5.7,-8.1 -8.6,-20.5 -8.6,-37.4 0,-14.2 1.9,-25.1 5.6,-32.7 4.6,-9.2 11.2,-13.8 20,-13.8 4.8,0 9,1.3 12.6,4 3.6,2.7 6.7,7.3 9,13.7 2.4,6.5 3.5,16.3 3.5,29.3 0.1,11.2 -1.1,20.1 -3.4,26.9"
         id="path156"
         inkscape:connector-curvature="0"
         style="fill:#ffffff" /></g><path
       d="m 168.4,73.5 c 17.2,0 30.5,-6.3 39.9,-19 7.1,-9.5 10.7,-20.6 10.7,-33.1 0,-14.7 -4.8,-26.9 -14.3,-36.7 -9.6,-9.7 -22,-14.3 -37.2,-13.7 -14.1,-0.6 -26,4 -35.7,13.8 -9.7,9.8 -14.5,22 -14.5,36.7 0,13.1 3.7,24.4 11.2,33.9 9.3,12.1 22.7,18.1 39.9,18.1 m -20.2,-83.9 c 4.6,-9.2 11.2,-13.8 20,-13.8 4.8,0 9,1.3 12.6,4 3.6,2.7 6.7,7.3 9,13.7 2.4,6.5 3.5,16.3 3.5,29.3 0,11 -1.2,19.9 -3.5,26.7 -2.3,6.8 -5.5,11.8 -9.7,14.9 -3.2,2.4 -7.3,3.6 -12.2,3.6 -7.2,0 -12.8,-2.8 -16.8,-8.5 -5.7,-8.1 -8.6,-20.5 -8.6,-37.4 0.1,-14.1 1.9,-25 5.7,-32.5"
       id="path160"
       inkscape:connector-curvature="0"
       style="fill:#ffffff" /><path
       d="M 118.6,39.2 H 114 c -2.4,8.7 -6.4,15.1 -11.9,19.4 -5.5,4.2 -12.9,6.3 -22,6.3 h -5.2 c -2.8,0 -4.8,-0.4 -6.1,-1.1 C 67.5,63 66.7,62 66.2,60.8 65.7,59.6 65.5,56.3 65.5,50.9 V 23.3 c 4.7,0 10.2,0.6 12.7,1.8 2.5,1.2 4.6,3.6 6.5,7.2 1.9,3.6 3.1,7.5 3.7,13.1 h 4 V -5.3 h -4 C 87.6,2.3 85.8,7.4 83,11.3 c -2.8,3.9 -7.4,5.9 -13.6,5.9 h -3.9 v -34 c 0,-5.9 5.2,-5.2 5.2,-5.2 h 6.2 c 7.5,0 12.5,0.4 15.2,1.3 4.6,1.4 8.2,3.7 10.8,6.8 2.5,3.1 4.5,8.2 5.9,15.2 h 3.3 v -29 H 29.2 v 4 h 2.6 c 3.2,0 5.7,0.7 7.5,2 1.3,0.9 2.2,2.2 2.7,3.9 0.2,1 0.4,3.7 0.4,8.2 v 61.3 c 0,4.9 -0.3,7.9 -0.8,9.1 -0.7,1.6 -1.6,2.8 -2.9,3.5 -1.7,1 -4,1.5 -6.9,1.5 h -2.6 v 4.6 h 84.3 z"
       id="path162"
       inkscape:connector-curvature="0"
       style="fill:#ffffff" /><path
       d="m -40.5,65.7 h -2.2 c -3.2,0 -6.1,-1 -8.6,-3 -2.5,-2 -3.7,-5.8 -3.7,-11.4 V -7.9 l 64.1,80 h 4.2 V -9.5 c 0,-4.6 0.4,-6 1.2,-7.9 0.8,-1.9 1.8,-3.3 3.2,-4.1 1.4,-0.8 4,-1.5 8,-2.1 v -4.1 H -6.1 v 4.1 c 5.2,-0.1 9,1.3 11.2,4.1 1.6,2.1 2.4,4.1 2.4,10 v 42.7 l -49.9,-60.9 h -30.4 v 3.3 c 2.9,0.1 3,1.1 4.5,1.9 l 8.1,8.2 v 65.7 c 0,5.2 -1,8.9 -3.1,11 -2,2.2 -5.7,3.3 -10.9,3.3 v 4 h 33.6 z"
       id="path164"
       inkscape:connector-curvature="0"
       style="fill:#ffffff" /><path
       d="m 246.3,22.2 c 0,6.5 -5.3,11.8 -11.8,11.8 -6.5,0 -11.8,-5.3 -11.8,-11.8 0,-6.5 5.3,-11.8 11.8,-11.8 6.6,0 11.8,5.3 11.8,11.8 z"
       id="path166"
       inkscape:connector-curvature="0"
       style="fill:#ffffff" /></g></svg>