<?xml version="1.0" encoding="utf-8"?>
<!-- Generator: Adobe Illustrator 21.1.0, SVG Export Plug-In . SVG Version: 6.00 Build 0)  -->
<svg version="1.0"
	 id="Layer_1" inkscape:output_extension="org.inkscape.output.svg.inkscape" inkscape:version="0.91 r13725" sodipodi:docname="scummvm.svg" sodipodi:version="0.32" xmlns:cc="http://creativecommons.org/ns#" xmlns:dc="http://purl.org/dc/elements/1.1/" xmlns:inkscape="http://www.inkscape.org/namespaces/inkscape" xmlns:rdf="http://www.w3.org/1999/02/22-rdf-syntax-ns#" xmlns:sodipodi="http://sodipodi.sourceforge.net/DTD/sodipodi-0.dtd" xmlns:svg="http://www.w3.org/2000/svg"
	 xmlns="http://www.w3.org/2000/svg" xmlns:xlink="http://www.w3.org/1999/xlink" x="0px" y="0px" width="567.4px" height="74.1px"
	 viewBox="0 0 567.4 74.1" enable-background="new 0 0 567.4 74.1" xml:space="preserve">
<defs>
	
	
		<inkscape:perspective  id="perspective2709" inkscape:persp3d-origin="580 : 113.33333 : 1" inkscape:vp_x="0 : 170 : 1" inkscape:vp_y="0 : 1000 : 0" inkscape:vp_z="1160 : 170 : 1" sodipodi:type="inkscape:persp3d">
		</inkscape:perspective>
</defs>
<sodipodi:namedview  bordercolor="#666666" borderopacity="1.0" gridtolerance="10.0" guidetolerance="10.0" id="namedview2703" inkscape:current-layer="Layer_1" inkscape:cx="365.12646" inkscape:cy="172.86342" inkscape:pageopacity="0.0" inkscape:pageshadow="2" inkscape:window-height="725" inkscape:window-width="1280" inkscape:window-x="0" inkscape:window-y="25" inkscape:zoom="0.95344828" objecttolerance="10.0" pagecolor="#ffffff" showgrid="false">
	</sodipodi:namedview>
<path fill="#FFFFFF" d="M216.8,27.3c-2.7,0-4.9,0.9-6.8,2.8c-1.9,1.9-2.8,4.1-2.8,6.8c0,2.6,0.9,4.9,2.8,6.7
	c1.9,1.9,4.1,2.8,6.8,2.8c2.6,0,4.9-0.9,6.7-2.8c1.9-1.9,2.8-4.1,2.8-6.7c0-2.7-0.9-4.9-2.8-6.8C221.7,28.3,219.4,27.3,216.8,27.3z
	 M399,4c-9.9-0.4-18.2,2.7-24.9,9.3c-6.8,6.6-10.1,14.9-10.1,24.8c0,8.8,2.6,16.5,7.8,22.9c6.6,8.1,15.9,12.2,27.9,12.2
	c12,0,21.3-4.3,27.8-12.8c5-6.4,7.4-13.9,7.4-22.4c0-9.9-3.3-18.2-10-24.8C418.2,6.7,409.6,3.6,399,4z M414.7,57
	c-1.6,4.6-3.9,8-6.7,10.1c-2.3,1.6-5.1,2.5-8.5,2.5c-5,0-8.9-1.9-11.7-5.7c-4-5.4-6-13.9-6-25.2c0-9.6,1.3-16.9,3.9-22.1
	c3.2-6.2,7.8-9.4,13.9-9.4c3.3,0,6.2,0.9,8.8,2.7c2.5,1.8,4.6,4.9,6.3,9.3c1.6,4.4,2.5,11,2.5,19.8C417.1,46.4,416.3,52.4,414.7,57z
	 M303.1,43.7h-32.5v1.7h1.7c1.6,0,3,0.3,4.1,0.9c1.1,0.6,1.9,1.3,2.2,2.1c0.4,0.8,0.5,2.5,0.5,5.1v13.9c-1.8,0.7-3.5,1.2-5.2,1.5
	c-1.7,0.3-3.3,0.5-4.9,0.5c-4.6,0-8.6-1.1-12-3.4c-3.4-2.3-5.8-5.8-7.3-10.6c-1.5-4.8-2.3-10.4-2.3-16.8c0-5.3,0.7-10.4,2.1-15.5
	c1.4-5,3.7-8.9,7.1-11.7c3.3-2.8,7.5-4.2,12.5-4.2c5.2,0,10,1.7,14.4,5c4.4,3.4,7.7,8.2,9.9,14.7h1.7V3.4h-1.7
	c-0.7,1.9-1.4,3.2-2.2,3.9c-0.8,0.7-1.6,1-2.6,1c-0.6,0-2.5-0.6-5.7-1.9c-3.2-1.2-5.6-2-7-2.2c-2.7-0.5-5.7-0.8-9-0.8
	c-10.7,0-19.6,3.5-26.7,10.4c-7.1,6.9-10.6,15.4-10.6,25.4c0,5.6,1.1,10.7,3.4,15.2c1.8,3.5,4.3,6.7,7.5,9.5
	c3.2,2.8,6.9,5.1,11.1,6.8c4.2,1.7,9.5,2.6,15.8,2.6c5,0,9.7-0.5,14.4-1.4c4.6-1,9.1-2.4,13.3-4.3V53.7c0-2.5,0.1-4,0.4-4.6
	c0.5-1.2,1.3-2,2.2-2.6c1-0.5,2.7-0.9,5.1-1V43.7z M167.6,4c-9.9-0.4-18.2,2.7-24.9,9.3c-6.8,6.6-10.1,14.9-10.1,24.8
	c0,8.8,2.6,16.5,7.8,22.9c6.6,8.1,15.9,12.2,27.9,12.2c12,0,21.3-4.3,27.8-12.8c5-6.4,7.4-13.9,7.4-22.4c0-9.9-3.3-18.2-10-24.8
	C186.9,6.7,178.2,3.6,167.6,4z M183.3,57c-1.6,4.6-3.9,8-6.7,10.1c-2.3,1.6-5.1,2.5-8.5,2.5c-5,0-8.9-1.9-11.7-5.7
	c-4-5.4-6-13.9-6-25.2c0-9.6,1.3-16.9,3.9-22.1c3.2-6.2,7.8-9.4,13.9-9.4c3.3,0,6.2,0.9,8.8,2.7c2.5,1.8,4.6,4.9,6.3,9.3
	c1.6,4.4,2.5,11,2.5,19.8C185.7,46.4,184.9,52.4,183.3,57z M351.3,63.8c-3.8,2.9-8.8,4.3-15,4.3h-4c-1.9,0-3.3-0.3-4.1-0.8
	c-0.9-0.5-1.4-1.2-1.7-2c-0.3-0.8-0.5-3.1-0.5-6.8V39.7c3.2,0,5.6,0.4,7.3,1.3c1.7,0.8,3.1,2.5,4.4,4.9c1.3,2.4,2.1,5.6,2.5,9.4h1.9
	v-35h-1.9c-0.5,5.2-1.7,9.1-3.6,11.8c-1.9,2.7-5,4-9.2,4h-1.3V8.8h6.9c5.1,0,8.5,0.3,10.3,0.9c3.2,1,5.6,2.5,7.3,4.6
	c1.7,2.1,3.1,5.6,4,10.4h1.9V4.9h-55.9v1.7h2.2c2.2,0,3.9,0.5,5.1,1.4c0.9,0.6,1.5,1.5,1.8,2.7c0.2,0.7,0.2,2.6,0.2,5.6v44
	c0,3.4-0.2,5.5-0.5,6.3c-0.5,1.1-1.1,1.9-2,2.4c-1.2,0.7-2.7,1-4.7,1h-2.2v1.7h57.7l3-21.2h-1.8C357.7,56.5,355,60.9,351.3,63.8z
	 M119.9,63.8c-3.8,2.9-8.8,4.3-15,4.3h-4c-1.9,0-3.3-0.3-4.1-0.8c-0.9-0.5-1.4-1.2-1.7-2c-0.3-0.8-0.5-3.1-0.5-6.8V39.7
	c3.2,0,5.6,0.4,7.3,1.3c1.7,0.8,3.1,2.5,4.4,4.9c1.3,2.4,2.1,5.6,2.5,9.4h1.9v-35h-1.9c-0.5,5.2-1.7,9.1-3.6,11.8
	c-1.9,2.7-5,4-9.2,4h-1.3V8.8h6.9c5.1,0,8.5,0.3,10.3,0.9c3.2,1,5.6,2.5,7.3,4.6c1.7,2.1,3.1,5.6,4,10.4h1.9V4.9H48.1v1.7
	c3.7-0.1,6.4,0.9,8,2.8c1.2,1.4,1.7,4.1,1.7,8.2v28.7L25,4.9H1.3v1.7c2,0.1,3.6,0.4,4.7,1c1.1,0.6,2.3,1.8,3.7,3.6l1.4,1.8v47.2
	c0,3.6-0.7,6.1-2.2,7.6c-1.4,1.5-4,2.3-7.7,2.3v1.7H25v-1.7h-1.6c-2.3,0-4.3-0.7-6-2c-1.8-1.4-2.6-4-2.6-7.9V17.6l45,55.7h1.7V17.6
	c0-3.2,0.3-5.4,0.8-6.7c0.5-1.3,1.3-2.2,2.3-2.8c1-0.6,2.9-1,5.7-1.4h1.1c2.2,0,3.9,0.5,5.1,1.4c0.9,0.6,1.5,1.5,1.8,2.7
	c0.2,0.7,0.2,2.6,0.2,5.6v44c0,3.4-0.2,5.5-0.5,6.3c-0.5,1.1-1.1,1.9-2,2.4c-1.2,0.7-2.7,1-4.7,1h-2.2v1.7h57.7l3-21.2H128
	C126.3,56.5,123.6,60.9,119.9,63.8z M536.9,10.3c-2.2-0.9-5.7-1.4-10.8-1.4v49.3c0,2.5,0.1,4.1,0.4,4.7c0.2,0.6,0.6,1,1.2,1.3
	c0.8,0.5,2,0.7,3.5,0.7c5,0,8.8-1.7,11.5-5.2c3.6-4.6,5.4-12.5,5.4-22.2c0-7.9-1.2-14.2-3.7-18.9C542.5,14.9,540,11.6,536.9,10.3z
	 M540.6,58c-2.1,2.8-5.2,4.1-9.4,4.1c-1.5,0-2.1-0.3-2.2-0.3c0,0,0,0,0,0c0-0.3-0.2-1.2-0.2-3.6V11.6c4,0.1,6,0.7,7,1.1
	c2.5,1.1,4.5,4,6.2,7.1c2.2,4.3,3.4,10.2,3.4,17.6C545.5,46.6,543.9,53.9,540.6,58z M562.6,19.1c-3.1-5.4-7.7-10.3-13.6-13
	c-4.8-2.1-11.1-3.1-18.7-3.1l-27.6,0h-6.7l-0.3,2.3c-0.2,1.3-0.5,1.7-0.6,1.8c-0.2,0.2-0.4,0.3-0.6,0.3c-0.2,0-1.1-0.2-4.3-1.4
	c-5.1-2-10-3-14.6-3c-6.3,0-12.3,1.6-17.8,4.7c-5.6,3.1-10.1,7.5-13.4,13.2c-3.3,5.6-4.9,11.7-4.9,18c0,6,1.5,11.7,4.5,17
	c3,5.3,7.3,9.5,12.8,12.4c5.4,2.8,11.7,4.2,18.6,4.2c5.3,0,10-0.9,14.1-2.6c4-1.7,7.9-4.6,11.6-8.4l0.7-0.8V46.9l-4.7,5.5
	c-3.3,3.9-6.5,6.6-9.3,8.1c-2.8,1.5-5.9,2.2-9.3,2.2c-4.1,0-7.4-1-9.8-2.9c-2.5-1.9-4.4-4.9-5.6-8.9c-1.3-4.2-2-9-2-14.2
	c0-5.2,0.9-9.9,2.6-14.1c1.3-3.1,3.3-5.5,6-7.5c2.8-1.9,5.7-2.8,9-2.8c4,0,7.4,1.3,10.6,3.8c3.1,2.6,5.3,6.4,6.5,11.3l0.5,2h6.5V9.8
	h2.2c1.5,0,2.3,0.3,2.7,0.5c0.7,0.4,0.8,0.7,0.9,0.8c0,0.2,0.3,2.6,0.3,6.3v40.3c0,3.4-0.2,4.4-0.2,4.7c-0.2,0.4-0.5,0.7-1,1
	c-0.3,0.2-1,0.5-2.7,0.5h-4.7v6.9h30.1c4.2,0,7.2-0.2,9.2-0.6c4.4-0.8,8.1-2,11.2-3.6c3.1-1.6,6-3.7,8.4-6.3
	c2.4-2.6,4.4-5.9,5.9-9.9c1.5-3.9,2.3-8.9,2.3-13.5C567.2,30.5,565.6,24.4,562.6,19.1z M500,26.8h-1.7c-1.3-5.6-3.8-9.8-7.4-12.8
	c-3.6-3-7.7-4.4-12.3-4.4c-3.8,0-7.3,1.1-10.5,3.3c-3.2,2.2-5.5,5.1-7,8.6c-1.9,4.5-2.8,9.6-2.8,15.2c0,5.5,0.7,10.5,2.1,15
	c1.4,4.5,3.5,7.9,6.5,10.2s6.8,3.5,11.4,3.5c3.8,0,7.4-0.8,10.6-2.5c3.2-1.7,6.6-4.6,10.1-8.7v5.3c-3.4,3.6-7,6.2-10.7,7.8
	c-3.7,1.6-8.1,2.4-13,2.4c-6.5,0-12.3-1.3-17.4-3.9c-5.1-2.6-9-6.4-11.7-11.3c-2.8-4.9-4.1-10.1-4.1-15.7c0-5.8,1.5-11.4,4.6-16.6
	c3.1-5.2,7.2-9.3,12.4-12.2c5.2-2.9,10.7-4.3,16.5-4.3c4.3,0,8.8,0.9,13.6,2.8c2.8,1.1,4.5,1.6,5.3,1.6c1,0,1.8-0.4,2.5-1.1
	c0.7-0.7,1.2-1.8,1.4-3.4h1.7V26.8z M562.4,49.7c-1.4,3.6-3.2,6.6-5.4,9c-2.2,2.4-4.7,4.3-7.6,5.7c-2.9,1.4-6.4,2.5-10.5,3.3
	c-1.8,0.4-4.7,0.5-8.7,0.5h-27.4v-1.6h2c1.8,0,3.1-0.3,4.1-0.8c0.9-0.6,1.6-1.3,2.1-2.3c0.3-0.6,0.4-2.6,0.4-5.7V17.4
	c0-3.2-0.2-6.6-0.5-7.4c-0.3-0.8-1-1.5-2-2.1c-1-0.6-2.4-0.9-4.1-0.9h-2V5.5h27.4c7.3,0,13.2,1,17.6,3c5.4,2.4,9.6,7,12.4,11.9
	c2.8,4.9,4.2,10.5,4.2,16.8C564.5,41.5,563.8,46,562.4,49.7z"/>
</svg>
