<?xml version="1.0" encoding="utf-8"?>
<!-- Generator: Adobe Illustrator 21.1.0, SVG Export Plug-In . SVG Version: 6.00 Build 0)  -->
<svg version="1.0"
	 id="Layer_1" inkscape:output_extension="org.inkscape.output.svg.inkscape" inkscape:version="0.91 r13725" sodipodi:docname="scummvm.svg" sodipodi:version="0.32" xmlns:cc="http://creativecommons.org/ns#" xmlns:dc="http://purl.org/dc/elements/1.1/" xmlns:inkscape="http://www.inkscape.org/namespaces/inkscape" xmlns:rdf="http://www.w3.org/1999/02/22-rdf-syntax-ns#" xmlns:sodipodi="http://sodipodi.sourceforge.net/DTD/sodipodi-0.dtd" xmlns:svg="http://www.w3.org/2000/svg"
	 xmlns="http://www.w3.org/2000/svg" xmlns:xlink="http://www.w3.org/1999/xlink" x="0px" y="0px" width="567.4px" height="96.9px"
	 viewBox="0 0 567.4 96.9" enable-background="new 0 0 567.4 96.9" xml:space="preserve">
<defs>
	
	
		<inkscape:perspective  id="perspective2709" inkscape:persp3d-origin="580 : 113.33333 : 1" inkscape:vp_x="0 : 170 : 1" inkscape:vp_y="0 : 1000 : 0" inkscape:vp_z="1160 : 170 : 1" sodipodi:type="inkscape:persp3d">
		</inkscape:perspective>
</defs>
<sodipodi:namedview  bordercolor="#666666" borderopacity="1.0" gridtolerance="10.0" guidetolerance="10.0" id="namedview2703" inkscape:current-layer="Layer_1" inkscape:cx="365.12646" inkscape:cy="172.86342" inkscape:pageopacity="0.0" inkscape:pageshadow="2" inkscape:window-height="725" inkscape:window-width="1280" inkscape:window-x="0" inkscape:window-y="25" inkscape:zoom="0.95344828" objecttolerance="10.0" pagecolor="#ffffff" showgrid="false">
	</sodipodi:namedview>
<g transform="matrix(0.93403196,0,0,0.93403196,69.311262,27.640521)">
	<g transform="translate(1.5605469e-5,0)">
		<path fill="#FFFFFF" d="M304.7,32.7h2.4c2.2,0,6.1,0.5,7.7,1.4s2.6,2,3.1,3.1s0.8,3.7,0.8,7.6V60c0,4.6-4.9,7-7.2,7.5
			c-2.4,0.5-4.6,0.8-6.9,0.8c-6.4,0-12-1.7-16.7-5c-4.7-3.4-8.1-8.6-10.2-15.7s-3.1-15.4-3.1-24.9c0-7.8,1-15.4,2.9-22.9
			c1.9-7.4,5.2-13.2,9.8-17.4c4.6-4.1,10.4-6.2,17.3-6.2c7.3,0,11.5,1.8,16.9,7.4c5.5,5.7,10.7,12.1,13.8,21.6h4.5v-34.8h-2.5
			c-0.9,2.8-1.9,4.7-3,5.7s-2.3,1.5-3.6,1.5c-0.8,0-3.5-0.9-8-2.7c-4.5-1.8-7.8-2.9-9.8-3.3c-3.7-0.8-6.6-1.2-11.2-1.2
			c-14.9,0-27.3,5.1-37.1,15.4C254.7-4,249.8,8.5,249.8,23.4c0,8.3,1.6,15.8,4.8,22.5c2.5,5.2,6,9.9,10.5,14s9.6,7.5,15.4,10
			s13.2,3.8,22,3.8c6.9,0,13.6-0.7,20-2.1s12.6-3.5,18.6-6.4V44.7c0-3.6,0.2-5.9,0.6-6.8c0.7-1.8,1.8-3,3.1-3.8
			c1.3-0.8,5-1.2,8.4-1.5v-3.4h-48.5V32.7L304.7,32.7z"/>
		<path fill="#FFFFFF" d="M416.1,59.3c-5.5,4.2-12.9,6.3-22.1,6.3h-5.2c-2.8,0-4.8-0.4-6.1-1.2c-1.2-0.8-2.1-1.8-2.6-3
			c-0.5-1.2-0.7-4.5-0.7-9.9V24.1c4.7,0,10.2,0.6,12.7,1.8s4.6,3.6,6.5,7.2s3.1,7.5,3.7,13.1h4V-4.5h-4c-0.8,7.6-2.6,12.7-5.4,16.6
			s-7.4,5.9-13.6,5.9h-3.9v-34c0-5.9,5.2-5.2,5.2-5.2h6.2c7.4,0,12.5,0.4,15.2,1.3c4.6,1.4,8.2,3.7,10.8,6.8
			c2.5,3.1,4.5,8.2,5.9,15.2h3.3v-29h-82.9v4h2.6c3.2,0,5.7,0.7,7.5,2c1.3,0.9,2.2,2.2,2.7,3.9c0.2,1,0.4,3.7,0.4,8.2v61.3
			c0,4.9-0.3,7.9-0.8,9.1c-0.7,1.6-1.6,2.8-2.9,3.5c-1.7,1-4,1.5-6.9,1.5h-2.6v4.6h84.3l5.1-31.2h-4.6
			C425.6,48.6,421.6,55.1,416.1,59.3"/>
		<path fill="#FFFFFF" d="M481.4-28.4c-14.1-0.6-26,4-35.7,13.8s-14.5,22-14.5,36.7c0,13.1,3.7,24.4,11.2,33.9
			c9.4,12.1,22.7,18.1,40,18.1c17.2,0,30.5-6.3,39.9-19C529.4,45.6,533,34.5,533,22c0-14.7-4.8-26.9-14.3-36.7
			C509-24.4,496.6-29,481.4-28.4 M503.9,50c-2.3,6.8-5.5,11.8-9.7,14.9c-3.2,2.4-7.3,3.6-12.2,3.6c-7.2,0-12.8-2.8-16.8-8.5
			c-5.7-8.1-8.6-20.5-8.6-37.4c0-14.2,1.9-25.1,5.6-32.7c4.6-9.2,11.2-13.8,20-13.8c4.8,0,9,1.3,12.6,4s6.7,7.3,9,13.7
			c2.4,6.5,3.5,16.3,3.5,29.3C507.4,34.3,506.2,43.2,503.9,50"/>
	</g>
	<path fill="#FFFFFF" d="M168.4,73.5c17.2,0,30.5-6.3,39.9-19C215.4,45,219,33.9,219,21.4c0-14.7-4.8-26.9-14.3-36.7
		c-9.6-9.7-22-14.3-37.2-13.7c-14.1-0.6-26,4-35.7,13.8s-14.5,22-14.5,36.7c0,13.1,3.7,24.4,11.2,33.9
		C137.8,67.5,151.2,73.5,168.4,73.5 M148.2-10.4c4.6-9.2,11.2-13.8,20-13.8c4.8,0,9,1.3,12.6,4s6.7,7.3,9,13.7
		c2.4,6.5,3.5,16.3,3.5,29.3c0,11-1.2,19.9-3.5,26.7c-2.3,6.8-5.5,11.8-9.7,14.9c-3.2,2.4-7.3,3.6-12.2,3.6
		c-7.2,0-12.8-2.8-16.8-8.5c-5.7-8.1-8.6-20.5-8.6-37.4C142.6,8,144.4-2.9,148.2-10.4"/>
	<path fill="#FFFFFF" d="M118.6,39.2H114c-2.4,8.7-6.4,15.1-11.9,19.4c-5.5,4.2-12.9,6.3-22,6.3h-5.2c-2.8,0-4.8-0.4-6.1-1.1
		c-1.3-0.8-2.1-1.8-2.6-3s-0.7-4.5-0.7-9.9V23.3c4.7,0,10.2,0.6,12.7,1.8c2.5,1.2,4.6,3.6,6.5,7.2c1.9,3.6,3.1,7.5,3.7,13.1h4V-5.3
		h-4C87.6,2.3,85.8,7.4,83,11.3s-7.4,5.9-13.6,5.9h-3.9v-34c0-5.9,5.2-5.2,5.2-5.2h6.2c7.5,0,12.5,0.4,15.2,1.3
		c4.6,1.4,8.2,3.7,10.8,6.8c2.5,3.1,4.5,8.2,5.9,15.2h3.3v-29H29.2v4h2.6c3.2,0,5.7,0.7,7.5,2c1.3,0.9,2.2,2.2,2.7,3.9
		c0.2,1,0.4,3.7,0.4,8.2v61.3c0,4.9-0.3,7.9-0.8,9.1c-0.7,1.6-1.6,2.8-2.9,3.5c-1.7,1-4,1.5-6.9,1.5h-2.6v4.6h84.3L118.6,39.2
		L118.6,39.2z"/>
	<path fill="#FFFFFF" d="M-40.5,65.7h-2.2c-3.2,0-6.1-1-8.6-3c-2.5-2-3.7-5.8-3.7-11.4V-7.9l64.1,80h4.2V-9.5c0-4.6,0.4-6,1.2-7.9
		s1.8-3.3,3.2-4.1c1.4-0.8,4-1.5,8-2.1v-4.1H-6.1v4.1c5.2-0.1,9,1.3,11.2,4.1c1.6,2.1,2.4,4.1,2.4,10v42.7l-49.9-60.9h-30.4v3.3
		c2.9,0.1,3,1.1,4.5,1.9l8.1,8.2v65.7c0,5.2-1,8.9-3.1,11c-2,2.2-5.7,3.3-10.9,3.3v4h33.6L-40.5,65.7L-40.5,65.7z"/>
	<path fill="#FFFFFF" d="M246.3,22.2c0,6.5-5.3,11.8-11.8,11.8s-11.8-5.3-11.8-11.8s5.3-11.8,11.8-11.8
		C241.1,10.4,246.3,15.7,246.3,22.2z"/>
</g>
</svg>
