<?xml version="1.0" encoding="UTF-8" standalone="no"?>
<svg
   xmlns:dc="http://purl.org/dc/elements/1.1/"
   xmlns:cc="http://creativecommons.org/ns#"
   xmlns:rdf="http://www.w3.org/1999/02/22-rdf-syntax-ns#"
   xmlns:svg="http://www.w3.org/2000/svg"
   xmlns="http://www.w3.org/2000/svg"
   xmlns:sodipodi="http://sodipodi.sourceforge.net/DTD/sodipodi-0.dtd"
   xmlns:inkscape="http://www.inkscape.org/namespaces/inkscape"
   xml:space="preserve"
   enable-background="new 0 0 567.4 74.1"
   viewBox="0 0 576.19999 80.300005"
   height="80.300003"
   width="576.20001"
   y="0px"
   x="0px"
   sodipodi:version="0.32"
   sodipodi:docname="neogeocd.svg"
   inkscape:version="1.0 (4035a4fb49, 2020-05-01)"
   inkscape:output_extension="org.inkscape.output.svg.inkscape"
   id="Layer_1"
   version="1.0"><metadata
   id="metadata9"><rdf:RDF><cc:Work
       rdf:about=""><dc:format>image/svg+xml</dc:format><dc:type
         rdf:resource="http://purl.org/dc/dcmitype/StillImage" /><dc:title></dc:title></cc:Work></rdf:RDF></metadata>
<defs
   id="defs3">
	
	
		<inkscape:perspective
   sodipodi:type="inkscape:persp3d"
   inkscape:vp_z="1160 : 176.20001 : 1"
   inkscape:vp_y="0 : 1000 : 0"
   inkscape:vp_x="0 : 176.20001 : 1"
   inkscape:persp3d-origin="580 : 119.53334 : 1"
   id="perspective2709">
		</inkscape:perspective>
</defs>
<sodipodi:namedview
   inkscape:window-maximized="0"
   fit-margin-bottom="5"
   fit-margin-right="5"
   fit-margin-left="5"
   fit-margin-top="5"
   inkscape:pagecheckerboard="true"
   lock-margins="true"
   inkscape:document-rotation="0"
   showgrid="false"
   pagecolor="#ffffff"
   objecttolerance="10.0"
   inkscape:zoom="0.95344828"
   inkscape:window-y="108"
   inkscape:window-x="439"
   inkscape:window-width="1280"
   inkscape:window-height="725"
   inkscape:pageshadow="2"
   inkscape:pageopacity="0.0"
   inkscape:cy="174.86342"
   inkscape:cx="368.92646"
   inkscape:current-layer="Layer_1"
   id="namedview2703"
   guidetolerance="10.0"
   gridtolerance="10.0"
   borderopacity="1.0"
   bordercolor="#666666">
	</sodipodi:namedview>
<path
   id="path6"
   d="m 220.6,29.3 c -2.7,0 -4.9,0.9 -6.8,2.8 -1.9,1.9 -2.8,4.1 -2.8,6.8 0,2.6 0.9,4.9 2.8,6.7 1.9,1.9 4.1,2.8 6.8,2.8 2.6,0 4.9,-0.9 6.7,-2.8 1.9,-1.9 2.8,-4.1 2.8,-6.7 0,-2.7 -0.9,-4.9 -2.8,-6.8 -1.8,-1.8 -4.1,-2.8 -6.7,-2.8 z M 402.8,6 c -9.9,-0.4 -18.2,2.7 -24.9,9.3 -6.8,6.6 -10.1,14.9 -10.1,24.8 0,8.8 2.6,16.5 7.8,22.9 6.6,8.1 15.9,12.2 27.9,12.2 12,0 21.3,-4.3 27.8,-12.8 5,-6.4 7.4,-13.9 7.4,-22.4 0,-9.9 -3.3,-18.2 -10,-24.8 C 422,8.7 413.4,5.6 402.8,6 Z m 15.7,53 c -1.6,4.6 -3.9,8 -6.7,10.1 -2.3,1.6 -5.1,2.5 -8.5,2.5 -5,0 -8.9,-1.9 -11.7,-5.7 -4,-5.4 -6,-13.9 -6,-25.2 0,-9.6 1.3,-16.9 3.9,-22.1 3.2,-6.2 7.8,-9.4 13.9,-9.4 3.3,0 6.2,0.9 8.8,2.7 2.5,1.8 4.6,4.9 6.3,9.3 1.6,4.4 2.5,11 2.5,19.8 -0.1,7.4 -0.9,13.4 -2.5,18 z M 306.9,45.7 h -32.5 v 1.7 h 1.7 c 1.6,0 3,0.3 4.1,0.9 1.1,0.6 1.9,1.3 2.2,2.1 0.4,0.8 0.5,2.5 0.5,5.1 v 13.9 c -1.8,0.7 -3.5,1.2 -5.2,1.5 -1.7,0.3 -3.3,0.5 -4.9,0.5 -4.6,0 -8.6,-1.1 -12,-3.4 -3.4,-2.3 -5.8,-5.8 -7.3,-10.6 -1.5,-4.8 -2.3,-10.4 -2.3,-16.8 0,-5.3 0.7,-10.4 2.1,-15.5 1.4,-5 3.7,-8.9 7.1,-11.7 3.3,-2.8 7.5,-4.2 12.5,-4.2 5.2,0 10,1.7 14.4,5 4.4,3.4 7.7,8.2 9.9,14.7 h 1.7 V 5.4 h -1.7 c -0.7,1.9 -1.4,3.2 -2.2,3.9 -0.8,0.7 -1.6,1 -2.6,1 -0.6,0 -2.5,-0.6 -5.7,-1.9 -3.2,-1.2 -5.6,-2 -7,-2.2 -2.7,-0.5 -5.7,-0.8 -9,-0.8 -10.7,0 -19.6,3.5 -26.7,10.4 -7.1,6.9 -10.6,15.4 -10.6,25.4 0,5.6 1.1,10.7 3.4,15.2 1.8,3.5 4.3,6.7 7.5,9.5 3.2,2.8 6.9,5.1 11.1,6.8 4.2,1.7 9.5,2.6 15.8,2.6 5,0 9.7,-0.5 14.4,-1.4 4.6,-1 9.1,-2.4 13.3,-4.3 V 55.7 c 0,-2.5 0.1,-4 0.4,-4.6 0.5,-1.2 1.3,-2 2.2,-2.6 1,-0.5 2.7,-0.9 5.1,-1 V 45.7 Z M 171.4,6 c -9.9,-0.4 -18.2,2.7 -24.9,9.3 -6.8,6.6 -10.1,14.9 -10.1,24.8 0,8.8 2.6,16.5 7.8,22.9 6.6,8.1 15.9,12.2 27.9,12.2 12,0 21.3,-4.3 27.8,-12.8 5,-6.4 7.4,-13.9 7.4,-22.4 0,-9.9 -3.3,-18.2 -10,-24.8 C 190.7,8.7 182,5.6 171.4,6 Z m 15.7,53 c -1.6,4.6 -3.9,8 -6.7,10.1 -2.3,1.6 -5.1,2.5 -8.5,2.5 -5,0 -8.9,-1.9 -11.7,-5.7 -4,-5.4 -6,-13.9 -6,-25.2 0,-9.6 1.3,-16.9 3.9,-22.1 3.2,-6.2 7.8,-9.4 13.9,-9.4 3.3,0 6.2,0.9 8.8,2.7 2.5,1.8 4.6,4.9 6.3,9.3 1.6,4.4 2.5,11 2.5,19.8 -0.1,7.4 -0.9,13.4 -2.5,18 z m 168,6.8 c -3.8,2.9 -8.8,4.3 -15,4.3 h -4 c -1.9,0 -3.3,-0.3 -4.1,-0.8 -0.9,-0.5 -1.4,-1.2 -1.7,-2 -0.3,-0.8 -0.5,-3.1 -0.5,-6.8 V 41.7 c 3.2,0 5.6,0.4 7.3,1.3 1.7,0.8 3.1,2.5 4.4,4.9 1.3,2.4 2.1,5.6 2.5,9.4 h 1.9 v -35 H 344 c -0.5,5.2 -1.7,9.1 -3.6,11.8 -1.9,2.7 -5,4 -9.2,4 h -1.3 V 10.8 h 6.9 c 5.1,0 8.5,0.3 10.3,0.9 3.2,1 5.6,2.5 7.3,4.6 1.7,2.1 3.1,5.6 4,10.4 h 1.9 V 6.9 h -55.9 v 1.7 h 2.2 c 2.2,0 3.9,0.5 5.1,1.4 0.9,0.6 1.5,1.5 1.8,2.7 0.2,0.7 0.2,2.6 0.2,5.6 v 44 c 0,3.4 -0.2,5.5 -0.5,6.3 -0.5,1.1 -1.1,1.9 -2,2.4 -1.2,0.7 -2.7,1 -4.7,1 h -2.2 v 1.7 H 362 l 3,-21.2 h -1.8 c -1.7,6 -4.4,10.4 -8.1,13.3 z m -231.4,0 c -3.8,2.9 -8.8,4.3 -15,4.3 h -4 c -1.9,0 -3.3,-0.3 -4.1,-0.8 -0.9,-0.5 -1.4,-1.2 -1.7,-2 -0.3,-0.8 -0.5,-3.1 -0.5,-6.8 V 41.7 c 3.2,0 5.6,0.4 7.3,1.3 1.7,0.8 3.1,2.5 4.4,4.9 1.3,2.4 2.1,5.6 2.5,9.4 h 1.9 v -35 h -1.9 c -0.5,5.2 -1.7,9.1 -3.6,11.8 -1.9,2.7 -5,4 -9.2,4 H 98.5 V 10.8 h 6.9 c 5.1,0 8.5,0.3 10.3,0.9 3.2,1 5.6,2.5 7.3,4.6 1.7,2.1 3.1,5.6 4,10.4 h 1.9 V 6.9 h -77 v 1.7 c 3.7,-0.1 6.4,0.9 8,2.8 1.2,1.4 1.7,4.1 1.7,8.2 V 48.3 L 28.8,6.9 H 5.1 v 1.7 c 2,0.1 3.6,0.4 4.7,1 1.1,0.6 2.3,1.8 3.7,3.6 l 1.4,1.8 v 47.2 c 0,3.6 -0.7,6.1 -2.2,7.6 -1.4,1.5 -4,2.3 -7.7,2.3 v 1.7 h 23.8 v -1.7 h -1.6 c -2.3,0 -4.3,-0.7 -6,-2 -1.8,-1.4 -2.6,-4 -2.6,-7.9 V 19.6 l 45,55.7 h 1.7 V 19.6 c 0,-3.2 0.3,-5.4 0.8,-6.7 0.5,-1.3 1.3,-2.2 2.3,-2.8 1,-0.6 2.9,-1 5.7,-1.4 h 1.1 c 2.2,0 3.9,0.5 5.1,1.4 0.9,0.6 1.5,1.5 1.8,2.7 0.2,0.7 0.2,2.6 0.2,5.6 v 44 c 0,3.4 -0.2,5.5 -0.5,6.3 -0.5,1.1 -1.1,1.9 -2,2.4 -1.2,0.7 -2.7,1 -4.7,1 h -2.2 v 1.7 h 57.7 l 3,-21.2 h -1.8 c -1.7,5.9 -4.4,10.3 -8.1,13.2 z m 417,-53.5 c -2.2,-0.9 -5.7,-1.4 -10.8,-1.4 v 49.3 c 0,2.5 0.1,4.1 0.4,4.7 0.2,0.6 0.6,1 1.2,1.3 0.8,0.5 2,0.7 3.5,0.7 5,0 8.8,-1.7 11.5,-5.2 3.6,-4.6 5.4,-12.5 5.4,-22.2 0,-7.9 -1.2,-14.2 -3.7,-18.9 -1.9,-3.7 -4.4,-7 -7.5,-8.3 z m 3.7,47.7 c -2.1,2.8 -5.2,4.1 -9.4,4.1 -1.5,0 -2.1,-0.3 -2.2,-0.3 0,0 0,0 0,0 0,-0.3 -0.2,-1.2 -0.2,-3.6 V 13.6 c 4,0.1 6,0.7 7,1.1 2.5,1.1 4.5,4 6.2,7.1 2.2,4.3 3.4,10.2 3.4,17.6 0.1,9.2 -1.5,16.5 -4.8,20.6 z m 22,-38.9 C 563.3,15.7 558.7,10.8 552.8,8.1 548,6 541.7,5 534.1,5 h -27.6 -6.7 l -0.3,2.3 c -0.2,1.3 -0.5,1.7 -0.6,1.8 -0.2,0.2 -0.4,0.3 -0.6,0.3 -0.2,0 -1.1,-0.2 -4.3,-1.4 -5.1,-2 -10,-3 -14.6,-3 -6.3,0 -12.3,1.6 -17.8,4.7 -5.6,3.1 -10.1,7.5 -13.4,13.2 -3.3,5.6 -4.9,11.7 -4.9,18 0,6 1.5,11.7 4.5,17 3,5.3 7.3,9.5 12.8,12.4 5.4,2.8 11.7,4.2 18.6,4.2 5.3,0 10,-0.9 14.1,-2.6 4,-1.7 7.9,-4.6 11.6,-8.4 l 0.7,-0.8 V 48.9 l -4.7,5.5 c -3.3,3.9 -6.5,6.6 -9.3,8.1 -2.8,1.5 -5.9,2.2 -9.3,2.2 -4.1,0 -7.4,-1 -9.8,-2.9 -2.5,-1.9 -4.4,-4.9 -5.6,-8.9 -1.3,-4.2 -2,-9 -2,-14.2 0,-5.2 0.9,-9.9 2.6,-14.1 1.3,-3.1 3.3,-5.5 6,-7.5 2.8,-1.9 5.7,-2.8 9,-2.8 4,0 7.4,1.3 10.6,3.8 3.1,2.6 5.3,6.4 6.5,11.3 l 0.5,2 h 6.5 V 11.8 h 2.2 c 1.5,0 2.3,0.3 2.7,0.5 0.7,0.4 0.8,0.7 0.9,0.8 0,0.2 0.3,2.6 0.3,6.3 v 40.3 c 0,3.4 -0.2,4.4 -0.2,4.7 -0.2,0.4 -0.5,0.7 -1,1 -0.3,0.2 -1,0.5 -2.7,0.5 h -4.7 v 6.9 h 30.1 c 4.2,0 7.2,-0.2 9.2,-0.6 4.4,-0.8 8.1,-2 11.2,-3.6 3.1,-1.6 6,-3.7 8.4,-6.3 2.4,-2.6 4.4,-5.9 5.9,-9.9 1.5,-3.9 2.3,-8.9 2.3,-13.5 -0.2,-6.4 -1.8,-12.5 -4.8,-17.8 z m -62.6,7.7 h -1.7 c -1.3,-5.6 -3.8,-9.8 -7.4,-12.8 -3.6,-3 -7.7,-4.4 -12.3,-4.4 -3.8,0 -7.3,1.1 -10.5,3.3 -3.2,2.2 -5.5,5.1 -7,8.6 -1.9,4.5 -2.8,9.6 -2.8,15.2 0,5.5 0.7,10.5 2.1,15 1.4,4.5 3.5,7.9 6.5,10.2 3,2.3 6.8,3.5 11.4,3.5 3.8,0 7.4,-0.8 10.6,-2.5 3.2,-1.7 6.6,-4.6 10.1,-8.7 v 5.3 c -3.4,3.6 -7,6.2 -10.7,7.8 -3.7,1.6 -8.1,2.4 -13,2.4 -6.5,0 -12.3,-1.3 -17.4,-3.9 -5.1,-2.6 -9,-6.4 -11.7,-11.3 -2.8,-4.9 -4.1,-10.1 -4.1,-15.7 0,-5.8 1.5,-11.4 4.6,-16.6 3.1,-5.2 7.2,-9.3 12.4,-12.2 5.2,-2.9 10.7,-4.3 16.5,-4.3 4.3,0 8.8,0.9 13.6,2.8 2.8,1.1 4.5,1.6 5.3,1.6 1,0 1.8,-0.4 2.5,-1.1 0.7,-0.7 1.2,-1.8 1.4,-3.4 h 1.7 v 21.2 z m 62.4,22.9 c -1.4,3.6 -3.2,6.6 -5.4,9 -2.2,2.4 -4.7,4.3 -7.6,5.7 -2.9,1.4 -6.4,2.5 -10.5,3.3 -1.8,0.4 -4.7,0.5 -8.7,0.5 h -27.4 v -1.6 h 2 c 1.8,0 3.1,-0.3 4.1,-0.8 0.9,-0.6 1.6,-1.3 2.1,-2.3 0.3,-0.6 0.4,-2.6 0.4,-5.7 V 19.4 c 0,-3.2 -0.2,-6.6 -0.5,-7.4 -0.3,-0.8 -1,-1.5 -2,-2.1 -1,-0.6 -2.4,-0.9 -4.1,-0.9 h -2 V 7.5 H 534 c 7.3,0 13.2,1 17.6,3 5.4,2.4 9.6,7 12.4,11.9 2.8,4.9 4.2,10.5 4.2,16.8 0.1,4.3 -0.6,8.8 -2,12.5 z"
   fill="#ffffff" />
</svg>
