<?xml version="1.0" encoding="UTF-8" standalone="no"?>
<svg
   xmlns:dc="http://purl.org/dc/elements/1.1/"
   xmlns:cc="http://creativecommons.org/ns#"
   xmlns:rdf="http://www.w3.org/1999/02/22-rdf-syntax-ns#"
   xmlns:svg="http://www.w3.org/2000/svg"
   xmlns="http://www.w3.org/2000/svg"
   xmlns:sodipodi="http://sodipodi.sourceforge.net/DTD/sodipodi-0.dtd"
   xmlns:inkscape="http://www.inkscape.org/namespaces/inkscape"
   inkscape:version="1.0 (4035a4fb49, 2020-05-01)"
   sodipodi:docname="nes.svg"
   xml:space="preserve"
   enable-background="new 0 0 408.7 169.1"
   viewBox="0 0 402.30034 106.9"
   height="106.9"
   width="402.30035"
   y="0px"
   x="0px"
   id="Capa_1"
   version="1.0"><metadata
     id="metadata202"><rdf:RDF><cc:Work
         rdf:about=""><dc:format>image/svg+xml</dc:format><dc:type
           rdf:resource="http://purl.org/dc/dcmitype/StillImage" /><dc:title></dc:title></cc:Work></rdf:RDF></metadata><defs
     id="defs200" /><sodipodi:namedview
     lock-margins="true"
     inkscape:document-rotation="0"
     inkscape:pagecheckerboard="true"
     inkscape:current-layer="g195"
     inkscape:window-maximized="0"
     inkscape:window-y="0"
     inkscape:window-x="0"
     inkscape:cy="53.449997"
     inkscape:cx="249.80477"
     inkscape:zoom="0.6679716"
     fit-margin-bottom="5"
     fit-margin-right="5"
     fit-margin-left="5"
     fit-margin-top="5"
     showgrid="false"
     id="namedview198"
     inkscape:window-height="480"
     inkscape:window-width="706"
     inkscape:pageshadow="2"
     inkscape:pageopacity="0"
     guidetolerance="10"
     gridtolerance="10"
     objecttolerance="10"
     borderopacity="1"
     bordercolor="#666666"
     pagecolor="#ffffff" /><g
     transform="translate(-3.2,-31.1)"
     id="g195"><path
       style="fill:#ffffff"
       inkscape:connector-curvature="0"
       id="path173"
       d="M 352.3,133 H 56.6 C 29.9,133 8.2,111.2 8.2,84.5 8.2,57.8 29.9,36.1 56.6,36.1 h 295.5 c 26.7,0 48.4,21.7 48.4,48.4 0.1,26.6 -21.6,48.5 -48.2,48.5 z M 56.6,47.5 c -20.3,0 -37,16.6 -37,37 0,20.4 16.6,37 37,37 h 295.5 c 20.3,0 37,-16.6 37,-37 0,-20.4 -16.5,-37 -36.8,-37 z" /><path
       style="fill:#ffffff"
       inkscape:connector-curvature="0"
       id="path175"
       d="M 94.7,107 V 62.2 H 81.2 V 93.4 L 61.4,62.2 H 46.8 v 44.6 H 60.3 V 74.7 L 81.2,107 Z" /><path
       style="fill:#ffffff"
       inkscape:connector-curvature="0"
       id="path177"
       d="M 116.5,107 V 76.8 H 103 V 107 Z" /><path
       style="fill:#ffffff"
       inkscape:connector-curvature="0"
       id="path179"
       d="M 116.5,70.3 V 62.2 H 103 v 8.1 z" /><path
       style="fill:#ffffff"
       inkscape:connector-curvature="0"
       d="M 163.5,107 V 86.1 c 0,-4.4 -8.4,-10.4 -12.8,-10.4 h -4 c -3,0 -6.3,2.7 -9.3,4 v -3 h -13.5 v 30.2 h 13.5 V 86.1 c 0,-2.1 4.7,-4.4 6.7,-4.4 2.1,0 5.8,2.3 5.8,4.4 V 107 Z"
       id="_x33_162" /><path
       style="fill:#ffffff"
       inkscape:connector-curvature="0"
       d="M 275.9,108 V 87.2 c 0,-4.4 -8.4,-10.4 -12.8,-10.4 h -4 c -3,0 -6.3,2.7 -9.3,4 v -3 H 236.3 V 108 h 13.5 V 87.2 c 0,-2.1 4.7,-4.4 6.7,-4.4 2.1,0 5.8,2.3 5.8,4.4 v 20.9 z"
       id="_x33_162_1_" /><path
       style="fill:#ffffff"
       inkscape:connector-curvature="0"
       id="path183"
       d="M 185.3,107 V 76.8 h 7 v -4 h -7 v -6.5 h -13.7 v 6.3 h -7 v 4 h 7 v 30.2 h 13.7 z" /><path
       style="fill:#ffffff"
       inkscape:connector-curvature="0"
       id="path185"
       d="m 211.2,75.7 c -10.7,0 -19.8,7.4 -19.8,16.5 0,9.3 9.1,16.8 19.8,16.8 9.3,0 17.2,-5.4 19.1,-12.4 h -13.7 v 4 c 0,3.3 -2.3,4.4 -5.4,4.4 -3.1,0 -5.1,-1 -5.1,-4.4 V 92.2 H 231 c 0,-9.1 -8.7,-16.5 -19.8,-16.5 z m 0,3 c 3,0 5.4,2.1 5.4,5.4 v 3 h -10.4 v -3 c -0.1,-3.3 1.9,-5.4 5,-5.4 z" /><path
       style="fill:#ffffff"
       inkscape:connector-curvature="0"
       id="path187"
       d="m 343.5,75.7 c -11.1,0 -19.8,7.4 -19.8,16.5 0,9.3 8.8,16.8 19.8,16.8 10.7,0 19.8,-7.4 19.8,-16.8 0,-9.1 -9.1,-16.5 -19.8,-16.5 z m 0,3 c 3,0 5.1,2.1 5.1,5.4 v 16.5 c 0,3.3 -2.1,4.4 -5.1,4.4 -3.3,0 -5.4,-1 -5.4,-4.4 V 84 c 0,-3.2 2.1,-5.3 5.4,-5.3 z" /><path
       style="fill:#ffffff"
       inkscape:connector-curvature="0"
       id="path189"
       d="m 304.9,62.2 v 16.5 c 0,0 -4,-3 -9.3,-3 -8.4,0 -15.4,7.4 -15.4,15.4 0,8.4 7,16.8 15.4,16.8 5.4,0 9.3,-2.1 9.3,-2.1 v 1 h 13.5 V 62.2 Z m -5.1,18.6 c 3,0 5.1,2.3 5.1,5.4 v 12.4 c 0,3 -2.1,4 -5.1,4 -3.3,0 -5.4,-1 -5.4,-4 V 86.1 c 0,-3 2.1,-5.3 5.4,-5.3 z" /></g></svg>
