<?xml version="1.0" encoding="utf-8"?>
<!-- Generator: Adobe Illustrator 21.1.0, SVG Export Plug-In . SVG Version: 6.00 Build 0)  -->
<svg version="1.0" id="Capa_1" xmlns="http://www.w3.org/2000/svg" xmlns:xlink="http://www.w3.org/1999/xlink" x="0px" y="0px"
	 width="408.7px" height="169.1px" viewBox="0 0 408.7 169.1" enable-background="new 0 0 408.7 169.1" xml:space="preserve">
<g>
	<path fill="#FFFFFF" d="M352.3,133H56.6c-26.7,0-48.4-21.8-48.4-48.5s21.7-48.4,48.4-48.4h295.5c26.7,0,48.4,21.7,48.4,48.4
		C400.6,111.1,378.9,133,352.3,133z M56.6,47.5c-20.3,0-37,16.6-37,37s16.6,37,37,37h295.5c20.3,0,37-16.6,37-37s-16.5-37-36.8-37
		H56.6z"/>
	<path fill="#FFFFFF" d="M94.7,107V62.2H81.2v31.2L61.4,62.2H46.8v44.6h13.5V74.7L81.2,107H94.7z"/>
	<path fill="#FFFFFF" d="M116.5,107V76.8H103V107H116.5z"/>
	<path fill="#FFFFFF" d="M116.5,70.3v-8.1H103v8.1H116.5z"/>
	<path id="_x33_162" fill="#FFFFFF" d="M163.5,107V86.1c0-4.4-8.4-10.4-12.8-10.4h-4c-3,0-6.3,2.7-9.3,4v-3h-13.5v30.2h13.5V86.1
		c0-2.1,4.7-4.4,6.7-4.4c2.1,0,5.8,2.3,5.8,4.4V107H163.5L163.5,107z"/>
	<path id="_x33_162_1_" fill="#FFFFFF" d="M275.9,108V87.2c0-4.4-8.4-10.4-12.8-10.4h-4c-3,0-6.3,2.7-9.3,4v-3h-13.5V108h13.5V87.2
		c0-2.1,4.7-4.4,6.7-4.4c2.1,0,5.8,2.3,5.8,4.4v20.9L275.9,108L275.9,108z"/>
	<path fill="#FFFFFF" d="M185.3,107V76.8h7v-4h-7v-6.5h-13.7v6.3h-7v4h7v30.2h13.7V107z"/>
	<path fill="#FFFFFF" d="M211.2,75.7c-10.7,0-19.8,7.4-19.8,16.5c0,9.3,9.1,16.8,19.8,16.8c9.3,0,17.2-5.4,19.1-12.4h-13.7v4
		c0,3.3-2.3,4.4-5.4,4.4s-5.1-1-5.1-4.4v-8.4H231C231,83.1,222.3,75.7,211.2,75.7z M211.2,78.7c3,0,5.4,2.1,5.4,5.4v3h-10.4v-3
		C206.1,80.8,208.1,78.7,211.2,78.7z"/>
	<path fill="#FFFFFF" d="M343.5,75.7c-11.1,0-19.8,7.4-19.8,16.5c0,9.3,8.8,16.8,19.8,16.8c10.7,0,19.8-7.4,19.8-16.8
		C363.3,83.1,354.2,75.7,343.5,75.7z M343.5,78.7c3,0,5.1,2.1,5.1,5.4v16.5c0,3.3-2.1,4.4-5.1,4.4c-3.3,0-5.4-1-5.4-4.4V84
		C338.1,80.8,340.2,78.7,343.5,78.7z"/>
	<path fill="#FFFFFF" d="M304.9,62.2v16.5c0,0-4-3-9.3-3c-8.4,0-15.4,7.4-15.4,15.4c0,8.4,7,16.8,15.4,16.8c5.4,0,9.3-2.1,9.3-2.1v1
		h13.5V62.2H304.9z M299.8,80.8c3,0,5.1,2.3,5.1,5.4v12.4c0,3-2.1,4-5.1,4c-3.3,0-5.4-1-5.4-4V86.1
		C294.4,83.1,296.5,80.8,299.8,80.8z"/>
	<g>
		<path fill="#FFFFFF" d="M365,76.2c-3.8,0-6.9-3.2-6.9-6.9c0-4.1,3-7.3,6.9-7.3c3.7,0,6.9,3.3,6.9,7.3
			C371.9,73.1,368.6,76.2,365,76.2z M365,63.2c-3.3,0-5.9,2.6-5.9,6.2c0,3.2,2.6,5.9,5.9,5.9c3,0,5.9-2.7,5.9-5.9
			C370.8,66.1,368.1,63.2,365,63.2z M366.1,72.2l-1.2-2.1h-1.5V72h-1.1v-6.2h2.9c1.4,0,2.1,1.1,2.1,2.2c0,0.8-0.4,1.6-1.2,2.1l1,1.6
			L366.1,72.2z M363.5,69.1h1.8c0.3,0,0.5-0.1,0.7-0.3c0.2-0.2,0.3-0.5,0.3-0.8c0-0.4-0.1-1.1-1-1.1h-1.8V69.1L363.5,69.1z"/>
	</g>
</g>
</svg>
