<?xml version="1.0" encoding="UTF-8" standalone="no"?>
<!-- Generator: Adobe Illustrator 21.1.0, SVG Export Plug-In . SVG Version: 6.00 Build 0)  -->

<svg
   xmlns:dc="http://purl.org/dc/elements/1.1/"
   xmlns:cc="http://creativecommons.org/ns#"
   xmlns:rdf="http://www.w3.org/1999/02/22-rdf-syntax-ns#"
   xmlns:svg="http://www.w3.org/2000/svg"
   xmlns="http://www.w3.org/2000/svg"
   xmlns:sodipodi="http://sodipodi.sourceforge.net/DTD/sodipodi-0.dtd"
   xmlns:inkscape="http://www.inkscape.org/namespaces/inkscape"
   version="1.0"
   id="Ebene_3"
   x="0px"
   y="0px"
   width="240"
   height="96.5"
   viewBox="0 0 239.99999 96.500001"
   enable-background="new 0 0 300.7 119.1"
   xml:space="preserve"
   sodipodi:docname="ngp.svg"
   inkscape:version="0.92.2 (unknown)"><metadata
     id="metadata247"><rdf:RDF><cc:Work
         rdf:about=""><dc:format>image/svg+xml</dc:format><dc:type
           rdf:resource="http://purl.org/dc/dcmitype/StillImage" /></cc:Work></rdf:RDF></metadata><defs
     id="defs245" /><sodipodi:namedview
     pagecolor="#ffffff"
     bordercolor="#666666"
     borderopacity="1"
     objecttolerance="10"
     gridtolerance="10"
     guidetolerance="10"
     inkscape:pageopacity="0"
     inkscape:pageshadow="2"
     inkscape:window-width="640"
     inkscape:window-height="480"
     id="namedview243"
     showgrid="false"
     fit-margin-top="0"
     fit-margin-left="0"
     fit-margin-right="0"
     fit-margin-bottom="0"
     inkscape:zoom="0.90788157"
     inkscape:cx="119.95001"
     inkscape:cy="48.250001"
     inkscape:window-x="0"
     inkscape:window-y="0"
     inkscape:window-maximized="0"
     inkscape:current-layer="Ebene_3" /><g
     id="g240"
     transform="translate(-30.4,-11.3)"><g
       id="g216"><path
         d="M 129.9,49.2 129.8,24 h 3.2 v 30.2 h -3.2 l -17.3,-25.4 0.1,25.4 h -3.2 V 23.9 h 3.4 z"
         id="path204"
         inkscape:connector-curvature="0"
         style="fill:#ffffff" /><path
         d="m 136.8,24 h 16 v 3 h -12.7 v 10.4 h 12.6 v 2.9 h -12.6 v 10.8 h 12.7 V 54 h -16 z"
         id="path206"
         inkscape:connector-curvature="0"
         style="fill:#ffffff" /><path
         d="m 154.4,39.2 c 0,-9.3 7.2,-15.7 15.7,-15.7 8.8,0 15.7,6.7 15.7,15.6 0,8.8 -6.9,15.6 -15.7,15.6 -8.9,0 -15.7,-6.9 -15.7,-15.5 z m 3.3,-0.1 c 0,7.1 5.3,12.6 12.4,12.6 7.1,0 12.4,-5.7 12.4,-12.6 0,-6.9 -5.2,-12.6 -12.4,-12.6 -7.2,-0.1 -12.4,5.6 -12.4,12.6 z"
         id="path208"
         inkscape:connector-curvature="0"
         style="fill:#ffffff" /><path
         d="m 213.6,31.8 c -0.9,-1.3 -2.1,-2.4 -3.4,-3.2 -1.9,-1.3 -4.3,-2.1 -7,-2.1 -6.6,0 -12.4,5 -12.4,12.6 0,7.7 5.8,12.7 12.4,12.7 3.2,0 6,-1.1 8,-2.7 2.1,-1.7 3.6,-3.9 4.1,-6.3 H 198.9 V 40 h 20.4 c -0.1,1.8 -0.5,3.9 -1.3,5.8 -2.6,5.6 -8.7,9 -14.7,9 -8.8,0 -15.8,-6.7 -15.8,-15.7 0,-9.1 7.1,-15.6 15.8,-15.6 6.1,0 11.8,3.4 14.2,8.4 l -3.9,-0.1 z"
         id="path210"
         inkscape:connector-curvature="0"
         style="fill:#ffffff" /><path
         d="m 221,24 h 16.7 v 3 h -13.4 v 10.4 h 13.3 v 2.9 h -13.3 v 10.8 h 13.4 V 54 H 221 Z"
         id="path212"
         inkscape:connector-curvature="0"
         style="fill:#ffffff" /><path
         d="m 239,39.2 c 0,-9.3 7.2,-15.7 15.7,-15.7 8.8,0 15.7,6.7 15.7,15.6 0,8.8 -6.9,15.6 -15.7,15.6 -8.9,0 -15.7,-6.9 -15.7,-15.5 z m 3.4,-0.1 c 0,7.1 5.3,12.6 12.4,12.6 7.1,0 12.4,-5.7 12.4,-12.6 0,-6.9 -5.2,-12.6 -12.4,-12.6 -7.1,-0.1 -12.4,5.6 -12.4,12.6 z"
         id="path214"
         inkscape:connector-curvature="0"
         style="fill:#ffffff" /></g><g
       id="g226"><path
         d="m 84.3,82.7 c 0,-11.8 9.2,-20 20.1,-20 11.3,0 20.1,8.7 20.1,20 0,11.3 -8.7,20 -20.1,20 -11.3,-0.1 -20.1,-9 -20.1,-20 z m 4.4,-0.1 c 0,9.1 6.8,16.2 15.9,16.2 9.1,0 15.8,-7.4 15.8,-16.2 0,-8.8 -6.7,-16.2 -15.9,-16.2 -9.1,0.1 -15.8,7.3 -15.8,16.2 z"
         id="path218"
         inkscape:connector-curvature="0"
         style="fill:#ffffff" /><path
         d="m 167.6,91.5 c -2.5,6 -9.2,11.1 -17.7,11.1 -11.4,0 -20.1,-8.8 -20.1,-20 0,-11 8.5,-20 20,-20 9.5,0 15.6,6.3 17.7,11.2 h -4.6 c -1.3,-2.3 -5.6,-7.4 -13.2,-7.4 -9,0 -15.8,7.1 -15.8,16.1 0,9.1 6.8,16.2 15.8,16.2 8,0 12.1,-5.8 13.2,-7.3 z"
         id="path220"
         inkscape:connector-curvature="0"
         style="fill:#ffffff" /><path
         d="m 209.8,63.3 h 21.4 v 3.8 H 214.1 V 80.5 H 231 v 3.8 h -16.9 v 13.8 h 17.1 v 3.8 h -21.4 z"
         id="path222"
         inkscape:connector-curvature="0"
         style="fill:#ffffff" /><path
         d="m 252.9,67.2 h -12.4 v -3.8 h 29.2 v 3.8 h -12.5 v 34.7 h -4.3 z"
         id="path224"
         inkscape:connector-curvature="0"
         style="fill:#ffffff" /></g><path
       d="m 199,101.9 h 5.3 l -20,-19.3 18.4,-19.3 H 198 l -20.2,20.9 v -5 -15.9 h -4.3 v 38.5 h 4.3 V 89.3 l 3.9,-4.1 z"
       id="path228"
       inkscape:connector-curvature="0"
       style="fill:#ffffff" /><path
       d="M 65.3,104.8 C 56.9,88.1 48.6,71.5 40.2,54.8 c 0.1,0 0.1,-0.1 0.2,-0.1 2.1,-1.1 4.2,-2.2 6.3,-3.2 2.9,-1.5 5.9,-3 8.8,-4.5 3.1,-1.6 6.3,-2.6 9.9,-2.4 2.4,0.1 4.6,0.8 6.5,2.2 1.7,1.3 2.9,2.9 3.8,4.9 0.9,1.8 1.5,3.7 1.5,5.7 0.1,2.8 -0.8,5.3 -2.3,7.7 -1,1.5 -2.2,3 -3.5,4.3 -0.9,0.9 -1.9,1.7 -2.9,2.6 -3.6,-2.5 -7,-5 -10.4,-7.4 0.7,-2.4 1.3,-4.8 1.9,-7.2 3.4,0 6.7,0 10,0 0,-2.6 0,-5 0,-7.6 -5.2,0.1 -10.3,0.1 -15.4,0.2 -1.9,5.3 -3.7,10.5 -5.6,15.7 6,5 11.9,9.9 18,14.9 2.4,-0.9 4.6,-2 6.7,-3.4 3.4,-2.2 6.2,-5 8.3,-8.4 1.9,-3.2 2.9,-6.7 2.9,-10.5 0,-2.3 -0.3,-4.6 -1,-6.8 -0.9,-2.9 -2.3,-5.6 -4.5,-7.9 -4,-4.2 -9,-6.5 -14.8,-6.7 -3.5,-0.2 -6.7,0.6 -9.7,2.2 -1.4,0.7 -2.7,1.5 -4.1,2.1 -3.1,1.5 -6.2,2.9 -9.4,4.4 -2.7,1.3 -5.5,2.6 -8.2,3.9 -0.9,0.5 -1.9,0.9 -2.8,1.3 9.3,19 18.6,38 27.9,56.9 2.3,-0.9 4.6,-1.8 7,-2.9 z"
       id="path230"
       inkscape:connector-curvature="0"
       style="fill:#ffffff" /><path
       d="m 65.3,104.8 c -2.3,1 -4.6,2 -7,3 C 49,88.8 39.7,69.9 30.4,50.9 c 0.9,-0.5 1.9,-0.9 2.8,-1.3 2.7,-1.3 5.5,-2.6 8.2,-3.9 3.1,-1.5 6.3,-2.9 9.4,-4.4 1.4,-0.7 2.8,-1.4 4.1,-2.1 3.1,-1.5 6.3,-2.3 9.7,-2.2 5.8,0.2 10.8,2.5 14.8,6.7 2.2,2.2 3.6,4.9 4.5,7.9 0.7,2.2 1,4.5 1,6.8 -0.1,3.7 -1,7.3 -2.9,10.5 -2.1,3.5 -4.9,6.2 -8.3,8.4 -2.1,1.4 -4.3,2.5 -6.7,3.4 C 61,75.6 55.1,70.6 49.1,65.7 51,60.4 52.8,55.3 54.7,50 c 5.1,-0.1 10.2,-0.1 15.4,-0.2 0,2.6 0,5 0,7.6 -3.3,0 -6.7,0 -10,0 -0.6,2.4 -1.3,4.8 -1.9,7.2 3.5,2.5 7,5 10.4,7.4 0.9,-0.9 1.9,-1.7 2.9,-2.6 1.3,-1.3 2.5,-2.7 3.5,-4.3 1.5,-2.4 2.4,-4.9 2.3,-7.7 0,-2 -0.7,-3.9 -1.5,-5.7 -0.9,-1.9 -2.1,-3.6 -3.8,-4.9 -1.9,-1.5 -4.2,-2.2 -6.6,-2.2 -3.5,-0.1 -6.7,0.9 -9.9,2.4 -2.9,1.5 -5.9,3 -8.8,4.5 -2.1,1.1 -4.2,2.2 -6.3,3.2 -0.1,0 -0.1,0.1 -0.2,0.1 8.3,16.7 16.7,33.4 25.1,50 z"
       id="path232"
       inkscape:connector-curvature="0"
       style="fill:#ffffff" /><path
       d="m 71.2,31.8 c -1.7,-0.3 -3.3,-0.7 -5,-1 1,-6.5 1.9,-13 2.9,-19.5 3,0.5 6,0.9 9.1,1.3 -2.3,6.4 -4.6,12.7 -7,19.2 z"
       id="path234"
       inkscape:connector-curvature="0"
       style="fill:#ffffff" /><path
       d="m 98.3,26.5 c 1.6,2.6 3.2,5.2 4.8,7.8 -5.3,3.2 -10.5,6.5 -15.9,9.8 -1.1,-1.6 -2.2,-3.2 -3.3,-5 4.9,-4.2 9.6,-8.4 14.4,-12.6 z"
       id="path236"
       inkscape:connector-curvature="0"
       style="fill:#ffffff" /><path
       d="m 85.6,16.3 c 2.3,1.6 4.6,3.2 7,4.8 -4.2,5 -8.3,9.9 -12.5,14.9 -1.5,-0.9 -2.9,-1.8 -4.4,-2.7 3.3,-5.7 6.5,-11.4 9.9,-17 z"
       id="path238"
       inkscape:connector-curvature="0"
       style="fill:#ffffff" /></g></svg>