<?xml version="1.0" encoding="utf-8"?>
<!-- Generator: Adobe Illustrator 21.1.0, SVG Export Plug-In . SVG Version: 6.00 Build 0)  -->
<svg version="1.0" id="Ebene_3" xmlns="http://www.w3.org/2000/svg" xmlns:xlink="http://www.w3.org/1999/xlink" x="0px" y="0px"
	 width="300.7px" height="119.1px" viewBox="0 0 300.7 119.1" enable-background="new 0 0 300.7 119.1" xml:space="preserve">
<g>
	<g>
		<path fill="#FFFFFF" d="M129.9,49.2L129.8,24h3.2v30.2h-3.2l-17.3-25.4l0.1,25.4h-3.2V23.9h3.4L129.9,49.2z"/>
		<path fill="#FFFFFF" d="M136.8,24h16v3h-12.7v10.4h12.6v2.9h-12.6v10.8h12.7V54h-16V24z"/>
		<path fill="#FFFFFF" d="M154.4,39.2c0-9.3,7.2-15.7,15.7-15.7c8.8,0,15.7,6.7,15.7,15.6c0,8.8-6.9,15.6-15.7,15.6
			C161.2,54.7,154.4,47.8,154.4,39.2L154.4,39.2z M157.7,39.1c0,7.1,5.3,12.6,12.4,12.6s12.4-5.7,12.4-12.6s-5.2-12.6-12.4-12.6
			C162.9,26.4,157.7,32.1,157.7,39.1L157.7,39.1z"/>
		<path fill="#FFFFFF" d="M213.6,31.8c-0.9-1.3-2.1-2.4-3.4-3.2c-1.9-1.3-4.3-2.1-7-2.1c-6.6,0-12.4,5-12.4,12.6
			c0,7.7,5.8,12.7,12.4,12.7c3.2,0,6-1.1,8-2.7c2.1-1.7,3.6-3.9,4.1-6.3h-16.4V40h20.4c-0.1,1.8-0.5,3.9-1.3,5.8
			c-2.6,5.6-8.7,9-14.7,9c-8.8,0-15.8-6.7-15.8-15.7c0-9.1,7.1-15.6,15.8-15.6c6.1,0,11.8,3.4,14.2,8.4L213.6,31.8L213.6,31.8
			L213.6,31.8z"/>
		<path fill="#FFFFFF" d="M221,24h16.7v3h-13.4v10.4h13.3v2.9h-13.3v10.8h13.4V54H221V24L221,24z"/>
		<path fill="#FFFFFF" d="M239,39.2c0-9.3,7.2-15.7,15.7-15.7c8.8,0,15.7,6.7,15.7,15.6c0,8.8-6.9,15.6-15.7,15.6
			C245.8,54.7,239,47.8,239,39.2L239,39.2z M242.4,39.1c0,7.1,5.3,12.6,12.4,12.6c7.1,0,12.4-5.7,12.4-12.6s-5.2-12.6-12.4-12.6
			C247.7,26.4,242.4,32.1,242.4,39.1L242.4,39.1L242.4,39.1z"/>
	</g>
	<g>
		<path fill="#FFFFFF" d="M84.3,82.7c0-11.8,9.2-20,20.1-20c11.3,0,20.1,8.7,20.1,20s-8.7,20-20.1,20
			C93.1,102.6,84.3,93.7,84.3,82.7L84.3,82.7z M88.7,82.6c0,9.1,6.8,16.2,15.9,16.2s15.8-7.4,15.8-16.2s-6.7-16.2-15.9-16.2
			C95.4,66.5,88.7,73.7,88.7,82.6L88.7,82.6L88.7,82.6z"/>
		<path fill="#FFFFFF" d="M167.6,91.5c-2.5,6-9.2,11.1-17.7,11.1c-11.4,0-20.1-8.8-20.1-20c0-11,8.5-20,20-20
			c9.5,0,15.6,6.3,17.7,11.2h-4.6c-1.3-2.3-5.6-7.4-13.2-7.4c-9,0-15.8,7.1-15.8,16.1c0,9.1,6.8,16.2,15.8,16.2
			c8,0,12.1-5.8,13.2-7.3L167.6,91.5L167.6,91.5z"/>
		<path fill="#FFFFFF" d="M209.8,63.3h21.4v3.8h-17.1v13.4H231v3.8h-16.9v13.8h17.1v3.8h-21.4L209.8,63.3L209.8,63.3z"/>
		<path fill="#FFFFFF" d="M252.9,67.2h-12.4v-3.8h29.2v3.8h-12.5v34.7h-4.3L252.9,67.2L252.9,67.2z"/>
	</g>
	<path fill="#FFFFFF" d="M199,101.9h5.3l-20-19.3l18.4-19.3H198l-20.2,20.9v-5V63.3h-4.3v38.5h4.3V89.3l3.9-4.1L199,101.9z"/>
	<path fill="#FFFFFF" d="M65.3,104.8c-8.4-16.7-16.7-33.3-25.1-50c0.1,0,0.1-0.1,0.2-0.1c2.1-1.1,4.2-2.2,6.3-3.2
		c2.9-1.5,5.9-3,8.8-4.5c3.1-1.6,6.3-2.6,9.9-2.4c2.4,0.1,4.6,0.8,6.5,2.2c1.7,1.3,2.9,2.9,3.8,4.9c0.9,1.8,1.5,3.7,1.5,5.7
		c0.1,2.8-0.8,5.3-2.3,7.7c-1,1.5-2.2,3-3.5,4.3c-0.9,0.9-1.9,1.7-2.9,2.6c-3.6-2.5-7-5-10.4-7.4c0.7-2.4,1.3-4.8,1.9-7.2
		c3.4,0,6.7,0,10,0c0-2.6,0-5,0-7.6c-5.2,0.1-10.3,0.1-15.4,0.2c-1.9,5.3-3.7,10.5-5.6,15.7c6,5,11.9,9.9,18,14.9
		c2.4-0.9,4.6-2,6.7-3.4c3.4-2.2,6.2-5,8.3-8.4c1.9-3.2,2.9-6.7,2.9-10.5c0-2.3-0.3-4.6-1-6.8c-0.9-2.9-2.3-5.6-4.5-7.9
		c-4-4.2-9-6.5-14.8-6.7c-3.5-0.2-6.7,0.6-9.7,2.2c-1.4,0.7-2.7,1.5-4.1,2.1c-3.1,1.5-6.2,2.9-9.4,4.4c-2.7,1.3-5.5,2.6-8.2,3.9
		c-0.9,0.5-1.9,0.9-2.8,1.3c9.3,19,18.6,38,27.9,56.9C60.6,106.8,62.9,105.9,65.3,104.8z"/>
	<path fill="#FFFFFF" d="M65.3,104.8c-2.3,1-4.6,2-7,3c-9.3-19-18.6-37.9-27.9-56.9c0.9-0.5,1.9-0.9,2.8-1.3
		c2.7-1.3,5.5-2.6,8.2-3.9c3.1-1.5,6.3-2.9,9.4-4.4c1.4-0.7,2.8-1.4,4.1-2.1c3.1-1.5,6.3-2.3,9.7-2.2c5.8,0.2,10.8,2.5,14.8,6.7
		c2.2,2.2,3.6,4.9,4.5,7.9c0.7,2.2,1,4.5,1,6.8c-0.1,3.7-1,7.3-2.9,10.5c-2.1,3.5-4.9,6.2-8.3,8.4c-2.1,1.4-4.3,2.5-6.7,3.4
		c-6-5.1-11.9-10.1-17.9-15c1.9-5.3,3.7-10.4,5.6-15.7c5.1-0.1,10.2-0.1,15.4-0.2c0,2.6,0,5,0,7.6c-3.3,0-6.7,0-10,0
		c-0.6,2.4-1.3,4.8-1.9,7.2c3.5,2.5,7,5,10.4,7.4c0.9-0.9,1.9-1.7,2.9-2.6c1.3-1.3,2.5-2.7,3.5-4.3c1.5-2.4,2.4-4.9,2.3-7.7
		c0-2-0.7-3.9-1.5-5.7c-0.9-1.9-2.1-3.6-3.8-4.9c-1.9-1.5-4.2-2.2-6.6-2.2c-3.5-0.1-6.7,0.9-9.9,2.4c-2.9,1.5-5.9,3-8.8,4.5
		c-2.1,1.1-4.2,2.2-6.3,3.2c-0.1,0-0.1,0.1-0.2,0.1C48.5,71.5,56.9,88.2,65.3,104.8z"/>
	<path fill="#FFFFFF" d="M71.2,31.8c-1.7-0.3-3.3-0.7-5-1c1-6.5,1.9-13,2.9-19.5c3,0.5,6,0.9,9.1,1.3C75.9,19,73.6,25.3,71.2,31.8z"
		/>
	<path fill="#FFFFFF" d="M98.3,26.5c1.6,2.6,3.2,5.2,4.8,7.8c-5.3,3.2-10.5,6.5-15.9,9.8c-1.1-1.6-2.2-3.2-3.3-5
		C88.8,34.9,93.5,30.7,98.3,26.5z"/>
	<path fill="#FFFFFF" d="M85.6,16.3c2.3,1.6,4.6,3.2,7,4.8c-4.2,5-8.3,9.9-12.5,14.9c-1.5-0.9-2.9-1.8-4.4-2.7
		C79,27.6,82.2,21.9,85.6,16.3z"/>
</g>
</svg>
