<?xml version="1.0" encoding="UTF-8" standalone="no"?>
<!-- Generator: Adobe Illustrator 21.1.0, SVG Export Plug-In . SVG Version: 6.00 Build 0)  -->

<svg
   xmlns:dc="http://purl.org/dc/elements/1.1/"
   xmlns:cc="http://creativecommons.org/ns#"
   xmlns:rdf="http://www.w3.org/1999/02/22-rdf-syntax-ns#"
   xmlns:svg="http://www.w3.org/2000/svg"
   xmlns="http://www.w3.org/2000/svg"
   xmlns:sodipodi="http://sodipodi.sourceforge.net/DTD/sodipodi-0.dtd"
   xmlns:inkscape="http://www.inkscape.org/namespaces/inkscape"
   version="1.0"
   id="Ebene_3"
   x="0px"
   y="0px"
   width="334"
   height="110.5"
   viewBox="0 0 333.99999 110.5"
   enable-background="new 0 0 405.1 118"
   xml:space="preserve"
   sodipodi:docname="ngpc.svg"
   inkscape:version="0.92.2 (unknown)"><metadata
     id="metadata302"><rdf:RDF><cc:Work
         rdf:about=""><dc:format>image/svg+xml</dc:format><dc:type
           rdf:resource="http://purl.org/dc/dcmitype/StillImage" /></cc:Work></rdf:RDF></metadata><defs
     id="defs300" /><sodipodi:namedview
     pagecolor="#ffffff"
     bordercolor="#666666"
     borderopacity="1"
     objecttolerance="10"
     gridtolerance="10"
     guidetolerance="10"
     inkscape:pageopacity="0"
     inkscape:pageshadow="2"
     inkscape:window-width="640"
     inkscape:window-height="480"
     id="namedview298"
     showgrid="false"
     fit-margin-top="0"
     fit-margin-left="0"
     fit-margin-right="0"
     fit-margin-bottom="0"
     inkscape:zoom="0.67390767"
     inkscape:cx="166.95"
     inkscape:cy="55.200001"
     inkscape:window-x="0"
     inkscape:window-y="0"
     inkscape:window-maximized="0"
     inkscape:current-layer="Ebene_3" /><g
     id="g295"
     transform="translate(-35.6,-3.7)"><g
       id="g261"><path
         d="M 55.6,67.8 55.5,43.3 h 3.2 V 72.6 H 55.5 L 38.6,48 38.7,72.7 H 35.6 V 43.3 H 39 Z"
         id="path249"
         inkscape:connector-curvature="0"
         style="fill:#ffffff" /><path
         d="m 62.3,43.3 h 15.6 v 2.9 H 65.6 v 10.2 h 12.3 v 2.9 H 65.6 v 10.5 h 12.3 v 2.9 H 62.3 Z"
         id="path251"
         inkscape:connector-curvature="0"
         style="fill:#ffffff" /><path
         d="m 79.3,58.1 c 0,-9 7,-15.3 15.3,-15.3 8.6,0 15.3,6.6 15.3,15.2 0,8.6 -6.7,15.2 -15.3,15.2 C 86,73.2 79.3,66.5 79.3,58.1 Z M 82.6,58 c 0,6.9 5.2,12.3 12.1,12.3 7,0 12,-5.6 12,-12.3 0,-6.7 -5.1,-12.3 -12.1,-12.3 -6.9,0.1 -12,5.5 -12,12.3 z"
         id="path253"
         inkscape:connector-curvature="0"
         style="fill:#ffffff" /><path
         d="m 137,51 c -0.9,-1.3 -2,-2.4 -3.3,-3.2 -1.9,-1.3 -4.2,-2.1 -6.8,-2.1 -6.4,0 -12,4.9 -12,12.3 0,7.5 5.7,12.4 12.1,12.4 3.1,0 5.8,-1.1 7.8,-2.7 2.1,-1.6 3.5,-3.8 3.9,-6.1 h -16 v -2.7 h 19.8 c -0.1,1.7 -0.4,3.8 -1.3,5.7 -2.5,5.5 -8.4,8.7 -14.3,8.7 -8.5,0 -15.3,-6.6 -15.3,-15.3 0,-8.8 6.9,-15.1 15.4,-15.1 6,0 11.4,3.4 13.8,8.1 z"
         id="path255"
         inkscape:connector-curvature="0"
         style="fill:#ffffff" /><path
         d="m 144.1,43.3 h 16.3 v 2.9 h -13 v 10.2 h 12.9 v 2.9 h -12.9 v 10.5 h 13 v 2.9 h -16.3 z"
         id="path257"
         inkscape:connector-curvature="0"
         style="fill:#ffffff" /><path
         d="m 161.7,58.1 c 0,-9 7,-15.3 15.3,-15.3 8.6,0 15.3,6.6 15.3,15.2 0,8.6 -6.7,15.2 -15.3,15.2 -8.7,0 -15.3,-6.7 -15.3,-15.1 z M 165,58 c 0,6.9 5.2,12.3 12.1,12.3 7,0 12,-5.6 12,-12.3 0,-6.7 -5.1,-12.3 -12.1,-12.3 -6.9,0.1 -12,5.5 -12,12.3 z"
         id="path259"
         inkscape:connector-curvature="0"
         style="fill:#ffffff" /></g><g
       id="g271"><path
         d="m 228.5,58.1 c 0,-9 7,-15.3 15.3,-15.3 8.6,0 15.3,6.6 15.3,15.2 0,8.6 -6.7,15.2 -15.3,15.2 -8.7,0 -15.3,-6.7 -15.3,-15.1 z m 3.3,-0.1 c 0,6.9 5.2,12.3 12.1,12.3 7,0 12,-5.6 12,-12.3 0,-6.7 -5.1,-12.3 -12.1,-12.3 -6.9,0.1 -12,5.5 -12,12.3 z"
         id="path263"
         inkscape:connector-curvature="0"
         style="fill:#ffffff" /><path
         d="m 291.9,64.8 c -1.9,4.5 -7,8.4 -13.5,8.4 -8.7,0 -15.3,-6.7 -15.3,-15.2 0,-8.4 6.5,-15.2 15.3,-15.2 7.2,0 11.8,4.8 13.5,8.5 h -3.5 c -1,-1.8 -4.3,-5.7 -10,-5.7 -6.8,0 -12,5.4 -12,12.3 0,7 5.2,12.3 12,12.3 6.1,0 9.3,-4.4 10,-5.5 z"
         id="path265"
         inkscape:connector-curvature="0"
         style="fill:#ffffff" /><path
         d="m 324,43.3 h 16.3 v 2.9 h -13 v 10.2 h 12.9 v 2.9 h -12.9 v 10.5 h 13 v 2.9 H 324 Z"
         id="path267"
         inkscape:connector-curvature="0"
         style="fill:#ffffff" /><path
         d="m 356.8,46.3 h -9.4 v -2.9 h 22.2 v 2.9 h -9.5 v 26.5 h -3.3 z"
         id="path269"
         inkscape:connector-curvature="0"
         style="fill:#ffffff" /></g><path
       d="m 161.8,107.1 c -1.2,4.1 -5.1,7.1 -9.7,7.1 -6.1,0 -10.4,-4.8 -10.4,-10.4 0,-5.3 4.1,-10.3 10.4,-10.3 5.7,0 9,4.2 9.8,7.1 h -4.2 c -0.6,-1.4 -2.4,-3.6 -5.5,-3.7 -3.9,0 -6.4,3.2 -6.4,6.8 0,3.7 2.6,6.8 6.4,6.8 3.5,0 5.2,-2.8 5.5,-3.5 z"
       id="path273"
       inkscape:connector-curvature="0"
       style="fill:#ffffff" /><path
       d="m 172.6,104 c 0,-6.4 4.9,-10.5 10.4,-10.5 6,0 10.5,4.7 10.5,10.3 0,5.7 -4.4,10.3 -10.5,10.3 -6.1,0.1 -10.4,-4.8 -10.4,-10.1 z m 4,-0.2 c 0,3.7 2.6,6.8 6.5,6.8 4,0 6.4,-3.5 6.4,-6.8 0,-3.4 -2.4,-6.8 -6.4,-6.8 -4.1,0 -6.5,3.3 -6.5,6.8 z"
       id="path275"
       inkscape:connector-curvature="0"
       style="fill:#ffffff" /><path
       d="m 205.3,93.9 h 4 v 16.4 h 6.5 v 3.5 h -10.5 z"
       id="path277"
       inkscape:connector-curvature="0"
       style="fill:#ffffff" /><path
       d="m 225.7,104 c 0,-6.4 4.9,-10.5 10.4,-10.5 6,0 10.5,4.7 10.5,10.3 0,5.7 -4.4,10.3 -10.5,10.3 -6.1,0.1 -10.4,-4.8 -10.4,-10.1 z m 4,-0.2 c 0,3.7 2.6,6.8 6.5,6.8 4,0 6.4,-3.5 6.4,-6.8 0,-3.4 -2.4,-6.8 -6.4,-6.8 -4.1,0 -6.5,3.3 -6.5,6.8 z"
       id="path279"
       inkscape:connector-curvature="0"
       style="fill:#ffffff" /><path
       d="m 315.8,72.7 h 4.1 L 304.6,58 318.6,43.4 H 315 L 299.6,59.3 V 55.5 43.3 h -3.2 v 29.3 h 3.2 v -9.5 l 3,-3.1 z"
       id="path281"
       inkscape:connector-curvature="0"
       style="fill:#ffffff" /><path
       d="m 262.9,93.9 c 2.2,0.1 4.2,0.2 6,1.6 0.5,0.4 0.9,0.9 1.2,1.4 0.9,1.4 1,3 1,3.5 0,0.5 -0.1,1.8 -0.8,3.1 -0.2,0.3 -0.5,0.8 -1.1,1.3 -0.6,0.6 -1.4,0.9 -1.6,1 -0.5,0.2 -1,0.4 -2.1,0.6 l 5.8,7.8 h -4.5 l -5.6,-7.7 v 7.7 h -4.1 V 93.9 Z m -1.6,9.6 h 2 c 0.2,0 0.4,0 0.6,0 0.4,0 1.9,-0.1 2.8,-1.2 0.2,-0.3 0.6,-0.9 0.6,-1.9 0,-0.3 0,-1.1 -0.5,-1.8 -0.9,-1.2 -2.2,-1.3 -3.7,-1.4 h -1.9 v 6.3 z"
       id="path283"
       inkscape:connector-curvature="0"
       style="fill:#ffffff" /><path
       d="m 214,74.9 c -6.4,-12.7 -12.7,-25.4 -19.1,-38.1 0.1,0 0.1,-0.1 0.1,-0.1 1.6,-0.8 3.2,-1.6 4.8,-2.4 2.2,-1.1 4.5,-2.3 6.7,-3.4 2.4,-1.2 4.8,-1.9 7.5,-1.8 1.8,0.1 3.5,0.6 4.9,1.7 1.3,1 2.2,2.2 2.9,3.7 0.6,1.4 1.1,2.8 1.2,4.4 0.1,2.1 -0.6,4.1 -1.8,5.9 -0.8,1.2 -1.6,2.3 -2.7,3.3 -0.7,0.6 -1.5,1.3 -2.2,1.9 -2.7,-1.9 -5.3,-3.8 -8,-5.7 0.5,-1.8 1,-3.7 1.5,-5.5 2.6,0 5.1,0 7.6,0 0,-1.9 0,-3.8 0,-5.8 -3.9,0.1 -7.8,0.1 -11.7,0.1 -1.4,4 -2.8,8 -4.2,12 4.5,3.8 9.1,7.5 13.7,11.3 1.8,-0.7 3.5,-1.5 5.1,-2.6 2.6,-1.6 4.7,-3.8 6.3,-6.4 1.5,-2.5 2.2,-5.1 2.2,-8 0,-1.8 -0.2,-3.5 -0.8,-5.2 -0.7,-2.2 -1.8,-4.3 -3.4,-6 -3.1,-3.2 -6.8,-4.9 -11.3,-5.1 -2.7,-0.1 -5.1,0.5 -7.4,1.6 -1.1,0.5 -2.1,1.1 -3.1,1.6 -2.4,1.1 -4.7,2.2 -7.1,3.4 -2.1,1 -4.2,2 -6.2,2.9 -0.7,0.4 -1.4,0.6 -2.1,1 7.1,14.5 14.2,28.9 21.3,43.4 1.8,-0.5 3.5,-1.3 5.3,-2.1 z"
       id="path285"
       inkscape:connector-curvature="0"
       style="fill:#ffffff" /><path
       d="m 214,74.9 c -1.8,0.8 -3.5,1.5 -5.4,2.3 -7.1,-14.4 -14.2,-28.9 -21.3,-43.4 0.7,-0.4 1.4,-0.6 2.1,-1 2.1,-1 4.2,-2 6.2,-2.9 2.4,-1.1 4.8,-2.2 7.1,-3.4 1.1,-0.5 2.1,-1.1 3.1,-1.6 2.4,-1.2 4.8,-1.8 7.4,-1.6 4.4,0.2 8.2,1.9 11.3,5.1 1.6,1.7 2.7,3.7 3.4,6 0.5,1.7 0.8,3.4 0.8,5.2 -0.1,2.8 -0.8,5.5 -2.2,8 -1.6,2.7 -3.7,4.7 -6.3,6.4 -1.6,1.1 -3.3,1.9 -5.1,2.6 -4.5,-3.8 -9.1,-7.5 -13.7,-11.3 1.4,-4 2.8,-8 4.2,-12 3.9,-0.1 7.8,-0.1 11.7,-0.1 0,1.9 0,3.8 0,5.8 -2.5,0 -5.1,0 -7.6,0 -0.5,1.8 -1,3.7 -1.5,5.5 2.7,1.9 5.3,3.8 8,5.7 0.7,-0.6 1.5,-1.3 2.2,-1.9 1,-1 1.9,-2.1 2.7,-3.3 1.2,-1.8 1.8,-3.7 1.8,-5.9 0,-1.5 -0.5,-2.9 -1.2,-4.4 -0.7,-1.5 -1.6,-2.7 -2.9,-3.7 -1.5,-1.1 -3.1,-1.6 -4.9,-1.7 -2.7,-0.1 -5.1,0.6 -7.5,1.8 -2.2,1.2 -4.5,2.3 -6.7,3.4 -1.6,0.8 -3.2,1.6 -4.8,2.4 -0.1,0 -0.1,0.1 -0.1,0.1 6.4,12.6 12.8,25.3 19.2,37.9 z"
       id="path287"
       inkscape:connector-curvature="0"
       style="fill:#ffffff" /><path
       d="m 218.5,19.3 c -1.3,-0.2 -2.5,-0.5 -3.8,-0.8 0.8,-4.9 1.5,-9.9 2.2,-14.8 2.3,0.4 4.6,0.6 7,1 -1.8,4.9 -3.6,9.8 -5.4,14.6 z"
       id="path289"
       inkscape:connector-curvature="0"
       style="fill:#ffffff" /><path
       d="m 239.1,15.3 c 1.2,2 2.4,3.9 3.7,6 -4,2.5 -8,4.9 -12.1,7.5 -0.8,-1.2 -1.6,-2.5 -2.5,-3.8 3.7,-3.3 7.3,-6.5 10.9,-9.7 z"
       id="path291"
       inkscape:connector-curvature="0"
       style="fill:#ffffff" /><path
       d="m 229.5,7.5 c 1.8,1.2 3.5,2.4 5.3,3.7 -3.2,3.8 -6.3,7.5 -9.5,11.3 -1.1,-0.7 -2.2,-1.4 -3.4,-2.1 2.5,-4.3 5,-8.6 7.6,-12.9 z"
       id="path293"
       inkscape:connector-curvature="0"
       style="fill:#ffffff" /></g></svg>