<?xml version="1.0" encoding="utf-8"?>
<!-- Generator: Adobe Illustrator 21.1.0, SVG Export Plug-In . SVG Version: 6.00 Build 0)  -->
<svg version="1.0" id="Ebene_3" xmlns="http://www.w3.org/2000/svg" xmlns:xlink="http://www.w3.org/1999/xlink" x="0px" y="0px"
	 width="405.1px" height="118px" viewBox="0 0 405.1 118" enable-background="new 0 0 405.1 118" xml:space="preserve">
<g>
	<g>
		<path fill="#FFFFFF" d="M55.6,67.8l-0.1-24.5h3.2v29.3h-3.2L38.6,48l0.1,24.7h-3.1V43.3H39L55.6,67.8z"/>
		<path fill="#FFFFFF" d="M62.3,43.3h15.6v2.9H65.6v10.2h12.3v2.9H65.6v10.5h12.3v2.9H62.3V43.3z"/>
		<path fill="#FFFFFF" d="M79.3,58.1c0-9,7-15.3,15.3-15.3c8.6,0,15.3,6.6,15.3,15.2s-6.7,15.2-15.3,15.2S79.3,66.5,79.3,58.1
			L79.3,58.1z M82.6,58c0,6.9,5.2,12.3,12.1,12.3c7,0,12-5.6,12-12.3s-5.1-12.3-12.1-12.3C87.7,45.8,82.6,51.2,82.6,58L82.6,58z"/>
		<path fill="#FFFFFF" d="M137,51c-0.9-1.3-2-2.4-3.3-3.2c-1.9-1.3-4.2-2.1-6.8-2.1c-6.4,0-12,4.9-12,12.3c0,7.5,5.7,12.4,12.1,12.4
			c3.1,0,5.8-1.1,7.8-2.7c2.1-1.6,3.5-3.8,3.9-6.1h-16v-2.7h19.8c-0.1,1.7-0.4,3.8-1.3,5.7c-2.5,5.5-8.4,8.7-14.3,8.7
			c-8.5,0-15.3-6.6-15.3-15.3c0-8.8,6.9-15.1,15.4-15.1c6,0,11.4,3.4,13.8,8.1H137L137,51L137,51z"/>
		<path fill="#FFFFFF" d="M144.1,43.3h16.3v2.9h-13v10.2h12.9v2.9h-12.9v10.5h13v2.9h-16.3V43.3z"/>
		<path fill="#FFFFFF" d="M161.7,58.1c0-9,7-15.3,15.3-15.3c8.6,0,15.3,6.6,15.3,15.2s-6.7,15.2-15.3,15.2
			C168.3,73.2,161.7,66.5,161.7,58.1L161.7,58.1z M165,58c0,6.9,5.2,12.3,12.1,12.3c7,0,12-5.6,12-12.3S184,45.7,177,45.7
			C170.1,45.8,165,51.2,165,58L165,58L165,58z"/>
	</g>
	<g>
		<path fill="#FFFFFF" d="M228.5,58.1c0-9,7-15.3,15.3-15.3c8.6,0,15.3,6.6,15.3,15.2s-6.7,15.2-15.3,15.2
			C235.1,73.2,228.5,66.5,228.5,58.1L228.5,58.1z M231.8,58c0,6.9,5.2,12.3,12.1,12.3c7,0,12-5.6,12-12.3s-5.1-12.3-12.1-12.3
			C236.9,45.8,231.8,51.2,231.8,58L231.8,58L231.8,58z"/>
		<path fill="#FFFFFF" d="M291.9,64.8c-1.9,4.5-7,8.4-13.5,8.4c-8.7,0-15.3-6.7-15.3-15.2c0-8.4,6.5-15.2,15.3-15.2
			c7.2,0,11.8,4.8,13.5,8.5h-3.5c-1-1.8-4.3-5.7-10-5.7c-6.8,0-12,5.4-12,12.3c0,7,5.2,12.3,12,12.3c6.1,0,9.3-4.4,10-5.5
			L291.9,64.8L291.9,64.8z"/>
		<path fill="#FFFFFF" d="M324,43.3h16.3v2.9h-13v10.2h12.9v2.9h-12.9v10.5h13v2.9H324V43.3L324,43.3z"/>
		<path fill="#FFFFFF" d="M356.8,46.3h-9.4v-2.9h22.2v2.9h-9.5v26.5h-3.3L356.8,46.3L356.8,46.3z"/>
	</g>
	<path fill="#FFFFFF" d="M161.8,107.1c-1.2,4.1-5.1,7.1-9.7,7.1c-6.1,0-10.4-4.8-10.4-10.4c0-5.3,4.1-10.3,10.4-10.3
		c5.7,0,9,4.2,9.8,7.1h-4.2c-0.6-1.4-2.4-3.6-5.5-3.7c-3.9,0-6.4,3.2-6.4,6.8c0,3.7,2.6,6.8,6.4,6.8c3.5,0,5.2-2.8,5.5-3.5
		L161.8,107.1L161.8,107.1z"/>
	<path fill="#FFFFFF" d="M172.6,104c0-6.4,4.9-10.5,10.4-10.5c6,0,10.5,4.7,10.5,10.3c0,5.7-4.4,10.3-10.5,10.3
		C176.9,114.2,172.6,109.3,172.6,104L172.6,104L172.6,104z M176.6,103.8c0,3.7,2.6,6.8,6.5,6.8c4,0,6.4-3.5,6.4-6.8
		c0-3.4-2.4-6.8-6.4-6.8C179,97,176.6,100.3,176.6,103.8L176.6,103.8z"/>
	<path fill="#FFFFFF" d="M205.3,93.9h4v16.4h6.5v3.5h-10.5V93.9z"/>
	<path fill="#FFFFFF" d="M225.7,104c0-6.4,4.9-10.5,10.4-10.5c6,0,10.5,4.7,10.5,10.3c0,5.7-4.4,10.3-10.5,10.3
		C230,114.2,225.7,109.3,225.7,104L225.7,104z M229.7,103.8c0,3.7,2.6,6.8,6.5,6.8c4,0,6.4-3.5,6.4-6.8c0-3.4-2.4-6.8-6.4-6.8
		C232.1,97,229.7,100.3,229.7,103.8L229.7,103.8L229.7,103.8z"/>
	<path fill="#FFFFFF" d="M315.8,72.7h4.1L304.6,58l14-14.6H315l-15.4,15.9v-3.8V43.3h-3.2v29.3h3.2v-9.5l3-3.1L315.8,72.7z"/>
	<path fill="#FFFFFF" d="M262.9,93.9c2.2,0.1,4.2,0.2,6,1.6c0.5,0.4,0.9,0.9,1.2,1.4c0.9,1.4,1,3,1,3.5s-0.1,1.8-0.8,3.1
		c-0.2,0.3-0.5,0.8-1.1,1.3c-0.6,0.6-1.4,0.9-1.6,1c-0.5,0.2-1,0.4-2.1,0.6l5.8,7.8h-4.5l-5.6-7.7v7.7h-4.1V93.9H262.9L262.9,93.9z
		 M261.3,103.5h2c0.2,0,0.4,0,0.6,0c0.4,0,1.9-0.1,2.8-1.2c0.2-0.3,0.6-0.9,0.6-1.9c0-0.3,0-1.1-0.5-1.8c-0.9-1.2-2.2-1.3-3.7-1.4
		h-1.9v6.3H261.3L261.3,103.5z"/>
	<path fill="#FFFFFF" d="M214,74.9c-6.4-12.7-12.7-25.4-19.1-38.1c0.1,0,0.1-0.1,0.1-0.1c1.6-0.8,3.2-1.6,4.8-2.4
		c2.2-1.1,4.5-2.3,6.7-3.4c2.4-1.2,4.8-1.9,7.5-1.8c1.8,0.1,3.5,0.6,4.9,1.7c1.3,1,2.2,2.2,2.9,3.7c0.6,1.4,1.1,2.8,1.2,4.4
		c0.1,2.1-0.6,4.1-1.8,5.9c-0.8,1.2-1.6,2.3-2.7,3.3c-0.7,0.6-1.5,1.3-2.2,1.9c-2.7-1.9-5.3-3.8-8-5.7c0.5-1.8,1-3.7,1.5-5.5
		c2.6,0,5.1,0,7.6,0c0-1.9,0-3.8,0-5.8c-3.9,0.1-7.8,0.1-11.7,0.1c-1.4,4-2.8,8-4.2,12c4.5,3.8,9.1,7.5,13.7,11.3
		c1.8-0.7,3.5-1.5,5.1-2.6c2.6-1.6,4.7-3.8,6.3-6.4c1.5-2.5,2.2-5.1,2.2-8c0-1.8-0.2-3.5-0.8-5.2c-0.7-2.2-1.8-4.3-3.4-6
		c-3.1-3.2-6.8-4.9-11.3-5.1c-2.7-0.1-5.1,0.5-7.4,1.6c-1.1,0.5-2.1,1.1-3.1,1.6c-2.4,1.1-4.7,2.2-7.1,3.4c-2.1,1-4.2,2-6.2,2.9
		c-0.7,0.4-1.4,0.6-2.1,1c7.1,14.5,14.2,28.9,21.3,43.4C210.5,76.5,212.2,75.7,214,74.9z"/>
	<path fill="#FFFFFF" d="M214,74.9c-1.8,0.8-3.5,1.5-5.4,2.3c-7.1-14.4-14.2-28.9-21.3-43.4c0.7-0.4,1.4-0.6,2.1-1
		c2.1-1,4.2-2,6.2-2.9c2.4-1.1,4.8-2.2,7.1-3.4c1.1-0.5,2.1-1.1,3.1-1.6c2.4-1.2,4.8-1.8,7.4-1.6c4.4,0.2,8.2,1.9,11.3,5.1
		c1.6,1.7,2.7,3.7,3.4,6c0.5,1.7,0.8,3.4,0.8,5.2c-0.1,2.8-0.8,5.5-2.2,8c-1.6,2.7-3.7,4.7-6.3,6.4c-1.6,1.1-3.3,1.9-5.1,2.6
		c-4.5-3.8-9.1-7.5-13.7-11.3c1.4-4,2.8-8,4.2-12c3.9-0.1,7.8-0.1,11.7-0.1c0,1.9,0,3.8,0,5.8c-2.5,0-5.1,0-7.6,0
		c-0.5,1.8-1,3.7-1.5,5.5c2.7,1.9,5.3,3.8,8,5.7c0.7-0.6,1.5-1.3,2.2-1.9c1-1,1.9-2.1,2.7-3.3c1.2-1.8,1.8-3.7,1.8-5.9
		c0-1.5-0.5-2.9-1.2-4.4s-1.6-2.7-2.9-3.7c-1.5-1.1-3.1-1.6-4.9-1.7c-2.7-0.1-5.1,0.6-7.5,1.8c-2.2,1.2-4.5,2.3-6.7,3.4
		c-1.6,0.8-3.2,1.6-4.8,2.4c-0.1,0-0.1,0.1-0.1,0.1C201.2,49.6,207.6,62.3,214,74.9z"/>
	<path fill="#FFFFFF" d="M218.5,19.3c-1.3-0.2-2.5-0.5-3.8-0.8c0.8-4.9,1.5-9.9,2.2-14.8c2.3,0.4,4.6,0.6,7,1
		C222.1,9.6,220.3,14.5,218.5,19.3z"/>
	<path fill="#FFFFFF" d="M239.1,15.3c1.2,2,2.4,3.9,3.7,6c-4,2.5-8,4.9-12.1,7.5c-0.8-1.2-1.6-2.5-2.5-3.8
		C231.9,21.7,235.5,18.5,239.1,15.3z"/>
	<path fill="#FFFFFF" d="M229.5,7.5c1.8,1.2,3.5,2.4,5.3,3.7c-3.2,3.8-6.3,7.5-9.5,11.3c-1.1-0.7-2.2-1.4-3.4-2.1
		C224.4,16.1,226.9,11.8,229.5,7.5z"/>
</g>
</svg>
