<?xml version="1.0" encoding="UTF-8" standalone="no"?>
<svg
   xmlns:dc="http://purl.org/dc/elements/1.1/"
   xmlns:cc="http://creativecommons.org/ns#"
   xmlns:rdf="http://www.w3.org/1999/02/22-rdf-syntax-ns#"
   xmlns:svg="http://www.w3.org/2000/svg"
   xmlns="http://www.w3.org/2000/svg"
   xmlns:sodipodi="http://sodipodi.sourceforge.net/DTD/sodipodi-0.dtd"
   xmlns:inkscape="http://www.inkscape.org/namespaces/inkscape"
   inkscape:version="1.0 (4035a4fb49, 2020-05-01)"
   sodipodi:docname="oric.svg"
   xml:space="preserve"
   enable-background="new 0 0 566.924 121.752"
   viewBox="0 0 404.40099 126.001"
   height="126.001"
   width="404.401"
   y="0px"
   x="0px"
   id="Layer_3"
   version="1.1"><metadata
     id="metadata83"><rdf:RDF><cc:Work
         rdf:about=""><dc:format>image/svg+xml</dc:format><dc:type
           rdf:resource="http://purl.org/dc/dcmitype/StillImage" /><dc:title></dc:title></cc:Work></rdf:RDF></metadata><defs
     id="defs81" /><sodipodi:namedview
     lock-margins="true"
     inkscape:document-rotation="0"
     inkscape:current-layer="Layer_3"
     inkscape:window-maximized="1"
     inkscape:window-y="-8"
     inkscape:window-x="-8"
     inkscape:cy="63.198001"
     inkscape:cx="-117.3416"
     inkscape:zoom="0.48154602"
     fit-margin-bottom="5"
     fit-margin-right="5"
     fit-margin-left="5"
     fit-margin-top="5"
     inkscape:pagecheckerboard="true"
     showgrid="false"
     id="namedview79"
     inkscape:window-height="1017"
     inkscape:window-width="1920"
     inkscape:pageshadow="2"
     inkscape:pageopacity="0"
     guidetolerance="10"
     gridtolerance="10"
     objecttolerance="10"
     borderopacity="1"
     bordercolor="#666666"
     pagecolor="#ffffff" /><g
     transform="translate(-79.962,1.927)"
     style="display:inline;fill:#ffffff;fill-opacity:1;stroke:none"
     id="g76"><g
       style="fill:#ffffff;fill-opacity:1;stroke:none"
       id="g74"><g
         style="fill:#ffffff;fill-opacity:1;stroke:none"
         id="g19"><g
           style="fill:#ffffff;fill-opacity:1;stroke:none"
           id="g17"><linearGradient
             gradientTransform="translate(155)"
             y2="118.2725"
             x2="-8.1710997"
             y1="2.5585999"
             x1="-8.1710997"
             gradientUnits="userSpaceOnUse"
             id="SVGID_1_"><stop
               id="stop2"
               style="stop-color:#B2B2B4"
               offset="0" /><stop
               id="stop4"
               style="stop-color:#B2B2B4"
               offset="0.3516" /><stop
               id="stop6"
               style="stop-color:#9BA29A"
               offset="0.3571" /><stop
               id="stop8"
               style="stop-color:#9BA29A"
               offset="0.6758" /><stop
               id="stop10"
               style="stop-color:#717274"
               offset="0.6813" /><stop
               id="stop12"
               style="stop-color:#717274"
               offset="1" /></linearGradient><path
             style="fill:#ffffff;fill-opacity:1;stroke:none"
             inkscape:connector-curvature="0"
             id="path15"
             d="m 146.829,3.073 c -38.667,0 -61.867,30.933 -61.867,58 0,27.067 19.333,58 61.867,58 34.8,0 61.867,-30.933 61.867,-58 0,-27.067 -23.2,-58 -61.867,-58 z m 0,96.666 c -19.333,0 -30.933,-11.599 -30.933,-38.666 0,-27.067 11.6,-38.667 30.933,-38.667 19.333,0 30.934,11.601 30.934,38.667 -0.001,27.068 -11.601,38.666 -30.934,38.666 z" /></g></g><g
         style="fill:#ffffff;fill-opacity:1;stroke:none"
         id="g36"><linearGradient
           y2="118.2725"
           x2="427.1633"
           y1="2.5585999"
           x1="427.1633"
           gradientUnits="userSpaceOnUse"
           id="SVGID_2_"><stop
             id="stop21"
             style="stop-color:#B2B2B4"
             offset="0" /><stop
             id="stop23"
             style="stop-color:#B2B2B4"
             offset="0.3516" /><stop
             id="stop25"
             style="stop-color:#9BA29A"
             offset="0.3571" /><stop
             id="stop27"
             style="stop-color:#9BA29A"
             offset="0.6758" /><stop
             id="stop29"
             style="stop-color:#717274"
             offset="0.6813" /><stop
             id="stop31"
             style="stop-color:#717274"
             offset="1" /></linearGradient><path
           style="fill:#ffffff;fill-opacity:1;stroke:none"
           inkscape:connector-curvature="0"
           id="path34"
           d="m 444.564,119.073 c -42.534,0 -69.601,-23.2 -69.601,-58 0,-34.8 23.2,-58 61.866,-58 19.334,0 34.801,11.599 42.534,23.2 -3.866,7.733 -19.333,19.334 -19.333,19.334 -3.867,0 -7.734,-3.868 -7.734,-3.868 0,-7.733 3.867,-19.333 -15.467,-19.333 -19.332,0 -30.934,7.733 -30.934,38.667 0,23.2 19.334,38.666 38.668,38.666 3.866,0 11.6,0 11.6,0 3.867,-3.866 7.733,-7.733 7.733,-11.599 7.733,0 7.733,0 7.733,0 v 30.933 c 10e-4,0 -11.598,0 -27.065,0 z" /></g><g
         style="fill:#ffffff;fill-opacity:1;stroke:none"
         id="g55"><g
           style="fill:#ffffff;fill-opacity:1;stroke:none"
           id="g53"><linearGradient
             gradientTransform="translate(155)"
             y2="118.2725"
             x2="113.6296"
             y1="2.5585999"
             x1="113.6296"
             gradientUnits="userSpaceOnUse"
             id="SVGID_3_"><stop
               id="stop38"
               style="stop-color:#B2B2B4"
               offset="0" /><stop
               id="stop40"
               style="stop-color:#B2B2B4"
               offset="0.3516" /><stop
               id="stop42"
               style="stop-color:#9BA29A"
               offset="0.3571" /><stop
               id="stop44"
               style="stop-color:#9BA29A"
               offset="0.6758" /><stop
               id="stop46"
               style="stop-color:#717274"
               offset="0.6813" /><stop
               id="stop48"
               style="stop-color:#717274"
               offset="1" /></linearGradient><path
             style="fill:#ffffff;fill-opacity:1;stroke:none"
             inkscape:connector-curvature="0"
             id="path51"
             d="m 313.096,107.473 c -3.866,-3.866 -23.2,-38.666 -27.066,-42.533 11.601,0 27.066,-11.6 27.066,-30.933 0,-19.334 -15.466,-30.933 -30.933,-30.933 -15.467,0 -46.401,0 -65.734,0 v 7.733 c 7.733,0 7.733,11.599 7.733,11.599 0,0 0,77.333 0,81.201 0,3.866 -3.867,7.733 -7.733,7.733 v 7.733 h 41.083 c 0,0 0,-2.416 0,-7.733 -5.317,0 -6.283,-3.867 -6.283,-7.733 0,-3.867 0,-27.066 0,-34.8 3.866,0 7.733,0 11.6,3.866 3.867,3.867 11.6,27.066 15.466,34.8 3.868,7.733 7.734,11.601 11.6,11.601 3.867,0 15.467,0 23.2,0 7.733,0 7.733,-7.733 7.733,-7.733 0,0 -3.866,-10e-4 -7.732,-3.868 z m -46.4,-54.133 c -7.733,0 -15.466,0 -15.466,0 0,-15.466 0,-30.934 0,-30.934 0,0 7.733,0 15.466,0 7.733,0 15.467,3.867 15.467,15.468 0,11.599 -7.734,15.466 -15.467,15.466 z" /></g></g><g
         style="fill:#ffffff;fill-opacity:1;stroke:none"
         id="g72"><linearGradient
           y2="118.2728"
           x2="347.8967"
           y1="2.5590999"
           x1="347.8967"
           gradientUnits="userSpaceOnUse"
           id="SVGID_4_"><stop
             id="stop57"
             style="stop-color:#B2B2B4"
             offset="0" /><stop
             id="stop59"
             style="stop-color:#B2B2B4"
             offset="0.3516" /><stop
             id="stop61"
             style="stop-color:#9BA29A"
             offset="0.3571" /><stop
             id="stop63"
             style="stop-color:#9BA29A"
             offset="0.6758" /><stop
             id="stop65"
             style="stop-color:#717274"
             offset="0.6813" /><stop
             id="stop67"
             style="stop-color:#717274"
             offset="1" /></linearGradient><path
           style="fill:#ffffff;fill-opacity:1;stroke:none"
           inkscape:connector-curvature="0"
           id="path70"
           d="m 363.363,103.606 c 0,3.867 3.867,7.733 7.734,7.733 v 7.733 h -46.4 v -7.733 c 3.867,0 7.733,-3.866 7.733,-7.733 V 18.54 c 0,-3.867 -3.866,-7.733 -7.733,-7.733 V 3.073 h 46.4 v 7.733 c -3.867,0 -7.734,3.866 -7.734,7.733 z" /></g></g></g></svg>
