<?xml version="1.0" encoding="utf-8"?>
<!-- Generator: Adobe Illustrator 21.1.0, SVG Export Plug-In . SVG Version: 6.00 Build 0)  -->
<svg version="1.0"
	 id="Layer_1" inkscape:version="0.92.2 (unknown)" sodipodi:docname="arcade.svg" xmlns:cc="http://creativecommons.org/ns#" xmlns:dc="http://purl.org/dc/elements/1.1/" xmlns:inkscape="http://www.inkscape.org/namespaces/inkscape" xmlns:rdf="http://www.w3.org/1999/02/22-rdf-syntax-ns#" xmlns:sodipodi="http://sodipodi.sourceforge.net/DTD/sodipodi-0.dtd" xmlns:svg="http://www.w3.org/2000/svg"
	 xmlns="http://www.w3.org/2000/svg" xmlns:xlink="http://www.w3.org/1999/xlink" x="0px" y="0px" width="340px" height="96.2px"
	 viewBox="0 0 340 96.2" enable-background="new 0 0 340 96.2" xml:space="preserve">
<sodipodi:namedview  bordercolor="#666666" borderopacity="1" fit-margin-bottom="0" fit-margin-left="0" fit-margin-right="0" fit-margin-top="0" gridtolerance="10" guidetolerance="10" id="namedview35" inkscape:current-layer="Layer_1" inkscape:cx="-22.288274" inkscape:cy="48.05" inkscape:pageopacity="0" inkscape:pageshadow="2" inkscape:window-height="480" inkscape:window-maximized="0" inkscape:window-width="698" inkscape:window-x="0" inkscape:window-y="0" inkscape:zoom="0.57510005" objecttolerance="10" pagecolor="#ffffff" showgrid="false">
	</sodipodi:namedview>
<g>
	<path fill="#FFFFFF" d="M95.9,92.1c-6.6,0-13,0-19.6,0c0-21.3,0-42.5,0-63.6c-0.1,0-0.2-0.1-0.4-0.1c-0.2,0.4-0.4,0.9-0.5,1.3
		c-5.2,20-10.4,40-15.4,60c-0.5,1.9-1.2,2.6-3.2,2.6c-4.3-0.2-8.6-0.1-12.8,0c-1.5,0-2.1-0.4-2.4-1.9c-4.8-20.3-9.7-40.6-14.6-60.9
		c-0.1-0.5-0.3-0.9-0.7-1.4c0,21.2,0,42.3,0,63.8c-7.2,0-14.1,0-21.2,0c0-28.8,0-57.8,0-86.9c0.7,0,1.3-0.1,1.9-0.1
		c9.8,0,19.7,0,29.5-0.1c1.9,0,2.5,0.6,2.9,2.4c3.7,16.2,7.5,32.4,11.2,48.5c0.1,0.3,0.2,0.6,0.5,1.6c1.3-5.4,2.5-10.1,3.7-14.8
		c2.9-11.9,5.8-23.8,8.8-35.7c0.3-1,0.4-2,2-1.9c9.9,0.1,19.8,0.1,29.7,0.1c0.2,0,0.4,0.1,0.8,0.2C95.9,34,95.9,63,95.9,92.1z"/>
	<path fill="#FFFFFF" d="M169.7,28.9c-7.9,0-15.7,0-23.6,0c-0.2-0.5-0.3-0.9-0.5-1.4c-2.4-7.2-9.8-10.4-16.7-7
		c-4.2,2-4.9,6.6-1.3,9.5c1.5,1.2,3.4,2,5.3,2.5c7,2.1,14.2,3.8,21.1,6.1c9.6,3.3,16,9.9,17.8,20.3c2.9,16-9.1,32.1-25.3,34
		c-8.1,0.9-16.2,1.1-24.3-0.4c-7.1-1.3-12.5-5-16.5-10.8c-3.8-5.5-5.7-11.7-6.6-18.4c8.1,0,16,0,24,0c0.3,1.3,0.6,2.6,1,3.9
		c2.5,8.4,11.5,12.1,19.2,8c5.7-3,6.4-10.6,1.2-14.3c-2-1.4-4.5-2.5-6.9-3.1c-7.6-1.9-15.1-4.2-22.1-7.9
		c-9.2-4.9-13.8-12.6-13.2-22.8c0.5-10,6.1-16.9,15.1-21.1c5.8-2.7,12-3.5,18.3-3.2c6,0.3,12,0.6,17.6,2.8
		c10.1,3.9,15.6,11.3,16.4,22.1C169.8,28.1,169.7,28.4,169.7,28.9z"/>
	<path fill="#FFFFFF" d="M188.1,4.5c3,0,5.8,0,8.5,0c8.4-0.2,16.8-0.6,25.2-0.5c4.2,0.1,8.4,1.3,12.6,2c0.5,0.1,1,0.4,1.7,0.8
		c-0.5,0.6-0.8,1.1-1.2,1.4c-3.9,3.5-7.1,7.6-9.6,12.2c-0.7,1.2-1.4,1.7-2.8,1.7c-5.5-0.1-10.9,0-16.6,0c0,1.2,0,1.9,0,2.6
		c0,16.1,0.1,32.2,0.1,48.4c0,1.7,0.4,2.5,2.2,2.5c7.1,0.1,14.2,0.4,21.3,0.1c1.9-0.1,4-1.8,5.6-3.2c4.5-4.1,6.4-9.5,7-15.4
		c0.6-6.2,1-12.5,1.9-18.7c1-7.2,5.3-12.1,12.1-15.3c0.7,1.3,1.5,2.6,2.2,3.9c4.5,9.5,4.9,19.5,3.9,29.7
		c-1.1,10.2-5.6,18.6-12.6,25.8c-6,6.2-13.8,8.6-22,10c-3.1,0.5-6.4,0.6-9.6,0.5c-9.3-0.2-18.5-0.6-27.8-0.9c-1.5,0-2.1-0.4-2.1-2.1
		c0-27.8,0-55.6,0-83.5C188,6,188,5.5,188.1,4.5z"/>
	<path fill="#FFFFFF" d="M265.5,64.5c5.6,0,11.1,0,16.6,0.1c0.4,0,1.1,0.7,1.1,1.2c1.2,7,6.8,12.4,15.8,12.6
		c3.8,0.1,7.7-0.4,11.5-0.7c1-0.1,2-0.4,2.9-0.8c3.5-1.4,6.1-3.7,6.3-7.6c0.2-3.9-1.8-6.9-5.3-8.6c-1.4-0.7-1.7-1.5-1.7-2.9
		c0.3-5,0.5-10,0.7-14.9c0.3-0.1,0.5-0.2,0.7-0.2c6.8,1.5,13,4.1,18,9.2c6.1,6.3,7.3,18.6,2.8,27.3c-3.3,6.4-8.8,10.1-15.2,12.4
		c-13.1,4.7-26.2,4.5-38.9-1.2C270.7,85.7,264.7,75.4,265.5,64.5z"/>
	<path fill="#FFFFFF" d="M334.7,30.8c-5.9,0-11.6,0-17.4,0c-1.3-4.9-3.8-9-8.7-11c-7.4-3-14.7-2.6-21.2,2.4c-3.3,2.5-3.8,5-2.2,8.8
		c2.7,6.7,5,13.4,3.1,20.8c-0.1,0.4-0.2,0.8-0.4,1.4c-6.7-2-12.9-4.7-17.1-10.4c-4-5.3-4.4-11.7-3.4-18c1.3-9,6.3-15.4,14.6-19
		c13.3-5.6,26.6-5.7,39.3,1.4c8.3,4.6,12.2,12.5,13.5,21.7C334.8,29.5,334.7,30.1,334.7,30.8z"/>
	<path fill="#FFFFFF" d="M278.2,3.5c-5,3.9-8.3,8.5-11.4,13.5c-0.4,0.6-1.6,1.1-2.4,1.2c-10.5,0.5-18.2,5.1-22,15.1
		c-1.4,3.6-1.7,7.6-2.3,11.5c-0.7,5-1.1,10.1-1.8,15.1c-0.5,4.3-2.5,7.8-5.7,10.7c-0.6,0.6-1.4,1.1-2.1,1.5
		c-3.6,1.9-4.4,1.6-5.9-2.1c-3.9-9.9-4.3-20.1-3.1-30.6c1.4-13,7.6-23.3,17.9-31.2c8-6.1,17.4-7.5,27.2-6.7
		C270.6,1.9,274.4,2.9,278.2,3.5z"/>
	<path fill="#FFFFFF" d="M310.9,45.5c0.1,11.3-2.4,20.3-6.4,28.8c-0.3,0.6-1.1,1.4-1.8,1.4c-4.1,0.2-8.1-0.4-11.7-2.6
		c-3.3-2-3.9-4-2.5-7.6c2.1-5.2,3.1-10.5,3.2-16.1c0.1-6.3-1-12.3-3.4-18.2c-1.7-4.2-0.5-7.2,3.9-8.4c3.4-0.9,7-1,10.6-1.2
		c0.7,0,1.7,0.9,2.2,1.6C308.8,29.8,310.8,38.3,310.9,45.5z"/>
	<path fill="#FFFFFF" d="M279.7,93.2c-11.9,3.1-23,1.9-34.4-1.9c1.5-1.4,2.9-2.6,4.1-3.9c2.7-2.9,5.3-5.9,7.8-9
		c0.8-1,1.5-1.6,2.8-1.3c0.2,0,0.4,0,0.6,0c2.8-0.3,4.6,0.5,6.1,3.4c2.3,4.7,6.6,7.9,10.8,11C278.1,92,278.7,92.5,279.7,93.2z"/>
</g>
</svg>
