<?xml version="1.0" encoding="UTF-8" standalone="no"?>
<svg
   xmlns:dc="http://purl.org/dc/elements/1.1/"
   xmlns:cc="http://creativecommons.org/ns#"
   xmlns:rdf="http://www.w3.org/1999/02/22-rdf-syntax-ns#"
   xmlns:svg="http://www.w3.org/2000/svg"
   xmlns="http://www.w3.org/2000/svg"
   xmlns:sodipodi="http://sodipodi.sourceforge.net/DTD/sodipodi-0.dtd"
   xmlns:inkscape="http://www.inkscape.org/namespaces/inkscape"
   inkscape:version="1.0 (4035a4fb49, 2020-05-01)"
   sodipodi:docname="pc88.svg"
   id="svg36"
   xml:space="preserve"
   enable-background="new -14.625 -9 1386 180"
   viewBox="-14.625 -9 1372.6 170.89214"
   height="170.89214"
   width="1372.6"
   y="0px"
   x="0px"
   version="1.1"><metadata
     id="metadata40"><rdf:RDF><cc:Work
         rdf:about=""><dc:format>image/svg+xml</dc:format><dc:type
           rdf:resource="http://purl.org/dc/dcmitype/StillImage" /><dc:title></dc:title></cc:Work></rdf:RDF></metadata><sodipodi:namedview
     lock-margins="true"
     inkscape:document-rotation="0"
     inkscape:current-layer="svg36"
     inkscape:window-maximized="1"
     inkscape:window-y="-8"
     inkscape:window-x="-8"
     inkscape:cy="22.392135"
     inkscape:cx="823.59762"
     inkscape:zoom="0.78787879"
     fit-margin-bottom="5"
     fit-margin-right="5"
     fit-margin-left="5"
     fit-margin-top="5"
     inkscape:pagecheckerboard="true"
     showgrid="false"
     id="namedview38"
     inkscape:window-height="1017"
     inkscape:window-width="1920"
     inkscape:pageshadow="2"
     inkscape:pageopacity="0"
     guidetolerance="10"
     gridtolerance="10"
     objecttolerance="10"
     borderopacity="1"
     bordercolor="#666666"
     pagecolor="#ffffff" /><defs
     id="defs2" /><path
     style="clip-rule:evenodd;fill:#ffffff;fill-opacity:1;fill-rule:evenodd"
     inkscape:connector-curvature="0"
     id="path4"
     d="m 438.689,-2.235 c 35.151,-4.551 65.75,23.095 54.993,58.993 -1.682,5.614 -11.307,17.615 -11.307,17.615 0,0 14.699,13.6 16.307,22.38 6.706,36.626 -20.935,58.203 -48.994,58.992 -29.72,0.838 -62.426,-19.279 -55.993,-56.992 0.87,-5.1 4.273,-9.96 6,-12.999 1.74,-3.063 9.931,-11.381 9.931,-11.381 0,0 -10.901,-17.317 -11.931,-24.614 -3.761,-26.653 12.136,-48.258 40.994,-51.994 z m -6.999,44.026 c 0,19.225 28.997,18.975 28.997,0.968 0,-20.368 -28.997,-20.618 -28.997,-0.968 z m 14.989,83.957 c 22.679,0 22.8,-33.995 -0.388,-33.995 -23.261,0 -22.656,33.995 0.388,33.995 z" /><path
     style="clip-rule:evenodd;fill:#ffffff;fill-opacity:1;fill-rule:evenodd"
     inkscape:connector-curvature="0"
     id="path6"
     d="m 326.186,-2.235 c 35.151,-4.551 65.75,23.095 54.993,58.993 -1.682,5.614 -11.307,17.615 -11.307,17.615 0,0 14.699,13.6 16.307,22.38 6.706,36.626 -20.935,58.203 -48.994,58.992 -29.72,0.838 -62.426,-19.279 -55.993,-56.992 0.87,-5.1 4.273,-9.96 6,-12.999 1.74,-3.063 9.931,-11.381 9.931,-11.381 0,0 -10.901,-17.317 -11.931,-24.614 -3.762,-26.653 12.135,-48.258 40.994,-51.994 z m -7,44.026 c 0,19.225 28.997,18.975 28.997,0.968 0,-20.368 -28.997,-20.618 -28.997,-0.968 z m 14.989,83.957 c 22.679,0 22.8,-33.995 -0.388,-33.995 -23.261,0 -22.656,33.995 0.388,33.995 z" /><path
     style="clip-rule:evenodd;fill:#ffffff;fill-opacity:1;fill-rule:evenodd"
     inkscape:connector-curvature="0"
     id="path8"
     d="m 560.674,-2.235 c 17.755,-1.81 33.311,4.689 41.995,12.999 26.06,24.935 30.287,106.69 -1,133.983 -12.841,11.201 -39.696,17.006 -59.993,7 -19.53,-9.629 -31.006,-35.318 -32.996,-64.993 -3.115,-46.469 10.278,-84.737 51.994,-88.989 z m 5.999,127.983 c 31.296,-0.674 30.004,-104.999 -5,-95.987 -24.858,6.4 -24.42,96.622 5,95.987 z" /><path
     style="clip-rule:evenodd;fill:#ffffff;fill-opacity:1;fill-rule:evenodd"
     inkscape:connector-curvature="0"
     id="path10"
     d="m 684.433,-3.329 c 17.755,-1.81 33.311,4.689 41.995,12.999 26.061,24.935 30.287,106.69 -1,133.983 -12.841,11.201 -39.696,17.006 -59.993,7 -19.53,-9.629 -31.006,-35.318 -32.996,-64.993 -3.115,-46.469 10.277,-84.737 51.994,-88.989 z m 5.999,127.983 c 31.297,-0.674 30.004,-104.999 -4.999,-95.987 -24.859,6.4 -24.421,96.622 4.999,95.987 z" /><path
     style="clip-rule:evenodd;fill:#ffffff;fill-opacity:1;fill-rule:evenodd"
     inkscape:connector-curvature="0"
     id="path12"
     d="M 189.72,-0.976 V 30 C 104.782,7.167 105.352,144.5 188.58,121.754 V 152.75 C 59.73,185 59.16,-30.667 189.72,-0.976 Z" /><path
     style="clip-rule:evenodd;fill:#ffffff;fill-opacity:1;fill-rule:evenodd"
     inkscape:connector-curvature="0"
     id="path14"
     d="m 30.631,92 0.108,-30.918 c 15.01,0 23.997,-5.203 23.997,-16.088 0,-9 -1.487,-17.866 -31.862,-17.866 L 22.999,155.75 H -9.625 L -9.255,-4 22.25,-3.997 C 82.75,-3.791 89.875,20.5 89.875,43.994 89.875,77.755 66.25,92 30.631,92 Z" /><polygon
     transform="translate(-9.625,-4)"
     style="clip-rule:evenodd;fill:#ffffff;fill-opacity:1;fill-rule:evenodd"
     id="polygon16"
     points="846.265,11.764 846.265,41.76 776.273,41.76 776.273,11.683 " /><path
     style="clip-rule:evenodd;fill:#ffffff;fill-opacity:1;fill-rule:evenodd"
     inkscape:connector-curvature="0"
     id="path18"
     d="m 1296.25,154.618 h -33.125 c -3.75,-15.854 -25.623,-44.344 -25.623,-44.344 l -36.465,37.649 c -6.589,6.589 -18.636,6.694 -31.037,6.694 h -10.4 v -28.243 l 6.999,0.015 c 7.53,0 14.165,-0.626 19.909,-6.369 l 63.738,-67.066 c 6.784,-6.784 3.129,-16.439 -8.561,-16.439 l -82.086,0.187 V 7.765 h 82.65 c 40,0 51.799,42.711 37.227,58.212 l -20.751,21.727 c 0,0.001 35.525,50.92 37.525,66.914 z" /><polygon
     transform="translate(-9.625,-4)"
     style="clip-rule:evenodd;fill:#ffffff;fill-opacity:1;fill-rule:evenodd"
     id="polygon20"
     points="958.25,11.683 958.25,81.754 926.255,81.754 926.255,11.683 " /><path
     style="clip-rule:evenodd;fill:#ffffff;fill-opacity:1;fill-rule:evenodd"
     inkscape:connector-curvature="0"
     id="path22"
     d="m 1028.615,7.683 v 91.208 c 0,30.75 -23.115,53.855 -51.74,53.855 H 916.63 V 122.75 l 56.005,-0.109 c 15.49,0 24.116,-8.23 24.117,-24.875 0,-16.756 0.123,-90.083 0.123,-90.083 z" /><path
     style="clip-rule:evenodd;fill:#ffffff;fill-opacity:1;fill-rule:evenodd"
     inkscape:connector-curvature="0"
     id="path24"
     d="M 899.25,15.766 V 98.5 c 0,31.5 -28.75,54.246 -54.5,54.246 H 766.648 V 120.75 l 77.852,-0.051 c 13.25,0 23.252,-7.199 23.252,-21.717 l 0.123,-83.216 z" /><polygon
     transform="translate(-9.625,-4)"
     style="clip-rule:evenodd;fill:#ffffff;fill-opacity:1;fill-rule:evenodd"
     id="polygon26"
     points="846.265,87.756 776.273,87.754 776.273,57.933 846.265,57.891 " /><rect
     style="clip-rule:evenodd;fill:#ffffff;fill-opacity:1;fill-rule:evenodd"
     id="rect28"
     height="23.997"
     width="77.989998"
     y="65.755997"
     x="190.72" /><polygon
     transform="translate(-9.625,-4)"
     style="clip-rule:evenodd;fill:#ffffff;fill-opacity:1;fill-rule:evenodd"
     id="polygon30"
     points="1176.224,70.756 1176.224,99.752 1051.239,99.752 1051.239,70.756 " /><circle
     style="clip-rule:evenodd;fill:#ffffff;fill-opacity:1;fill-rule:evenodd"
     id="circle32"
     r="13.032"
     cy="20.114"
     cx="1307.0811" /><circle
     style="clip-rule:evenodd;fill:#ffffff;fill-opacity:1;fill-rule:evenodd"
     id="circle34"
     r="13.032"
     cy="20.114"
     cx="1339.943" /></svg>
