<?xml version="1.0" encoding="UTF-8" standalone="no"?>
<!-- Generator: Adobe Illustrator 15.1.0, SVG Export Plug-In  -->

<svg
   xmlns:dc="http://purl.org/dc/elements/1.1/"
   xmlns:cc="http://creativecommons.org/ns#"
   xmlns:rdf="http://www.w3.org/1999/02/22-rdf-syntax-ns#"
   xmlns:svg="http://www.w3.org/2000/svg"
   xmlns="http://www.w3.org/2000/svg"
   xmlns:sodipodi="http://sodipodi.sourceforge.net/DTD/sodipodi-0.dtd"
   xmlns:inkscape="http://www.inkscape.org/namespaces/inkscape"
   version="1.1"
   x="0px"
   y="0px"
   width="1362.6"
   height="160.89214"
   viewBox="-14.625 -9 1362.6 160.89214"
   enable-background="new -14.625 -9 1386 180"
   xml:space="preserve"
   id="svg36"
   sodipodi:docname="pc88.svg"
   inkscape:version="0.92.2 (unknown)"><metadata
     id="metadata40"><rdf:RDF><cc:Work
         rdf:about=""><dc:format>image/svg+xml</dc:format><dc:type
           rdf:resource="http://purl.org/dc/dcmitype/StillImage" /><dc:title></dc:title></cc:Work></rdf:RDF></metadata><sodipodi:namedview
     pagecolor="#ffffff"
     bordercolor="#666666"
     borderopacity="1"
     objecttolerance="10"
     gridtolerance="10"
     guidetolerance="10"
     inkscape:pageopacity="0"
     inkscape:pageshadow="2"
     inkscape:window-width="1920"
     inkscape:window-height="1031"
     id="namedview38"
     showgrid="false"
     inkscape:pagecheckerboard="true"
     fit-margin-top="0"
     fit-margin-left="0"
     fit-margin-right="0"
     fit-margin-bottom="0"
     inkscape:zoom="0.78787879"
     inkscape:cx="813.59762"
     inkscape:cy="12.392135"
     inkscape:window-x="0"
     inkscape:window-y="0"
     inkscape:window-maximized="1"
     inkscape:current-layer="svg36" /><defs
     id="defs2" /><path
     d="m 433.689,-7.235 c 35.151,-4.551 65.75,23.095 54.993,58.993 -1.682,5.614 -11.307,17.615 -11.307,17.615 0,0 14.699,13.6 16.307,22.38 6.706,36.626 -20.935,58.203 -48.994,58.992 -29.72,0.838 -62.426,-19.279 -55.993,-56.992 0.87,-5.1 4.273,-9.96 6,-12.999 1.74,-3.063 9.931,-11.381 9.931,-11.381 0,0 -10.901,-17.317 -11.931,-24.614 -3.761,-26.653 12.136,-48.258 40.994,-51.994 z m -6.999,44.026 c 0,19.225 28.997,18.975 28.997,0.968 0,-20.368 -28.997,-20.618 -28.997,-0.968 z m 14.989,83.957 c 22.679,0 22.8,-33.995 -0.388,-33.995 -23.261,0 -22.656,33.995 0.388,33.995 z"
     id="path4"
     inkscape:connector-curvature="0"
     style="clip-rule:evenodd;fill-rule:evenodd;fill:#ffffff;fill-opacity:1" /><path
     d="m 321.186,-7.235 c 35.151,-4.551 65.75,23.095 54.993,58.993 -1.682,5.614 -11.307,17.615 -11.307,17.615 0,0 14.699,13.6 16.307,22.38 6.706,36.626 -20.935,58.203 -48.994,58.992 -29.72,0.838 -62.426,-19.279 -55.993,-56.992 0.87,-5.1 4.273,-9.96 6,-12.999 1.74,-3.063 9.931,-11.381 9.931,-11.381 0,0 -10.901,-17.317 -11.931,-24.614 -3.762,-26.653 12.135,-48.258 40.994,-51.994 z m -7,44.026 c 0,19.225 28.997,18.975 28.997,0.968 0,-20.368 -28.997,-20.618 -28.997,-0.968 z m 14.989,83.957 c 22.679,0 22.8,-33.995 -0.388,-33.995 -23.261,0 -22.656,33.995 0.388,33.995 z"
     id="path6"
     inkscape:connector-curvature="0"
     style="clip-rule:evenodd;fill-rule:evenodd;fill:#ffffff;fill-opacity:1" /><path
     d="m 555.674,-7.235 c 17.755,-1.81 33.311,4.689 41.995,12.999 26.06,24.935 30.287,106.69 -1,133.983 -12.841,11.201 -39.696,17.006 -59.993,7 -19.53,-9.629 -31.006,-35.318 -32.996,-64.993 -3.115,-46.469 10.278,-84.737 51.994,-88.989 z m 5.999,127.983 c 31.296,-0.674 30.004,-104.999 -5,-95.987 -24.858,6.4 -24.42,96.622 5,95.987 z"
     id="path8"
     inkscape:connector-curvature="0"
     style="clip-rule:evenodd;fill-rule:evenodd;fill:#ffffff;fill-opacity:1" /><path
     d="m 679.433,-8.329 c 17.755,-1.81 33.311,4.689 41.995,12.999 26.061,24.935 30.287,106.69 -1,133.983 -12.841,11.201 -39.696,17.006 -59.993,7 -19.53,-9.629 -31.006,-35.318 -32.996,-64.993 -3.115,-46.469 10.277,-84.737 51.994,-88.989 z m 5.999,127.983 c 31.297,-0.674 30.004,-104.999 -4.999,-95.987 -24.859,6.4 -24.421,96.622 4.999,95.987 z"
     id="path10"
     inkscape:connector-curvature="0"
     style="clip-rule:evenodd;fill-rule:evenodd;fill:#ffffff;fill-opacity:1" /><path
     d="M 184.72,-5.976 V 25 C 99.782,2.167 100.352,139.5 183.58,116.754 V 147.75 C 54.73,180 54.16,-35.667 184.72,-5.976 Z"
     id="path12"
     inkscape:connector-curvature="0"
     style="clip-rule:evenodd;fill-rule:evenodd;fill:#ffffff;fill-opacity:1" /><path
     d="m 25.631,87 0.108,-30.918 c 15.01,0 23.997,-5.203 23.997,-16.088 0,-9 -1.487,-17.866 -31.862,-17.866 L 17.999,150.75 H -14.625 L -14.255,-9 17.25,-8.997 C 77.75,-8.791 84.875,15.5 84.875,38.994 84.875,72.755 61.25,87 25.631,87 Z"
     id="path14"
     inkscape:connector-curvature="0"
     style="clip-rule:evenodd;fill-rule:evenodd;fill:#ffffff;fill-opacity:1" /><polygon
     points="776.273,41.76 776.273,11.683 846.265,11.764 846.265,41.76 "
     id="polygon16"
     style="clip-rule:evenodd;fill-rule:evenodd;fill:#ffffff;fill-opacity:1"
     transform="translate(-14.625,-9)" /><path
     d="m 1291.25,149.618 h -33.125 c -3.75,-15.854 -25.623,-44.344 -25.623,-44.344 l -36.465,37.649 c -6.589,6.589 -18.636,6.694 -31.037,6.694 h -10.4 v -28.243 l 6.999,0.015 c 7.53,0 14.165,-0.626 19.909,-6.369 l 63.738,-67.066 c 6.784,-6.784 3.129,-16.439 -8.561,-16.439 l -82.086,0.187 V 2.765 h 82.65 c 40,0 51.799,42.711 37.227,58.212 l -20.751,21.727 c 0,0.001 35.525,50.92 37.525,66.914 z"
     id="path18"
     inkscape:connector-curvature="0"
     style="clip-rule:evenodd;fill-rule:evenodd;fill:#ffffff;fill-opacity:1" /><polygon
     points="926.255,81.754 926.255,11.683 958.25,11.683 958.25,81.754 "
     id="polygon20"
     style="clip-rule:evenodd;fill-rule:evenodd;fill:#ffffff;fill-opacity:1"
     transform="translate(-14.625,-9)" /><path
     d="m 1023.615,2.683 v 91.208 c 0,30.75 -23.115,53.855 -51.74,53.855 H 911.63 V 117.75 l 56.005,-0.109 c 15.49,0 24.116,-8.23 24.117,-24.875 0,-16.756 0.123,-90.083 0.123,-90.083 z"
     id="path22"
     inkscape:connector-curvature="0"
     style="clip-rule:evenodd;fill-rule:evenodd;fill:#ffffff;fill-opacity:1" /><path
     d="M 894.25,10.766 V 93.5 c 0,31.5 -28.75,54.246 -54.5,54.246 H 761.648 V 115.75 l 77.852,-0.051 c 13.25,0 23.252,-7.199 23.252,-21.717 l 0.123,-83.216 z"
     id="path24"
     inkscape:connector-curvature="0"
     style="clip-rule:evenodd;fill-rule:evenodd;fill:#ffffff;fill-opacity:1" /><polygon
     points="776.273,57.933 846.265,57.891 846.265,87.756 776.273,87.754 "
     id="polygon26"
     style="clip-rule:evenodd;fill-rule:evenodd;fill:#ffffff;fill-opacity:1"
     transform="translate(-14.625,-9)" /><rect
     x="185.72"
     y="60.755997"
     width="77.989998"
     height="23.997"
     id="rect28"
     style="clip-rule:evenodd;fill-rule:evenodd;fill:#ffffff;fill-opacity:1" /><polygon
     points="1051.239,99.752 1051.239,70.756 1176.224,70.756 1176.224,99.752 "
     id="polygon30"
     style="clip-rule:evenodd;fill-rule:evenodd;fill:#ffffff;fill-opacity:1"
     transform="translate(-14.625,-9)" /><circle
     cx="1302.0811"
     cy="15.114"
     r="13.032"
     id="circle32"
     style="clip-rule:evenodd;fill:#ffffff;fill-rule:evenodd;fill-opacity:1" /><circle
     cx="1334.943"
     cy="15.114"
     r="13.032"
     id="circle34"
     style="clip-rule:evenodd;fill:#ffffff;fill-rule:evenodd;fill-opacity:1" /></svg>