<?xml version="1.0" encoding="UTF-8" standalone="no"?>
<svg
   xmlns:dc="http://purl.org/dc/elements/1.1/"
   xmlns:cc="http://creativecommons.org/ns#"
   xmlns:rdf="http://www.w3.org/1999/02/22-rdf-syntax-ns#"
   xmlns:svg="http://www.w3.org/2000/svg"
   xmlns="http://www.w3.org/2000/svg"
   xmlns:sodipodi="http://sodipodi.sourceforge.net/DTD/sodipodi-0.dtd"
   xmlns:inkscape="http://www.inkscape.org/namespaces/inkscape"
   inkscape:version="1.0 (4035a4fb49, 2020-05-01)"
   sodipodi:docname="pce-cd.svg"
   xml:space="preserve"
   viewBox="14.968 80.666 533.36157 69.337997"
   height="69.337997"
   width="533.36157"
   y="0px"
   x="0px"
   id="Layer_1"
   version="1.2"><metadata
   id="metadata89"><rdf:RDF><cc:Work
       rdf:about=""><dc:format>image/svg+xml</dc:format><dc:type
         rdf:resource="http://purl.org/dc/dcmitype/StillImage" /><dc:title></dc:title></cc:Work></rdf:RDF></metadata><defs
   id="defs87" /><sodipodi:namedview
   lock-margins="true"
   inkscape:document-rotation="0"
   inkscape:current-layer="g82"
   inkscape:window-maximized="1"
   inkscape:window-y="-8"
   inkscape:window-x="-8"
   inkscape:cy="3.4282518"
   inkscape:cx="205.01872"
   inkscape:zoom="1.4168084"
   fit-margin-bottom="5"
   fit-margin-right="5"
   fit-margin-left="5"
   fit-margin-top="5"
   inkscape:pagecheckerboard="true"
   showgrid="false"
   id="namedview85"
   inkscape:window-height="1017"
   inkscape:window-width="1920"
   inkscape:pageshadow="2"
   inkscape:pageopacity="0"
   guidetolerance="10"
   gridtolerance="10"
   objecttolerance="10"
   borderopacity="1"
   bordercolor="#666666"
   pagecolor="#ffffff" />
<g
   transform="translate(-6.4324508,-6.12)"
   style="display:inline;fill:#ffffff;fill-opacity:1"
   id="g26">
	<g
   style="fill:#ffffff;fill-opacity:1"
   id="g4">
		<path
   style="fill:#ffffff;fill-opacity:1"
   inkscape:connector-curvature="0"
   id="path2"
   d="m 37.843,133.394 c -0.077,0 -0.156,-0.018 -0.229,-0.053 -7.506,-3.644 -11.381,-7.89 -11.208,-12.282 0.142,-3.616 3.092,-7.03 8.534,-9.874 5.162,-2.697 12.444,-4.838 21.058,-6.19 0.288,-0.046 0.557,0.15 0.602,0.438 0.045,0.286 -0.151,0.557 -0.438,0.602 -17.449,2.74 -28.447,8.514 -28.703,15.067 -0.153,3.886 3.616,7.896 10.615,11.294 0.262,0.127 0.371,0.439 0.244,0.703 -0.092,0.185 -0.279,0.295 -0.475,0.295 z" />
	</g>
	<g
   style="fill:#ffffff;fill-opacity:1"
   id="g8">
		<path
   style="fill:#ffffff;fill-opacity:1"
   inkscape:connector-curvature="0"
   id="path6"
   d="m 103.273,106.418 c -0.029,0 -0.058,-0.002 -0.086,-0.007 -5.544,-0.91 -11.397,-1.518 -17.396,-1.804 -0.291,-0.015 -0.515,-0.261 -0.5,-0.552 0.014,-0.29 0.265,-0.512 0.55,-0.5 6.04,0.289 11.933,0.9 17.518,1.817 0.286,0.047 0.481,0.318 0.433,0.604 -0.043,0.259 -0.266,0.442 -0.519,0.442 z" />
	</g>
	<g
   style="fill:#ffffff;fill-opacity:1"
   id="g12">
		<path
   style="fill:#ffffff;fill-opacity:1"
   inkscape:connector-curvature="0"
   id="path10"
   d="m 86.708,142.36 c -0.147,0 -0.293,0 -0.441,-0.001 -0.291,-0.001 -0.525,-0.237 -0.524,-0.527 0.001,-0.29 0.235,-0.524 0.525,-0.524 0.001,0 0.001,0 0.002,0 0.145,0 0.292,0 0.438,0 28.163,0 50.385,-7.319 50.678,-16.729 0.103,-3.293 -2.541,-6.633 -7.65,-9.658 -5.085,-3.015 -12.375,-5.583 -21.079,-7.429 -0.284,-0.062 -0.465,-0.34 -0.406,-0.624 0.06,-0.284 0.34,-0.465 0.624,-0.405 8.814,1.868 16.213,4.48 21.397,7.553 5.458,3.234 8.281,6.897 8.166,10.597 -0.156,5.003 -5.683,9.564 -15.563,12.841 -9.552,3.166 -22.381,4.906 -36.167,4.906 z" />
	</g>
	<polygon
   style="display:inline;fill:#ffffff;fill-opacity:1"
   id="polygon14"
   points="89.228,106.114 90.69,112.728 76.797,123.317 93.116,116.801 97.7,121.575 96.238,114.963 110.131,104.373 93.814,110.887 " />
	<g
   style="fill:#ffffff;fill-opacity:1"
   id="g24">
		<path
   style="fill:#ffffff;fill-opacity:1"
   inkscape:connector-curvature="0"
   id="path16"
   d="m 78.839,128.183 c 0.199,-0.979 0.563,-0.838 1.557,-0.996 l 0.926,-0.145 -0.289,1.542 -0.925,0.148 c -0.994,0.158 -1.432,0.424 -1.269,-0.549 z m -2.006,-1.413 -0.72,3.875 c -0.198,1.059 0.123,1.399 1.141,1.238 l 5.895,-0.936 1.264,-6.796 -5.895,0.935 c -1.02,0.161 -1.49,0.626 -1.685,1.684 z m 37.424,-6.117 -0.069,0.374 6.082,-0.964 c 0.48,-0.078 0.948,-0.563 1.045,-1.088 0.096,-0.524 -0.212,-0.887 -0.693,-0.811 l -1.562,0.246 -2.492,0.397 -0.631,0.099 c -0.73,0.117 -1.532,0.95 -1.68,1.747 z m -42.665,17.525 0.049,-0.271 c 0.209,0.016 0.49,0.097 0.734,0.06 l 6.32,-0.99 c -0.235,1.26 -1.9,1.575 -4.442,1.979 l -2.893,0.46 -1.551,8.34 3.8,-0.602 c 9.356,-0.924 12.916,-5.76 14.059,-11.524 l 11.401,-1.809 1.837,-9.887 0.927,-0.147 c 1.016,-0.161 0.866,-0.346 0.671,0.711 l -1.682,9.044 8.185,-1.298 0.112,-0.6 c 0.617,0.272 1.339,0.368 2.104,0.248 l 14.155,-2.244 1.32,-7.106 -0.917,-0.652 c 0.795,-0.941 1.415,-2.094 1.594,-3.061 l 0.223,-1.121 c 0.706,-4.19 -3.158,-5.304 -4.921,-5.023 l -8.123,1.289 c -1.438,0.229 -3.023,1.231 -4.176,2.56 -1.066,-1.056 -2.711,-1.466 -3.668,-1.314 l -9.043,1.435 1.012,2.237 8.156,-1.292 c 1.176,-0.188 1.962,0.282 2.177,1.213 -0.086,0.246 -2.177,11.379 -2.177,11.379 l -2.925,0.465 1.568,-8.428 c 0.194,-1.056 -0.125,-1.396 -1.141,-1.235 l -5.604,0.89 -1.839,9.886 -3.215,0.512 2.104,-11.318 -2.646,-3.122 -9.526,3.443 4.515,-0.717 0.073,-0.01 -2.871,15.446 c -0.73,3.923 -4.917,7.675 -8.63,8.266 l -3.8,0.602 0.576,-3.09 2.891,-0.458 c 2.541,-0.405 5.402,-2.947 5.896,-5.607 l 0.312,-1.674 -7.527,1.193 c -1.614,0.257 -2.49,-0.724 -2.173,-2.429 l 1.35,-7.262 c 0.239,-1.289 1.044,-2.36 2.121,-2.918 l 0.019,-0.193 3.776,-2.906 -2.206,0.37 c -1.173,0.186 -3.35,1.065 -4.733,2.83 -1.046,-1.247 -2.875,-1.736 -3.905,-1.573 l -8.113,1.289 1.322,-7.107 5.919,-0.938 c 3.151,-0.499 6.638,-4.043 7.257,-7.372 l 0.89,-4.788 c 0.62,-3.332 -1.723,-5.95 -4.874,-5.45 l -12.936,2.052 -2.757,14.829 -11.912,1.892 c -1.008,0.159 -1.989,1.154 -2.186,2.22 l -4.452,23.942 c -0.198,1.066 0.459,1.801 1.468,1.643 l 22.729,-3.607 1.839,-9.886 0.925,-0.147 c 1.019,-0.16 0.869,-0.343 0.671,0.713 l -1.681,9.043 z m -16.866,-5.421 -7.6,1.206 0.286,-1.543 6.138,-0.977 1.494,-8.032 -6.139,0.975 0.286,-1.545 7.6,-1.206 z m -0.46,2.472 -0.631,3.397 -13.447,2.134 4.191,-22.554 11.109,-1.763 -0.575,3.09 -7.893,1.254 -1.205,6.487 6.43,-1.02 -0.574,3.088 -6.431,1.02 -1.208,6.49 z m 15.446,0.849 -3.216,0.509 1.567,-8.427 c 0.197,-1.056 -0.123,-1.397 -1.141,-1.237 l -5.604,0.89 -1.836,9.887 -3.217,0.511 2.412,-12.976 0.075,-0.012 10.669,-1.691 c 1.614,-0.258 2.49,0.722 2.172,2.429 z m 20.901,-15.91 3.144,-0.498 -2.413,12.976 -3.215,0.51 2.41,-12.974 z m 19.503,6.115 1.116,-6.002 c 0.354,-1.899 2.394,-3.763 4.132,-4.039 l 7.52,-1.191 c 1.267,-0.202 2.147,1.213 1.889,2.599 l -0.369,1.931 c -0.259,1.386 -1.673,2.857 -2.939,3.058 l -7.806,1.24 -0.112,0.701 c -0.148,0.796 0.38,1.419 1.111,1.302 l 8.724,-1.389 -0.588,3.166 -9.842,1.56 c -1.739,0.274 -3.187,-1.036 -2.836,-2.936 z m -46.521,-16.821 1.091,-5.871 4.092,-0.647 c 0.537,-0.085 0.811,0.221 0.704,0.786 l -0.746,4.019 c -0.107,0.567 -0.513,0.979 -1.05,1.065 z" />
		<g
   style="fill:#ffffff;fill-opacity:1"
   id="g22">
			<path
   style="fill:#ffffff;fill-opacity:1"
   inkscape:connector-curvature="0"
   id="path18"
   d="m 89.753,112.208 -0.869,-3.44 -0.489,0.06 -0.158,0.848 c -0.109,0.589 -0.582,1.067 -1.138,1.157 l -3.362,0.532 c -0.555,0.089 -0.873,-0.267 -0.763,-0.854 l 1.694,-9.114 c 0.109,-0.586 0.582,-1.065 1.136,-1.153 l 3.364,-0.533 c 0.555,-0.088 0.872,0.267 0.762,0.853 l -0.216,1.16 6.797,-1.08 0.259,-1.389 c 0.651,-3.507 -1.733,-6.172 -5.052,-5.646 l -6.503,1.031 c -3.317,0.527 -6.868,4.135 -7.519,7.641 l -1.809,9.73 c -0.651,3.508 1.732,6.173 5.051,5.646 l 2.174,-0.343 z" />
			<path
   style="fill:#ffffff;fill-opacity:1"
   inkscape:connector-curvature="0"
   id="path20"
   d="m 94.571,110.132 c 0.177,-0.477 0.3,-0.658 0.391,-1.146 l 0.231,-1.238 -2.705,0.43 z" />
		</g>
	</g>
</g>
<g
   transform="translate(-6.4324508,-6.12)"
   style="fill:#ffffff;fill-opacity:1;stroke:none;stroke-opacity:1"
   id="g82">
	<g
   style="display:inline;fill:#ffffff;fill-opacity:1;stroke:none;stroke-opacity:1"
   id="g32">
		<path
   style="display:none;fill:#ffffff;fill-opacity:1;stroke:none;stroke-opacity:1"
   inkscape:connector-curvature="0"
   id="path28"
   d="m 210.313,141.697 c 0,0 -22.097,0 -35.514,0 -11.838,0 -19.73,-7.958 -19.73,-15.784 0,-7.826 7.892,-15.784 19.73,-15.784 8.944,0 22.098,0 35.514,0 v -7.893 c 0,0 -22.097,0 -35.514,0 -15.784,0 -27.622,10.26 -27.622,23.677 0,13.416 11.838,23.676 27.622,23.676 17.888,0 35.514,0 35.514,0 z" />
		<path
   style="display:inline;fill:#ffffff;fill-opacity:1;stroke:none;stroke-opacity:1"
   inkscape:connector-curvature="0"
   id="path30"
   d="m 210.313,151.123 c 0,0 -17.625,0 -35.514,0 v 0 c -8.224,0 -15.491,-2.674 -20.73,-7.178 v 0 c -5.239,-4.496 -8.432,-10.865 -8.426,-18.032 v 0 c -0.006,-7.168 3.187,-13.537 8.426,-18.033 v 0 c 5.24,-4.504 12.507,-7.179 20.73,-7.179 v 0 c 13.416,0 35.514,0 35.514,0 v 0 h 1.535 v 10.962 h -1.535 c -13.416,0 -26.57,0 -35.514,0 v 0 c -5.574,0.001 -10.14,1.869 -13.304,4.586 v 0 c -3.167,2.723 -4.896,6.275 -4.891,9.664 v 0 c -0.005,3.388 1.724,6.94 4.891,9.663 v 0 c 3.165,2.718 7.73,4.585 13.304,4.586 v 0 c 13.416,0 35.514,0 35.514,0 v 0 1.535 -1.535 h 1.535 v 10.961 z m -54.244,-40.916 c -4.625,3.988 -7.352,9.457 -7.358,15.706 v 0 c 0.006,6.249 2.733,11.718 7.358,15.706 v 0 c 4.626,3.979 11.169,6.435 18.729,6.435 v 0 c 14.75,0 29.32,0 33.98,0 v 0 -4.822 c -5.235,0 -22.685,0 -33.98,0 v 0 c -12.514,-0.001 -21.219,-8.433 -21.264,-17.318 v 0 c 0.045,-8.886 8.75,-17.317 21.264,-17.318 v 0 c 8.603,0 21.1,0 33.98,0 v 0 -4.823 c -5.235,-10e-4 -22.685,-10e-4 -33.98,-10e-4 v 0 c -7.56,-0.001 -14.103,2.457 -18.729,6.435 z" />
	</g>
	<g
   style="fill:#ffffff;fill-opacity:1;stroke:none;stroke-opacity:1"
   id="g42">
		<g
   sodipodi:insensitive="true"
   style="display:none;fill:#ffffff;fill-opacity:1;stroke:none;stroke-opacity:1"
   id="g36">
			<path
   style="fill:#ffffff;fill-opacity:1;stroke:none;stroke-opacity:1"
   inkscape:connector-curvature="0"
   id="path34"
   d="m 418.575,102.236 h -23.676 c -15.785,0 -27.622,10.26 -27.622,23.677 0,13.416 11.837,23.676 27.622,23.676 h 23.676 c 15.784,0 27.621,-10.26 27.621,-23.676 0,-13.417 -11.837,-23.677 -27.621,-23.677 z m 0,39.461 h -23.676 c -11.838,0 -19.73,-7.958 -19.73,-15.784 0,-7.826 7.893,-15.784 19.73,-15.784 h 23.676 c 11.838,0 19.729,7.958 19.729,15.784 0,7.826 -7.891,15.784 -19.729,15.784 z" />
		</g>
		<g
   style="display:inline;fill:#ffffff;fill-opacity:1;stroke:none;stroke-opacity:1"
   id="g40">
			<path
   style="fill:#ffffff;fill-opacity:1;stroke:none;stroke-opacity:1"
   inkscape:connector-curvature="0"
   id="path38"
   d="m 394.899,151.123 c -8.224,0 -15.492,-2.673 -20.729,-7.178 v 0 c -5.241,-4.496 -8.433,-10.865 -8.427,-18.032 v 0 c -0.006,-7.168 3.186,-13.537 8.427,-18.033 v 0 c 5.237,-4.504 12.506,-7.178 20.729,-7.178 v 0 h 23.676 v 1.534 1.535 h -23.676 c -7.563,0 -14.104,2.457 -18.73,6.435 v 0 c -4.625,3.989 -7.352,9.457 -7.357,15.707 v 0 c 0.006,6.249 2.732,11.718 7.357,15.706 v 0 c 4.626,3.979 11.168,6.436 18.73,6.436 v 0 h 23.676 c 7.56,0 14.104,-2.457 18.729,-6.436 v 0 c 4.625,-3.988 7.353,-9.457 7.358,-15.706 v 0 c -0.006,-6.25 -2.733,-11.718 -7.358,-15.707 v 0 c -4.626,-3.978 -11.17,-6.435 -18.729,-6.435 v 0 -1.535 -1.534 c 8.223,0 15.491,2.674 20.73,7.178 v 0 c 5.239,4.496 8.431,10.865 8.426,18.033 v 0 c 0.005,7.167 -3.187,13.536 -8.426,18.032 v 0 c -5.239,4.505 -12.508,7.178 -20.73,7.178 v 0 z m 0,-7.892 c -12.514,-0.001 -21.221,-8.434 -21.266,-17.318 v 0 c 0.045,-8.886 8.752,-17.317 21.266,-17.319 v 0 h 23.676 c 12.514,0.002 21.219,8.434 21.264,17.319 v 0 c -0.045,8.885 -8.75,17.317 -21.264,17.318 v 0 -1.535 -1.534 c 5.573,-0.001 10.14,-1.868 13.303,-4.586 v 0 c 3.168,-2.722 4.897,-6.275 4.893,-9.663 v 0 c 0.005,-3.389 -1.725,-6.941 -4.893,-9.664 v 0 c -3.163,-2.717 -7.729,-4.585 -13.303,-4.586 v 0 h -23.676 c -5.575,0.001 -10.141,1.869 -13.305,4.586 v 0 c -3.167,2.723 -4.896,6.275 -4.892,9.664 v 0 c -0.005,3.388 1.725,6.941 4.892,9.663 v 0 c 3.164,2.718 7.729,4.585 13.305,4.586 v 0 h 23.676 v 1.534 1.535 z" />
		</g>
	</g>
	<g
   style="fill:#ffffff;fill-opacity:1;stroke:none;stroke-opacity:1"
   id="g52">
		<g
   style="display:none;fill:#ffffff;fill-opacity:1;stroke:none;stroke-opacity:1"
   id="g46">
			<path
   style="fill:#ffffff;fill-opacity:1;stroke:none;stroke-opacity:1"
   inkscape:connector-curvature="0"
   id="path44"
   d="m 253.72,102.236 c -17.889,0 -35.515,0 -35.515,0 v 47.353 c 0,0 22.098,0 35.515,0 15.784,0 27.621,-10.26 27.621,-23.676 0,-13.417 -11.837,-23.677 -27.621,-23.677 z m 0,39.461 c -7.26,0 -15.947,0 -27.622,0 v -31.568 c 8.769,0 18.894,0 27.622,0 11.838,0 19.729,7.958 19.729,15.784 0,7.826 -7.891,15.784 -19.729,15.784 z" />
		</g>
		<g
   style="display:inline;fill:#ffffff;fill-opacity:1;stroke:none;stroke-opacity:1"
   id="g50">
			<path
   style="fill:#ffffff;fill-opacity:1;stroke:none;stroke-opacity:1"
   inkscape:connector-curvature="0"
   id="path48"
   d="m 230.931,151.123 c -7.202,0 -12.713,0 -12.725,0 v 0 h -1.535 v -50.422 h 1.535 c 0.01,0 4.406,0 11.048,0 v 0 c 6.642,0 15.521,0 24.464,0 v 0 1.536 1.534 c -8.944,-0.001 -17.822,-0.001 -24.464,0 v 0 c -4.315,-0.001 -7.683,-0.001 -9.515,-0.001 v 0 44.283 c 2.124,0.001 6.262,0.001 11.192,0.001 v 0 c 7.201,-0.001 16.08,-0.001 22.788,0 v 0 c 7.561,-0.001 14.104,-2.457 18.73,-6.436 v 0 c 4.626,-3.988 7.353,-9.457 7.357,-15.706 v 0 c -0.004,-6.249 -2.73,-11.718 -7.357,-15.706 v 0 c -4.625,-3.979 -11.169,-6.436 -18.73,-6.437 v 0 -1.533 -1.535 c 8.224,-10e-4 15.493,2.674 20.729,7.178 v 0 c 5.242,4.496 8.434,10.865 8.428,18.033 v 0 c 0.006,7.167 -3.186,13.536 -8.428,18.032 v 0 c -5.237,4.504 -12.506,7.178 -20.729,7.178 v 0 c -6.708,10e-4 -15.587,10e-4 -22.788,10e-4 z m -4.833,-7.892 h -1.535 v -34.637 h 1.535 c 8.769,0 18.894,0 27.621,0 v 0 c 12.516,0.001 21.22,8.433 21.265,17.318 v 0 c -0.045,8.886 -8.749,17.317 -21.265,17.318 v 0 -1.534 -1.535 c 5.574,-0.001 10.142,-1.868 13.304,-4.586 v 0 c 3.167,-2.723 4.896,-6.275 4.892,-9.663 v 0 c 0.004,-3.389 -1.725,-6.941 -4.892,-9.664 v 0 c -3.163,-2.717 -7.73,-4.585 -13.304,-4.586 v 0 c -8.222,0 -17.686,0 -26.087,0 v 0 28.499 c 10.908,0 19.148,0 26.087,0 v 0 1.535 1.534 c -7.261,0.001 -15.946,0.001 -27.621,0.001 z" />
		</g>
	</g>
	<g
   style="fill:#ffffff;fill-opacity:1;stroke:none;stroke-opacity:1"
   id="g62">
		<g
   style="display:none;fill:#ffffff;fill-opacity:1;stroke:none;stroke-opacity:1"
   id="g56">
			<path
   style="fill:#ffffff;fill-opacity:1;stroke:none;stroke-opacity:1"
   inkscape:connector-curvature="0"
   id="path54"
   d="m 352.369,125.913 c 3.946,0 7.893,-5.7 7.893,-9.646 0,-7.892 -3.946,-14.03 -11.839,-14.03 -7.891,0 -47.352,0 -47.352,0 v 47.353 h 7.893 v -19.73 c 11.838,0 31.568,0 35.514,0 3.946,0 7.892,3.947 7.892,7.893 0,3.946 0,11.838 0,11.838 h 7.893 c 0,0 0,-3.945 0,-11.838 0,-7.893 -7.894,-11.84 -7.894,-11.84 z m -7.891,-3.946 c -7.892,0 -35.514,0 -35.514,0 v -11.838 c 0,0 27.622,0 35.514,0 3.945,0 7.892,2.192 7.892,6.138 -10e-4,3.946 -3.947,5.7 -7.892,5.7 z" />
		</g>
		<g
   style="fill:#ffffff;fill-opacity:1;stroke:none;stroke-opacity:1"
   id="g60">
			<path
   style="fill:#ffffff;fill-opacity:1;stroke:none;stroke-opacity:1"
   inkscape:connector-curvature="0"
   id="path58"
   d="m 350.836,151.123 v -1.534 c -0.002,0 -0.002,-7.893 0,-11.838 v 0 c 0.01,-1.452 -0.768,-3.1 -2.018,-4.341 v 0 c -1.241,-1.249 -2.889,-2.028 -4.341,-2.018 v 0 c -3.779,0 -22.044,0 -33.979,0 v 0 19.73 H 299.536 V 100.7 h 1.535 c 0.021,0 9.865,0 20.717,0 v 0 c 10.851,0 22.689,0 26.635,0 v 0 c 4.344,-0.02 7.854,1.758 10.089,4.646 v 0 c 2.245,2.88 3.281,6.725 3.284,10.92 v 0 c -0.021,2.476 -1.142,5.081 -2.786,7.24 v 0 c -0.887,1.135 -1.942,2.173 -3.152,2.898 v 0 c 0.491,0.396 1.016,0.854 1.544,1.382 v 0 c 2.143,2.137 4.395,5.479 4.395,9.964 v 0 c 0,7.893 0,11.838 0,11.838 v 0 1.534 h -10.961 z m 7.891,-3.068 c 0,-1.819 0,-5.253 0.001,-10.304 v 0 c -0.001,-3.198 -1.487,-5.653 -3.162,-7.448 v 0 c -1.666,-1.781 -3.488,-2.812 -3.829,-2.989 v 0 c -0.046,-0.024 -0.053,-0.028 -0.053,-0.028 v 0 l 0.686,-1.373 -0.686,1.373 0.686,-2.907 c 1.202,0.042 2.908,-1.025 4.211,-2.745 v 0 c 1.314,-1.678 2.168,-3.895 2.147,-5.366 v 0 c 0.002,-3.696 -0.934,-6.866 -2.635,-9.028 v 0 c -1.71,-2.154 -4.12,-3.447 -7.67,-3.468 v 0 c -6.96,0 -38.471,0 -45.816,0 v 0 44.284 h 4.822 v -19.73 h 1.535 c 11.838,0 31.567,0 35.514,0 v 0 c 2.493,0.011 4.792,1.206 6.511,2.915 v 0 c 1.711,1.719 2.904,4.019 2.915,6.512 v 0 c 0,2.864 0,7.808 0,10.304 v 0 h 4.823 z m -34.965,-24.553 c -7.893,0 -14.783,0 -14.798,0 v 0 h -1.535 v -14.908 h 1.535 c 0.015,0 6.905,0 14.798,0 v 0 c 7.892,0 16.77,0 20.716,0 v 0 c 2.255,0.005 4.506,0.608 6.309,1.87 v 0 c 1.799,1.238 3.134,3.295 3.117,5.803 v 0 c 0.028,2.512 -1.362,4.521 -3.182,5.629 v 0 c -1.822,1.138 -4.047,1.6 -6.244,1.606 v 0 -1.535 -1.534 c 1.748,0.005 3.471,-0.409 4.608,-1.135 v 0 c 1.14,-0.755 1.724,-1.597 1.75,-3.031 v 0 c -0.017,-1.438 -0.655,-2.449 -1.815,-3.293 v 0 c -1.158,-0.823 -2.852,-1.315 -4.543,-1.311 v 0 c -3.946,0 -12.824,0 -20.716,0 v 0 c -5.657,0 -10.8,0 -13.264,0 v 0 8.77 c 2.464,0 7.606,0 13.264,0 v 0 c 7.892,0 16.77,0 20.716,0 v 0 1.534 1.535 c -3.947,0 -12.825,0 -20.716,0 z" />
		</g>
	</g>
	<g
   style="fill:#ffffff;fill-opacity:1;stroke:none;stroke-opacity:1"
   id="g68">
		<path
   style="display:none;fill:#ffffff;fill-opacity:1;stroke:none;stroke-opacity:1"
   inkscape:connector-curvature="0"
   id="path64"
   d="m 289.892,129.858 c -2.18,0 -3.946,-1.767 -3.946,-3.945 0,-2.178 1.767,-3.946 3.946,-3.946 h 2.959 c 2.18,0 3.946,1.768 3.946,3.946 0,2.178 -1.767,3.945 -3.946,3.945 z" />
		<path
   style="fill:#ffffff;fill-opacity:1;stroke:none;stroke-opacity:1"
   inkscape:connector-curvature="0"
   id="path66"
   d="m 289.891,131.393 v -1.534 -1.534 l 2.96,-10e-4 c 1.331,-0.001 2.409,-1.079 2.411,-2.41 v 0 c -0.002,-1.332 -1.08,-2.41 -2.411,-2.412 v 0 l -2.96,0.001 c -1.331,0.001 -2.408,1.079 -2.411,2.411 v 0 c 0.003,1.331 1.08,2.409 2.411,2.41 v 0 1.535 1.534 c -3.027,0 -5.479,-2.452 -5.479,-5.479 v 0 c 0,-3.027 2.452,-5.48 5.479,-5.48 v 0 h 2.96 c 3.027,0 5.479,2.453 5.48,5.48 v 0 c -0.001,3.027 -2.453,5.479 -5.48,5.479 v 0 z" />
	</g>
	<g
   style="fill:#ffffff;fill-opacity:1;stroke:none;stroke-opacity:1"
   id="g74">
		<path
   style="display:none;fill:#ffffff;fill-opacity:1;stroke:none;stroke-opacity:1"
   inkscape:connector-curvature="0"
   id="path70"
   d="m 481.712,110.129 v 39.46 h 7.892 v -39.46 h 7.893 c 3.945,0 11.837,0 11.837,7.892 0,7.893 0,31.568 0,31.568 h 7.893 v -35.514 c 0,-7.893 -7.893,-11.839 -15.784,-11.839 -3.945,0 -27.622,0 -31.568,0 -7.893,0 -15.784,3.946 -15.784,11.839 0,7.892 0,23.676 0,35.514 h 7.892 c 0,0 0,-23.676 0,-31.568 0,-7.892 7.893,-7.892 11.839,-7.892 z" />
		<path
   style="fill:#ffffff;fill-opacity:1;stroke:none;stroke-opacity:1"
   inkscape:connector-curvature="0"
   id="path72"
   d="m 507.798,151.123 v -1.534 c 0,0 0,-23.676 0,-31.568 v 0 c -0.004,-1.723 -0.413,-2.84 -1.003,-3.664 v 0 c -0.594,-0.82 -1.429,-1.397 -2.471,-1.816 v 0 c -2.078,-0.843 -4.871,-0.887 -6.828,-0.876 v 0 l -6.358,-0.001 v 39.46 h -10.961 v -39.459 h -6.358 c -1.473,-0.003 -3.402,0.007 -5.16,0.382 v 0 c -1.775,0.376 -3.263,1.088 -4.139,2.311 v 0 c -0.591,0.824 -0.999,1.941 -1.005,3.664 v 0 c 0,7.893 0,31.568 0,31.568 v 0 1.534 h -10.961 v -1.534 c 0,-11.838 0,-27.622 0,-35.514 v 0 c -0.02,-4.483 2.326,-7.994 5.616,-10.157 v 0 c 3.291,-2.185 7.504,-3.211 11.703,-3.216 v 0 c 3.945,-0.001 27.623,-0.001 31.568,0 v 0 c 4.198,0.005 8.41,1.031 11.702,3.216 v 0 c 3.29,2.163 5.637,5.674 5.616,10.157 v 0 37.048 h -10.961 z m 7.893,-3.068 v -33.979 c -0.022,-3.41 -1.621,-5.817 -4.25,-7.603 v 0 c -2.628,-1.761 -6.308,-2.706 -10,-2.702 v 0 c -3.947,0 -27.623,0 -31.568,0 v 0 c -3.694,-0.004 -7.374,0.941 -10.001,2.702 v 0 c -2.63,1.785 -4.229,4.192 -4.249,7.603 v 0 c 0,7.554 0,22.345 0,33.979 v 0 h 4.823 c -0.002,-5.372 -0.002,-23.355 0,-30.034 v 0 c -0.006,-2.224 0.572,-4.065 1.584,-5.46 v 0 c 1.011,-1.399 2.395,-2.302 3.82,-2.87 v 0 c 2.855,-1.129 5.981,-1.086 7.968,-1.096 v 0 h 7.892 v 1.534 -1.534 h 1.535 v 39.46 h 4.822 v -39.46 h 9.429 c 1.484,0.001 3.624,-0.009 5.797,0.448 v 0 c 2.155,0.457 4.46,1.411 5.989,3.518 v 0 c 1.013,1.395 1.591,3.236 1.585,5.46 v 0 c 0,6.679 0,24.662 0,30.034 v 0 z" />
	</g>
	<g
   style="fill:#ffffff;fill-opacity:1;stroke:none;stroke-opacity:1"
   id="g80">
		<path
   style="display:inline;fill:#ffffff;fill-opacity:1;stroke:none;stroke-opacity:1"
   inkscape:connector-curvature="0"
   id="path76"
   d="m 537.763,108.902 c 0,0 -0.946,0 2.937,0 5.259,0 9.062,-2.685 9.062,-8.726 0,-3.883 -2.46,-8.39 -7.766,-8.39 -3.884,0 -12.514,0 -16.397,0 v 6.04 c 0,0 8.014,0 11.896,0 1.696,0 3.598,0.281 3.598,2.35 0,1.958 -1.512,2.685 -3.262,2.685 h -4.916 c -8.827,0 -9.896,6.299 -9.896,11.219 v 3.884 h 26.305 v -6.479 H 531.82 c -0.002,-3.02 3.354,-2.583 5.943,-2.583 z" />
		<path
   style="display:none;fill:#ffffff;fill-opacity:1;stroke:none;stroke-opacity:1"
   inkscape:connector-curvature="0"
   id="path78"
   d="m 522.139,118.84 v -4.76 c 0.005,-2.52 0.255,-5.478 1.772,-7.919 v 0 c 1.514,-2.459 4.391,-4.201 9,-4.176 v 0 h 4.918 c 0.758,0.003 1.399,-0.169 1.777,-0.445 v 0 c 0.369,-0.283 0.588,-0.607 0.606,-1.363 v 0 c -0.039,-0.757 -0.219,-0.902 -0.664,-1.159 v 0 c -0.46,-0.229 -1.257,-0.317 -2.056,-0.313 v 0 c -3.883,0 -11.896,0 -11.896,0 v 0 H 524.72 V 90.91 h 0.876 c 3.883,0 12.513,0 16.397,0 v 0 c 2.904,-0.01 5.146,1.271 6.559,3.071 v 0 c 1.422,1.8 2.082,4.071 2.085,6.195 v 0 c 0.008,3.196 -1.03,5.675 -2.854,7.284 v 0 c -1.82,1.611 -4.313,2.318 -7.085,2.318 v 0 c -1.307,0 -2.066,0 -2.498,0 v 0 c -0.224,0 -0.357,0 -0.438,0 v 0 c -10e-4,0 -0.102,0 -0.102,0 v 0 c -0.01,0 -0.017,0 -0.024,0 v 0 c -0.564,-0.003 -1.142,-0.022 -1.691,-0.022 v 0 c -1.02,-0.007 -1.956,0.084 -2.486,0.343 v 0 c -0.275,0.153 -0.466,0.278 -0.587,0.508 v 0 h 17.327 v 8.232 h -28.06 z m 3.258,-11.749 c -1.224,1.938 -1.51,4.59 -1.504,6.989 v 0 3.007 h 24.554 v -4.726 H 530.94 v -0.877 c -0.043,-1.423 0.749,-2.54 1.778,-2.975 v 0 c 1.007,-0.459 2.133,-0.5 3.227,-0.507 v 0 c 0.634,0 1.255,0.022 1.817,0.022 v 0 c 0.236,0 0.961,0 2.937,0 v 0 c 2.488,0 4.524,-0.635 5.921,-1.877 v 0 c 1.393,-1.242 2.256,-3.128 2.263,-5.972 v 0 c 0.005,-1.76 -0.567,-3.681 -1.702,-5.106 v 0 c -1.143,-1.424 -2.787,-2.396 -5.186,-2.406 v 0 c -3.614,0 -11.336,0 -15.521,0 v 0 4.287 c 2.185,0 7.916,0 11.019,0 v 0 c 0.896,0.005 1.896,0.057 2.813,0.483 v 0 c 0.929,0.401 1.698,1.431 1.661,2.742 v 0 c 0.017,1.202 -0.518,2.221 -1.34,2.79 v 0 c -0.815,0.576 -1.806,0.768 -2.798,0.772 v 0 h -4.918 c -4.217,0.027 -6.287,1.434 -7.514,3.354 z m 12.366,1.811 v -0.877 z" />
	</g>
</g>
</svg>
