<?xml version="1.0" encoding="utf-8"?>
<!-- Generator: Adobe Illustrator 21.1.0, SVG Export Plug-In . SVG Version: 6.00 Build 0)  -->
<svg version="1.0" id="Capa_1" xmlns="http://www.w3.org/2000/svg" xmlns:xlink="http://www.w3.org/1999/xlink" x="0px" y="0px"
	 width="342.9px" height="126.5px" viewBox="0 0 342.9 126.5" enable-background="new 0 0 342.9 126.5" xml:space="preserve">
<g>
	<g>
		<path fill="#FFFFFF" d="M72.7,92.1c-0.2,0-0.4,0-0.5-0.1C55.6,83.9,47,74.5,47.4,64.8c0.3-8,6.8-15.6,18.9-21.9
			c11.4-6,27.6-10.7,46.6-13.7c0.7-0.1,1.2,0.4,1.3,1c0.1,0.7-0.4,1.2-1,1.3c-38.6,6.1-63,18.9-63.6,33.4c-0.4,8.6,8,17.5,23.5,25
			c0.6,0.3,0.8,1,0.5,1.6C73.5,91.9,73.2,92.1,72.7,92.1z"/>
	</g>
	<g>
		<path fill="#FFFFFF" d="M217.6,32.4c0,0-0.1,0-0.2,0c-12.3-2-25.2-3.4-38.5-4c-0.7,0-1.1-0.6-1.1-1.2c0-0.7,0.6-1.1,1.2-1.1
			c13.4,0.7,26.4,2,38.8,4c0.6,0.1,1.1,0.7,1,1.4C218.6,32,218.1,32.4,217.6,32.4z"/>
	</g>
	<g>
		<path fill="#FFFFFF" d="M180.9,111.9c-0.3,0-0.7,0-1,0c-0.7,0-1.2-0.5-1.2-1.2s0.5-1.2,1.2-1.2l0,0c0.3,0,0.7,0,1,0
			c62.4,0,111.6-16.2,112.2-37c0.2-7.3-5.6-14.7-16.9-21.4c-11.2-6.7-27.4-12.3-46.7-16.5c-0.6-0.1-1.1-0.7-0.9-1.4
			c0.1-0.6,0.7-1.1,1.4-0.9c19.5,4.2,35.9,9.9,47.4,16.7c12.1,7.2,18.3,15.3,18.1,23.5c-0.4,11.1-12.6,21.2-34.4,28.4
			C239.8,108.1,211.4,111.9,180.9,111.9z"/>
	</g>
	<polygon fill="#FFFFFF" points="202,51.3 232.8,27.9 196.6,42.3 186.5,31.7 189.7,46.4 159,69.8 195.1,55.4 205.3,66 	"/>
	<g>
		<path fill="#FFFFFF" d="M163.5,80.6c0.4-2.2,1.2-1.8,3.5-2.2l2.1-0.3l-0.7,3.4l-2.1,0.3C164.1,82.2,163.1,82.7,163.5,80.6z
			 M159,77.4l-1.6,8.6c-0.4,2.4,0.3,3.1,2.5,2.8l13-2.1l2.8-15.1l-13,2.1C160.5,74.1,159.5,75.1,159,77.4z M241.9,63.9l-0.1,0.8
			l13.5-2.1c1.1-0.2,2.1-1.2,2.3-2.4c0.2-1.2-0.5-2-1.5-1.8l-3.5,0.5l-5.5,0.9l-1.4,0.2C244,60.3,242.2,62.2,241.9,63.9z
			 M147.4,102.7l0.1-0.6c0.5,0,1.1,0.2,1.6,0.1l14-2.2c-0.5,2.8-4.2,3.5-9.8,4.4l-6.4,1l-3.4,18.5l8.4-1.3
			c20.7-2.1,28.6-12.7,31.1-25.5l25.2-4l4.1-21.9l2.1-0.4c2.2-0.4,1.9-0.7,1.5,1.6l-3.7,20l18.1-2.9l0.3-1.3c1.4,0.6,3,0.8,4.6,0.6
			l31.3-5l2.9-15.8l-2-1.4c1.8-2.1,3.2-4.6,3.5-6.8l0.5-2.5c1.6-9.3-7-11.7-10.9-11.1l-18,2.8c-3.2,0.5-6.7,2.7-9.2,5.6
			c-2.4-2.3-6-3.2-8.1-2.9l-20,3.2l2.2,4.9l18.1-2.8c2.6-0.4,4.3,0.6,4.8,2.7c-0.2,0.5-4.8,25.2-4.8,25.2l-6.5,1l3.5-18.6
			c0.4-2.3-0.3-3.1-2.5-2.7l-12.4,2l-4.1,21.9l-7.1,1.1l4.6-25.1l-5.7-6.9l-21.1,7.6l10-1.6h0.2l-6.5,34.3
			c-1.6,8.7-10.9,17-19.1,18.3l-8.4,1.3l1.3-6.8l6.4-1c5.6-0.9,11.9-6.5,13-12.4l0.7-3.7l-16.7,2.6c-3.6,0.6-5.5-1.6-4.8-5.4l3-16.1
			c0.5-2.8,2.3-5.2,4.7-6.5v-0.4l8.4-6.4l-4.9,0.8c-2.6,0.4-7.4,2.4-10.5,6.3c-2.3-2.8-6.3-3.9-8.7-3.5l-18,2.8l2.9-15.8l13.1-2.1
			c7-1.1,14.7-9,16.1-16.3l2-10.6c1.4-7.4-3.8-13.2-10.8-12.1l-28.7,4.6l-6.1,32.8l-26.3,4.3c-2.2,0.4-4.4,2.5-4.9,4.9l-9.8,53
			c-0.4,2.4,1,4,3.2,3.6l50.3-8l4.1-21.9l2.1-0.3c2.3-0.4,1.9-0.7,1.5,1.6l-3.7,20L147.4,102.7z M110.1,90.7l-16.8,2.7l0.6-3.4
			l13.6-2.1l3.3-17.8l-13.6,2.1l0.6-3.4l16.8-2.7L110.1,90.7z M109.1,96.2l-1.4,7.5l-29.8,4.7l9.3-49.9l24.6-3.9l-1.3,6.8L93,64.2
			l-2.7,14.4l14.2-2.3l-1.3,6.8L89,85.4l-2.7,14.4L109.1,96.2z M143.3,98l-7.1,1.1l3.5-18.6c0.4-2.3-0.3-3.1-2.5-2.8l-12.4,2
			l-4.1,21.9l-7.1,1.1l5.3-28.7h0.2l23.6-3.8c3.6-0.6,5.5,1.6,4.8,5.4L143.3,98z M189.5,62.8l7-1.1l-5.3,28.7l-7.1,1.1l5.3-28.7
			H189.5z M232.7,76.4l2.5-13.3c0.8-4.2,5.3-8.3,9.1-8.9l16.6-2.6c2.8-0.4,4.8,2.7,4.2,5.7l-0.8,4.3c-0.6,3.1-3.7,6.3-6.5,6.8
			l-17.3,2.8l-0.3,1.5c-0.4,1.8,0.8,3.2,2.5,2.9l19.3-3.1l-1.3,7l-21.8,3.4C235.1,83.5,231.9,80.6,232.7,76.4z M129.7,39.1l2.4-13
			l9.1-1.4c1.2-0.2,1.8,0.5,1.6,1.8l-1.7,8.9c-0.2,1.3-1.1,2.2-2.3,2.4L129.7,39.1z"/>
		<g>
			<path fill="#FFFFFF" d="M187.6,45.2l-1.9-7.6l-1.1,0.1l-0.4,1.9c-0.3,1.3-1.3,2.4-2.5,2.6l-7.4,1.2c-1.2,0.2-1.9-0.6-1.7-1.9
				l3.8-20.2c0.2-1.3,1.3-2.4,2.5-2.5l7.4-1.2c1.2-0.2,1.9,0.6,1.7,1.9l-0.5,2.6l15.1-2.4l0.6-3.1c1.4-7.7-3.9-13.6-11.3-12.5
				l-14.4,2.3c-7.4,1.2-15.2,9.1-16.6,16.9l-4,21.5c-1.4,7.7,3.9,13.7,11.2,12.5l4.8-0.7L187.6,45.2z"/>
			<path fill="#FFFFFF" d="M198.3,40.6c0.4-1.1,0.7-1.4,0.9-2.5l0.5-2.8l-6,1L198.3,40.6z"/>
		</g>
	</g>
</g>
</svg>
