<?xml version="1.0" encoding="UTF-8" standalone="no"?>
<svg
   xmlns:dc="http://purl.org/dc/elements/1.1/"
   xmlns:cc="http://creativecommons.org/ns#"
   xmlns:rdf="http://www.w3.org/1999/02/22-rdf-syntax-ns#"
   xmlns:svg="http://www.w3.org/2000/svg"
   xmlns="http://www.w3.org/2000/svg"
   xmlns:sodipodi="http://sodipodi.sourceforge.net/DTD/sodipodi-0.dtd"
   xmlns:inkscape="http://www.inkscape.org/namespaces/inkscape"
   inkscape:version="1.0 (4035a4fb49, 2020-05-01)"
   sodipodi:docname="pcengine.svg"
   xml:space="preserve"
   enable-background="new 0 0 342.9 126.5"
   viewBox="0 0 258.11805 129.93228"
   height="129.93228"
   width="258.11804"
   y="0px"
   x="0px"
   id="Capa_1"
   version="1.0"><metadata
     id="metadata335"><rdf:RDF><cc:Work
         rdf:about=""><dc:format>image/svg+xml</dc:format><dc:type
           rdf:resource="http://purl.org/dc/dcmitype/StillImage" /><dc:title></dc:title></cc:Work></rdf:RDF></metadata><defs
     id="defs333" /><sodipodi:namedview
     lock-margins="true"
     inkscape:document-rotation="0"
     inkscape:pagecheckerboard="true"
     inkscape:current-layer="Capa_1"
     inkscape:window-maximized="0"
     inkscape:window-y="0"
     inkscape:window-x="0"
     inkscape:cy="65.650005"
     inkscape:cx="-240.21357"
     inkscape:zoom="0.7961505"
     fit-margin-bottom="5"
     fit-margin-right="5"
     fit-margin-left="5"
     fit-margin-top="5"
     showgrid="false"
     id="namedview331"
     inkscape:window-height="480"
     inkscape:window-width="700"
     inkscape:pageshadow="2"
     inkscape:pageopacity="0"
     guidetolerance="10"
     gridtolerance="10"
     objecttolerance="10"
     borderopacity="1"
     bordercolor="#666666"
     pagecolor="#ffffff" /><g
     transform="translate(-42.386656,1.0322825)"
     id="g328"><g
       id="g306"><path
         style="fill:#ffffff"
         inkscape:connector-curvature="0"
         id="path304"
         d="m 72.7,92.1 c -0.2,0 -0.4,0 -0.5,-0.1 C 55.6,83.9 47,74.5 47.4,64.8 c 0.3,-8 6.8,-15.6 18.9,-21.9 11.4,-6 27.6,-10.7 46.6,-13.7 0.7,-0.1 1.2,0.4 1.3,1 0.1,0.7 -0.4,1.2 -1,1.3 -38.6,6.1 -63,18.9 -63.6,33.4 -0.4,8.6 8,17.5 23.5,25 0.6,0.3 0.8,1 0.5,1.6 -0.1,0.4 -0.4,0.6 -0.9,0.6 z" /></g><g
       id="g310"><path
         style="fill:#ffffff"
         inkscape:connector-curvature="0"
         id="path308"
         d="m 217.6,32.4 c 0,0 -0.1,0 -0.2,0 -12.3,-2 -25.2,-3.4 -38.5,-4 -0.7,0 -1.1,-0.6 -1.1,-1.2 0,-0.7 0.6,-1.1 1.2,-1.1 13.4,0.7 26.4,2 38.8,4 0.6,0.1 1.1,0.7 1,1.4 -0.2,0.5 -0.7,0.9 -1.2,0.9 z" /></g><g
       id="g314"><path
         style="fill:#ffffff"
         inkscape:connector-curvature="0"
         id="path312"
         d="m 180.9,111.9 c -0.3,0 -0.7,0 -1,0 -0.7,0 -1.2,-0.5 -1.2,-1.2 0,-0.7 0.5,-1.2 1.2,-1.2 v 0 c 0.3,0 0.7,0 1,0 62.4,0 111.6,-16.2 112.2,-37 0.2,-7.3 -5.6,-14.7 -16.9,-21.4 -11.2,-6.7 -27.4,-12.3 -46.7,-16.5 -0.6,-0.1 -1.1,-0.7 -0.9,-1.4 0.1,-0.6 0.7,-1.1 1.4,-0.9 19.5,4.2 35.9,9.9 47.4,16.7 12.1,7.2 18.3,15.3 18.1,23.5 -0.4,11.1 -12.6,21.2 -34.4,28.4 -21.3,7.2 -49.7,11 -80.2,11 z" /></g><polygon
       style="fill:#ffffff"
       id="polygon316"
       points="202,51.3 232.8,27.9 196.6,42.3 186.5,31.7 189.7,46.4 159,69.8 195.1,55.4 205.3,66 " /><g
       id="g326"><path
         style="fill:#ffffff"
         inkscape:connector-curvature="0"
         id="path318"
         d="m 163.5,80.6 c 0.4,-2.2 1.2,-1.8 3.5,-2.2 l 2.1,-0.3 -0.7,3.4 -2.1,0.3 c -2.2,0.4 -3.2,0.9 -2.8,-1.2 z M 159,77.4 157.4,86 c -0.4,2.4 0.3,3.1 2.5,2.8 l 13,-2.1 2.8,-15.1 -13,2.1 c -2.2,0.4 -3.2,1.4 -3.7,3.7 z m 82.9,-13.5 -0.1,0.8 13.5,-2.1 c 1.1,-0.2 2.1,-1.2 2.3,-2.4 0.2,-1.2 -0.5,-2 -1.5,-1.8 l -3.5,0.5 -5.5,0.9 -1.4,0.2 c -1.7,0.3 -3.5,2.2 -3.8,3.9 z m -94.5,38.8 0.1,-0.6 c 0.5,0 1.1,0.2 1.6,0.1 l 14,-2.2 c -0.5,2.8 -4.2,3.5 -9.8,4.4 l -6.4,1 -3.4,18.5 8.4,-1.3 c 20.7,-2.1 28.6,-12.7 31.1,-25.5 l 25.2,-4 4.1,-21.9 2.1,-0.4 c 2.2,-0.4 1.9,-0.7 1.5,1.6 l -3.7,20 18.1,-2.9 0.3,-1.3 c 1.4,0.6 3,0.8 4.6,0.6 l 31.3,-5 2.9,-15.8 -2,-1.4 c 1.8,-2.1 3.2,-4.6 3.5,-6.8 l 0.5,-2.5 C 273,48 264.4,45.6 260.5,46.2 l -18,2.8 c -3.2,0.5 -6.7,2.7 -9.2,5.6 -2.4,-2.3 -6,-3.2 -8.1,-2.9 l -20,3.2 2.2,4.9 18.1,-2.8 c 2.6,-0.4 4.3,0.6 4.8,2.7 -0.2,0.5 -4.8,25.2 -4.8,25.2 l -6.5,1 3.5,-18.6 c 0.4,-2.3 -0.3,-3.1 -2.5,-2.7 l -12.4,2 -4.1,21.9 -7.1,1.1 4.6,-25.1 -5.7,-6.9 -21.1,7.6 10,-1.6 h 0.2 l -6.5,34.3 c -1.6,8.7 -10.9,17 -19.1,18.3 l -8.4,1.3 1.3,-6.8 6.4,-1 c 5.6,-0.9 11.9,-6.5 13,-12.4 l 0.7,-3.7 -16.7,2.6 c -3.6,0.6 -5.5,-1.6 -4.8,-5.4 l 3,-16.1 c 0.5,-2.8 2.3,-5.2 4.7,-6.5 v -0.4 l 8.4,-6.4 -4.9,0.8 c -2.6,0.4 -7.4,2.4 -10.5,6.3 -2.3,-2.8 -6.3,-3.9 -8.7,-3.5 l -18,2.8 2.9,-15.8 13.1,-2.1 c 7,-1.1 14.7,-9 16.1,-16.3 l 2,-10.6 c 1.4,-7.4 -3.8,-13.2 -10.8,-12.1 l -28.7,4.6 -6.1,32.8 -26.3,4.3 c -2.2,0.4 -4.4,2.5 -4.9,4.9 l -9.8,53 c -0.4,2.4 1,4 3.2,3.6 l 50.3,-8 4.1,-21.9 2.1,-0.3 c 2.3,-0.4 1.9,-0.7 1.5,1.6 l -3.7,20 z m -37.3,-12 -16.8,2.7 0.6,-3.4 13.6,-2.1 3.3,-17.8 -13.6,2.1 0.6,-3.4 16.8,-2.7 z m -1,5.5 -1.4,7.5 -29.8,4.7 9.3,-49.9 24.6,-3.9 -1.3,6.8 -17.5,2.8 -2.7,14.4 14.2,-2.3 -1.3,6.8 -14.2,2.3 -2.7,14.4 z m 34.2,1.8 -7.1,1.1 3.5,-18.6 c 0.4,-2.3 -0.3,-3.1 -2.5,-2.8 l -12.4,2 -4.1,21.9 -7.1,1.1 5.3,-28.7 h 0.2 l 23.6,-3.8 c 3.6,-0.6 5.5,1.6 4.8,5.4 z m 46.2,-35.2 7,-1.1 -5.3,28.7 -7.1,1.1 5.3,-28.7 z m 43.2,13.6 2.5,-13.3 c 0.8,-4.2 5.3,-8.3 9.1,-8.9 l 16.6,-2.6 c 2.8,-0.4 4.8,2.7 4.2,5.7 l -0.8,4.3 c -0.6,3.1 -3.7,6.3 -6.5,6.8 l -17.3,2.8 -0.3,1.5 c -0.4,1.8 0.8,3.2 2.5,2.9 l 19.3,-3.1 -1.3,7 -21.8,3.4 c -3.8,0.6 -7,-2.3 -6.2,-6.5 z m -103,-37.3 2.4,-13 9.1,-1.4 c 1.2,-0.2 1.8,0.5 1.6,1.8 l -1.7,8.9 c -0.2,1.3 -1.1,2.2 -2.3,2.4 z" /><g
         id="g324"><path
           style="fill:#ffffff"
           inkscape:connector-curvature="0"
           id="path320"
           d="m 187.6,45.2 -1.9,-7.6 -1.1,0.1 -0.4,1.9 c -0.3,1.3 -1.3,2.4 -2.5,2.6 l -7.4,1.2 c -1.2,0.2 -1.9,-0.6 -1.7,-1.9 l 3.8,-20.2 c 0.2,-1.3 1.3,-2.4 2.5,-2.5 l 7.4,-1.2 c 1.2,-0.2 1.9,0.6 1.7,1.9 l -0.5,2.6 15.1,-2.4 0.6,-3.1 C 204.6,8.9 199.3,3 191.9,4.1 l -14.4,2.3 c -7.4,1.2 -15.2,9.1 -16.6,16.9 l -4,21.5 c -1.4,7.7 3.9,13.7 11.2,12.5 l 4.8,-0.7 z" /><path
           style="fill:#ffffff"
           inkscape:connector-curvature="0"
           id="path322"
           d="m 198.3,40.6 c 0.4,-1.1 0.7,-1.4 0.9,-2.5 l 0.5,-2.8 -6,1 z" /></g></g></g></svg>
