<?xml version="1.0" encoding="UTF-8" standalone="no"?>
<!-- Generator: Adobe Illustrator 17.0.0, SVG Export Plug-In . SVG Version: 6.00 Build 0)  -->

<svg
   xmlns:dc="http://purl.org/dc/elements/1.1/"
   xmlns:cc="http://creativecommons.org/ns#"
   xmlns:rdf="http://www.w3.org/1999/02/22-rdf-syntax-ns#"
   xmlns:svg="http://www.w3.org/2000/svg"
   xmlns="http://www.w3.org/2000/svg"
   xmlns:sodipodi="http://sodipodi.sourceforge.net/DTD/sodipodi-0.dtd"
   xmlns:inkscape="http://www.inkscape.org/namespaces/inkscape"
   version="1.1"
   id="Layer_1"
   x="0px"
   y="0px"
   width="389.57999"
   height="124.9235"
   viewBox="0 0 389.57999 124.9235"
   enable-background="new 0 0 407 136"
   xml:space="preserve"
   sodipodi:docname="pcfx.svg"
   inkscape:version="0.92.2 (unknown)"><metadata
     id="metadata127"><rdf:RDF><cc:Work
         rdf:about=""><dc:format>image/svg+xml</dc:format><dc:type
           rdf:resource="http://purl.org/dc/dcmitype/StillImage" /><dc:title></dc:title><dc:title></dc:title></cc:Work></rdf:RDF></metadata><defs
     id="defs125" /><sodipodi:namedview
     pagecolor="#ffffff"
     bordercolor="#666666"
     borderopacity="1"
     objecttolerance="10"
     gridtolerance="10"
     guidetolerance="10"
     inkscape:pageopacity="0"
     inkscape:pageshadow="2"
     inkscape:window-width="1920"
     inkscape:window-height="1031"
     id="namedview123"
     showgrid="false"
     inkscape:pagecheckerboard="true"
     showguides="false"
     inkscape:zoom="1.3415233"
     inkscape:cx="-142.56145"
     inkscape:cy="46.771833"
     inkscape:window-x="0"
     inkscape:window-y="0"
     inkscape:window-maximized="1"
     inkscape:current-layer="Layer_1"
     fit-margin-top="0"
     fit-margin-left="0"
     fit-margin-right="0"
     fit-margin-bottom="0"
     inkscape:snap-bbox="true"
     inkscape:bbox-paths="true"
     inkscape:bbox-nodes="true"
     inkscape:snap-bbox-edge-midpoints="true"
     inkscape:snap-bbox-midpoints="true" /><g
     id="g10"
     style="fill:#ffffff;fill-opacity:1;stroke:none"
     transform="translate(-11.93,-4.079)"><path
       d="m 401.51,129 c -94.34,0 -188.68,0.01 -283.02,-0.01 0.01,-4 0.01,-8 0,-11.99 94.34,0.01 188.68,-0.01 283.02,0 z"
       id="path8"
       inkscape:connector-curvature="0"
       style="fill:#ffffff;fill-opacity:1;stroke:none" /></g><g
     id="g16"
     style="fill:#fffffc;fill-opacity:1;stroke:none"
     transform="translate(-11.93,-4.079)"><g
       id="g14"
       style="fill:#fffffc;fill-opacity:1;stroke:none"><path
         d="m 69.24,11.49 c -1.66,-2.16 0.73,-5.01 3.14,-4.12 10.37,1.59 20.82,5.02 29.04,11.73 4.99,4.15 9.17,10.17 8.83,16.93 0.22,8.93 -5.5,16.53 -11.74,22.31 -1.85,4.12 -3.4,8.55 -6.87,11.67 -3.24,2.51 -3.47,6.98 -6.24,9.84 -3.026,3.276 -2.463,1.213 -3.75,5.09 -2.338,4.185 -6.068,6.587 -9.838,8.747 -1.435,0.42 -4.543,2.033 -5.482,-0.668 -0.33,-1.457 5.92,-5.145 0.73,-3.49 -8.75,0.81 -19.77,0.22 -25.22,-7.76 -1.048,-2.416 -0.903,-3.166 -0.91,-4.56 -3.95,-2.85 -6.74,-7.22 -6.4,-12.26 -4.38,-3.04 -8.54,-7.37 -8.73,-13.02 -0.75,-5.54 3.55,-10.02 7.92,-12.68 8.43,-5.05 18.55,-6.31 28.21,-6.29 10.04,0.6 20.48,2.82 28.66,9.02 3.18,2.32 5.34,5.65 7.38,8.95 l 0.18,-0.18 c 5.38,-5.18 9.07,-13.84 5.54,-21 C 99.55,22.449 91.7,18.209 84.07,15.409 79.32,13.38 73.99,13.44 69.24,11.49 Z M 33.48,46.04 c -4.98,3.99 -1.3,12.13 3.84,13.72 6.86,-5.61 15.97,-7.23 24.6,-7.18 7.74,0.49 15.73,2.25 21.98,7.08 1.22,1.4 2.72,-0.23 3.99,-0.58 1.87,-1.19 3.72,-2.42 5.52,-3.72 C 92.62,52.41 91.38,49.5 89,47.47 81.78,40.84 71.57,38.58 62.02,38.43 52.15,38.21 41.33,39.52 33.48,46.04 Z m 34.512,19.502 c 3.66,-0.51 8.503,-1.403 9.925,-1.917 1.917,-0.583 1.177,-0.891 0.533,-1.385 -4.88,-3.05 -10.72,-3.93 -16.37,-4.26 -6.18,-0.02 -12.67,0.63 -18.14,3.72 -0.56,0.342 -2.357,0.675 0.01,1.35 5.316,1.856 18.443,2.6 19.59,2.65 1.148,0.05 4.452,-0.158 4.452,-0.158 z M 39.75,67.53 c 0.5,1.298 1.516,3.22 3.547,4.4 0.859,-0.571 2.173,-1.225 3.273,-1.805 0.714,-0.289 1.477,-0.797 2.21,-1.054 C 48.422,69.046 47.885,68.983 46.828,68.937 44.293,68.628 42.14,68.11 39.75,67.53 Z m 34.66,2.07 c 1.902,0.525 3.715,1.4 5.06,3.07 2.655,-0.74 5.61,-2.46 3.93,-5.56 -2.98,0.88 -5.99,1.69 -8.99,2.49 z M 49.688,74.688 C 51.375,75.687 53.69,75.63 55.5,76 61.125,76.371 66.87,76.25 72.47,75.3 71.37,73.68 69.25,73.68 67.53,73.19 61.8,71.82 55.208,72.607 49.688,74.688 Z M 47.08,79.92 c 3.67,3.9 9.46,4.33 14.48,4.57 5.61,-0.13 11.71,-1.22 16.04,-5.07 -9.93,2.93 -20.5,3.01 -30.52,0.5 z"
         id="path12"
         inkscape:connector-curvature="0"
         style="fill:#fffffc;fill-opacity:1;stroke:none" /></g></g><path
     d="m 126.632,66.12 c 5.059,-0.001 10.095,-0.31 14.848,-2.119 12.71,-4.38 21.13,-17.81 20.71,-31.07 -0.37,-6.5 -2.57,-12.93 -6.5,-18.14 C 149.84,6.521 139.65,1.831 129.6,2.081 L 106.99,2.072 v 19.105 l -0.06,0.263 0.06,-0.005 v 69.806 h 9.2 V 66.12 M 116.1,10.311 c 5.18,-0.01 10.36,-0.12 15.53,0.12 7.7,0.51 15.18,4.81 18.95,11.63 4.72,8.07 4.18,18.99 -1.64,26.36 -4.06,5.47 -10.67,8.97 -17.5,9.08 -5.08,0.07 -10.057,0.033 -15.25,0.033 z"
     id="path18"
     style="fill:#ffffff;fill-opacity:1;stroke:none"
     inkscape:connector-curvature="0" /><path
     d="M 128.57,66.102"
     id="path20"
     style="fill:#ffffff;fill-opacity:1;stroke:none"
     inkscape:connector-curvature="0" /><circle
     cx="50.150002"
     cy="4.8820004"
     r="4.039"
     id="circle22"
     style="fill:#01015b" /><g
     id="g32"
     style="fill:#ffffff;fill-opacity:1;stroke:none"
     transform="translate(-11.93,-4.079)"><path
       d="M 274.112,57.437 V 40.11 h -13.535 c 0.92,3.272 1.422,6.719 1.422,10.285 0,2.408 -0.234,4.759 -0.663,7.043 h 12.776 z"
       id="path28"
       inkscape:connector-curvature="0"
       style="fill:#ffffff;fill-opacity:1;stroke:none" /><path
       d="m 258.027,67.297 c -6.217,12.473 -19.092,21.045 -33.975,21.045 -20.958,0 -37.948,-16.99 -37.948,-37.948 0,-20.958 16.99,-37.948 37.948,-37.948 13.555,0 25.442,7.112 32.154,17.803 h 9.542 c -7.493,-15.484 -23.341,-26.17 -41.697,-26.17 -25.579,0 -46.315,20.736 -46.315,46.315 0,25.579 20.736,46.315 46.315,46.315 19.612,0 36.362,-12.195 43.115,-29.412 z"
       id="path30"
       inkscape:connector-curvature="0"
       style="fill:#ffffff;fill-opacity:1;stroke:none" /></g><polygon
     points="62.02,70.74 62.02,13.75 11.93,40.75 11.93,97.74 "
     id="polygon34"
     style="display:none;fill:none;fill-opacity:1;stroke:#ffffff;stroke-width:1.000314;stroke-miterlimit:4;stroke-dasharray:none;stroke-opacity:1"
     transform="matrix(0.99012151,0,0,0.98526429,-11.317089,-3.040004)" /><circle
     cx="50.150002"
     cy="4.8820004"
     r="4.039"
     id="circle40"
     style="display:inline;fill:#fffffc;fill-opacity:1;stroke:none" /><polygon
     points="62.08,101.545 62.08,127.245 12,98.74 12,73.04 "
     id="polygon42"
     style="display:inline;fill:none;fill-opacity:1;stroke:#ffffff;stroke-width:1.000314;stroke-miterlimit:4;stroke-dasharray:none;stroke-opacity:1"
     transform="matrix(0.99012151,0,0,0.98526429,-11.317089,-3.040004)" /><polygon
     points="62.08,101.545 62.08,127.245 112.16,98.74 112.16,73.04 "
     id="polygon44"
     style="display:inline;fill:none;fill-opacity:1;stroke:#edffff;stroke-width:1.000314;stroke-miterlimit:4;stroke-dasharray:none;stroke-opacity:1"
     transform="matrix(0.99012151,0,0,0.98526429,-11.317089,-3.040004)" /><polygon
     points="298.3,95.35 298.3,57.437 324.696,57.437 324.696,40.11 298.3,40.11 298.3,23.83 325.97,23.83 325.97,6.151 298.3,6.151 290.5,6.151 281.36,6.151 281.36,95.35 "
     id="polygon46"
     style="display:inline;fill:#ffffff;fill-opacity:1;stroke:none"
     transform="translate(-11.93,-4.079)" /><polygon
     points="360.305,66.833 376.61,95.35 397,95.35 370.5,49.002 395,6.151 374.61,6.151 360.305,31.171 346,6.151 325.61,6.151 350.11,49.002 323.61,95.35 344,95.35 "
     id="polygon48"
     style="display:inline;fill:#ffffff;fill-opacity:1;stroke:none"
     transform="translate(-11.93,-4.079)" /><g
     id="g116"
     style="display:inline;fill:#ffffff;fill-opacity:1;stroke:none"
     transform="translate(-11.93,-4.079)"><path
       d="m 128.272,113 v -9.217 L 124.378,113 h -0.896 l -3.88,-9.217 V 113 h -1.037 v -10.352 h 1.611 l 3.768,8.811 3.754,-8.811 h 1.611 V 113 Z"
       id="path50"
       inkscape:connector-curvature="0"
       style="fill:#ffffff;fill-opacity:1;stroke:none" /><path
       d="m 134.862,113.182 c -2.087,0 -3.516,-1.261 -3.516,-4.076 v -6.458 h 1.037 v 6.458 c 0,2.115 0.869,3.124 2.493,3.124 1.597,0 2.479,-1.008 2.479,-3.124 v -6.458 h 1.037 v 6.458 c 0,2.815 -1.429,4.076 -3.53,4.076 z"
       id="path52"
       inkscape:connector-curvature="0"
       style="fill:#ffffff;fill-opacity:1;stroke:none" /><path
       d="m 140.432,113 v -10.352 h 1.037 v 9.413 h 4.286 V 113 Z"
       id="path54"
       inkscape:connector-curvature="0"
       style="fill:#ffffff;fill-opacity:1;stroke:none" /><path
       d="M 148.624,103.587 V 113 h -1.037 v -9.413 h -2.367 v -0.938 h 5.771 v 0.938 z"
       id="path56"
       inkscape:connector-curvature="0"
       style="fill:#ffffff;fill-opacity:1;stroke:none" /><path
       d="m 152.066,113 v -10.352 h 1.037 V 113 Z"
       id="path58"
       inkscape:connector-curvature="0"
       style="fill:#ffffff;fill-opacity:1;stroke:none" /><path
       d="m 164.854,113 v -9.217 L 160.959,113 h -0.896 l -3.88,-9.217 V 113 h -1.037 v -10.352 h 1.611 l 3.768,8.811 3.754,-8.811 h 1.611 V 113 Z"
       id="path60"
       inkscape:connector-curvature="0"
       style="fill:#ffffff;fill-opacity:1;stroke:none" /><path
       d="m 167.928,113 v -10.352 h 5.659 v 0.938 h -4.623 v 3.712 h 4.468 v 0.938 h -4.468 v 3.824 h 4.623 V 113 Z"
       id="path62"
       inkscape:connector-curvature="0"
       style="fill:#ffffff;fill-opacity:1;stroke:none" /><path
       d="m 178.136,113 h -2.788 v -10.352 h 2.438 c 1.877,0 2.97,0.224 3.95,0.813 1.541,0.91 2.353,2.451 2.353,4.398 0,2.984 -1.905,5.141 -5.953,5.141 z m 3.026,-8.741 c -0.785,-0.476 -1.765,-0.672 -3.334,-0.672 h -1.443 v 8.475 h 1.443 c 1.835,0 2.899,-0.266 3.726,-0.924 0.953,-0.771 1.485,-1.961 1.485,-3.32 0,-1.542 -0.687,-2.844 -1.877,-3.559 z"
       id="path64"
       inkscape:connector-curvature="0"
       style="fill:#ffffff;fill-opacity:1;stroke:none" /><path
       d="m 185.68,113 v -10.352 h 1.037 V 113 Z"
       id="path66"
       inkscape:connector-curvature="0"
       style="fill:#ffffff;fill-opacity:1;stroke:none" /><path
       d="m 196.772,113 -1.499,-3.488 h -4.819 L 188.942,113 h -1.092 l 4.44,-10.352 h 1.163 L 197.907,113 Z m -3.894,-9.175 -2.031,4.749 h 4.02 z"
       id="path68"
       inkscape:connector-curvature="0"
       style="fill:#ffffff;fill-opacity:1;stroke:none" /><path
       d="m 202.83,113 v -10.352 h 5.659 v 0.938 h -4.623 v 3.712 h 4.468 v 0.938 h -4.468 v 3.824 h 4.623 V 113 Z"
       id="path70"
       inkscape:connector-curvature="0"
       style="fill:#ffffff;fill-opacity:1;stroke:none" /><path
       d="m 217.45,113 -6.164,-9.105 V 113 h -1.037 v -10.352 h 1.401 l 5.799,8.586 v -8.586 h 1.037 V 113 Z"
       id="path72"
       inkscape:connector-curvature="0"
       style="fill:#ffffff;fill-opacity:1;stroke:none" /><path
       d="M 222.963,103.587 V 113 h -1.037 v -9.413 h -2.367 v -0.938 h 5.771 v 0.938 z"
       id="path74"
       inkscape:connector-curvature="0"
       style="fill:#ffffff;fill-opacity:1;stroke:none" /><path
       d="m 226.405,113 v -10.352 h 5.659 v 0.938 h -4.623 v 3.712 h 4.468 v 0.938 h -4.468 v 3.824 h 4.623 V 113 Z"
       id="path76"
       inkscape:connector-curvature="0"
       style="fill:#ffffff;fill-opacity:1;stroke:none" /><path
       d="M 237.79,109.134 240.689,113 H 239.4 l -3.488,-4.692 c 2.899,0 3.88,-0.504 3.88,-2.367 0,-1.723 -1.064,-2.354 -3.474,-2.354 h -1.457 V 113 h -1.037 v -10.352 h 2.563 c 3.25,0 4.455,1.177 4.455,3.334 10e-4,1.835 -1.064,2.942 -3.052,3.152 z"
       id="path78"
       inkscape:connector-curvature="0"
       style="fill:#ffffff;fill-opacity:1;stroke:none" /><path
       d="M 244.677,103.587 V 113 h -1.037 v -9.413 h -2.367 v -0.938 h 5.771 v 0.938 z"
       id="path80"
       inkscape:connector-curvature="0"
       style="fill:#ffffff;fill-opacity:1;stroke:none" /><path
       d="m 255.432,113 -1.499,-3.488 h -4.819 L 247.601,113 h -1.092 l 4.44,-10.352 h 1.163 L 256.566,113 Z m -3.895,-9.175 -2.031,4.749 h 4.02 z"
       id="path82"
       inkscape:connector-curvature="0"
       style="fill:#ffffff;fill-opacity:1;stroke:none" /><path
       d="m 257.695,113 v -10.352 h 1.037 V 113 Z"
       id="path84"
       inkscape:connector-curvature="0"
       style="fill:#ffffff;fill-opacity:1;stroke:none" /><path
       d="m 267.975,113 -6.164,-9.105 V 113 h -1.037 v -10.352 h 1.401 l 5.799,8.586 v -8.586 h 1.037 V 113 Z"
       id="path86"
       inkscape:connector-curvature="0"
       style="fill:#ffffff;fill-opacity:1;stroke:none" /><path
       d="m 280.758,113 v -9.217 L 276.864,113 h -0.896 l -3.88,-9.217 V 113 h -1.037 v -10.352 h 1.611 l 3.768,8.811 3.754,-8.811 h 1.611 V 113 Z"
       id="path88"
       inkscape:connector-curvature="0"
       style="fill:#ffffff;fill-opacity:1;stroke:none" /><path
       d="m 283.833,113 v -10.352 h 5.659 v 0.938 h -4.623 v 3.712 h 4.468 v 0.938 h -4.468 v 3.824 h 4.623 V 113 Z"
       id="path90"
       inkscape:connector-curvature="0"
       style="fill:#ffffff;fill-opacity:1;stroke:none" /><path
       d="m 298.453,113 -6.164,-9.105 V 113 h -1.037 v -10.352 h 1.401 l 5.799,8.586 v -8.586 h 1.036 V 113 Z"
       id="path92"
       inkscape:connector-curvature="0"
       style="fill:#ffffff;fill-opacity:1;stroke:none" /><path
       d="M 303.966,103.587 V 113 h -1.037 v -9.413 h -2.367 v -0.938 h 5.771 v 0.938 z"
       id="path94"
       inkscape:connector-curvature="0"
       style="fill:#ffffff;fill-opacity:1;stroke:none" /><path
       d="m 314.228,108.812 h -1.989 V 113 h -1.037 v -10.352 h 2.857 c 2.844,0 3.992,0.966 3.992,3.138 0.001,1.961 -1.008,3.026 -3.823,3.026 z m -0.519,-5.225 h -1.471 v 4.286 h 1.919 c 2.059,0 2.844,-0.588 2.844,-2.087 0,-2.101 -1.316,-2.199 -3.292,-2.199 z"
       id="path96"
       inkscape:connector-curvature="0"
       style="fill:#ffffff;fill-opacity:1;stroke:none" /><path
       d="m 319.406,113 v -10.352 h 1.037 v 9.413 h 4.287 V 113 Z"
       id="path98"
       inkscape:connector-curvature="0"
       style="fill:#ffffff;fill-opacity:1;stroke:none" /><path
       d="m 334.292,113 -1.499,-3.488 h -4.819 L 326.462,113 h -1.092 l 4.44,-10.352 h 1.163 L 335.427,113 Z m -3.894,-9.175 -2.031,4.749 h 4.02 z"
       id="path100"
       inkscape:connector-curvature="0"
       style="fill:#ffffff;fill-opacity:1;stroke:none" /><path
       d="M 339.092,109.54 V 113 h -1.037 v -3.46 l -3.586,-6.892 h 1.149 l 2.941,5.799 3.012,-5.799 h 1.135 z"
       id="path102"
       inkscape:connector-curvature="0"
       style="fill:#ffffff;fill-opacity:1;stroke:none" /><path
       d="m 343.71,113 v -10.352 h 5.659 v 0.938 h -4.623 v 3.712 h 4.468 v 0.938 h -4.468 v 3.824 h 4.623 V 113 Z"
       id="path104"
       inkscape:connector-curvature="0"
       style="fill:#ffffff;fill-opacity:1;stroke:none" /><path
       d="m 355.094,109.134 2.899,3.866 h -1.289 l -3.488,-4.692 c 2.899,0 3.88,-0.504 3.88,-2.367 0,-1.723 -1.064,-2.354 -3.474,-2.354 h -1.457 V 113 h -1.037 v -10.352 h 2.563 c 3.25,0 4.455,1.177 4.455,3.334 0.002,1.835 -1.063,2.942 -3.052,3.152 z"
       id="path106"
       inkscape:connector-curvature="0"
       style="fill:#ffffff;fill-opacity:1;stroke:none" /><path
       d="m 366.363,108.812 h -1.989 V 113 h -1.037 v -10.352 h 2.858 c 2.843,0 3.992,0.966 3.992,3.138 0,1.961 -1.008,3.026 -3.824,3.026 z m -0.518,-5.225 h -1.471 v 4.286 h 1.919 c 2.059,0 2.844,-0.588 2.844,-2.087 0,-2.101 -1.317,-2.199 -3.292,-2.199 z"
       id="path108"
       inkscape:connector-curvature="0"
       style="fill:#ffffff;fill-opacity:1;stroke:none" /><path
       d="m 376.528,113.182 c -3.096,0 -5.435,-2.297 -5.435,-5.323 0,-3.096 2.283,-5.393 5.365,-5.393 2.143,0 3.964,1.093 4.762,2.872 h -1.163 c -0.882,-1.387 -2.101,-1.919 -3.558,-1.919 -2.465,0 -4.356,1.905 -4.356,4.398 0,2.423 1.975,4.412 4.37,4.412 1.513,0 2.507,-0.574 3.6,-1.947 h 1.148 c -1.034,1.92 -2.632,2.9 -4.733,2.9 z"
       id="path110"
       inkscape:connector-curvature="0"
       style="fill:#ffffff;fill-opacity:1;stroke:none" /><path
       d="m 387.67,103.587 v 3.74 h 4.063 v 0.938 H 387.67 V 113 h -1.037 v -10.352 h 5.253 v 0.938 h -4.216 z"
       id="path112"
       inkscape:connector-curvature="0"
       style="fill:#ffffff;fill-opacity:1;stroke:none" /><path
       d="m 399.474,113 -2.927,-4.426 -2.942,4.426 h -1.218 l 3.516,-5.295 -3.32,-5.057 h 1.219 l 2.746,4.146 2.731,-4.146 h 1.205 l -3.32,5.057 3.53,5.295 z"
       id="path114"
       inkscape:connector-curvature="0"
       style="fill:#ffffff;fill-opacity:1;stroke:none" /></g><g
     id="g120"
     style="display:inline;fill:#ffffff;fill-opacity:1;stroke:none"
     transform="translate(-11.93,-4.079)"><path
       d="m 383.604,108.757 c -0.42,0 -0.755,-0.336 -0.755,-0.756 0,-0.419 0.335,-0.755 0.755,-0.755 0.408,0 0.756,0.336 0.756,0.755 0,0.42 -0.348,0.756 -0.756,0.756 z"
       id="path118"
       inkscape:connector-curvature="0"
       style="fill:#ffffff;fill-opacity:1;stroke:none" /></g><path
     style="fill:none;stroke:#ffffff;stroke-width:1px;stroke-linecap:butt;stroke-linejoin:miter;stroke-opacity:1"
     d="M 0.49506061,37.109516 0.56436912,68.9237 22.64217,81.409535 50.090247,66.657592 V 10.50738 Z"
     id="path4744"
     inkscape:connector-curvature="0" /></svg>