<?xml version="1.0" encoding="UTF-8" standalone="no"?>
<svg
   xmlns:dc="http://purl.org/dc/elements/1.1/"
   xmlns:cc="http://creativecommons.org/ns#"
   xmlns:rdf="http://www.w3.org/1999/02/22-rdf-syntax-ns#"
   xmlns:svg="http://www.w3.org/2000/svg"
   xmlns="http://www.w3.org/2000/svg"
   xmlns:sodipodi="http://sodipodi.sourceforge.net/DTD/sodipodi-0.dtd"
   xmlns:inkscape="http://www.inkscape.org/namespaces/inkscape"
   inkscape:version="1.0 (4035a4fb49, 2020-05-01)"
   sodipodi:docname="platformers.svg"
   id="svg8"
   version="1.1"
   viewBox="0 0 104.67143 28.366024"
   height="107.21017"
   width="395.60858">
  <sodipodi:namedview
     inkscape:current-layer="svg8"
     inkscape:window-maximized="0"
     inkscape:window-y="0"
     inkscape:window-x="0"
     inkscape:cy="52.03777"
     inkscape:cx="197.32307"
     inkscape:zoom="2.6225"
     fit-margin-bottom="5"
     fit-margin-right="5"
     fit-margin-left="5"
     fit-margin-top="5"
     inkscape:pagecheckerboard="true"
     lock-margins="true"
     showgrid="false"
     id="namedview17"
     inkscape:window-height="480"
     inkscape:window-width="708"
     inkscape:pageshadow="2"
     inkscape:pageopacity="0"
     guidetolerance="10"
     gridtolerance="10"
     objecttolerance="10"
     borderopacity="1"
     bordercolor="#666666"
     pagecolor="#ffffff" />
  <defs
     id="defs2" />
  <metadata
     id="metadata5">
    <rdf:RDF>
      <cc:Work
         rdf:about="">
        <dc:format>image/svg+xml</dc:format>
        <dc:type
           rdf:resource="http://purl.org/dc/dcmitype/StillImage" />
        <dc:title></dc:title>
      </cc:Work>
    </rdf:RDF>
  </metadata>
  <g
     transform="translate(-0.70826981,-263.3879)"
     id="layer1">
    <path
       d="m 12.086862,271.09445 c 0.570576,0 0.933803,0.46065 1.091856,1.3948 0.04789,0.61543 -0.01474,1.2125 -0.189754,1.79046 0,0 -0.124599,0.41138 -0.124599,0.41138 -0.304586,1.0056 -0.882045,1.92446 -1.737868,2.75143 -0.477949,0.44638 -1.006569,0.67097 -1.5828422,0.67097 0,0 -2.3356522,0 -2.3356522,0 0,0 -1.7147206,4.95513 -1.7147206,4.95513 -0.099734,0.28821 -0.018332,0.63325 0.2459524,1.03616 0.1494531,0.15358 0.2364453,0.23053 0.2606802,0.23053 0,0 -0.021297,0.063 -0.021297,0.063 0,0 -3.6667937,0 -3.6667937,0 0,0 0.023274,-0.063 0.023274,-0.063 0.7869648,-0.3976 1.2670981,-0.84073 1.443365,-1.32824 0,0 3.9060427,-10.80323 3.9060427,-10.80323 0.1407008,-0.38914 -0.010783,-0.7423 -0.4515402,-1.06024 0,0 0.018151,-0.049 0.018151,-0.049 0,0 4.8356556,-1e-5 4.8356556,-1e-5 m -4.3226699,5.4118 c 0,0 1.5280749,0 1.5280749,0 0.714223,0 1.378593,-0.53709 1.983801,-1.59501 0.09115,-0.21723 0.154188,-0.38102 0.18935,-0.49187 0.276792,-0.87257 0.128722,-1.49332 -0.43755,-1.87116 -0.115396,-0.0562 -0.230882,-0.0843 -0.346557,-0.0843 0,0 -1.5182881,0 -1.5182881,0 0,0 -1.3988308,4.0423 -1.3988308,4.0423"
       style="font-style:normal;font-variant:normal;font-weight:normal;font-stretch:normal;font-size:medium;line-height:1.25;font-family:Argentina;-inkscape-font-specification:Argentina;letter-spacing:0px;word-spacing:0px;fill:#ffffff;fill-opacity:1;stroke:#ffffff;stroke-width:0.391;stroke-miterlimit:4;stroke-dasharray:none;stroke-opacity:1"
       id="path821" />
    <path
       d="m 17.724879,271.09445 c 0,0 -0.01303,0.049 -0.01303,0.049 -0.64596,0.29043 -1.039145,0.68769 -1.177797,1.19432 0,0 -2.833111,10.3521 -2.833111,10.3521 0,0 3.55181,0 3.55181,0 0.306436,0 0.700386,-0.53784 1.174957,-1.59812 0,0 0.03532,0 0.03532,0 0,0 -0.760116,3.24337 -0.760116,3.24337 -0.0098,0.0419 -0.02687,0.0631 -0.05113,0.0631 0,0 -7.121457,0 -7.121457,0 0,0 0.01878,-0.0631 0.01878,-0.0631 0.75803,-0.35587 1.237103,-0.8855 1.438872,-1.58402 0,0 2.98623,-10.33773 2.98623,-10.33773 0.165781,-0.57391 0.0036,-0.99598 -0.484096,-1.26992 0,0 0.01465,-0.049 0.01465,-0.049 0,0 3.220196,0 3.220196,0"
       style="font-style:normal;font-variant:normal;font-weight:normal;font-stretch:normal;font-size:medium;line-height:1.25;font-family:Argentina;-inkscape-font-specification:Argentina;letter-spacing:0px;word-spacing:0px;fill:#ffffff;fill-opacity:1;stroke:#ffffff;stroke-width:0.391;stroke-miterlimit:4;stroke-dasharray:none;stroke-opacity:1"
       id="path823" />
    <path
       d="m 26.882661,271.09445 c 0,0 -0.0081,0.049 -0.0081,0.049 -0.41512,0.14773 -0.657675,0.41424 -0.727136,0.80139 -0.01096,0.0612 0.08627,3.50147 0.314002,11.06206 -0.0094,0.4117 0.248316,0.85422 0.776334,1.32822 0,0 0.0363,0 0.0363,0 0,0 -0.0095,0.0631 -0.0095,0.0631 0,0 -3.406176,0 -3.406176,0 0,0 0.01133,-0.0631 0.01133,-0.0631 0.50844,-0.18171 0.791638,-0.44275 0.85054,-0.78205 0.02409,0 0.04925,-0.0758 0.07548,-0.22736 0,0 0.0054,-0.0311 0.0054,-0.0311 0.02731,-0.15783 0.031,-0.92348 0.0115,-2.27232 0,0 -2.793115,0 -2.793115,0 -0.529052,1.32179 -0.81527,2.07682 -0.849128,2.24141 0,0 -0.01915,0.0929 -0.01915,0.0929 -0.09663,0.46979 0.08205,0.79677 0.53775,0.97848 0,0 0.01815,0 0.01815,0 0,0 -0.01258,0.0631 -0.01258,0.0631 0,0 -3.406177,0 -3.406177,0 0,0 0.01447,-0.0631 0.01447,-0.0631 0.293479,-0.11887 0.644259,-0.41497 1.05026,-0.88551 0.07611,0 0.546144,-1.09523 1.385253,-3.22283 2.295478,-5.56516 3.368705,-8.19581 3.390873,-8.30692 0.0717,-0.35942 -0.07152,-0.6177 -0.428473,-0.77642 0,0 0.01007,-0.049 0.01007,-0.049 0,0 3.17205,10e-6 3.17205,10e-6 m -4.211895,8.30984 c 0,0 2.103107,0 2.103107,0 0,0 0.0054,-0.0289 0.0054,-0.0289 -0.05625,-3.3913 -0.07809,-5.03469 -0.06819,-5.08703 0,0 -0.03864,0 -0.03864,0 0,0 -2.001451,5.1159 -2.001451,5.1159"
       style="font-style:normal;font-variant:normal;font-weight:normal;font-stretch:normal;font-size:medium;line-height:1.25;font-family:Argentina;-inkscape-font-specification:Argentina;letter-spacing:0px;word-spacing:0px;fill:#ffffff;fill-opacity:1;stroke:#ffffff;stroke-width:0.391;stroke-miterlimit:4;stroke-dasharray:none;stroke-opacity:1"
       id="path825" />
    <path
       d="m 36.104621,271.09445 c 0.02454,0.005 0.03568,0.0215 0.03343,0.049 0,0 -0.216748,2.67608 -0.216748,2.67608 0,0 -0.03847,0 -0.03847,0 -0.136719,-0.9078 -0.334319,-1.35571 -0.594595,-1.35571 0,0 -1.708071,0 -1.708071,0 0,0 -1.08518,10.31789 -1.08518,10.31789 -0.06991,0.66445 0.195507,1.18363 0.799752,1.55341 0,0 -0.0063,0.0631 -0.0063,0.0631 0,0 -3.666793,0 -3.666793,0 0,0 0.0081,-0.0631 0.0081,-0.0631 0.475668,-0.25142 0.826422,-0.5988 1.052515,-1.04035 0.0027,-0.0208 0.02489,-0.10645 0.06704,-0.2571 0,0 1.274439,-10.57385 1.274439,-10.57385 0,0 -1.691797,0 -1.691797,0 -0.263897,0 -0.563136,0.43943 -0.902127,1.32979 0,0 -0.03298,0 -0.03298,0 0,0 0.383077,-2.65016 0.383077,-2.65016 0.0081,-0.0328 0.02139,-0.049 0.03919,-0.049 0,0 6.285269,0 6.285269,0"
       style="font-style:normal;font-variant:normal;font-weight:normal;font-stretch:normal;font-size:medium;line-height:1.25;font-family:Argentina;-inkscape-font-specification:Argentina;letter-spacing:0px;word-spacing:0px;fill:#ffffff;fill-opacity:1;stroke:#ffffff;stroke-width:0.391;stroke-miterlimit:4;stroke-dasharray:none;stroke-opacity:1"
       id="path827" />
    <path
       d="m 42.962264,271.09445 c 0.0213,0.005 0.03181,0.0215 0.03146,0.049 0,0 -0.03334,2.67608 -0.03334,2.67608 0,0 -0.03298,0 -0.03298,0 -0.198983,-0.9078 -0.429103,-1.35571 -0.693,-1.35571 0,0 -3.242606,0 -3.242606,0 0,0 -0.212175,4.09688 -0.212175,4.09688 0,0 2.143795,0 2.143795,0 0.308404,0 0.57834,-0.47149 0.806735,-1.40194 0,0 0.039,0 0.039,0 0,0 -0.105448,4.4378 -0.105448,4.4378 0,0 -0.04062,0 -0.04062,0 -0.106707,-0.67696 -0.284223,-1.15086 -0.532593,-1.42694 0,0 -0.124292,-0.0562 -0.124292,-0.0562 0,0 -2.266948,0 -2.266948,0 0,0 -0.0337,0.65102 -0.0337,0.65102 -0.04897,0.94479 -0.11722,2.37697 -0.206531,4.33491 -0.01627,0.31591 0.221457,0.69249 0.716246,1.13096 0.09375,0.07 0.154809,0.10498 0.183078,0.10498 0,0 -0.0027,0.0631 -0.0027,0.0631 0,0 -3.684972,0 -3.684972,0 0,0 0.0045,-0.0631 0.0045,-0.0631 0.669915,-0.39759 1.019582,-0.84072 1.052318,-1.32823 0,0 0.725349,-10.80325 0.725349,-10.80325 0.02614,-0.38914 -0.229338,-0.74231 -0.763692,-1.06023 0,0 0.0036,-0.049 0.0036,-0.049 0,0 6.269229,-7e-5 6.269229,-7e-5"
       style="font-style:normal;font-variant:normal;font-weight:normal;font-stretch:normal;font-size:medium;line-height:1.25;font-family:Argentina;-inkscape-font-specification:Argentina;letter-spacing:0px;word-spacing:0px;fill:#ffffff;fill-opacity:1;stroke:#ffffff;stroke-width:0.391;stroke-miterlimit:4;stroke-dasharray:none;stroke-opacity:1"
       id="path829" />
    <path
       d="m 64.952804,271.09445 c 0.570576,0 1.132805,0.46065 1.694404,1.3948 0.329063,0.64952 0.538218,1.3103 0.625129,1.9826 0.170327,1.3175 -0.07036,2.40265 -0.733175,3.23991 -0.280862,0.26748 -0.646992,0.40173 -1.097328,0.40173 0,0 -0.429354,0 -0.429354,0 0,0 4.260122,6.25332 4.260122,6.25332 0,0 0.0045,0.0316 0.0045,0.0316 0,0 -3.363762,0 -3.363762,0 0,0 -0.0063,-0.063 -0.0063,-0.063 0.46934,-0.32108 0.685442,-0.63688 0.650451,-0.94751 0,0 -0.0036,-0.0311 -0.0036,-0.0311 -0.01474,-0.13055 -0.184696,-0.41808 -0.508071,-0.86019 -1.713786,-2.58733 -2.668544,-4.01929 -2.921973,-4.38315 0,0 -0.01716,0 -0.01716,0 0,0 0.425903,4.95515 0.425903,4.95515 0.02481,0.2882 0.255216,0.63323 0.693574,1.03614 0.215796,0.15359 0.336028,0.23053 0.360262,0.23053 0,0 0.0063,0.063 0.0063,0.063 0,0 -3.666793,0 -3.666793,0 0,0 -0.0036,-0.063 -0.0036,-0.063 0.615209,-0.3976 0.903907,-0.84072 0.869572,-1.32824 0,0 -0.760968,-10.80323 -0.760968,-10.80323 -0.02741,-0.38914 -0.331472,-0.74231 -0.909569,-1.06023 0,0 -0.0027,-0.049 -0.0027,-0.049 0,0 4.83565,-4e-5 4.83565,-4e-5 m -1.984773,5.41181 c 0,0 1.528083,0 1.528083,0 0.714225,0 1.146571,-0.53709 1.294758,-1.59502 -0.0045,-0.22894 -0.01079,-0.38393 -0.02013,-0.46562 -0.10349,-0.90166 -0.520668,-1.53088 -1.248901,-1.89741 -0.139677,-0.0562 -0.267286,-0.0843 -0.38297,-0.0843 0,0 -1.51828,0 -1.51828,0 0,0 0.347439,4.04231 0.347439,4.04231"
       style="font-style:normal;font-variant:normal;font-weight:normal;font-stretch:normal;font-size:medium;line-height:1.25;font-family:Argentina;-inkscape-font-specification:Argentina;letter-spacing:0px;word-spacing:0px;fill:#ffffff;fill-opacity:1;stroke:#ffffff;stroke-width:0.391;stroke-miterlimit:4;stroke-dasharray:none;stroke-opacity:1"
       id="path833" />
    <path
       d="m 71.254122,271.09445 c 0,0 0.0081,0.049 0.0081,0.049 -0.178029,0.0438 -0.377039,0.24922 -0.598136,0.6185 -0.06128,0.17177 -0.08465,0.30239 -0.07,0.3915 0,0 3.965106,8.9086 3.965106,8.9086 0,0 0.01761,0 0.01761,0 0.362032,-5.3207 0.552353,-8.17578 0.596105,-8.93368 -0.06784,-0.32215 -0.410771,-0.6505 -1.026133,-0.98492 0,0 -0.01,-0.049 -0.01,-0.049 0,0 3.204148,0 3.204148,0 0,0 0.0115,0.049 0.0115,0.049 -0.487628,0.3014 -0.678838,0.69046 -0.570657,1.16915 0,0 2.386747,10.56113 2.386747,10.56113 0.134815,0.59656 0.565104,1.08466 1.2934,1.46139 0,0 0.01473,0.0631 0.01473,0.0631 0,0 -3.666794,0 -3.666794,0 0,0 -0.01276,-0.0631 -0.01276,-0.0631 0.563802,-0.37673 0.780963,-0.86483 0.655303,-1.46139 0,0 -1.057915,-5.02233 -1.057915,-5.02233 0,0 -0.01716,0 -0.01716,0 -0.02039,0.59431 -0.131347,2.71449 -0.343296,6.54676 0,0 -1.660662,0 -1.660662,0 -0.0364,0 -0.536734,-1.14462 -1.472453,-3.36582 -0.913278,-2.10321 -1.361565,-3.15295 -1.370812,-3.20895 0,0 -0.01717,0 -0.01717,0 0,0 0.802771,4.86648 0.802771,4.86648 0.09695,0.58772 0.336144,1.01528 0.718151,1.27895 0.242286,0.21601 0.414626,0.33831 0.516382,0.3663 0,0 0.01096,0.0631 0.01096,0.0631 0,0 -3.666794,0 -3.666794,0 0,0 -0.009,-0.0631 -0.009,-0.0631 0.583732,-0.3976 0.837358,-0.8407 0.76442,-1.32822 0,0 -1.616245,-10.80322 -1.616245,-10.80322 -0.05822,-0.38915 -0.390229,-0.74232 -0.993496,-1.06023 0,0 -0.0072,-0.049 -0.0072,-0.049 0,0 3.220196,0 3.220196,0"
       style="font-style:normal;font-variant:normal;font-weight:normal;font-stretch:normal;font-size:medium;line-height:1.25;font-family:Argentina;-inkscape-font-specification:Argentina;letter-spacing:0px;word-spacing:0px;fill:#ffffff;fill-opacity:1;stroke:#ffffff;stroke-width:0.391;stroke-miterlimit:4;stroke-dasharray:none;stroke-opacity:1"
       id="path835" />
    <path
       d="m 84.188407,271.09445 c 0.023,0.005 0.03864,0.0215 0.047,0.049 0,0 0.8112,2.67608 0.8112,2.67608 0,0 -0.03298,0 -0.03298,0 -0.48549,-0.9078 -0.856965,-1.35571 -1.120862,-1.35571 0,0 -3.242607,0 -3.242607,0 0,0 1.080803,4.09688 1.080803,4.09688 0,0 2.143796,0 2.143796,0 0.308413,0 0.429543,-0.47149 0.364287,-1.40194 0,0 0.039,0 0.039,0 0,0 1.295133,4.4378 1.295133,4.4378 0,0 -0.04062,0 -0.04062,0 -0.320357,-0.67696 -0.647442,-1.15086 -0.982947,-1.42694 0,0 -0.14204,-0.0562 -0.14204,-0.0562 0,0 -2.266957,0 -2.266957,0 0,0 1.207351,4.57656 1.207351,4.57656 0,0 3.498093,0 3.498093,0 0.354188,0 0.476908,-0.53784 0.369706,-1.59812 0,0 0.03532,0 0.03532,0 0,0 0.983163,3.24337 0.983163,3.24337 0.01276,0.042 0.0072,0.063 -0.01725,0.063 0,0 -7.121459,0 -7.121459,0 0,0 -0.0151,-0.063 -0.0151,-0.063 0.544436,-0.39761 0.754256,-0.84072 0.633127,-1.32825 0,0 -2.68418,-10.80322 -2.68418,-10.80322 -0.09669,-0.38913 -0.463609,-0.7423 -1.098307,-1.06025 0,0 -0.01178,-0.049 -0.01178,-0.049 0,0 6.269219,-3e-5 6.269219,-3e-5"
       style="font-style:normal;font-variant:normal;font-weight:normal;font-stretch:normal;font-size:medium;line-height:1.25;font-family:Argentina;-inkscape-font-specification:Argentina;letter-spacing:0px;word-spacing:0px;fill:#ffffff;fill-opacity:1;stroke:#ffffff;stroke-width:0.391;stroke-miterlimit:4;stroke-dasharray:none;stroke-opacity:1"
       id="path837" />
    <path
       d="m 89.601768,271.09445 c 0.570585,0 1.246359,0.46065 2.038221,1.3948 0.489164,0.64952 0.861187,1.3103 1.113817,1.9826 0.495086,1.3175 0.521855,2.40265 0.06541,3.23991 -0.214932,0.26748 -0.547967,0.40173 -0.998304,0.40173 0,0 -0.429354,0 -0.429354,0 0,0 5.801519,6.25332 5.801519,6.25332 0,0 0.01206,0.0316 0.01206,0.0316 0,0 -3.363775,0 -3.363775,0 0,0 -0.0222,-0.063 -0.0222,-0.063 0.390192,-0.32108 0.528451,-0.63688 0.416898,-0.94751 0,0 -0.01114,-0.0311 -0.01114,-0.0311 -0.04695,-0.13055 -0.287744,-0.41808 -0.720088,-0.86019 -2.351551,-2.58733 -3.659265,-4.01929 -4.00239,-4.38315 0,0 -0.01717,0 -0.01717,0 0,0 1.6473,4.95515 1.6473,4.95515 0.09581,0.2882 0.411301,0.63323 0.948971,1.03614 0.253654,0.15359 0.392854,0.23053 0.417088,0.23053 0,0 0.02148,0.063 0.02148,0.063 0,0 -3.666794,0 -3.666794,0 0,0 -0.01941,-0.063 -0.01941,-0.063 0.517209,-0.3976 0.696693,-0.84072 0.542181,-1.32824 0,0 -3.423869,-10.80323 -3.423869,-10.80323 -0.123332,-0.38914 -0.514442,-0.74231 -1.170905,-1.06023 0,0 -0.01519,-0.049 -0.01519,-0.049 0,0 4.835632,-4e-5 4.835632,-4e-5 m -0.650801,5.41181 c 0,0 1.528074,0 1.528074,0 0.714233,0 1.014191,-0.53709 0.901607,-1.59502 -0.06047,-0.22894 -0.105387,-0.38393 -0.134896,-0.46562 -0.325747,-0.90166 -0.898022,-1.53088 -1.716608,-1.89741 -0.153515,-0.0562 -0.288051,-0.0843 -0.403726,-0.0843 0,0 -1.51828,0 -1.51828,0 0,0 1.343829,4.04231 1.343829,4.04231"
       style="font-style:normal;font-variant:normal;font-weight:normal;font-stretch:normal;font-size:medium;line-height:1.25;font-family:Argentina;-inkscape-font-specification:Argentina;letter-spacing:0px;word-spacing:0px;fill:#ffffff;fill-opacity:1;stroke:#ffffff;stroke-width:0.391;stroke-miterlimit:4;stroke-dasharray:none;stroke-opacity:1"
       id="path839" />
    <path
       d="m 97.170866,271.09445 c 0.620506,0 1.388852,0.52955 2.319752,1.60568 0.436416,0.56669 0.757522,1.07639 0.961022,1.52729 0,0 0.14589,0.32325 0.14589,0.32325 0.0185,0.0409 0.0166,0.0614 -0.006,0.0614 0,0 -1.866089,0 -1.866089,0 0,0 -0.02658,-0.0614 -0.02658,-0.0614 0.121747,0 0.129794,-0.18081 0.02475,-0.54053 -0.170555,-0.39166 -0.528296,-0.82019 -1.070457,-1.28465 -0.25964,-0.15762 -0.461476,-0.23624 -0.606111,-0.23624 0,0 -1.22036,0 -1.22036,0 -0.441138,0 -0.59539,0.43964 -0.461021,1.33045 0.0579,0.22515 0.12193,0.42515 0.192292,0.59969 0,0 0.04228,0.10495 0.04228,0.10495 0.382474,0.94882 0.942453,1.61316 1.678541,1.98187 0.131546,0.0365 0.255649,0.0546 0.372244,0.0546 0,0 1.810946,0 1.810946,0 0.804865,0 1.745955,0.71522 2.845425,2.17516 0.34525,0.502 0.6119,0.96041 0.79858,1.37401 0,0 0.20727,0.45929 0.20727,0.45929 0.53421,1.18372 0.68064,2.2364 0.42749,3.14984 -0.17911,0.45187 -0.47729,0.67918 -0.89346,0.67918 0,0 -2.8304,0 -2.8304,0 -0.775793,0 -1.675448,-0.68265 -2.680693,-2.02352 -0.449065,-0.64518 -0.78463,-1.25648 -1.008843,-1.83492 0,0 -0.106165,-0.27393 -0.106165,-0.27393 -0.01379,-0.0456 -0.01087,-0.0683 0.0092,-0.0683 0,0 1.966787,0 1.966787,0 0,0 0.02767,0.0683 0.02767,0.0683 -0.131802,0.0976 -0.147712,0.27067 -0.04722,0.51968 0,0 0.07169,0.17762 0.07169,0.17762 0.165486,0.41007 0.529456,0.8667 1.094797,1.37102 0.283222,0.21655 0.524707,0.32516 0.723627,0.32516 0,0 1.26518,0 1.26518,0 0.52915,0 0.6762,-0.53754 0.44456,-1.59724 -0.0508,-0.19768 -0.11331,-0.38154 -0.18747,-0.55173 0,0 -0.14905,-0.342 -0.14905,-0.342 -0.34279,-0.78661 -0.8488,-1.4103 -1.517332,-1.8765 -0.188574,-0.11907 -0.374291,-0.17849 -0.557486,-0.17849 0,0 -1.820435,0 -1.820435,0 -0.595362,0 -1.239742,-0.34896 -1.926409,-1.04013 -0.71972,-0.76087 -1.244783,-1.57341 -1.578723,-2.43498 0,0 -0.128883,-0.33252 -0.128883,-0.33252 -0.441342,-1.13866 -0.462369,-2.07691 -0.07477,-2.82507 0.21522,-0.25789 0.452576,-0.38634 0.712901,-0.38634 0,0 2.621104,5e-5 2.621104,5e-5"
       style="font-style:normal;font-variant:normal;font-weight:normal;font-stretch:normal;font-size:medium;line-height:1.25;font-family:Argentina;-inkscape-font-specification:Argentina;letter-spacing:0px;word-spacing:0px;fill:#ffffff;fill-opacity:1;stroke:#ffffff;stroke-width:0.391;stroke-miterlimit:4;stroke-dasharray:none;stroke-opacity:1"
       id="path841" />
    <path
       id="path896"
       d="m 47.961091,281.4108 c 0,0 -1.854307,1.89861 -2.832778,2.84265 -0.851265,-0.84847 -1.583837,-1.86292 -2.063835,-3.03274 -1.032642,-2.51693 -1.018132,-5.07392 0.134946,-7.51512 2.390797,-5.06087 7.840925,-6.17466 11.342043,-4.89129 -0.267858,0.14762 -8.919517,4.83895 -8.919517,4.83895 l 0.03463,7.1279 z m -7.990091,9.02021 16.992317,-9.30664 -0.03464,-6.24345 -2.960468,-0.76981 c 1.93e-4,0 9.261765,-9.40029 9.261765,-9.40029 l -16.992413,9.30655 0.03463,6.24345 2.962403,0.7704 z m 7.103324,-10.74683 -0.01731,-5.2375 11.842259,-6.43131 -8.506654,8.61074 0.578087,0.58969 2.733432,-2.44602 2.461317,0.70074 0.01741,5.23769 -11.84226,6.43131 8.506654,-8.61093 -0.57828,-0.5897 -2.734495,2.44574 z m 10.469982,-5.3236 0.03463,7.128 c 0,0 -8.651659,4.69133 -8.919518,4.83895 3.501022,1.28338 8.951247,0.16938 11.342045,-4.89148 1.153174,-2.441 1.167491,-4.99809 0.134848,-7.51503 -0.479901,-1.16981 -1.212472,-2.18427 -2.063738,-3.03273 -0.978471,0.94394 -2.832681,2.84265 -2.832681,2.84265 z"
       style="clip-rule:evenodd;opacity:1;fill:#ffffff;fill-rule:evenodd;stroke-width:0.0967347" />
  </g>
</svg>
