<?xml version="1.0" encoding="UTF-8" standalone="no"?>
<svg
   xmlns:dc="http://purl.org/dc/elements/1.1/"
   xmlns:cc="http://creativecommons.org/ns#"
   xmlns:rdf="http://www.w3.org/1999/02/22-rdf-syntax-ns#"
   xmlns:svg="http://www.w3.org/2000/svg"
   xmlns="http://www.w3.org/2000/svg"
   xmlns:sodipodi="http://sodipodi.sourceforge.net/DTD/sodipodi-0.dtd"
   xmlns:inkscape="http://www.inkscape.org/namespaces/inkscape"
   xml:space="preserve"
   enable-background="new 0 0 206.2 96.9"
   viewBox="0 0 212.80001 105.4"
   height="105.4"
   width="212.8"
   y="0px"
   x="0px"
   sodipodi:docname="ports.svg"
   inkscape:version="1.0 (4035a4fb49, 2020-05-01)"
   id="Capa_1"
   version="1.0"><metadata
   id="metadata40"><rdf:RDF><cc:Work
       rdf:about=""><dc:format>image/svg+xml</dc:format><dc:type
         rdf:resource="http://purl.org/dc/dcmitype/StillImage" /><dc:title></dc:title></cc:Work></rdf:RDF></metadata><defs
   id="defs38" />
<sodipodi:namedview
   lock-margins="true"
   inkscape:pagecheckerboard="true"
   inkscape:document-rotation="0"
   showgrid="false"
   pagecolor="#ffffff"
   objecttolerance="10"
   inkscape:zoom="0.61694915"
   inkscape:window-y="0"
   inkscape:window-x="0"
   inkscape:window-width="708"
   inkscape:window-maximized="0"
   inkscape:window-height="480"
   inkscape:pageshadow="2"
   inkscape:pageopacity="0"
   inkscape:cy="42.449998"
   inkscape:cx="192.15"
   inkscape:current-layer="Capa_1"
   id="namedview15"
   guidetolerance="10"
   gridtolerance="10"
   fit-margin-top="5"
   fit-margin-right="5"
   fit-margin-left="5"
   fit-margin-bottom="5"
   borderopacity="1"
   bordercolor="#666666">
	</sodipodi:namedview>
<g
   transform="translate(3.5,4.3)"
   id="g35">
	<g
   id="g5">
		<path
   id="path3"
   d="M 1.5,96.1 10.4,81.9 V 6.3 L 4.8,0.7 H 37.7 L 47,6.6 V 44.5 L 26.6,55.7 v 14.8 h 6.3 z M 14.3,4.6 v 0 76 l 8.4,-6.8 V 53.4 L 43.1,42.1 V 8.7 L 36.7,4.6 Z"
   fill="#ffffff" />
	</g>
	<g
   id="g9">
		<path
   id="path7"
   d="M 66.4,87.9 48.1,71.4 V 7 L 54.9,0.7 H 78.5 L 84.7,7 V 71.1 Z M 52,69.6 66.4,82.6 80.8,69.3 V 8.6 l -3.9,-4 H 56.4 L 52,8.7 Z"
   fill="#ffffff" />
	</g>
	<g
   id="g13">
		<path
   id="path11"
   d="M 82.8,94.3 88,83.8 V 7 L 81.2,0.7 h 32.7 l 10.7,6 v 23.8 l -9.4,5.4 9.4,5.3 v 19.1 l 2.1,2.4 -18,13 V 48.2 l -4.6,-2.4 v 28 l 2.8,3.1 z m 8.4,-89.7 0.7,0.6 v 77.7 l 9.2,-6.6 -0.9,-0.9 v -36 l 12.4,6.5 V 68 l 8.3,-6 -0.2,-0.2 V 43.4 l -13.5,-7.6 13.5,-7.7 V 8.8 L 112.9,4.4 H 91.2 Z"
   fill="#ffffff" />
	</g>
	<g
   id="g17">
		<path
   id="path15"
   d="M 132.1,96.1 137,84.9 V 17.6 h -9.9 V 6.6 L 116.3,0.7 h 44.2 l 3.3,4.1 v 12.8 h -10.7 v 57.1 l 2.5,4 z M 131,13.7 h 9.9 v 70.9 l 9.3,-6.9 -1.2,-1.9 V 13.7 h 10.7 V 6.1 L 158.5,4.6 H 131 Z"
   fill="#ffffff" />
	</g>
	<g
   id="g21">
		<path
   id="path19"
   d="m 162.6,93.3 5,-11 V 46.6 h 16.2 v 6 L 187.2,50 V 47.7 L 167.7,36.6 V 6.2 l -5.1,-5.5 h 33.2 l 8.5,5.5 v 14 h -16.8 v -2.7 h -3.9 V 30 l 20.7,10.7 v 19.6 z m 8.9,-42.8 V 81.2 L 200.3,58.5 V 43.2 L 179.6,32.5 V 13.7 h 11.7 v 2.7 h 8.9 v -8 l -5.7,-3.7 h -23.1 l 0.1,0.1 v 29.6 l 19.5,11 v 6.5 l -11.2,8.8 V 50.5 Z"
   fill="#ffffff" />
	</g>
	<g
   id="g25">
		<path
   id="path23"
   d="M 22.7,44.8 V 13.7 h 12.6 v 23.4 z m 3.9,-27.2 v 20.2 l 4.7,-2.9 V 17.6 Z"
   fill="#ffffff" />
	</g>
	<g
   id="g29">
		<path
   id="path27"
   d="M 72.6,72 61.2,62.7 v -50 H 72.6 Z M 65,60.8 l 3.6,3 V 16.6 H 65 Z"
   fill="#ffffff" />
	</g>
	<g
   id="g33">
		<path
   id="path31"
   d="M 99.8,33.3 V 13.7 h 12.8 v 11.6 z m 3.9,-15.7 v 8.6 l 5,-3.1 v -5.5 z"
   fill="#ffffff" />
	</g>
</g>
</svg>
