<?xml version="1.0" encoding="utf-8"?>
<!-- Generator: Adobe Illustrator 21.1.0, SVG Export Plug-In . SVG Version: 6.00 Build 0)  -->
<svg version="1.0"
	 id="Capa_1" inkscape:version="0.92.2 (unknown)" sodipodi:docname="power.svg" xmlns:cc="http://creativecommons.org/ns#" xmlns:dc="http://purl.org/dc/elements/1.1/" xmlns:inkscape="http://www.inkscape.org/namespaces/inkscape" xmlns:rdf="http://www.w3.org/1999/02/22-rdf-syntax-ns#" xmlns:sodipodi="http://sodipodi.sourceforge.net/DTD/sodipodi-0.dtd" xmlns:svg="http://www.w3.org/2000/svg"
	 xmlns="http://www.w3.org/2000/svg" xmlns:xlink="http://www.w3.org/1999/xlink" x="0px" y="0px" width="206.2px" height="96.9px"
	 viewBox="0 0 206.2 96.9" enable-background="new 0 0 206.2 96.9" xml:space="preserve">
<sodipodi:namedview  bordercolor="#666666" borderopacity="1" fit-margin-bottom="0" fit-margin-left="0" fit-margin-right="0" fit-margin-top="0" gridtolerance="10" guidetolerance="10" id="namedview15" inkscape:current-layer="Capa_1" inkscape:cx="188.65" inkscape:cy="38.149998" inkscape:pageopacity="0" inkscape:pageshadow="2" inkscape:window-height="480" inkscape:window-maximized="0" inkscape:window-width="640" inkscape:window-x="0" inkscape:window-y="0" inkscape:zoom="0.61694915" objecttolerance="10" pagecolor="#ffffff" showgrid="false">
	</sodipodi:namedview>
<g>
	<g>
		<path fill="#FFFFFF" d="M1.5,96.1l8.9-14.2V6.3L4.8,0.7h32.9L47,6.6v37.9L26.6,55.7v14.8h6.3L1.5,96.1z M14.3,4.6L14.3,4.6l0,76
			l8.4-6.8V53.4l20.4-11.3V8.7l-6.4-4.1H14.3z"/>
	</g>
	<g>
		<path fill="#FFFFFF" d="M66.4,87.9L48.1,71.4V7l6.8-6.3h23.6L84.7,7v64.1L66.4,87.9z M52,69.6l14.4,13l14.4-13.3V8.6l-3.9-4H56.4
			L52,8.7V69.6z"/>
	</g>
	<g>
		<path fill="#FFFFFF" d="M82.8,94.3L88,83.8V7l-6.8-6.3h32.7l10.7,6l0,23.8l-9.4,5.4l9.4,5.3v19.1l2.1,2.4l-18,13V48.2l-4.6-2.4v28
			l2.8,3.1L82.8,94.3z M91.2,4.6l0.7,0.6v77.7l9.2-6.6l-0.9-0.9v-36l12.4,6.5V68l8.3-6l-0.2-0.2V43.4l-13.5-7.6l13.5-7.7l0-19.3
			l-7.8-4.4H91.2z"/>
	</g>
	<g>
		<path fill="#FFFFFF" d="M132.1,96.1l4.9-11.2V17.6l-9.9,0v-11l-10.8-5.9h44.2l3.3,4.1v12.8h-10.7v57.1l2.5,4L132.1,96.1z
			 M131,13.7l9.9,0v70.9l9.3-6.9l-1.2-1.9V13.7h10.7V6.1l-1.2-1.5H131V13.7z"/>
	</g>
	<g>
		<path fill="#FFFFFF" d="M162.6,93.3l5-11V46.6h16.2v6l3.4-2.6v-2.3l-19.5-11.1V6.2l-5.1-5.5h33.2l8.5,5.5v14h-16.8v-2.7h-3.9v12.5
			l20.7,10.7v19.6L162.6,93.3z M171.5,50.5v30.7l28.8-22.7V43.2l-20.7-10.7V13.7h11.7v2.7h8.9v-8l-5.7-3.7h-23.1l0.1,0.1v29.6
			L191,45.4v6.5l-11.2,8.8V50.5H171.5z"/>
	</g>
	<g>
		<path fill="#FFFFFF" d="M22.7,44.8V13.7h12.6v23.4L22.7,44.8z M26.6,17.6v20.2l4.7-2.9V17.6H26.6z"/>
	</g>
	<g>
		<path fill="#FFFFFF" d="M72.6,72l-11.4-9.3v-50h11.4V72z M65,60.8l3.6,3V16.6H65V60.8z"/>
	</g>
	<g>
		<path fill="#FFFFFF" d="M99.8,33.3V13.7h12.8v11.6L99.8,33.3z M103.7,17.6v8.6l5-3.1v-5.5H103.7z"/>
	</g>
</g>
</svg>
