<?xml version="1.0" encoding="UTF-8" standalone="no"?>
<!-- Generator: Adobe Illustrator 21.1.0, SVG Export Plug-In . SVG Version: 6.00 Build 0)  -->

<svg
   xmlns:dc="http://purl.org/dc/elements/1.1/"
   xmlns:cc="http://creativecommons.org/ns#"
   xmlns:rdf="http://www.w3.org/1999/02/22-rdf-syntax-ns#"
   xmlns:svg="http://www.w3.org/2000/svg"
   xmlns="http://www.w3.org/2000/svg"
   xmlns:sodipodi="http://sodipodi.sourceforge.net/DTD/sodipodi-0.dtd"
   xmlns:inkscape="http://www.inkscape.org/namespaces/inkscape"
   version="1.0"
   id="Capa_1"
   x="0px"
   y="0px"
   width="377.10001"
   height="76.5"
   viewBox="0 0 377.10001 76.499998"
   enable-background="new 0 0 442.5 97.3"
   xml:space="preserve"
   sodipodi:docname="power.svg"
   inkscape:version="0.92.2 (unknown)"><metadata
     id="metadata19"><rdf:RDF><cc:Work
         rdf:about=""><dc:format>image/svg+xml</dc:format><dc:type
           rdf:resource="http://purl.org/dc/dcmitype/StillImage" /></cc:Work></rdf:RDF></metadata><defs
     id="defs17" /><sodipodi:namedview
     pagecolor="#ffffff"
     bordercolor="#666666"
     borderopacity="1"
     objecttolerance="10"
     gridtolerance="10"
     guidetolerance="10"
     inkscape:pageopacity="0"
     inkscape:pageshadow="2"
     inkscape:window-width="640"
     inkscape:window-height="480"
     id="namedview15"
     showgrid="false"
     fit-margin-top="0"
     fit-margin-left="0"
     fit-margin-right="0"
     fit-margin-bottom="0"
     inkscape:zoom="0.61694915"
     inkscape:cx="188.65"
     inkscape:cy="38.149998"
     inkscape:window-x="0"
     inkscape:window-y="0"
     inkscape:window-maximized="0"
     inkscape:current-layer="Capa_1" /><g
     id="g12"
     transform="translate(-32.6,-10.3)"><path
       d="m 59.1,11.1 c 5.3,0 9.8,0.6 13.6,1.9 3.8,1.3 6.9,3 9.4,5.2 2.5,2.2 4.3,4.8 5.4,7.8 1.2,3 1.7,6.2 1.7,9.7 0,3.7 -0.6,7.2 -1.8,10.3 -1.2,3.1 -3,5.8 -5.5,8 -2.5,2.2 -5.6,4 -9.4,5.2 -3.8,1.3 -8.3,1.9 -13.4,1.9 H 50 v 25 H 32.6 v -75 c 0,0 26.5,0 26.5,0 z m 0,36.8 c 4.5,0 7.8,-1.1 9.8,-3.2 2,-2.2 3,-5.2 3,-9.1 0,-1.7 -0.3,-3.3 -0.8,-4.7 -0.5,-1.4 -1.3,-2.6 -2.3,-3.6 -1,-1 -2.4,-1.8 -4,-2.3 -1.6,-0.5 -3.5,-0.8 -5.7,-0.8 H 50 V 48 Z"
       id="path2"
       inkscape:connector-curvature="0"
       style="fill:#ffffff" /><path
       d="m 171.6,48.5 c 0,5.4 -0.9,10.5 -2.8,15.1 -1.9,4.7 -4.5,8.7 -7.9,12.2 -3.4,3.4 -7.5,6.1 -12.3,8.1 -4.8,2 -10.1,2.9 -15.9,2.9 -5.8,0 -11.1,-1 -15.9,-2.9 -4.8,-2 -8.9,-4.7 -12.3,-8.1 -3.4,-3.4 -6.1,-7.5 -7.9,-12.2 -1.9,-4.7 -2.8,-9.7 -2.8,-15.1 0,-5.4 0.9,-10.5 2.8,-15.1 1.9,-4.7 4.5,-8.7 7.9,-12.1 3.4,-3.4 7.5,-6.1 12.3,-8.1 4.8,-2 10.1,-2.9 15.9,-2.9 5.8,0 11.1,1 15.9,3 4.8,2 8.9,4.7 12.3,8.1 3.4,3.4 6,7.5 7.9,12.1 1.9,4.6 2.8,9.6 2.8,15 z m -17.8,0 c 0,-3.7 -0.5,-7 -1.4,-10 -1,-3 -2.3,-5.5 -4.1,-7.5 -1.8,-2.1 -4,-3.6 -6.6,-4.7 -2.6,-1.1 -5.6,-1.6 -8.9,-1.6 -3.4,0 -6.4,0.5 -9,1.6 -2.6,1.1 -4.8,2.7 -6.6,4.7 -1.8,2.1 -3.2,4.6 -4.1,7.5 -1,3 -1.4,6.3 -1.4,10 0,3.7 0.5,7.1 1.4,10.1 1,3 2.3,5.5 4.1,7.5 1.8,2.1 4,3.6 6.6,4.7 2.6,1.1 5.6,1.6 9,1.6 3.3,0 6.3,-0.5 8.9,-1.6 2.6,-1.1 4.8,-2.6 6.6,-4.7 1.8,-2.1 3.2,-4.6 4.1,-7.5 0.9,-3 1.4,-6.3 1.4,-10.1 z"
       id="path4"
       inkscape:connector-curvature="0"
       style="fill:#ffffff" /><path
       d="M 282,11.1 258.8,86 H 243.1 L 229,39.6 c -0.3,-0.7 -0.5,-1.5 -0.8,-2.4 -0.2,-0.9 -0.5,-1.8 -0.7,-2.8 -0.2,1 -0.5,1.9 -0.7,2.8 -0.2,0.9 -0.5,1.7 -0.8,2.4 L 211.7,86 H 196 L 172.9,11.1 h 14.6 c 1.5,0 2.8,0.3 3.8,1 1,0.7 1.7,1.6 2,2.7 l 10.2,39.1 c 0.3,1.2 0.6,2.6 0.9,4 0.3,1.5 0.6,3 0.9,4.6 0.6,-3.2 1.4,-6.1 2.3,-8.6 l 12.1,-39.1 c 0.3,-1 1,-1.8 2,-2.6 1,-0.8 2.2,-1.2 3.7,-1.2 h 5.1 c 1.5,0 2.7,0.4 3.7,1.1 0.9,0.7 1.6,1.6 2.1,2.7 l 12,39.1 c 0.9,2.4 1.6,5.1 2.3,8.2 0.3,-1.5 0.6,-3 0.8,-4.3 0.3,-1.4 0.6,-2.6 0.9,-3.8 l 10.3,-39.1 c 0.3,-1 0.9,-1.9 2,-2.6 1,-0.8 2.3,-1.1 3.7,-1.1 z"
       id="path6"
       inkscape:connector-curvature="0"
       style="fill:#ffffff" /><path
       d="M 306.9,24.5 V 42 h 23.6 v 12.9 h -23.6 v 17.8 h 30.8 V 86 H 289.5 V 11.1 h 48.2 v 13.4 z"
       id="path8"
       inkscape:connector-curvature="0"
       style="fill:#ffffff" /><path
       d="M 409.7,86 H 394 c -2.9,0 -5,-1.1 -6.3,-3.3 L 375.2,61 c -0.6,-0.9 -1.2,-1.6 -2,-2 -0.7,-0.4 -1.7,-0.6 -3.1,-0.6 h -4.4 V 86 H 348.3 V 11.1 h 24.4 c 5.4,0 10,0.6 13.9,1.7 3.8,1.1 6.9,2.7 9.4,4.7 2.4,2 4.2,4.3 5.3,7 1.1,2.7 1.6,5.7 1.6,8.8 0,2.4 -0.3,4.7 -1,6.9 -0.7,2.2 -1.6,4.2 -2.9,6 -1.3,1.8 -2.8,3.5 -4.7,4.9 -1.9,1.4 -4,2.6 -6.5,3.5 1.1,0.6 2.2,1.3 3.2,2.2 1,0.9 1.9,1.9 2.7,3.1 z m -37,-39.7 c 2.4,0 4.4,-0.3 6,-0.9 1.7,-0.6 3,-1.4 4.1,-2.5 1.1,-1.1 1.8,-2.3 2.3,-3.7 0.5,-1.4 0.7,-3 0.7,-4.6 0,-3.3 -1.1,-5.9 -3.2,-7.7 -2.1,-1.8 -5.5,-2.8 -10,-2.8 h -7 v 22.2 z"
       id="path10"
       inkscape:connector-curvature="0"
       style="fill:#ffffff" /></g></svg>