<?xml version="1.0" encoding="utf-8"?>
<!-- Generator: Adobe Illustrator 21.1.0, SVG Export Plug-In . SVG Version: 6.00 Build 0)  -->
<svg version="1.0" id="Capa_1" xmlns="http://www.w3.org/2000/svg" xmlns:xlink="http://www.w3.org/1999/xlink" x="0px" y="0px"
	 width="442.5px" height="97.3px" viewBox="0 0 442.5 97.3" enable-background="new 0 0 442.5 97.3" xml:space="preserve">
<g>
	<path fill="#FFFFFF" d="M59.1,11.1c5.3,0,9.8,0.6,13.6,1.9s6.9,3,9.4,5.2s4.3,4.8,5.4,7.8c1.2,3,1.7,6.2,1.7,9.7
		c0,3.7-0.6,7.2-1.8,10.3s-3,5.8-5.5,8s-5.6,4-9.4,5.2c-3.8,1.3-8.3,1.9-13.4,1.9H50v25H32.6v-75C32.6,11.1,59.1,11.1,59.1,11.1z
		 M59.1,47.9c4.5,0,7.8-1.1,9.8-3.2c2-2.2,3-5.2,3-9.1c0-1.7-0.3-3.3-0.8-4.7c-0.5-1.4-1.3-2.6-2.3-3.6s-2.4-1.8-4-2.3
		s-3.5-0.8-5.7-0.8H50V48L59.1,47.9L59.1,47.9z"/>
	<path fill="#FFFFFF" d="M171.6,48.5c0,5.4-0.9,10.5-2.8,15.1c-1.9,4.7-4.5,8.7-7.9,12.2c-3.4,3.4-7.5,6.1-12.3,8.1
		s-10.1,2.9-15.9,2.9c-5.8,0-11.1-1-15.9-2.9c-4.8-2-8.9-4.7-12.3-8.1s-6.1-7.5-7.9-12.2c-1.9-4.7-2.8-9.7-2.8-15.1
		s0.9-10.5,2.8-15.1c1.9-4.7,4.5-8.7,7.9-12.1s7.5-6.1,12.3-8.1s10.1-2.9,15.9-2.9s11.1,1,15.9,3c4.8,2,8.9,4.7,12.3,8.1
		c3.4,3.4,6,7.5,7.9,12.1C170.7,38.1,171.6,43.1,171.6,48.5z M153.8,48.5c0-3.7-0.5-7-1.4-10c-1-3-2.3-5.5-4.1-7.5
		c-1.8-2.1-4-3.6-6.6-4.7s-5.6-1.6-8.9-1.6c-3.4,0-6.4,0.5-9,1.6S119,29,117.2,31c-1.8,2.1-3.2,4.6-4.1,7.5c-1,3-1.4,6.3-1.4,10
		s0.5,7.1,1.4,10.1c1,3,2.3,5.5,4.1,7.5c1.8,2.1,4,3.6,6.6,4.7s5.6,1.6,9,1.6c3.3,0,6.3-0.5,8.9-1.6c2.6-1.1,4.8-2.6,6.6-4.7
		s3.2-4.6,4.1-7.5C153.3,55.6,153.8,52.3,153.8,48.5z"/>
	<path fill="#FFFFFF" d="M282,11.1L258.8,86h-15.7L229,39.6c-0.3-0.7-0.5-1.5-0.8-2.4c-0.2-0.9-0.5-1.8-0.7-2.8
		c-0.2,1-0.5,1.9-0.7,2.8c-0.2,0.9-0.5,1.7-0.8,2.4L211.7,86H196l-23.1-74.9h14.6c1.5,0,2.8,0.3,3.8,1s1.7,1.6,2,2.7l10.2,39.1
		c0.3,1.2,0.6,2.6,0.9,4c0.3,1.5,0.6,3,0.9,4.6c0.6-3.2,1.4-6.1,2.3-8.6l12.1-39.1c0.3-1,1-1.8,2-2.6s2.2-1.2,3.7-1.2h5.1
		c1.5,0,2.7,0.4,3.7,1.1c0.9,0.7,1.6,1.6,2.1,2.7l12,39.1c0.9,2.4,1.6,5.1,2.3,8.2c0.3-1.5,0.6-3,0.8-4.3c0.3-1.4,0.6-2.6,0.9-3.8
		l10.3-39.1c0.3-1,0.9-1.9,2-2.6c1-0.8,2.3-1.1,3.7-1.1L282,11.1L282,11.1z"/>
	<path fill="#FFFFFF" d="M306.9,24.5V42h23.6v12.9h-23.6v17.8h30.8V86h-48.2V11.1h48.2v13.4H306.9z"/>
	<path fill="#FFFFFF" d="M409.7,86H394c-2.9,0-5-1.1-6.3-3.3L375.2,61c-0.6-0.9-1.2-1.6-2-2c-0.7-0.4-1.7-0.6-3.1-0.6h-4.4V86h-17.4
		V11.1h24.4c5.4,0,10,0.6,13.9,1.7c3.8,1.1,6.9,2.7,9.4,4.7c2.4,2,4.2,4.3,5.3,7c1.1,2.7,1.6,5.7,1.6,8.8c0,2.4-0.3,4.7-1,6.9
		s-1.6,4.2-2.9,6s-2.8,3.5-4.7,4.9c-1.9,1.4-4,2.6-6.5,3.5c1.1,0.6,2.2,1.3,3.2,2.2s1.9,1.9,2.7,3.1L409.7,86z M372.7,46.3
		c2.4,0,4.4-0.3,6-0.9c1.7-0.6,3-1.4,4.1-2.5s1.8-2.3,2.3-3.7s0.7-3,0.7-4.6c0-3.3-1.1-5.9-3.2-7.7s-5.5-2.8-10-2.8h-7v22.2H372.7z"
		/>
</g>
</svg>
