<?xml version="1.0" encoding="UTF-8" standalone="no"?>
<!-- Created with Inkscape (http://www.inkscape.org/) -->

<svg
   xmlns:dc="http://purl.org/dc/elements/1.1/"
   xmlns:cc="http://creativecommons.org/ns#"
   xmlns:rdf="http://www.w3.org/1999/02/22-rdf-syntax-ns#"
   xmlns:svg="http://www.w3.org/2000/svg"
   xmlns="http://www.w3.org/2000/svg"
   xmlns:sodipodi="http://sodipodi.sourceforge.net/DTD/sodipodi-0.dtd"
   xmlns:inkscape="http://www.inkscape.org/namespaces/inkscape"
   width="383.577"
   height="53.917252"
   id="svg4237"
   sodipodi:version="0.32"
   inkscape:version="0.92.2 (unknown)"
   version="1.0"
   sodipodi:docname="psp.svg">
  <defs
     id="defs4239">
    <clipPath
       id="clp2"
       style="clip-rule:nonzero">
      <path
         id="path5264"
         d="M 234.2,0.1382 H 5879.3 V 7919 H 234.2 Z"
         inkscape:connector-curvature="0" />
    </clipPath>
    <clipPath
       id="clp3"
       style="clip-rule:nonzero">
      <path
         id="path5273"
         d="M 234.06,0 H 5879.3 V 7919 H 234.06 Z"
         inkscape:connector-curvature="0" />
    </clipPath>
    <clipPath
       id="clp4"
       style="clip-rule:nonzero">
      <path
         id="path5282"
         d="M 437.5,278.39 H 1028 V 456.94 H 437.5 Z"
         inkscape:connector-curvature="0" />
    </clipPath>
    <clipPath
       id="clp5"
       style="clip-rule:nonzero">
      <path
         id="path5291"
         d="M 234.06,0 H 5879.3 V 7919 H 234.06 Z"
         inkscape:connector-curvature="0" />
    </clipPath>
    <clipPath
       id="clp6"
       style="clip-rule:nonzero">
      <path
         id="path5330"
         d="M 437.5,278.39 H 1028 V 456.94 H 437.5 Z"
         inkscape:connector-curvature="0" />
    </clipPath>
    <clipPath
       id="clp7"
       style="clip-rule:nonzero">
      <path
         id="path5341"
         d="M 234.06,0 H 5879.3 V 7919 H 234.06 Z"
         inkscape:connector-curvature="0" />
    </clipPath>
    <clipPath
       id="clp8"
       style="clip-rule:nonzero">
      <path
         id="path5418"
         d="m 4026.3,282.71 h 699.8 v 170.38 h -699.8 z"
         inkscape:connector-curvature="0" />
    </clipPath>
    <clipPath
       id="clp9"
       style="clip-rule:nonzero">
      <path
         id="path5427"
         d="M 234.06,0 H 5879.3 V 7919 H 234.06 Z"
         inkscape:connector-curvature="0" />
    </clipPath>
    <clipPath
       id="clp10"
       style="clip-rule:nonzero">
      <path
         id="path5476"
         d="M 2444.9,428.65 V 306.69 h 506 v 121.96"
         inkscape:connector-curvature="0" />
    </clipPath>
    <clipPath
       id="clp11"
       style="clip-rule:nonzero">
      <path
         id="path5485"
         d="M 234.06,0 H 5879.3 V 7919 H 234.06 Z"
         inkscape:connector-curvature="0" />
    </clipPath>
    <clipPath
       id="clp12"
       style="clip-rule:nonzero">
      <path
         id="path5496"
         d="M 2444.9,428.65 V 306.69 h 506 v 121.96"
         inkscape:connector-curvature="0" />
    </clipPath>
    <clipPath
       id="clp13"
       style="clip-rule:nonzero">
      <path
         id="path5505"
         d="M 234.06,0 H 5879.3 V 7919 H 234.06 Z"
         inkscape:connector-curvature="0" />
    </clipPath>
    <clipPath
       id="clp14"
       style="clip-rule:nonzero">
      <path
         id="path5514"
         d="M 2444.9,428.65 V 306.69 h 506 v 121.96"
         inkscape:connector-curvature="0" />
    </clipPath>
    <clipPath
       id="clp15"
       style="clip-rule:nonzero">
      <path
         id="path5523"
         d="M 234.06,0 H 5879.3 V 7919 H 234.06 Z"
         inkscape:connector-curvature="0" />
    </clipPath>
    <clipPath
       id="clipPath5767"
       style="clip-rule:nonzero">
      <path
         id="path5769"
         d="M 234.2,0.1382 H 5879.3 V 7919 H 234.2 Z"
         inkscape:connector-curvature="0" />
    </clipPath>
    <clipPath
       id="clipPath5775"
       style="clip-rule:nonzero">
      <path
         id="path5777"
         d="M 234.06,0 H 5879.3 V 7919 H 234.06 Z"
         inkscape:connector-curvature="0" />
    </clipPath>
    <clipPath
       id="clipPath5783"
       style="clip-rule:nonzero">
      <path
         id="path5785"
         d="M 437.5,278.39 H 1028 V 456.94 H 437.5 Z"
         inkscape:connector-curvature="0" />
    </clipPath>
    <clipPath
       id="clipPath5791"
       style="clip-rule:nonzero">
      <path
         id="path5793"
         d="M 234.06,0 H 5879.3 V 7919 H 234.06 Z"
         inkscape:connector-curvature="0" />
    </clipPath>
    <clipPath
       id="clipPath5814"
       style="clip-rule:nonzero">
      <path
         id="path5816"
         d="M 437.5,278.39 H 1028 V 456.94 H 437.5 Z"
         inkscape:connector-curvature="0" />
    </clipPath>
    <clipPath
       id="clipPath5823"
       style="clip-rule:nonzero">
      <path
         id="path5825"
         d="M 234.06,0 H 5879.3 V 7919 H 234.06 Z"
         inkscape:connector-curvature="0" />
    </clipPath>
    <clipPath
       id="clipPath5865"
       style="clip-rule:nonzero">
      <path
         id="path5867"
         d="m 4026.3,282.71 h 699.8 v 170.38 h -699.8 z"
         inkscape:connector-curvature="0" />
    </clipPath>
    <clipPath
       id="clipPath5873"
       style="clip-rule:nonzero">
      <path
         id="path5875"
         d="M 234.06,0 H 5879.3 V 7919 H 234.06 Z"
         inkscape:connector-curvature="0" />
    </clipPath>
    <clipPath
       id="clipPath5901"
       style="clip-rule:nonzero">
      <path
         id="path5903"
         d="M 2444.9,428.65 V 306.69 h 506 v 121.96"
         inkscape:connector-curvature="0" />
    </clipPath>
    <clipPath
       id="clipPath5909"
       style="clip-rule:nonzero">
      <path
         id="path5911"
         d="M 234.06,0 H 5879.3 V 7919 H 234.06 Z"
         inkscape:connector-curvature="0" />
    </clipPath>
    <clipPath
       id="clipPath5918"
       style="clip-rule:nonzero">
      <path
         id="path5920"
         d="M 2444.9,428.65 V 306.69 h 506 v 121.96"
         inkscape:connector-curvature="0" />
    </clipPath>
    <clipPath
       id="clipPath5926"
       style="clip-rule:nonzero">
      <path
         id="path5928"
         d="M 234.06,0 H 5879.3 V 7919 H 234.06 Z"
         inkscape:connector-curvature="0" />
    </clipPath>
    <clipPath
       id="clipPath5934"
       style="clip-rule:nonzero">
      <path
         id="path5936"
         d="M 2444.9,428.65 V 306.69 h 506 v 121.96"
         inkscape:connector-curvature="0" />
    </clipPath>
    <clipPath
       id="clipPath5942"
       style="clip-rule:nonzero">
      <path
         id="path5944"
         d="M 234.06,0 H 5879.3 V 7919 H 234.06 Z"
         inkscape:connector-curvature="0" />
    </clipPath>
    <clipPath
       id="clipPath14221"
       style="clip-rule:nonzero">
      <path
         d="M 234.06,0 H 5879.3 V 7919 H 234.06 Z"
         id="path14223"
         inkscape:connector-curvature="0" />
    </clipPath>
    <clipPath
       id="clipPath14217"
       style="clip-rule:nonzero">
      <path
         d="M 2444.9,428.65 V 306.69 h 506 v 121.96"
         id="path14219"
         inkscape:connector-curvature="0" />
    </clipPath>
    <clipPath
       id="clipPath14213"
       style="clip-rule:nonzero">
      <path
         d="M 234.06,0 H 5879.3 V 7919 H 234.06 Z"
         id="path14215"
         inkscape:connector-curvature="0" />
    </clipPath>
    <clipPath
       id="clipPath14209"
       style="clip-rule:nonzero">
      <path
         d="M 2444.9,428.65 V 306.69 h 506 v 121.96"
         id="path14211"
         inkscape:connector-curvature="0" />
    </clipPath>
    <clipPath
       id="clipPath14205"
       style="clip-rule:nonzero">
      <path
         d="M 234.06,0 H 5879.3 V 7919 H 234.06 Z"
         id="path14207"
         inkscape:connector-curvature="0" />
    </clipPath>
    <clipPath
       id="clipPath14201"
       style="clip-rule:nonzero">
      <path
         d="M 2444.9,428.65 V 306.69 h 506 v 121.96"
         id="path14203"
         inkscape:connector-curvature="0" />
    </clipPath>
    <clipPath
       id="clipPath14197"
       style="clip-rule:nonzero">
      <path
         d="M 234.06,0 H 5879.3 V 7919 H 234.06 Z"
         id="path14199"
         inkscape:connector-curvature="0" />
    </clipPath>
    <clipPath
       id="clipPath14193"
       style="clip-rule:nonzero">
      <path
         d="m 4026.3,282.71 h 699.8 v 170.38 h -699.8 z"
         id="path14195"
         inkscape:connector-curvature="0" />
    </clipPath>
    <clipPath
       id="clipPath14189"
       style="clip-rule:nonzero">
      <path
         d="M 234.06,0 H 5879.3 V 7919 H 234.06 Z"
         id="path14191"
         inkscape:connector-curvature="0" />
    </clipPath>
    <clipPath
       id="clipPath14185"
       style="clip-rule:nonzero">
      <path
         d="M 437.5,278.39 H 1028 V 456.94 H 437.5 Z"
         id="path14187"
         inkscape:connector-curvature="0" />
    </clipPath>
    <clipPath
       id="clipPath14181"
       style="clip-rule:nonzero">
      <path
         d="M 234.06,0 H 5879.3 V 7919 H 234.06 Z"
         id="path14183"
         inkscape:connector-curvature="0" />
    </clipPath>
    <clipPath
       id="clipPath14177"
       style="clip-rule:nonzero">
      <path
         d="M 437.5,278.39 H 1028 V 456.94 H 437.5 Z"
         id="path14179"
         inkscape:connector-curvature="0" />
    </clipPath>
    <clipPath
       id="clipPath14173"
       style="clip-rule:nonzero">
      <path
         d="M 234.06,0 H 5879.3 V 7919 H 234.06 Z"
         id="path14175"
         inkscape:connector-curvature="0" />
    </clipPath>
    <clipPath
       id="clipPath14169"
       style="clip-rule:nonzero">
      <path
         d="M 234.2,0.1382 H 5879.3 V 7919 H 234.2 Z"
         id="path14171"
         inkscape:connector-curvature="0" />
    </clipPath>
    <clipPath
       id="clipPath14165"
       style="clip-rule:nonzero">
      <path
         d="M 234.06,0 H 5879.3 V 7919 H 234.06 Z"
         id="path14167"
         inkscape:connector-curvature="0" />
    </clipPath>
    <clipPath
       id="clipPath14161"
       style="clip-rule:nonzero">
      <path
         d="M 2444.9,428.65 V 306.69 h 506 v 121.96"
         id="path14163"
         inkscape:connector-curvature="0" />
    </clipPath>
    <clipPath
       id="clipPath14157"
       style="clip-rule:nonzero">
      <path
         d="M 234.06,0 H 5879.3 V 7919 H 234.06 Z"
         id="path14159"
         inkscape:connector-curvature="0" />
    </clipPath>
    <clipPath
       id="clipPath14153"
       style="clip-rule:nonzero">
      <path
         d="M 2444.9,428.65 V 306.69 h 506 v 121.96"
         id="path14155"
         inkscape:connector-curvature="0" />
    </clipPath>
    <clipPath
       id="clipPath14149"
       style="clip-rule:nonzero">
      <path
         d="M 234.06,0 H 5879.3 V 7919 H 234.06 Z"
         id="path14151"
         inkscape:connector-curvature="0" />
    </clipPath>
    <clipPath
       id="clipPath14145"
       style="clip-rule:nonzero">
      <path
         d="M 2444.9,428.65 V 306.69 h 506 v 121.96"
         id="path14147"
         inkscape:connector-curvature="0" />
    </clipPath>
    <clipPath
       id="clipPath14141"
       style="clip-rule:nonzero">
      <path
         d="M 234.06,0 H 5879.3 V 7919 H 234.06 Z"
         id="path14143"
         inkscape:connector-curvature="0" />
    </clipPath>
    <clipPath
       id="clipPath14137"
       style="clip-rule:nonzero">
      <path
         d="m 4026.3,282.71 h 699.8 v 170.38 h -699.8 z"
         id="path14139"
         inkscape:connector-curvature="0" />
    </clipPath>
    <clipPath
       id="clipPath14133"
       style="clip-rule:nonzero">
      <path
         d="M 234.06,0 H 5879.3 V 7919 H 234.06 Z"
         id="path14135"
         inkscape:connector-curvature="0" />
    </clipPath>
    <clipPath
       id="clipPath14129"
       style="clip-rule:nonzero">
      <path
         d="M 437.5,278.39 H 1028 V 456.94 H 437.5 Z"
         id="path14131"
         inkscape:connector-curvature="0" />
    </clipPath>
    <clipPath
       id="clipPath14125"
       style="clip-rule:nonzero">
      <path
         d="M 234.06,0 H 5879.3 V 7919 H 234.06 Z"
         id="path14127"
         inkscape:connector-curvature="0" />
    </clipPath>
    <clipPath
       id="clipPath14121"
       style="clip-rule:nonzero">
      <path
         d="M 437.5,278.39 H 1028 V 456.94 H 437.5 Z"
         id="path14123"
         inkscape:connector-curvature="0" />
    </clipPath>
    <clipPath
       id="clipPath14117"
       style="clip-rule:nonzero">
      <path
         d="M 234.06,0 H 5879.3 V 7919 H 234.06 Z"
         id="path14119"
         inkscape:connector-curvature="0" />
    </clipPath>
    <clipPath
       id="clipPath14113"
       style="clip-rule:nonzero">
      <path
         d="M 234.2,0.1382 H 5879.3 V 7919 H 234.2 Z"
         id="path14115"
         inkscape:connector-curvature="0" />
    </clipPath>
  </defs>
  <sodipodi:namedview
     id="base"
     pagecolor="#ffffff"
     bordercolor="#666666"
     borderopacity="1.0"
     inkscape:pageopacity="0.0"
     inkscape:pageshadow="2"
     inkscape:zoom="1.4"
     inkscape:cx="185.82917"
     inkscape:cy="11.583167"
     inkscape:document-units="px"
     inkscape:current-layer="layer1"
     inkscape:window-width="925"
     inkscape:window-height="573"
     inkscape:window-x="0"
     inkscape:window-y="1"
     showgrid="false"
     inkscape:window-maximized="0"
     fit-margin-top="0"
     fit-margin-left="0"
     fit-margin-right="0"
     fit-margin-bottom="0" />
  <metadata
     id="metadata4242">
    <rdf:RDF>
      <cc:Work
         rdf:about="">
        <dc:format>image/svg+xml</dc:format>
        <dc:type
           rdf:resource="http://purl.org/dc/dcmitype/StillImage" />
        <dc:title />
      </cc:Work>
    </rdf:RDF>
  </metadata>
  <g
     inkscape:label="Ebene 1"
     inkscape:groupmode="layer"
     id="layer1"
     transform="translate(-5.6776741,-649.86855)">
    <path
       style="fill:#ffffff;fill-rule:nonzero;stroke:none;stroke-width:0.35559291"
       d="m 75.532272,696.74989 c 3.607489,0 5.772009,-0.31636 5.772009,-1.79356 0,-1.09308 -1.574244,-1.67777 -5.181733,-1.67777 h -4.984942 v 3.47133 z m -6.296775,4.5616 v -8.73625 h 7.411793 c 5.247267,0 6.624722,1.12981 6.624722,2.4404 0,1.95175 -4.066656,2.43756 -7.805366,2.43756 h -4.32904 v 3.85829 h -1.902109"
       class="ps02"
       id="path6905"
       inkscape:connector-curvature="0" />
    <path
       style="fill:#ffffff;fill-rule:nonzero;stroke:none;stroke-width:0.35559291"
       d="m 85.830051,701.31149 h 1.639784 v -8.73625 h -1.639784 z"
       class="ps02"
       id="path6907"
       inkscape:connector-curvature="0" />
    <path
       style="fill:#ffffff;fill-rule:nonzero;stroke:none;stroke-width:0.35559291"
       d="m 101.24394,698.00962 c -1.44297,0.25422 -2.95159,0.30505 -4.394582,0.35308 -2.558065,0.0847 -4.132223,0.48582 -4.132223,1.33316 0,0.76827 1.574158,1.12982 3.148342,1.12982 2.689263,0 5.378463,-0.55927 5.378463,-1.83313 z m -2.88599,-0.36155 c 0.65593,-0.0254 1.70538,-0.0988 2.23012,-0.209 0.59027,-0.10733 0.65587,-0.43498 0.65587,-0.65247 0,-0.74002 -1.04942,-1.27384 -3.673084,-1.27384 -2.295682,0 -3.93544,0.32764 -4.263391,1.41791 h -1.705374 c 0.262351,-1.48006 2.82039,-2.07602 6.03436,-2.07602 2.951619,0 5.247269,0.49992 5.247269,1.95455 v 3.42049 c 0,0.57056 0.39355,0.70333 1.77097,0.48583 v 0.57055 c -0.19673,0.0367 -0.78709,0.12146 -1.31183,0.12146 -0.26233,0 -0.45914,-0.0113 -0.72147,-0.0367 -1.18063,-0.0706 -1.37745,-0.49712 -1.37745,-0.93492 -1.37738,0.68073 -3.345132,1.04508 -5.444058,1.04508 -2.558012,0 -4.853754,-0.59598 -4.853754,-1.8077 0,-1.05354 1.70538,-1.69753 5.116138,-1.89241 l 2.295684,-0.13278"
       class="ps02"
       id="path6909"
       inkscape:connector-curvature="0" />
    <path
       style="fill:#ffffff;fill-rule:nonzero;stroke:none;stroke-width:0.35559291"
       d="m 107.08157,703.02031 c 0.45914,0.0367 0.91828,0.0763 1.37743,0.0763 1.96774,0 2.23006,-1.19194 2.88602,-1.73709 l -5.70641,-6.33257 h 1.9021 l 4.72259,5.40048 4.65694,-5.40048 h 1.83656 l -5.44408,6.19982 c -1.37743,1.57608 -2.29566,2.55903 -4.65696,2.55903 -0.59031,0 -1.11505,-0.0367 -1.57419,-0.0847 v -0.68073"
       class="ps02"
       id="path6911"
       inkscape:connector-curvature="0" />
    <path
       style="fill:#ffffff;fill-rule:nonzero;stroke:none;stroke-width:0.35559291"
       d="m 122.75784,698.70163 c 0.32795,1.56478 2.68929,2.13534 5.83763,2.13534 3.60748,0 5.11614,-0.84735 5.11614,-1.80769 0,-2.70589 -12.3312,-0.90949 -12.3312,-4.3413 0,-1.21453 2.29575,-2.34152 6.88711,-2.34152 4.5258,0 6.82146,1.1863 6.75587,2.60987 h -1.77092 c 0,-1.33602 -2.42688,-1.90658 -4.98495,-1.90658 -3.93549,0 -5.31286,1.03098 -4.98491,1.92916 0.85269,2.25399 12.39672,0.62989 12.39672,4.01364 0,1.60433 -2.75487,2.54772 -7.41181,2.54772 -4.26344,0 -7.41179,-0.94339 -7.41179,-2.83864 h 1.90211"
       class="ps02"
       id="path6913"
       inkscape:connector-curvature="0" />
    <path
       style="fill:#ffffff;fill-rule:nonzero;stroke:none;stroke-width:0.35559291"
       d="m 144.46855,701.3341 c -0.39359,0.0367 -1.1151,0.14686 -1.96777,0.14686 -1.63977,0 -2.55805,-0.31634 -2.55805,-1.25127 v -4.59831 h -2.09887 v -0.60445 h 2.09887 v -1.74837 h 1.70535 v 1.74837 h 2.68928 v 0.60445 h -2.68928 v 4.30739 c 0,0.6214 0,0.88691 1.44305,0.88691 0.45915,0 0.91828,-0.0367 1.37742,-0.0847 v 0.59317"
       class="ps02"
       id="path6915"
       inkscape:connector-curvature="0" />
    <path
       style="fill:#ffffff;fill-rule:nonzero;stroke:none;stroke-width:0.35559291"
       d="m 157.12762,698.00962 c -1.44303,0.25422 -2.886,0.30505 -4.32904,0.35308 -2.55802,0.0847 -4.13222,0.48582 -4.13222,1.33316 0,0.76827 1.5742,1.12982 3.14839,1.12982 2.6892,0 5.31287,-0.55927 5.31287,-1.83313 z m -2.8204,-0.36155 c 0.59028,-0.0254 1.63978,-0.0988 2.23006,-0.209 0.52474,-0.10733 0.59034,-0.43498 0.59034,-0.65247 0,-0.74002 -0.98388,-1.27384 -3.60749,-1.27384 -2.36131,0 -3.93549,0.32764 -4.26345,1.41791 h -1.70538 c 0.26237,-1.48006 2.82042,-2.07602 5.96883,-2.07602 2.95157,0 5.31287,0.49992 5.31287,1.95455 v 3.42049 c 0,0.57056 0.32795,0.70333 1.77095,0.48583 v 0.57055 c -0.26235,0.0367 -0.8527,0.12146 -1.31179,0.12146 -0.26241,0 -0.52476,-0.0113 -0.78715,-0.0367 -1.11504,-0.0706 -1.31176,-0.49712 -1.31176,-0.93492 -1.44306,0.68073 -3.34517,1.04508 -5.4441,1.04508 -2.55805,0 -4.91932,-0.59598 -4.91932,-1.8077 0,-1.05354 1.70536,-1.69753 5.11606,-1.89241 l 2.36133,-0.13278"
       class="ps02"
       id="path6917"
       inkscape:connector-curvature="0" />
    <path
       style="fill:#ffffff;fill-rule:nonzero;stroke:none;stroke-width:0.35559291"
       d="m 168.80288,701.3341 c -0.3936,0.0367 -1.11511,0.14686 -1.96779,0.14686 -1.63978,0 -2.55806,-0.31634 -2.55806,-1.25127 v -4.59831 h -2.03334 v -0.60445 h 2.03334 v -1.74837 h 1.70537 v 1.74837 h 2.68925 v 0.60445 h -2.68925 v 4.30739 c 0,0.6214 0,0.88691 1.44303,0.88691 0.45916,0 0.91832,-0.0367 1.37745,-0.0847 v 0.59317"
       class="ps02"
       id="path6919"
       inkscape:connector-curvature="0" />
    <path
       style="fill:#ffffff;fill-rule:nonzero;stroke:none;stroke-width:0.35559291"
       d="m 173.85333,701.31149 h -1.63975 v -6.28456 h 1.63975 z m -1.77092,-7.65729 v -1.07896 h 1.90215 v 1.07896 h -1.90215"
       class="ps02"
       id="path6921"
       inkscape:connector-curvature="0" />
    <path
       style="fill:#ffffff;fill-rule:nonzero;stroke:none;stroke-width:0.35559291"
       d="m 183.82322,695.51276 c -3.54192,0 -4.91935,1.29644 -4.91935,2.65504 0,1.56477 1.70539,2.65788 4.91935,2.65788 3.54194,0 4.98491,-1.3106 4.98491,-2.65788 0,-1.48004 -1.37742,-2.65504 -4.98491,-2.65504 z m -6.75592,2.65504 c 0,-1.83029 2.29571,-3.31315 6.75592,-3.31315 4.59137,0 6.82148,1.46874 6.82148,3.31315 0,1.9913 -2.68926,3.31316 -6.82148,3.31316 -3.67311,-0.0254 -6.75592,-1.11569 -6.75592,-3.31316"
       class="ps02"
       id="path6923"
       inkscape:connector-curvature="0" />
    <path
       style="fill:#ffffff;fill-rule:nonzero;stroke:none;stroke-width:0.35559291"
       d="m 194.71137,701.31149 h -1.70539 v -6.28456 h 1.70539 v 0.87279 c 1.31182,-0.61858 2.68919,-1.04507 4.65693,-1.04507 1.83657,0 3.41075,0.24289 4.46023,0.89818 0.7215,0.45194 0.78709,0.92361 0.78709,1.44335 v 4.11531 h -1.70536 v -4.1012 c 0,-1.12698 -1.11506,-1.69753 -3.80432,-1.69753 -2.09892,0 -3.54189,0.58184 -4.06663,1.22301 -0.32794,0.40109 -0.32794,0.75416 -0.32794,1.19195 v 3.38377"
       class="ps02"
       id="path6925"
       inkscape:connector-curvature="0" />
    <path
       style="fill:#ffffff;fill-rule:nonzero;stroke:none;stroke-width:0.35559291"
       d="m 211.24033,699.26937 c -0.1968,-0.0396 -0.45916,-0.0593 -0.85269,-0.0593 h -0.52474 v 0.58187 h 0.59037 c 0.26232,0 0.52467,-0.0113 0.65586,-0.0339 0.26236,-0.0452 0.39354,-0.12993 0.39354,-0.25422 0,-0.11581 -0.13118,-0.19488 -0.26234,-0.23442 z m -0.72153,-0.25703 c 0.45914,0 0.78709,0.0169 1.04948,0.0565 0.39354,0.0706 0.52472,0.20618 0.52472,0.41236 0,0.14406 -0.0656,0.24857 -0.32797,0.31636 -0.13116,0.0367 -0.32795,0.0621 -0.5247,0.0791 0.26234,0.0198 0.45916,0.0762 0.5903,0.16101 0.13119,0.0875 0.19679,0.17227 0.19679,0.25419 v 0.11864 c 0,0.0395 0,0.0819 0.0656,0.12145 0,0.0452 0,0.0734 0,0.0875 v 0.0198 h -0.59033 c 0,-0.005 0,-0.0113 0,-0.0141 0,-0.005 0,-0.0141 0,-0.0226 l -0.0656,-0.0508 v -0.12994 c 0,-0.19207 -0.1312,-0.31633 -0.32795,-0.37566 -0.13119,-0.0367 -0.39354,-0.0536 -0.72149,-0.0536 h -0.52474 v 0.64682 h -0.65588 v -1.62692 z m -2.03333,-0.0847 c -0.59028,0.24855 -0.8527,0.55079 -0.8527,0.90101 0,0.35871 0.26242,0.66095 0.8527,0.9095 0.59033,0.25138 1.24623,0.37567 2.09891,0.37567 0.8527,0 1.50862,-0.12429 2.09894,-0.37567 0.59033,-0.24855 0.85269,-0.55079 0.85269,-0.9095 0,-0.35022 -0.26236,-0.65246 -0.85269,-0.90101 -0.59032,-0.24855 -1.24624,-0.37282 -2.09894,-0.37282 -0.85268,0 -1.50858,0.12427 -2.09891,0.37282 z m 4.5258,1.94891 c -0.6559,0.28812 -1.5086,0.43498 -2.42689,0.43498 -0.91827,0 -1.77091,-0.14686 -2.42686,-0.43498 -0.65588,-0.28809 -0.98384,-0.63833 -0.98384,-1.0479 0,-0.40389 0.32796,-0.75414 0.98384,-1.03942 0.65595,-0.29092 1.50859,-0.43215 2.42686,-0.43215 0.91829,0 1.77099,0.14123 2.42689,0.43215 0.65593,0.28247 0.98388,0.63269 0.98388,1.03942 0,0.40957 -0.32795,0.75981 -0.98388,1.0479"
       class="ps02"
       id="path6927"
       inkscape:connector-curvature="0" />
    <path
       style="fill:#ffffff;fill-rule:nonzero;stroke:none;stroke-width:0.35559291"
       d="m 225.5392,696.74989 c 3.60748,0 5.83759,-0.31636 5.83759,-1.79356 0,-1.09308 -1.63974,-1.67777 -5.24727,-1.67777 h -4.98491 v 3.47133 z m -6.29679,4.5616 v -8.73625 h 7.41181 c 5.24735,0 6.62471,1.12981 6.62471,2.4404 0,1.95175 -4.00106,2.43756 -7.80533,2.43756 h -4.32899 v 3.85829 h -1.9022"
       class="ps02"
       id="path6929"
       inkscape:connector-curvature="0" />
    <path
       style="fill:#ffffff;fill-rule:nonzero;stroke:none;stroke-width:0.35559291"
       d="m 240.82192,695.51276 c -3.5419,0 -4.98492,1.29644 -4.98492,2.65504 0,1.56477 1.77097,2.65788 4.98492,2.65788 3.54191,0 4.98494,-1.3106 4.98494,-2.65788 -0.0656,-1.48004 -1.37743,-2.65504 -4.98494,-2.65504 z m -6.7559,2.65504 c 0,-1.83029 2.23012,-3.31315 6.7559,-3.31315 4.59139,0 6.75591,1.46874 6.75591,3.31315 0,1.9913 -2.68926,3.31316 -6.75591,3.31316 -3.73869,-0.0254 -6.7559,-1.11569 -6.7559,-3.31316"
       class="ps02"
       id="path6931"
       inkscape:connector-curvature="0" />
    <path
       style="fill:#ffffff;fill-rule:nonzero;stroke:none;stroke-width:0.35559291"
       d="m 251.77563,701.31149 h -1.70534 v -6.28456 h 1.70534 v 1.17784 h 0.0656 c 0.91829,-1.00837 2.29572,-1.35012 4.7226,-1.35012 v 0.79085 c -3.80431,-0.0367 -4.78818,1.175 -4.78818,2.58161 v 3.08438"
       class="ps02"
       id="path6933"
       inkscape:connector-curvature="0" />
    <path
       style="fill:#ffffff;fill-rule:nonzero;stroke:none;stroke-width:0.35559291"
       d="m 266.00893,701.3341 c -0.39354,0.0367 -1.11504,0.14686 -1.90216,0.14686 -1.70533,0 -2.62364,-0.31634 -2.62364,-1.25127 v -4.59831 h -2.0333 v -0.60445 h 2.0333 v -1.74837 h 1.70537 v 1.74837 h 2.75483 v 0.60445 h -2.75483 v 4.30739 c 0,0.6214 0.0656,0.88691 1.443,0.88691 0.45914,0 0.98389,-0.0367 1.37743,-0.0847 v 0.59317"
       class="ps02"
       id="path6935"
       inkscape:connector-curvature="0" />
    <path
       style="fill:#ffffff;fill-rule:nonzero;stroke:none;stroke-width:0.35559291"
       d="m 278.14325,698.00962 c -1.44297,0.25422 -2.88599,0.30505 -4.32899,0.35308 -2.55805,0.0847 -4.13222,0.48582 -4.13222,1.33316 0,0.76827 1.57417,1.12982 3.14835,1.12982 2.68925,0 5.31286,-0.55927 5.31286,-1.83313 z m -2.8204,-0.36155 c 0.59035,-0.0254 1.63979,-0.0988 2.23012,-0.209 0.52474,-0.10733 0.59028,-0.43498 0.59028,-0.65247 0,-0.74002 -0.98383,-1.27384 -3.60749,-1.27384 -2.36128,0 -3.93543,0.32764 -4.26339,1.41791 H 268.567 c 0.26234,-1.48006 2.82039,-2.07602 5.96876,-2.07602 2.95162,0 5.31287,0.49992 5.31287,1.95455 v 3.42049 c 0,0.57056 0.328,0.70333 1.77097,0.48583 v 0.57055 c -0.26232,0.0367 -0.8527,0.12146 -1.31183,0.12146 -0.26232,0 -0.52474,-0.0113 -0.78709,-0.0367 -1.11502,-0.0706 -1.31183,-0.49712 -1.31183,-0.93492 -1.44297,0.68073 -3.34514,1.04508 -5.444,1.04508 -2.55807,0 -4.91941,-0.59598 -4.91941,-1.8077 0,-1.05354 1.70538,-1.69753 5.11613,-1.89241 l 2.36128,-0.13278"
       class="ps02"
       id="path6937"
       inkscape:connector-curvature="0" />
    <path
       style="fill:#ffffff;fill-rule:nonzero;stroke:none;stroke-width:0.35559291"
       d="m 291.52387,700.82568 c 2.82042,0 4.91933,-0.88691 4.98493,-2.46298 0.13119,-1.5761 -1.50858,-2.84994 -4.98493,-2.84994 -3.08275,0 -4.91933,1.2117 -4.91933,2.62963 0,1.51958 1.70538,2.68329 4.91933,2.68329 z m -4.91933,0.48581 h -1.70537 v -8.73625 h 1.70537 v 3.45721 c 1.04943,-0.7626 3.14835,-1.1778 5.18168,-1.1778 4.46024,0 6.49355,1.5676 6.49355,3.32727 0,1.85289 -1.83657,3.29904 -6.55909,3.29904 -1.90219,0 -4.06671,-0.4491 -5.11614,-1.27386 v 0 1.10439"
       class="ps02"
       id="path6939"
       inkscape:connector-curvature="0" />
    <path
       style="fill:#ffffff;fill-rule:nonzero;stroke:none;stroke-width:0.35559291"
       d="m 302.01848,701.31149 h 1.70532 v -8.73625 h -1.70532 z"
       class="ps02"
       id="path6941"
       inkscape:connector-curvature="0" />
    <path
       style="fill:#ffffff;fill-rule:nonzero;stroke:none;stroke-width:0.35559291"
       d="m 318.41625,697.72999 c 0,-1.22303 -1.57418,-2.21723 -4.59139,-2.21723 -3.01721,0 -4.59138,1.03094 -4.91932,2.21723 z m -9.51071,0.61009 c 0,1.35578 1.70537,2.4856 4.91932,2.4856 2.16452,0 3.93544,-0.52257 4.39461,-1.44334 h 1.90216 c -0.85269,1.18629 -2.55807,2.09862 -6.29677,2.09862 -4.65699,0 -6.69029,-1.43203 -6.69029,-3.28774 0,-1.83312 2.49247,-3.33857 6.69029,-3.33857 4.00106,0 6.42791,1.22866 6.42791,3.48543 h -11.34723"
       class="ps02"
       id="path6943"
       inkscape:connector-curvature="0" />
    <path
       style="fill:#ffffff;fill-rule:nonzero;stroke:none;stroke-width:0.35559291"
       d="M 5.6776741,649.86855 H 125.18472 v 15.26086 H 10.400262 v 13.22723 H 5.6776741 V 663.09575 H 120.46219 V 651.90219 H 5.6776741 v -2.03364"
       class="ps02"
       id="path6945"
       inkscape:connector-curvature="0" />
    <path
       style="fill:#ffffff;fill-rule:nonzero;stroke:none;stroke-width:0.35559291"
       d="m 274.47016,665.12941 v 13.22723 h -4.72252 V 663.09575 H 384.53215 V 651.90219 H 269.74764 v -2.03364 h 119.50703 v 15.26086 H 274.47016"
       class="ps02"
       id="path6947"
       inkscape:connector-curvature="0" />
    <path
       style="fill:#ffffff;fill-rule:nonzero;stroke:none;stroke-width:0.35559291"
       d="m 186.11894,649.86855 v 26.45442 h -60.93422 v 2.03367 h 65.9191 V 651.90219 H 252.038 v -2.03364 h -65.91906"
       class="ps02"
       id="path6949"
       inkscape:connector-curvature="0" />
  </g>
</svg>
