<?xml version="1.0" encoding="UTF-8" standalone="no"?>
<svg
   xmlns:dc="http://purl.org/dc/elements/1.1/"
   xmlns:cc="http://creativecommons.org/ns#"
   xmlns:rdf="http://www.w3.org/1999/02/22-rdf-syntax-ns#"
   xmlns:svg="http://www.w3.org/2000/svg"
   xmlns="http://www.w3.org/2000/svg"
   xmlns:sodipodi="http://sodipodi.sourceforge.net/DTD/sodipodi-0.dtd"
   xmlns:inkscape="http://www.inkscape.org/namespaces/inkscape"
   inkscape:version="1.0 (4035a4fb49, 2020-05-01)"
   sodipodi:docname="psx.svg"
   xml:space="preserve"
   enable-background="new 0 0 481.3 159.1"
   viewBox="0 0 480.51262 106.9"
   height="106.9"
   width="480.5126"
   y="0px"
   x="0px"
   id="Capa_1"
   version="1.0"><metadata
     id="metadata179"><rdf:RDF><cc:Work
         rdf:about=""><dc:format>image/svg+xml</dc:format><dc:type
           rdf:resource="http://purl.org/dc/dcmitype/StillImage" /><dc:title></dc:title></cc:Work></rdf:RDF></metadata><defs
     id="defs177" /><sodipodi:namedview
     inkscape:pagecheckerboard="true"
     lock-margins="true"
     inkscape:document-rotation="0"
     inkscape:current-layer="Capa_1"
     inkscape:window-maximized="0"
     inkscape:window-y="0"
     inkscape:window-x="0"
     inkscape:cy="53.449997"
     inkscape:cx="240.16261"
     inkscape:zoom="0.56721381"
     fit-margin-bottom="5"
     fit-margin-right="5"
     fit-margin-left="5"
     fit-margin-top="5"
     showgrid="false"
     id="namedview175"
     inkscape:window-height="480"
     inkscape:window-width="700"
     inkscape:pageshadow="2"
     inkscape:pageopacity="0"
     guidetolerance="10"
     gridtolerance="10"
     objecttolerance="10"
     borderopacity="1"
     bordercolor="#666666"
     pagecolor="#ffffff" /><g
     transform="translate(-0.48738848,-26.1)"
     id="g172"><g
       id="g162"><path
         style="fill:#ffffff"
         inkscape:connector-curvature="0"
         d="m 147.4,55.9 v 24.7 24.7 h 4.3 4.3 v -22 -22 h 5.3 c 3.9,0 5.6,0.1 6.2,0.3 1.3,0.5 2.6,2.1 3.2,3.9 0.3,0.9 0.5,2.8 0.6,5 0.2,4.5 -0.3,7.2 -1.7,8.9 -1.4,1.9 -2.2,2.1 -6.3,2.1 h -3.4 v 2.7 2.7 l 5.4,-0.1 5.4,-0.1 1.9,-0.9 c 3.4,-1.6 6,-5 7,-9.3 0.6,-2.4 0.6,-7.8 0,-10.4 -0.5,-2.5 -1.7,-5 -3,-6.5 -0.5,-0.6 -1.6,-1.5 -2.3,-2 -2.5,-1.6 -3.5,-1.7 -15.8,-1.7 z m 38.3,0 v 24.7 24.7 h 4.3 4.3 V 80.6 55.9 H 190 Z m 108.2,0 c -3.9,0 -7.9,0.2 -8.8,0.3 -2.2,0.3 -4.9,1.5 -6.3,2.9 -1.5,1.4 -2.7,3.3 -3.4,5.5 -0.4,1.3 -0.6,2.6 -0.6,5.1 0,3.5 0.3,5.1 1.5,7.4 0.8,1.5 2.9,3.8 4.3,4.6 1.6,0.9 3.8,1.5 7.5,1.8 2.8,0.3 3.4,0.3 4.4,0.9 0.7,0.5 1.4,1.3 1.9,2.3 0.8,1.5 0.8,1.8 0.8,5.1 0,3.3 -0.1,3.6 -0.8,5 -0.5,0.9 -1.2,1.7 -1.9,2.2 l -1.2,0.8 -7.4,0.1 -7.4,0.1 v 2.7 2.7 h 8.3 c 5.1,0 8.9,-0.1 9.9,-0.3 3.4,-0.7 6.3,-2.9 7.6,-5.9 1.2,-2.6 1.5,-5.1 1.5,-9.1 -0.2,-4.1 -0.8,-6.3 -2.4,-8.8 -2.1,-3.1 -4.4,-4.1 -10.2,-4.6 -2.1,-0.2 -4.4,-0.5 -4.9,-0.8 -1.2,-0.5 -2.3,-1.8 -2.8,-3.2 -0.5,-1.4 -0.5,-5.5 0,-7.2 0.5,-1.7 2,-3.3 3.5,-3.7 0.8,-0.3 3.3,-0.3 7.5,-0.3 h 6.4 v -2.7 -2.7 h -7 z m 99.3,0 v 3.6 3.6 h 4.3 4.3 v -3.6 -3.6 h -4.3 z m -83.1,5.5 0.1,17.7 c 0.1,17.5 0.1,17.8 0.7,19.4 0.3,0.9 1,2.2 1.6,2.9 1.1,1.5 2.6,2.6 4.4,3.2 0.9,0.3 2.4,0.4 5.2,0.4 h 3.9 v -2.7 -2.7 h -2.6 c -2.5,0 -2.7,0 -3.3,-0.8 -0.4,-0.4 -0.9,-1.4 -1,-2.1 -0.2,-0.9 -0.3,-5.5 -0.3,-12.7 l 0.1,-11.3 4.6,-0.1 4.6,-0.1 V 70 67.3 h -4.7 -4.7 v -2.8 -3.1 h -4.3 z m 59.7,0 V 79 c 0,17 0,17.6 0.6,19.3 0.7,2 2,4 3.4,5.1 0.5,0.4 1.6,1 2.5,1.3 1.1,0.3 2.3,0.5 5.3,0.5 h 3.9 v -2.7 -2.7 H 383 c -2.1,0 -2.6,-0.1 -3.2,-0.6 -0.4,-0.3 -0.9,-1 -1,-1.6 -0.2,-0.6 -0.3,-5.7 -0.3,-12.9 V 72.8 h 4.7 4.7 l -0.1,-2.6 -0.1,-2.6 -4.6,-0.1 -4.6,-0.1 v -3 -3.1 h -4.3 z m -7.6,6.1 -9.3,0.2 c -9.9,0.2 -11,0.3 -13.9,1.7 -3.3,1.6 -5.5,4.9 -6.5,9.3 -0.4,1.8 -0.5,3.4 -0.5,10.4 0,7.9 0,8.3 0.6,9.8 1.2,3.1 3.1,5 5.7,5.8 1.2,0.4 2.4,0.5 6.4,0.5 h 5 v -2.7 -2.7 h -3.4 c -3.3,0 -3.5,0 -4.3,-0.7 -0.5,-0.4 -0.9,-1.1 -1.1,-2 -0.4,-1.5 -0.4,-13.6 0,-16.6 0.5,-4.2 1.5,-6.1 3.4,-7.2 0.7,-0.3 1.8,-0.5 5.1,-0.6 l 4.3,-0.1 V 88.8 105 h 4.5 4.5 V 94.8 c 0,-5.7 -0.1,-14.2 -0.2,-18.9 z m -130.9,0 -9.3,0.2 c -10,0.2 -11.5,0.3 -14.2,1.8 -3.2,1.7 -5.5,5.1 -6.4,9.5 -0.6,2.8 -0.9,14.4 -0.4,17.2 0.4,2.4 1.5,4.9 2.9,6.3 1,1 2.7,2.1 4,2.5 0.3,0.1 3,0.3 5.7,0.3 h 5.1 v -2.7 -2.7 h -3.6 c -4,0 -4.5,-0.2 -5.3,-1.9 -0.3,-0.8 -0.4,-2.3 -0.5,-6.3 -0.1,-5.8 0.3,-12.1 0.9,-14.1 0.6,-1.9 1.6,-3.3 2.8,-3.9 0.9,-0.4 1.7,-0.5 5.2,-0.5 h 4.2 l 0.1,16.1 0.1,16.1 h 4.3 4.3 V 86.5 Z m 9.3,0.1 c -2.5,0 -4.5,0 -4.5,0.1 0,0 2.8,8.5 6.3,18.7 l 6.3,18.6 -3.5,9.3 c -2,5.1 -3.6,9.3 -3.6,9.3 0,0 1.7,0.1 3.8,0 l 3.8,-0.1 11.1,-27.9 c 6.1,-15.3 11.1,-27.9 11.1,-27.9 0,0 -1.8,-0.1 -4,-0.1 -2.9,0 -4.1,0.1 -4.2,0.3 -0.1,0.2 -2.2,5.6 -4.7,12 -2.5,6.4 -4.6,11.7 -4.8,11.7 -0.2,0.1 -2.1,-5.4 -4.4,-12 l -4.1,-12.2 z m 152.6,0 v 18.8 18.8 h 4.3 4.3 V 86.4 67.6 h -4.3 z m 52.2,0.1 -0.1,18.8 v 0 l -0.1,18.8 h 4.5 4.5 V 89 72.8 l 4.3,0.1 c 4.5,0.1 5.2,0.3 6.5,1.6 1,1 1.7,3 2.1,5.5 0.2,1.3 0.3,7.4 0.3,13.7 v 11.4 h 4.3 4.3 v -11 c 0,-11.7 -0.2,-14.6 -1.4,-17.7 -1.5,-4.4 -4.4,-6.9 -9,-8.1 -1.5,-0.4 -3.2,-0.5 -11,-0.5 z m -21.8,0.1 c -2.4,0 -4.9,0.3 -6.6,0.9 -2.3,0.8 -3.8,1.7 -5.2,3.3 -1.6,1.8 -2.7,4.1 -3.4,7.1 -0.4,1.8 -0.5,3.3 -0.5,7.6 0,4.6 0.1,5.7 0.6,7.5 0.9,3.1 2,5.1 3.6,6.9 1.6,1.6 4,2.9 6.8,3.5 1.2,0.3 2.9,0.3 5.6,0.3 4.5,-0.1 6.6,-0.7 9.3,-2.5 2.2,-1.5 3.9,-3.9 4.8,-6.9 1.4,-4.3 1.5,-11.3 0.5,-16.5 -0.5,-2.5 -1.7,-5.2 -3.1,-6.9 -1.3,-1.5 -3.3,-2.9 -5.7,-3.7 -1.8,-0.3 -4.2,-0.6 -6.7,-0.6 z m 0.1,5.2 c 1.3,0 2.6,0.3 3.5,0.8 1.3,0.7 2.1,1.8 2.8,3.9 0.4,1.5 0.6,2.7 0.7,7.4 0.2,6.1 -0.2,9 -1.1,11.1 -0.7,1.5 -1.7,2.7 -2.9,3.3 -0.5,0.3 -1.9,0.3 -3.1,0.3 -1.8,0 -2.4,-0.1 -3.4,-0.7 -0.8,-0.4 -1.5,-1.1 -2,-1.9 -1.3,-2.1 -1.7,-4.7 -1.7,-10.7 0,-5.7 0.3,-8 1.4,-10.4 0.3,-0.8 1.1,-1.7 1.6,-2.1 1,-0.6 2.5,-1 4.2,-1 z"
         id="path2998_1_" /></g><path
       style="fill:#ffffff"
       inkscape:connector-curvature="0"
       id="path164"
       d="m 49.1,104.7 -5,1.6 v 0 l -9.7,3.3 c -6.3,2.1 -11.7,-2.9 -5.8,-5.1 l 4.7,-1.6 v 0 L 49.1,97.2 V 86.1 l -3.6,1.2 v 0 0 l -29.4,9.9 c -0.1,0 -0.3,0.1 -0.4,0.1 v 0 0 c -5.4,1.9 -10.5,5.8 -10.2,11.3 0.3,5.6 13.1,6.9 23,8.5 7.4,1.2 14.3,0.9 20.7,-0.7 z" /><g
       id="g170"><path
         style="fill:#ffffff"
         inkscape:connector-curvature="0"
         id="path166"
         d="m 132.9,100.9 c -1.4,-6 -11,-9.3 -25.7,-10.4 -9.6,-0.7 -19.1,1.2 -28.4,4.1 v 11.9 l 13.6,-4.7 v 0 0 l 10.7,-3.6 c 11.2,-2.1 15.7,1.6 5,5.1 l -5.3,1.8 v 0 l -24,8.3 v 13 l 13.6,-4.7 v 0 0 l 29.8,-10.5 v 0 l 0.3,-0.1 c 7.9,-2.8 11.2,-6.6 10.4,-10.2 z" /><path
         style="fill:#ffffff"
         inkscape:connector-curvature="0"
         id="path168"
         d="m 74.2,92.9 0.1,-41.7 c 0,-3.9 8,-3.7 8,0.6 V 87.1 C 98.4,91.8 106.7,84.6 106.9,66.7 107.1,51.4 96.8,42.6 80,38 L 53.7,31.1 v 53.1 0.4 36.7 l 20.6,6.7 v 0 z m -0.1,3.3 z m 0.1,19.8 z" /></g></g></svg>
