<?xml version="1.0" encoding="utf-8"?>
<!-- Generator: Adobe Illustrator 21.1.0, SVG Export Plug-In . SVG Version: 6.00 Build 0)  -->
<svg version="1.0" id="Capa_1" xmlns="http://www.w3.org/2000/svg" xmlns:xlink="http://www.w3.org/1999/xlink" x="0px" y="0px"
	 width="481.3px" height="159.1px" viewBox="0 0 481.3 159.1" enable-background="new 0 0 481.3 159.1" xml:space="preserve">
<g>
	<g>
		<path id="path2998_1_" fill="#FFFFFF" d="M147.4,55.9v24.7v24.7h4.3h4.3v-22v-22h5.3c3.9,0,5.6,0.1,6.2,0.3
			c1.3,0.5,2.6,2.1,3.2,3.9c0.3,0.9,0.5,2.8,0.6,5c0.2,4.5-0.3,7.2-1.7,8.9c-1.4,1.9-2.2,2.1-6.3,2.1h-3.4v2.7v2.7l5.4-0.1l5.4-0.1
			l1.9-0.9c3.4-1.6,6-5,7-9.3c0.6-2.4,0.6-7.8,0-10.4c-0.5-2.5-1.7-5-3-6.5c-0.5-0.6-1.6-1.5-2.3-2c-2.5-1.6-3.5-1.7-15.8-1.7
			L147.4,55.9L147.4,55.9z M185.7,55.9v24.7v24.7h4.3h4.3V80.6V55.9H190H185.7z M293.9,55.9c-3.9,0-7.9,0.2-8.8,0.3
			c-2.2,0.3-4.9,1.5-6.3,2.9c-1.5,1.4-2.7,3.3-3.4,5.5c-0.4,1.3-0.6,2.6-0.6,5.1c0,3.5,0.3,5.1,1.5,7.4c0.8,1.5,2.9,3.8,4.3,4.6
			c1.6,0.9,3.8,1.5,7.5,1.8c2.8,0.3,3.4,0.3,4.4,0.9c0.7,0.5,1.4,1.3,1.9,2.3c0.8,1.5,0.8,1.8,0.8,5.1c0,3.3-0.1,3.6-0.8,5
			c-0.5,0.9-1.2,1.7-1.9,2.2l-1.2,0.8l-7.4,0.1l-7.4,0.1v2.7v2.7h8.3c5.1,0,8.9-0.1,9.9-0.3c3.4-0.7,6.3-2.9,7.6-5.9
			c1.2-2.6,1.5-5.1,1.5-9.1c-0.2-4.1-0.8-6.3-2.4-8.8c-2.1-3.1-4.4-4.1-10.2-4.6c-2.1-0.2-4.4-0.5-4.9-0.8c-1.2-0.5-2.3-1.8-2.8-3.2
			s-0.5-5.5,0-7.2s2-3.3,3.5-3.7c0.8-0.3,3.3-0.3,7.5-0.3h6.4v-2.7v-2.7h-7V55.9L293.9,55.9z M393.2,55.9v3.6v3.6h4.3h4.3v-3.6v-3.6
			h-4.3H393.2L393.2,55.9z M310.1,61.4l0.1,17.7c0.1,17.5,0.1,17.8,0.7,19.4c0.3,0.9,1,2.2,1.6,2.9c1.1,1.5,2.6,2.6,4.4,3.2
			c0.9,0.3,2.4,0.4,5.2,0.4h3.9v-2.7v-2.7h-2.6c-2.5,0-2.7,0-3.3-0.8c-0.4-0.4-0.9-1.4-1-2.1c-0.2-0.9-0.3-5.5-0.3-12.7l0.1-11.3
			l4.6-0.1l4.6-0.1V70v-2.7h-4.7h-4.7v-2.8v-3.1h-4.3H310.1L310.1,61.4z M369.8,61.4V79c0,17,0,17.6,0.6,19.3c0.7,2,2,4,3.4,5.1
			c0.5,0.4,1.6,1,2.5,1.3c1.1,0.3,2.3,0.5,5.3,0.5h3.9v-2.7v-2.7H383c-2.1,0-2.6-0.1-3.2-0.6c-0.4-0.3-0.9-1-1-1.6
			c-0.2-0.6-0.3-5.7-0.3-12.9V72.8h4.7h4.7l-0.1-2.6l-0.1-2.6l-4.6-0.1l-4.6-0.1v-3v-3.1h-4.3L369.8,61.4L369.8,61.4z M362.2,67.5
			l-9.3,0.2c-9.9,0.2-11,0.3-13.9,1.7c-3.3,1.6-5.5,4.9-6.5,9.3c-0.4,1.8-0.5,3.4-0.5,10.4c0,7.9,0,8.3,0.6,9.8
			c1.2,3.1,3.1,5,5.7,5.8c1.2,0.4,2.4,0.5,6.4,0.5h5v-2.7v-2.7h-3.4c-3.3,0-3.5,0-4.3-0.7c-0.5-0.4-0.9-1.1-1.1-2
			c-0.4-1.5-0.4-13.6,0-16.6c0.5-4.2,1.5-6.1,3.4-7.2c0.7-0.3,1.8-0.5,5.1-0.6l4.3-0.1v16.2V105h4.5h4.5V94.8
			c0-5.7-0.1-14.2-0.2-18.9L362.2,67.5z M231.3,67.5l-9.3,0.2c-10,0.2-11.5,0.3-14.2,1.8c-3.2,1.7-5.5,5.1-6.4,9.5
			c-0.6,2.8-0.9,14.4-0.4,17.2c0.4,2.4,1.5,4.9,2.9,6.3c1,1,2.7,2.1,4,2.5c0.3,0.1,3,0.3,5.7,0.3h5.1v-2.7v-2.7h-3.6
			c-4,0-4.5-0.2-5.3-1.9c-0.3-0.8-0.4-2.3-0.5-6.3c-0.1-5.8,0.3-12.1,0.9-14.1c0.6-1.9,1.6-3.3,2.8-3.9c0.9-0.4,1.7-0.5,5.2-0.5h4.2
			l0.1,16.1l0.1,16.1h4.3h4.3V86.5L231.3,67.5L231.3,67.5z M240.6,67.6c-2.5,0-4.5,0-4.5,0.1c0,0,2.8,8.5,6.3,18.7l6.3,18.6
			l-3.5,9.3c-2,5.1-3.6,9.3-3.6,9.3s1.7,0.1,3.8,0l3.8-0.1l11.1-27.9c6.1-15.3,11.1-27.9,11.1-27.9s-1.8-0.1-4-0.1
			c-2.9,0-4.1,0.1-4.2,0.3c-0.1,0.2-2.2,5.6-4.7,12s-4.6,11.7-4.8,11.7c-0.2,0.1-2.1-5.4-4.4-12l-4.1-12.2L240.6,67.6z M393.2,67.6
			v18.8v18.8h4.3h4.3V86.4V67.6h-4.3H393.2z M445.4,67.7l-0.1,18.8l0,0l-0.1,18.8h4.5h4.5V89V72.8l4.3,0.1c4.5,0.1,5.2,0.3,6.5,1.6
			c1,1,1.7,3,2.1,5.5c0.2,1.3,0.3,7.4,0.3,13.7v11.4h4.3h4.3v-11c0-11.7-0.2-14.6-1.4-17.7c-1.5-4.4-4.4-6.9-9-8.1
			c-1.5-0.4-3.2-0.5-11-0.5L445.4,67.7L445.4,67.7z M423.6,67.8c-2.4,0-4.9,0.3-6.6,0.9c-2.3,0.8-3.8,1.7-5.2,3.3
			c-1.6,1.8-2.7,4.1-3.4,7.1c-0.4,1.8-0.5,3.3-0.5,7.6c0,4.6,0.1,5.7,0.6,7.5c0.9,3.1,2,5.1,3.6,6.9c1.6,1.6,4,2.9,6.8,3.5
			c1.2,0.3,2.9,0.3,5.6,0.3c4.5-0.1,6.6-0.7,9.3-2.5c2.2-1.5,3.9-3.9,4.8-6.9c1.4-4.3,1.5-11.3,0.5-16.5c-0.5-2.5-1.7-5.2-3.1-6.9
			c-1.3-1.5-3.3-2.9-5.7-3.7C428.5,68.1,426.1,67.8,423.6,67.8L423.6,67.8z M423.7,73c1.3,0,2.6,0.3,3.5,0.8
			c1.3,0.7,2.1,1.8,2.8,3.9c0.4,1.5,0.6,2.7,0.7,7.4c0.2,6.1-0.2,9-1.1,11.1c-0.7,1.5-1.7,2.7-2.9,3.3c-0.5,0.3-1.9,0.3-3.1,0.3
			c-1.8,0-2.4-0.1-3.4-0.7c-0.8-0.4-1.5-1.1-2-1.9c-1.3-2.1-1.7-4.7-1.7-10.7c0-5.7,0.3-8,1.4-10.4c0.3-0.8,1.1-1.7,1.6-2.1
			C420.5,73.4,422,73,423.7,73L423.7,73z"/>
	</g>
	<path fill="#FFFFFF" d="M49.1,104.7l-5,1.6l0,0l-9.7,3.3c-6.3,2.1-11.7-2.9-5.8-5.1l4.7-1.6l0,0l15.8-5.7V86.1l-3.6,1.2l0,0l0,0
		l-29.4,9.9c-0.1,0-0.3,0.1-0.4,0.1l0,0l0,0c-5.4,1.9-10.5,5.8-10.2,11.3c0.3,5.6,13.1,6.9,23,8.5c7.4,1.2,14.3,0.9,20.7-0.7
		L49.1,104.7L49.1,104.7z"/>
	<g>
		<path fill="#FFFFFF" d="M132.9,100.9c-1.4-6-11-9.3-25.7-10.4c-9.6-0.7-19.1,1.2-28.4,4.1v11.9l13.6-4.7l0,0l0,0l10.7-3.6
			c11.2-2.1,15.7,1.6,5,5.1l-5.3,1.8l0,0l-24,8.3v13l13.6-4.7l0,0l0,0l29.8-10.5l0,0l0.3-0.1C130.4,108.3,133.7,104.5,132.9,100.9z"
			/>
		<path fill="#FFFFFF" d="M74.2,92.9l0.1-41.7c0-3.9,8-3.7,8,0.6v35.3c16.1,4.7,24.4-2.5,24.6-20.4C107.1,51.4,96.8,42.6,80,38
			l-26.3-6.9v53.1v0.4v36.7l20.6,6.7l0,0L74.2,92.9L74.2,92.9z M74.1,96.2L74.1,96.2L74.1,96.2L74.1,96.2z M74.2,116L74.2,116
			L74.2,116L74.2,116z"/>
	</g>
</g>
</svg>
