<?xml version="1.0" encoding="UTF-8" standalone="no"?>
<svg
   xmlns:dc="http://purl.org/dc/elements/1.1/"
   xmlns:cc="http://creativecommons.org/ns#"
   xmlns:rdf="http://www.w3.org/1999/02/22-rdf-syntax-ns#"
   xmlns:svg="http://www.w3.org/2000/svg"
   xmlns="http://www.w3.org/2000/svg"
   xmlns:sodipodi="http://sodipodi.sourceforge.net/DTD/sodipodi-0.dtd"
   xmlns:inkscape="http://www.inkscape.org/namespaces/inkscape"
   inkscape:version="1.0 (4035a4fb49, 2020-05-01)"
   sodipodi:docname="puzzle.svg"
   width="386.79727"
   height="152.4447"
   viewBox="0 0 102.34011 40.334328"
   version="1.1"
   id="svg8">
  <sodipodi:namedview
     inkscape:current-layer="svg8"
     inkscape:window-maximized="0"
     inkscape:window-y="0"
     inkscape:window-x="0"
     inkscape:cy="75.260571"
     inkscape:cx="193.39863"
     inkscape:zoom="2.6225"
     fit-margin-bottom="5"
     fit-margin-right="5"
     fit-margin-left="5"
     fit-margin-top="5"
     inkscape:pagecheckerboard="true"
     lock-margins="true"
     showgrid="false"
     id="namedview14"
     inkscape:window-height="480"
     inkscape:window-width="700"
     inkscape:pageshadow="2"
     inkscape:pageopacity="0"
     guidetolerance="10"
     gridtolerance="10"
     objecttolerance="10"
     borderopacity="1"
     bordercolor="#666666"
     pagecolor="#ffffff" />
  <defs
     id="defs2" />
  <metadata
     id="metadata5">
    <rdf:RDF>
      <cc:Work
         rdf:about="">
        <dc:format>image/svg+xml</dc:format>
        <dc:type
           rdf:resource="http://purl.org/dc/dcmitype/StillImage" />
        <dc:title></dc:title>
      </cc:Work>
    </rdf:RDF>
  </metadata>
  <g
     id="layer1"
     transform="translate(-1.7466118,-257.24354)">
    <g
       id="g829"
       transform="translate(-0.71918434,0.52916667)"
       style="fill:#ffffff">
      <path
         d="m 6.4466666,276.23089 q -0.4954032,-0.58927 -0.9886017,-1.54396 -0.48376,-0.96649 -0.5630605,-1.67737 l -1.0853035,-9.7291 q -0.1751671,-1.57024 1.1116148,-2.93833 1.2855948,-1.37872 3.2696146,-1.60006 l 5.6868067,-0.63434 q 2.938895,-0.32785 5.102727,0.87016 2.174439,1.19683 3.413282,3.4433 1.238836,2.24647 1.550106,5.03679 0.190903,2.48155 -0.628595,4.861 -0.81006,2.36759 -2.716729,4.24528 -1.907847,1.86702 -4.8653,2.89519 -0.812155,0.32671 -1.230393,0.91062 -0.407651,0.58256 -0.275094,1.77082 l 0.198834,1.78245 q 0.226056,2.02645 -0.909864,3.30254 -1.125305,1.27491 -2.822858,1.46429 -1.6339005,0.18226 -2.9405418,-0.74616 -1.2972186,-0.94024 -1.5102511,-2.84993 l -0.6829037,-6.12184 q -0.079302,-0.71086 0.202063,-1.65527 0.291951,-0.94562 0.6844714,-1.08608 z m 9.6524074,-12.0763 q -1.446768,-0.54757 -3.080662,-0.3653 -0.912437,0.10178 -1.465273,0.24948 -0.793327,0.2066 -1.084228,0.87282 -0.280305,0.66508 -0.204561,1.34408 l 0.717228,6.4295 q 0.226057,2.02645 -0.773415,2.59984 -0.4774368,0.0533 -0.5117469,-0.25433 -0.021304,-0.19104 0.1790121,-0.41739 0.3418058,-0.2099 0.3734578,-0.60023 0.04107,-0.40204 -0.06187,-1.32505 l -0.6982913,-6.25977 q -0.1562244,-1.40049 0.5401273,-2.28379 0.696359,-0.88327 3.030499,-1.14363 1.771823,-0.19766 3.416749,0.58557 0.08959,0.0329 0.108547,0.20282 0.03431,0.30755 -0.485572,0.36555 z m -5.209485,21.95721 q -0.519878,0.0579 -0.562477,-0.32389 -0.04026,-0.36095 0.424179,-0.53068 0.619988,-0.31614 0.457828,-1.76978 -0.345589,-3.098 0.549684,-4.70174 0.90589,-1.60489 2.987549,-2.299 1.942607,-0.59252 3.377905,-1.97734 1.44474,-1.39646 2.124151,-3.29836 0.690013,-1.90307 0.465141,-3.9189 -0.150302,-1.34743 -0.693173,-2.65108 -0.07811,-0.70026 0.144692,-0.72511 0.328911,-0.0367 0.525967,0.38173 0.708063,1.62897 0.873757,3.11432 0.25328,2.2705 -0.585237,4.28677 -0.82789,2.01516 -2.42823,3.46122 -1.600338,1.44603 -3.542891,2.13537 -1.049095,0.32107 -1.751534,0.7647 -0.692998,0.43192 -1.1617,1.62268 -0.468687,1.19093 -0.224878,3.37657 0.117165,1.05029 -0.03457,1.80842 -0.14115,0.75692 -0.94613,1.24415 z m 1.852923,-19.69223 0.62964,5.64434 q 1.492131,-0.87539 2.056388,-1.88363 0.563081,-1.01882 0.380818,-2.65268 -0.156011,-0.91716 -0.895281,-1.0925 -0.739248,-0.17527 -2.171563,-0.0152 z m -6.3197248,6.41956 q 0.1763496,1.58087 1.1234014,2.46346 0.945873,0.872 2.0068429,0.75363 0.9018255,-0.10058 1.4449555,-0.9131 0.553735,-0.81369 0.395137,-2.23544 l -0.615439,-5.51701 q -0.140847,-1.26258 0.01923,-1.84975 0.170673,-0.58831 0.705824,-0.79843 0.544586,-0.22164 1.807144,-0.36247 3.90438,-0.43555 4.344657,3.51127 0.151748,1.93804 -0.639892,3.31538 -0.782199,1.36552 -2.818762,2.75282 -0.569164,0.57907 -1.216102,1.23131 -0.636329,0.65103 -1.37056,1.19481 -0.734231,0.54382 -1.552313,0.72103 -0.870001,0.097 -1.9912599,-0.13247 -0.9641522,0.40855 -0.7594221,2.24382 l 0.6343772,5.68681 q 0.1076988,0.96546 0.8305957,1.47561 0.733507,0.50899 1.6247231,0.40956 0.986708,-0.10993 1.62887,-0.9014 0.642163,-0.79132 0.495405,-2.10691 l -0.198837,-1.78244 q -0.171614,-1.53844 0.379671,-2.56666 0.561895,-1.02949 2.110749,-1.58891 2.661602,-0.88772 4.37146,-2.60381 1.720468,-1.71722 2.418635,-3.83607 0.696995,-2.12943 0.459105,-4.26194 -0.200022,-1.79309 -1.077833,-3.40312 -2.586147,-4.5023 -6.745156,-4.03835 l -5.8671744,0.6545 q -1.2837786,0.14328 -2.1851842,1.21049 -0.9014015,1.06736 -0.7854182,2.1071 z"
         style="font-style:normal;font-variant:normal;font-weight:normal;font-stretch:normal;font-size:medium;line-height:1.25;font-family:QuickSilver;-inkscape-font-specification:QuickSilver;letter-spacing:0px;word-spacing:0px;fill:#ffffff;fill-opacity:1;stroke:none;stroke-width:1.09317"
         id="path819" />
      <path
         d="m 36.748334,271.41846 -1.719627,13.00455 q -0.19248,1.45564 -1.20644,2.71346 -1.005187,1.25902 -2.564563,1.91829 -1.550604,0.66042 -3.330728,0.42505 -0.438453,-0.0582 -1.313188,-0.32535 -0.416946,-0.15316 -0.387949,-0.37243 0.02433,-0.18427 0.454051,-0.12748 0.463757,0.204 1.209131,0.30256 1.385515,0.18322 2.83814,-0.27606 1.462556,-0.46688 2.522817,-1.60257 1.061422,-1.14444 1.288699,-2.86321 l 1.701072,-12.86424 q 0.0278,-0.21045 0.247066,-0.18143 0.289391,0.0382 0.261568,0.24868 z m -14.054442,-3.4288 q 0.1867,-1.41184 1.254492,-2.06474 1.068957,-0.66165 2.401854,-0.48539 1.297824,0.17167 2.139366,1.09484 0.850309,0.92439 0.657827,2.38003 l -1.739337,13.1536 q -0.148431,1.12246 0.251544,1.80885 0.408742,0.68751 1.083959,0.77681 0.578755,0.0766 1.074539,-0.36648 0.495776,-0.443 0.615215,-1.34624 l 1.771799,-13.39912 q 0.201766,-1.52586 1.281166,-2.26644 1.089321,-0.74817 2.387144,-0.57657 1.332896,0.17632 2.208504,1.24673 0.884371,1.07164 0.661736,2.7553 l -1.885446,14.25855 q -0.243507,1.84147 -1.573363,3.39658 -1.329859,1.55511 -3.335665,2.35166 -1.997029,0.79769 -4.115013,0.55329 -2.288731,-0.30261 -4.001664,-1.65341 -1.70302,-1.35831 -2.500059,-3.29283 -0.805813,-1.93562 -0.553032,-3.84726 z m 3.945289,1.40502 q 0.06261,-0.47354 0.378313,-0.4318 0.254288,0.0338 0.191684,0.50717 l -1.65237,12.49592 q -0.29453,2.22734 0.611005,3.40886 0.06087,0.0794 0.0423,0.2197 -0.03831,0.2895 -0.292583,0.25585 -0.184113,-0.0249 -0.26206,-0.17731 -0.573031,-0.72713 -0.721161,-1.49618 -0.146983,-0.77786 0.03854,-2.18091 z m -2.539332,-0.70161 -1.847181,13.96916 q -0.209882,1.5872 0.454685,3.17401 0.674489,1.57925 2.080877,2.6842 1.407544,1.09622 3.301668,1.34666 1.235745,0.10156 2.469323,-0.25334 1.242318,-0.35329 2.269094,-1.1008 1.035552,-0.7464 1.699028,-1.78288 0.664645,-1.04526 0.825824,-2.26419 l 1.837901,-13.89897 q 0.144944,-1.09614 -0.293585,-1.76087 -0.437363,-0.67346 -1.165194,-0.76972 -0.727836,-0.0963 -1.347401,0.47318 -0.618396,0.56061 -0.772622,1.72693 l -1.705709,12.8993 q -0.227275,1.71875 -1.252758,2.59141 -1.016704,0.87376 -2.218065,0.7149 -1.218902,-0.16115 -1.973549,-1.26919 -0.744714,-1.11562 -0.509322,-2.89577 l 1.753247,-13.25881 q 0.12871,-0.97339 -0.309162,-1.57555 -0.437877,-0.60217 -1.139405,-0.69491 -0.762905,-0.1009 -1.393048,0.41356 -0.630137,0.51446 -0.764646,1.53169 z"
         style="font-style:normal;font-variant:normal;font-weight:normal;font-stretch:normal;font-size:medium;line-height:1.25;font-family:QuickSilver;-inkscape-font-specification:QuickSilver;letter-spacing:0px;word-spacing:0px;fill:#ffffff;fill-opacity:1;stroke:none;stroke-width:0.90577"
         id="path821" />
      <path
         d="m 45.45198,265.59969 -3.531534,-0.33097 q -1.356253,-0.1271 -2.085324,-1.16378 -0.72825,-1.04549 -0.608572,-2.3225 0.124633,-1.32982 1.093623,-2.18963 0.977802,-0.85896 2.633484,-0.7038 l 8.366479,0.78407 q 1.57642,0.14774 2.348975,1.09969 0.77338,0.94311 0.652055,2.2377 -0.09575,1.02164 -0.72292,1.93118 l -8.075994,11.94754 5.196026,0.48695 q 1.074433,0.10079 1.774588,0.59274 0.70979,0.48409 1.005668,1.21364 0.295878,0.72961 0.220772,1.53104 -0.124619,1.32981 -1.075458,2.28015 -0.950824,0.95032 -2.37753,0.81663 l -11.043754,-1.03499 q -1.180115,-0.11055 -2.019821,-1.10435 -0.839707,-0.99377 -0.712606,-2.35 0.09491,-1.01279 0.812915,-2.03826 z m 2.652183,-1.09292 -9.542262,13.65799 q -0.420504,0.60025 -0.482406,1.26075 -0.07263,0.775 0.319014,1.33587 0.392472,0.55205 1.105827,0.61889 l 10.744321,1.00694 q 0.704548,0.0661 1.215323,-0.45468 0.519582,-0.51989 0.589736,-1.26847 0.06519,-0.69574 -0.356987,-1.21505 -0.42137,-0.52812 -1.363697,-0.61642 l -7.538641,-0.7065 9.682611,-14.01799 q 0.203395,-0.27422 0.257035,-0.84659 0.07346,-0.78381 -0.418097,-1.4162 -0.491551,-0.63242 -1.742119,-0.74963 l -7.75881,-0.72713 q -0.96875,-0.0907 -1.488887,0.34024 -0.511329,0.43178 -0.577358,1.13635 -0.06603,0.70453 0.319016,1.33587 0.385871,0.6225 0.984733,0.67862 z m -8.034855,15.86928 10.030975,0.94005 q 0.642896,0.0603 0.804431,-0.431 0.04045,-0.43153 0.322252,-0.40514 0.361082,0.0337 0.314036,0.53585 -0.14778,0.43922 -0.507193,0.67208 -0.359431,0.23278 -0.808562,0.19069 l -10.277564,-0.96319 q -0.36108,-0.0338 -0.340444,-0.25401 0.01058,-0.11452 0.135126,-0.20948 0.133178,-0.0943 0.326958,-0.076 z m 11.783787,-16.24647 -9.399151,13.74248 q -0.05064,0.0664 -0.191553,0.0531 -0.325844,-0.0306 -0.30275,-0.27698 0.0099,-0.10575 0.09109,-0.21358 l 9.307788,-13.43119 q 0.119986,-0.23771 0.348973,-0.21624 0.17615,0.0165 0.145611,0.34234 z m -9.048201,-1.28328 5.196024,0.48696 q 0.501991,0.047 0.475575,0.32891 -0.02724,0.29074 -0.529238,0.24371 l -5.125569,-0.48036 q -0.36108,-0.0338 -0.333831,-0.32458 0.0264,-0.28187 0.317052,-0.25464 z"
         style="font-style:normal;font-variant:normal;font-weight:normal;font-stretch:normal;font-size:medium;line-height:1.25;font-family:QuickSilver;-inkscape-font-specification:QuickSilver;letter-spacing:0px;word-spacing:0px;fill:#ffffff;fill-opacity:1;stroke:none;stroke-width:0.90577"
         id="path823" />
      <path
         d="m 57.073638,273.50085 -3.54203,-0.18802 q -1.360276,-0.0722 -2.130651,-1.07855 -0.769902,-1.0152 -0.701928,-2.29601 0.07079,-1.33377 1.00424,-2.23201 0.942293,-0.8978 2.602893,-0.80966 l 8.391332,0.44532 q 1.581105,0.0839 2.391494,1.00385 0.810862,0.91111 0.741951,2.20954 -0.05438,1.02467 -0.644287,1.95883 l -7.586578,12.26413 5.211462,0.27659 q 1.077625,0.0572 1.797094,0.52053 0.72877,0.45501 1.053891,1.17203 0.325115,0.71701 0.282456,1.52082 -0.07079,1.33378 -0.982427,2.3218 -0.911649,0.98795 -2.342588,0.912 l -11.076559,-0.58785 q -1.18362,-0.0628 -2.062803,-1.02181 -0.879179,-0.95902 -0.806987,-2.31929 0.05392,-1.01579 0.729875,-2.06943 z m 2.605848,-1.19923 -8.982531,14.03246 q -0.395902,0.61674 -0.43106,1.27921 -0.04124,0.77729 0.372737,1.32188 0.414463,0.53574 1.129934,0.57372 l 10.776239,0.57189 q 0.706639,0.0376 1.195951,-0.5034 0.498152,-0.54045 0.537997,-1.29126 0.03704,-0.69781 -0.405801,-1.19963 -0.442365,-0.51066 -1.387495,-0.56083 l -7.56103,-0.40127 9.108209,-14.39783 q 0.192149,-0.28221 0.222615,-0.85628 0.04173,-0.78613 -0.474987,-1.39813 -0.516707,-0.61206 -1.770991,-0.67862 l -7.781856,-0.41301 q -0.971627,-0.0517 -1.473924,0.40012 -0.49346,0.45211 -0.530963,1.15877 -0.03751,0.70662 0.372739,1.32188 0.41071,0.60642 1.011354,0.6383 z m -7.386989,16.18102 10.060766,0.53392 q 0.644809,0.0341 0.786354,-0.46317 0.02297,-0.43282 0.305621,-0.41782 0.362147,0.0192 0.335427,0.52272 -0.129914,0.44484 -0.479618,0.69202 -0.349731,0.24713 -0.800198,0.22322 l -10.308073,-0.54707 q -0.362159,-0.0192 -0.350436,-0.24005 0.0061,-0.11504 0.126525,-0.21475 0.12928,-0.0996 0.323627,-0.089 z m 11.117614,-16.7094 -8.836117,14.11109 q -0.04792,0.0683 -0.189244,0.0609 -0.326815,-0.0173 -0.313699,-0.26452 0.0057,-0.10608 0.08237,-0.21709 l 8.757412,-13.79638 q 0.110295,-0.24234 0.33995,-0.23014 0.17668,0.009 0.159328,0.33617 z m -9.092668,-0.91658 5.211458,0.27659 q 0.503481,0.0268 0.488479,0.30942 -0.01548,0.29161 -0.518956,0.26488 l -5.140796,-0.27281 q -0.362153,-0.0192 -0.346678,-0.31085 0.015,-0.28271 0.306505,-0.26723 z"
         style="font-style:normal;font-variant:normal;font-weight:normal;font-stretch:normal;font-size:medium;line-height:1.25;font-family:QuickSilver;-inkscape-font-specification:QuickSilver;letter-spacing:0px;word-spacing:0px;fill:#ffffff;fill-opacity:1;stroke:none;stroke-width:0.90577"
         id="path825" />
      <path
         d="m 64.280318,274.95834 q -0.05835,-1.25471 0.377695,-2.16047 0.444882,-0.90618 1.193052,-1.38373 0.7566,-0.48681 1.613677,-0.52667 1.334215,-0.0621 2.3602,0.86429 1.025983,0.92637 1.107344,2.67583 l 0.648022,13.93419 q 0.03534,0.75988 0.86591,0.72123 l 2.208963,-0.10256 q 1.652308,-0.0768 2.608015,0.8616 0.955292,0.92961 1.017751,2.27268 0.05959,1.28119 -0.727429,2.25642 -0.778587,0.96597 -2.271847,1.03544 l -6.768275,0.31474 q -1.502094,0.0699 -2.435399,-0.95817 -0.924475,-1.02845 -0.986524,-2.36268 z m 1.544839,-0.29323 0.811158,17.44202 q 0.04766,1.02494 0.428631,1.60048 0.3898,0.57516 1.74169,0.51231 l 6.14976,-0.28602 q 0.865912,-0.0401 1.327231,-0.59302 0.470154,-0.55315 0.435227,-1.30418 -0.03206,-0.6892 -0.496447,-1.15464 -0.464395,-0.46542 -1.321472,-0.42555 l -3.43715,0.15984 q -0.839407,0.0391 -1.109413,-0.43543 -0.270015,-0.47448 -0.287274,-0.84557 l -0.689935,-14.83542 q -0.04766,-1.02497 -0.59487,-1.55736 -0.538368,-0.53283 -1.245239,-0.49996 -0.733377,0.034 -1.246062,0.62465 -0.512688,0.59059 -0.465844,1.59785 z m 2.482053,0.24763 q -0.02713,-0.58317 0.299804,-0.59835 0.318095,-0.0149 0.348505,0.63904 l 0.706783,15.19768 q 0.02219,0.47715 -0.29591,0.49195 -0.326923,0.0152 -0.352401,-0.53264 z m 0.524506,18.32312 6.255787,-0.29093 q 0.326921,-0.0152 0.513096,-0.20105 0.194598,-0.19513 0.181452,-0.47774 0.04436,-0.18812 0.212245,-0.19593 0.291597,-0.0139 0.306802,0.31333 -0.07418,0.49931 -0.432139,0.79937 -0.358369,0.29116 -0.82667,0.31294 l -6.255789,0.29093 q -0.397615,0.0184 -0.407891,-0.20241 -0.0152,-0.32693 0.453101,-0.34871 z"
         style="font-style:normal;font-variant:normal;font-weight:normal;font-stretch:normal;font-size:medium;line-height:1.25;font-family:QuickSilver;-inkscape-font-specification:QuickSilver;letter-spacing:0px;word-spacing:0px;fill:#ffffff;fill-opacity:1;stroke:none;stroke-width:0.90577"
         id="path827" />
      <path
         d="m 75.960586,272.64276 -2.394348,-2.77647 q -1.041687,-1.18823 -0.812287,-2.85312 0.124368,-0.90257 0.634903,-1.62691 0.510536,-0.72433 1.390658,-1.08519 0.888886,-0.3597 2.071841,-0.19671 l 9.183227,1.26535 q 1.489645,0.20525 2.256965,1.31103 0.776085,1.107 0.591357,2.44766 -0.194392,1.41079 -1.421013,2.27755 -1.217857,0.86792 -3.320884,0.57815 l 2.43909,2.97016 q 0.848291,1.03656 0.641826,2.53498 -0.196807,1.4283 -1.272945,2.36935 -1.074931,0.93231 -2.739828,0.7029 l -4.337499,-0.59766 -0.434657,3.15451 5.870048,0.88035 q 1.384495,0.19076 2.061773,1.302 0.687252,1.10368 0.506142,2.41808 -0.188347,1.36695 -1.21616,2.21646 -1.026601,0.84074 -2.726549,0.60649 l -9.262093,-1.2762 q -3.084443,-0.42501 -2.619598,-3.79861 l 1.354694,-9.83165 q 0.169036,-1.22679 1.0228,-2.10921 0.863734,-0.88996 2.532524,-0.88321 z m -1.718649,15.12994 9.051789,1.24724 q 0.849973,0.11703 1.435475,-0.37364 0.585508,-0.4908 0.688134,-1.2356 0.102631,-0.74485 -0.333162,-1.34062 -0.435789,-0.59577 -1.364626,-0.72376 l -5.485402,-0.75582 q -1.621083,-0.22337 -1.448424,-1.47644 l 0.464844,-3.3736 q 0.202841,-1.47212 1.604858,-1.27894 l 4.162247,0.57352 q 0.867499,0.11954 1.612836,-0.42959 0.754102,-0.54792 0.874836,-1.42415 0.140063,-1.01653 -0.755356,-1.97025 l -4.872085,-5.46618 4.731818,0.65199 q 1.156665,0.15938 1.873615,-0.31332 0.725704,-0.47144 0.833162,-1.25133 0.09659,-0.701 -0.37908,-1.26656 -0.466901,-0.56438 -1.474606,-0.70322 l -8.39459,-1.15668 q -1.218003,-0.16784 -1.918938,0.25346 -0.700942,0.42133 -0.808401,1.20119 -0.161788,1.17419 0.911325,2.39355 l 4.891717,5.3885 -4.127194,-0.56869 q -0.841214,-0.11597 -1.378971,0.41716 -0.53776,0.53308 -0.630732,1.20783 l -1.276213,9.26207 q -0.134011,0.97265 0.09209,1.66454 0.227323,0.68314 1.419029,0.84734 z m 0.402621,-1.04279 8.709138,1.27153 q 0.23658,0.0326 0.533609,-0.11413 0.306937,-0.15398 0.39303,-0.45478 0.01814,-0.1316 0.158868,-0.2459 0.140793,-0.11479 0.289786,-0.0943 0.175264,0.0241 0.111275,0.48859 -0.172773,0.47619 -0.676717,0.7639 -0.503958,0.28776 -0.889513,0.23462 l -8.718807,-1.20135 q -0.394316,-0.0543 -0.349646,-0.37854 0.04468,-0.32421 0.438992,-0.26987 z m 1.603088,-3.14532 q -0.103832,0.75359 -0.393014,0.71374 -0.280398,-0.0388 -0.176561,-0.79223 l 0.623015,-4.52152 q 0.111075,-0.80615 0.781795,-1.26735 0.671924,-0.46993 1.381696,-0.37212 l 4.776534,0.58664 q 0.289178,0.0398 0.646865,-0.22327 0.357707,-0.26312 0.454961,-0.5802 0.149833,-0.30975 0.333856,-0.28439 0.289179,0.0397 0.223977,0.51305 -0.07485,0.54326 -0.628664,0.86878 -0.552587,0.3167 -1.02577,0.25151 l -4.565323,-0.62905 q -0.552046,-0.0761 -1.137279,0.21832 -0.575262,0.28683 -0.677893,1.03166 z m 4.553017,-9.64993 q 0.09067,0.11955 0.07497,0.23357 -0.03383,0.24555 -0.287944,0.21053 -0.113908,-0.0158 -0.335109,-0.22485 l -2.068853,-2.22263 q -0.19492,-0.20554 -0.169574,-0.38949 0.035,-0.25401 0.324182,-0.21417 0.148981,0.0204 0.268653,0.1888 z m -1.661821,-4.13987 q 0.188558,0.18676 0.151137,0.45836 -0.03018,0.21909 -0.205455,0.19495 -0.12266,-0.0171 -0.364128,-0.27345 l -0.924428,-1.00241 q -0.118463,-0.1771 -0.09554,-0.34354 0.0495,-0.35924 0.61907,-0.28075 l 6.85237,0.94416 q 0.280397,0.0387 0.608521,-0.13938 0.336865,-0.17682 0.463139,-0.44515 0.09722,-0.31697 0.298787,-0.28919 0.07885,0.0119 0.145685,0.10906 0.0768,0.0905 0.06472,0.1785 -0.08089,0.58711 -0.613553,0.88873 -0.532656,0.30162 -1.181088,0.21228 l -6.387955,-0.88011 z"
         style="font-style:normal;font-variant:normal;font-weight:normal;font-stretch:normal;font-size:medium;line-height:1.25;font-family:QuickSilver;-inkscape-font-specification:QuickSilver;letter-spacing:0px;word-spacing:0px;fill:#ffffff;fill-opacity:1;stroke:none;stroke-width:0.90577"
         id="path829" />
      <path
         d="m 87.820052,279.79851 q -1.613155,-1.75747 -1.868437,-3.77586 -0.237516,-1.87791 0.707433,-3.92328 0.800522,-1.77743 2.63336,-2.86514 1.831716,-1.09657 3.885188,-1.35627 0.859997,-0.10883 1.777306,-0.0464 2.351555,0.26429 3.597117,1.23014 1.244454,0.95708 1.40095,2.19444 0.154281,1.21978 -0.69893,2.22822 -0.845536,0.99853 -2.30227,1.18278 -1.289997,0.16316 -2.679785,-0.39218 -0.413872,-0.17056 -0.887751,-0.11055 -0.888444,0.16581 -0.804085,0.83278 0.0688,0.5441 0.719828,0.82733 0.704883,0.35663 1.706924,0.59546 1.010804,0.23767 2.142358,0.51361 1.139219,0.26606 1.96151,0.6346 1.951942,0.84084 3.008492,2.35664 1.05545,1.50707 1.29297,3.385 0.21421,1.69368 -0.22006,3.33562 -0.42661,1.63207 -1.36947,2.84799 -1.17717,1.54869 -2.922464,2.48267 -1.737618,0.92415 -3.694555,1.17166 -2.799385,0.35408 -5.288054,-0.64183 -2.479889,-0.99698 -3.50429,-3.034 -0.693221,-1.39232 -0.881904,-2.88417 -0.475045,-3.75592 2.288627,-6.78913 z m 1.071164,0.99686 q -1.09569,0.99449 -1.545611,2.44227 -0.449911,1.44778 -0.261229,2.93961 0.203117,1.60595 1.030085,2.92787 0.835746,1.32083 2.063137,1.86103 2.309929,1.06307 4.846048,0.74231 1.834079,-0.23198 3.389528,-1.18656 1.554349,-0.96333 2.482576,-2.43596 0.93701,-1.47375 1.00805,-3.16783 0.0243,-0.65392 -0.0579,-1.30332 -0.51833,-4.09814 -4.855815,-5.19009 -0.609166,-0.16379 -1.488223,-0.34672 -0.870315,-0.18427 -1.51677,-0.36091 -0.647578,-0.18555 -1.272275,-0.47215 -1.492975,-0.59575 -1.677222,-2.0525 -0.114319,-0.90387 0.47604,-1.59372 0.598017,-0.69975 1.914341,-0.86624 0.69226,-0.0251 2.628553,0.62154 0.285371,0.0709 0.592504,0.0321 0.710819,-0.0899 1.246511,-0.64801 0.534577,-0.56689 0.449117,-1.2426 -0.129876,-1.02673 -1.715135,-1.71782 -1.566614,-0.68455 -3.523549,-0.43703 -1.798981,0.22754 -3.269905,1.21599 -1.462143,0.98738 -2.051151,2.60434 -0.458897,1.30624 -0.282422,2.70154 0.291904,2.30794 2.206029,3.55481 0.118636,0.092 0.259049,0.0744 0.1492,-0.0189 0.135878,-0.12406 -0.0066,-0.0527 -0.141832,-0.20498 -0.04402,-0.0659 -0.213147,-0.20491 -0.169152,-0.13916 -0.201038,-0.17956 -0.05438,-0.43 0.2001,-0.46219 0.149202,-0.0189 0.267808,0.0733 1.069947,0.91676 2.273122,1.4065 1.202071,0.48101 3.013982,0.84918 0.261142,0.0204 0.281122,0.17839 0.04107,0.3247 -0.283623,0.36577 -0.503618,-0.0342 -0.861423,-0.11399 -0.357804,-0.0799 -0.984486,-0.24104 -0.619017,-0.17119 -0.820968,-0.21708 -0.134847,0.0616 -0.12266,0.1581 0.02775,0.2194 0.247251,0.26307 1.153445,0.23753 1.75815,0.36607 0.613474,0.12736 1.389582,0.41273 0.776093,0.28519 1.40876,0.77582 0.631559,0.48182 0.859646,1.15731 0.115617,0.27974 0.178861,0.77982 0.186464,1.47425 -0.833476,2.50377 -1.011161,1.02841 -2.346045,1.25964 -1.474285,0.18646 -2.847626,-0.37985 -1.365684,-0.57621 -1.553259,-2.05927 -0.09878,-0.78101 0.241908,-1.89401 0.08288,-0.33138 0.441763,-1.01879 0.367635,-0.68846 0.431878,-1.02644 0.09712,-0.36001 0.04938,-0.73735 -0.07547,-0.59674 -0.451219,-0.95935 -0.37574,-0.3626 -0.981257,-0.28602 -0.737141,0.0933 -1.611539,0.86359 z m 1.679021,-5.75806 q 0.03281,0.68239 -0.160258,0.70679 -0.122858,0.0156 -0.270125,-0.16182 -0.139596,-0.18732 -0.175126,-0.46822 -0.03285,-1.45803 0.815022,-2.36772 0.85664,-0.91077 2.146638,-1.07393 0.623064,-0.0788 1.246432,0.0564 0.28425,0.0621 0.995474,0.25748 0.710126,0.18657 1.08546,0.26394 0.375355,0.0774 0.550862,0.0552 0.386122,-0.0489 0.455811,-0.41428 0.02507,-0.0834 0.130392,-0.0968 0.254486,-0.0321 0.308874,0.39781 -0.27777,0.62356 -0.90083,0.70238 -0.495863,0.0271 -1.389268,-0.19875 -0.894508,-0.23459 -1.396032,-0.32273 -0.501515,-0.0881 -1.326413,0.0163 -0.938979,0.11862 -1.568459,1.06322 -0.630591,0.93569 -0.548459,1.58505 z m 2.776532,15.60825 q 0.895404,0.10079 1.720303,-0.004 1.667345,-0.21089 3.057171,-1.13561 1.398603,-0.92581 2.064787,-2.28502 0.80395,-1.67982 0.57309,-3.50511 -0.3141,-2.48346 -2.276234,-3.54593 -0.152596,-0.0787 -0.168159,-0.20164 -0.01444,-0.11426 0.158769,-0.22508 0.181975,-0.11188 0.304855,-0.1275 2.330119,1.36367 2.650879,3.89976 0.23974,1.89552 -0.61989,3.76958 -0.6461,1.5885 -2.224441,2.64404 -1.569568,1.05448 -3.587933,1.30976 -0.938979,0.11863 -1.712537,0.065 -0.507992,10e-4 -0.554591,-0.36673 -0.02663,-0.21059 0.613978,-0.29162 z m -1.389155,-2.38313 q 0.19773,0.15339 0.221025,0.33756 0.03106,0.24556 -0.188344,0.27331 -0.114081,0.0144 -0.373231,-0.13119 -0.946675,-0.64704 -1.356934,-1.35299 -0.402582,-0.71584 -0.553531,-1.90931 -0.0301,-0.4509 0.107181,-0.98541 0.145128,-0.54437 0.447907,-1.32269 0.302776,-0.77833 0.442563,-1.22398 0.13866,-0.4544 0.09426,-0.80542 -0.05994,-0.47388 0.11559,-0.49609 0.342243,-0.0433 0.568914,0.40952 0.05326,0.42121 -0.114941,0.92395 -0.160579,0.49287 -0.48533,1.23833 -0.324764,0.74541 -0.465553,1.25359 -0.146153,0.60692 -0.05514,1.3265 0.231971,1.83409 1.59554,2.46407 z m 1.161578,-5.47864 q -0.840581,1.39021 -0.691856,2.5661 0.110996,0.87759 0.888296,1.24287 0.611583,0.32391 1.55934,0.20403 0.886326,-0.11214 1.461553,-0.63958 0.582894,-0.53736 0.469685,-1.43245 -0.165967,-0.95978 -1.141885,-1.34454 -0.977024,-0.39357 -2.545133,-0.59643 z"
         style="font-style:normal;font-variant:normal;font-weight:normal;font-stretch:normal;font-size:medium;line-height:1.25;font-family:QuickSilver;-inkscape-font-specification:QuickSilver;letter-spacing:0px;word-spacing:0px;fill:#ffffff;fill-opacity:1;stroke:none;stroke-width:0.90577"
         id="path831" />
    </g>
  </g>
</svg>
