<?xml version="1.0" encoding="UTF-8" standalone="no"?>
<svg
   xmlns:dc="http://purl.org/dc/elements/1.1/"
   xmlns:cc="http://creativecommons.org/ns#"
   xmlns:rdf="http://www.w3.org/1999/02/22-rdf-syntax-ns#"
   xmlns:svg="http://www.w3.org/2000/svg"
   xmlns="http://www.w3.org/2000/svg"
   width="400"
   height="150"
   viewBox="0 0 105.83333 39.687501"
   version="1.1"
   id="svg8">
  <defs
     id="defs2" />
  <metadata
     id="metadata5">
    <rdf:RDF>
      <cc:Work
         rdf:about="">
        <dc:format>image/svg+xml</dc:format>
        <dc:type
           rdf:resource="http://purl.org/dc/dcmitype/StillImage" />
        <dc:title></dc:title>
      </cc:Work>
    </rdf:RDF>
  </metadata>
  <g
     id="layer1"
     transform="translate(0,-257.31248)">
    <path
       style="font-style:normal;font-variant:normal;font-weight:normal;font-stretch:normal;font-size:medium;line-height:1.25;font-family:Endrophenomeua;-inkscape-font-specification:Endrophenomeua;letter-spacing:0px;word-spacing:0px;fill:#ffffff;fill-opacity:1;stroke:none;stroke-width:0.76053309"
       d="m 43.628244,265.23342 c 0,0 0.09543,0.26004 0.09543,0.26004 0,0 -0.55508,-0.03 -0.55508,-0.03 -0.238242,0.028 -0.31246,0.15872 -0.223054,0.39228 0,0 -0.421295,-0.12543 -0.421295,-0.12543 -0.828036,0.12929 -1.214238,0.2597 -1.159979,0.39134 0,0 -0.868325,0.58015 -0.868325,0.58015 0,0 0.215915,0.50017 0.215915,0.50017 0,0 -0.13387,0.0159 -0.13387,0.0159 0,0 -0.07236,-0.16669 -0.07236,-0.16669 0,0 -0.349565,0.0413 -0.349565,0.0413 0,0 0.153496,0.34831 0.153496,0.34831 0,0 -0.187498,0.0222 -0.187498,0.0222 0,0 -0.226994,-0.0688 -0.226994,-0.0688 -0.160704,0.0189 -0.284432,0.16102 -0.369655,0.42616 0,0 0.302576,0.23592 0.302576,0.23592 0,0 -0.18457,0.0219 -0.18457,0.0219 0.10153,0.22181 -0.06805,0.35871 -0.506806,0.4107 0,0 0.278552,0.23801 0.278552,0.23801 0,0 0.127069,0.2719 0.127069,0.2719 0,0 -0.157007,0.0186 -0.157007,0.0186 0,0 -0.127867,-0.27183 -0.127867,-0.27183 0,0 -0.340381,0.0404 -0.340381,0.0404 0,0 0.251928,0.5282 0.251928,0.5282 -0.231422,0.24018 -0.217377,0.75393 0.0424,1.54207 0,0 0.03693,0.0753 0.03693,0.0753 0,0 0.221109,0.0701 0.221109,0.0701 0,0 0.04401,0.0906 0.04401,0.0906 0,0 -0.139173,0.0964 -0.139173,0.0964 0,0 0.04432,0.0904 0.04432,0.0904 0,0 0.212228,0.0544 0.212228,0.0544 0,0 0.113019,-0.0933 0.113019,-0.0933 0,0 0.175547,-0.0209 0.175547,-0.0209 0,0 0.185688,0.0575 0.185688,0.0575 0.06241,0.13077 -0.06341,0.21495 -0.37889,0.25266 0,0 0.194726,0.77449 0.194726,0.77449 0,0 0.964738,1.6085 0.964738,1.6085 0,0 0.764581,1.91994 0.764581,1.91994 0,0 0.464409,0.3109 0.464409,0.3109 0,0 -0.09153,0.10689 -0.09153,0.10689 0,0 0.711598,1.46252 0.711598,1.46252 0,0 0.175189,0.0752 0.175189,0.0752 0,0 -0.1308,0.0159 -0.1308,0.0159 0,0 -0.10906,0.10917 -0.10906,0.10917 0,0 0.35849,0.40345 0.35849,0.40345 0,0 0.418156,0.85941 0.418156,0.85941 0,0 0.331035,0.40669 0.331035,0.40669 0,0 -0.08124,0.10677 -0.08124,0.10677 0,0 0.541035,0.84421 0.541035,0.84421 0,0 0.08987,0.45244 0.08987,0.45244 0,0 0.15808,0.0604 0.15808,0.0604 0,0 0.179378,0.63323 0.179378,0.63323 0,0 1.06801,1.94653 1.06801,1.94653 0,0 0.06211,0.37617 0.06211,0.37617 0,0 0.273346,0.31758 0.273346,0.31758 0,0 0.547304,1.1319 0.547304,1.1319 0,0 0.742976,1.26622 0.742976,1.26622 0,0 0.124842,0.52851 0.124842,0.52851 1.293556,2.67523 3.216551,4.34183 5.675341,5.00902 0,0 0.190917,-0.0255 0.190917,-0.0255 0,0 0.06925,-0.10518 0.06925,-0.10518 0,0 0.601336,0.30376 0.601336,0.30376 0,0 0.568277,-0.0758 0.568277,-0.0758 1.320548,-0.17616 1.932396,-0.44375 1.836099,-0.80315 0,0 0.103915,-0.0139 0.103915,-0.0139 0,0 0.108767,0.0653 0.108767,0.0653 0.11827,-0.0157 0.1564,-0.10583 0.114325,-0.27024 0.69532,-0.0922 1.165484,-1.00393 1.457172,-2.73954 0,0 -0.13024,-0.0785 -0.13024,-0.0785 0,0 0.258358,-0.38341 0.258358,-0.38341 0,0 -0.148067,-0.25106 -0.148067,-0.25106 0,0 0.280281,-0.30654 0.280281,-0.30654 0,0 -0.01695,-0.0939 -0.01695,-0.0939 0,0 -0.181715,-0.34208 -0.181715,-0.34208 0,0 -0.01711,-0.0931 -0.01711,-0.0931 0,0 0.103594,-0.0928 0.103594,-0.0928 0,0 -0.331757,-1.14925 -0.331757,-1.14925 0,0 -0.228586,-1.95772 -0.228586,-1.95772 0,0 -0.287276,-0.1384 -0.287276,-0.1384 0,0 0.206047,-0.31202 0.206047,-0.31202 0,0 -0.04761,-0.26402 -0.04761,-0.26402 0,0 -0.390797,-0.66639 -0.390797,-0.66639 0,0 0.131892,-0.0165 0.131892,-0.0165 0,0 -0.363747,-0.58976 -0.363747,-0.58976 -0.179372,0.0226 -0.251416,0.12157 -0.21686,0.2973 0,0 -0.382317,-0.14276 -0.382317,-0.14276 0,0 -0.268168,0.0336 -0.268168,0.0336 0,0 -0.705623,0.27927 -0.705623,0.27927 0,0 -0.310276,-0.23143 -0.310276,-0.23143 -1.537444,0.19266 -2.09476,0.49064 -1.676489,0.89471 0,0 0.03447,0.39458 0.03447,0.39458 0,0 -0.13128,0.0164 -0.13128,0.0164 0,0 0.478909,1.13404 0.478909,1.13404 0,0 -0.117871,0.21408 -0.117871,0.21408 0,0 0.08884,0.14006 0.08884,0.14006 0,0 -0.0054,0.36713 -0.0054,0.36713 0,0 0.358834,1.2298 0.358834,1.2298 0.09865,0.33807 0.0987,0.64075 0.0026,0.90828 0,0 -0.133463,0.19261 -0.133463,0.19261 0,0 0.144605,0.0771 0.144605,0.0771 -0.111526,0.0144 -0.258796,0.15642 -0.43987,0.42447 0,0 -0.198747,0.0258 -0.198747,0.0258 -0.509853,-0.008 -0.785207,-0.0694 -0.823854,-0.1816 0,0 -0.3749,-0.57427 -0.3749,-0.57427 0,0 0.06971,-0.10477 0.06971,-0.10477 0,0 -0.02648,-0.0764 -0.02648,-0.0764 0,0 -0.286278,-0.15478 -0.286278,-0.15478 0,0 -0.03471,-0.45847 -0.03471,-0.45847 0,0 -0.02671,-0.0764 -0.02671,-0.0764 0,0 -0.121936,0.0155 -0.121936,0.0155 -0.139122,0.0178 -0.177682,0.11317 -0.115552,0.28618 0,0 -0.120322,0.0154 -0.120322,0.0154 0,0 -0.03319,-0.0916 -0.03319,-0.0916 0,0 0.145033,-0.5613 0.145033,-0.5613 0,0 -0.248332,-0.70326 -0.248332,-0.70326 0,0 -0.14014,-0.093 -0.14014,-0.093 0,0 -0.07017,-0.50251 -0.07017,-0.50251 0,0 -0.05551,-0.0808 -0.05551,-0.0808 0,0 0.11735,0.57791 0.11735,0.57791 0,0 -0.318157,-0.20935 -0.318157,-0.20935 0,0 0.13746,-0.45945 0.13746,-0.45945 0,0 -0.351366,-0.50283 -0.351366,-0.50283 0,0 -0.03288,-0.0916 -0.03288,-0.0916 0,0 0.06046,-0.10411 0.06046,-0.10411 0,0 -0.307333,-0.58345 -0.307333,-0.58345 0,0 -0.0356,-0.37835 -0.0356,-0.37835 0,0 -0.343506,0.0431 -0.343506,0.0431 0,0 -0.06132,-0.16779 -0.06132,-0.16779 0,0 0.132653,-0.63866 0.132653,-0.63866 0,0 -0.322192,0.1201 -0.322192,0.1201 0,0 -0.135929,0.0169 -0.135929,0.0169 0,0 0.195967,-0.58273 0.195967,-0.58273 0,0 -0.0274,-0.0763 -0.0274,-0.0763 0,0 -0.170306,-0.0745 -0.170306,-0.0745 0,0 0.17653,-0.19822 0.17653,-0.19822 0,0 -0.09978,-0.99196 -0.09978,-0.99196 0,0 -0.26407,0.0328 -0.26407,0.0328 0,0 0.09812,0.27479 0.09812,0.27479 0,0 -0.12035,0.0149 -0.12035,0.0149 0,0 -0.03297,-0.0916 -0.03297,-0.0916 0,0 -0.452156,-1.68239 -0.452156,-1.68239 0,0 -0.889166,-2.16961 -0.889166,-2.16961 0,0 -0.101795,-0.60969 -0.101795,-0.60969 0,0 -0.265635,-0.4137 -0.265635,-0.4137 0,0 -0.317839,-0.88527 -0.317839,-0.88527 0,0 -0.187357,-0.0568 -0.187357,-0.0568 0,0 0.127082,-0.11103 0.127082,-0.11103 0,0 -0.09316,-0.25947 -0.09316,-0.25947 0,0 -0.199837,-0.0873 -0.199837,-0.0873 0,0 0.161477,-0.0195 0.161477,-0.0195 0,0 -0.471476,-0.83567 -0.471476,-0.83567 0,0 -0.03319,-0.0916 -0.03319,-0.0916 0,0 -0.30792,0.0372 -0.30792,0.0372 0,0 0.06751,0.18298 0.06751,0.18298 0,0 -0.164016,0.0196 -0.164016,0.0196 0,0 -0.03406,-0.0915 -0.03406,-0.0915 0,0 0.06869,-0.27904 0.06869,-0.27904 0,0 0.199655,0.0713 0.199655,0.0713 0,0 0.236132,-0.23547 0.236132,-0.23547 0,0 -0.0274,-0.0764 -0.0274,-0.0764 0,0 -0.370394,-0.13063 -0.370394,-0.13063 0,0 0.216954,-0.2968 0.216954,-0.2968 0,0 -0.09316,-0.25947 -0.09316,-0.25947 0,0 -0.51679,-0.94183 -0.51679,-0.94183 0,0 -0.03319,-0.0916 -0.03319,-0.0916 0,0 0.14418,-0.0969 0.14418,-0.0969 0,0 -0.06646,-0.074 -0.06646,-0.074 0,0 -0.370934,-0.20795 -0.370934,-0.20795 0,0 -0.02786,-0.0763 -0.02786,-0.0763 0,0 0.177296,0.0585 0.177296,0.0585 0.0049,-5.8e-4 0.0085,-0.003 0.01306,-0.004 0,0 -0.0241,-0.0266 -0.0241,-0.0266 0,0 0.02596,0.0256 0.02596,0.0256 0.183525,-0.0369 0.210659,-0.30793 0.08,-0.81817 0,0 -0.02712,-0.0763 -0.02712,-0.0763 0,0 -0.208578,-0.0706 -0.208578,-0.0706 0.216611,-0.13196 0.292105,-0.29022 0.227728,-0.47356 0,0 1.101814,-0.3086 1.101814,-0.3086 0,0 -0.377116,0.0648 -0.377116,0.0648 0,0 0.202798,-0.153 0.202798,-0.153 0,0 -0.332536,0.0396 -0.332536,0.0396 0,0 -0.03101,-0.0917 -0.03101,-0.0917 0,0 0.179788,-0.0215 0.179788,-0.0215 0,0 0.484598,0.13315 0.484598,0.13315 0,0 0.138508,-0.0165 0.138508,-0.0165 0,0 -0.122216,0.021 -0.122216,0.021 0,0 0.345542,0.0957 0.345542,0.0957 0.480031,0.0701 0.774369,0.25832 0.885442,0.56318 0,0 0.02825,0.0921 0.02825,0.0921 0,0 0.05529,0.26374 0.05529,0.26374 0.248444,0.24995 0.389198,0.35987 0.433396,0.34338 0,0 -0.03297,0.29256 -0.03297,0.29256 0,0 0.02793,0.0921 0.02793,0.0921 0,0 0.171569,0.059 0.171569,0.059 0,0 -0.04115,0.3707 -0.04115,0.3707 0,0 0.107354,0.3537 0.107354,0.3537 0,0 0.275441,0.41223 0.275441,0.41223 0,0 -0.117097,0.10958 -0.117097,0.10958 0,0 0.223201,0.24353 0.223201,0.24353 0,0 -0.009,0.46235 -0.009,0.46235 0,0 0.527517,0.20678 0.527517,0.20678 0,0 0.02712,0.0921 0.02712,0.0921 0,0 -0.305765,0.0369 -0.305765,0.0369 0,0 0.180159,0.5994 0.180159,0.5994 0,0 0.189417,0.0726 0.189417,0.0726 0,0 -0.138669,0.0962 -0.138669,0.0962 0,0 0.05998,0.19955 0.05998,0.19955 0,0 0.53757,0.2053 0.53757,0.2053 0,0 2.845695,-0.34488 2.845695,-0.34488 0,0 -0.04279,-0.18546 -0.04279,-0.18546 0,0 -0.299328,0.0363 -0.299328,0.0363 0,0 -0.01831,-0.0772 -0.01831,-0.0772 0,0 0.161814,-0.0196 0.161814,-0.0196 0,0 1.110582,0.21489 1.110582,0.21489 0,0 0.285419,-0.20926 0.285419,-0.20926 0,0 -0.35761,-0.13129 -0.35761,-0.13129 0,0 0.386359,-0.42785 0.386359,-0.42785 0,0 0.162035,-0.0195 0.162035,-0.0195 0.09565,0.24251 0.266667,0.34874 0.512831,0.31893 0,0 0.138977,-0.0168 0.138977,-0.0168 0,0 -0.227376,-0.44868 -0.227376,-0.44868 0,0 -0.08265,-0.43523 -0.08265,-0.43523 0,0 0.127001,-0.0947 0.127001,-0.0947 0,0 -0.141742,0.0171 -0.141742,0.0171 0,0 -0.183019,-0.0732 -0.183019,-0.0732 0,0 0.257997,-0.30094 0.257997,-0.30094 0,0 -0.214806,-1.14854 -0.214806,-1.14854 0,0 -0.266806,-0.61863 -0.266806,-0.61863 0,0 0.133279,-0.0953 0.133279,-0.0953 0,0 -0.353468,-0.13303 -0.353468,-0.13303 0,0 -0.01798,-0.093 -0.01798,-0.093 0,0 0.155523,-0.11384 0.155523,-0.11384 0,0 -0.05009,-0.26376 -0.05009,-0.26376 0,0 -0.185422,-0.7078 -0.185422,-0.7078 0,0 0.152314,-0.28792 0.152314,-0.28792 0,0 -0.01451,-0.0776 -0.01451,-0.0776 0,0 -0.366569,-0.14673 -0.366569,-0.14673 0,0 -0.01497,-0.0776 -0.01497,-0.0776 0,0 0.157943,-0.13063 0.157943,-0.13063 0,0 -0.03242,-0.17068 -0.03242,-0.17068 0,0 -0.539562,-0.20559 -0.539562,-0.20559 0,0 -0.01851,-0.093 -0.01851,-0.093 0,0 0.114539,-0.0929 0.114539,-0.0929 0,0 -0.684833,-1.0137 -0.684833,-1.0137 0,0 -0.506631,0.15524 -0.506631,0.15524 0,0 -0.540137,-0.12648 -0.540137,-0.12648 0,0 0.140569,-0.096 0.140569,-0.096 0,0 -0.02051,-0.0928 -0.02051,-0.0928 0,0 -0.175463,-0.0586 -0.175463,-0.0586 0,0 0.730693,-0.006 0.730693,-0.006 0,0 -0.587242,-0.20112 -0.587242,-0.20112 0,0 -0.01706,-0.0773 -0.01706,-0.0773 0,0 -0.0332,0.0197 -0.0332,0.0197 -0.167364,-0.51596 -0.940431,-0.7909 -2.339555,-0.81924 0,0 0.285937,-0.30371 0.285937,-0.30371 0,0 -0.59027,-0.21633 -0.59027,-0.21633 0,0 -0.355429,0.0418 -0.355429,0.0418 0,0 0.05363,0.20017 0.05363,0.20017 0,0 0.21155,0.0545 0.21155,0.0545 0,0 -0.381841,0.045 -0.381841,0.045 0,0 -0.400719,-0.12755 -0.400719,-0.12755 0,0 -0.242168,-0.16215 -0.242168,-0.16215 0,0 -0.02594,-0.0922 -0.02594,-0.0922 0,0 -0.1599,-0.0607 -0.1599,-0.0607 0,0 -2.234168,0.0562 -2.234168,0.0562 0,0 -0.330894,0.0389 -0.330894,0.0389 0,0 -0.494653,0.23312 -0.494653,0.23312 0,0 -0.581049,-0.1065 -0.581049,-0.1065 0,0 -0.298778,0.21013 -0.298778,0.21013 0,0 -0.610887,-0.10318 -0.610887,-0.10318 0,0 -0.193318,0.0228 -0.193318,0.0228 0,0 0,0 0,0 m 3.677347,3.97859 c 0,0 -0.01628,-0.004 -0.01628,-0.004 0,0 -0.04067,0.005 -0.04067,0.005 0,0 -0.08587,0.0237 -0.08587,0.0237 0,0 0.142818,-0.0241 0.142818,-0.0241 0,0 0,0 0,0 m -1.316673,1.77145 c -7.61e-4,1.5e-4 -0.0011,8.5e-4 -0.0018,10e-4 0,0 0.208467,0.22977 0.208467,0.22977 0,0 0.05002,0.0282 0.05002,0.0282 0,0 -0.256631,-0.25901 -0.256631,-0.25901 0,0 0,0 0,0 m 5.251214,13.69423 c 0,0 0.06335,0.0909 0.06335,0.0909 0,0 -0.03615,-0.1789 -0.03615,-0.1789 0,0 -0.0272,0.088 -0.0272,0.088 0,0 0,0 0,0 m 2.509386,0.0677 c 0,0 -0.118271,-0.18413 -0.118271,-0.18413 0,0 0.0762,0.26117 0.0762,0.26117 0,0 0.04206,-0.0771 0.04206,-0.0771 0,0 0,0 0,0 m -0.118272,-0.18413 c 0,0 0.08282,-0.1061 0.08282,-0.1061 0,0 -0.136624,-0.0782 -0.136624,-0.0782 0,0 0.0538,0.18435 0.0538,0.18435 0,0 0,0 0,0 M 27.587374,267.2165 c 0,0 -0.07062,0.0723 -0.07062,0.0723 0,0 -0.935649,0.11011 -0.935649,0.11011 0,0 -2.871011,0.40192 -2.871011,0.40192 0,0 -0.153592,-0.0459 -0.153592,-0.0459 0,0 0.08846,0.5978 0.08846,0.5978 0,0 0.04405,0.059 0.04405,0.059 0,0 0.152722,0.046 0.152722,0.046 0,0 1.451886,3.0319 1.451886,3.0319 0,0 0.281486,0.2229 0.281486,0.2229 0,0 0.341373,1.098 0.341373,1.098 0,0 0.100303,-0.012 0.100303,-0.012 0,0 0.03525,0.18815 0.03525,0.18815 0.977385,1.63658 1.556406,2.70616 1.72726,3.20992 0,0 0.09376,-0.0107 0.09376,-0.0107 0,0 0.481617,0.87277 0.481617,0.87277 0,0 0.138092,0.0475 0.138092,0.0475 0,0 -0.09194,0.0107 -0.09194,0.0107 1.573586,2.60422 2.83891,4.78692 3.784251,6.54823 0,0 0.234802,0.18009 0.234802,0.18009 0,0 1.943081,3.1098 1.943081,3.1098 0,0 0.04872,0.0584 0.04872,0.0584 0,0 0.12131,0.0493 0.12131,0.0493 0,0 0.186292,0.50897 0.186292,0.50897 0,0 0.07162,-0.009 0.07162,-0.009 0,0 4.214082,6.12106 4.214082,6.12106 0,0 0.294358,0.0916 0.294358,0.0916 0,0 0.11875,-0.0158 0.11875,-0.0158 0,0 0.0091,-0.0668 0.0091,-0.0668 0,0 0.05034,0.059 0.05034,0.059 0,0 0.07406,-0.009 0.07406,-0.009 0,0 0.0094,-0.067 0.0094,-0.067 0,0 0.05948,-0.008 0.05948,-0.008 0,0 0.10934,0.0512 0.10934,0.0512 0,0 0.02437,-0.0689 0.02437,-0.0689 0,0 0.356968,-0.0473 0.356968,-0.0473 0,0 0.316507,0.0236 0.316507,0.0236 0,0 0.204229,-0.0927 0.204229,-0.0927 0,0 1.234036,-0.16379 1.234036,-0.16379 0,0 0.104887,0.0516 0.104887,0.0516 0,0 0.312303,-0.17165 0.312303,-0.17165 0.09934,-0.0133 -0.526719,-1.18041 -1.841788,-3.50571 -0.385274,-0.53081 -0.419181,-0.81642 -0.102163,-0.8572 0,0 0.06795,-0.009 0.06795,-0.009 0,0 0.120123,0.065 0.120123,0.065 0,0 0.0678,-0.009 0.0678,-0.009 0,0 0.01589,-0.0826 0.01589,-0.0826 0,0 0.0519,0.0739 0.0519,0.0739 0,0 0.338223,-0.1241 0.338223,-0.1241 0,0 0.324381,0.0154 0.324381,0.0154 0,0 0.01462,0.0215 0.01462,0.0215 0,0 0.03541,-0.019 0.03541,-0.019 0,0 0.08342,0.004 0.08342,0.004 0,0 -0.05522,-0.0194 -0.05522,-0.0194 0,0 0.288352,-0.15541 0.288352,-0.15541 0,0 0.396108,0.0135 0.396108,0.0135 0,0 -0.01908,0.0829 -0.01908,0.0829 0,0 0.726514,0.77531 0.726514,0.77531 0,0 0.03923,0.0601 0.03923,0.0601 0,0 -0.02723,0.068 -0.02723,0.068 0,0 1.373869,1.6568 1.373869,1.6568 0,0 -0.01456,0.0825 -0.01456,0.0825 0.769154,0.98407 1.211428,1.4956 1.332291,1.53331 0,0 0.275249,-0.10109 0.275249,-0.10109 0,0 0.372038,-0.0494 0.372038,-0.0494 0,0 0.110673,0.0498 0.110673,0.0498 0,0 0.02,-0.059 0.02,-0.059 0,0 0.900911,-0.0632 0.900911,-0.0632 0,0 0.55702,-0.20262 0.55702,-0.20262 0,0 0.05968,-0.008 0.05968,-0.008 0,0 0.108168,0.05 0.108168,0.05 0,0 0.05956,-0.008 0.05956,-0.008 0,0 0.02668,-0.0679 0.02668,-0.0679 0,0 0.09243,0.052 0.09243,0.052 0,0 0.178654,-0.0237 0.178654,-0.0237 0,0 0.04203,-0.0698 0.04203,-0.0698 0,0 0.03226,0.06 0.03226,0.06 0.197096,-0.069 0.318555,-0.18149 0.365166,-0.33765 0,0 -0.600454,-0.86923 -0.600454,-0.86923 0,0 -0.03152,-0.0601 -0.03152,-0.0601 0,0 0.04584,-0.0702 0.04584,-0.0702 0,0 -0.07737,0.0107 -0.07737,0.0107 -3.10662,-4.71291 -4.973717,-7.3681 -5.489982,-7.97651 0,0 -0.03337,-0.0599 -0.03337,-0.0599 0,0 0.04465,-0.0697 0.04465,-0.0697 0,0 -0.18645,-0.18496 -0.18645,-0.18496 0,0 -4.023725,-5.42884 -4.023725,-5.42884 0,0 -0.0487,-0.25006 -0.0487,-0.25006 0,0 -0.124229,-0.049 -0.124229,-0.049 -0.729367,-0.9781 -1.176764,-1.50557 -1.337637,-1.58218 0,0 -0.03509,-0.0598 -0.03509,-0.0598 0,0 0.05809,-0.071 0.05809,-0.071 0,0 -0.850364,-0.88894 -0.850364,-0.88894 0,0 0.08327,-0.074 0.08327,-0.074 0,0 -0.044,-0.0747 -0.044,-0.0747 0,0 -0.154575,-0.0462 -0.154575,-0.0462 0,0 0.118938,-0.0143 0.118938,-0.0143 0,0 -4.060467,-4.88683 -4.060467,-4.88683 0,0 -0.0128,-0.20621 -0.0128,-0.20621 0,0 -0.32055,-0.10583 -0.32055,-0.10583 0,0 -0.07358,-0.11996 -0.07358,-0.11996 -0.298706,-0.48676 -0.571483,-0.80586 -0.819229,-0.95773 0,0 0.10794,-0.0133 0.10794,-0.0133 -0.62273,-0.72558 -1.045449,-1.07497 -1.265659,-1.04905 0,0 -0.137357,0.0161 -0.137357,0.0161 0,0 -0.07257,0.0726 -0.07257,0.0726 0,0 -0.03756,-0.0595 -0.03756,-0.0595 0,0 -0.512476,0.12423 -0.512476,0.12423 0,0 -0.247219,0.029 -0.247219,0.029 0,0 -0.616256,0.008 -0.616256,0.008 0,0 -0.0982,0.0754 -0.0982,0.0754 0,0 -0.110006,0.0133 -0.110006,0.0133 0,0 -0.149396,-0.0464 -0.149396,-0.0464 0,0 0,0 0,0 m 71.166113,-8.24925 c 0,0 -0.309118,0.19291 -0.309118,0.19291 0,0 -0.802111,0.15709 -0.802111,0.15709 0,0 0.06984,-0.13348 0.06984,-0.13348 0,0 -0.21943,0.0259 -0.21943,0.0259 0,0 -0.06938,0.13343 -0.06938,0.13343 0,0 -0.554938,-0.1225 -0.554938,-0.1225 0,0 -0.615133,0.19616 -0.615133,0.19616 0,0 -0.109607,0.0133 -0.109607,0.0133 0,0 -0.07644,-0.0536 -0.07644,-0.0536 0,0 -0.393622,0.17167 -0.393622,0.17167 -1.615966,0.50384 -2.492943,0.87879 -2.640699,1.12615 0,0 -0.107968,0.0133 -0.107968,0.0133 0,0 -0.07775,-0.0536 -0.07775,-0.0536 0,0 -0.108086,0.0133 -0.108086,0.0133 0,0 -1.078588,0.81717 -1.078588,0.81717 0,0 0.07742,0.0536 0.07742,0.0536 0,0 -0.05877,0.13236 -0.05877,0.13236 0,0 -0.261295,-0.0944 -0.261295,-0.0944 -0.387772,0.46408 -0.69378,0.70926 -0.922384,0.73635 -0.113391,0.26437 -0.239947,0.40476 -0.379688,0.42131 -0.606465,0.88751 -1.04078,1.37876 -1.307228,1.47328 0,0 0.07497,0.0539 0.07497,0.0539 0,0 -0.129548,0.0781 -0.129548,0.0781 0,0 -0.0075,0.25177 -0.0075,0.25177 0,0 -0.257706,0.15617 -0.257706,0.15617 0,0 -0.0078,0.25179 -0.0078,0.25179 0,0 -0.41532,1.11651 -0.41532,1.11651 0,0 -0.470706,1.24773 -0.470706,1.24773 0,0 -0.247918,0.15517 -0.247918,0.15517 0,0 -0.02752,0.0667 -0.02752,0.0667 0,0 0.06914,0.0544 0.06914,0.0544 0,0 -0.09632,0.0121 -0.09632,0.0121 0,0 0.06904,0.0544 0.06904,0.0544 0,0 -0.34077,0.60521 -0.34077,0.60521 0,0 -0.06859,0.38438 -0.06859,0.38438 0,0 -0.311846,0.53908 -0.311846,0.53908 0,0 -0.08152,0.19789 -0.08152,0.19789 0,0 0.06589,0.0548 0.06589,0.0548 0,0 -0.267289,0.22034 -0.267289,0.22034 0,0 0.06554,0.0548 0.06554,0.0548 0,0 0.09366,0.302 0.09366,0.302 0,0 -0.119363,0.0772 -0.119363,0.0772 0,0 0.183783,-0.0223 0.183783,-0.0223 0,0 -0.02758,0.066 -0.02758,0.066 0,0 -0.80096,0.78726 -0.80096,0.78726 0,0 -0.145105,0.76956 -0.145105,0.76956 0,0 -0.170271,0.2087 -0.170271,0.2087 0,0 0.06156,0.0552 0.06156,0.0552 0,0 -0.02718,0.066 -0.02718,0.066 0,0 -0.115577,0.0768 -0.115577,0.0768 0,0 -0.09611,0.63815 -0.09611,0.63815 0,0 -0.499496,0.81357 -0.499496,0.81357 0,0 0.0042,0.18734 0.0042,0.18734 0,0 -0.193717,0.27432 -0.193717,0.27432 0,0 -0.02706,0.0659 -0.02706,0.0659 0,0 0.05773,0.0556 0.05773,0.0556 0,0 -0.08479,0.0107 -0.08479,0.0107 0,0 -0.214133,0.71515 -0.214133,0.71515 0,0 -0.220887,0.15249 -0.220887,0.15249 0,0 0.0021,0.18757 0.0021,0.18757 0,0 -0.02739,0.0668 -0.02739,0.0668 0,0 -0.109739,0.0761 -0.109739,0.0761 0,0 -0.02694,0.0659 -0.02694,0.0659 0,0 0.05551,0.0557 0.05551,0.0557 0,0 -0.163273,0.20801 -0.163273,0.20801 0,0 -0.02694,0.0659 -0.02694,0.0659 0,0 0.05493,0.0558 0.05493,0.0558 0,0 -0.122724,0.57857 -0.122724,0.57857 0,0 -0.490515,1.18823 -0.490515,1.18823 0,0 0.05136,0.0561 0.05136,0.0561 -0.06549,0.008 -0.199391,0.2125 -0.40125,0.61322 0,0 0.07756,-0.009 0.07756,-0.009 0,0 0.05021,0.0562 0.05021,0.0562 0,0 -0.20911,0.1513 -0.20911,0.1513 0,0 -0.0045,0.18824 -0.0045,0.18824 0,0 -0.185319,0.27345 -0.185319,0.27345 0,0 -0.08701,0.38622 -0.08701,0.38622 0,0 -0.05447,0.13196 -0.05447,0.13196 0,0 -0.102916,0.0763 -0.102916,0.0763 0,0 0.150684,-0.0189 0.150684,-0.0189 0,0 -0.313376,0.41468 -0.313376,0.41468 0,0 0.07465,-0.009 0.07465,-0.009 0,0 -0.473272,0.81015 -0.473272,0.81015 0,0 0.0103,0.31131 0.0103,0.31131 0,0 -0.235354,0.40494 -0.235354,0.40494 0,0 -0.759574,1.84759 -0.759574,1.84759 0,0 -0.203693,0.33854 -0.203693,0.33854 0,0 0.041,0.0571 0.041,0.0571 0,0 -0.02712,0.0659 -0.02712,0.0659 0,0 -0.09488,0.0747 -0.09488,0.0747 -0.751951,1.58615 -0.960702,2.92501 -0.674359,4.02031 0,0 0.213533,0.65682 0.213533,0.65682 0.448228,0.14781 0.653955,0.2551 0.622252,0.32161 0,0 0.09016,-0.0743 0.09016,-0.0743 0.182296,0.0379 0.524142,0.0439 1.025989,0.0185 0,0 0.09294,-0.0745 0.09294,-0.0745 0,0 0.198121,0.0358 0.198121,0.0358 0,0 0.232854,-0.031 0.232854,-0.031 0.308978,0.0622 0.487066,0.0489 0.535266,-0.0404 1.436835,-0.0885 3.024407,-0.69203 4.820976,-1.81704 0.267759,-0.28273 0.479044,-0.43497 0.631692,-0.4551 0,0 0.08963,-0.13545 0.08963,-0.13545 1.227865,-1.24348 2.363258,-2.61832 3.38416,-4.12269 0,0 0.552522,-0.81419 0.552522,-0.81419 0,0 0.300433,-0.3482 0.300433,-0.3482 0,0 -0.02417,-0.0589 -0.02417,-0.0589 0,0 0.208813,-0.21256 0.208813,-0.21256 0,0 -0.02463,-0.0588 -0.02463,-0.0588 0,0 0.573147,-0.50762 0.573147,-0.50762 0,0 0.164125,-0.57881 0.164125,-0.57881 0,0 0.230217,-0.33925 0.230217,-0.33925 0,0 0.350205,-0.41642 0.350205,-0.41642 0,0 3.265362,-4.91138 3.265362,-4.91138 0,0 0.663117,-0.92108 0.663117,-0.92108 0,0 0.165667,-0.3002 0.165667,-0.3002 0,0 -0.09788,-0.004 -0.09788,-0.004 0,0 0.05842,-0.053 0.05842,-0.053 0,0 1.070451,-1.63976 1.070451,-1.63976 0,0 -0.0086,-0.0768 -0.0086,-0.0768 0,0 -0.496498,0.23183 -0.496498,0.23183 0,0 -1.396775,0.0775 -1.396775,0.0775 0,0 -3.849669,0.54866 -3.849669,0.54866 0,0 -0.558906,0.27117 -0.558906,0.27117 0,0 -0.559176,0.0217 -0.559176,0.0217 0,0 -0.217021,0.0265 -0.217021,0.0265 0,0 -0.148747,-0.13787 -0.148747,-0.13787 0,0 -0.06569,0.008 -0.06569,0.008 0,0 -0.110833,0.0916 -0.110833,0.0916 0,0 -0.04514,0.0835 -0.04514,0.0835 0,0 0.0112,0.0922 0.0112,0.0922 0,0 -0.04526,0.0835 -0.04526,0.0835 0,0 -0.216216,0.0266 -0.216216,0.0266 0,0 -0.439897,0.81874 -0.439897,0.81874 0,0 0.148495,-0.0182 0.148495,-0.0182 0,0 -1.516557,2.66836 -1.516557,2.66836 0.08071,0.13035 0.100507,0.26817 0.06518,0.41286 0,0 1.068669,-0.13289 1.068669,-0.13289 0,0 0.104514,-0.18436 0.104514,-0.18436 0,0 0.08015,-0.009 0.08015,-0.009 0,0 -0.162019,0.28499 -0.162019,0.28499 0,0 0.159307,-0.0199 0.159307,-0.0199 0,0 0.288042,0.042 0.288042,0.042 0,0 -1.856606,3.29973 -1.856606,3.29973 0,0 -0.190231,0.21071 -0.190231,0.21071 0,0 -0.08233,0.25927 -0.08233,0.25927 0,0 -0.170006,0.17704 -0.170006,0.17704 0,0 -0.271749,0.46988 -0.271749,0.46988 0,0 -0.110552,0.0763 -0.110552,0.0763 0,0 0.07174,-0.009 0.07174,-0.009 0,0 -0.246385,0.31196 -0.246385,0.31196 0,0 -0.0774,0.13425 -0.0774,0.13425 0,0 0.03216,0.0581 0.03216,0.0581 0,0 -0.109553,0.0762 -0.109553,0.0762 0,0 -0.07742,0.13423 -0.07742,0.13423 0,0 -0.201241,0.46088 -0.201241,0.46088 0,0 -0.06968,0.009 -0.06968,0.009 0,0 -0.0311,-0.0583 -0.0311,-0.0583 0,0 -0.115765,0.20131 -0.115765,0.20131 0,0 0.03075,0.0582 0.03075,0.0582 0,0 -0.06934,0.009 -0.06934,0.009 -0.231592,0.40273 -0.522025,0.80832 -0.869877,1.21571 -0.334261,0.40568 -0.759875,0.64185 -1.278772,0.70899 -0.288055,0.058 -0.463717,-0.0177 -0.527929,-0.22716 -0.06653,-0.20925 0.190169,-0.85996 0.772058,-1.95175 0,0 0.06984,-0.13346 0.06984,-0.13346 0,0 0.43838,-0.70986 0.43838,-0.70986 0,0 0.191607,-0.44407 0.191607,-0.44407 0,0 -0.210958,0.35309 -0.210958,0.35309 0,0 0.209515,-0.40042 0.209515,-0.40042 0,0 0.06481,-0.10017 0.06481,-0.10017 0,0 0.05741,-0.13345 0.05741,-0.13345 0,0 0.186161,-0.24168 0.186161,-0.24168 0,0 0.0445,-0.068 0.0445,-0.068 0,0 0.02049,-0.502 0.02049,-0.502 0,0 0.190456,-0.36687 0.190456,-0.36687 0,0 0.387815,-0.60994 0.387815,-0.60994 0,0 0.09698,-0.32397 0.09698,-0.32397 0,0 0.215719,-0.27651 0.215719,-0.27651 0,0 0.02668,-0.19044 0.02668,-0.19044 0,0 0.355515,-0.54347 0.355515,-0.54347 0,0 0.02541,-0.19031 0.02541,-0.19031 0,0 0.252562,-0.34343 0.252562,-0.34343 0,0 0.0249,-0.19107 0.0249,-0.19107 0,0 0.07978,-0.009 0.07978,-0.009 0,0 -0.04514,-0.0567 -0.04514,-0.0567 0,0 0.184123,-0.2101 0.184123,-0.2101 0,0 0.05828,-0.25684 0.05828,-0.25684 0,0 0.567133,-0.94409 0.567133,-0.94409 0,0 0.275463,-0.15889 0.275463,-0.15889 0,0 -0.323167,0.10241 -0.323167,0.10241 0,0 -0.08246,0.0107 -0.08246,0.0107 0,0 0.323051,-0.1024 0.323051,-0.1024 0,0 0.02185,-0.18997 0.02185,-0.18997 0,0 0.691366,-1.02169 0.691366,-1.02169 0,0 0.299885,-0.72452 0.299885,-0.72452 0,0 0.17189,-0.0211 0.17189,-0.0211 0,0 0.0027,-0.3126 0.0027,-0.3126 0.06985,-0.13351 0.162697,-0.2073 0.278512,-0.22146 0,0 0.333549,-0.79036 0.333549,-0.79036 0,0 0.315322,-0.60073 0.315322,-0.60073 0,0 -0.05441,-0.0558 -0.05441,-0.0558 0,0 0.124909,-0.0785 0.124909,-0.0785 0,0 0.210213,-0.40048 0.210213,-0.40048 0,0 0.336322,-0.47829 0.336322,-0.47829 0,0 -0.05603,-0.0557 -0.05603,-0.0557 0,0 0.3021,-0.41163 0.3021,-0.41163 0,0 0.07031,-0.13352 0.07031,-0.13352 0,0 -0.09212,0.0107 -0.09212,0.0107 0,0 -0.127041,0.0779 -0.127041,0.0779 0,0 0.03493,-0.0667 0.03493,-0.0667 0,0 0.289698,-0.2226 0.289698,-0.2226 0,0 0.03515,-0.0668 0.03515,-0.0668 0,0 -0.05756,-0.0556 -0.05756,-0.0556 0,0 0.362191,-0.35713 0.362191,-0.35713 0,0 0.03526,-0.0668 0.03526,-0.0668 0,0 -0.05824,-0.0554 -0.05824,-0.0554 0,0 0.199325,-0.2116 0.199325,-0.2116 0,0 0.36675,-0.975 0.36675,-0.975 0,0 0.391526,-0.46058 0.391526,-0.46058 0,0 0.03526,-0.0667 0.03526,-0.0667 0,0 0.02709,-0.15648 0.02709,-0.15648 0,0 0.166884,-0.21076 0.166884,-0.21076 0,0 -0.05535,0.006 -0.05535,0.006 0,0 0.347548,-0.38646 0.347548,-0.38646 0,0 -0.09777,0.012 -0.09777,0.012 0.137785,-0.46487 0.498349,-1.06029 1.086454,-1.78755 0.455625,-0.26293 0.708441,-0.43895 0.756487,-0.52809 0,0 0.06553,0.0548 0.06553,0.0548 0,0 0.885534,-0.23059 0.885534,-0.23059 0,0 0.407175,-0.0485 0.407175,-0.0485 -0.02872,0.1077 -0.0044,0.21932 0.07198,0.33531 0.09243,0.11409 0.07394,0.40809 -0.05706,0.88186 0,0 -0.230482,0.40252 -0.230482,0.40252 0,0 -0.144892,0.20481 -0.144892,0.20481 0,0 0.07835,-0.009 0.07835,-0.009 0,0 -0.03846,0.067 -0.03846,0.067 0,0 -0.251775,0.2801 -0.251775,0.2801 -0.22784,0.19069 -0.308361,0.31037 -0.253309,0.36466 0,0 -0.0062,0.0106 -0.0062,0.0106 0,0 -0.135428,0.0788 -0.135428,0.0788 0,0 -0.530696,1.21947 -0.530696,1.21947 0,0 -0.175651,0.0213 -0.175651,0.0213 0,0 0.05667,0.0556 0.05667,0.0556 0,0 -0.247584,0.27967 -0.247584,0.27967 0,0 -0.04169,0.37974 -0.04169,0.37974 0,0 -0.07731,0.13502 -0.07731,0.13502 0,0 -0.284946,0.34666 -0.284946,0.34666 0,0 0.131293,-0.0784 0.131293,-0.0784 0,0 0.093,-0.0106 0.093,-0.0106 0,0 -0.131413,0.0784 -0.131413,0.0784 0,0 0.05434,0.0558 0.05434,0.0558 0,0 -0.03852,0.067 -0.03852,0.067 0,0 -0.131053,0.0783 -0.131053,0.0783 0,0 -0.03841,0.067 -0.03841,0.067 0,0 0.468714,0.005 0.468714,0.005 0,0 -0.09907,-0.0504 -0.09907,-0.0504 0,0 0.09241,-0.0107 0.09241,-0.0107 0,0 3.883082,-0.40777 3.883082,-0.40777 0,0 0.13636,-0.0788 0.13636,-0.0788 0,0 0.325117,0.023 0.325117,0.023 0,0 0.1846,-0.0224 0.1846,-0.0224 0.61521,-0.0745 1.15147,-0.45064 1.61085,-1.1292 0,0 -0.0482,-0.0565 -0.0482,-0.0565 0,0 1.46647,-2.17125 1.46647,-2.17125 0,0 -0.0522,-0.0561 -0.0522,-0.0561 0,0 0.14381,-0.0795 0.14381,-0.0795 0,0 0.0916,-0.13566 0.0916,-0.13566 0,0 -0.19672,0.0236 -0.19672,0.0236 0,0 0.33415,-0.22705 0.33415,-0.22705 0,0 0.61899,-0.91649 0.61899,-0.91649 0.67204,-0.99503 0.87064,-1.47584 0.59644,-1.44323 0,0 0.1483,-0.0799 0.1483,-0.0799 0,0 0.21444,-0.4622 0.21444,-0.4622 0,0 0.27263,-0.40753 0.27263,-0.40753 -0.20891,0.0248 -0.28239,-0.008 -0.22231,-0.0983 0.21215,-0.44134 0.22054,-0.65029 0.0265,-0.62731 0,0 -0.10588,0.012 -0.10588,0.012 0,0 0.23946,-0.21561 0.23946,-0.21561 -0.10027,-0.19632 -0.24018,-0.28376 -0.41816,-0.26272 0,0 -0.10681,0.012 -0.10681,0.012 0,0 0.23829,-0.21551 0.23829,-0.21551 0,0 0.0437,-0.0676 0.0437,-0.0676 0,0 -0.10727,0.0133 -0.10727,0.0133 0,0 -0.15087,0.0802 -0.15087,0.0802 0,0 -0.10716,0.0133 -0.10716,0.0133 0.087,-0.13522 0.0588,-0.19431 -0.0845,-0.17739 0.083,-0.25973 0.0611,-0.382 -0.0651,-0.3671 0,0 -0.1082,0.0133 -0.1082,0.0133 0,0 -0.15087,0.0802 -0.15087,0.0802 -0.10653,-0.36238 -0.3661,-0.54 -0.77509,-0.53353 0,0 -0.15052,0.0802 -0.15052,0.0802 0,0 -1.67848,-0.0837 -1.67848,-0.0837 0,0 -0.14883,0.0801 -0.14883,0.0801 0,0 -0.10954,0.0133 -0.10954,0.0133 0,0 -0.0706,-0.0543 -0.0706,-0.0543 0,0 -0.10966,0.0133 -0.10966,0.0133 0,0 -0.14836,0.0799 -0.14836,0.0799 0,0 0.11611,-0.20134 0.11611,-0.20134 0,0 -0.21978,0.0259 -0.21978,0.0259 -0.10261,0.17894 -0.86478,0.35208 -2.287082,0.51961 0.09656,-0.17834 0.07152,-0.25882 -0.07497,-0.24159 0,0 0,0 0,0 m -1.486989,6.30716 c 0,0 -0.02012,0.003 -0.02012,0.003 0,0 -0.07671,0.13416 -0.07671,0.13416 0,0 0.09683,-0.13656 0.09683,-0.13656 0,0 0,0 0,0 m -10.370834,14.69545 c 0,0 -0.24357,0.37512 -0.24357,0.37512 0,0 -0.06337,0.14745 -0.06337,0.14745 0,0 0.333926,-0.55715 0.333926,-0.55715 0,0 -0.02699,0.0346 -0.02699,0.0346 0,0 0,0 0,0 m 2.143324,0.1325 c 0,0 0.232926,-0.40276 0.232926,-0.40276 0,0 -0.402348,0.57975 -0.402348,0.57975 0,0 0.169422,-0.17699 0.169422,-0.17699 0,0 0,0 0,0 m 0.760513,-3.92668 c 0,0 -0.108154,0.0135 -0.108154,0.0135 0,0 0.101018,0.0201 0.101018,0.0201 0.0035,-0.012 0.0044,-0.0223 0.0072,-0.0336 0,0 0,0 0,0 m -0.0072,0.0336 c -0.01466,0.0481 -0.0344,0.0967 -0.06147,0.14638 0,0 0.814745,-0.1015 0.814745,-0.1015 0,0 0.0471,-0.0838 0.0471,-0.0838 0,0 -0.617529,0.077 -0.617529,0.077 0,0 -0.182854,-0.038 -0.182854,-0.038 0,0 0,0 0,0 M 6.309812,269.9777 c 0,0 -1.0793496,0.25583 -1.0793496,0.25583 0,0 -0.1729831,-0.0439 -0.1729831,-0.0439 0,0 -1.3144877,0.15481 -1.3144877,0.15481 0,0 0.1299135,0.11344 0.1299135,0.11344 0,0 0.1749584,0.0446 0.1749584,0.0446 -0.1455642,0.0172 -0.2842383,-0.0317 -0.4144128,-0.14519 0,0 -0.043541,0.0703 -0.043541,0.0703 0,0 -0.1094225,0.0133 -0.1094225,0.0133 0,0 -0.1756633,-0.0445 -0.1756633,-0.0445 0,0 -0.5477031,0.0645 -0.5477031,0.0645 0,0 -0.5897059,0.13468 -0.5897059,0.13468 0,0 -0.6140652,0.006 -0.6140652,0.006 0.1345997,0.11303 0.1298763,0.17883 -0.015682,0.19598 -0.1125281,-0.094 -0.3634226,-0.12982 -0.75110857,-0.10569 0,0 -0.16303791,0.27784 -0.16303791,0.27784 0,0 0.13713376,0.11276 0.13713376,0.11276 0,0 0.17729065,0.0435 0.17729065,0.0435 0,0 -0.0230156,0.0833 -0.0230156,0.0833 0,0 0.13713377,0.11277 0.13713377,0.11277 0,0 0.2166902,-0.0257 0.2166902,-0.0257 0,0 0.068333,0.0563 0.068333,0.0563 0,0 -0.2164574,0.0256 -0.2164574,0.0256 0,0 0.5360438,0.33973 0.5360438,0.33973 0,0 0.2353339,0.29463 0.2353339,0.29463 0,0 0.3675873,0.10171 0.3675873,0.10171 0,0 -0.1066554,0.0121 -0.1066554,0.0121 0,0 0.099044,0.18176 0.099044,0.18176 0,0 0.1747569,0.0438 0.1747569,0.0438 0,0 0.1003673,0.18245 0.1003673,0.18245 0,0 0.739005,0.50916 0.739005,0.50916 0,0 0.1369008,0.11276 0.1369008,0.11276 0,0 -0.035962,0.0688 -0.035962,0.0688 0.08699,-0.0107 0.2990328,0.0989 0.635911,0.32779 0,0 0.0669,0.25018 0.0669,0.25018 0,0 0.3941325,0.22743 0.3941325,0.22743 0,0 0.1369006,0.11276 0.1369006,0.11276 0,0 0.1726346,0.23845 0.1726346,0.23845 0,0 0.068566,0.0563 0.068566,0.0563 0,0 0.1703564,0.0443 0.1703564,0.0443 0,0 1.029564,0.94252 1.029564,0.94252 0,0 0.068566,0.0563 0.068566,0.0563 0,0 0.1682013,0.0445 0.1682013,0.0445 0,0 0.1746331,0.23745 0.1746331,0.23745 0,0 0.1542757,0.12689 0.1542757,0.12689 0,0 0.8527162,0.60927 0.8527162,0.60927 0,0 0.176644,0.23726 0.176644,0.23726 0,0 0.4051844,0.24214 0.4051844,0.24214 0,0 0.2462011,0.29355 0.2462011,0.29355 0,0 0.1371336,0.11276 0.1371336,0.11276 0.127733,-0.0153 0.1233316,-0.0794 -0.013364,-0.1923 0,0 0.1923349,-0.0232 0.1923349,-0.0232 0,0 0.0681,0.0563 0.0681,0.0563 0,0 0.0541,0.31665 0.0541,0.31665 0,0 0.1638022,0.0449 0.1638022,0.0449 0,0 0.5129638,0.60165 0.5129638,0.60165 0.2286279,0.18802 0.4364398,0.27064 0.6235554,0.24803 0,0 0.15349,0.1269 0.15349,0.1269 0,0 -0.4342112,-0.093 -0.4342112,-0.093 0,0 0.3085512,0.25375 0.3085512,0.25375 0,0 0.1615,0.0452 0.1615,0.0452 0,0 -0.09294,0.0107 -0.09294,0.0107 0,0 0.845888,0.60914 0.845888,0.60914 0,0 0.06844,0.0563 0.06844,0.0563 0,0 -0.02298,0.0675 -0.02298,0.0675 0,0 0.09142,-0.0106 0.09142,-0.0106 0,0 -0.02285,0.0675 -0.02285,0.0675 0,0 0.313766,0.17223 0.313766,0.17223 0,0 0.115634,0.18091 0.115634,0.18091 0,0 0.06857,0.0563 0.06857,0.0563 0,0 0.158906,0.0454 0.158906,0.0454 0,0 0.183929,0.23654 0.183929,0.23654 0.388633,0.3196 0.671731,0.46845 0.849468,0.44679 0,0 0.144751,0.37082 0.144751,0.37082 0,0 0.06857,0.0563 0.06857,0.0563 0,0 0.156518,0.0456 0.156518,0.0456 0,0 0.118604,0.18061 0.118604,0.18061 0,0 0.310064,0.17259 0.310064,0.17259 0,0 0.392746,0.40538 0.392746,0.40538 0,0 0.89032,0.57114 0.89032,0.57114 0,0 -0.170368,0.021 -0.170368,0.021 0,0 0.479969,0.3947 0.479969,0.3947 0,0 0.495069,0.32803 0.495069,0.32803 0,0 0.276308,0.30634 0.276308,0.30634 0,0 0.565677,0.4652 0.565677,0.4652 0,0 0.425203,0.27254 0.425203,0.27254 0,0 0.403614,0.4853 0.403614,0.4853 0,0 0.354819,0.21555 0.354819,0.21555 0,0 1.268487,1.04317 1.268487,1.04317 0,0 0.488709,0.47483 0.488709,0.47483 0,0 0.626359,0.44216 0.626359,0.44216 0,0 1.765597,1.45199 1.765597,1.45199 0,0 0.757542,0.55474 0.757542,0.55474 0,0 0.580369,0.54552 0.580369,0.54552 0,0 1.18278,0.9727 1.18278,0.9727 0,0 0.137508,-0.0176 0.137508,-0.0176 0,0 5.36e-4,-0.0652 5.36e-4,-0.0652 0,0 0.136437,0.11291 0.136437,0.11291 0,0 -0.137276,0.0176 -0.137276,0.0176 0,0 0.581828,0.4794 0.581828,0.4794 0,0 9.19e-4,0.065 9.19e-4,0.065 0,0 0.06753,-0.009 0.06753,-0.009 0,0 0.412438,0.40342 0.412438,0.40342 0,0 0.340517,0.21697 0.340517,0.21697 0,0 0.22516,0.24823 0.22516,0.24823 0,0 3.223501,2.65091 3.223501,2.65091 0,0 0.420498,0.28883 0.420498,0.28883 0,0 0.009,0.0643 0.009,0.0643 0,0 0.06857,0.0563 0.06857,0.0563 0,0 0.221363,0.0688 0.221363,0.0688 0,0 0.02514,-0.0362 0.02514,-0.0362 0,0 0.05932,-0.008 0.05932,-0.008 0,0 0.0933,0.0204 0.0933,0.0204 0,0 0.533317,-0.0707 0.533317,-0.0707 0,0 0.262473,-0.0676 0.262473,-0.0676 0,0 0.210949,0.005 0.210949,0.005 0,0 0.05925,-0.008 0.05925,-0.008 0,0 0.02636,-0.0363 0.02636,-0.0363 0,0 0.03288,0.0284 0.03288,0.0284 0,0 1.124087,-0.18201 1.124087,-0.18201 0,0 0.829781,-0.11023 0.829781,-0.11023 0.08778,-0.0443 0.0242,-0.16629 -0.191178,-0.36619 0,0 -0.261466,-0.24263 -0.261466,-0.24263 0,0 -0.631427,-0.52072 -0.631427,-0.52072 0,0 -0.322005,-0.43021 -0.322005,-0.43021 0,0 -0.06141,-0.057 -0.06141,-0.057 0,0 -0.124069,-0.049 -0.124069,-0.049 0,0 -0.121549,-0.17953 -0.121549,-0.17953 0,0 -0.755127,-0.63403 -0.755127,-0.63403 0,0 -0.258047,-0.30817 -0.258047,-0.30817 0,0 -0.126456,-0.0487 -0.126456,-0.0487 0,0 -0.180563,-0.23689 -0.180563,-0.23689 0,0 -0.06217,-0.0578 -0.06217,-0.0578 0,0 -0.127161,-0.0487 -0.127161,-0.0487 0,0 -0.13381,-0.19411 -0.13381,-0.19411 0,0 -0.312216,-0.21981 -0.312216,-0.21981 0,0 -0.123043,-0.11424 -0.123043,-0.11424 0,0 -0.24019,-0.29416 -0.24019,-0.29416 0,0 -0.128934,-0.0485 -0.128934,-0.0485 0,0 0.06753,-0.009 0.06753,-0.009 0,0 -0.06141,-0.057 -0.06141,-0.057 0,0 -0.129173,-0.0485 -0.129173,-0.0485 0,0 -0.208556,-0.2657 -0.208556,-0.2657 0,0 -0.06218,-0.0578 -0.06218,-0.0578 0,0 -0.129921,-0.0483 -0.129921,-0.0483 0,0 -0.115684,-0.18012 -0.115684,-0.18012 0,0 -0.437998,-0.33371 -0.437998,-0.33371 0,0 -0.322986,-0.29973 -0.322986,-0.29973 0,0 -0.421053,-0.46579 -0.421053,-0.46579 0,0 -0.594044,-0.47623 -0.594044,-0.47623 0,0 -0.677499,-0.62873 -0.677499,-0.62873 0,0 -0.371795,-0.4233 -0.371795,-0.4233 0,0 -0.320316,-0.21899 -0.320316,-0.21899 0,0 -0.123042,-0.11423 -0.123042,-0.11423 0,0 0.01352,-0.0665 0.01352,-0.0665 0,0 -0.136569,-0.0476 -0.136569,-0.0476 0,0 -1.076617,-0.99911 -1.076617,-0.99911 0,0 -0.139611,-0.0481 -0.139611,-0.0481 0,0 -0.351946,-0.49046 -0.351946,-0.49046 0,0 -0.462789,-0.34705 -0.462789,-0.34705 0,0 -0.753632,-0.69937 -0.753632,-0.69937 0,0 0.241311,-0.03 0.241311,-0.03 0,0 0.141491,0.0472 0.141491,0.0472 0,0 0.01938,-0.0672 0.01938,-0.0672 0,0 0.321746,-0.04 0.321746,-0.04 0,0 0.140794,0.0472 0.140794,0.0472 0,0 0.02007,-0.0671 0.02007,-0.0671 0,0 -0.08043,0.009 -0.08043,0.009 0,0 0.121297,-0.14446 0.121297,-0.14446 0,0 0.06001,0.0571 0.06001,0.0571 0,0 0.520759,0.19408 0.520759,0.19408 0.965306,0.3544 1.647209,0.73276 2.056362,1.13467 0,0 1.023335,1.00522 1.023335,1.00522 0,0 0.151085,-0.019 0.151085,-0.019 0,0 0.0582,0.0574 0.0582,0.0574 -0.150831,0.0189 -0.182349,0.0716 -0.09454,0.1576 0,0 0.266964,0.0959 0.266964,0.0959 0,0 0.201446,0.36321 0.201446,0.36321 0,0 0.862859,0.68457 0.862859,0.68457 0,0 0.160935,0.23883 0.160935,0.23883 0,0 0.672728,0.66083 0.672728,0.66083 0,0 0.12932,0.0485 0.12932,0.0485 0,0 -0.0124,0.0663 -0.0124,0.0663 0,0 0.598955,0.58835 0.598955,0.58835 0,0 0.223185,0.29586 0.223185,0.29586 0,0 0.244292,0.16334 0.244292,0.16334 0,0 0.496695,0.48791 0.496695,0.48791 0,0 -0.0091,0.0661 -0.0091,0.0661 0,0 0.126693,0.0495 0.126693,0.0495 0,0 0.77426,0.76055 0.77426,0.76055 1.188486,1.16747 2.305729,2.21936 3.348108,3.15634 0.333462,0.0861 1.198948,0.0362 2.597049,-0.14978 0,0 0.1569,-0.11836 0.1569,-0.11836 0,0 0.355551,-0.0472 0.355551,-0.0472 0,0 0.240479,-0.0644 0.240479,-0.0644 0,0 0.08512,0.0213 0.08512,0.0213 0,0 -0.02581,-0.029 -0.02581,-0.029 0,0 0.05931,-0.008 0.05931,-0.008 0,0 0.08501,0.0213 0.08501,0.0213 0,0 -0.15397,-0.40153 -0.15397,-0.40153 0,0 -0.06002,0.008 -0.06002,0.008 0,0 -0.156896,-0.25505 -0.156896,-0.25505 0,0 -0.05168,-0.0589 -0.05168,-0.0589 0,0 -0.111779,-0.0502 -0.111779,-0.0502 0,0 0.06074,-0.008 0.06074,-0.008 0,0 -0.329306,-0.29715 -0.329306,-0.29715 0,0 -0.05116,-0.0581 -0.05116,-0.0581 0,0 0.01039,-0.0662 0.01039,-0.0662 0,0 -0.06159,0.008 -0.06159,0.008 -0.8052,-0.83482 -1.538283,-1.62523 -2.197167,-2.37119 0,0 -0.410629,-0.46488 -0.410629,-0.46488 0,0 -0.201564,-0.31382 -0.201564,-0.31382 0,0 -0.984667,-0.94118 -0.984667,-0.94118 0,0 -0.495423,-0.64889 -0.495423,-0.64889 0,0 -2.849378,-3.2259 -2.849378,-3.2259 0,0 -0.129028,-0.0485 -0.129028,-0.0485 0,0 0.07769,-0.009 0.07769,-0.009 -0.547639,-0.62001 -1.437027,-1.25693 -2.68355,-1.90876 -1.146146,-0.56796 -1.914016,-0.8278 -2.290475,-0.78141 0.818848,-1.01441 0.550302,-2.31814 -0.853056,-3.90694 0,0 -0.142367,-0.0471 -0.142367,-0.0471 0,0 -0.292273,-0.56047 -0.292273,-0.56047 0,0 -0.775857,-0.64582 -0.775857,-0.64582 0,0 -0.06052,-0.18562 -0.06052,-0.18562 0,0 -0.153986,-0.17435 -0.153986,-0.17435 0,0 -0.145601,-0.0467 -0.145601,-0.0467 0,0 0.04295,-0.0694 0.04295,-0.0694 0,0 -0.320803,-0.3632 -0.320803,-0.3632 0,0 -0.455878,-0.39597 -0.455878,-0.39597 0,0 0.0446,-0.0697 0.0446,-0.0697 0,0 -0.05133,-0.0581 -0.05133,-0.0581 0,0 -0.147614,-0.0465 -0.147614,-0.0465 0,0 -0.237351,-0.3893 -0.237351,-0.3893 0,0 -0.05133,-0.0581 -0.05133,-0.0581 0,0 -0.148603,-0.0464 -0.148603,-0.0464 0,0 -0.05145,-0.0581 -0.05145,-0.0581 0,0 0.04607,-0.0698 0.04607,-0.0698 0,0 -0.355378,-0.27952 -0.355378,-0.27952 0,0 -0.15855,-0.30231 -0.15855,-0.30231 0,0 -0.317317,-0.23511 -0.317317,-0.23511 0,0 0.04785,-0.0699 0.04785,-0.0699 0,0 -0.05133,-0.058 -0.05133,-0.058 0,0 -0.150848,-0.0463 -0.150848,-0.0463 0,0 -0.105794,-0.24435 -0.105794,-0.24435 0,0 -0.05133,-0.0581 -0.05133,-0.0581 0,0 -0.151546,-0.0462 -0.151546,-0.0462 0,0 -0.05209,-0.0588 -0.05209,-0.0588 0,0 0.04901,-0.0701 0.04901,-0.0701 0,0 -1.683733,-1.38914 -1.683733,-1.38914 -0.796338,-0.65483 -1.982395,-1.2799 -3.572341,-1.87339 -1.340921,-0.23789 -2.057944,-0.39942 -2.140862,-0.48598 -0.380887,0.0449 -0.690867,0.0172 -0.930207,-0.083 -0.582264,0.0686 -0.911543,0.0646 -0.987608,-0.012 0,0 -0.109423,0.0133 -0.109423,0.0133 0,0 -0.05216,0.0703 -0.05216,0.0703 0,0 -0.109308,0.0133 -0.109308,0.0133 0,0 -0.114773,-0.11503 -0.114773,-0.11503 0,0 -0.05204,0.0703 -0.05204,0.0703 0,0 -0.605207,0.006 -0.605207,0.006 0,0 -0.5477023,0.0645 -0.5477023,0.0645 0,0 -0.2094145,0.15324 -0.2094145,0.15324 -0.1180665,-0.11476 -0.2867408,-0.15911 -0.5060188,-0.13328 -0.599524,0.11342 -0.9410095,0.21797 -1.0242944,0.31357 0,0 -0.2915972,-0.15865 -0.2915972,-0.15865 0,0 -0.1096571,0.0133 -0.1096571,0.0133 0,0 -0.048661,0.0701 -0.048661,0.0701 0,0 -0.4381687,0.0516 -0.4381687,0.0516 0,0 -0.7194049,0.0203 -0.7194049,0.0203 0,0 0,0 0,0 m 51.8414619,-6.02326 c 0,0 -1.045492,0.29666 -1.045492,0.29666 0,0 0.0157,0.74381 0.0157,0.74381 0,0 0.385874,0.0178 0.385874,0.0178 0,0 -0.36923,0.10704 -0.36923,0.10704 0,0 0.06033,0.45247 0.06033,0.45247 0,0 0.275469,0.0308 0.275469,0.0308 0,0 -0.269227,0.0159 -0.269227,0.0159 0,0 0.298557,0.83634 0.298557,0.83634 0,0 -0.320143,0.38745 -0.320143,0.38745 0,0 0.387215,0.12836 0.387215,0.12836 0,0 -0.325409,0.32394 -0.325409,0.32394 0,0 0.35517,1.28922 0.35517,1.28922 0,0 0.01457,0.10917 0.01457,0.10917 0,0 0.361673,0.0203 0.361673,0.0203 0,0 -0.353352,0.0421 -0.353352,0.0421 0,0 0.413578,2.551 0.413578,2.551 0,0 -0.266444,0.53939 -0.266444,0.53939 0,0 0.314936,0.37504 0.314936,0.37504 0,0 0.0132,0.80701 0.0132,0.80701 0,0 0.333502,0.0231 0.333502,0.0231 0,0 -0.327173,0.0237 -0.327173,0.0237 0,0 0.463233,2.25947 0.463233,2.25947 0,0 0.02492,0.69466 0.02492,0.69466 0,0 0.313676,0.025 0.313676,0.025 0,0 -0.307434,0.0218 -0.307434,0.0218 0,0 0.342883,0.94192 0.342883,0.94192 0,0 -0.300632,0.49684 -0.300632,0.49684 0,0 0.333815,0.26023 0.333815,0.26023 0,0 -0.263485,0.25451 -0.263485,0.25451 0,0 0.53919,0.74223 0.53919,0.74223 0,0 -0.217602,0.0904 -0.217602,0.0904 0,0 0.10966,1.89056 0.10966,1.89056 0,0 0.29391,1.16884 0.29391,1.16884 0,0 0.0083,0.0624 0.0083,0.0624 0,0 -0.257191,0.0965 -0.257191,0.0965 0,0 0.31444,0.76959 0.31444,0.76959 0,0 0.147011,1.6474 0.147011,1.6474 0,0 0.269409,1.07723 0.269409,1.07723 0,0 -0.220919,0.18699 -0.220919,0.18699 0,0 0.567392,1.54579 0.567392,1.54579 0,0 -0.148664,1.0042 -0.148664,1.0042 0,0 0.251055,0.66571 0.251055,0.66571 0,0 -0.196566,0.20041 -0.196566,0.20041 0,0 0.489752,1.20568 0.489752,1.20568 0,0 -0.113873,0.30087 -0.113873,0.30087 0.0944,0.17811 0.280751,0.25466 0.558828,0.22828 0,0 2.07551,-0.27566 2.07551,-0.27566 0.622748,-0.0826 1.002291,-0.18583 1.139263,-0.3095 0,0 0.11835,-2.84768 0.11835,-2.84768 0,0 -0.16857,-0.37434 -0.16857,-0.37434 0,0 0.227631,-0.26675 0.227631,-0.26675 0,0 -10e-4,-0.11063 -10e-4,-0.11063 0,0 -0.235724,-0.20677 -0.235724,-0.20677 0,0 -7.38e-4,-0.0473 -7.38e-4,-0.0473 0,0 0.233295,-0.0934 0.233295,-0.0934 0,0 -0.192044,-0.54464 -0.192044,-0.54464 0,0 0.236616,-0.20441 0.236616,-0.20441 0,0 -0.178674,-0.60969 -0.178674,-0.60969 0,0 -0.0063,-0.52192 -0.0063,-0.52192 0,0 -0.1947,-0.0384 -0.1947,-0.0384 0,0 0.19392,-0.0248 0.19392,-0.0248 0,0 -0.09488,-1.71196 -0.09488,-1.71196 0,0 0.09874,-2.78103 0.09874,-2.78103 0,0 -0.20165,-0.25955 -0.20165,-0.25955 0,0 0.277778,-0.0347 0.277778,-0.0347 0,0 -0.001,-0.11062 -0.001,-0.11062 0,0 -0.282181,-0.20213 -0.282181,-0.20213 0,0 -7.38e-4,-0.0473 -7.38e-4,-0.0473 0,0 0.279746,-0.0988 0.279746,-0.0988 0,0 -0.231893,-0.77781 -0.231893,-0.77781 0,0 0.07651,-0.42068 0.07651,-0.42068 0,0 -0.293067,-0.24849 -0.293067,-0.24849 0,0 0.288971,-0.0831 0.288971,-0.0831 0,0 -0.235474,-0.38219 -0.235474,-0.38219 0,0 0.291499,-0.20989 0.291499,-0.20989 0,0 -0.301405,-0.35832 -0.301405,-0.35832 0,0 -0.0011,-0.0639 -0.0011,-0.0639 0,0 0.296798,-0.0998 0.296798,-0.0998 0,0 -0.221772,-0.54214 -0.221772,-0.54214 0,0 0.08194,-5.59449 0.08194,-5.59449 0,0 -0.273107,-0.42586 -0.273107,-0.42586 0,0 0.34058,-0.0409 0.34058,-0.0409 0,0 -0.0013,-0.12636 -0.0013,-0.12636 0,0 -0.348276,-0.35362 -0.348276,-0.35362 0,0 0.341353,-0.27814 0.341353,-0.27814 0,0 -0.25578,-0.53874 -0.25578,-0.53874 0,0 0.01623,-4.14717 0.01623,-4.14717 0,0 -8.97e-4,-0.0632 -8.97e-4,-0.0632 0,0 -0.376471,-0.0187 -0.376471,-0.0187 0,0 0.374902,-0.0917 0.374902,-0.0917 0,0 0.101131,-0.53384 0.101131,-0.53384 -0.0036,-0.29484 -0.452292,-0.41585 -1.347304,-0.36318 0,0 -4.598878,0.52582 -4.598878,0.52582 0,0 0,0 0,0 m 15.966417,-1.67862 c -0.494753,0.0603 -1.073589,0.14014 -1.735409,0.23919 0,0 -0.117032,0.077 -0.117032,0.077 0,0 -4.300762,0.45951 -4.300762,0.45951 0,0 -0.191124,0.0226 -0.191124,0.0226 -0.16355,0.0193 -0.297793,0.20349 -0.40302,0.55305 0,0 -0.0028,0.0636 -0.0028,0.0636 0,0 0.10514,0.0508 0.10514,0.0508 0,0 -0.188104,0.65416 -0.188104,0.65416 0,0 -0.0027,0.0643 -0.0027,0.0643 0,0 0.07632,0.0541 0.07632,0.0541 0,0 -0.08974,0.26339 -0.08974,0.26339 0,0 -0.0027,0.0635 -0.0027,0.0635 0,0 0.0758,0.0543 0.0758,0.0543 0,0 -0.08118,0.0729 -0.08118,0.0729 0,0 -0.109633,3.7422 -0.109633,3.7422 0,0 -0.146104,1.72445 -0.146104,1.72445 0,0 0.07199,-0.008 0.07199,-0.008 0,0 -0.0054,0.12703 -0.0054,0.12703 -0.109847,0.36087 -0.184354,1.2338 -0.225577,2.6188 0,0 -0.01819,0.44453 -0.01819,0.44453 0,0 -0.07077,0.64049 -0.07077,0.64049 0,0 0.0641,0.0553 0.0641,0.0553 0,0 -0.06918,0.0716 -0.06918,0.0716 0,0 -0.04146,1.58554 -0.04146,1.58554 0,0 0.04485,0.43678 0.04485,0.43678 0,0 -0.16133,0.90446 -0.16133,0.90446 0,0 0.05224,0.24628 0.05224,0.24628 0,0 -0.01802,0.44531 -0.01802,0.44531 0,0 -0.06644,0.64007 -0.06644,0.64007 0,0 0.05807,0.0559 0.05807,0.0559 0,0 -0.126015,0.14203 -0.126015,0.14203 0,0 -0.06545,1.71492 -0.06545,1.71492 0,0 -0.06949,0.34043 -0.06949,0.34043 0,0 0.05011,0.16747 0.05011,0.16747 0,0 -0.01469,0.88638 -0.01469,0.88638 0,0 -0.08036,0.65776 -0.08036,0.65776 0,0 0.05339,0.0407 0.05339,0.0407 0,0 -0.06397,0.71887 -0.06397,0.71887 0,0 -0.05492,1.90314 -0.05492,1.90314 0,0 -0.08,0.32616 -0.08,0.32616 0,0 0.06546,0.0548 0.06546,0.0548 0,0 -0.07008,0.0723 -0.07008,0.0723 0,0 -0.02078,0.57207 -0.02078,0.57207 0,0 0.06418,0.0549 0.06418,0.0549 0,0 -0.05166,0.0698 -0.05166,0.0698 0,0 -0.01635,0.44436 -0.01635,0.44436 0,0 -0.06058,0.32373 -0.06058,0.32373 0,0 0.04656,0.0571 0.04656,0.0571 0,0 -0.05107,0.0698 -0.05107,0.0698 0,0 -0.04051,1.14324 -0.04051,1.14324 0,0 -0.05795,0.32347 -0.05795,0.32347 0,0 0.04446,0.0572 0.04446,0.0572 0,0 -0.06175,0.45033 -0.06175,0.45033 0,0 -0.0021,0.0635 -0.0021,0.0635 0,0 0.04367,0.0574 0.04367,0.0574 0,0 -0.03954,0.25792 -0.03954,0.25792 -0.01679,0.48668 0.0211,0.81445 0.112206,0.98236 0,0 0.354699,-0.11036 0.354699,-0.11036 0,0 2.777247,-0.40129 2.777247,-0.40129 0.06853,-0.009 0.111991,-0.0786 0.12976,-0.20693 0,0 0.04449,-0.005 0.04449,-0.005 0,0 0.03172,0.18539 0.03172,0.18539 0.09272,-0.012 0.177375,-0.20395 0.255302,-0.56497 0,0 -0.01174,-0.0189 -0.01174,-0.0189 0,0 0.02254,-0.0289 0.02254,-0.0289 0.02545,-0.12343 0.05022,-0.26349 0.07397,-0.42439 0,0 -0.02318,-0.24871 -0.02318,-0.24871 0,0 0.08372,-0.26281 0.08372,-0.26281 0,0 0.103861,-0.70609 0.103861,-0.70609 0,0 0.03127,-0.19452 0.03127,-0.19452 0,0 -0.24936,1.81023 -0.24936,1.81023 0,0 0.01173,-0.0149 0.01173,-0.0149 0,0 0.127242,-0.96091 0.127242,-0.96091 0,0 0.10958,-0.32912 0.10958,-0.32912 0,0 -0.05275,-0.0559 -0.05275,-0.0559 0,0 0.06234,-0.008 0.06234,-0.008 0,0 -0.05275,-0.0567 -0.05275,-0.0567 0,0 0.07204,-0.0724 0.07204,-0.0724 0,0 0.448287,-2.89209 0.448287,-2.89209 0,0 0.221155,-1.47673 0.221155,-1.47673 0,0 0.12099,-0.45627 0.12099,-0.45627 0,0 -0.04407,-0.0572 -0.04407,-0.0572 0,0 0.0636,-0.0718 0.0636,-0.0718 0.425655,-2.98354 0.73836,-4.84426 0.943716,-5.58404 0,0 -0.05158,-0.0574 -0.05158,-0.0574 0,0 0.07141,-0.0718 0.07141,-0.0718 0,0 0.07796,-0.63978 0.07796,-0.63978 0,0 0.01293,-0.48994 0.01293,-0.48994 0,0 0.144207,-0.53767 0.144207,-0.53767 0,0 0.07692,-0.63963 0.07692,-0.63963 0,0 0.0861,-0.0106 0.0861,-0.0106 0,0 0.05388,0.0563 0.05388,0.0563 0,0 -0.07369,0.0721 -0.07369,0.0721 -0.05354,0.43731 0.07701,2.91001 0.230264,7.43505 0,0 -0.01212,0.0645 -0.01212,0.0645 0,0 -0.06638,0.0721 -0.06638,0.0721 0,0 0.104355,0.0969 0.104355,0.0969 0,0 -0.01226,0.0645 -0.01226,0.0645 0,0 -0.08672,0.0897 -0.08672,0.0897 0,0 -0.02436,0.12889 -0.02436,0.12889 0,0 0.06188,0.0394 0.06188,0.0394 0,0 0.0362,1.88282 0.0362,1.88282 -0.117204,2.50874 -0.180256,3.99812 -0.148739,4.46489 0,0 -0.0145,0.0646 -0.0145,0.0646 0,0 -0.05896,0.0706 -0.05896,0.0706 0.444198,0.0559 0.733369,0.0749 0.870391,0.0567 0,0 0.102947,-0.0137 0.102947,-0.0137 0,0 2.949281,-0.4708 2.949281,-0.4708 0.268703,-0.0462 0.447419,-0.19485 0.535652,-0.44619 0,0 0.513179,-1.50543 0.513179,-1.50543 0,0 0.177742,-0.33595 0.177742,-0.33595 0,0 -0.03958,-0.0581 -0.03958,-0.0581 0,0 0.71637,-1.90718 0.71637,-1.90718 0,0 0.144872,-0.45672 0.144872,-0.45672 0,0 0.229242,-0.46758 0.229242,-0.46758 0,0 -0.06796,0.009 -0.06796,0.009 0,0 0.04636,-0.13197 0.04636,-0.13197 0,0 0.160826,-0.271 0.160826,-0.271 0,0 0.06957,-0.38447 0.06957,-0.38447 0,0 0.0058,-0.0634 0.0058,-0.0634 0,0 0.300753,-0.66446 0.300753,-0.66446 0,0 -0.04763,-0.0565 -0.04763,-0.0565 0,0 0.09389,-0.0745 0.09389,-0.0745 0,0 0.04625,-0.13115 0.04625,-0.13115 0,0 -0.04781,-0.0572 -0.04781,-0.0572 0,0 0.170505,-0.14693 0.170505,-0.14693 0,0 0.515577,-1.5057 0.515577,-1.5057 0,0 0.213951,-0.4028 0.213951,-0.4028 0,0 0.02244,-0.31604 0.02244,-0.31604 0,0 0.324474,-0.91865 0.324474,-0.91865 0,0 0.290438,-0.66296 0.290438,-0.66296 0,0 -0.03571,-0.0583 -0.03571,-0.0583 0,0 0.151941,-0.26963 0.151941,-0.26963 0,0 0.149089,-0.58263 0.149089,-0.58263 0,0 0.586241,-1.32721 0.586241,-1.32721 0,0 -0.01253,-0.18653 -0.01253,-0.18653 0,0 0.498471,-1.06469 0.498471,-1.06469 0,0 0.163723,-0.45908 0.163723,-0.45908 0,0 0.05236,-0.32 0.05236,-0.32 0.05719,-0.006 0.162098,-0.18703 0.316038,-0.54046 0,0 -0.01635,-0.18694 -0.01635,-0.18694 0,0 0.274882,-0.5354 0.274882,-0.5354 0,0 0.0054,-0.25156 0.0054,-0.25156 0,0 0.325903,-0.49453 0.325903,-0.49453 0,0 0.02356,-0.0656 0.02356,-0.0656 0,0 -0.04972,-0.0411 -0.04972,-0.0411 0,0 0.121723,-0.2187 0.121723,-0.2187 0,0 -0.04676,-0.29233 -0.04676,-0.29233 0,0 0.113911,-0.0766 0.113911,-0.0766 0,0 0.0028,-0.25131 0.0028,-0.25131 0,0 0.02362,-0.0663 0.02362,-0.0663 0,0 0.114606,-0.0767 0.114606,-0.0767 0,0 0.02345,-0.0656 0.02345,-0.0656 0,0 -0.06806,-0.0545 -0.06806,-0.0545 0,0 0.331675,-0.55787 0.331675,-0.55787 0,0 0.08827,-0.62252 0.08827,-0.62252 0,0 0.164128,-0.27085 0.164128,-0.27085 0,0 0.07026,-0.19677 0.07026,-0.19677 0,0 -0.04745,-0.0579 -0.04745,-0.0579 0.06302,-0.008 0.166642,-0.19259 0.311591,-0.55535 0,0 -0.05332,-0.0407 -0.05332,-0.0407 0,0 0.384731,-0.62687 0.384731,-0.62687 0,0 0.02359,-0.0656 0.02359,-0.0656 0,0 -0.127655,-0.0944 -0.127655,-0.0944 0.175867,-0.18855 0.312404,-0.4402 0.410041,-0.7554 0,0 0.259489,-0.72243 0.259489,-0.72243 0,0 0.193197,-0.33701 0.193197,-0.33701 0,0 -0.07539,0.009 -0.07539,0.009 0,0 -0.09887,0.0747 -0.09887,0.0747 0,0 0.02347,-0.0656 0.02347,-0.0656 0,0 0.198077,-0.14922 0.198077,-0.14922 0,0 -0.0049,-0.18779 -0.0049,-0.18779 0,0 0.241377,-0.46831 0.241377,-0.46831 0,0 0.01611,-0.31588 0.01611,-0.31588 0,0 0.392665,-0.61188 0.392665,-0.61188 0,0 -0.08672,-0.2409 -0.08672,-0.2409 0,0 0.02383,-0.0663 0.02383,-0.0663 0,0 0.127428,-0.078 0.127428,-0.078 0,0 -0.0021,-0.0625 -0.0021,-0.0625 0,0 -0.0805,-0.0532 -0.0805,-0.0532 0,0 0.0235,-0.0656 0.0235,-0.0656 0,0 0.127854,-0.078 0.127854,-0.078 0,0 0.02362,-0.0656 0.02362,-0.0656 0,0 -0.08096,-0.0532 -0.08096,-0.0532 0,0 0.246615,-0.40686 0.246615,-0.40686 0,0 0.03574,-0.38109 0.03574,-0.38109 0,0 0.224096,-0.34059 0.224096,-0.34059 0,0 0.09046,-0.32476 0.09046,-0.32476 0,0 -0.08368,-0.053 -0.08368,-0.053 0,0 0.130853,-0.0782 0.130853,-0.0782 0,0 0.165145,-0.45922 0.165145,-0.45922 0,0 -0.08473,-0.0527 -0.08473,-0.0527 0,0 0.131905,-0.0784 0.131905,-0.0784 0,0 0.07107,-0.19763 0.07107,-0.19763 0.02359,-0.0655 -0.10898,-0.10756 -0.398526,-0.12583 0,0 -0.644678,0.20245 -0.644678,0.20245 0,0 -0.745859,0.0408 -0.745859,0.0408 0,0 -3.785378,0.44617 -3.785378,0.44617 -0.43576,0.0513 -0.704408,0.27175 -0.805805,0.66145 0,0 -0.03379,0.12983 -0.03379,0.12983 0,0 0.06291,0.0555 0.06291,0.0555 0,0 -0.0798,0.009 -0.0798,0.009 0,0 -0.363018,1.00113 -0.363018,1.00113 0,0 -2.1e-4,8.2e-4 -2.1e-4,8.2e-4 0,0 -0.183253,0.51023 -0.183253,0.51023 0,0 0.05043,0.046 0.05043,0.046 0,0 -0.03113,0.12876 -0.03113,0.12876 0,0 -0.144314,0.4073 -0.144314,0.4073 0,0 0.0078,0.16663 0.0078,0.16663 0,0 -0.0057,0.0219 -0.0057,0.0219 0,0 -0.186937,0.33687 -0.186937,0.33687 0,0 0.0861,0.0526 0.0861,0.0526 0,0 -2.11e-4,8.1e-4 -2.11e-4,8.1e-4 0,0 -0.02101,0.0646 -0.02101,0.0646 0,0 -0.04747,0.005 -0.04747,0.005 0,0 0.0045,0.12289 0.0045,0.12289 0,0 -0.97783,3.01428 -0.97783,3.01428 0,0 0.02213,0.18609 0.02213,0.18609 0,0 -0.154495,0.3331 -0.154495,0.3331 0,0 -0.0094,0.1269 -0.0094,0.1269 0,0 0.05552,0.0562 0.05552,0.0562 0,0 -0.08888,0.0744 -0.08888,0.0744 0,0 -0.165748,0.64902 -0.165748,0.64902 0,0 -0.176799,0.33583 -0.176799,0.33583 0,0 0.07735,0.0536 0.07735,0.0536 0,0 -0.09381,0.012 -0.09381,0.012 0,0 0.04408,0.18338 0.04408,0.18338 0,0 -0.142833,0.20596 -0.142833,0.20596 0,0 0.04972,0.24558 0.04972,0.24558 0,0 -0.215848,0.84376 -0.215848,0.84376 0,0 -0.157284,0.27145 -0.157284,0.27145 0,0 0.02425,0.2486 0.02425,0.2486 0,0 -0.210543,0.90598 -0.210543,0.90598 0,0 -0.17115,0.33529 -0.17115,0.33529 0,0 0.03809,0.18398 0.03809,0.18398 0,0 -0.03326,0.12983 -0.03326,0.12983 0,0 -0.180009,0.21065 -0.180009,0.21065 0,0 -0.510415,2.01239 -0.510415,2.01239 0,0 -0.0669,0.024 -0.0669,0.024 0.0846,-0.33531 0.107246,-1.13482 0.05183,-2.39661 0,0 0.08783,-0.0107 0.08783,-0.0107 0.0446,-0.71849 0.0057,-1.07005 -0.114071,-1.05549 0,0 0.01542,-0.0656 0.01542,-0.0656 0,0 0.08206,-0.073 0.08206,-0.073 0,0 0.0236,-0.19161 0.0236,-0.19161 0,0 -0.05283,-0.0565 -0.05283,-0.0565 0,0 0.08343,-0.073 0.08343,-0.073 0,0 0.01529,-0.0648 0.01529,-0.0648 0,0 -0.05311,-0.0565 -0.05311,-0.0565 0.05453,-1.59069 3.39e-4,-2.67542 -0.153365,-3.25519 0,0 0.01408,-0.0646 0.01408,-0.0646 0,0 0.0872,-0.0735 0.0872,-0.0735 0,0 0.02831,-0.1293 0.02831,-0.1293 0,0 -0.379313,-3.08959 -0.379313,-3.08959 0,0 0.09068,-0.0739 0.09068,-0.0739 0,0 0.02604,-0.12917 0.02604,-0.12917 0,0 -0.13661,-0.20426 -0.13661,-0.20426 0,0 0.116884,-0.077 0.116884,-0.077 0,0 0.01293,-0.0645 0.01293,-0.0645 0,0 -0.201211,-0.79526 -0.201211,-0.79526 0.108806,-1.01089 0.09881,-1.50914 -0.02771,-1.49423 0,0 0.01213,-0.0645 0.01213,-0.0645 0,0 0.120869,-0.0774 0.120869,-0.0774 0.0323,-0.16935 -0.693844,-0.16369 -2.178306,0.0172 0,0 0,0 0,0 m -4.421174,27.19624 c 0,0 -0.02028,0.0263 -0.02028,0.0263 -0.0035,0.0171 -0.0074,0.0316 -0.01079,0.0478 0,0 0.01722,0.0284 0.01722,0.0284 0,0 0.01388,-0.1025 0.01388,-0.1025 0,0 0,0 0,0 m -0.01388,0.1025 c 0,0 -0.126549,0.91046 -0.126549,0.91046 0,0 0.133107,-0.89953 0.133107,-0.89953 0,0 -0.0065,-0.0107 -0.0065,-0.0107 0,0 0,0 0,0 M 8.0992409,270.15291 c 0,0 0.1089587,-0.0133 0.1089587,-0.0133 0,0 0.1967229,0.18587 0.1967229,0.18587 0,0 -0.2171592,0.0257 -0.2171592,0.0257 0,0 -0.088523,-0.19866 -0.088523,-0.19866 0,0 0,0 0,0 m 0.6464653,0.14894 c 0,0 0.1085508,-0.0133 0.1085508,-0.0133 0,0 0.1952085,0.18602 0.1952085,0.18602 0,0 -0.2163437,0.0256 -0.2163437,0.0256 0,0 -0.087416,-0.19875 -0.087416,-0.19875 0,0 0,0 0,0 m 4.2719368,-0.054 c 0,0 0.215471,-0.0254 0.215471,-0.0254 0,0 0.05579,0.0576 0.05579,0.0576 0,0 -0.103208,0.14071 -0.103208,0.14071 0,0 -0.168052,-0.17293 -0.168052,-0.17293 0,0 0,0 0,0 m 0.530674,0.14616 c 0,0 0.214712,-0.0254 0.214712,-0.0254 0,0 0.05541,0.0576 0.05541,0.0576 0,0 -0.103195,0.1407 -0.103195,0.1407 0,0 -0.166916,-0.17304 -0.166916,-0.17304 0,0 0,0 0,0 m 55.142772,-5.2815 c 0,0 0.105089,-0.012 0.105089,-0.012 0,0 -0.0176,0.25474 -0.0176,0.25474 0,0 -0.104621,0.0121 -0.104621,0.0121 0,0 0.01714,-0.2547 0.01714,-0.2547 0,0 0,0 0,0 m 11.239418,-1.16692 c 0,0 0.009,0.008 0.009,0.008 0,0 -0.03106,0.0863 -0.03106,0.0863 0,0 0.0221,-0.0938 0.0221,-0.0938 0,0 0,0 0,0 m -0.169399,0.72572 c 0,0 0.0022,0.058 0.0022,0.058 0,0 -0.02565,0.0408 -0.02565,0.0408 0,0 0.02344,-0.0988 0.02344,-0.0988 0,0 0,0 0,0 m -67.828706,8.35895 c 0,0 0.455909,0.18718 0.455909,0.18718 0.222036,-0.0264 0.737792,0.26068 1.546104,0.86194 0,0 0.07366,0.0716 0.07366,0.0716 0,0 -0.0054,0.049 -0.0054,0.049 0,0 0.963783,0.88375 0.963783,0.88375 0,0 0.162056,0.1577 0.162056,0.1577 0,0 0.2316,0.27822 0.2316,0.27822 0,0 0.107248,0.0516 0.107248,0.0516 0,0 0.128707,0.17782 0.128707,0.17782 0,0 0.386928,0.32401 0.386928,0.32401 0,0 0.05893,0.0572 0.05893,0.0572 0,0 -0.0035,0.0489 -0.0035,0.0489 0,0 0.12131,0.0659 0.12131,0.0659 0,0 1.061466,1.03301 1.061466,1.03301 0,0 0.106434,0.0516 0.106434,0.0516 0,0 -0.0033,0.0488 -0.0033,0.0488 0,0 0.412505,0.40147 0.412505,0.40147 0,0 0.175163,0.22061 0.175163,0.22061 0,0 0.723511,0.65398 0.723511,0.65398 0,0 0.04614,-0.005 0.04614,-0.005 0,0 -0.103021,-0.10037 -0.103021,-0.10037 0,0 0.0915,-0.0107 0.0915,-0.0107 0,0 0.161574,0.15776 0.161574,0.15776 -0.121563,0.0148 -0.06937,0.13195 0.156798,0.35187 0.737245,0.7816 0.871899,1.20143 0.401791,1.25882 0,0 -0.550754,0.0672 -0.550754,0.0672 0,0 0.01625,0.0627 0.01625,0.0627 0,0 -0.104421,-0.0518 -0.104421,-0.0518 0,0 -0.115205,0.0786 -0.115205,0.0786 0,0 -0.04449,0.005 -0.04449,0.005 0,0 -0.104767,-0.0518 -0.104767,-0.0518 0,0 -0.09308,0.0759 -0.09308,0.0759 0,0 -0.195755,-0.0892 -0.195755,-0.0892 0,0 -1.154828,-1.07115 -1.154828,-1.07115 0,0 -0.184892,-0.21964 -0.184892,-0.21964 0,0 -0.276731,-0.20851 -0.276731,-0.20851 0,0 -2.708961,-2.51265 -2.708961,-2.51265 0,0 -0.109314,-0.0513 -0.109314,-0.0513 0,0 -0.0138,-0.0628 -0.0138,-0.0628 0,0 -2.6628,-2.46982 -2.6628,-2.46982 0,0 -0.256059,-0.2916 -0.256059,-0.2916 0,0 -0.22095,-0.15084 -0.22095,-0.15084 0,0 0.143898,-0.0816 0.143898,-0.0816 0,0 0.138549,0.048 0.138549,0.048 0,0 0.358575,-0.0426 0.358575,-0.0426 0,0 0.272754,-0.0969 0.272754,-0.0969 0,0 0.317518,0.0267 0.317518,0.0267 0,0 0.255971,-0.0303 0.255971,-0.0303 0,0 -0.164617,-0.15746 -0.164617,-0.15746 0,0 0,0 0,0 m 67.727918,-7.9285 c 0,0 0.0019,0.0171 0.0019,0.0171 0,0 -0.0067,7.8e-4 -0.0067,7.8e-4 0,0 0.0046,-0.0178 0.0046,-0.0178 0,0 0,0 0,0 m 17.142558,0.87576 c 0.01521,0.0144 0.03507,0.0268 0.07068,0.0313 0,0 -0.09301,0.0106 -0.09301,0.0106 0,0 0.02232,-0.0425 0.02232,-0.0425 0,0 0,0 0,0 m -0.09425,0.18546 c 0,0 0.0497,0.0472 0.0497,0.0472 0,0 -0.105154,0.0618 -0.105154,0.0618 0,0 0.05546,-0.1089 0.05546,-0.1089 0,0 0,0 0,0 m -0.453937,0.89167 c 0,0 -0.111471,0.22969 -0.111471,0.22969 0,0 -0.0061,7.3e-4 -0.0061,7.3e-4 0,0 0.117603,-0.23042 0.117603,-0.23042 0,0 0,0 0,0 m -61.474027,12.7035 c 0,0 0.06454,-0.008 0.06454,-0.008 0,0 0.08486,0.0218 0.08486,0.0218 0,0 0.02716,0.14105 0.02716,0.14105 0,0 1.255806,1.49888 1.255806,1.49888 0,0 -0.04165,0.005 -0.04165,0.005 0,0 0.929865,1.10477 0.929865,1.10477 0,0 0.08052,0.11836 0.08052,0.11836 0,0 -0.03916,0.0369 -0.03916,0.0369 0,0 0.199799,0.10357 0.199799,0.10357 0,0 -0.02978,0.0518 -0.02978,0.0518 0,0 0.18119,0.26648 0.18119,0.26648 0,0 0.619003,0.6623 0.619003,0.6623 0,0 -0.02843,0.0517 -0.02843,0.0517 0,0 0.03008,0.0444 0.03008,0.0444 0,0 0.08841,0.0372 0.08841,0.0372 0,0 -0.05832,0.006 -0.05832,0.006 0,0 0.02005,0.0295 0.02005,0.0295 0,0 0.07829,0.0224 0.07829,0.0224 0,0 0.03002,0.0444 0.03002,0.0444 0,0 0.182556,0.36268 0.182556,0.36268 0,0 0.02005,0.0295 0.02005,0.0295 0,0 0.05758,-0.006 0.05758,-0.006 0,0 -0.05003,-0.0741 -0.05003,-0.0741 0,0 0.03874,-0.005 0.03874,-0.005 0,0 0.04997,0.0741 0.04997,0.0741 0,0 0.07142,0.16777 0.07142,0.16777 0,0 0.852864,1.11392 0.852864,1.11392 0,0 0.02991,0.0444 0.02991,0.0444 0,0 0.08546,0.0375 0.08546,0.0375 0,0 -0.05554,0.006 -0.05554,0.006 0,0 -0.03476,0.0366 -0.03476,0.0366 0,0 -0.294966,0.0373 -0.294966,0.0373 0,0 -0.05752,-0.0249 -0.05752,-0.0249 0,0 -0.03525,0.0367 -0.03525,0.0367 0,0 -0.09197,0.012 -0.09197,0.012 0,0 -0.222718,-0.004 -0.222718,-0.004 0,0 -0.03729,0.005 -0.03729,0.005 0,0 -0.03495,0.0366 -0.03495,0.0366 0,0 -0.222945,-0.004 -0.222945,-0.004 0,0 -0.16399,0.0529 -0.16399,0.0529 0,0 -0.183956,0.0232 -0.183956,0.0232 0,0 -1.332069,-2.4061 -1.332069,-2.4061 0,0 -0.07984,-0.0222 -0.07984,-0.0222 0,0 -0.195231,-0.52195 -0.195231,-0.52195 0,0 -0.03107,-0.0444 -0.03107,-0.0444 0,0 -0.07977,-0.0223 -0.07977,-0.0223 0,0 -0.191713,-0.52231 -0.191713,-0.52231 0,0 -0.04072,0.005 -0.04072,0.005 0,0 -0.670231,-1.3781 -0.670231,-1.3781 0,0 -0.144367,-0.11143 -0.144367,-0.11143 0,0 -0.222688,-0.51822 -0.222688,-0.51822 0,0 -0.09429,-0.0365 -0.09429,-0.0365 0.0022,-0.10731 -0.05777,-0.24957 -0.180265,-0.4271 0,0 -0.132652,-0.19229 -0.132652,-0.19229 0,0 0,0 0,0 m 57.401504,-4.82875 c 0,0 0.0044,0.0274 0.0044,0.0274 0,0 -0.0391,0.0196 -0.0391,0.0196 0,0 0.03474,-0.0472 0.03474,-0.0472 0,0 0,0 0,0 m -11.37987,6.54648 c 0,0 -0.149202,0.2066 -0.149202,0.2066 0,0 0.143401,-0.0182 0.143401,-0.0182 0,0 0.07786,-0.19752 0.07786,-0.19752 0,0 -0.07204,0.009 -0.07204,0.009 0,0 0,0 0,0"
       id="path850" />
  </g>
</svg>
