<?xml version="1.0" encoding="UTF-8" standalone="no"?>
<svg
   xmlns:dc="http://purl.org/dc/elements/1.1/"
   xmlns:cc="http://creativecommons.org/ns#"
   xmlns:rdf="http://www.w3.org/1999/02/22-rdf-syntax-ns#"
   xmlns:svg="http://www.w3.org/2000/svg"
   xmlns="http://www.w3.org/2000/svg"
   xmlns:sodipodi="http://sodipodi.sourceforge.net/DTD/sodipodi-0.dtd"
   xmlns:inkscape="http://www.inkscape.org/namespaces/inkscape"
   xml:space="preserve"
   enable-background="new 0 0 408 96.5"
   viewBox="0 0 415.22351 103.47847"
   height="103.47847"
   width="415.22351"
   y="0px"
   x="0px"
   sodipodi:docname="residualvm.svg"
   inkscape:version="1.0 (4035a4fb49, 2020-05-01)"
   id="Capa_1"
   version="1.0"><metadata
   id="metadata18"><rdf:RDF><cc:Work
       rdf:about=""><dc:format>image/svg+xml</dc:format><dc:type
         rdf:resource="http://purl.org/dc/dcmitype/StillImage" /><dc:title></dc:title></cc:Work></rdf:RDF></metadata><defs
   id="defs16" />
<sodipodi:namedview
   lock-margins="true"
   inkscape:pagecheckerboard="true"
   inkscape:document-rotation="0"
   showgrid="false"
   pagecolor="#ffffff"
   objecttolerance="10"
   inkscape:zoom="0.61279461"
   inkscape:window-y="0"
   inkscape:window-x="0"
   inkscape:window-width="700"
   inkscape:window-maximized="0"
   inkscape:window-height="480"
   inkscape:pageshadow="2"
   inkscape:pageopacity="0"
   inkscape:cy="58.923112"
   inkscape:cx="207.15896"
   inkscape:current-layer="Capa_1"
   id="namedview218"
   guidetolerance="10"
   gridtolerance="10"
   fit-margin-top="5"
   fit-margin-right="5"
   fit-margin-left="5"
   fit-margin-bottom="5"
   borderopacity="1"
   bordercolor="#666666">
	</sodipodi:namedview>
<g
   transform="translate(3.3234988,3.0356137)"
   id="g13">
	<path
   id="path3"
   d="m 405.1,13.4 v 0 c -1.2,-1.3 -2.8,-2.2 -4.5,-2.4 l -10.9,-0.9 c -2.9,-0.3 -5.9,1.3 -7.2,3.9 0,0 -14.6,26.7 -21.6,39.4 C 357.1,39.5 349.4,10.7 349.4,10.7 348.6,7.8 346,5.6 343,5.2 L 331,4 C 329,3.8 327.1,4.5 325.8,5.8 325.5,4.9 325,4 324.4,3.4 323.1,2.2 321.5,1.7 319.8,2.1 L 305.4,5 c -2.2,0.4 -3.8,2.2 -4.1,4.4 0,0 -2.7,19.3 -4.6,33.9 -7.2,-12.9 -16.9,-30 -16.9,-30 -1.1,-1.9 -3.4,-3 -5.5,-2.5 l -15.9,3.3 c -1.7,0.3 -3,1.4 -3.7,3 -0.7,1.5 -0.6,3.3 0.3,4.7 l 0.4,0.7 c -1.7,-0.3 -3.3,-0.5 -5,-0.4 -6.1,0.3 -11.7,4.7 -10.5,12.2 0.2,1.1 0.2,2.3 0.3,3.7 -9.2,-4 -17.5,-2.8 -25.2,3 -1.7,-2.8 -4,-4.4 -6.9,-5.3 -4.1,-1.2 -8.1,-1 -12.1,0.5 -0.6,0.2 -1.6,0.3 -2.1,0 -3.1,-1.4 -6.3,-1.7 -9.6,-1.4 -0.6,0.1 -1.1,0.1 -1.6,0.2 -0.1,-0.3 -0.1,-0.3 -0.1,-0.4 0,-0.4 -0.1,-0.8 -0.1,-1.3 -0.2,-4.5 -1.5,-8.5 -5.3,-11.4 -4,-3.2 -9.5,-3.7 -14.3,-1.1 -4.3,2.3 -6,6.1 -5.3,11.7 0.1,1 0.3,2 0.4,2.9 -2.4,0.4 -4.5,0.6 -6.6,1.1 -2.1,0.6 -4.1,1.5 -6.2,2.3 0.2,-8.3 -4.7,-14.2 -12.4,-14.7 -3.7,-0.2 -7.1,0.7 -10,3.1 -3.6,3 -4.8,7.1 -4.4,11.8 -9.8,-3.8 -19,-2.7 -28,2.3 C 86.2,36.6 80.7,35.6 74.8,35.5 68.7,35.5 63,36 57.8,39.4 57.6,38.5 57.4,38 57.3,37.4 55.6,30.8 51.6,26.2 45.5,23.3 38.8,20.2 31.7,18.6 24.3,18.3 19.8,18.1 15.4,17.7 11,19 5.6,20.7 2,24.6 1.7,29.7 1.6,31.9 2,34 2.2,36.2 3.6,49.7 3.7,63.1 1.8,76.6 c -0.6,4.1 1,7.2 4.5,9.3 3.8,2.3 8.1,2.4 12.3,2.1 4.4,-0.3 8.5,-1.3 10.9,-5.8 3.1,5.3 8.1,5.8 13.1,5.9 5,0.2 10.1,0.2 13.9,-4 11.4,7.7 21.6,3.5 31.4,-2.4 3.5,1.7 6.7,3.5 10.1,4.7 7,2.5 13.9,1.7 20.6,-1.5 1,-0.5 1.6,-0.4 2.6,0.3 5,3.8 13.4,3.8 18.4,0.1 1,-0.7 1.8,-1.6 2.6,-2.4 0.6,0.4 1.2,0.8 1.7,1.2 4.9,3.1 10.3,4.6 16.1,3.9 2.5,-0.3 4.9,-1.2 7.3,0 0.4,0.2 1,0.1 1.4,0.1 4.1,-0.1 7.6,-1.4 10.2,-4.6 0.2,0.1 0.4,0.2 0.6,0.2 5.3,3.5 10.9,5 17.2,3.4 0.4,-0.1 0.8,-0.1 1.2,0 5.7,1.7 11.1,1.5 15.7,-2.8 0.2,0.1 0.4,0.1 0.5,0.2 5.8,3.2 11.9,5.2 18.6,2.9 0.4,-0.1 1,0 1.4,0.2 3.8,2 7.3,1.4 10.9,-0.6 0.5,-0.3 1.4,-0.4 2,-0.1 3.2,1.2 6.5,1.3 9.8,0.7 4.7,-0.8 9.8,-4.8 8.6,-11.6 -0.5,-2.5 -0.5,-5.1 -0.6,-7.6 -0.2,-9.1 -0.3,-18.3 -0.5,-27.4 0,-1.2 -0.2,-2.4 -0.5,-3.6 -0.2,-0.6 -0.3,-1.2 -0.5,-1.8 l 3,5 21.2,35.5 6.6,11.1 c 1.1,1.8 3.3,2.9 5.5,2.4 L 309,88 c 2.1,-0.4 3.8,-2.1 4.1,-4.2 l 0.2,-1 c 0.3,0.9 0.7,1.8 1.3,2.6 1.1,1.4 2.8,2.4 4.6,2.5 l 9.7,0.8 c 3.6,0.3 6.8,-2.3 7.3,-5.8 0,0 1.3,-9.8 2.7,-19.6 3.3,11.3 6.6,22.5 6.6,22.5 0.8,2.9 3.4,5 6.4,5.4 l 6.5,0.7 c 2.9,0.3 5.9,-1.3 7.3,-3.7 0,0 5.8,-10 11.5,-20 -0.8,9.3 -1.6,18.7 -1.6,18.7 0,0.2 0,0.4 0,0.6 0,3.4 2.6,6.4 6,6.7 l 11.6,1.2 c 1.8,0.2 3.5,-0.3 5,-1.5 1.4,-1.2 2.3,-2.8 2.4,-4.5 l 6.3,-70.7 c -0.1,-2.1 -0.6,-3.9 -1.8,-5.3 z M 48.6,81.2 c -3.4,0.3 -7,0.2 -10.4,-0.1 C 35.6,80.9 34.7,79.6 34.3,76.9 34,75.3 33.7,73.5 33,72 c -1.2,-2.5 -3.7,-3.6 -6,-3 -2.3,0.6 -3.8,2.7 -3.8,5.5 0,1.2 0.1,2.4 0.3,3.6 0.2,1.4 -0.3,2.2 -1.6,2.6 -4,1.3 -8,1.2 -11.9,-0.1 C 8.3,80 7.6,78.7 7.8,76.9 9.7,63.8 9.7,50.8 8.5,37.6 8.3,35.8 8,34 7.7,32.2 7,28.7 8.4,26.2 11.9,25 c 1.2,-0.4 2.4,-0.8 3.7,-1 1.4,-0.2 2.8,-0.2 4.2,-0.3 7.3,0.4 14.4,1.1 21.3,3.9 6.5,2.7 9.9,7.2 10.9,14 0.6,4.3 -0.8,7.8 -3.8,10.7 -0.9,0.8 -1.7,1.7 -2.6,2.6 -2.8,3 -3,5.2 -0.9,8.4 1.9,2.9 4.1,5.6 6.1,8.4 0.7,1.1 1.2,2.3 1.6,3.6 0.7,3.3 -0.5,5.5 -3.8,5.9 z M 87,54.5 c -0.2,4 -2.5,6.7 -6.1,8.1 -3.7,1.4 -7.5,2.5 -11.2,3.7 -0.4,0.1 -0.9,0.1 -1.2,0.4 -0.4,0.4 -1,1.1 -0.9,1.5 0.1,0.4 0.9,1 1.4,1 1.1,-0.1 2.2,-0.4 3.3,-0.7 2.8,-0.8 5.5,-1.8 8.3,-2.6 3.1,-0.8 4,-0.4 5.3,1.9 1.5,2.7 1.4,4.4 -0.6,6.6 -2.5,2.7 -5.8,4 -9.1,5.3 -1.5,0.6 -3,1.1 -4.6,1.5 -7.1,1.8 -18.4,-3 -19.8,-14.5 -0.9,-7.7 1,-14.8 7,-20.3 3.2,-2.9 7.1,-3.9 14,-3.9 2.8,0.1 6.2,0 9.3,1.7 4.2,2.3 5.1,6.1 4.9,10.3 z m 34.3,0.2 c -1.2,4.3 -3.1,5.1 -7.2,2.9 -2,-1.1 -4.1,-2 -6.2,-3 -0.9,-0.4 -1.8,-0.5 -2.3,0.6 -0.5,1.1 0.3,1.5 1.1,1.9 2.7,1.4 5.3,2.8 8,4.3 2.6,1.4 4.7,3.3 5.9,6.2 1.2,3.1 -0.4,9.8 -4.4,11.6 -6.3,2.8 -12.6,3.4 -18.9,0.2 -1.9,-0.9 -3.8,-1.9 -5.5,-3.1 -3.5,-2.5 -3.3,-7.8 0.4,-9.9 0.5,-0.3 1.4,-0.3 2.1,-0.1 2,0.7 3.9,1.5 5.9,2.3 1.2,0.5 2.3,1.1 3.5,1.3 0.7,0.2 1.5,-0.2 2.3,-0.3 -0.5,-0.6 -0.9,-1.5 -1.6,-1.9 -1.5,-0.8 -3.1,-1.3 -4.6,-2 C 97.6,64.5 95.4,63.4 93.4,61.9 88.2,58 88.6,51 94,47.4 c 4,-2.7 8.4,-3.4 13.1,-3.6 4.3,-0.1 8.1,1.4 11.6,3.5 2.9,1.8 3.6,4 2.6,7.4 z m 15.8,-2.5 c -1.2,5.9 -1.7,11.8 -1.3,17.8 0.2,2.2 0.6,4.3 1,6.4 0.4,2 0,3.2 -1.9,4.1 -1.4,0.7 -3.1,1 -4.5,1.4 -1.7,-0.4 -3.2,-0.7 -4.6,-1.2 -1.7,-0.6 -2.5,-2.1 -2.2,-3.9 1.6,-8.6 1.7,-17.2 0.5,-25.8 -0.2,-1.5 0.3,-2.8 1.6,-3.6 2.4,-1.7 5.2,-2.1 8,-1.3 2.8,0.8 4,3 3.4,6.1 z m -5.6,-8.7 c -4.2,-0.1 -7,-2.7 -6.9,-6.5 0.1,-3.6 3.2,-6.3 7.3,-6.2 3.6,0.1 6.4,3.1 6.4,6.6 -0.1,3.7 -2.8,6.2 -6.8,6.1 z m 42.3,29 c 0.2,1.2 0.6,2.5 0.7,3.7 0.2,2.1 -0.7,3.7 -2.6,4.6 -2,0.9 -4.1,1.4 -5.9,-0.3 -1,-0.9 -1.8,-1 -2.9,-0.2 -3.6,2.4 -7.5,1.6 -11.2,0.5 -9.1,-2.5 -14.5,-10.8 -13,-20.1 0.5,-3.2 1.5,-6.5 2.9,-9.5 2.9,-6.3 8.2,-9.4 15.2,-9.7 1.3,-0.1 2.7,-0.1 4,-0.2 2.2,-0.3 3.1,-1.2 3.1,-3.5 0,-2.2 -0.3,-4.4 -0.6,-6.7 -0.3,-3 0.3,-4.3 2.5,-5.4 2.3,-1.2 5.4,-0.8 7.2,0.8 2,1.7 2.6,4 2.8,6.5 0.1,1.3 0,2.5 0,3.8 0.1,0 0.2,0 0.3,0 -0.6,5.6 -1.3,11.1 -1.9,16.7 -0.7,6.3 -1.7,12.6 -0.6,19 z m 35.3,6.3 c -0.5,0.9 -1.3,2.1 -2.3,2.4 -2.6,0.8 -5.4,1.5 -7.8,-0.9 -0.5,-0.5 -1.9,-0.2 -2.8,0.1 -5.1,1.9 -9.7,0.9 -13.8,-2.4 -3.1,-2.6 -4.5,-6.3 -5.1,-10.2 -1.2,-7.1 -0.5,-14.2 0.5,-21.3 0.2,-1.3 1.5,-2.6 2.6,-3.4 2.6,-1.8 5.7,-1.9 8.7,-1.4 2.4,0.4 3.6,2 3.5,4.3 -0.2,4.3 -0.6,8.7 -0.8,13 -0.1,1.8 0.1,3.6 0.3,5.4 0.1,0.6 0.8,1.2 1.3,1.7 0.5,-0.5 1.3,-1 1.5,-1.6 0.4,-1.3 0.6,-2.7 0.7,-4.1 0.1,-2.2 0,-4.5 0,-6.7 -0.1,0 -0.2,0 -0.3,0 0,-2.1 -0.1,-4.2 0,-6.3 0.2,-3.7 1,-4.9 4.7,-5.5 2.1,-0.3 4.3,-0.1 6.4,0.5 2.5,0.7 2.9,1.9 2.7,4.6 -0.3,6.3 -0.5,12.7 -0.5,19 0,3.3 0.7,6.6 0.9,9.9 0.3,0.9 0.1,2 -0.4,2.9 z m 33.4,1.3 c -2.2,2.1 -4.7,2.3 -6.9,0.1 -1.1,-1.1 -1.8,-1.1 -3.1,-0.4 -6.7,3.7 -18.3,-0.2 -20.2,-9.2 -0.5,-2.5 -0.8,-5.1 -1.1,-6.6 0.2,-9 3.2,-15.3 9.8,-19.7 6,-4 14.9,-3.1 19.7,1.9 1.6,1.7 2.2,3.6 2,5.8 -0.8,7.1 -0.2,14.1 1.5,21 0.7,2.7 0.4,5.1 -1.7,7.1 z m 15.6,0.3 c -3.3,1.8 -6.7,1.6 -10,0 -1.3,-0.7 -2,-1.9 -2,-3.4 0,-0.8 0,-1.6 0,-2.4 0.1,0 0.2,0 0.2,0 0,-9.7 0.1,-19.5 0,-29.2 -0.1,-4.3 -0.6,-8.7 -0.9,-13 -0.2,-2.6 0.6,-4.1 3,-4.9 3.2,-1.1 6.3,-1.1 9.2,0.7 1.4,0.9 1.9,2.1 1.9,3.8 -0.3,10.3 -0.6,20.6 -0.6,31 0,4.7 0.5,9.4 0.8,14.1 0.1,1.4 -0.3,2.5 -1.6,3.3 z M 386.9,16.5 c 0.4,-0.8 1.4,-1.3 2.3,-1.2 l 3.6,0.3 -3.8,11.1 h -7.7 z m -58.3,-6 c 0,-0.8 0.8,-1.3 1.7,-1.3 l 12,1.2 c 0.8,0.1 1.7,0.8 1.9,1.6 l 3.4,12.4 h -13.9 -0.3 l -0.1,0.3 -1.8,5.6 h -5.8 z m -22.4,1 c 0.1,-0.8 0.8,-1.7 1.7,-1.8 l 4.2,-0.8 v 3.3 l -1.1,0.8 -0.2,0.2 v 0.2 2.4 l -1.1,1.2 -0.1,0.2 v 0.2 7.1 l -1.4,1.2 h -4 z m -46.1,8.8 c -0.4,-0.8 -0.1,-1.4 0.8,-1.6 L 273.8,16 c 0.8,-0.2 1.8,0.3 2.3,1 l 2.7,4.8 h -2.9 -0.3 l -0.2,0.2 -0.8,1.1 h -4.3 -0.3 v 0.4 5.6 h -4.5 z m 5.9,9.9 4.3,-0.1 h 0.4 V 29.7 24 h 4.1 0.3 l 0.2,-0.2 0.8,-1.1 h 3.1 l 13.9,24.6 -11.1,9.1 z m 42,51 c -0.2,0.8 -0.9,1.6 -1.8,1.8 l -6.6,1.3 c -0.8,0.2 -1.8,-0.3 -2.3,-1 l -4.6,-7.7 9.3,-3.6 0.3,-0.1 v -0.3 -4.1 l 2.3,-1.8 h 3.3 0.2 l 0.1,-0.1 2.8,-2.2 z m 5,-29.9 h -3.7 v -9 l 1.2,-1.2 0.2,-0.2 v -0.2 -2.2 h 4.5 z m -2.8,-13.6 h -0.4 v 0.4 2.4 l -1.2,1.2 -0.2,0.2 v 0.2 9.7 0.4 h 0.4 4 l -1.7,9.9 -3.4,2.7 h -3.3 -0.2 l -0.1,0.1 -2.6,2 -0.2,0.2 v 0.3 4 l -9.1,3.4 -9.9,-17.3 11,-9.2 5.4,9.7 c 0.4,0.8 0.8,0.7 0.9,-0.2 l 4.3,-31.2 h 4.3 0.2 l 0.2,-0.1 1.7,-1.4 0.2,-0.2 v -0.3 -7.2 l 1.1,-1.2 0.1,-0.2 v -0.2 -2.4 l 1.1,-0.9 0.2,-0.2 V 12.1 8.7 l 6,-1.2 c 0.8,-0.2 1.3,0.3 1.3,1.2 l -5,29.1 h -5.1 z M 330.8,82 c -0.1,0.8 -0.9,1.4 -1.8,1.3 l -9.7,-0.8 c -0.8,-0.1 -1.4,-0.8 -1.3,-1.7 l 1.4,-9.8 12.6,1.5 z m 1.4,-10.3 -12.6,-1.5 0.9,-6 h 3.9 l 2.1,1.2 0.1,0.1 h 0.1 6.3 z m 13,-4.5 -7.9,-27.4 C 337,39 336.8,39 336.6,39.9 l -3.4,24.5 h -6.3 l -2.1,-1.2 -0.1,-0.1 h -0.1 -3.9 l 4.8,-31.9 h 6.2 0.3 l 0.1,-0.3 1.8,-5.6 h 13.9 l 6.7,24.8 h -6.6 -0.4 v 0.4 16.7 z m 50,21.4 c -0.1,0.8 -0.8,1.4 -1.7,1.3 l -5.6,-0.6 0.6,-8.1 2.9,-0.4 h 0.3 l 0.1,-0.3 0.8,-1.5 h 3.5 z m 0.9,-10.4 h -3.9 -0.3 l -0.1,0.3 -0.8,1.5 -3,0.4 -0.3,0.1 v 0.3 l -0.6,8.4 -5.1,-0.5 c -0.8,-0.1 -1.4,-0.8 -1.4,-1.7 l 2.1,-23.9 h 6.3 0.4 V 62.7 48.1 l 2.6,-9.4 h 7.6 z m 5.2,-60.2 -1.6,19.7 h -8.1 -0.3 l -0.1,0.3 -2.7,9.8 v 0.2 0.1 14.2 h -5.8 L 384,46.8 c 0.1,-0.8 -0.3,-0.9 -0.7,-0.2 L 361,85.5 c -0.4,0.8 -1.4,1.3 -2.3,1.2 L 352.2,86 c -0.8,-0.1 -1.7,-0.8 -1.9,-1.6 l -4.8,-16.2 h 2.4 0.4 V 67.8 51 h 6.3 l 3.9,14.8 c 0.3,0.8 0.8,0.8 1.1,0.2 l 21,-38.3 h 8.6 0.3 l 0.1,-0.3 3.9,-11.6 6.4,0.6 c 0.9,0 1.5,0.7 1.4,1.6 z"
   fill="#ffffff" />
	<path
   id="path5"
   d="m 28,38.9 c -3.2,0 -5.3,2.7 -5.3,6.5 0,4.4 2,6.7 5.7,6.6 3.9,-0.1 5.5,-2.1 5.4,-6.6 0,-3.7 -2.6,-6.6 -5.8,-6.5 z"
   fill="#ffffff" />
	<path
   id="path7"
   d="m 161.7,59.4 c -0.4,-2.5 -2,-4.4 -4.1,-4.8 -2,-0.4 -4.2,0.6 -5.4,2.5 -1.6,2.4 -1.2,7.3 0.8,9.4 1.9,2.1 5.4,2 7,-0.3 1,-1.5 1.5,-3.3 2.2,-5 -0.1,-0.1 -0.3,-0.1 -0.4,-0.2 -0.1,-0.5 -0.1,-1 -0.1,-1.6 z"
   fill="#ffffff" />
	<path
   id="path9"
   d="m 67.4,52 c -2,1.2 -2.9,2.9 -2.4,4.8 0.4,1.8 2,2.8 5,2.8 0.7,-0.3 2.1,-0.6 3.2,-1.3 2.3,-1.5 2.7,-4.3 1.1,-6.1 -1.4,-1.7 -4.4,-1.7 -6.9,-0.2 z"
   fill="#ffffff" />
	<path
   id="path11"
   d="m 224,57.3 c -0.7,1.3 -0.9,2.8 -1.4,4.5 0.5,1.5 0.8,3.1 1.7,4.4 1.6,2.5 5.5,2.5 7.3,0.1 2,-2.7 1.9,-7.3 -0.2,-9.8 -2.3,-2.6 -5.9,-2.2 -7.4,0.8 z"
   fill="#ffffff" />
</g>
</svg>
