<?xml version="1.0" encoding="utf-8"?>
<!-- Generator: Adobe Illustrator 21.1.0, SVG Export Plug-In . SVG Version: 6.00 Build 0)  -->
<svg version="1.0"
	 id="Capa_1" inkscape:version="0.92.2 (unknown)" sodipodi:docname="scummvm.svg" xmlns:cc="http://creativecommons.org/ns#" xmlns:dc="http://purl.org/dc/elements/1.1/" xmlns:inkscape="http://www.inkscape.org/namespaces/inkscape" xmlns:rdf="http://www.w3.org/1999/02/22-rdf-syntax-ns#" xmlns:sodipodi="http://sodipodi.sourceforge.net/DTD/sodipodi-0.dtd" xmlns:svg="http://www.w3.org/2000/svg"
	 xmlns="http://www.w3.org/2000/svg" xmlns:xlink="http://www.w3.org/1999/xlink" x="0px" y="0px" width="408px" height="96.5px"
	 viewBox="0 0 408 96.5" enable-background="new 0 0 408 96.5" xml:space="preserve">
<sodipodi:namedview  bordercolor="#666666" borderopacity="1" fit-margin-bottom="0" fit-margin-left="0" fit-margin-right="0" fit-margin-top="0" gridtolerance="10" guidetolerance="10" id="namedview218" inkscape:current-layer="Capa_1" inkscape:cx="203.83546" inkscape:cy="55.887498" inkscape:pageopacity="0" inkscape:pageshadow="2" inkscape:window-height="480" inkscape:window-maximized="0" inkscape:window-width="640" inkscape:window-x="0" inkscape:window-y="0" inkscape:zoom="0.61279461" objecttolerance="10" pagecolor="#ffffff" showgrid="false">
	</sodipodi:namedview>
<g>
	<path fill="#FFFFFF" d="M405.1,13.4L405.1,13.4c-1.2-1.3-2.8-2.2-4.5-2.4l-10.9-0.9c-2.9-0.3-5.9,1.3-7.2,3.9
		c0,0-14.6,26.7-21.6,39.4c-3.8-13.9-11.5-42.7-11.5-42.7c-0.8-2.9-3.4-5.1-6.4-5.5l-12-1.2c-2-0.2-3.9,0.5-5.2,1.8
		c-0.3-0.9-0.8-1.8-1.4-2.4c-1.3-1.2-2.9-1.7-4.6-1.3L305.4,5c-2.2,0.4-3.8,2.2-4.1,4.4c0,0-2.7,19.3-4.6,33.9
		c-7.2-12.9-16.9-30-16.9-30c-1.1-1.9-3.4-3-5.5-2.5l-15.9,3.3c-1.7,0.3-3,1.4-3.7,3c-0.7,1.5-0.6,3.3,0.3,4.7l0.4,0.7
		c-1.7-0.3-3.3-0.5-5-0.4c-6.1,0.3-11.7,4.7-10.5,12.2c0.2,1.1,0.2,2.3,0.3,3.7c-9.2-4-17.5-2.8-25.2,3c-1.7-2.8-4-4.4-6.9-5.3
		c-4.1-1.2-8.1-1-12.1,0.5c-0.6,0.2-1.6,0.3-2.1,0c-3.1-1.4-6.3-1.7-9.6-1.4c-0.6,0.1-1.1,0.1-1.6,0.2c-0.1-0.3-0.1-0.3-0.1-0.4
		c0-0.4-0.1-0.8-0.1-1.3c-0.2-4.5-1.5-8.5-5.3-11.4c-4-3.2-9.5-3.7-14.3-1.1c-4.3,2.3-6,6.1-5.3,11.7c0.1,1,0.3,2,0.4,2.9
		c-2.4,0.4-4.5,0.6-6.6,1.1c-2.1,0.6-4.1,1.5-6.2,2.3c0.2-8.3-4.7-14.2-12.4-14.7c-3.7-0.2-7.1,0.7-10,3.1c-3.6,3-4.8,7.1-4.4,11.8
		c-9.8-3.8-19-2.7-28,2.3c-4.2-4.7-9.7-5.7-15.6-5.8C68.7,35.5,63,36,57.8,39.4c-0.2-0.9-0.4-1.4-0.5-2c-1.7-6.6-5.7-11.2-11.8-14.1
		c-6.7-3.1-13.8-4.7-21.2-5c-4.5-0.2-8.9-0.6-13.3,0.7C5.6,20.7,2,24.6,1.7,29.7C1.6,31.9,2,34,2.2,36.2c1.4,13.5,1.5,26.9-0.4,40.4
		c-0.6,4.1,1,7.2,4.5,9.3c3.8,2.3,8.1,2.4,12.3,2.1c4.4-0.3,8.5-1.3,10.9-5.8c3.1,5.3,8.1,5.8,13.1,5.9c5,0.2,10.1,0.2,13.9-4
		c11.4,7.7,21.6,3.5,31.4-2.4c3.5,1.7,6.7,3.5,10.1,4.7c7,2.5,13.9,1.7,20.6-1.5c1-0.5,1.6-0.4,2.6,0.3c5,3.8,13.4,3.8,18.4,0.1
		c1-0.7,1.8-1.6,2.6-2.4c0.6,0.4,1.2,0.8,1.7,1.2c4.9,3.1,10.3,4.6,16.1,3.9c2.5-0.3,4.9-1.2,7.3,0c0.4,0.2,1,0.1,1.4,0.1
		c4.1-0.1,7.6-1.4,10.2-4.6c0.2,0.1,0.4,0.2,0.6,0.2c5.3,3.5,10.9,5,17.2,3.4c0.4-0.1,0.8-0.1,1.2,0c5.7,1.7,11.1,1.5,15.7-2.8
		c0.2,0.1,0.4,0.1,0.5,0.2c5.8,3.2,11.9,5.2,18.6,2.9c0.4-0.1,1,0,1.4,0.2c3.8,2,7.3,1.4,10.9-0.6c0.5-0.3,1.4-0.4,2-0.1
		c3.2,1.2,6.5,1.3,9.8,0.7c4.7-0.8,9.8-4.8,8.6-11.6c-0.5-2.5-0.5-5.1-0.6-7.6c-0.2-9.1-0.3-18.3-0.5-27.4c0-1.2-0.2-2.4-0.5-3.6
		c-0.2-0.6-0.3-1.2-0.5-1.8l3,5l21.2,35.5l6.6,11.1c1.1,1.8,3.3,2.9,5.5,2.4L309,88c2.1-0.4,3.8-2.1,4.1-4.2l0.2-1
		c0.3,0.9,0.7,1.8,1.3,2.6c1.1,1.4,2.8,2.4,4.6,2.5l9.7,0.8c3.6,0.3,6.8-2.3,7.3-5.8c0,0,1.3-9.8,2.7-19.6
		c3.3,11.3,6.6,22.5,6.6,22.5c0.8,2.9,3.4,5,6.4,5.4l6.5,0.7c2.9,0.3,5.9-1.3,7.3-3.7c0,0,5.8-10,11.5-20
		c-0.8,9.3-1.6,18.7-1.6,18.7c0,0.2,0,0.4,0,0.6c0,3.4,2.6,6.4,6,6.7l11.6,1.2c1.8,0.2,3.5-0.3,5-1.5c1.4-1.2,2.3-2.8,2.4-4.5
		l6.3-70.7C406.8,16.6,406.3,14.8,405.1,13.4z M48.6,81.2c-3.4,0.3-7,0.2-10.4-0.1c-2.6-0.2-3.5-1.5-3.9-4.2
		c-0.3-1.6-0.6-3.4-1.3-4.9c-1.2-2.5-3.7-3.6-6-3c-2.3,0.6-3.8,2.7-3.8,5.5c0,1.2,0.1,2.4,0.3,3.6c0.2,1.4-0.3,2.2-1.6,2.6
		c-4,1.3-8,1.2-11.9-0.1c-1.7-0.6-2.4-1.9-2.2-3.7c1.9-13.1,1.9-26.1,0.7-39.3c-0.2-1.8-0.5-3.6-0.8-5.4C7,28.7,8.4,26.2,11.9,25
		c1.2-0.4,2.4-0.8,3.7-1c1.4-0.2,2.8-0.2,4.2-0.3c7.3,0.4,14.4,1.1,21.3,3.9c6.5,2.7,9.9,7.2,10.9,14c0.6,4.3-0.8,7.8-3.8,10.7
		c-0.9,0.8-1.7,1.7-2.6,2.6c-2.8,3-3,5.2-0.9,8.4c1.9,2.9,4.1,5.6,6.1,8.4c0.7,1.1,1.2,2.3,1.6,3.6C53.1,78.6,51.9,80.8,48.6,81.2z
		 M87,54.5c-0.2,4-2.5,6.7-6.1,8.1c-3.7,1.4-7.5,2.5-11.2,3.7c-0.4,0.1-0.9,0.1-1.2,0.4c-0.4,0.4-1,1.1-0.9,1.5c0.1,0.4,0.9,1,1.4,1
		c1.1-0.1,2.2-0.4,3.3-0.7c2.8-0.8,5.5-1.8,8.3-2.6c3.1-0.8,4-0.4,5.3,1.9c1.5,2.7,1.4,4.4-0.6,6.6c-2.5,2.7-5.8,4-9.1,5.3
		c-1.5,0.6-3,1.1-4.6,1.5c-7.1,1.8-18.4-3-19.8-14.5c-0.9-7.7,1-14.8,7-20.3c3.2-2.9,7.1-3.9,14-3.9c2.8,0.1,6.2,0,9.3,1.7
		C86.3,46.5,87.2,50.3,87,54.5z M121.3,54.7c-1.2,4.3-3.1,5.1-7.2,2.9c-2-1.1-4.1-2-6.2-3c-0.9-0.4-1.8-0.5-2.3,0.6
		c-0.5,1.1,0.3,1.5,1.1,1.9c2.7,1.4,5.3,2.8,8,4.3c2.6,1.4,4.7,3.3,5.9,6.2c1.2,3.1-0.4,9.8-4.4,11.6c-6.3,2.8-12.6,3.4-18.9,0.2
		c-1.9-0.9-3.8-1.9-5.5-3.1c-3.5-2.5-3.3-7.8,0.4-9.9c0.5-0.3,1.4-0.3,2.1-0.1c2,0.7,3.9,1.5,5.9,2.3c1.2,0.5,2.3,1.1,3.5,1.3
		c0.7,0.2,1.5-0.2,2.3-0.3c-0.5-0.6-0.9-1.5-1.6-1.9c-1.5-0.8-3.1-1.3-4.6-2c-2.2-1.2-4.4-2.3-6.4-3.8C88.2,58,88.6,51,94,47.4
		c4-2.7,8.4-3.4,13.1-3.6c4.3-0.1,8.1,1.4,11.6,3.5C121.6,49.1,122.3,51.3,121.3,54.7z M137.1,52.2c-1.2,5.9-1.7,11.8-1.3,17.8
		c0.2,2.2,0.6,4.3,1,6.4c0.4,2,0,3.2-1.9,4.1c-1.4,0.7-3.1,1-4.5,1.4c-1.7-0.4-3.2-0.7-4.6-1.2c-1.7-0.6-2.5-2.1-2.2-3.9
		c1.6-8.6,1.7-17.2,0.5-25.8c-0.2-1.5,0.3-2.8,1.6-3.6c2.4-1.7,5.2-2.1,8-1.3C136.5,46.9,137.7,49.1,137.1,52.2z M131.5,43.5
		c-4.2-0.1-7-2.7-6.9-6.5c0.1-3.6,3.2-6.3,7.3-6.2c3.6,0.1,6.4,3.1,6.4,6.6C138.2,41.1,135.5,43.6,131.5,43.5z M173.8,72.5
		c0.2,1.2,0.6,2.5,0.7,3.7c0.2,2.1-0.7,3.7-2.6,4.6c-2,0.9-4.1,1.4-5.9-0.3c-1-0.9-1.8-1-2.9-0.2c-3.6,2.4-7.5,1.6-11.2,0.5
		c-9.1-2.5-14.5-10.8-13-20.1c0.5-3.2,1.5-6.5,2.9-9.5c2.9-6.3,8.2-9.4,15.2-9.7c1.3-0.1,2.7-0.1,4-0.2c2.2-0.3,3.1-1.2,3.1-3.5
		c0-2.2-0.3-4.4-0.6-6.7c-0.3-3,0.3-4.3,2.5-5.4c2.3-1.2,5.4-0.8,7.2,0.8c2,1.7,2.6,4,2.8,6.5c0.1,1.3,0,2.5,0,3.8
		c0.1,0,0.2,0,0.3,0c-0.6,5.6-1.3,11.1-1.9,16.7C173.7,59.8,172.7,66.1,173.8,72.5z M209.1,78.8c-0.5,0.9-1.3,2.1-2.3,2.4
		c-2.6,0.8-5.4,1.5-7.8-0.9c-0.5-0.5-1.9-0.2-2.8,0.1c-5.1,1.9-9.7,0.9-13.8-2.4c-3.1-2.6-4.5-6.3-5.1-10.2
		c-1.2-7.1-0.5-14.2,0.5-21.3c0.2-1.3,1.5-2.6,2.6-3.4c2.6-1.8,5.7-1.9,8.7-1.4c2.4,0.4,3.6,2,3.5,4.3c-0.2,4.3-0.6,8.7-0.8,13
		c-0.1,1.8,0.1,3.6,0.3,5.4c0.1,0.6,0.8,1.2,1.3,1.7c0.5-0.5,1.3-1,1.5-1.6c0.4-1.3,0.6-2.7,0.7-4.1c0.1-2.2,0-4.5,0-6.7
		c-0.1,0-0.2,0-0.3,0c0-2.1-0.1-4.2,0-6.3c0.2-3.7,1-4.9,4.7-5.5c2.1-0.3,4.3-0.1,6.4,0.5c2.5,0.7,2.9,1.9,2.7,4.6
		c-0.3,6.3-0.5,12.7-0.5,19c0,3.3,0.7,6.6,0.9,9.9C209.8,76.8,209.6,77.9,209.1,78.8z M242.5,80.1c-2.2,2.1-4.7,2.3-6.9,0.1
		c-1.1-1.1-1.8-1.1-3.1-0.4c-6.7,3.7-18.3-0.2-20.2-9.2c-0.5-2.5-0.8-5.1-1.1-6.6c0.2-9,3.2-15.3,9.8-19.7c6-4,14.9-3.1,19.7,1.9
		c1.6,1.7,2.2,3.6,2,5.8c-0.8,7.1-0.2,14.1,1.5,21C244.9,75.7,244.6,78.1,242.5,80.1z M258.1,80.4c-3.3,1.8-6.7,1.6-10,0
		c-1.3-0.7-2-1.9-2-3.4c0-0.8,0-1.6,0-2.4c0.1,0,0.2,0,0.2,0c0-9.7,0.1-19.5,0-29.2c-0.1-4.3-0.6-8.7-0.9-13c-0.2-2.6,0.6-4.1,3-4.9
		c3.2-1.1,6.3-1.1,9.2,0.7c1.4,0.9,1.9,2.1,1.9,3.8c-0.3,10.3-0.6,20.6-0.6,31c0,4.7,0.5,9.4,0.8,14.1
		C259.8,78.5,259.4,79.6,258.1,80.4z M386.9,16.5c0.4-0.8,1.4-1.3,2.3-1.2l3.6,0.3L389,26.7h-7.7L386.9,16.5z M328.6,10.5
		c0-0.8,0.8-1.3,1.7-1.3l12,1.2c0.8,0.1,1.7,0.8,1.9,1.6l3.4,12.4h-13.9h-0.3l-0.1,0.3l-1.8,5.6h-5.8L328.6,10.5z M306.2,11.5
		c0.1-0.8,0.8-1.7,1.7-1.8l4.2-0.8v3.3L311,13l-0.2,0.2v0.2v2.4l-1.1,1.2l-0.1,0.2v0.2v7.1l-1.4,1.2h-4L306.2,11.5z M260.1,20.3
		c-0.4-0.8-0.1-1.4,0.8-1.6l12.9-2.7c0.8-0.2,1.8,0.3,2.3,1l2.7,4.8h-2.9h-0.3l-0.2,0.2l-0.8,1.1h-4.3h-0.3v0.4v5.6h-4.5L260.1,20.3
		z M266,30.2l4.3-0.1h0.4v-0.4V24h4.1h0.3l0.2-0.2l0.8-1.1h3.1l13.9,24.6l-11.1,9.1L266,30.2z M308,81.2c-0.2,0.8-0.9,1.6-1.8,1.8
		l-6.6,1.3c-0.8,0.2-1.8-0.3-2.3-1l-4.6-7.7L302,72l0.3-0.1v-0.3v-4.1l2.3-1.8h3.3h0.2l0.1-0.1l2.8-2.2L308,81.2z M313,51.3h-3.7v-9
		l1.2-1.2l0.2-0.2v-0.2v-2.2h4.5L313,51.3z M310.2,37.7h-0.4v0.4v2.4l-1.2,1.2l-0.2,0.2v0.2v9.7v0.4h0.4h4l-1.7,9.9l-3.4,2.7h-3.3
		h-0.2l-0.1,0.1l-2.6,2l-0.2,0.2v0.3v4l-9.1,3.4l-9.9-17.3l11-9.2l5.4,9.7c0.4,0.8,0.8,0.7,0.9-0.2l4.3-31.2h4.3h0.2l0.2-0.1
		l1.7-1.4l0.2-0.2v-0.3v-7.2l1.1-1.2l0.1-0.2v-0.2v-2.4l1.1-0.9l0.2-0.2v-0.2V8.7l6-1.2c0.8-0.2,1.3,0.3,1.3,1.2l-5,29.1H310.2z
		 M330.8,82c-0.1,0.8-0.9,1.4-1.8,1.3l-9.7-0.8c-0.8-0.1-1.4-0.8-1.3-1.7l1.4-9.8l12.6,1.5L330.8,82z M332.2,71.7l-12.6-1.5l0.9-6
		h3.9l2.1,1.2l0.1,0.1h0.1h6.3L332.2,71.7z M345.2,67.2l-7.9-27.4c-0.3-0.8-0.5-0.8-0.7,0.1l-3.4,24.5h-6.3l-2.1-1.2l-0.1-0.1h-0.1
		h-3.9l4.8-31.9h6.2h0.3l0.1-0.3l1.8-5.6h13.9l6.7,24.8h-6.6h-0.4v0.4v16.7H345.2z M395.2,88.6c-0.1,0.8-0.8,1.4-1.7,1.3l-5.6-0.6
		l0.6-8.1l2.9-0.4h0.3l0.1-0.3l0.8-1.5h3.5L395.2,88.6z M396.1,78.2h-3.9h-0.3l-0.1,0.3l-0.8,1.5l-3,0.4l-0.3,0.1v0.3l-0.6,8.4
		l-5.1-0.5c-0.8-0.1-1.4-0.8-1.4-1.7l2.1-23.9h6.3h0.4v-0.4V48.1l2.6-9.4h7.6L396.1,78.2z M401.3,18l-1.6,19.7h-8.1h-0.3l-0.1,0.3
		l-2.7,9.8V48v0.1v14.2h-5.8l1.3-15.5c0.1-0.8-0.3-0.9-0.7-0.2L361,85.5c-0.4,0.8-1.4,1.3-2.3,1.2l-6.5-0.7
		c-0.8-0.1-1.7-0.8-1.9-1.6l-4.8-16.2h2.4h0.4v-0.4V51h6.3l3.9,14.8c0.3,0.8,0.8,0.8,1.1,0.2l21-38.3h8.6h0.3l0.1-0.3l3.9-11.6
		l6.4,0.6C400.8,16.4,401.4,17.1,401.3,18z"/>
	<path fill="#FFFFFF" d="M28,38.9c-3.2,0-5.3,2.7-5.3,6.5c0,4.4,2,6.7,5.7,6.6c3.9-0.1,5.5-2.1,5.4-6.6C33.8,41.7,31.2,38.8,28,38.9
		z"/>
	<path fill="#FFFFFF" d="M161.7,59.4c-0.4-2.5-2-4.4-4.1-4.8c-2-0.4-4.2,0.6-5.4,2.5c-1.6,2.4-1.2,7.3,0.8,9.4c1.9,2.1,5.4,2,7-0.3
		c1-1.5,1.5-3.3,2.2-5c-0.1-0.1-0.3-0.1-0.4-0.2C161.7,60.5,161.7,60,161.7,59.4z"/>
	<path fill="#FFFFFF" d="M67.4,52c-2,1.2-2.9,2.9-2.4,4.8c0.4,1.8,2,2.8,5,2.8c0.7-0.3,2.1-0.6,3.2-1.3c2.3-1.5,2.7-4.3,1.1-6.1
		C72.9,50.5,69.9,50.5,67.4,52z"/>
	<path fill="#FFFFFF" d="M224,57.3c-0.7,1.3-0.9,2.8-1.4,4.5c0.5,1.5,0.8,3.1,1.7,4.4c1.6,2.5,5.5,2.5,7.3,0.1
		c2-2.7,1.9-7.3-0.2-9.8C229.1,53.9,225.5,54.3,224,57.3z"/>
</g>
</svg>
