<?xml version="1.0" encoding="utf-8"?>
<!-- Generator: Adobe Illustrator 21.1.0, SVG Export Plug-In . SVG Version: 6.00 Build 0)  -->
<svg version="1.0" id="Capa_1" xmlns="http://www.w3.org/2000/svg" xmlns:xlink="http://www.w3.org/1999/xlink" x="0px" y="0px"
	 width="466.9px" height="96.9px" viewBox="0 0 466.9 96.9" enable-background="new 0 0 466.9 96.9" xml:space="preserve">
<g>
	<path fill="#FFFFFF" d="M101.3,22.2c-0.7,1-1.3,1.7-1.9,2.2c-0.7,0.5-1.5,0.8-2.6,0.8c-1,0-1.9-0.3-3.1-0.8
		c-1.2-0.7-2.2-1.3-3.6-1.9c-1.3-0.8-2.9-1.5-4.7-1.9c-1.6-0.8-3.6-1.2-5.8-1.2c-3.9,0-6.7,0.8-8.6,2.4s-2.7,3.9-2.7,6.7
		c0,1.7,0.5,3.2,1.6,4.4c1.2,1.2,2.6,2.2,4.5,3.1c1.7,0.8,3.9,1.6,6.3,2.2c2.4,0.7,4.8,1.5,7.3,2.4c2.4,0.8,4.8,1.9,7.3,3.1
		c2.4,1.2,4.5,2.6,6.3,4.5c1.7,1.7,3.4,4.1,4.5,6.7c1.2,2.6,1.6,5.8,1.6,9.4c0,4.1-0.7,7.9-2.1,11.5c-1.5,3.6-3.4,6.7-6.2,9.4
		c-2.7,2.6-6,4.7-9.9,6.3c-3.9,1.6-8.4,2.2-13.4,2.2c-2.7,0-5.5-0.3-8.4-0.8c-2.9-0.7-5.7-1.3-8.2-2.4c-2.6-1-5.2-2.2-7.4-3.7
		c-2.4-1.5-4.4-3.1-6.2-4.7l6.2-9.6c0.5-0.7,1.2-1.3,1.9-1.7c0.8-0.5,1.6-0.7,2.6-0.7c1.3,0,2.4,0.3,3.7,1.2
		c1.3,0.9,2.6,1.6,4.3,2.6s3.4,1.7,5.3,2.6c1.9,0.8,4.4,1.2,7.2,1.2c3.7,0,6.7-0.8,8.7-2.4s3.1-4.3,3.1-7.7c0-2.1-0.7-3.7-1.7-5
		c-1.2-1.3-2.6-2.4-4.5-3.2c-1.7-0.8-3.9-1.6-6.3-2.2c-2.4-0.7-4.7-1.3-7.3-2.1c-2.4-0.8-4.8-1.7-7.3-2.9c-2.6-1.5-4.7-2.9-6.5-4.8
		c-1.7-1.9-3.4-4.3-4.5-7.2c-1.2-2.7-1.7-6.3-1.7-10.3c0-3.2,0.7-6.5,1.9-9.7s3.2-6,5.8-8.4s5.8-4.4,9.6-6c3.7-1.5,8.1-2.2,13-2.2
		c2.7,0,5.3,0.2,7.9,0.7s5,1.2,7.3,1.9s4.5,1.7,6.5,2.9s3.7,2.4,5.3,3.9L101.3,22.2z"/>
	<path fill="#FFFFFF" d="M140.3,20v20.7h27.8v15.2h-27.8V77h36.4v15.9h-57V4.2h57v15.9L140.3,20L140.3,20L140.3,20z"/>
	<path fill="#FFFFFF" d="M252.7,20.5h-24.9v72.1h-20.4V20.5h-24.9V4.2h70.2L252.7,20.5L252.7,20.5z"/>
	<path fill="#FFFFFF" d="M299.9,76.4c2.7,0,5.2-0.5,7.4-1.3c2.1-1,4.1-2.2,5.5-3.9c1.5-1.7,2.6-3.7,3.4-6.2c0.8-2.4,1.2-5.2,1.2-8.4
		V4.2H338v52.5c0,5.5-0.8,10.3-2.6,14.9c-1.7,4.5-4.3,8.4-7.6,11.6c-3.2,3.2-7.3,5.8-12,7.6c-4.7,1.7-10.1,2.7-15.9,2.7
		c-6,0-11.1-1-15.9-2.7c-4.7-1.7-8.7-4.4-12-7.6c-3.2-3.2-5.8-7.2-7.6-11.6c-1.7-4.5-2.6-9.6-2.6-14.9V4.2h20.6v52.2
		c0,3.1,0.3,5.8,1.2,8.4c0.8,2.4,1.9,4.5,3.4,6.3c1.5,1.7,3.4,3.1,5.5,3.9C294.8,76,297.2,76.4,299.9,76.4z"/>
	<path fill="#FFFFFF" d="M385.2,4.2c6.2,0,11.6,0.8,16.1,2.2c4.5,1.5,8.1,3.6,11,6.2s5,5.7,6.5,9.2c1.3,3.6,2.1,7.3,2.1,11.3
		c0,4.4-0.7,8.4-2.1,12.1s-3.6,6.8-6.5,9.6c-2.9,2.6-6.7,4.7-11,6.2c-4.5,1.5-9.7,2.2-15.9,2.2h-10.6v29.6h-20.6V4.2H385.2z
		 M385.2,47.6c5.3,0,9.2-1.3,11.5-3.9c2.2-2.6,3.6-6.2,3.6-10.6c0-1.9-0.3-3.9-1-5.5s-1.5-3.1-2.7-4.3c-1.3-1.2-2.7-2.1-4.7-2.7
		s-4.1-1-6.7-1h-10.6v27.9C374.6,47.6,385.2,47.6,385.2,47.6z"/>
</g>
</svg>
