<?xml version="1.0" encoding="UTF-8" standalone="no"?>
<!-- Generator: Adobe Illustrator 21.1.0, SVG Export Plug-In . SVG Version: 6.00 Build 0)  -->

<svg
   xmlns:dc="http://purl.org/dc/elements/1.1/"
   xmlns:cc="http://creativecommons.org/ns#"
   xmlns:rdf="http://www.w3.org/1999/02/22-rdf-syntax-ns#"
   xmlns:svg="http://www.w3.org/2000/svg"
   xmlns="http://www.w3.org/2000/svg"
   xmlns:sodipodi="http://sodipodi.sourceforge.net/DTD/sodipodi-0.dtd"
   xmlns:inkscape="http://www.inkscape.org/namespaces/inkscape"
   version="1.0"
   id="Capa_1"
   x="0px"
   y="0px"
   width="375"
   height="90.099998"
   viewBox="0 0 375 90.099997"
   enable-background="new 0 0 466.9 96.9"
   xml:space="preserve"
   sodipodi:docname="retropie.svg"
   inkscape:version="0.92.2 (unknown)"><metadata
     id="metadata198"><rdf:RDF><cc:Work
         rdf:about=""><dc:format>image/svg+xml</dc:format><dc:type
           rdf:resource="http://purl.org/dc/dcmitype/StillImage" /></cc:Work></rdf:RDF></metadata><defs
     id="defs196" /><sodipodi:namedview
     pagecolor="#ffffff"
     bordercolor="#666666"
     borderopacity="1"
     objecttolerance="10"
     gridtolerance="10"
     guidetolerance="10"
     inkscape:pageopacity="0"
     inkscape:pageshadow="2"
     inkscape:window-width="640"
     inkscape:window-height="480"
     id="namedview194"
     showgrid="false"
     fit-margin-top="0"
     fit-margin-left="0"
     fit-margin-right="0"
     fit-margin-bottom="0"
     inkscape:zoom="0.58470765"
     inkscape:cx="187.55"
     inkscape:cy="45.249999"
     inkscape:window-x="0"
     inkscape:window-y="0"
     inkscape:window-maximized="0"
     inkscape:current-layer="Capa_1" /><g
     id="g191"
     transform="translate(-45.9,-3.6)"><path
       d="m 101.3,22.2 c -0.7,1 -1.3,1.7 -1.9,2.2 -0.7,0.5 -1.5,0.8 -2.6,0.8 -1,0 -1.9,-0.3 -3.1,-0.8 -1.2,-0.7 -2.2,-1.3 -3.6,-1.9 -1.3,-0.8 -2.9,-1.5 -4.7,-1.9 -1.6,-0.8 -3.6,-1.2 -5.8,-1.2 -3.9,0 -6.7,0.8 -8.6,2.4 -1.9,1.6 -2.7,3.9 -2.7,6.7 0,1.7 0.5,3.2 1.6,4.4 1.2,1.2 2.6,2.2 4.5,3.1 1.7,0.8 3.9,1.6 6.3,2.2 2.4,0.7 4.8,1.5 7.3,2.4 2.4,0.8 4.8,1.9 7.3,3.1 2.4,1.2 4.5,2.6 6.3,4.5 1.7,1.7 3.4,4.1 4.5,6.7 1.2,2.6 1.6,5.8 1.6,9.4 0,4.1 -0.7,7.9 -2.1,11.5 -1.5,3.6 -3.4,6.7 -6.2,9.4 -2.7,2.6 -6,4.7 -9.9,6.3 -3.9,1.6 -8.4,2.2 -13.4,2.2 -2.7,0 -5.5,-0.3 -8.4,-0.8 -2.9,-0.7 -5.7,-1.3 -8.2,-2.4 -2.6,-1 -5.2,-2.2 -7.4,-3.7 -2.4,-1.5 -4.4,-3.1 -6.2,-4.7 l 6.2,-9.6 c 0.5,-0.7 1.2,-1.3 1.9,-1.7 0.8,-0.5 1.6,-0.7 2.6,-0.7 1.3,0 2.4,0.3 3.7,1.2 1.3,0.9 2.6,1.6 4.3,2.6 1.7,1 3.4,1.7 5.3,2.6 1.9,0.8 4.4,1.2 7.2,1.2 3.7,0 6.7,-0.8 8.7,-2.4 2,-1.6 3.1,-4.3 3.1,-7.7 0,-2.1 -0.7,-3.7 -1.7,-5 C 86,61.3 84.6,60.2 82.7,59.4 81,58.6 78.8,57.8 76.4,57.2 74,56.5 71.7,55.9 69.1,55.1 66.7,54.3 64.3,53.4 61.8,52.2 59.2,50.7 57.1,49.3 55.3,47.4 53.6,45.5 51.9,43.1 50.8,40.2 49.6,37.5 49.1,33.9 49.1,29.9 c 0,-3.2 0.7,-6.5 1.9,-9.7 1.2,-3.2 3.2,-6 5.8,-8.4 2.6,-2.4 5.8,-4.4 9.6,-6 3.7,-1.5 8.1,-2.2 13,-2.2 2.7,0 5.3,0.2 7.9,0.7 2.6,0.5 5,1.2 7.3,1.9 2.3,0.7 4.5,1.7 6.5,2.9 2,1.2 3.7,2.4 5.3,3.9 z"
       id="path181"
       inkscape:connector-curvature="0"
       style="fill:#ffffff" /><path
       d="m 140.3,20 v 20.7 h 27.8 V 55.9 H 140.3 V 77 h 36.4 v 15.9 h -57 V 4.2 h 57 V 20.1 L 140.3,20 Z"
       id="path183"
       inkscape:connector-curvature="0"
       style="fill:#ffffff" /><path
       d="M 252.7,20.5 H 227.8 V 92.6 H 207.4 V 20.5 H 182.5 V 4.2 h 70.2 z"
       id="path185"
       inkscape:connector-curvature="0"
       style="fill:#ffffff" /><path
       d="m 299.9,76.4 c 2.7,0 5.2,-0.5 7.4,-1.3 2.1,-1 4.1,-2.2 5.5,-3.9 1.5,-1.7 2.6,-3.7 3.4,-6.2 0.8,-2.4 1.2,-5.2 1.2,-8.4 V 4.2 H 338 v 52.5 c 0,5.5 -0.8,10.3 -2.6,14.9 -1.7,4.5 -4.3,8.4 -7.6,11.6 -3.2,3.2 -7.3,5.8 -12,7.6 -4.7,1.7 -10.1,2.7 -15.9,2.7 -6,0 -11.1,-1 -15.9,-2.7 -4.7,-1.7 -8.7,-4.4 -12,-7.6 C 268.8,80 266.2,76 264.4,71.6 262.7,67.1 261.8,62 261.8,56.7 V 4.2 h 20.6 v 52.2 c 0,3.1 0.3,5.8 1.2,8.4 0.8,2.4 1.9,4.5 3.4,6.3 1.5,1.7 3.4,3.1 5.5,3.9 2.3,1 4.7,1.4 7.4,1.4 z"
       id="path187"
       inkscape:connector-curvature="0"
       style="fill:#ffffff" /><path
       d="m 385.2,4.2 c 6.2,0 11.6,0.8 16.1,2.2 4.5,1.5 8.1,3.6 11,6.2 2.9,2.6 5,5.7 6.5,9.2 1.3,3.6 2.1,7.3 2.1,11.3 0,4.4 -0.7,8.4 -2.1,12.1 -1.4,3.7 -3.6,6.8 -6.5,9.6 -2.9,2.6 -6.7,4.7 -11,6.2 -4.5,1.5 -9.7,2.2 -15.9,2.2 H 374.8 V 92.8 H 354.2 V 4.2 Z m 0,43.4 c 5.3,0 9.2,-1.3 11.5,-3.9 2.2,-2.6 3.6,-6.2 3.6,-10.6 0,-1.9 -0.3,-3.9 -1,-5.5 -0.7,-1.6 -1.5,-3.1 -2.7,-4.3 -1.3,-1.2 -2.7,-2.1 -4.7,-2.7 -2,-0.6 -4.1,-1 -6.7,-1 h -10.6 v 27.9 c 0,0.1 10.6,0.1 10.6,0.1 z"
       id="path189"
       inkscape:connector-curvature="0"
       style="fill:#ffffff" /></g></svg>