<?xml version="1.0" encoding="UTF-8" standalone="no"?>
<svg
   xmlns:dc="http://purl.org/dc/elements/1.1/"
   xmlns:cc="http://creativecommons.org/ns#"
   xmlns:rdf="http://www.w3.org/1999/02/22-rdf-syntax-ns#"
   xmlns:svg="http://www.w3.org/2000/svg"
   xmlns="http://www.w3.org/2000/svg"
   xmlns:sodipodi="http://sodipodi.sourceforge.net/DTD/sodipodi-0.dtd"
   xmlns:inkscape="http://www.inkscape.org/namespaces/inkscape"
   inkscape:version="1.0 (4035a4fb49, 2020-05-01)"
   sodipodi:docname="rpgs.svg"
   width="408.13431"
   height="118.26442"
   viewBox="0 0 107.98553 31.290795"
   version="1.1"
   id="svg8">
  <sodipodi:namedview
     inkscape:current-layer="svg8"
     inkscape:window-maximized="0"
     inkscape:window-y="0"
     inkscape:window-x="0"
     inkscape:cy="67.123722"
     inkscape:cx="204.36122"
     inkscape:zoom="2.6225"
     fit-margin-bottom="5"
     fit-margin-right="5"
     fit-margin-left="5"
     fit-margin-top="5"
     lock-margins="true"
     inkscape:pagecheckerboard="true"
     showgrid="false"
     id="namedview38"
     inkscape:window-height="480"
     inkscape:window-width="710"
     inkscape:pageshadow="2"
     inkscape:pageopacity="0"
     guidetolerance="10"
     gridtolerance="10"
     objecttolerance="10"
     borderopacity="1"
     bordercolor="#666666"
     pagecolor="#ffffff" />
  <defs
     id="defs2" />
  <metadata
     id="metadata5">
    <rdf:RDF>
      <cc:Work
         rdf:about="">
        <dc:format>image/svg+xml</dc:format>
        <dc:type
           rdf:resource="http://purl.org/dc/dcmitype/StillImage" />
        <dc:title></dc:title>
      </cc:Work>
    </rdf:RDF>
  </metadata>
  <g
     id="layer1"
     transform="translate(1.1539062,-259.39642)">
    <g
       aria-label="Role Playing "
       style="font-style:normal;font-variant:normal;font-weight:normal;font-stretch:extra-condensed;font-size:11.9912px;line-height:1.25;font-family:Ferrum;-inkscape-font-specification:'Ferrum, Extra-Condensed';font-variant-ligatures:normal;font-variant-caps:normal;font-variant-numeric:normal;font-feature-settings:normal;text-align:start;letter-spacing:0px;word-spacing:0px;writing-mode:lr-tb;text-anchor:start;fill:#ffffff;fill-opacity:1;stroke:#fffff9;stroke-width:0.1;stroke-miterlimit:4;stroke-dasharray:none;stroke-opacity:1"
       id="text12"
       transform="matrix(1.2496977,0,0,1.2496977,-2.8458842,-70.977664)">
      <path
         d="m 7.4659056,283.22928 c -0.2038498,-0.06 -0.4196907,-0.31177 -0.4676553,-0.59955 -0.2038497,-1.03124 -0.3477437,-1.95456 -0.5276111,-3.28558 -0.1079205,-0.82739 -0.299779,-1.12717 -1.0911957,-1.18713 0.9712841,-0.15588 1.6068156,-1.09119 1.6068156,-2.33827 0,-1.23509 -0.6235404,-2.30231 -2.086462,-2.25434 -0.5515935,0.024 -0.8273902,0.024 -1.0672134,0.024 -0.2518144,0 -0.7194697,0 -1.0552222,-0.024 v 0.19186 l 0.011991,0.024 c 0.2398232,0.0719 0.3957083,0.20385 0.4436729,0.51562 0.047965,0.34774 0.083938,0.85137 0.083938,4.2089 0,3.35752 -0.035973,3.86115 -0.083938,4.20889 -0.047965,0.31177 -0.2038497,0.44368 -0.4436729,0.51562 l -0.011991,0.024 v 0.19185 c 0.3357525,-0.024 0.8034078,-0.024 1.0552222,-0.024 0.2518144,0 0.7194697,0 1.0552222,0.024 v -0.19185 l -0.011991,-0.024 C 4.6359917,283.1574 4.4801066,283.02545 4.432142,282.71368 4.384177,282.36594 4.348204,281.6105 4.348204,278.44483 h 0.3117702 c 0.4796465,0 0.5755758,0.43168 0.6235404,0.91133 0.1798674,1.69075 0.3597349,2.88987 0.5276111,4.04102 l 0.023982,0.024 c 0.4796465,0 1.3070366,0 1.6427892,0.024 v -0.19185 z M 4.671965,278.10906 H 4.3482036 c 0,-2.67403 0.011991,-3.44147 0.047965,-4.13695 h 0.2877879 c 0.6954873,0 1.115178,0.59956 1.115178,1.99053 0,1.41496 -0.3837172,2.14642 -1.1271695,2.14642 z"
         style="font-style:normal;font-variant:normal;font-weight:normal;font-stretch:extra-condensed;font-size:11.9912px;font-family:Ferrum;-inkscape-font-specification:'Ferrum, Extra-Condensed';font-variant-ligatures:normal;font-variant-caps:normal;font-variant-numeric:normal;font-feature-settings:normal;text-align:start;writing-mode:lr-tb;text-anchor:start;fill:#ffffff;stroke:#fffff9;stroke-width:0.1;stroke-miterlimit:4;stroke-dasharray:none;stroke-opacity:1"
         id="path832" />
      <path
         d="m 10.307811,276.34636 c -1.1151782,0 -1.8106655,1.15115 -1.8106655,3.74124 0,2.24235 0.6355315,3.45345 1.7866835,3.45345 1.043231,0 1.810665,-1.2111 1.810665,-3.80119 0,-1.84664 -0.599558,-3.3935 -1.786683,-3.3935 z m 0,6.78699 c -0.5515936,0 -0.7554433,-0.85137 -0.7554433,-3.16566 0,-2.50615 0.1798674,-3.20164 0.7434523,-3.20164 0.587567,0 0.743452,1.06721 0.743452,3.08173 0,2.50615 -0.179868,3.28557 -0.731461,3.28557 z"
         style="font-style:normal;font-variant:normal;font-weight:normal;font-stretch:extra-condensed;font-size:11.9912px;font-family:Ferrum;-inkscape-font-specification:'Ferrum, Extra-Condensed';font-variant-ligatures:normal;font-variant-caps:normal;font-variant-numeric:normal;font-feature-settings:normal;text-align:start;writing-mode:lr-tb;text-anchor:start;fill:#ffffff;stroke:#fffff9;stroke-width:0.1;stroke-miterlimit:4;stroke-dasharray:none;stroke-opacity:1"
         id="path834" />
      <path
         d="m 14.234167,283.42114 c 0.791417,0 1.402966,0 2.110445,0.024 0,-0.58756 0.03597,-1.24708 0.07195,-1.91858 H 16.18873 l -0.02398,0.012 c -0.119911,0.56358 -0.203849,0.87536 -0.395708,1.15115 -0.215841,0.31177 -0.359735,0.37173 -0.62354,0.37173 -0.287788,0 -0.4077,-0.10792 -0.431682,-0.41969 -0.03597,-0.47965 -0.04796,-0.99527 -0.04796,-2.69801 0,-1.88262 0.03597,-2.41023 0.08394,-2.75797 0.04796,-0.31177 0.09593,-0.43168 0.287788,-0.5396 l 0.01199,-0.024 v -0.17986 c -0.335752,0.024 -0.563584,0.024 -0.815399,0.024 -0.251814,0 -0.479646,0 -0.815399,-0.024 v 0.17986 l 0.01199,0.024 c 0.191858,0.10792 0.239823,0.22783 0.287787,0.5396 0.04797,0.34774 0.08394,0.87535 0.08394,2.75797 0,1.88261 -0.03597,2.41022 -0.08394,2.75796 -0.04796,0.31177 -0.09593,0.44368 -0.287787,0.53961 l -0.01199,0.024 v 0.17986 c 0.335753,-0.024 0.563585,-0.024 0.815399,-0.024 z"
         style="font-style:normal;font-variant:normal;font-weight:normal;font-stretch:extra-condensed;font-size:11.9912px;font-family:Ferrum;-inkscape-font-specification:'Ferrum, Extra-Condensed';font-variant-ligatures:normal;font-variant-caps:normal;font-variant-numeric:normal;font-feature-settings:normal;text-align:start;writing-mode:lr-tb;text-anchor:start;fill:#ffffff;stroke:#fffff9;stroke-width:0.1;stroke-miterlimit:4;stroke-dasharray:none;stroke-opacity:1"
         id="path836" />
      <path
         d="m 18.309288,276.46627 c -0.251814,0 -0.479646,0 -0.815399,-0.024 v 0.17986 l 0.01199,0.024 c 0.191858,0.10792 0.239823,0.22783 0.287787,0.5396 0.04797,0.34774 0.08394,0.87535 0.08394,2.75797 0,1.88261 -0.03597,2.41022 -0.08394,2.75796 -0.04796,0.31177 -0.09593,0.44368 -0.287787,0.53961 l -0.01199,0.024 v 0.17986 c 0.335753,-0.024 0.563585,-0.024 0.815399,-0.024 0.791417,0 1.402966,0 2.110445,0.024 0,-0.58756 0.03597,-1.24708 0.07195,-1.91858 h -0.227832 l -0.02398,0.012 c -0.119911,0.56358 -0.203849,0.87536 -0.395708,1.15115 -0.215841,0.31177 -0.359735,0.37173 -0.62354,0.37173 -0.287788,0 -0.4077,-0.10792 -0.431682,-0.41969 -0.03597,-0.47965 -0.04796,-0.98328 -0.04796,-2.56611 h 0.155885 c 0.251815,0 0.395709,0.072 0.51562,0.29978 0.119912,0.23982 0.167876,0.38371 0.20385,0.79141 l 0.02398,0.012 h 0.227832 c -0.01199,-0.2758 -0.02398,-0.73147 -0.02398,-1.25908 0,-0.52761 0.01199,-0.98327 0.02398,-1.25907 h -0.227832 l -0.02398,0.012 c -0.03597,0.4077 -0.08394,0.5516 -0.20385,0.79142 -0.119911,0.22783 -0.263805,0.29978 -0.51562,0.29978 H 18.74097 c 0,-2.67403 0.01199,-2.24235 0.04796,-2.93784 h 0.167876 c 0.467655,0 0.755443,0.10792 0.947302,0.44368 0.191858,0.32376 0.263805,0.61155 0.299779,1.0792 l 0.02398,0.012 h 0.227832 c -0.03597,-0.6715 -0.07195,-1.46292 -0.07195,-1.91858 -0.743452,0.024 -1.331019,0.024 -2.074471,0.024 z"
         style="font-style:normal;font-variant:normal;font-weight:normal;font-stretch:extra-condensed;font-size:11.9912px;font-family:Ferrum;-inkscape-font-specification:'Ferrum, Extra-Condensed';font-variant-ligatures:normal;font-variant-caps:normal;font-variant-numeric:normal;font-feature-settings:normal;text-align:start;writing-mode:lr-tb;text-anchor:start;fill:#ffffff;stroke:#fffff9;stroke-width:0.1;stroke-miterlimit:4;stroke-dasharray:none;stroke-opacity:1"
         id="path838" />
      <path
         d="m 26.62085,278.44481 c 0,-2.67403 0.01199,-3.77722 0.04796,-4.4727 h 0.287788 c 0.695487,0 1.175134,0.59956 1.175134,1.99053 0,1.34301 -0.347744,1.97854 -1.175134,2.25434 -0.04797,0.024 -0.08394,0.072 -0.07195,0.11991 0.03597,0.0959 0.07195,0.15589 0.155885,0.22783 1.199116,-0.16787 2.278321,-1.0792 2.278321,-2.74597 0,-1.23509 -0.683496,-2.30231 -2.146418,-2.25434 -0.551593,0.024 -0.82739,0.024 -1.067213,0.024 -0.251815,0 -0.71947,0 -1.055223,-0.024 v 0.19186 l 0.01199,0.024 c 0.239823,0.0719 0.395708,0.20385 0.443673,0.51562 0.04796,0.34774 0.08394,0.85137 0.08394,4.2089 0,3.35752 -0.03597,3.86115 -0.08394,4.20889 -0.04797,0.31177 -0.20385,0.44368 -0.443673,0.51562 l -0.01199,0.024 v 0.19185 c 0.335753,-0.024 0.803408,-0.024 1.055223,-0.024 0.251814,0 0.719469,0 1.055222,0.024 v -0.19185 l -0.01199,-0.024 c -0.239824,-0.0719 -0.395709,-0.20385 -0.443673,-0.51562 -0.04797,-0.34774 -0.08394,-1.10318 -0.08394,-4.26885 z"
         style="font-style:normal;font-variant:normal;font-weight:normal;font-stretch:extra-condensed;font-size:11.9912px;font-family:Ferrum;-inkscape-font-specification:'Ferrum, Extra-Condensed';font-variant-ligatures:normal;font-variant-caps:normal;font-variant-numeric:normal;font-feature-settings:normal;text-align:start;writing-mode:lr-tb;text-anchor:start;fill:#ffffff;stroke:#fffff9;stroke-width:0.1;stroke-miterlimit:4;stroke-dasharray:none;stroke-opacity:1"
         id="path840" />
      <path
         d="m 31.143578,283.42114 c 0.791417,0 1.402966,0 2.110444,0.024 0,-0.58756 0.03597,-1.24708 0.07195,-1.91858 H 33.09814 l -0.02398,0.012 c -0.119912,0.56358 -0.20385,0.87536 -0.395708,1.15115 -0.215841,0.31177 -0.359735,0.37173 -0.623541,0.37173 -0.287788,0 -0.407699,-0.10792 -0.431682,-0.41969 -0.03597,-0.47965 -0.04796,-0.99527 -0.04796,-2.69801 0,-1.88262 0.03597,-2.41023 0.08394,-2.75797 0.04796,-0.31177 0.09593,-0.43168 0.287788,-0.5396 l 0.01199,-0.024 v -0.17986 c -0.335753,0.024 -0.563585,0.024 -0.815399,0.024 -0.251815,0 -0.479647,0 -0.815399,-0.024 v 0.17986 l 0.01199,0.024 c 0.191859,0.10792 0.239823,0.22783 0.287788,0.5396 0.04797,0.34774 0.08394,0.87535 0.08394,2.75797 0,1.88261 -0.03597,2.41022 -0.08394,2.75796 -0.04796,0.31177 -0.09593,0.44368 -0.287788,0.53961 l -0.01199,0.024 v 0.17986 c 0.335752,-0.024 0.563584,-0.024 0.815399,-0.024 z"
         style="font-style:normal;font-variant:normal;font-weight:normal;font-stretch:extra-condensed;font-size:11.9912px;font-family:Ferrum;-inkscape-font-specification:'Ferrum, Extra-Condensed';font-variant-ligatures:normal;font-variant-caps:normal;font-variant-numeric:normal;font-feature-settings:normal;text-align:start;writing-mode:lr-tb;text-anchor:start;fill:#ffffff;stroke:#fffff9;stroke-width:0.1;stroke-miterlimit:4;stroke-dasharray:none;stroke-opacity:1"
         id="path842" />
      <path
         d="m 37.832774,283.24128 c -0.215841,-0.0839 -0.347744,-0.22784 -0.4077,-0.53961 -0.443673,-2.20637 -0.815399,-4.28084 -1.13916,-6.53518 h -0.10792 c -0.263806,0.26381 -0.503629,0.43168 -0.803408,0.61155 l -0.02398,0.048 c -0.323761,2.08647 -0.707478,4.24487 -1.091195,5.87567 -0.07195,0.31177 -0.227832,0.46766 -0.443673,0.53961 l -0.01199,0.024 v 0.17986 c 0.215841,-0.024 0.347743,-0.024 0.539602,-0.024 0.191859,0 0.407699,0 0.62354,0.024 v -0.17986 l -0.01199,-0.024 c -0.155885,-0.072 -0.20385,-0.22784 -0.155885,-0.53961 0.05996,-0.46765 0.191859,-1.355 0.299779,-1.90659 0.155885,-0.012 0.287788,-0.024 0.455664,-0.024 0.20385,0 0.4077,0.012 0.563585,0.024 0.119911,0.63553 0.251814,1.55885 0.31177,2.08646 0.02398,0.20385 -0.07195,0.31177 -0.263806,0.35974 l -0.01199,0.024 v 0.17986 c 0.335753,-0.024 0.539603,-0.024 0.791417,-0.024 0.251814,0 0.563585,0 0.899337,0.024 v -0.17986 z m -2.254338,-2.78195 c -0.143894,0 -0.299779,-0.012 -0.431682,-0.024 0.131903,-0.95929 0.287788,-1.82265 0.503629,-2.68602 0.119911,0.6835 0.31177,1.9066 0.41969,2.68602 -0.155885,0.012 -0.299779,0.024 -0.491637,0.024 z"
         style="font-style:normal;font-variant:normal;font-weight:normal;font-stretch:extra-condensed;font-size:11.9912px;font-family:Ferrum;-inkscape-font-specification:'Ferrum, Extra-Condensed';font-variant-ligatures:normal;font-variant-caps:normal;font-variant-numeric:normal;font-feature-settings:normal;text-align:start;writing-mode:lr-tb;text-anchor:start;fill:#ffffff;stroke:#fffff9;stroke-width:0.1;stroke-miterlimit:4;stroke-dasharray:none;stroke-opacity:1"
         id="path844" />
      <path
         d="m 41.527735,276.46627 c -0.191858,0 -0.395708,0 -0.611549,-0.024 v 0.17986 l 0.01199,0.024 c 0.155885,0.0719 0.227832,0.22783 0.155885,0.5396 -0.10792,0.47965 -0.239823,0.89934 -0.707478,2.25434 -0.383717,-1.13916 -0.587567,-1.85863 -0.731461,-2.43421 -0.04796,-0.20385 0.04796,-0.31177 0.239823,-0.35973 l 0.01199,-0.024 v -0.17986 c -0.335752,0.024 -0.51562,0.024 -0.767434,0.024 -0.251814,0 -0.563585,0 -0.899337,-0.024 v 0.17986 l 0.01199,0.024 c 0.215841,0.0839 0.335752,0.15588 0.443673,0.45566 0.359735,1.01925 0.659514,1.91859 0.911328,2.86589 0.03597,0.14389 0.04796,0.22783 0.04796,0.37172 0,1.53487 -0.03597,2.02651 -0.08394,2.36226 -0.04797,0.31177 -0.09593,0.44368 -0.287788,0.53961 l -0.01199,0.024 v 0.17986 c 0.335752,-0.024 0.563584,-0.024 0.815399,-0.024 0.251814,0 0.479646,0 0.815399,0.024 v -0.17986 l -0.01199,-0.024 c -0.191858,-0.0959 -0.239823,-0.22784 -0.287787,-0.53961 -0.04796,-0.33575 -0.08394,-0.69548 -0.08394,-2.33827 0,-0.15589 0.03597,-0.22784 0.08394,-0.38372 0.251814,-0.87536 0.611549,-1.85863 0.995266,-2.87788 0.10792,-0.29978 0.251814,-0.38372 0.467655,-0.45566 l 0.01199,-0.024 v -0.17986 c -0.21584,0.024 -0.347743,0.024 -0.539602,0.024 z"
         style="font-style:normal;font-variant:normal;font-weight:normal;font-stretch:extra-condensed;font-size:11.9912px;font-family:Ferrum;-inkscape-font-specification:'Ferrum, Extra-Condensed';font-variant-ligatures:normal;font-variant-caps:normal;font-variant-numeric:normal;font-feature-settings:normal;text-align:start;writing-mode:lr-tb;text-anchor:start;fill:#ffffff;stroke:#fffff9;stroke-width:0.1;stroke-miterlimit:4;stroke-dasharray:none;stroke-opacity:1"
         id="path846" />
      <path
         d="m 44.128509,279.94371 c 0,-1.88262 0.03597,-2.41023 0.08394,-2.75797 0.04797,-0.31177 0.09593,-0.43168 0.287788,-0.5396 l 0.01199,-0.024 v -0.17986 c -0.335752,0.024 -0.563584,0.024 -0.815399,0.024 -0.251814,0 -0.479646,0 -0.815399,-0.024 v 0.17986 l 0.01199,0.024 c 0.191859,0.10792 0.239824,0.22783 0.287788,0.5396 0.04796,0.34774 0.08394,0.87535 0.08394,2.75797 0,1.88261 -0.03597,2.41022 -0.08394,2.75796 -0.04796,0.31177 -0.09593,0.44368 -0.287788,0.53961 l -0.01199,0.024 v 0.17986 c 0.335753,-0.024 0.563585,-0.024 0.815399,-0.024 0.251815,0 0.479647,0 0.815399,0.024 v -0.17986 l -0.01199,-0.024 c -0.191859,-0.0959 -0.239823,-0.22784 -0.287788,-0.53961 -0.04796,-0.34774 -0.08394,-0.87535 -0.08394,-2.75796 z"
         style="font-style:normal;font-variant:normal;font-weight:normal;font-stretch:extra-condensed;font-size:11.9912px;font-family:Ferrum;-inkscape-font-specification:'Ferrum, Extra-Condensed';font-variant-ligatures:normal;font-variant-caps:normal;font-variant-numeric:normal;font-feature-settings:normal;text-align:start;writing-mode:lr-tb;text-anchor:start;fill:#ffffff;stroke:#fffff9;stroke-width:0.1;stroke-miterlimit:4;stroke-dasharray:none;stroke-opacity:1"
         id="path848" />
      <path
         d="m 46.752323,276.46627 c -0.251815,0 -0.479647,0 -0.815399,-0.024 v 0.17986 l 0.01199,0.024 c 0.191858,0.10792 0.239823,0.22783 0.287788,0.5396 0.04796,0.34774 0.08394,0.87535 0.08394,2.75797 0,1.88261 -0.03597,2.41022 -0.08394,2.75796 -0.04796,0.31177 -0.09593,0.44368 -0.287788,0.53961 l -0.01199,0.024 v 0.17986 c 0.215841,-0.024 0.407699,-0.024 0.599558,-0.024 0.191858,0 0.383717,0 0.599558,0.024 v -0.17986 l -0.01199,-0.024 c -0.191859,-0.0959 -0.239824,-0.22784 -0.287788,-0.53961 -0.04796,-0.34774 -0.08394,-0.86336 -0.08394,-2.75796 0,-0.80341 0,-1.27107 -0.02398,-1.69076 0.563585,1.31903 1.642789,3.95709 2.1704,5.3001 l 0.02398,0.012 h 0.143894 c -0.02398,-1.03124 -0.02398,-1.7627 -0.02398,-3.62133 0,-1.85863 0.03597,-2.41023 0.08394,-2.75797 0.04796,-0.31177 0.09593,-0.43168 0.287787,-0.5396 l 0.01199,-0.024 v -0.17986 c -0.215841,0.024 -0.4077,0.024 -0.599559,0.024 -0.191858,0 -0.383717,0 -0.599558,-0.024 v 0.17986 l 0.01199,0.024 c 0.191858,0.10792 0.239823,0.22783 0.287787,0.5396 0.04796,0.34774 0.08394,1.19911 0.08394,2.75797 0,0.28778 0,0.37172 0.02398,0.74345 -0.119912,-0.43168 -0.299779,-0.93531 -0.467655,-1.355 -0.815399,-1.94257 -0.92332,-2.24235 -1.103187,-2.86589 z"
         style="font-style:normal;font-variant:normal;font-weight:normal;font-stretch:extra-condensed;font-size:11.9912px;font-family:Ferrum;-inkscape-font-specification:'Ferrum, Extra-Condensed';font-variant-ligatures:normal;font-variant-caps:normal;font-variant-numeric:normal;font-feature-settings:normal;text-align:start;writing-mode:lr-tb;text-anchor:start;fill:#ffffff;stroke:#fffff9;stroke-width:0.1;stroke-miterlimit:4;stroke-dasharray:none;stroke-opacity:1"
         id="path850" />
      <path
         d="m 53.879195,283.2053 v -0.11991 l -0.01199,-0.036 c -0.02398,-0.048 -0.03597,-0.15589 -0.03597,-0.23983 v -0.8034 c 0,-0.37173 0,-0.53961 0.02398,-0.88735 0.01199,-0.31177 0.04796,-0.41969 0.167876,-0.5396 l 0.01199,-0.024 v -0.17987 c -0.251814,0.024 -0.359734,0.024 -0.611549,0.024 -0.251814,0 -0.491637,0 -0.82739,-0.024 v 0.17987 l 0.01199,0.024 c 0.20385,0.0839 0.263806,0.17986 0.31177,0.49163 0.04796,0.34775 0.07195,0.89934 0.07195,1.78669 0,0.17987 -0.08394,0.29978 -0.395708,0.29978 -0.431682,0 -0.887346,-0.74345 -0.887346,-3.18965 0,-2.61408 0.563585,-3.20164 1.103187,-3.20164 0.215841,0 0.443673,0.11991 0.539602,0.27579 0.119912,0.19186 0.155885,0.35974 0.191859,0.82739 l 0.02398,0.012 h 0.227832 c 0,-0.49164 0,-0.91133 0.01199,-1.21111 -0.215841,-0.19186 -0.563584,-0.32376 -0.983275,-0.32376 -1.115178,0 -2.1704,1.05522 -2.1704,3.74124 0,2.31429 0.791417,3.45345 1.810665,3.45345 0.551594,0 0.995267,-0.11991 1.414957,-0.33575 z"
         style="font-style:normal;font-variant:normal;font-weight:normal;font-stretch:extra-condensed;font-size:11.9912px;font-family:Ferrum;-inkscape-font-specification:'Ferrum, Extra-Condensed';font-variant-ligatures:normal;font-variant-caps:normal;font-variant-numeric:normal;font-feature-settings:normal;text-align:start;writing-mode:lr-tb;text-anchor:start;fill:#ffffff;stroke:#fffff9;stroke-width:0.1;stroke-miterlimit:4;stroke-dasharray:none;stroke-opacity:1"
         id="path852" />
    </g>
    <path
       style="fill:#ffffff;stroke-width:0.0218992"
       d="m 67.097065,285.01585 c 0,-0.0547 0.209194,-0.16712 0.520962,-0.27997 0.29378,-0.10636 0.908802,-0.29259 0.97068,-0.29394 0.02876,-6.5e-4 0.121237,-0.0291 0.20555,-0.0634 0.08431,-0.0343 0.156497,-0.0538 0.160413,-0.0432 0.0036,0.01 0.07511,-0.015 0.158218,-0.0569 0.160917,-0.081 0.1846,-0.0888 0.163155,-0.0542 -0.03486,0.0563 0.118919,-0.0215 0.246361,-0.12465 0.08277,-0.067 0.09308,-0.0705 0.09308,-0.0313 0,0.12049 0.114955,0.0413 0.216439,-0.14908 0.263367,-0.49413 0.329635,-1.49957 0.200715,-3.04547 -0.0246,-0.29507 -0.05079,-0.6597 -0.05816,-0.81027 -0.0074,-0.15056 -0.02668,-0.31475 -0.04296,-0.36487 -0.01628,-0.0502 -0.07986,-0.33592 -0.141355,-0.63508 -0.07713,-0.37525 -0.128539,-0.57451 -0.165772,-0.64249 -0.195279,-0.35655 -0.218094,-0.45971 -0.210744,-0.95266 0.0072,-0.4586 -0.0064,-0.52154 -0.158727,-0.76627 -0.13287,-0.21318 -0.158986,-0.22643 -0.05308,-0.0269 0.04619,0.087 0.08423,0.1645 0.08455,0.17221 5.46e-4,0.0134 -0.273481,-0.14418 -0.641797,-0.36915 -0.223696,-0.13664 -0.438944,-0.36294 -0.547472,-0.57561 -0.08381,-0.16424 -0.08381,-0.16424 -0.07022,-0.0438 0.03336,0.29643 0.184684,0.46909 0.716469,0.8176 0.460807,0.302 0.584956,0.42921 0.612643,0.62773 0.0057,0.0435 -7.19e-4,0.0533 -0.03364,0.0477 -0.0325,-0.005 -0.03772,8.3e-4 -0.02438,0.0329 0.08567,0.20222 0.06576,0.26365 -0.04871,0.1506 -0.451488,-0.44563 -1.507255,-0.70934 -2.29251,-0.57262 -1.058371,0.18429 -2.017086,-0.0792 -2.223491,-0.61107 -0.02805,-0.0723 -0.08047,-0.17855 -0.116517,-0.2362 -0.144706,-0.23138 0.01887,-0.65797 0.4697,-1.22504 0.05617,-0.0707 0.01226,-0.14836 -0.08375,-0.14836 -0.09794,0 -0.554385,0.30865 -0.607886,0.41106 -0.04841,0.0926 -0.136944,0.16247 -0.37457,0.29533 -0.613523,0.34307 -0.833556,0.57961 -0.602227,0.6474 0.281327,0.0825 0.362313,0.13536 0.207113,0.13536 -0.2505,0 -0.627932,0.13115 -1.042698,0.36234 -0.142051,0.0792 -0.349674,0.17351 -0.461394,0.20962 -0.245034,0.0792 -0.429555,0.17644 -0.831955,0.43846 -0.167622,0.1091 -0.308419,0.19481 -0.312886,0.19033 -0.01041,-0.01 0.649608,-0.60266 0.853279,-0.76576 0.439811,-0.35218 1.038738,-1.02081 1.040574,-1.16166 2.65e-4,-0.0203 0.01929,-0.0428 0.04225,-0.0502 0.03859,-0.0123 0.111423,-0.15228 0.111636,-0.21461 5.1e-5,-0.0147 0.02933,-0.0709 0.06499,-0.12478 0.03572,-0.0538 0.07093,-0.12535 0.07834,-0.15896 0.0074,-0.0336 0.02245,-0.0555 0.03357,-0.0486 0.03026,0.0186 0.02244,0.14108 -0.01535,0.2398 -0.16879,0.44063 -0.173617,0.48086 -0.05258,0.43815 0.329305,-0.11619 0.893331,-0.6515 1.120685,-1.06363 0.122693,-0.22238 0.13658,-0.21816 0.11755,0.0356 -0.01571,0.20956 -0.01571,0.20956 0.101415,0.12754 0.231552,-0.16212 0.292024,-0.24057 0.171877,-0.22292 -0.08416,0.0124 -0.08366,0.01 0.02948,-0.12277 0.114143,-0.13417 0.128904,-0.16089 0.203054,-0.36746 0.09369,-0.26099 0.253463,-0.54684 0.28693,-0.51336 0.0065,0.007 -0.02597,0.10296 -0.07151,0.21495 -0.157236,0.38637 -0.121875,0.48852 0.133725,0.38635 0.213125,-0.0851 0.257357,-0.11976 0.24028,-0.18781 -0.01514,-0.0604 0.09564,-0.17503 0.125368,-0.12982 0.02654,0.0404 0.191485,-0.14662 0.191485,-0.21712 0,-0.0538 0.005,-0.0571 0.07114,-0.0445 0.268489,0.0515 0.220426,0.0764 0.982292,-0.5143 0.27604,-0.21404 0.27604,-0.21404 0.288077,-0.34681 0.01413,-0.15605 0.06749,-0.25843 0.166287,-0.31914 0.284384,-0.17472 0.346448,-0.25982 0.375539,-0.51486 0.03736,-0.32744 0.06541,-0.38494 0.286895,-0.5879 0.20035,-0.18358 0.277002,-0.30496 0.486017,-0.76962 0.198391,-0.44102 0.307968,-0.64137 0.465239,-0.85058 0.116424,-0.15488 0.119866,-0.14455 -0.142275,-0.42716 -0.108448,-0.1169 -0.132849,-0.16019 -0.18424,-0.32674 -0.04046,-0.13111 -0.09565,-0.24565 -0.174106,-0.36132 -0.179966,-0.26535 -0.24487,-0.5353 -0.19041,-0.79195 0.02762,-0.13004 0.02739,-0.13104 -0.03786,-0.21391 -0.201921,-0.25638 -0.245616,-0.45099 -0.246117,-1.09612 -2.23e-4,-0.26798 0.0022,-0.48791 0.005,-0.4887 0.0028,-7.2e-4 0.130798,-0.009 0.283974,-0.0195 0.389023,-0.0252 0.414213,-0.0413 0.446899,-0.28687 0.03013,-0.22636 0.05904,-0.29617 0.202624,-0.48911 0.262414,-0.35266 0.192246,-0.53694 -0.146391,-0.38446 -0.172664,0.0778 -0.234643,0.0374 -0.287605,-0.18695 -0.01413,-0.06 -0.04892,-0.13948 -0.07722,-0.17659 -0.02832,-0.0371 -0.06685,-0.10427 -0.08568,-0.14935 -0.03422,-0.0819 -0.03422,-0.0819 -0.09786,-0.0348 -0.126927,0.0938 -0.146049,0.0633 -0.142827,-0.22775 0.0028,-0.24427 -2.2e-5,-0.26154 -0.04955,-0.31501 -0.02883,-0.0311 -0.05846,-0.0942 -0.06577,-0.13998 -0.01154,-0.0721 -0.01865,-0.0806 -0.053,-0.0622 -0.05839,0.0313 -0.06864,0.0262 -0.04324,-0.0214 0.127054,-0.2374 -0.271847,0.17757 -0.425016,0.44213 -0.114824,0.19834 -0.13135,0.0189 -0.02331,-0.2527 0.06384,-0.16042 0.01878,-0.12653 -0.06513,0.0491 -0.07107,0.14871 -0.111255,0.17231 -0.09207,0.0541 0.01334,-0.0824 -0.01443,-0.0784 -0.08843,0.0127 -0.05287,0.065 -0.03185,-0.11971 0.02274,-0.20013 0.04382,-0.0646 0.107516,-0.19849 0.222521,-0.46781 0.01542,-0.0361 0.08894,-0.14454 0.163368,-0.24088 0.113606,-0.1471 0.133338,-0.18532 0.123031,-0.23828 -0.01865,-0.0958 0.05617,-0.19509 0.265119,-0.35138 0.101481,-0.0759 0.214709,-0.17908 0.251611,-0.22926 0.0862,-0.11721 0.146549,-0.14696 0.402781,-0.19852 0.283014,-0.057 0.388829,-0.12068 0.464097,-0.27967 0.05918,-0.12493 0.274794,-0.37854 0.300436,-0.35331 0.0078,0.008 -0.02575,0.0757 -0.07458,0.1512 -0.18381,0.28439 -0.04626,0.21301 0.552851,-0.28683 0.368739,-0.30767 0.415404,-0.33517 0.275266,-0.16231 -0.294948,0.36383 -0.213505,0.57978 0.164918,0.43734 0.196557,-0.0739 0.447522,-0.11474 0.801559,-0.13019 0.341699,-0.015 0.331557,-8.3e-4 -0.06943,0.0929 -0.451496,0.10625 -0.653216,0.22635 -0.653216,0.38912 0,0.0863 0.05753,0.12829 0.155808,0.11386 0.07707,-0.0114 0.07713,-0.01 0.0057,0.0832 -0.152258,0.19961 -0.06528,0.42572 0.18442,0.4795 0.05789,0.0125 0.06727,0.0215 0.04741,0.0455 -0.06054,0.0729 0.0779,0.11914 0.357392,0.11932 0.222112,1.3e-4 0.393973,0.0487 0.587831,0.16621 0.265699,0.16099 0.217193,0.18397 -0.09058,0.0428 -0.221503,-0.10164 -0.401202,-0.14283 -0.622583,-0.14311 -0.119077,-1.5e-4 -0.126501,0.003 -0.08758,0.032 0.02496,0.0188 0.09225,0.0325 0.162951,0.0331 0.08035,5.9e-4 0.19335,0.0268 0.339439,0.0785 0.120441,0.0427 0.305221,0.10756 0.410607,0.14409 0.105391,0.0366 0.191621,0.0748 0.191621,0.085 0,0.0365 -0.378343,-0.0424 -0.543821,-0.11323 -0.05789,-0.0249 -0.143264,-0.04 -0.218992,-0.039 -0.09538,8.4e-4 -0.111435,0.005 -0.06937,0.0195 0.0619,0.0202 0.334728,0.0955 0.479096,0.1326 0.141536,0.0364 0.09691,0.0563 -0.304559,0.13593 -0.340272,0.0675 -0.353397,0.072 -0.231974,0.0783 0.0961,0.004 0.186766,-0.0113 0.357865,-0.063 0.246161,-0.0747 0.647041,-0.0861 0.803044,-0.023 0.09984,0.0405 0.05207,0.0518 -0.09549,0.0227 -0.16146,-0.0319 -0.437853,-0.0155 -0.624747,0.0366 -0.346656,0.0967 -0.33754,0.0932 -0.251699,0.095 0.04225,7.2e-4 0.11122,-0.009 0.153299,-0.0217 0.112673,-0.0342 0.453002,-0.0279 0.579367,0.01 0.09411,0.0287 0.123453,0.0291 0.218992,0.003 0.154417,-0.0423 0.278185,-0.0577 0.262809,-0.0328 -0.0072,0.0113 -0.02252,0.0206 -0.03443,0.0206 -0.01191,0 -0.146842,0.0512 -0.299826,0.11351 -0.227441,0.0928 -0.310089,0.11578 -0.453345,0.12601 -0.175191,0.0125 -0.175191,0.0125 0.07036,0.0733 0.336807,0.0835 0.4766,0.0928 0.759591,0.0505 0.255407,-0.0381 0.307129,-0.033 0.183775,0.0185 -0.274678,0.11477 -0.830442,0.092 -1.139471,-0.0467 -0.126924,-0.0569 -0.126924,-0.0569 -0.296232,-0.017 -0.295651,0.07 -0.630745,0.0467 -0.709563,-0.0495 -0.0259,-0.0317 -0.0231,-0.0335 0.02561,-0.0179 0.187282,0.0604 0.665374,0.0211 0.714614,-0.0585 0.02475,-0.04 -0.01126,-0.0415 -0.08297,-0.003 -0.09377,0.0498 -0.362098,0.0497 -0.497522,-3.2e-4 -0.11431,-0.0422 -0.423645,-0.0496 -0.331214,-0.008 0.04955,0.0224 0.04203,0.0258 -0.08032,0.0369 -0.129766,0.0116 -0.19997,0.0408 -0.145567,0.0605 0.06161,0.022 0.204316,0.14158 0.261058,0.21862 0.03384,0.046 0.160528,0.18726 0.281472,0.31393 0.242151,0.25363 0.325588,0.38011 0.450498,0.68291 0.09618,0.23314 0.269486,0.22101 0.478321,-0.0335 0.04246,-0.0518 0.07136,-0.0453 0.05773,0.0126 -0.03393,0.14444 0.09818,0.13158 0.351777,-0.0342 0.27744,-0.18138 1.025204,-0.45728 1.378064,-0.50845 0.151691,-0.022 0.125684,-0.007 -0.164244,0.0997 -0.87649,0.32005 -1.086308,0.77701 -0.356775,0.77701 0.148055,0 0.269185,0.002 0.269185,0.004 -7e-6,0.002 -0.02467,0.0408 -0.05472,0.0852 -0.08551,0.12601 -0.0662,0.26078 0.06362,0.44383 0.106727,0.15048 0.09966,0.41849 -0.01829,0.69285 -0.08472,0.19709 -0.08472,0.19709 -0.0986,0.67888 -0.01593,0.55363 -0.02137,0.57196 -0.251935,0.85328 -0.112133,0.13681 -0.121882,0.15754 -0.121882,0.25912 0,0.0876 -0.02108,0.1526 -0.101865,0.31427 -0.140408,0.28101 -0.158498,0.79713 -0.0345,0.98439 0.01019,0.0154 0.122154,-0.0491 0.311566,-0.1795 0.728328,-0.50144 0.789867,-0.55069 0.736632,-0.58962 -0.04461,-0.0326 -0.0043,-0.0725 0.221459,-0.2172 0.152023,-0.0977 0.190588,-0.14852 0.131394,-0.17339 -0.01957,-0.008 -0.0165,-0.0183 0.01103,-0.0358 0.06368,-0.0403 0.0436,-0.0858 -0.06024,-0.13623 -0.07678,-0.0372 -0.09856,-0.0596 -0.09856,-0.10143 0,-0.0715 -0.167336,-0.0588 -0.443455,0.0335 -0.21656,0.0724 -0.230676,0.0656 -0.09856,-0.048 0.204432,-0.17562 0.429722,-0.25332 1.045691,-0.36064 0.413839,-0.0722 0.542294,-0.10981 0.602943,-0.17677 0.05258,-0.0582 0.09031,-0.0541 0.106739,0.0113 0.0081,0.0323 0.03443,0.0596 0.0647,0.0671 0.02812,0.007 0.08755,0.0565 0.132154,0.10981 0.09912,0.11858 0.136113,0.12192 0.165399,0.015 0.01234,-0.0452 0.04232,-0.11438 0.06656,-0.15381 0.02818,-0.0459 0.04403,-0.10981 0.04403,-0.17779 0,-0.10614 0,-0.10614 0.0782,-0.0324 0.120965,0.11409 0.338802,0.0241 0.424255,-0.17522 0.0515,-0.12009 0.09392,-0.13648 0.204338,-0.0789 0.114316,0.0596 0.178187,0.0439 0.322392,-0.0792 0.171515,-0.14641 0.128617,0.0262 -0.05782,0.23248 -0.07385,0.0818 -0.06519,0.14699 0.01306,0.0987 0.01263,-0.008 0.02296,-0.004 0.02296,0.007 0,0.0283 -0.282949,0.21901 -0.482561,0.32533 -0.09076,0.0484 -0.211288,0.12323 -0.26783,0.16638 -0.05652,0.0432 -0.122994,0.0848 -0.147674,0.0927 -0.02467,0.008 -0.113549,0.11661 -0.197489,0.24172 -0.176086,0.26245 -0.203885,0.28274 -0.364579,0.26616 -0.143544,-0.0148 -0.173009,0.0249 -0.193709,0.26119 -0.02848,0.32475 -0.0492,0.32935 -0.164838,0.0365 -0.01693,-0.0428 -0.02661,-0.0458 -0.08393,-0.0259 -0.08312,0.0289 -0.09608,0.0658 -0.05644,0.16062 0.01757,0.0422 0.03198,0.11672 0.03198,0.16588 0,0.0492 0.01542,0.1192 0.03428,0.15564 0.08205,0.15865 0.02869,0.78564 -0.06685,0.78564 -0.222161,0 -0.236413,-0.0651 -0.114918,-0.52461 0.03786,-0.14315 0.0284,-0.21354 -0.02295,-0.17115 -0.06535,0.0539 -0.113076,0.20882 -0.147324,0.47823 -0.140475,1.10503 -1.069524,2.87039 -1.908515,3.62653 -0.512276,0.46169 -0.47739,0.41048 -0.485302,0.71233 -0.005,0.17661 0.0057,0.36001 0.03106,0.53226 0.03113,0.21437 0.04081,0.49883 0.05272,1.54389 0.01349,1.18519 0.01807,1.29914 0.06147,1.522 0.05537,0.28426 0.255608,1.02506 0.361038,1.33585 0.04088,0.12046 0.08665,0.27073 0.101766,0.33397 0.01513,0.0632 0.03794,0.11497 0.05079,0.11497 0.04483,0 0.236988,-0.13749 0.301454,-0.2157 0.06262,-0.0759 0.06506,-0.077 0.06506,-0.0246 -2.3e-5,0.087 -0.116404,0.30761 -0.226695,0.42976 -0.08278,0.0917 -0.102029,0.12845 -0.103168,0.1971 -0.0015,0.0778 -0.0028,0.0801 -0.02296,0.0303 -0.01183,-0.0297 -0.02532,-0.0576 -0.02991,-0.0623 -0.05724,-0.0573 -0.612053,0.44102 -0.656021,0.58908 -0.09693,0.32642 0.08789,0.41868 0.407579,0.20344 0.233824,-0.15742 0.33467,-0.18517 0.163633,-0.045 -0.053,0.0435 -0.144411,0.13901 -0.203125,0.21239 -0.09258,0.11571 -0.134364,0.14661 -0.314787,0.23278 -0.566838,0.2707 -0.548154,0.67913 0.0228,0.49874 0.227276,-0.0717 0.227734,-0.0691 0.01664,0.0969 -0.190065,0.14939 -0.285746,0.19294 -0.472017,0.21483 -0.197381,0.0231 -0.299,0.1463 -0.215117,0.26061 0.03106,0.0423 0.299286,0.0547 0.412261,0.019 0.0741,-0.0234 0.03658,0.0243 -0.06598,0.084 -0.05702,0.0332 -0.155299,0.10416 -0.218353,0.15783 -0.06305,0.0537 -0.154245,0.10811 -0.20263,0.1212 -0.178439,0.048 -0.462829,1.15642 -0.429863,1.67536 0.02597,0.40883 0.02712,0.40948 0.232511,0.1314 0.221602,-0.30005 0.221279,-0.29282 -0.0091,0.20442 -0.08,0.17264 -0.170076,0.3989 -0.200179,0.50276 -0.0783,0.27021 -0.717181,0.34933 -0.915702,0.11339 -0.06757,-0.0802 -0.05136,-0.0813 -0.249532,0.0165 -0.165225,0.0816 -0.165225,0.0816 -0.714785,0.0967 -0.78907,0.0217 -1.80876,0.0218 -1.80876,1.6e-4 z m 3.265759,-4.2847 c 0.04762,-0.19665 0.196111,-0.60128 0.280939,-0.76561 0.07316,-0.14174 0.06003,-0.21571 -0.07648,-0.43105 -0.366695,-0.57844 -0.397458,-0.90644 -0.119932,-1.2787 0.15266,-0.20478 0.210687,-0.35281 0.114825,-0.29295 -0.163569,0.10219 -0.179786,-0.18005 -0.02725,-0.47476 0.09318,-0.18003 0.08951,-0.19034 -0.03551,-0.0998 -0.123776,0.0897 -0.196835,0.18425 -0.283708,0.36733 -0.141399,0.29796 -0.284872,0.17494 -0.347996,-0.29837 -0.01814,-0.13608 -0.06003,-0.19709 -0.135182,-0.19709 -0.02826,0 -0.05136,-0.0113 -0.05136,-0.0246 0,-0.0586 -0.0703,-0.49124 -0.08374,-0.51534 -0.0082,-0.0147 -0.01148,0.14259 -0.0074,0.34932 0.008,0.40588 0.0203,0.46101 0.09845,0.44139 0.07276,-0.0182 0.112811,0.041 0.168571,0.24914 0.102587,0.38308 0.226578,0.40423 0.40161,0.0685 0.08168,-0.1567 0.133811,-0.19972 0.100276,-0.0828 -0.03608,0.12576 -0.02539,0.26903 0.02475,0.33283 0.05373,0.0682 0.06205,0.0436 -0.09507,0.28016 -0.316351,0.47619 -0.38038,0.82536 -0.248298,1.35406 0.04239,0.16971 0.08124,0.39359 0.09118,0.52557 0.01736,0.22995 0.01736,0.22995 0.05493,-0.0438 0.04311,-0.31362 0.03406,-0.3904 -0.0705,-0.59757 -0.09233,-0.1829 -0.08442,-0.43614 0.02044,-0.65417 0.05931,-0.12333 0.067,-0.13151 0.06871,-0.0732 0.0028,0.10734 0.04283,0.22813 0.15114,0.45989 0.130424,0.27901 0.142051,0.49382 0.04267,0.78836 -0.112666,0.33386 -0.199319,0.90795 -0.173533,1.14971 0.0097,0.0918 0.0132,0.0837 0.05013,-0.12043 0.02181,-0.12046 0.06112,-0.3077 0.08736,-0.4161 z m 2.040445,-1.51652 c -0.01901,-0.0573 -0.121524,-0.29745 -0.227812,-0.53387 -0.239979,-0.53376 -0.360283,-0.88239 -0.491728,-1.42496 -0.291878,-1.20477 -0.291298,-1.2027 -0.391174,-1.40578 -0.1048,-0.21312 -0.195458,-0.34123 -0.222492,-0.31442 -0.03384,0.0335 -0.03406,0.25107 -2.94e-4,0.39552 0.04598,0.19666 0.04426,0.23172 -0.01664,0.34622 -0.04447,0.0837 -0.04913,0.11305 -0.03443,0.21678 0.03736,0.26364 0.02403,0.41321 -0.03026,0.3391 -0.204518,-0.27913 -0.278,-0.29166 -0.278,-0.0473 0,0.42927 0.210427,0.90221 0.547183,1.22985 0.311059,0.30267 0.461222,0.55305 0.505636,0.84313 0.05179,0.33825 0.1881,0.45671 0.528077,0.45893 0.146484,7.2e-4 0.146484,7.2e-4 0.11193,-0.10307 z m -2.031345,-3.00516 c 0.07087,-0.29268 0.159791,-0.51312 0.304955,-0.75602 0.176372,-0.29514 0.233911,-0.73254 0.146492,-1.11374 -0.03228,-0.14071 -0.04397,-0.13954 -0.09892,0.01 -0.04877,0.13281 -0.167945,0.26902 -0.306777,0.35076 -0.11372,0.067 -0.05387,0.0886 0.08272,0.03 0.07788,-0.0335 -0.05215,0.16001 -0.197301,0.29352 -0.144521,0.13295 -0.249131,0.27476 -0.318712,0.43204 -0.0586,0.13254 -0.03838,0.14375 0.04382,0.0243 0.122247,-0.17768 0.397587,-0.37435 0.397587,-0.28398 0,0.1194 -0.221796,0.47532 -0.428308,0.68733 -0.06871,0.0705 -0.116237,0.12815 -0.105621,0.12804 0.04877,-5.1e-4 0.248821,-0.13754 0.34778,-0.23825 0.139341,-0.14179 0.144368,-0.14042 0.09805,0.0266 -0.04024,0.14507 -0.05258,0.2815 -0.04677,0.51658 0.0043,0.18003 0.01485,0.16633 0.08104,-0.10723 z m 1.917403,-3.23558 c 1.133941,-1.20289 2.185698,-3.54909 1.764103,-3.93524 -0.05207,-0.0477 -0.08,-0.0928 -0.08,-0.12927 0,-0.13285 -0.161225,-0.0634 -0.510978,0.22001 -0.329614,0.26715 -0.42176,0.33051 -0.518366,0.35654 -0.260557,0.0701 -0.667755,0.57078 -0.421486,0.51817 0.03313,-0.007 0.129205,-0.0278 0.213518,-0.0461 0.08431,-0.0183 0.198866,-0.0335 0.254567,-0.0336 0.05565,-2.1e-4 0.143164,-0.015 0.194369,-0.0332 0.05121,-0.0182 0.09904,-0.0329 0.10629,-0.0329 0.0072,0 -0.06685,0.0813 -0.164681,0.18068 -0.09783,0.0993 -0.237584,0.26557 -0.310564,0.36934 -0.07297,0.10372 -0.184879,0.23571 -0.24867,0.2932 -0.06614,0.0596 -0.09717,0.0992 -0.07219,0.0922 0.0241,-0.007 0.07829,-0.0193 0.120449,-0.0277 0.04218,-0.008 0.160407,-0.0528 0.262787,-0.0987 0.181808,-0.0815 0.386441,-0.14523 0.405298,-0.12638 0.005,0.004 -0.09127,0.0806 -0.214358,0.16738 -0.123081,0.0868 -0.317406,0.24756 -0.431829,0.35708 -0.114424,0.10959 -0.26717,0.23879 -0.33944,0.28724 -0.07679,0.0515 -0.108644,0.0821 -0.07665,0.0737 0.350628,-0.0921 0.388321,-0.0411 0.09308,0.12606 -0.378653,0.21441 -0.441032,0.27488 -0.466172,0.452 -0.03931,0.27703 -0.02739,0.4656 0.03758,0.59496 0.07279,0.14486 0.09077,0.37738 0.04575,0.59177 -0.03458,0.1649 0.04031,0.11941 0.357586,-0.21714 z m -2.651946,-2.39303 c 0.02546,-0.0255 0.04403,-0.0736 0.04433,-0.11496 2.87e-4,-0.0391 0.0088,-0.10691 0.01894,-0.15049 0.0165,-0.0711 0.0142,-0.0781 -0.02244,-0.0686 -0.05737,0.015 -0.05565,-0.14887 0.0036,-0.32404 0.079,-0.23457 0.08547,-0.41209 0.01291,-0.35503 -0.03278,0.0257 -0.110748,0.0634 -0.173303,0.0837 -0.06254,0.0203 -0.123095,0.0456 -0.134534,0.0562 -0.06205,0.0573 -0.06576,-0.0538 -0.0057,-0.17461 0.02675,-0.0539 -0.01865,-0.11277 -0.08699,-0.11277 -0.0492,0 -0.03135,-0.0383 0.02439,-0.0524 0.203355,-0.0512 0.349453,-0.36801 0.217472,-0.47183 -0.0568,-0.0447 -0.05716,-0.0464 -0.01736,-0.0905 0.119315,-0.13185 -0.29578,-0.2882 -0.622718,-0.23455 -0.23531,0.0387 -0.202128,0.31349 0.07619,0.6312 0.05758,0.0657 0.122621,0.13997 0.144583,0.16504 0.03708,0.0423 0.03751,0.0523 0.0065,0.13962 -0.05945,0.16849 -0.04439,0.30459 0.05444,0.49105 0.08974,0.16939 0.102883,0.2333 0.06721,0.32706 -0.02769,0.0729 0.06219,0.15747 0.19556,0.18406 0.08346,0.0166 0.09775,0.0269 0.09333,0.0676 -0.0065,0.0611 0.04483,0.0631 0.103759,0.004 z m 1.543433,-1.33375 c 0.01219,-0.0554 0.0022,-0.0852 -0.05251,-0.15986 -0.06234,-0.0849 -0.06749,-0.10537 -0.06749,-0.27047 0,-0.1787 0,-0.1787 -0.176171,-0.33779 -0.331844,-0.29962 -0.365125,-0.49832 -0.175518,-1.04783 0.07819,-0.22662 0.09792,-0.30566 0.07114,-0.28498 -0.569556,0.43986 -0.773579,0.76161 -0.924452,1.45789 -0.03458,0.15937 -0.08295,0.33675 -0.107571,0.39419 -0.04476,0.10439 -0.04476,0.10439 0.06147,-0.009 0.06749,-0.072 0.127419,-0.16608 0.164258,-0.2581 0.187037,-0.46722 0.511774,-0.74831 0.61599,-0.53323 0.03614,0.0746 0.108765,0.18541 0.161411,0.24632 0.109658,0.12686 0.232067,0.3678 0.21514,0.42346 -0.0065,0.0207 -0.02367,0.068 -0.03866,0.10504 -0.02395,0.0595 -0.02165,0.0751 0.01887,0.1314 0.03594,0.0499 0.107374,0.30942 0.115335,0.41887 0.0022,0.03 0.103014,-0.20467 0.11872,-0.27619 z m -1.773378,-1.24399 c 0.09632,-0.0612 0.267249,-0.2134 0.459888,-0.40956 0.168619,-0.1717 0.345967,-0.34247 0.394094,-0.37952 0.163153,-0.12553 -0.332196,0.004 -0.656888,0.17206 -0.525029,0.27142 -0.51366,0.26679 -0.68099,0.27753 -0.155456,0.01 -0.16176,0.008 -0.227669,-0.0575 -0.08354,-0.0836 -0.09825,-0.0595 -0.08265,0.13475 0.01957,0.24407 0.09933,0.38457 0.168023,0.29606 0.130605,-0.16828 0.342087,-0.31298 0.53312,-0.36475 0.105063,-0.0285 0.104756,-0.0273 -0.03881,0.14188 -0.321629,0.37911 -0.274264,0.44703 0.131874,0.18908 z m 2.953473,-0.14323 c 0.06986,-0.12121 0.11211,-0.2486 0.199525,-0.60192 0.09829,-0.3974 0.187684,-0.50776 0.36199,-0.447 0.06728,0.0234 0.06986,0.0224 0.05595,-0.0244 -0.0632,-0.21258 -0.04333,-0.40715 0.06448,-0.63195 0.135281,-0.28205 0.148106,-0.38925 0.06491,-0.54216 -0.0936,-0.172 -0.13056,-0.19725 -0.171832,-0.11745 -0.03922,0.0758 -0.228932,0.26804 -0.264557,0.26804 -0.01363,0 -0.04024,-0.0826 -0.05939,-0.1837 -0.06828,-0.36148 -0.140444,-0.46186 -0.22219,-0.30887 -0.157035,0.29388 -0.207652,0.33283 -0.261719,0.20132 -0.03672,-0.0895 -0.281628,-0.41233 -0.324378,-0.42777 -0.01141,-0.004 -0.02023,0.0822 -0.02023,0.19855 0,0.19985 -0.03061,0.43467 -0.06461,0.49575 -0.01178,0.0211 -0.03658,-0.004 -0.08414,-0.0876 -0.03708,-0.0646 -0.103814,-0.15212 -0.148313,-0.19426 -0.04447,-0.0422 -0.108874,-0.11998 -0.143071,-0.17294 -0.08676,-0.13439 -0.118768,-0.0601 -0.112425,0.26053 0.0043,0.22517 -0.01951,0.41635 -0.0604,0.48176 -0.01686,0.0269 -0.03922,0.015 -0.125339,-0.067 -0.05767,-0.055 -0.140346,-0.1258 -0.183747,-0.15742 -0.0434,-0.0316 -0.09203,-0.0893 -0.108053,-0.12786 -0.0411,-0.0992 -0.06139,-0.0377 -0.06333,0.19285 -0.003,0.34383 0.162127,0.6278 0.322469,0.55474 0.05565,-0.0254 0.05565,-0.0254 -0.06054,-0.12703 -0.13346,-0.11675 -0.219752,-0.27907 -0.218245,-0.41053 7.16e-4,-0.0876 7.16e-4,-0.0876 0.04906,-0.022 0.114755,0.15688 0.343701,0.33944 0.425699,0.33944 0.04073,0 0.122118,-0.47375 0.108743,-0.63321 -0.0072,-0.0854 -0.0057,-0.15517 0.0022,-0.15517 0.04641,0 0.275513,0.33449 0.311568,0.45481 0.02439,0.0815 0.02955,0.0854 0.09449,0.0722 0.07903,-0.0161 0.08756,-0.0526 0.115033,-0.49206 0.017,-0.27156 0.01363,-0.27152 0.15966,-0.002 0.04569,0.0843 0.09558,0.21243 0.110817,0.28469 0.03901,0.18477 0.0955,0.28947 0.10642,0.19715 0.0084,-0.0714 0.195186,-0.57864 0.225211,-0.61164 0.04016,-0.0441 0.09159,0.15533 0.107669,0.41802 0.01915,0.3129 0.03357,0.35128 0.08698,0.23192 0.02123,-0.0473 0.08092,-0.11983 0.13262,-0.16085 0.05172,-0.0411 0.132864,-0.1116 0.180368,-0.15671 0.04749,-0.0452 0.09014,-0.0821 0.09476,-0.0821 0.03092,0 7.04e-4,0.29747 -0.04447,0.43792 -0.02905,0.0904 -0.07299,0.2333 -0.09763,0.31759 -0.160033,0.54742 -0.415656,0.60106 -0.835012,0.17521 -0.238593,-0.2423 -0.325899,-0.29629 -0.47543,-0.2941 -0.139807,0.002 -0.214645,0.0288 -0.143788,0.0513 0.140725,0.0448 0.17077,0.20381 0.08269,0.43782 -0.078,0.20721 -0.07644,0.29685 0.0028,0.1769 0.141141,-0.21293 0.336376,-0.34672 0.336376,-0.23052 0,0.0236 0.02416,0.0785 0.0538,0.1221 0.06563,0.0966 0.138803,0.28763 0.17034,0.44438 0.02345,0.11656 0.02345,0.11656 0.06606,0.0493 0.08163,-0.12893 0.136114,0.0562 0.136508,0.46377 1.29e-4,0.12948 0.0022,0.23542 0.005,0.23542 0.0028,0 0.02876,-0.0418 0.05824,-0.093 z m -3.618983,-3.26398 c 0.04081,-0.0275 0.121051,-0.0729 0.17828,-0.10044 0.215462,-0.10405 0.263082,-0.20737 0.165621,-0.35926 -0.06563,-0.1023 -0.06749,-0.11037 -0.03063,-0.13735 0.109071,-0.0797 -0.203677,-0.0818 -0.317506,-0.002 -0.05013,0.0352 -0.10768,0.0265 -0.10768,-0.0162 0,-0.0165 -0.04747,-0.0272 -0.132907,-0.0295 -0.162479,-0.004 -0.217479,-0.0205 -0.217479,-0.0632 0,-0.018 0.01062,-0.0262 0.02353,-0.0182 0.01291,0.008 0.04497,-0.004 0.07114,-0.0294 0.02618,-0.0242 0.06736,-0.0474 0.09146,-0.0518 0.02747,-0.004 0.04632,-0.0283 0.05057,-0.0624 0.0036,-0.03 0.02962,-0.0743 0.05759,-0.0983 0.07918,-0.0681 0.130246,-0.18244 0.0986,-0.22057 -0.03829,-0.0461 -0.04663,-0.0412 -0.126107,0.0754 -0.107746,0.15808 -0.229155,0.19826 -0.338686,0.11216 -0.06806,-0.0536 -0.07115,-0.0438 -0.09422,0.29391 -0.01485,0.21709 -0.01485,0.21709 0.06183,0.16973 0.103704,-0.0642 0.116023,-0.0608 0.156505,0.0403 0.03364,0.084 0.03902,0.0876 0.133774,0.0876 0.113735,0 0.130713,0.0398 0.05251,0.12301 -0.139787,0.14879 0.05636,0.39997 0.223818,0.28661 z"
       id="path109" />
    <g
       aria-label="Games"
       style="font-style:normal;font-weight:normal;font-size:12.735px;line-height:1.25;font-family:sans-serif;letter-spacing:0px;word-spacing:0px;fill:#ffffff;fill-opacity:1;stroke:#fffff9;stroke-width:0.1;stroke-miterlimit:4;stroke-dasharray:none;stroke-opacity:1"
       id="text117"
       transform="matrix(1.2496977,0,0,1.2496977,-23.363635,-70.977664)">
      <path
         d="m 80.375439,282.94493 c -0.86598,0 -1.42632,-1.057 -1.42632,-5.03032 0,-3.64221 0.56034,-4.77563 1.45179,-4.77563 0.496665,0 0.68769,0.24197 0.91692,0.70043 0.17829,0.34384 0.292905,0.7641 0.35658,1.33717 l 0.02547,0.0127 h 0.318375 c 0,-0.52214 0,-1.41359 0.01274,-1.94846 -0.343845,-0.30564 -0.853245,-0.57307 -1.57914,-0.57307 -1.591875,0 -2.839905,1.91025 -2.839905,5.50152 0,3.8205 1.260765,5.24682 2.67435,5.24682 0.624015,0 1.362645,-0.15282 1.88478,-0.39479 v -0.12735 l -0.01274,-0.0382 c -0.02547,-0.0509 -0.06368,-0.16556 -0.06368,-0.2547 0,-2.02487 0.01274,-2.61068 0.08915,-3.34931 0.03821,-0.33111 0.10188,-0.45846 0.22923,-0.53487 l 0.01274,-0.0255 v -0.20376 c -0.35658,0.0255 -0.725895,0.0255 -0.99333,0.0255 -0.267435,0 -0.573075,0 -0.929655,-0.0255 v 0.20376 l 0.01273,0.0255 c 0.20376,0.0764 0.35658,0.28017 0.40752,0.61128 0.06367,0.49667 0.07641,0.75137 0.07641,3.20922 0,0.2547 -0.33111,0.40752 -0.624015,0.40752 z"
         style="font-style:normal;font-variant:normal;font-weight:normal;font-stretch:normal;font-family:Ferrum;-inkscape-font-specification:Ferrum;fill:#ffffff;stroke:#fffff9;stroke-width:0.1;stroke-miterlimit:4;stroke-dasharray:none;stroke-opacity:1"
         id="path821" />
      <path
         d="m 87.588224,283.07228 c -0.22923,-0.0891 -0.369315,-0.24196 -0.43299,-0.57307 -0.471195,-2.34324 -0.86598,-4.5464 -1.209825,-6.94058 h -0.114615 c -0.28017,0.28017 -0.53487,0.45846 -0.853245,0.64949 l -0.02547,0.0509 c -0.343845,2.21589 -0.751365,4.50819 -1.158885,6.24015 -0.07641,0.33111 -0.241965,0.49666 -0.471195,0.57307 l -0.01274,0.0255 v 0.19103 c 0.22923,-0.0255 0.369315,-0.0255 0.573075,-0.0255 0.20376,0 0.43299,0 0.66222,0.0255 v -0.19103 l -0.01274,-0.0255 c -0.165555,-0.0764 -0.216495,-0.24196 -0.165555,-0.57307 0.06368,-0.49667 0.20376,-1.43906 0.318375,-2.02487 0.165555,-0.0127 0.30564,-0.0255 0.48393,-0.0255 0.216495,0 0.43299,0.0127 0.598545,0.0255 0.12735,0.67496 0.267435,1.65555 0.33111,2.21589 0.02547,0.2165 -0.07641,0.33111 -0.28017,0.38205 l -0.01274,0.0255 v 0.19103 c 0.35658,-0.0255 0.573075,-0.0255 0.84051,-0.0255 0.267435,0 0.598545,0 0.955125,0.0255 v -0.19103 z m -2.39418,-2.95452 c -0.15282,0 -0.318375,-0.0127 -0.45846,-0.0255 0.140085,-1.0188 0.30564,-1.93572 0.53487,-2.85264 0.12735,0.7259 0.33111,2.02487 0.445725,2.85264 -0.165555,0.0127 -0.318375,0.0255 -0.522135,0.0255 z"
         style="font-style:normal;font-variant:normal;font-weight:normal;font-stretch:normal;font-family:Ferrum;-inkscape-font-specification:Ferrum;fill:#ffffff;stroke:#fffff9;stroke-width:0.1;stroke-miterlimit:4;stroke-dasharray:none;stroke-opacity:1"
         id="path823" />
      <path
         d="m 91.181286,280.88186 c -0.86598,-3.0564 -1.17162,-4.35537 -1.24803,-5.00485 h -0.45846 c -0.267435,0 -0.5094,0 -0.86598,-0.0255 v 0.19102 l 0.01273,0.0255 c 0.20376,0.11462 0.2547,0.24197 0.30564,0.57308 0.05094,0.36931 0.08915,0.92965 0.08915,2.92905 0,1.99939 -0.0382,2.55973 -0.08915,2.92905 -0.05094,0.33111 -0.10188,0.47119 -0.30564,0.57307 l -0.01273,0.0255 v 0.19103 c 0.22923,-0.0255 0.43299,-0.0255 0.63675,-0.0255 0.20376,0 0.40752,0 0.63675,0.0255 v -0.19103 l -0.01274,-0.0255 c -0.20376,-0.10188 -0.2547,-0.24196 -0.30564,-0.57307 -0.05094,-0.36932 -0.08915,-0.91692 -0.08915,-2.92905 0,-0.85325 0,-1.28624 -0.02547,-1.79564 0.522135,1.84658 1.0188,3.93512 1.40085,5.62887 l 0.02547,0.0127 h 0.140085 l 0.02547,-0.0127 c 0.445725,-2.24136 1.082475,-5.00485 1.5282,-6.76228 -0.02547,0.36931 -0.03821,0.92965 -0.03821,2.92905 0,1.99939 -0.0382,2.55973 -0.08914,2.92905 -0.05094,0.33111 -0.10188,0.47119 -0.30564,0.57307 l -0.01273,0.0255 v 0.19103 c 0.35658,-0.0255 0.598545,-0.0255 0.86598,-0.0255 0.267435,0 0.5094,0 0.86598,0.0255 v -0.19103 l -0.01274,-0.0255 c -0.20376,-0.10188 -0.2547,-0.24196 -0.30564,-0.57307 -0.05094,-0.36932 -0.08915,-0.92966 -0.08915,-2.92905 0,-1.9994 0.03821,-2.55974 0.08915,-2.92905 0.05094,-0.33111 0.10188,-0.45846 0.30564,-0.57308 l 0.01274,-0.0255 v -0.19102 c -0.35658,0.0255 -0.598545,0.0255 -0.86598,0.0255 h -0.73863 c -0.140085,0.87871 -0.5094,2.72529 -1.06974,5.00485 z"
         style="font-style:normal;font-variant:normal;font-weight:normal;font-stretch:normal;font-family:Ferrum;-inkscape-font-specification:Ferrum;fill:#ffffff;stroke:#fffff9;stroke-width:0.1;stroke-miterlimit:4;stroke-dasharray:none;stroke-opacity:1"
         id="path825" />
      <path
         d="m 96.278469,275.87701 c -0.267435,0 -0.5094,0 -0.86598,-0.0255 v 0.19102 l 0.01274,0.0255 c 0.20376,0.11462 0.2547,0.24197 0.30564,0.57308 0.05094,0.36931 0.08915,0.92965 0.08915,2.92905 0,1.99939 -0.03821,2.55973 -0.08915,2.92905 -0.05094,0.33111 -0.10188,0.47119 -0.30564,0.57307 l -0.01274,0.0255 v 0.19103 c 0.35658,-0.0255 0.598545,-0.0255 0.86598,-0.0255 0.84051,0 1.489995,0 2.24136,0.0255 0,-0.62402 0.03821,-1.32444 0.07641,-2.0376 h -0.241965 l -0.02547,0.0127 c -0.12735,0.59855 -0.216495,0.92966 -0.420255,1.22256 -0.22923,0.33111 -0.38205,0.39479 -0.66222,0.39479 -0.30564,0 -0.43299,-0.11462 -0.45846,-0.44573 -0.03821,-0.5094 -0.05094,-1.04427 -0.05094,-2.72529 h 0.165555 c 0.267435,0 0.420255,0.0764 0.547605,0.31838 0.12735,0.2547 0.17829,0.40752 0.216495,0.84051 l 0.02547,0.0127 h 0.241965 c -0.01274,-0.2929 -0.02547,-0.77683 -0.02547,-1.33717 0,-0.56034 0.01274,-1.04427 0.02547,-1.33718 h -0.241965 l -0.02547,0.0127 c -0.03821,0.43299 -0.08915,0.58581 -0.216495,0.84051 -0.12735,0.24196 -0.28017,0.31837 -0.547605,0.31837 h -0.165555 c 0,-2.8399 0.01273,-2.38144 0.05094,-3.12007 h 0.17829 c 0.496665,0 0.802305,0.11461 1.006065,0.47119 0.20376,0.34385 0.28017,0.64949 0.318375,1.14615 l 0.02547,0.0127 h 0.241965 c -0.03821,-0.71316 -0.07641,-1.55367 -0.07641,-2.0376 -0.78957,0.0255 -1.413585,0.0255 -2.203155,0.0255 z"
         style="font-style:normal;font-variant:normal;font-weight:normal;font-stretch:normal;font-family:Ferrum;-inkscape-font-specification:Ferrum;fill:#ffffff;stroke:#fffff9;stroke-width:0.1;stroke-miterlimit:4;stroke-dasharray:none;stroke-opacity:1"
         id="path827" />
      <path
         d="m 101.48947,276.19538 c 0.26744,0 0.44573,0.12735 0.54761,0.29291 0.12735,0.20376 0.17829,0.38205 0.21649,0.87871 l 0.0255,0.0127 h 0.24197 c 0,-0.52214 0,-1.03154 0.0127,-1.34991 -0.19102,-0.16556 -0.58581,-0.28017 -0.98059,-0.28017 -0.89145,0 -1.5282,0.77683 -1.5282,1.93572 0,0.8023 0.30564,1.42632 0.86598,2.17768 0.63675,0.85325 0.77683,1.42632 0.77683,2.01213 0,0.73863 -0.17829,1.09521 -0.68769,1.09521 -0.22923,0 -0.42025,-0.14008 -0.52213,-0.31837 -0.12735,-0.20376 -0.19103,-0.43299 -0.24197,-0.85325 l -0.0255,-0.0127 h -0.241963 c 0,0.36931 -0.01274,1.03153 -0.02547,1.34991 0.267433,0.17829 0.649483,0.28017 1.031533,0.28017 0.99333,0 1.73196,-0.75137 1.73196,-2.12675 0,-0.64948 -0.30564,-1.33717 -1.057,-2.35597 -0.53487,-0.7259 -0.78957,-1.20983 -0.78957,-1.85931 0,-0.57308 0.28017,-0.87872 0.64948,-0.87872 z"
         style="font-style:normal;font-variant:normal;font-weight:normal;font-stretch:normal;font-family:Ferrum;-inkscape-font-specification:Ferrum;fill:#ffffff;stroke:#fffff9;stroke-width:0.1;stroke-miterlimit:4;stroke-dasharray:none;stroke-opacity:1"
         id="path829" />
    </g>
    <path
       style="fill:#ffffff;stroke:#fffffb;stroke-width:0.547658;stroke-linecap:butt;stroke-linejoin:miter;stroke-miterlimit:4;stroke-dasharray:none;stroke-opacity:1"
       d="M 0.1690105,285.03968 H 65.318879"
       id="path121" />
    <path
       style="fill:#ffffff;stroke:#fffffb;stroke-width:0.547658;stroke-linecap:butt;stroke-linejoin:miter;stroke-miterlimit:4;stroke-dasharray:none;stroke-opacity:1"
       d="M 73.395159,285.03968 H 105.50871"
       id="path14" />
    <g
       id="g1090"
       transform="matrix(0.77251223,0,0,0.77251223,28.225384,65.000962)"
       style="fill:#ffffff">
      <path
         d="m 72.414473,287.2495 c -0.211094,0.0234 -0.714906,0.0989 -1.511434,0.22633 -0.196723,0.0343 -0.309836,0.0686 -0.33939,0.103 -0.01398,0.0491 -0.04633,0.0736 -0.09712,0.0736 -0.04174,0 -0.108576,-0.0525 -0.200474,-0.15749 -0.103622,-0.0967 -0.161062,-0.19716 -0.17232,-0.30132 0,-0.0918 0.0454,-0.10834 0.136168,-0.0496 0.03417,0.0696 0.108062,0.10439 0.221666,0.10439 0.170357,0 0.799839,-0.0697 1.888422,-0.20919 0.06531,-0.01 0.121796,-0.0564 0.16945,-0.14063 0.127338,0.0762 0.24158,0.1613 0.342749,0.25533 0.06082,0.0565 0.09124,0.10866 0.09124,0.15651 0,0.0764 -0.0491,0.11457 -0.147278,0.11456 -0.05214,1e-5 -0.08444,0.0145 -0.0969,0.0435 -0.414586,1.20044 -1.180948,2.03136 -2.29906,2.49277 -0.08407,0 -0.106737,-0.0496 -0.06801,-0.14885 1.05822,-0.53453 1.756007,-1.37321 2.093312,-2.51605 0.0286,-0.0424 0.02492,-0.0581 -0.01104,-0.0468 z"
         style="font-style:normal;font-variant:normal;font-weight:normal;font-stretch:normal;font-size:medium;line-height:125%;font-family:'MS Gothic';-inkscape-font-specification:'MS Mincho Bold';letter-spacing:-5.08px;word-spacing:0px;fill:#ffffff;fill-opacity:1;stroke:none;stroke-width:0.264583"
         id="path1042" />
      <path
         d="m 73.093277,290.28609 c 0.632548,-0.45945 0.929288,-1.05015 0.890242,-1.77209 -0.141294,-0.0872 -0.15,-0.15307 -0.02609,-0.19777 0.252911,-0.0123 0.364381,0.0399 0.334362,0.15652 0.202387,-0.17802 0.388637,-0.36603 0.558774,-0.56403 0.07225,-0.0427 0.07672,-0.0585 0.01349,-0.0475 -0.958449,0.12776 -1.467877,0.22179 -1.528333,0.28209 -0.03934,0.0459 -0.08537,0.0688 -0.138056,0.0688 -0.03058,1e-5 -0.08312,-0.031 -0.157604,-0.093 -0.09214,-0.0805 -0.14382,-0.17329 -0.155077,-0.27846 0,-0.11503 0.04008,-0.14351 0.120226,-0.0854 0.05972,0.0702 0.145659,0.0998 0.257841,0.0891 0.404211,-0.047 0.956486,-0.11131 1.656799,-0.19289 0.04184,-0.01 0.09945,-0.0392 0.17281,-0.0882 0.09923,0.0789 0.174674,0.15442 0.22635,0.22661 0.04662,0.0678 0.06992,0.12377 0.06992,0.1678 0,0.0531 -0.0465,0.0737 -0.139503,0.062 -0.0543,0 -0.113899,0.0324 -0.178794,0.0971 -0.129816,0.11614 -0.390257,0.2937 -0.781298,0.53267 -0.07034,0.82944 -0.450786,1.42408 -1.141387,1.78394 -0.08518,0 -0.103377,-0.0491 -0.0546,-0.14732 z"
         style="font-style:normal;font-variant:normal;font-weight:normal;font-stretch:normal;font-size:medium;line-height:125%;font-family:'MS Gothic';-inkscape-font-specification:'MS Mincho Bold';letter-spacing:-5.08px;word-spacing:0px;fill:#ffffff;fill-opacity:1;stroke:none;stroke-width:0.264583"
         id="path1044" />
      <path
         d="m 77.097919,288.09826 c 0,0.65253 0,1.3111 0,1.97571 0,0.13473 -0.03409,0.20209 -0.102273,0.20209 -0.04439,0 -0.09808,-0.044 -0.161086,-0.13199 -0.061,-0.0866 -0.08022,-0.18118 -0.05771,-0.28375 0.02754,-0.11782 0.0413,-0.21565 0.0413,-0.29352 0,-0.51306 0,-1.01127 0,-1.4946 -0.548792,0.52087 -1.06808,0.88816 -1.557887,1.10186 -0.113604,0 -0.134598,-0.056 -0.06298,-0.16808 1.028936,-0.65104 1.792599,-1.34771 2.29104,-2.09 0.03416,-0.0469 0.04665,-0.0923 0.03748,-0.13616 -0.0064,-0.0221 -0.04412,-0.0533 -0.113162,-0.0935 -0.07569,-0.0634 -0.06046,-0.10912 0.04574,-0.13728 0.177862,0.0129 0.309443,0.0876 0.39472,0.22411 0.08765,0.0892 0.131483,0.16334 0.131483,0.22243 0,0.0764 -0.0465,0.10876 -0.139503,0.0971 -0.03515,1e-5 -0.07243,0.0184 -0.111863,0.0551 -0.181541,0.2465 -0.408357,0.48194 -0.680447,0.70632 0.220414,0.0985 0.235473,0.17989 0.04515,0.24418 z"
         style="font-style:normal;font-variant:normal;font-weight:normal;font-stretch:normal;font-size:medium;line-height:125%;font-family:'MS Gothic';-inkscape-font-specification:'MS Mincho Bold';letter-spacing:-5.08px;word-spacing:0px;fill:#ffffff;fill-opacity:1;stroke:none;stroke-width:0.264583"
         id="path1046" />
      <path
         d="m 79.798787,287.82454 c 0.04008,1.10873 -0.331051,1.89673 -1.113379,2.36399 -0.07544,0 -0.09999,-0.0421 -0.07365,-0.12641 0.634952,-0.5191 0.933015,-1.25823 0.894215,-2.21737 -0.745907,0.08 -1.131013,0.1482 -1.155269,0.20459 -0.02874,0.0502 -0.06607,0.0753 -0.111985,0.0753 -0.04312,0 -0.08498,-0.0236 -0.125622,-0.0709 -0.174845,-0.1809 -0.257032,-0.33314 -0.246584,-0.45671 0.0206,-0.10416 0.06848,-0.11489 0.143845,-0.0322 0.04917,0.10388 0.115272,0.15582 0.198317,0.15582 0.232162,0 0.663941,-0.0334 1.295385,-0.10021 0,-0.26489 0,-0.50229 0,-0.71218 0,-0.10499 -0.0764,-0.17839 -0.229219,-0.22021 -0.05756,-0.0607 -0.05545,-0.1067 0.0064,-0.13811 0.09685,-0.0358 0.211119,-0.0245 0.342872,0.0339 0.196624,0.0808 0.289946,0.16678 0.279988,0.25783 -2.4e-5,0.0624 -0.02536,0.0937 -0.07605,0.0937 -0.01938,0.0113 -0.02923,0.0548 -0.02921,0.13031 -2.5e-5,0.17496 -2.5e-5,0.35251 0,0.53267 0.597721,0 0.933089,-0.0583 1.006053,-0.17491 0.104113,0.0257 0.197679,0.0686 0.280699,0.12892 0.124077,0.0788 0.186103,0.16144 0.186103,0.24794 0,0.0648 -0.06151,0.0854 -0.184533,0.0619 -0.368379,-0.0582 -0.797828,-0.0707 -1.288322,-0.0375 z"
         style="font-style:normal;font-variant:normal;font-weight:bold;font-stretch:normal;font-size:16px;line-height:125%;font-family:'MS Mincho';-inkscape-font-specification:'MS Mincho Bold';letter-spacing:-3.46px;word-spacing:0px;fill:#ffffff;fill-opacity:1;stroke:none;stroke-width:0.264583"
         id="path1048" />
      <path
         d="m 82.629177,289.5813 c -0.108086,-0.12581 -0.162141,-0.2006 -0.162141,-0.22439 0,-0.046 0.04008,-0.0807 0.120226,-0.10397 0,-0.14058 0,-0.75125 0,-1.83202 -0.0096,-0.10016 -0.02573,-0.17249 -0.04873,-0.217 -0.01766,-0.0308 -0.07301,-0.0571 -0.165869,-0.0787 -0.0673,-0.0654 -0.07044,-0.12348 -0.0093,-0.17421 0.205405,0 0.371985,0.0434 0.499741,0.13017 0.07279,0.0565 0.109214,0.10959 0.109214,0.1593 0,0.0644 -0.04008,0.1199 -0.120251,0.16654 0,0.56529 0,1.15376 0,1.7654 0.55512,-0.29704 1.058367,-0.71989 1.509767,-1.26854 0.09565,-0.0289 0.137566,0.006 0.125744,0.10606 -0.297082,0.45295 -0.704164,0.87413 -1.221268,1.26353 -0.256124,0.16557 -0.384174,0.26336 -0.384174,0.29337 0,0.088 -0.02906,0.13199 -0.08719,0.13199 -0.04312,0 -0.0983,-0.0392 -0.165623,-0.11749 z m -0.537339,-1.73655 c -0.187279,0.86103 -0.577659,1.5654 -1.171088,2.11313 -0.09133,0.0138 -0.125058,-0.0253 -0.101194,-0.11736 0.489096,-0.55747 0.802856,-1.22752 0.941281,-2.01013 0.0098,-0.11409 0.0088,-0.1776 -0.0034,-0.19052 -0.02453,-0.0286 -0.06337,-0.048 -0.116621,-0.0583 -0.07044,-0.0522 -0.07019,-0.10457 0,-0.15706 0.176194,-0.0125 0.329849,0.0339 0.46094,0.13937 0.0788,0.0611 0.118191,0.12241 0.118191,0.18382 0,0.0647 -0.04295,0.097 -0.128859,0.097 z"
         style="font-style:normal;font-variant:normal;font-weight:bold;font-stretch:normal;font-size:16px;line-height:125%;font-family:'MS Mincho';-inkscape-font-specification:'MS Mincho Bold';letter-spacing:-3.46px;word-spacing:0px;fill:#ffffff;fill-opacity:1;stroke:none;stroke-width:0.264583"
         id="path1050" />
      <path
         d="m 86.638601,287.2495 c -0.211094,0.0234 -0.714906,0.0989 -1.511434,0.22633 -0.196723,0.0343 -0.309861,0.0686 -0.33939,0.103 -0.01398,0.0491 -0.04635,0.0736 -0.09712,0.0736 -0.04177,0 -0.108576,-0.0525 -0.200475,-0.15749 -0.103622,-0.0967 -0.161061,-0.19716 -0.172319,-0.30132 0,-0.0918 0.04537,-0.10834 0.136144,-0.0496 0.03419,0.0696 0.108061,0.10439 0.221665,0.10439 0.170382,0 0.799864,-0.0697 1.888422,-0.20919 0.06531,-0.01 0.121796,-0.0564 0.169475,-0.14063 0.127338,0.0762 0.24158,0.1613 0.342725,0.25533 0.06085,0.0565 0.09126,0.10866 0.09126,0.15651 0,0.0764 -0.0491,0.11457 -0.147303,0.11456 -0.05214,1e-5 -0.08442,0.0145 -0.09688,0.0435 -0.414586,1.20044 -1.180948,2.03136 -2.29906,2.49277 -0.08407,0 -0.106762,-0.0496 -0.06804,-0.14885 1.058244,-0.53453 1.756007,-1.37321 2.093336,-2.51605 0.02857,-0.0424 0.02489,-0.0581 -0.01104,-0.0468 z"
         style="font-style:normal;font-variant:normal;font-weight:bold;font-stretch:normal;font-size:16px;line-height:125%;font-family:'MS Mincho';-inkscape-font-specification:'MS Mincho Bold';letter-spacing:-3.46px;word-spacing:0px;fill:#ffffff;fill-opacity:1;stroke:none;stroke-width:0.264583"
         id="path1052" />
      <path
         d="m 87.714701,290.28609 c 0.632548,-0.45945 0.929311,-1.05015 0.890266,-1.77209 -0.141318,-0.0872 -0.150025,-0.15307 -0.02609,-0.19777 0.252911,-0.0123 0.364357,0.0399 0.334337,0.15652 0.202388,-0.17802 0.388662,-0.36603 0.558799,-0.56403 0.07223,-0.0427 0.07672,-0.0585 0.01349,-0.0475 -0.958424,0.12776 -1.467877,0.22179 -1.528309,0.28209 -0.03936,0.0459 -0.08537,0.0688 -0.138081,0.0688 -0.03058,1e-5 -0.08312,-0.031 -0.157603,-0.093 -0.09212,-0.0805 -0.14382,-0.17329 -0.155078,-0.27846 0,-0.11503 0.04008,-0.14351 0.120227,-0.0854 0.05972,0.0702 0.145684,0.0998 0.257841,0.0891 0.404211,-0.047 0.956486,-0.11131 1.656824,-0.19289 0.04182,-0.01 0.09943,-0.0392 0.172809,-0.0882 0.09923,0.0789 0.174674,0.15442 0.226326,0.22661 0.04662,0.0678 0.06995,0.12377 0.06995,0.1678 0,0.0531 -0.0465,0.0737 -0.139528,0.062 -0.05428,0 -0.113874,0.0324 -0.178794,0.0971 -0.129816,0.11614 -0.390232,0.2937 -0.781274,0.53267 -0.07034,0.82944 -0.450811,1.42408 -1.141387,1.78394 -0.0852,0 -0.103401,-0.0491 -0.05462,-0.14732 z"
         style="font-style:normal;font-variant:normal;font-weight:bold;font-stretch:normal;font-size:16px;line-height:125%;font-family:'MS Mincho';-inkscape-font-specification:'MS Mincho Bold';letter-spacing:-3.46px;word-spacing:0px;fill:#ffffff;fill-opacity:1;stroke:none;stroke-width:0.264583"
         id="path1054" />
      <path
         d="m 90.682117,289.17308 c 0.06595,0.18611 0.14431,0.27916 0.235081,0.27916 0.111764,0 0.429767,-0.19567 0.95396,-0.58703 0.52662,-0.3932 1.056601,-0.88848 1.590015,-1.48582 0.115591,-0.0407 0.1565,0.002 0.122728,0.12878 -0.697689,0.906 -1.514108,1.66004 -2.449232,2.26211 -0.0078,0.037 -0.01766,0.0692 -0.02958,0.0966 -0.01692,0.0396 -0.04949,0.0594 -0.09771,0.0594 -0.05246,0 -0.124763,-0.0642 -0.216882,-0.19247 -0.184116,-0.17096 -0.266131,-0.33955 -0.246093,-0.50578 0,-0.0837 0.04589,-0.10201 0.137713,-0.0549 z m 0.71314,-1.47788 c 0,0.14634 -0.06416,0.21951 -0.192455,0.21951 -0.08319,0 -0.141588,-0.0845 -0.175189,-0.25337 -0.01962,-0.0918 -0.0826,-0.20502 -0.188629,-0.33965 -0.05874,-0.0684 -0.140582,-0.14694 -0.24548,-0.23568 -0.06276,-0.10164 -0.04179,-0.14624 0.06286,-0.13379 0.27057,0.0969 0.46305,0.21798 0.577463,0.3632 0.10762,0.13789 0.16143,0.26448 0.16143,0.37978 z"
         style="font-style:normal;font-variant:normal;font-weight:bold;font-stretch:normal;font-size:16px;line-height:125%;font-family:'MS Mincho';-inkscape-font-specification:'MS Mincho Bold';letter-spacing:-3.46px;word-spacing:0px;fill:#ffffff;fill-opacity:1;stroke:none;stroke-width:0.264583"
         id="path1056" />
      <path
         d="m 95.175683,288.54257 c -0.206999,-0.21128 -0.473179,-0.35641 -0.798515,-0.43539 -0.21085,0.27103 -0.456918,0.52171 -0.738182,0.75204 -0.08773,0 -0.113604,-0.0474 -0.0776,-0.1423 0.547909,-0.54493 0.910672,-1.14645 1.088216,-1.80456 0.03009,-0.088 -0.01668,-0.1514 -0.14046,-0.19024 -0.05661,-0.0506 -0.05538,-0.10206 0.0037,-0.15428 0.125181,-0.0127 0.231035,0.006 0.317587,0.0557 0.156083,0.0908 0.234124,0.17398 0.234124,0.24961 0,0.0647 -0.02906,0.097 -0.08719,0.097 -0.01202,0 -0.02457,0.0152 -0.0376,0.0456 -0.03002,0.07 -0.06355,0.12999 -0.100581,0.18007 0.297451,-0.0226 0.603191,-0.051 0.917196,-0.0852 0.04088,-0.0381 0.08714,-0.0913 0.138793,-0.15971 0.07448,0.028 0.152943,0.0779 0.235326,0.14982 0.0709,0.055 0.106344,0.10741 0.106344,0.15721 0,0.0579 -0.02835,0.0951 -0.08503,0.11163 -0.04184,0.01 -0.07991,0.0546 -0.114242,0.1345 -0.120471,0.30373 -0.279473,0.61439 -0.47698,0.93196 0.120226,0.0871 0.174919,0.19378 0.164054,0.32013 -0.01251,0.1037 -0.05128,0.15554 -0.116032,0.15554 -0.0531,0 -0.127143,-0.0642 -0.222156,-0.19247 -0.444459,0.6701 -0.978364,1.1657 -1.601739,1.4868 -0.09467,0 -0.123096,-0.049 -0.08525,-0.14689 0.680202,-0.46568 1.17229,-0.97123 1.476215,-1.51663 z m 0.149828,-0.26229 c 0.172687,-0.29714 0.313981,-0.60254 0.423931,-0.91622 0.01815,-0.0269 0.01938,-0.0416 0.0034,-0.044 -0.324944,0.0233 -0.620457,0.0466 -0.886563,0.07 -0.05173,-0.0145 -0.0765,-0.032 -0.07424,-0.0524 -0.11201,0.26369 -0.226595,0.46559 -0.343707,0.6057 0.37277,0.063 0.665119,0.17533 0.877096,0.337 z"
         style="font-style:normal;font-variant:normal;font-weight:normal;font-stretch:normal;font-size:medium;line-height:125%;font-family:'MS Gothic';-inkscape-font-specification:'MS Mincho Bold';letter-spacing:-5.27px;word-spacing:0px;fill:#ffffff;fill-opacity:1;stroke:none;stroke-width:0.264583"
         id="path1058" />
      <path
         d="m 99.29697,286.80323 c 0,0.088 -0.0391,0.13199 -0.117259,0.13199 -0.05307,0 -0.09325,-0.0159 -0.120471,-0.0475 -0.04263,-0.0496 -0.08417,-0.10973 -0.124665,-0.18034 -0.06649,-0.0885 -0.159468,-0.17319 -0.278909,-0.25421 -0.03944,-0.0879 -0.02404,-0.13184 0.04623,-0.13185 0.242709,0.0492 0.406836,0.12353 0.492432,0.22313 0.06843,0.0796 0.102641,0.1659 0.102641,0.25881 z m -0.605128,0.033 c 0.102812,0.0798 0.154243,0.17956 0.154243,0.29923 0,0.11141 -0.04412,0.16711 -0.132342,0.16711 -0.05636,0 -0.129963,-0.0823 -0.220831,-0.24683 -0.04542,-0.0793 -0.147842,-0.19432 -0.307286,-0.34522 -0.02666,-0.0556 -0.01128,-0.0978 0.04599,-0.12682 0.153924,0.0498 0.307334,0.13398 0.460229,0.25253 z m -1.213371,0.56167 c 0,0.11131 -0.05413,0.16696 -0.162387,0.16696 -0.05636,0 -0.12052,-0.0654 -0.192454,-0.19609 -0.09994,-0.16399 -0.267873,-0.27465 -0.503812,-0.33198 -0.05491,-0.0779 -0.04405,-0.12989 0.0326,-0.15582 0.324355,0 0.560491,0.086 0.708333,0.25812 0.07848,0.0913 0.117725,0.1776 0.117725,0.25881 z m -0.450885,0.90952 c 0,0.0466 -0.01422,0.0865 -0.0425,0.11945 -0.02722,0.0317 -0.0622,0.0475 -0.104898,0.0475 -0.05501,0 -0.12415,-0.0684 -0.207416,-0.20529 -0.10914,-0.14699 -0.271403,-0.25467 -0.486815,-0.32306 -0.07625,-0.0763 -0.07144,-0.12813 0.01447,-0.15554 0.314226,0 0.55897,0.0956 0.734208,0.28683 0.06205,0.0722 0.09305,0.14889 0.09305,0.23009 z m 0.314005,1.39134 c -0.134843,0.10648 -0.210972,0.17997 -0.22836,0.22048 -0.02708,0.0629 -0.06467,0.0944 -0.11282,0.0944 -0.02835,0 -0.09045,-0.031 -0.186348,-0.093 -0.0752,-0.05 -0.138399,-0.1048 -0.189561,-0.16445 -0.08807,-0.10342 -0.127093,-0.24302 -0.117135,-0.41881 0,-0.0867 0.0464,-0.0995 0.13916,-0.0385 0.04606,0.16047 0.108944,0.2407 0.188629,0.24069 0.08255,10e-6 0.195864,-0.0447 0.339978,-0.13421 0.826548,-0.5795 1.520779,-1.23119 2.082668,-1.95508 0.106271,-0.0414 0.153753,-0.006 0.14252,0.10467 -0.497484,0.73253 -1.183719,1.44712 -2.058731,2.14379 z"
         style="font-style:normal;font-variant:normal;font-weight:normal;font-stretch:normal;font-size:medium;line-height:125%;font-family:'MS Gothic';-inkscape-font-specification:'MS Mincho Bold';letter-spacing:-1.49px;word-spacing:0px;fill:#ffffff;fill-opacity:1;stroke:none;stroke-width:0.264583"
         id="path1060" />
    </g>
  </g>
</svg>
