<?xml version="1.0" encoding="UTF-8" standalone="no"?>
<!-- Generator: Adobe Illustrator 13.0.0, SVG Export Plug-In . SVG Version: 6.00 Build 14948)  -->

<svg
   xmlns:dc="http://purl.org/dc/elements/1.1/"
   xmlns:cc="http://creativecommons.org/ns#"
   xmlns:rdf="http://www.w3.org/1999/02/22-rdf-syntax-ns#"
   xmlns:svg="http://www.w3.org/2000/svg"
   xmlns="http://www.w3.org/2000/svg"
   xmlns:sodipodi="http://sodipodi.sourceforge.net/DTD/sodipodi-0.dtd"
   xmlns:inkscape="http://www.inkscape.org/namespaces/inkscape"
   version="1.1"
   id="Layer_2"
   x="0px"
   y="0px"
   width="497.86499"
   height="118.53483"
   viewBox="0 0 497.86498 118.53483"
   enable-background="new 0 0 566.924 121.752"
   xml:space="preserve"
   sodipodi:docname="samcoupe.svg"
   inkscape:version="0.92.2 (unknown)"><metadata
     id="metadata25"><rdf:RDF><cc:Work
         rdf:about=""><dc:format>image/svg+xml</dc:format><dc:type
           rdf:resource="http://purl.org/dc/dcmitype/StillImage" /><dc:title /></cc:Work></rdf:RDF></metadata><defs
     id="defs23" /><sodipodi:namedview
     pagecolor="#ffffff"
     bordercolor="#666666"
     borderopacity="1"
     objecttolerance="10"
     gridtolerance="10"
     guidetolerance="10"
     inkscape:pageopacity="0"
     inkscape:pageshadow="2"
     inkscape:window-width="1920"
     inkscape:window-height="1031"
     id="namedview21"
     showgrid="false"
     inkscape:pagecheckerboard="true"
     fit-margin-top="0"
     fit-margin-left="0"
     fit-margin-right="0"
     fit-margin-bottom="0"
     inkscape:zoom="0.96309204"
     inkscape:cx="54.730171"
     inkscape:cy="44.129227"
     inkscape:window-x="0"
     inkscape:window-y="0"
     inkscape:window-maximized="1"
     inkscape:current-layer="Layer_2" /><path
     d="m 43.498,37.628829 c 0,-6.959 -3.479,-11.309 -9.569,-11.309 -6.09,0 -7.83,4.35 -7.83,9.569 0,5.22 4.35,9.57 20.879,17.4 16.529,7.83 20.01,18.27 20.01,31.319 0,13.049 -10.44,33.927001 -33.929,33.927001 C 9.57,118.53483 0,103.74583 0,81.995829 c 15.66,0 20.879,0 20.879,0 0,8.7 4.35,13.05 11.31,13.05 6.959,0 9.57,-5.219 9.57,-9.569 0,-4.349 0.698,-6.61 -24.359,-19.14 -15.66,-7.829 -16.53,-25.229 -16.53,-30.449 0,-5.219 2.61,-21.748 16.53,-29.5779996 13.918,-7.83 33.928,-2.61 41.757,7.8299996 7.831,10.439 5.22,23.488 5.22,23.488 -8.7,0.001 -20.879,0.001 -20.879,0.001 z"
     id="path2"
     style="fill:#ffffff;fill-opacity:1;stroke:none"
     inkscape:connector-curvature="0" /><g
     id="g8"
     style="fill:#ffffff;fill-opacity:1;stroke:none"
     transform="translate(-34.962,-0.99517061)"><g
       id="g6"
       style="fill:#ffffff;fill-opacity:1;stroke:none"><path
         d="M 266.373,4.695 H 241.144 V 67.332 L 200.256,3.825 H 175.027 V 69.943 L 132.398,4.695 h -26.099 l 0.871,114.835 h 28.708 v -17.398 h 25.229 l 10.439,16.529 h 32.189 c 0,0 0,-48.719 0,-55.679 l 36.539,56.548 h 28.708 V 62.982 l 36.539,55.679 H 339.45 Z M 135.878,79.512 v -16.53 l 11.309,16.529 h -11.309 z"
         id="path4"
         inkscape:connector-curvature="0"
         style="fill:#ffffff;fill-opacity:1;stroke:none" /></g></g><path
     d="M 309.708,116.79483 237.501,3.6998294 H 382.785 L 348.856,57.637829 c 0,0 -8.7,-5.219 -20.01,12.18 -11.309,17.4 -6.089,24.359 -5.22,26.969 -3.478,6.089001 -13.918,20.008001 -13.918,20.008001 z"
     id="path10"
     style="fill:#ffffff;fill-opacity:1;stroke:none"
     inkscape:connector-curvature="0" /><g
     id="g16"
     style="display:inline;fill:#ffffff;fill-opacity:1;stroke:none"
     transform="translate(-34.962,-0.99517061)"><g
       id="g14"
       style="fill:#ffffff;fill-opacity:1;stroke:none"><path
         d="m 518.911,55.825 c -3.624,1.885 -8.99,0.725 -10.004,-5.219 12.613,-8.41 15.948,-13.195 17.109,-19.864 1.159,-6.669 -4.786,-6.96 -10.875,-3.19 -6.089,3.77 -14.353,13.484 -14.644,25.808 -3.914,5.655 -7.974,12.18 -14.353,11.89 7.248,-13.485 8.699,-20.008 7.684,-24.793 -1.014,-4.785 -6.234,-4.785 -18.123,13.049 1.159,-10.729 5.653,-20.298 6.524,-22.908 0.869,-2.61 1.014,-4.785 -1.742,-4.06 -2.752,0.725 -6.378,7.249 -11.162,19.138 -4.785,11.889 -12.47,22.472 -14.788,25.228 -2.32,2.755 -6.236,3.914 -5.946,-3.336 0.291,-7.249 4.93,-13.048 5.946,-16.237 1.015,-3.19 -0.726,-8.555 -2.756,-7.25 -2.03,1.305 -8.555,13.774 -11.744,19.283 -3.189,5.51 -7.104,10.584 -8.554,12.034 -1.449,1.449 -4.351,1.015 -3.19,-3.479 1.16,-4.495 4.204,-9.134 5.655,-11.454 1.45,-2.32 4.495,-7.104 1.305,-8.409 -3.19,-1.305 -10.875,2.755 -13.483,20.443 -2.175,4.494 -4.931,7.395 -8.265,8.554 1.305,-6.38 2.899,-22.037 -3.334,-18.993 1.015,-3.479 -0.727,-5.074 -4.061,-4.494 -3.335,0.58 -17.108,8.41 -17.979,25.952 -3.045,5.365 -10.729,12.18 -14.789,12.18 -4.059,0 -6.379,-3.626 -6.089,-7.539 0.29,-3.915 5.364,-9.28 7.829,-10.439 0.871,2.175 2.319,2.03 3.19,2.03 0.87,0 3.624,-3.19 4.639,-8.12 1.015,-4.93 0.436,-7.394 -2.029,-8.265 -2.464,-0.869 -9.279,3.479 -13.339,9.28 -4.06,5.799 -11.02,17.107 -2.175,27.111 8.845,10.005 17.688,-0.869 24.068,-12.758 1.739,6.523 6.669,9.278 10.293,9.278 3.625,0 9.425,-4.495 11.744,-9.713 3.48,0.144 8.409,-4.351 10.584,-8.555 -0.145,4.639 5.655,8.989 9.136,8.265 3.479,-0.727 7.974,-9.426 10.729,-15.369 0,7.685 -0.436,13.484 5.075,13.339 5.509,-0.146 14.063,-15.804 23.487,-33.058 -4.35,21.023 -7.539,28.418 -8.265,34.507 -0.725,6.089 0.58,15.079 3.188,15.079 2.611,0 4.932,-12.904 5.656,-24.358 5.509,-1.595 6.67,-2.029 7.684,-2.029 1.017,0 4.785,1.596 10.438,-2.465 5.656,-4.06 8.989,-9.279 13.05,-14.644 3.045,7.395 8.264,10.004 16.818,5.22 8.554,-4.785 13.049,-18.124 13.774,-21.458 -4.925,7.829 -10.292,12.903 -13.916,14.788 z M 406.112,82.358 c -0.289,5.654 -4.205,7.249 -5.944,7.249 -1.739,0 -4.929,-0.289 -4.929,-5.8 0,-5.508 4.929,-12.033 10.148,-17.108 2.03,-1.884 -0.146,3.045 -0.725,8.554 -0.581,5.511 0.289,7.83 1.45,7.105 z m 68.579,-16.093 c 1.595,-8.409 7.828,-17.688 10.874,-17.688 3.043,0 -0.871,9.569 -2.61,13.049 -1.74,3.479 -4.64,3.77 -8.264,4.639 z m 43.061,-34.942 c 2.754,-2.32 3.914,1.015 1.159,4.93 -2.753,3.914 -8.845,9.569 -10.439,10.149 0.726,-7.684 6.524,-12.759 9.28,-15.079 z"
         id="path12"
         inkscape:connector-curvature="0"
         style="fill:#ffffff;fill-opacity:1;stroke:none" /></g></g><path
     d="m 473.365,22.788829 c 0.145,-3.625 2.029,-8.554 5.365,-12.468 3.335,-3.9159996 9.133,-10.00499961 11.308,-10.29499961 2.176,-0.29 3.191,1.88500001 3.191,5.36500001 0,3.479 0,4.6389996 -2.466,6.5239996 -2.465,1.885 -10.584,7.684 -11.888,8.989 -1.306,1.305 -5.655,5.799 -5.51,1.885 z"
     id="path18"
     style="fill:#ffffff;fill-opacity:1;stroke:none"
     inkscape:connector-curvature="0" /></svg>