<?xml version="1.0" encoding="utf-8"?>
<!-- Generator: Adobe Illustrator 21.1.0, SVG Export Plug-In . SVG Version: 6.00 Build 0)  -->
<svg version="1.0" id="Layer_1" xmlns="http://www.w3.org/2000/svg" xmlns:xlink="http://www.w3.org/1999/xlink" x="0px" y="0px"
	 width="420.9px" height="96.9px" viewBox="0 0 420.9 96.9" enable-background="new 0 0 420.9 96.9" xml:space="preserve">
<g>
	<path fill="#FFFFFF" d="M185.6,3.5c1.6-0.7,3.2-1.7,4.9-2.2c1.4-0.5,2.3,1.2,2.2,2.4c-2.4,1.7-4.7,3.4-6.6,5.7
		c-2.3,3-3.5,6.6-4.1,10.3c-0.3,3.3-0.1,6.6,0.1,10c0.7,3.3,1.4,6.6,3,9.7c0.3,0.8,0.6,1.7,1.1,2.5c0.4,1,0.8,1.9,1.3,2.9
		c0.3,0.6,0.5,1.2,0.9,1.8c0,0.1,0.1,0.5,0.1,0.6c2.3,4.7,4,9.7,6,14.5c6.1-11.6,12.3-23.3,18.8-34.7c0.4-0.8,1.4-1.2,2.3-1
		c1.1-0.2,1.7,1,2.2,1.8c4.3,9.8,8.8,19.5,13.3,29.2c0.7,1.9,1.7,3.6,2.6,5.5c0.5,0.9,0.9,2.1,2,2.3c1.2,0.4,2.5,1.3,3.8,0.9
		c1.6-0.3,2.6-2,3-3.5c0.1-10.2,0-20.5,0-30.7c-1-0.4-2.1-0.6-3.2-0.4c-3.3,0.8-6.6,1.5-9.7,2.6c-1.7,0.7-3.2,2.4-5.1,1.9
		c0-0.8,0-1.6,0.4-2.3c0.8-1.5,1.5-3.2,2.4-4.6c3.9-0.2,7.7,0,11.6-0.1c11.4,0,22.9,0,34.3,0c4.6,0.1,9.1-0.1,13.7,0.1
		c0,0.1,0.1,0.3,0.1,0.4c-1,1.1-2.4,1.7-3.4,2.9c-0.4,1-0.9,1.9-1.1,3c0,7.2,0,14.4,0,21.6c0.5,1.9,0.6,4.2,2.2,5.7
		c1.8,2.2,4.8,2.6,7.4,2.7c2.5,0.3,5.3-0.5,7-2.4c2-2.2,3-5.2,2.9-8.1c0-6.1,0-12.3,0-18.4c-0.1-1.4-0.1-3-1.1-4.1
		c-0.8-1.1-2.2-1.5-3.1-2.5c-0.1-0.9,0.7-1.2,1.4-1.1c14.7,0,29.5,0,44.2,0c2.5,0.4,5.1,1,7.3,2.5c1.9,1.3,3.2,3.3,3.7,5.5
		c0.1,1.3,0.1,2.6,0.1,3.9c0.1,3.9-2.8,7.6-6.5,8.8c-1.7,0.4-3.3,1.1-5.1,1.2c1.1,1.2,2.3,2.2,3.4,3.5c1.3,1.7,2.1,3.7,3.4,5.4
		c1.2,1.4,2.2,3,3.8,4c2.2,1.5,4.4,3.3,7.1,3.4c0.1-0.1,0.5-0.5,0.6-0.6c0-7.4,0-14.7,0-22c0.1-2.8-0.4-5.6-1.8-8
		c-1.2-2.7-3.7-4.5-5.7-6.6c0-0.2-0.1-0.7-0.1-1c1-0.8,2.3-0.4,3.4,0c7.3,2.3,14.1,6,19.9,11.1c4.3,3.5,8.7,6.9,12.9,10.4
		c1,0.8,1.8,1.7,3.1,2.1c0-5.7,0-11.5,0-17.2c0.1-1.5-0.8-2.9-2.1-3.6c-0.8-0.5-1.7-1-2.4-1.7c0.4-0.6,1.1-1.1,1.9-1
		c3.4,0,6.9,0,10.3,0c0.8-0.1,1.4,0.5,1.7,1.2c-1.5,1.5-3.8,2.2-4.3,4.4c-0.1,11.9,0,23.8,0,35.7c-0.8,0-1.6,0.1-2.2-0.5
		c-9.5-7.2-18.5-15-27.9-22.4c-0.4-0.3-0.9-0.5-1.4-0.7c0,6.6,0,13.1,0,19.7c-0.1,1.1,0.6,2.2,1.5,2.7c1,0.7,2.3,0.9,2.8,2.2
		c-0.5,0.3-1.1,0.7-1.7,0.7c-4.5,0.3-9-0.2-13.5-0.8c-5.2-1-10.7-2.4-14.7-6c-1.1-1.2-2.4-2.1-3.3-3.4c-1.7-1.9-2.7-4.3-3.7-6.5
		c-0.8-2.1-1.7-4.1-2.4-6.2c-0.2-0.6-0.1-1.1,0-1.7c2-0.1,4.1,0.2,6.1-0.1c2.2-1,4.3-2.7,4.7-5.2c0.1-1.5,0.2-2.9,0.1-4.4
		c-0.3-1.7-1.2-3.3-2.2-4.7c-1.5-0.8-3-1.9-4.8-1.9c-1.3,0-2.7-0.1-4,0.1c-1.4,0.3-2.5,1.6-2.4,3c0,8.6,0,17.2,0,25.9
		c0,1.7,0.1,3.5,0.9,5.1c1.3,1.3,3.5,1.5,4.3,3.4c-0.3,0.9-1.3,0.6-2,0.7c-6.9,0-13.8,0-20.7,0c-0.1-0.4-0.1-0.9-0.1-1.3
		c1.2-0.9,2.7-1.3,3.8-2.5c0.8-1,1.1-2.3,1.3-3.5c0-8.7,0-17.5,0-26.2c0-1.1-0.6-2.3-1.5-3c-1.5-1.2-3.6-1.2-5.3-0.8
		c-1.7,0.5-2.2,2.3-2.6,3.7c-0.1,7.3,0,14.6,0,22c-0.1,3.6-1.9,7.1-4.9,9.2c-2.8,2.1-6.2,3-9.6,3.3c-2.5,0-4.9,0-7.4,0
		c-4.1-0.3-8.2-1.8-11.1-4.6c-2.7-2.7-4.4-6.4-4.1-10.3c0-5.9,0-11.8,0-17.7c0.1-1.3-0.9-2.5-2.2-2.9c-4-2-8.5-2.3-12.8-2.8
		c-0.2,5.2-0.1,10.4-0.1,15.6c0,5.4,0,10.9,0,16.3c0.6,0.8,1,1.9,1.9,2.4c0.9,0.7,1.7,1.5,2.5,2.3c0.3,0.9-0.8,0.8-1.4,0.8
		c-11.7-0.1-23.4,0-35.1,0c-0.2-1.6,1.5-2.1,2.5-2.8c1.7-1,1.8-3.4,1.1-5.1c-2.8-6-5.5-12.1-8.3-18.1c-0.1-0.6-0.9-0.6-1.1,0
		c-3,6.3-6.4,12.5-9.6,18.7c-0.5,1-1.3,2.2-0.6,3.3c0.8,1.1,1.8,2.1,2.6,3.3c-0.2,0.2-0.6,0.5-0.8,0.7c-4.6,0.1-9.3,0-13.9,0
		c0.1,2.4-0.6,4.8-1.1,7.2c-0.3,2-1.7,3.6-2.5,5.4c-2.5,3.7-6,6.6-9.8,8.8c-3,1.8-6,3.8-9.2,5.3c-0.7,0.4-1.7,0.4-2.4,0.1
		c-0.6-0.5-0.9-1.5-0.7-2.3c1.1-1.1,2.3-1.9,3.6-2.7c4.7-3.6,6.7-9.7,7-15.4c0.3-2.4-0.1-4.7-0.1-7.1c-0.4-2.3-1.1-4.5-1.6-6.7
		c-1.2-3-2.5-5.8-3.9-8.7c-0.8-1.6-1.5-3.3-2.3-4.9c-0.3-0.7-0.6-1.5-0.9-2.2c-0.2-0.3-0.4-0.7-0.5-1c-0.5-1.6-1.2-3-1.7-4.6
		c-0.5-1.9-1-3.7-1.5-5.6c-0.8-2.6-0.5-5.3-0.5-8c0.4-2.2,1-4.4,1.7-6.5c2-4.6,5.4-8.5,9.5-11.4C180.4,6.3,183.1,5,185.6,3.5z"/>
	<g>
		<path fill="#FFFFFF" d="M152,26.1c0.8-0.3,1.8-0.3,2.7,0c0.6,0.4,0.9,1.1,1.2,1.7c4.7,10.5,9.5,20.9,14.2,31.4
			c1,1.9,1.7,4,3.3,5.6c0.8,1.1,2.2,1.6,3.4,2.1c0.4,0.7,0.2,1.9-0.7,1.9c-4.4-0.1-8.7-0.1-13.1,0c-0.5,0-1,0.1-1.5-0.2
			c-0.1-0.8-0.2-1.8,0.8-2.1c1.1-0.4,2.4-0.7,3-1.8c0.1-1.2,0.1-2.5-0.4-3.6c-1.5-3.5-3.1-6.9-4.6-10.4c-1.4-2.9-2.5-5.9-4-8.7
			c-1,1.5-1.7,3.3-2.6,4.8c-2.8,5.4-5.9,10.5-8.3,16.1c-0.8,2.1,1.4,3.1,2.4,4.6c-0.1,0.3-0.3,0.8-0.4,1.1c-0.7,0.2-1.3,0.4-2.1,0.3
			c-5-0.1-9.9,0-14.9,0c-3-0.1-5.8,1.4-8.8,1.2c-3.6-0.1-7.4,0.3-10.8-0.9c-2.1-0.8-4.3-1.6-6.3-2.5c-1.5-0.7-2.7-1.8-4.1-2.5
			c-0.6,1.4-1.3,2.7-2,4.1c-0.2,0.7-1,0.6-1.5,0.6c-12.6-0.1-25.2-0.1-37.8,0c-0.5,0-1.5,0.1-1.4-0.6c-0.1-0.7,0.7-1.1,1.1-1.6
			c2,0.1,3.4-1.8,3.4-3.6c0-7.8,0-15.6,0-23.4c0.1-1.5-1.1-2.4-2-3.3c-5.2-3.5-11.6-4.3-17.6-5.5c-1.7-0.1-3.5,0-5.2,0.6
			c-1.4,0.5-2.2,1.8-2.2,3.3c0.7,1.3,1.6,2.7,2.8,3.7c1.7,1.2,3.4,2.5,5.4,3.2c1.9,0.7,3.6,1.7,5.3,2.7c1.8,1,3.7,1.9,5.3,3.3
			c2,1.9,4.2,3.9,5,6.6c0.9,2,0.7,4.2,0.6,6.3c-0.5,2.9-2.8,5.2-5.2,6.5c-4.5,1.8-9.4,2.4-14.2,2.1c-1.2-0.4-2.4-0.1-3.6-0.4
			c-1.7-0.4-3.3-0.1-5-0.2c-2.2-0.1-4.2,1.3-6.3,0.6c-2.4-3.7-4.3-7.6-6.5-11.4c-0.4-0.7-0.4-1.5-0.4-2.3c0.6-0.1,1.2-0.3,1.8,0.1
			c1.5,0.7,2.5,2,3.8,3c2.4,1.9,5.1,3.7,7.9,5.2c2.5,0.7,5.2,1.9,7.9,1.4c1.5-0.4,3.1-0.6,4.3-1.7c1-0.8,2.2-1.8,2.3-3.3
			c0-2.4-2.1-4-3.8-5.3c-5.3-3.3-11-6.1-16.3-9.6c-1.7-1.5-3.3-3.2-4.1-5.3c-0.2-1.6-0.2-3.3,0-5c0.7-1.6,1.5-3.3,2.9-4.4
			c2-1.6,4.5-2.4,6.9-2.9c4.1-0.3,8.2-0.3,12.3-0.2c2.6,0.4,5.2-0.2,7.8,0.5c3.5,0,6.9,0.5,10.4,0.4c0.9,0.5,2.1,0.2,3,0.3
			c10.3,0,20.6,0,30.8,0c0.8-0.1,1.1,0.8,1.4,1.4c0.9,1.6,1.6,3.4,2.5,5c1.1-0.8,2.1-1.8,3.2-2.6c3.6-2.2,7.7-3.7,12-4.4
			c1.8,0,3.5,0,5.3,0c2.2-0.1,4.3,0.5,6.4,0.9c2.3,0.5,4.2-1.3,6.5-1.6c1.5,0.8,1.6,2.6,2.1,4c1,2.6,1.9,5.2,2.6,7.9
			c-0.1,0.3-0.2,0.6-0.4,1c-1.7,0.4-2.8-1.3-3.7-2.4c-1-1.5-2.7-2.3-4-3.4c-1.3-1.2-3-1.6-4.6-2.2c-4-1.2-8.7-1.3-12.3,1.1
			c-1.3,0.8-2.1,2.2-2.8,3.5c-2,4.7-1.5,9.9-1.5,14.9c-0.1,2.8,0.5,5.6,1.4,8.2c0.8,2.8,2.8,5.3,5.6,6.5c1.7,0.4,3.4,0.9,5.2,0.5
			c1.5-0.4,3.2-0.5,4.4-1.7c1.7-1.3,2.6-3.4,2.8-5.4c0-2.3-1.4-4.6-3.4-5.8c-1.2-0.7-2.7-0.7-4-1.4c-0.8-0.6,0.2-1.8,1-1.6
			c4.7,0,9.4,0,14.2,0c1.3,0.1,2.5-0.6,3.3-1.6c3.7-6.7,7.4-13.4,11-20.1C150.6,28.1,151,26.9,152,26.1z M75,33.4
			c-0.9,2.1-0.4,4.3-0.5,6.5c0.1,2.2-0.2,4.4,0.2,6.4c0.7,0,1.5,0.1,2.1-0.1c3.5-1.2,6.6-3.1,9.6-5.2c0.8-0.6,1.8-1,2.8-0.7
			c0.1,4,0,8,0.1,12c0,1.3,0.2,2.7-0.2,4c-1-0.2-2-0.7-2.8-1.4c-1.7-1.6-4-2.4-6-3.5c-1.1-0.5-2.2-0.8-3.3-1.3
			c-0.8-0.2-2.1-0.3-2.4,0.8c-0.1,3.5,0,7-0.1,10.5c-0.1,1.7,0.9,3.7,2.8,4c1.9,0,3.7,0.1,5.6-0.1c4.8-1.2,10.2-2.5,13.3-6.7
			c-0.4-2.5-1.6-4.9-1.8-7.4c0-2.7-0.3-5.5,0.6-8.1c0.2-1.5,1.1-2.7,1.9-3.8c0.5-0.5,0.3-1.3-0.2-1.7c-5.1-3.9-11.5-6.3-18-5.9
			C77.3,31.5,75.7,32.1,75,33.4z"/>
	</g>
</g>
</svg>
