<?xml version="1.0" encoding="UTF-8" standalone="no"?>
<!-- Generator: Adobe Illustrator 21.1.0, SVG Export Plug-In . SVG Version: 6.00 Build 0)  -->

<svg
   xmlns:dc="http://purl.org/dc/elements/1.1/"
   xmlns:cc="http://creativecommons.org/ns#"
   xmlns:rdf="http://www.w3.org/1999/02/22-rdf-syntax-ns#"
   xmlns:svg="http://www.w3.org/2000/svg"
   xmlns="http://www.w3.org/2000/svg"
   xmlns:sodipodi="http://sodipodi.sourceforge.net/DTD/sodipodi-0.dtd"
   xmlns:inkscape="http://www.inkscape.org/namespaces/inkscape"
   version="1.0"
   id="Capa_1"
   x="0px"
   y="0px"
   width="407.98547"
   height="111.25915"
   viewBox="0 0 407.98547 111.25914"
   enable-background="new 0 0 445.5 111.3"
   xml:space="preserve"
   sodipodi:docname="scummvm.svg"
   inkscape:version="0.92.2 (unknown)"><metadata
     id="metadata222"><rdf:RDF><cc:Work
         rdf:about=""><dc:format>image/svg+xml</dc:format><dc:type
           rdf:resource="http://purl.org/dc/dcmitype/StillImage" /></cc:Work></rdf:RDF></metadata><defs
     id="defs220" /><sodipodi:namedview
     pagecolor="#ffffff"
     bordercolor="#666666"
     borderopacity="1"
     objecttolerance="10"
     gridtolerance="10"
     guidetolerance="10"
     inkscape:pageopacity="0"
     inkscape:pageshadow="2"
     inkscape:window-width="640"
     inkscape:window-height="480"
     id="namedview218"
     showgrid="false"
     fit-margin-top="0"
     fit-margin-left="0"
     fit-margin-right="0"
     fit-margin-bottom="0"
     inkscape:zoom="0.61279461"
     inkscape:cx="203.83546"
     inkscape:cy="55.887498"
     inkscape:window-x="0"
     inkscape:window-y="0"
     inkscape:window-maximized="0"
     inkscape:current-layer="Capa_1" /><path
     d="m 405.98546,13.62165 c -1.4,-1.6 -3.3,-2.6 -5.4,-2.8 l -13,-1.1 c -3.4,-0.3 -7,1.6 -8.6,4.6 0,0 -17.4,31.8 -25.7,46.9 -4.5,-16.5 -13.7,-50.8 -13.7,-50.8 -0.9,-3.5 -4.1,-6.1 -7.6,-6.5 l -14.3,-1.4 c -2.4,-0.2 -4.6,0.6 -6.2,2.1 -0.3,-1.1 -0.9,-2.1 -1.7,-2.9 -1.5,-1.39999999 -3.5,-1.99999999 -5.5,-1.59999999 l -16.9,3.39999999 c -2.6,0.5 -4.5,2.6 -4.9,5.2 0,0 -3.2,23 -5.5,40.3 -8.6,-15.3 -20.1,-35.7 -20.1,-35.7 -1.3,-2.3 -4,-3.6 -6.6,-3 l -18.9,3.9 c -2,0.4 -3.6,1.7 -4.4,3.6 -0.8,1.8 -0.7,3.9 0.3,5.6 l 13.5,22.7 c -1.3,0.2 -2.5,0.4 -3.7,0.8 -1.2,0.3 -2.5,1.4 -3.9,1.4 -1,0 -2.5,-0.9 -3.9,-1.2 -1.4,-0.4 -2.9,-0.7 -4.4,-0.7 -1.6,0 -3.4,0.8 -5,0.7 -1.8,-0.1 -3.5,-1.2 -5.5,-1.2 -4.3,-0.2 -9.7,-0.4 -13.3,1.1 -1.3,0.5 -3,3 -4.4,3 -1.2,0 -3.3,-1.9 -4.4,-2.3 -5.1,-1.9 -10.6,-2.2 -15.6,-0.9 -1.4,0.4 -3.2,1.6 -4.8,1.6 -1.1,0 -2.4,-0.9 -3.7,-1.2 -1.4,-0.4 -3,-0.7 -4.4,-0.7 -1.8,0 -3.7,0.8 -5.3,0.7 -1.7,-0.1 -3.5,-1.2 -5.3,-1.2 -2.5,-0.1 -5.5,0.1 -8.1,0.2 -1.4,0.1 -3.1,0.7 -4.4,0.5 -1.4,-0.2 -2.7,-1.6 -3.9,-1.9 -3.7,-1.1 -13.9,-0.7 -17.2,0.4 -1.1,0.3 -2.9,2 -4.3,2.1 -1.3,0.1 -3,-1.1 -4.6,-1.2 -4.1,-0.4 -13.399998,-0.3 -16.299998,0.9 -1.3,0.5 -3,3.4 -4.4,3.4 -0.8,0 -2.1,-1.4 -3,-1.9 -7.1,-4.5 -19.4,-4.8 -27.1,-1.2 -2.2,1 -3.7,2.8 -6.2,3.4 2,-9.1 -4.3,-12.3 -10.3,-15.8 -4.2,-2.4 -9.2,-3.9 -14,-4.3 -12.7,-0.9 -22.0000003,4.8 -25.5000003,12.8 -2.99999998,6.6 -2,15.4 1.1,20.7 0.7,1.2 3.3,3.5 3.2,5.1 0,0.9 -1.2,1.8 -1.9,2.7 -2.1,2.4 -4.9,5.2 -5.79999998,8 -1.90000002,5.3 2.19999998,9.6 4.99999998,12.2 5.5000003,5.1 13.9000003,9 24.4000003,8.3 7,-0.5 12.6,-2.8 16.8,-6 1.1,-0.8 3.1,-3.5 4.3,-3.5 1.4,0 3,2.7 4.1,3.5 7.9,6.2 23,7.9 31.9,1.9 2,-1.3 3.4,-3.2 5.5,-4.3 4.8,5.3 11.999998,9.9 21.599998,9 1.7,-0.1 3.5,-1.1 5.5,-1.1 1.5,0 2.9,0.7 4.3,0.9 3.9,0.4 8.5,0.3 12.6,-0.2 1.5,-0.2 3.2,-1.3 4.8,-1.4 0.9,-0.1 2,0.3 3,0.4 3.6,0.2 7.9,0.1 11.3,-0.2 1.3,-0.1 2.7,-0.8 3.9,-0.7 1.3,0.1 2.7,1 4.1,1.2 3.6,0.7 9.6,0.9 13.3,0.5 2.5,-0.2 4.5,-1.9 6.4,-2.1 4.1,-0.4 9.1,1.9 13.8,1.4 1.3,-0.1 2.7,-1 3.9,-1.1 1.2,0 2.7,0.8 4.1,0.9 3.8,0.3 8.6,0.2 12.2,-0.2 1.3,-0.1 2.5,-0.8 3.7,-0.7 1.3,0.1 2.5,1 3.7,1.2 2,0.4 4.3,0.4 6.6,0.4 3.7,0 7.1,0.4 9.7,-0.4 1.2,-0.4 2.2,-1.4 3.5,-1.6 2.2,-0.3 4.7,0.6 6.9,0.9 2.5,0.3 5.1,0.9 7.4,0.5 5.1,-0.7 6.5,-5.8 7.2,-11.3 l 7.8,13.2 c 1.3,2.2 3.9,3.4 6.5,2.9 l 11.3,-2.1 c 2.5,-0.5 4.5,-2.5 4.9,-5 l 0.2,-1.2 c 0.3,1.1 0.8,2.2 1.5,3.1 1.3,1.7 3.3,2.8 5.5,3 l 11.5,1 c 4.3,0.4 8.1,-2.7 8.7,-6.9 0,0 1.6,-11.7 3.2,-23.3 3.9,13.4 7.8,26.8 7.8,26.8 1,3.4 4.1,6 7.6,6.4 l 7.7,0.8 c 3.4,0.4 7,-1.5 8.7,-4.4 0,0 6.9,-11.9 13.7,-23.8 -1,11.1 -1.9,22.3 -1.9,22.3 0,0.2 0,0.5 0,0.7 0,4.1 3.1,7.6 7.2,8 l 13.8,1.4 c 2.1,0.2 4.2,-0.4 5.9,-1.8 1.7,-1.4 2.7,-3.3 2.9,-5.4 l 7.5,-84.1 c 0,-2.6 -0.6,-4.7 -2,-6.3 z m -359.499998,70.2 c -1.2,2.2 -2.8,3.9 -4.8,5.3 -2,1.4 -4.2,2.4 -6.7,3.1 -2.5,0.7 -5,1 -7.5,1 -5,0 -9.2,-0.9 -12.6,-2.8 -3.4,-1.9 -6.5000003,-4.7 -9.2000003,-8.4 l 5.8000003,-7.3 c 0.5,-0.7 1.5,-0.7 2,-0.1 0,0 0.7,0.7 1.8,1.6 1.1,0.9 2.4,1.7 3.7,2.4 1.3,0.7 2.7,1.2 4.1,1.7 1.4,0.4 2.7,0.7 3.9,0.7 1.2,0 2.1,-0.2 2.7,-0.7 0.6,-0.4 0.9,-1.3 0.9,-2.4 0,-1 -0.6,-2 -1.7,-2.9 -1.1,-0.9 -2.5,-1.9 -4.2,-2.9 -1.7,-1 -3.5,-2.1 -5.4,-3.3 -1.9,-1.2 -3.7,-2.5 -5.4,-4.1 -1.7,-1.6 -3.1,-3.4 -4.2000003,-5.4 -1.1,-2 -1.7,-4.4 -1.7,-7.1 0,-2.6 0.5,-4.9 1.5,-6.9 1.0000003,-2 2.3000003,-3.6 4.0000003,-4.9 1.7,-1.3 3.6,-2.3 5.8,-3 2.2,-0.7 4.5,-1 7,-1 4.4,0 8.3,0.8 11.7,2.4 3.5,1.6 6.8,4 9.9,7.1 l -4.7,7.3 c -0.5,0.7 -1.4,0.9 -2,0.3 0,0 -1.2,-1 -2.5,-1.9 -1.3,-0.8 -2.6,-1.6 -3.8,-2.2 -1.3,-0.6 -2.4,-1 -3.5,-1.3 -1.1,-0.3 -2,-0.4 -2.9,-0.4 -1,0 -1.7,0.2 -2.2,0.7 -0.5,0.5 -0.7,1.1 -0.7,1.9 0,1 0.6,1.9 1.7,2.7 1.1,0.8 2.5,1.7 4.2,2.6 1.7,0.9 3.5,1.9 5.4,3 1.9,1.1 3.7,2.5 5.4,4 1.7,1.6 3.1,3.5 4.2,5.7 1.1,2.2 1.7,4.8 1.7,7.9 0.1,2.9 -0.5,5.5 -1.7,7.6 z m 21.4,-6 c 1.3,1.6 3.1,2.4 5.2,2.4 0.6,0 1.2,-0.1 2,-0.4 0.7,-0.3 1.4,-0.7 2.1,-1.2 0.7,-0.5 1.3,-1.1 1.8,-1.8 0.5,-0.7 0.9,-1.5 1.1,-2.4 l 9.6,2.7 c 0.8,0.2 1.3,1.1 1.1,1.9 0,0 -1.1,3.5 -2.3,5.4 -1.2,2 -2.6,3.6 -4.3,4.8 -1.6,1.3 -3.4,2.2 -5.4,2.8 -2,0.6 -4,0.9 -6,0.9 -3.6,0 -6.8,-0.6 -9.4,-1.7 -2.6,-1.1 -4.8,-2.7 -6.5,-4.6 -1.7,-1.9 -3,-4.2 -3.8,-6.7 -0.8,-2.5 -1.2,-5.2 -1.2,-8.1 0,-3.3 0.4,-6.2 1.3,-8.8 0.9,-2.6 2.2,-4.9 4,-6.8 1.7,-1.9 3.9,-3.3 6.4,-4.3 2.6,-1 5.5,-1.5 8.7,-1.5 5.3,0 9.6,1.4 12.7,4.1 3.2,2.8 5.2,6.4 6.3,10.9 l -9.9,2.5 c -0.8,0.2 -1.8,-0.3 -2.1,-1.1 0,0 -0.5,-1.2 -1.6,-2.3 -1.1,-1.1 -2.8,-1.7 -5.1,-1.7 -0.8,0 -1.5,0.2 -2.3,0.5 -0.8,0.4 -1.5,0.9 -2.1,1.5 -0.6,0.7 -1.1,1.5 -1.5,2.6 -0.4,1 -0.6,2.3 -0.6,3.7 -0.2,2.9 0.5,5.1 1.8,6.7 z m 56.099998,16.1 c -0.9,0 -1.6,-0.7 -1.6,-1.5 0,-0.5 0.4,-1.9 -0.3,-2.1 -0.5,-0.2 -1.1,0.6 -1.4,0.9 -0.8,0.6 -1.6,1.1 -2.5,1.5 -0.9,0.4 -1.8,0.8 -2.8,1 -1,0.2 -1.9,0.4 -2.9,0.4 -3.2,0 -6,-0.4 -8.3,-1.3 -2.3,-0.9 -4.199998,-2.2 -5.699998,-3.8 -1.5,-1.6 -2.6,-3.6 -3.3,-6 -0.7,-2.4 -1.1,-5 -1.1,-7.9 0,-2.1 0.1,-4.4 0.3,-7 0.2,-2.6 0.4,-5.1 0.7,-7.4 0.3,-2.7 0.6,-5.4 1,-8.2 l 13.999998,-0.1 c 0.9,0 1.5,0.7 1.3,1.5 0,0 -0.6,3.3 -0.9,6 -0.3,2.3 -0.5,4.8 -0.8,7.5 -0.3,2.8 -0.4,5.4 -0.4,8.2 0,1.6 0.5,2.9 1.4,4 0.9,1.1 2.3,1.7 4.2,1.7 1.7,0 3.2,-0.6 4.5,-1.7 1.3,-1.1 1.9,-2.6 1.9,-4.5 0,-2.5 0,-4.7 0,-6.5 0,-1.8 -0.1,-3.6 -0.2,-5.4 -0.1,-1.7 -0.2,-3.6 -0.3,-5.5 -0.1,-1.9 -0.3,-4.2 -0.4,-6.8 l 13.4,-0.3 c 0.9,0 1.6,0.7 1.6,1.5 0,0 0.2,6.2 0.3,9.7 0.1,3.5 0.3,6.9 0.4,10.3 0.1,3.4 0.3,6.8 0.4,10.3 0.1,3.5 0.3,7.2 0.4,11.2 z m 74.1,-10.6 c -0.4,3.1 -0.9,6.4 -1.5,9.8 l -13.5,-1.8 c -0.9,-0.1 -1.4,-0.9 -1.2,-1.7 0,0 1.6,-7.1 2.1,-10.4 0.5,-3.3 0.8,-6 0.8,-8.1 0,-2.2 -0.3,-3.8 -0.9,-4.8 -0.6,-0.9 -1.5,-1.4 -2.6,-1.4 -1.8,0 -3,1.3 -3.4,3.8 -0.4,2.5 -0.7,6.4 -0.7,11.6 0,0.7 0,1.6 0,2.8 0,1.1 0.1,2.3 0.1,3.6 0,1.2 0.1,2.5 0.2,3.7 0.1,1.2 0.2,2.2 0.3,3 l -13.3,-0.3 c -0.9,0 -1.5,-0.7 -1.5,-1.6 0,0 0,-1.3 0.1,-2.5 0.1,-1.2 0.1,-2.4 0.1,-3.7 0,-1.3 0,-2.9 0,-4.7 0,-1.8 0,-4.1 0,-6.9 0,-1.1 0,-2.2 -0.1,-3.3 -0.1,-1.1 -0.2,-2 -0.5,-2.8 -0.2,-0.8 -0.6,-1.5 -0.9,-2 -0.4,-0.5 -0.9,-0.7 -1.5,-0.7 -1.4,0 -2.3,0.4 -2.7,1.2 -0.4,0.8 -0.6,1.6 -0.6,2.3 l -0.5,22.3 c 0,0.9 -0.7,1.6 -1.6,1.6 l -11.4,0.2 c -0.9,0 -1.6,-0.7 -1.6,-1.5 0,0 0,-6.4 0,-9.9 0,-3.5 0,-6.8 0,-9.9 0,-3.1 -0.1,-6.2 -0.2,-9.2 -0.1,-3 -0.2,-6.2 -0.4,-9.5 l 11.7,-0.3 c 0.9,0 1.6,0.7 1.7,1.5 0,0.2 0.1,0.5 0.1,0.7 0,0.3 0.1,0.7 0.1,1 0,0.3 0,0.8 0.4,0.9 0.4,0 0.5,-0.3 0.8,-0.5 0.6,-0.5 1.1,-1 1.7,-1.4 0.7,-0.5 1.6,-0.9 2.5,-1.3 0.9,-0.3 1.9,-0.5 2.9,-0.5 2.1,0 3.8,0.5 5.1,1.4 0.8,0.5 1.5,1.2 2,2 0.2,0.3 0.3,0.5 0.7,0.6 0.1,0 0.2,0 0.3,0 0.4,-0.1 0.7,-0.5 0.9,-0.8 0.4,-0.4 0.8,-0.7 1.2,-1 0.5,-0.3 1,-0.7 1.5,-1 1.9,-1.1 4.1,-1.7 6.7,-1.7 3.5,0 6.3,0.5 8.5,1.6 2.2,1.1 3.9,2.6 5.1,4.5 1.2,1.9 2.1,4.2 2.6,6.9 0.5,2.7 0.7,5.6 0.7,8.8 0.3,3.2 0.1,6.2 -0.3,9.4 z m 186.2,-66.1 c 0.5,-0.9 1.7,-1.5 2.7,-1.4 l 4.3,0.4 -4.4,13.2 h -9.2 z m -67.3,-8.6 14.3,1.4 c 1,0.1 2,1 2.3,1.9 l 4,14.7 h -16.6 -0.4 l -0.1,0.4 -2.1,6.7 h -6.9 l 3.5,-23.6 c 0,-0.9 1,-1.6 2,-1.5 z m -25,50 v -10.7 l 1.4,-1.4 0.2,-0.2 v -0.2 -2.6 h 5.4 l -2.6,15.1 z m -3.7,-47.3 c 0.1,-1 1,-2 2,-2.2 l 5,-1 v 3.9 l -1.3,1.1 -0.2,0.2 v 0.2 2.8 l -1.3,1.4 -0.1,0.2 v 0.2 8.5 l -1.7,1.4 h -4.8 z m -54.9,10.4 c -0.5,-0.9 -0.1,-1.7 0.9,-1.9 l 15.3,-3.2 c 1,-0.2 2.2,0.3 2.7,1.2 l 3.2,5.7 h -3.4 -0.3 l -0.2,0.2 -1,1.3 h -5.1 -0.4 v 0.5 6.7 h -5.3 z m 12.2,11.7 h 0.5 v -0.5 -6.7 h 4.9 0.3 l 0.2,-0.2 1,-1.3 h 3.7 l 16.5,29.3 -7.7,6.4 c -1.9,-6 -5.3,-10.5 -10.7,-12.7 -2,-0.8 -4.2,-1.3 -6.3,-1.6 l -7.5,-12.6 z m 14,49.9 c -0.1,0.9 -0.2,1.8 -0.4,2.7 -0.2,1.1 -0.3,2.1 -0.4,3.2 -0.1,0.7 -0.1,1.4 -0.2,2.1 -0.1,0.5 -0.1,1.1 -0.4,1.5 -0.4,0.4 -0.9,0.2 -1.3,0.1 -0.7,-0.1 -1.4,-0.2 -2.1,-0.3 -1.2,-0.1 -2.3,-0.3 -3.5,-0.4 -1.8,-0.2 -3.7,-0.5 -5.5,-0.7 -0.4,0 -0.7,-0.1 -1.1,-0.1 -0.9,-0.1 -1.4,-0.9 -1.2,-1.7 0,0 1.6,-7.1 2.1,-10.4 0.5,-3.3 0.8,-6 0.8,-8.1 0,-2.2 -0.3,-3.8 -0.9,-4.8 -0.6,-0.9 -1.5,-1.4 -2.6,-1.4 -1.8,0 -3,1.3 -3.4,3.8 -0.4,2.5 -0.7,6.4 -0.7,11.6 0,0.7 0,1.6 0,2.8 0,1.1 0.1,2.3 0.1,3.6 0,1.2 0.1,2.5 0.2,3.7 0,0.7 0.2,1.3 0.2,2 0,0.4 0.1,0.9 -0.4,1 -0.6,0.1 -1.4,0 -2.1,0 -1.1,0 -2.2,0 -3.2,-0.1 -1.1,0 -2.3,0 -3.4,-0.1 -0.9,0 -1.9,0 -2.8,-0.1 -0.4,0 -0.9,0 -1.3,0 0,0 0,0 0,0 -0.9,0 -1.5,-0.7 -1.5,-1.6 0,0 0,-1.3 0.1,-2.5 0.1,-1.2 0.1,-2.4 0.1,-3.7 0,-1.3 0,-2.9 0,-4.7 0,-1.8 0,-4.1 0,-6.9 0,-1.1 0,-2.2 -0.1,-3.3 -0.1,-1.1 -0.2,-2 -0.5,-2.8 -0.2,-0.8 -0.6,-1.5 -0.9,-2 -0.4,-0.5 -0.9,-0.7 -1.5,-0.7 -1.4,0 -2.3,0.4 -2.7,1.2 -0.4,0.8 -0.6,1.6 -0.6,2.3 l -0.5,22.3 c 0,0.9 -0.7,1.6 -1.6,1.6 l -11.4,0.2 c -0.9,0 -1.6,-0.7 -1.6,-1.5 0,0 0,-6.4 0,-9.9 0,-3.5 0,-6.8 0,-9.9 0,-3.1 -0.1,-6.2 -0.2,-9.2 -0.1,-3 -0.2,-6.2 -0.4,-9.5 l 11.7,-0.3 c 0.9,0 1.6,0.7 1.7,1.5 0,0.4 0.1,0.9 0.1,1.3 0,0.3 0,0.7 0.1,1 0,0.2 0.2,0.5 0.4,0.5 0.2,0 0.4,-0.1 0.5,-0.2 0.1,-0.1 0.2,-0.2 0.2,-0.3 0.5,-0.6 1.1,-1.1 1.8,-1.6 0.7,-0.5 1.6,-0.9 2.5,-1.3 0.9,-0.3 1.9,-0.5 2.9,-0.5 2.1,0 3.8,0.5 5.1,1.4 0.7,0.5 1.4,1.1 1.9,1.8 0.2,0.3 0.5,0.7 0.9,0.8 0.5,0.1 0.9,-0.6 1.2,-0.9 0.4,-0.4 0.8,-0.7 1.2,-1 0.5,-0.3 0.9,-0.6 1.4,-0.9 1.9,-1.1 4.1,-1.7 6.7,-1.7 0.3,0 0.7,0 1,0 v 0 c 0.3,0 0.7,0 1,0.1 0.1,0 0.1,0 0.2,0 0.3,0 0.6,0 0.8,0.1 0.1,0 0.2,0 0.3,0 0.3,0 0.5,0.1 0.7,0.1 0.1,0 0.2,0 0.3,0.1 0.2,0 0.4,0.1 0.6,0.1 0.1,0 0.3,0.1 0.4,0.1 0.2,0 0.4,0.1 0.6,0.1 0.1,0 0.3,0.1 0.4,0.1 0.2,0 0.3,0.1 0.5,0.1 0.2,0.1 0.3,0.1 0.5,0.2 0.1,0 0.2,0.1 0.3,0.1 0.3,0.1 0.5,0.2 0.8,0.4 0.2,0.1 0.4,0.2 0.6,0.3 0.1,0.1 0.3,0.1 0.4,0.2 v 0 c 1.7,1 3.1,2.3 4.1,4 1.2,1.8 2,4 2.5,6.5 v 0 c 0,0.1 0,0.2 0.1,0.4 0.5,2.7 0.7,5.6 0.7,8.8 0,0.8 0,1.5 0,2.3 0,0 0,0 0,0 0,0.8 -0.1,1.5 -0.1,2.3 v 0 c 0.2,1.6 0,3.1 -0.2,4.7 z m 30.8,10.9 c -0.2,1 -1.1,1.9 -2.1,2.1 l -7.8,1.5 c -1,0.2 -2.2,-0.4 -2.7,-1.2 l -5.5,-9.2 11,-4.1 0.4,-0.1 v -0.4 -4.9 l 2.7,-2.1 h 3.9 0.2 l 0.1,-0.1 3.3,-2.6 z m 3.9,-22.7 -4.1,3.2 h -3.9 -0.2 l -0.1,0.1 -3.1,2.4 -0.2,0.2 v 0.3 4.8 l -10.8,4 -5.2,-8.8 c 0.3,-5.9 -0.1,-11.4 -1.4,-16.1 l 7.9,-6.6 6.4,11.5 c 0.5,0.9 1,0.8 1.1,-0.2 l 5.1,-37.1 h 5.1 0.2 l 0.2,-0.1 2,-1.7 0.2,-0.2 v -0.3 -8.6 l 1.3,-1.4 0.1,-0.2 v -0.2 -2.8 l 1.3,-1.1 0.2,-0.2 v -0.2 -4.3 l 7.2,-1.4 c 1,-0.2 1.6,0.4 1.5,1.4 l -5.9,34.6 h -6.1 -0.5 v 0.5 2.9 l -1.4,1.4 -0.2,0.2 v 0.2 11.5 0.5 h 0.5 4.8 z m 23.3,23.7 c -0.1,1 -1.1,1.7 -2.1,1.6 l -11.5,-1 c -1,-0.1 -1.7,-1 -1.5,-2 l 1.7,-11.7 15,1.8 z m 1.7,-12.3 -15,-1.8 1.1,-7.2 h 4.7 l 2.5,1.4 0.1,0.1 h 0.1 7.5 z m 6,-37.9 c -0.3,-1 -0.6,-0.9 -0.8,0.1 l -4.1,29.2 h -7.5 l -2.5,-1.4 -0.1,-0.1 h -0.1 -4.7 l 5.7,-38 h 7.4 0.4 l 0.1,-0.4 2.1,-6.7 h 16.5 l 8,29.5 h -7.8 -0.5 v 0.5 19.9 h -2.7 z m 68.9,58 c -0.1,1 -1,1.7 -2,1.6 l -6.7,-0.7 0.7,-9.6 3.5,-0.5 h 0.3 l 0.1,-0.3 0.9,-1.8 h 4.2 z m 1.1,-12.3 h -4.7 -0.3 l -0.1,0.3 -0.9,1.8 -3.6,0.5 -0.4,0.1 v 0.4 l -0.7,10 -6.1,-0.6 c -1,-0.1 -1.7,-1 -1.7,-2 l 2.5,-28.5 h 7.5 0.5 v -0.5 -17.4 l 3.1,-11.2 h 9.1 z m 4.3,-48.2 h -9.6 -0.4 l -0.1,0.4 -3.2,11.7 v 0.1 0.1 16.9 h -6.9 l 1.6,-18.5 c 0.1,-1 -0.3,-1.1 -0.8,-0.2 l -26.7,46.3 c -0.5,0.9 -1.7,1.5 -2.7,1.4 l -7.7,-0.8 c -1,-0.1 -2,-1 -2.3,-1.9 l -5.7,-19.3 h 2.9 0.5 v -0.5 -19.9 h 7.5 l 4.7,17.6 c 0.3,1 0.9,1 1.3,0.2 l 25,-45.6 h 10.2 0.4 l 0.1,-0.4 4.6,-13.8 7.6,0.7 c 1,0.1 1.7,1 1.6,2 z"
     id="path215"
     inkscape:connector-curvature="0"
     style="fill:#ffffff" /></svg>