<?xml version="1.0" encoding="utf-8"?>
<!-- Generator: Adobe Illustrator 21.1.0, SVG Export Plug-In . SVG Version: 6.00 Build 0)  -->
<svg version="1.0" id="Capa_1" xmlns="http://www.w3.org/2000/svg" xmlns:xlink="http://www.w3.org/1999/xlink" x="0px" y="0px"
	 width="445.5px" height="111.3px" viewBox="0 0 445.5 111.3" enable-background="new 0 0 445.5 111.3" xml:space="preserve">
<path fill="#FFFFFF" d="M424.9,13.9c-1.4-1.6-3.3-2.6-5.4-2.8l-13-1.1c-3.4-0.3-7,1.6-8.6,4.6c0,0-17.4,31.8-25.7,46.9
	c-4.5-16.5-13.7-50.8-13.7-50.8c-0.9-3.5-4.1-6.1-7.6-6.5l-14.3-1.4c-2.4-0.2-4.6,0.6-6.2,2.1c-0.3-1.1-0.9-2.1-1.7-2.9
	c-1.5-1.4-3.5-2-5.5-1.6l-16.9,3.4c-2.6,0.5-4.5,2.6-4.9,5.2c0,0-3.2,23-5.5,40.3c-8.6-15.3-20.1-35.7-20.1-35.7
	c-1.3-2.3-4-3.6-6.6-3l-18.9,3.9c-2,0.4-3.6,1.7-4.4,3.6c-0.8,1.8-0.7,3.9,0.3,5.6l13.5,22.7c-1.3,0.2-2.5,0.4-3.7,0.8
	c-1.2,0.3-2.5,1.4-3.9,1.4c-1,0-2.5-0.9-3.9-1.2c-1.4-0.4-2.9-0.7-4.4-0.7c-1.6,0-3.4,0.8-5,0.7c-1.8-0.1-3.5-1.2-5.5-1.2
	c-4.3-0.2-9.7-0.4-13.3,1.1c-1.3,0.5-3,3-4.4,3c-1.2,0-3.3-1.9-4.4-2.3c-5.1-1.9-10.6-2.2-15.6-0.9c-1.4,0.4-3.2,1.6-4.8,1.6
	c-1.1,0-2.4-0.9-3.7-1.2c-1.4-0.4-3-0.7-4.4-0.7c-1.8,0-3.7,0.8-5.3,0.7c-1.7-0.1-3.5-1.2-5.3-1.2c-2.5-0.1-5.5,0.1-8.1,0.2
	c-1.4,0.1-3.1,0.7-4.4,0.5c-1.4-0.2-2.7-1.6-3.9-1.9c-3.7-1.1-13.9-0.7-17.2,0.4c-1.1,0.3-2.9,2-4.3,2.1c-1.3,0.1-3-1.1-4.6-1.2
	c-4.1-0.4-13.4-0.3-16.3,0.9c-1.3,0.5-3,3.4-4.4,3.4c-0.8,0-2.1-1.4-3-1.9c-7.1-4.5-19.4-4.8-27.1-1.2c-2.2,1-3.7,2.8-6.2,3.4
	c2-9.1-4.3-12.3-10.3-15.8c-4.2-2.4-9.2-3.9-14-4.3c-12.7-0.9-22,4.8-25.5,12.8c-3,6.6-2,15.4,1.1,20.7c0.7,1.2,3.3,3.5,3.2,5.1
	c0,0.9-1.2,1.8-1.9,2.7c-2.1,2.4-4.9,5.2-5.8,8c-1.9,5.3,2.2,9.6,5,12.2c5.5,5.1,13.9,9,24.4,8.3c7-0.5,12.6-2.8,16.8-6
	c1.1-0.8,3.1-3.5,4.3-3.5c1.4,0,3,2.7,4.1,3.5c7.9,6.2,23,7.9,31.9,1.9c2-1.3,3.4-3.2,5.5-4.3c4.8,5.3,12,9.9,21.6,9
	c1.7-0.1,3.5-1.1,5.5-1.1c1.5,0,2.9,0.7,4.3,0.9c3.9,0.4,8.5,0.3,12.6-0.2c1.5-0.2,3.2-1.3,4.8-1.4c0.9-0.1,2,0.3,3,0.4
	c3.6,0.2,7.9,0.1,11.3-0.2c1.3-0.1,2.7-0.8,3.9-0.7c1.3,0.1,2.7,1,4.1,1.2c3.6,0.7,9.6,0.9,13.3,0.5c2.5-0.2,4.5-1.9,6.4-2.1
	c4.1-0.4,9.1,1.9,13.8,1.4c1.3-0.1,2.7-1,3.9-1.1c1.2,0,2.7,0.8,4.1,0.9c3.8,0.3,8.6,0.2,12.2-0.2c1.3-0.1,2.5-0.8,3.7-0.7
	c1.3,0.1,2.5,1,3.7,1.2c2,0.4,4.3,0.4,6.6,0.4c3.7,0,7.1,0.4,9.7-0.4c1.2-0.4,2.2-1.4,3.5-1.6c2.2-0.3,4.7,0.6,6.9,0.9
	c2.5,0.3,5.1,0.9,7.4,0.5c5.1-0.7,6.5-5.8,7.2-11.3l7.8,13.2c1.3,2.2,3.9,3.4,6.5,2.9l11.3-2.1c2.5-0.5,4.5-2.5,4.9-5l0.2-1.2
	c0.3,1.1,0.8,2.2,1.5,3.1c1.3,1.7,3.3,2.8,5.5,3l11.5,1c4.3,0.4,8.1-2.7,8.7-6.9c0,0,1.6-11.7,3.2-23.3c3.9,13.4,7.8,26.8,7.8,26.8
	c1,3.4,4.1,6,7.6,6.4l7.7,0.8c3.4,0.4,7-1.5,8.7-4.4c0,0,6.9-11.9,13.7-23.8c-1,11.1-1.9,22.3-1.9,22.3c0,0.2,0,0.5,0,0.7
	c0,4.1,3.1,7.6,7.2,8l13.8,1.4c2.1,0.2,4.2-0.4,5.9-1.8c1.7-1.4,2.7-3.3,2.9-5.4l7.5-84.1C426.9,17.6,426.3,15.5,424.9,13.9z
	 M65.4,84.1c-1.2,2.2-2.8,3.9-4.8,5.3c-2,1.4-4.2,2.4-6.7,3.1c-2.5,0.7-5,1-7.5,1c-5,0-9.2-0.9-12.6-2.8c-3.4-1.9-6.5-4.7-9.2-8.4
	l5.8-7.3c0.5-0.7,1.5-0.7,2-0.1c0,0,0.7,0.7,1.8,1.6c1.1,0.9,2.4,1.7,3.7,2.4c1.3,0.7,2.7,1.2,4.1,1.7c1.4,0.4,2.7,0.7,3.9,0.7
	c1.2,0,2.1-0.2,2.7-0.7c0.6-0.4,0.9-1.3,0.9-2.4c0-1-0.6-2-1.7-2.9c-1.1-0.9-2.5-1.9-4.2-2.9c-1.7-1-3.5-2.1-5.4-3.3
	c-1.9-1.2-3.7-2.5-5.4-4.1c-1.7-1.6-3.1-3.4-4.2-5.4c-1.1-2-1.7-4.4-1.7-7.1c0-2.6,0.5-4.9,1.5-6.9c1-2,2.3-3.6,4-4.9
	c1.7-1.3,3.6-2.3,5.8-3c2.2-0.7,4.5-1,7-1c4.4,0,8.3,0.8,11.7,2.4c3.5,1.6,6.8,4,9.9,7.1l-4.7,7.3c-0.5,0.7-1.4,0.9-2,0.3
	c0,0-1.2-1-2.5-1.9c-1.3-0.8-2.6-1.6-3.8-2.2c-1.3-0.6-2.4-1-3.5-1.3c-1.1-0.3-2-0.4-2.9-0.4c-1,0-1.7,0.2-2.2,0.7
	c-0.5,0.5-0.7,1.1-0.7,1.9c0,1,0.6,1.9,1.7,2.7c1.1,0.8,2.5,1.7,4.2,2.6c1.7,0.9,3.5,1.9,5.4,3c1.9,1.1,3.7,2.5,5.4,4
	c1.7,1.6,3.1,3.5,4.2,5.7c1.1,2.2,1.7,4.8,1.7,7.9C67.2,79.4,66.6,82,65.4,84.1z M86.8,78.1c1.3,1.6,3.1,2.4,5.2,2.4
	c0.6,0,1.2-0.1,2-0.4c0.7-0.3,1.4-0.7,2.1-1.2c0.7-0.5,1.3-1.1,1.8-1.8c0.5-0.7,0.9-1.5,1.1-2.4l9.6,2.7c0.8,0.2,1.3,1.1,1.1,1.9
	c0,0-1.1,3.5-2.3,5.4c-1.2,2-2.6,3.6-4.3,4.8c-1.6,1.3-3.4,2.2-5.4,2.8c-2,0.6-4,0.9-6,0.9c-3.6,0-6.8-0.6-9.4-1.7
	c-2.6-1.1-4.8-2.7-6.5-4.6c-1.7-1.9-3-4.2-3.8-6.7c-0.8-2.5-1.2-5.2-1.2-8.1c0-3.3,0.4-6.2,1.3-8.8c0.9-2.6,2.2-4.9,4-6.8
	c1.7-1.9,3.9-3.3,6.4-4.3c2.6-1,5.5-1.5,8.7-1.5c5.3,0,9.6,1.4,12.7,4.1c3.2,2.8,5.2,6.4,6.3,10.9l-9.9,2.5
	c-0.8,0.2-1.8-0.3-2.1-1.1c0,0-0.5-1.2-1.6-2.3c-1.1-1.1-2.8-1.7-5.1-1.7c-0.8,0-1.5,0.2-2.3,0.5c-0.8,0.4-1.5,0.9-2.1,1.5
	c-0.6,0.7-1.1,1.5-1.5,2.6c-0.4,1-0.6,2.3-0.6,3.7C84.8,74.3,85.5,76.5,86.8,78.1z M142.9,94.2c-0.9,0-1.6-0.7-1.6-1.5
	c0-0.5,0.4-1.9-0.3-2.1c-0.5-0.2-1.1,0.6-1.4,0.9c-0.8,0.6-1.6,1.1-2.5,1.5c-0.9,0.4-1.8,0.8-2.8,1c-1,0.2-1.9,0.4-2.9,0.4
	c-3.2,0-6-0.4-8.3-1.3c-2.3-0.9-4.2-2.2-5.7-3.8c-1.5-1.6-2.6-3.6-3.3-6c-0.7-2.4-1.1-5-1.1-7.9c0-2.1,0.1-4.4,0.3-7
	c0.2-2.6,0.4-5.1,0.7-7.4c0.3-2.7,0.6-5.4,1-8.2l14-0.1c0.9,0,1.5,0.7,1.3,1.5c0,0-0.6,3.3-0.9,6c-0.3,2.3-0.5,4.8-0.8,7.5
	c-0.3,2.8-0.4,5.4-0.4,8.2c0,1.6,0.5,2.9,1.4,4c0.9,1.1,2.3,1.7,4.2,1.7c1.7,0,3.2-0.6,4.5-1.7c1.3-1.1,1.9-2.6,1.9-4.5
	c0-2.5,0-4.7,0-6.5c0-1.8-0.1-3.6-0.2-5.4c-0.1-1.7-0.2-3.6-0.3-5.5c-0.1-1.9-0.3-4.2-0.4-6.8l13.4-0.3c0.9,0,1.6,0.7,1.6,1.5
	c0,0,0.2,6.2,0.3,9.7c0.1,3.5,0.3,6.9,0.4,10.3c0.1,3.4,0.3,6.8,0.4,10.3c0.1,3.5,0.3,7.2,0.4,11.2L142.9,94.2z M217,83.6
	c-0.4,3.1-0.9,6.4-1.5,9.8L202,91.6c-0.9-0.1-1.4-0.9-1.2-1.7c0,0,1.6-7.1,2.1-10.4c0.5-3.3,0.8-6,0.8-8.1c0-2.2-0.3-3.8-0.9-4.8
	c-0.6-0.9-1.5-1.4-2.6-1.4c-1.8,0-3,1.3-3.4,3.8c-0.4,2.5-0.7,6.4-0.7,11.6c0,0.7,0,1.6,0,2.8c0,1.1,0.1,2.3,0.1,3.6
	c0,1.2,0.1,2.5,0.2,3.7c0.1,1.2,0.2,2.2,0.3,3l-13.3-0.3c-0.9,0-1.5-0.7-1.5-1.6c0,0,0-1.3,0.1-2.5c0.1-1.2,0.1-2.4,0.1-3.7
	c0-1.3,0-2.9,0-4.7c0-1.8,0-4.1,0-6.9c0-1.1,0-2.2-0.1-3.3c-0.1-1.1-0.2-2-0.5-2.8c-0.2-0.8-0.6-1.5-0.9-2c-0.4-0.5-0.9-0.7-1.5-0.7
	c-1.4,0-2.3,0.4-2.7,1.2c-0.4,0.8-0.6,1.6-0.6,2.3l-0.5,22.3c0,0.9-0.7,1.6-1.6,1.6l-11.4,0.2c-0.9,0-1.6-0.7-1.6-1.5
	c0,0,0-6.4,0-9.9c0-3.5,0-6.8,0-9.9c0-3.1-0.1-6.2-0.2-9.2c-0.1-3-0.2-6.2-0.4-9.5l11.7-0.3c0.9,0,1.6,0.7,1.7,1.5
	c0,0.2,0.1,0.5,0.1,0.7c0,0.3,0.1,0.7,0.1,1c0,0.3,0,0.8,0.4,0.9c0.4,0,0.5-0.3,0.8-0.5c0.6-0.5,1.1-1,1.7-1.4
	c0.7-0.5,1.6-0.9,2.5-1.3c0.9-0.3,1.9-0.5,2.9-0.5c2.1,0,3.8,0.5,5.1,1.4c0.8,0.5,1.5,1.2,2,2c0.2,0.3,0.3,0.5,0.7,0.6
	c0.1,0,0.2,0,0.3,0c0.4-0.1,0.7-0.5,0.9-0.8c0.4-0.4,0.8-0.7,1.2-1c0.5-0.3,1-0.7,1.5-1c1.9-1.1,4.1-1.7,6.7-1.7
	c3.5,0,6.3,0.5,8.5,1.6c2.2,1.1,3.9,2.6,5.1,4.5c1.2,1.9,2.1,4.2,2.6,6.9c0.5,2.7,0.7,5.6,0.7,8.8C217.6,77.4,217.4,80.4,217,83.6z
	 M403.2,17.5c0.5-0.9,1.7-1.5,2.7-1.4l4.3,0.4l-4.4,13.2h-9.2L403.2,17.5z M335.9,8.9l14.3,1.4c1,0.1,2,1,2.3,1.9l4,14.7h-16.6h-0.4
	l-0.1,0.4l-2.1,6.7h-6.9l3.5-23.6C333.9,9.5,334.9,8.8,335.9,8.9z M310.9,58.9l0-10.7l1.4-1.4l0.2-0.2v-0.2v-2.6h5.4l-2.6,15.1
	H310.9z M307.2,11.6c0.1-1,1-2,2-2.2l5-1v3.9l-1.3,1.1l-0.2,0.2v0.2v2.8l-1.3,1.4l-0.1,0.2v0.2v8.5l-1.7,1.4h-4.8L307.2,11.6z
	 M252.3,22c-0.5-0.9-0.1-1.7,0.9-1.9l15.3-3.2c1-0.2,2.2,0.3,2.7,1.2l3.2,5.7H271h-0.3l-0.2,0.2l-1,1.3h-5.1H264v0.5v6.7h-5.3
	L252.3,22z M264.5,33.7h0.5v-0.5v-6.7h4.9h0.3l0.2-0.2l1-1.3h3.7l16.5,29.3l-7.7,6.4c-1.9-6-5.3-10.5-10.7-12.7
	c-2-0.8-4.2-1.3-6.3-1.6l-7.5-12.6L264.5,33.7z M278.5,83.6c-0.1,0.9-0.2,1.8-0.4,2.7c-0.2,1.1-0.3,2.1-0.4,3.2
	c-0.1,0.7-0.1,1.4-0.2,2.1c-0.1,0.5-0.1,1.1-0.4,1.5c-0.4,0.4-0.9,0.2-1.3,0.1c-0.7-0.1-1.4-0.2-2.1-0.3c-1.2-0.1-2.3-0.3-3.5-0.4
	c-1.8-0.2-3.7-0.5-5.5-0.7c-0.4,0-0.7-0.1-1.1-0.1c-0.9-0.1-1.4-0.9-1.2-1.7c0,0,1.6-7.1,2.1-10.4c0.5-3.3,0.8-6,0.8-8.1
	c0-2.2-0.3-3.8-0.9-4.8c-0.6-0.9-1.5-1.4-2.6-1.4c-1.8,0-3,1.3-3.4,3.8c-0.4,2.5-0.7,6.4-0.7,11.6c0,0.7,0,1.6,0,2.8
	c0,1.1,0.1,2.3,0.1,3.6c0,1.2,0.1,2.5,0.2,3.7c0,0.7,0.2,1.3,0.2,2c0,0.4,0.1,0.9-0.4,1c-0.6,0.1-1.4,0-2.1,0c-1.1,0-2.2,0-3.2-0.1
	c-1.1,0-2.3,0-3.4-0.1c-0.9,0-1.9,0-2.8-0.1c-0.4,0-0.9,0-1.3,0c0,0,0,0,0,0c-0.9,0-1.5-0.7-1.5-1.6c0,0,0-1.3,0.1-2.5
	c0.1-1.2,0.1-2.4,0.1-3.7c0-1.3,0-2.9,0-4.7c0-1.8,0-4.1,0-6.9c0-1.1,0-2.2-0.1-3.3c-0.1-1.1-0.2-2-0.5-2.8c-0.2-0.8-0.6-1.5-0.9-2
	c-0.4-0.5-0.9-0.7-1.5-0.7c-1.4,0-2.3,0.4-2.7,1.2c-0.4,0.8-0.6,1.6-0.6,2.3l-0.5,22.3c0,0.9-0.7,1.6-1.6,1.6l-11.4,0.2
	c-0.9,0-1.6-0.7-1.6-1.5c0,0,0-6.4,0-9.9c0-3.5,0-6.8,0-9.9c0-3.1-0.1-6.2-0.2-9.2c-0.1-3-0.2-6.2-0.4-9.5l11.7-0.3
	c0.9,0,1.6,0.7,1.7,1.5c0,0.4,0.1,0.9,0.1,1.3c0,0.3,0,0.7,0.1,1c0,0.2,0.2,0.5,0.4,0.5c0.2,0,0.4-0.1,0.5-0.2
	c0.1-0.1,0.2-0.2,0.2-0.3c0.5-0.6,1.1-1.1,1.8-1.6c0.7-0.5,1.6-0.9,2.5-1.3c0.9-0.3,1.9-0.5,2.9-0.5c2.1,0,3.8,0.5,5.1,1.4
	c0.7,0.5,1.4,1.1,1.9,1.8c0.2,0.3,0.5,0.7,0.9,0.8c0.5,0.1,0.9-0.6,1.2-0.9c0.4-0.4,0.8-0.7,1.2-1c0.5-0.3,0.9-0.6,1.4-0.9
	c1.9-1.1,4.1-1.7,6.7-1.7c0.3,0,0.7,0,1,0l0,0c0.3,0,0.7,0,1,0.1c0.1,0,0.1,0,0.2,0c0.3,0,0.6,0,0.8,0.1c0.1,0,0.2,0,0.3,0
	c0.3,0,0.5,0.1,0.7,0.1c0.1,0,0.2,0,0.3,0.1c0.2,0,0.4,0.1,0.6,0.1c0.1,0,0.3,0.1,0.4,0.1c0.2,0,0.4,0.1,0.6,0.1
	c0.1,0,0.3,0.1,0.4,0.1c0.2,0,0.3,0.1,0.5,0.1c0.2,0.1,0.3,0.1,0.5,0.2c0.1,0,0.2,0.1,0.3,0.1c0.3,0.1,0.5,0.2,0.8,0.4
	c0.2,0.1,0.4,0.2,0.6,0.3c0.1,0.1,0.3,0.1,0.4,0.2v0c1.7,1,3.1,2.3,4.1,4c1.2,1.8,2,4,2.5,6.5l0,0c0,0.1,0,0.2,0.1,0.4
	c0.5,2.7,0.7,5.6,0.7,8.8c0,0.8,0,1.5,0,2.3c0,0,0,0,0,0c0,0.8-0.1,1.5-0.1,2.3l0,0C278.9,80.5,278.7,82,278.5,83.6z M309.3,94.5
	c-0.2,1-1.1,1.9-2.1,2.1l-7.8,1.5c-1,0.2-2.2-0.4-2.7-1.2l-5.5-9.2l11-4.1l0.4-0.1v-0.4v-4.9l2.7-2.1l3.9,0l0.2,0l0.1-0.1l3.3-2.6
	L309.3,94.5z M313.2,71.8l-4.1,3.2l-3.9,0l-0.2,0l-0.1,0.1l-3.1,2.4l-0.2,0.2v0.3v4.8l-10.8,4l-5.2-8.8c0.3-5.9-0.1-11.4-1.4-16.1
	l7.9-6.6l6.4,11.5c0.5,0.9,1,0.8,1.1-0.2l5.1-37.1h5.1h0.2l0.2-0.1l2-1.7l0.2-0.2v-0.3v-8.6l1.3-1.4l0.1-0.2v-0.2V14l1.3-1.1
	l0.2-0.2v-0.2V8.2l7.2-1.4c1-0.2,1.6,0.4,1.5,1.4l-5.9,34.6H312h-0.5v0.5v2.9l-1.4,1.4l-0.2,0.2l0,0.2l0,11.5l0,0.5h0.5h4.8
	L313.2,71.8z M336.5,95.5c-0.1,1-1.1,1.7-2.1,1.6l-11.5-1c-1-0.1-1.7-1-1.5-2l1.7-11.7l15,1.8L336.5,95.5z M338.2,83.2l-15-1.8
	l1.1-7.2l4.7,0l2.5,1.4l0.1,0.1h0.1h7.5L338.2,83.2z M344.2,45.3c-0.3-1-0.6-0.9-0.8,0.1l-4.1,29.2h-7.5l-2.5-1.4l-0.1-0.1l-0.1,0
	l-4.7,0l5.7-38h7.4h0.4l0.1-0.4l2.1-6.7h16.5l8,29.5h-7.8h-0.5V58v19.9h-2.7L344.2,45.3z M413.1,103.3c-0.1,1-1,1.7-2,1.6l-6.7-0.7
	l0.7-9.6l3.5-0.5l0.3,0l0.1-0.3l0.9-1.8h4.2L413.1,103.3z M414.2,91h-4.7h-0.3l-0.1,0.3l-0.9,1.8l-3.6,0.5l-0.4,0.1l0,0.4l-0.7,10
	l-6.1-0.6c-1-0.1-1.7-1-1.7-2l2.5-28.5h7.5h0.5l0-0.5l0-17.4l3.1-11.2l9.1,0L414.2,91z M418.5,42.8l-9.6,0l-0.4,0l-0.1,0.4
	l-3.2,11.7l0,0.1l0,0.1l0,16.9h-6.9l1.6-18.5c0.1-1-0.3-1.1-0.8-0.2l-26.7,46.3c-0.5,0.9-1.7,1.5-2.7,1.4l-7.7-0.8
	c-1-0.1-2-1-2.3-1.9L354,79h2.9h0.5v-0.5V58.6h7.5l4.7,17.6c0.3,1,0.9,1,1.3,0.2l25-45.6h10.2h0.4l0.1-0.4l4.6-13.8l7.6,0.7
	c1,0.1,1.7,1,1.6,2L418.5,42.8z"/>
</svg>
