<?xml version="1.0" encoding="utf-8"?>
<!-- Generator: Adobe Illustrator 21.1.0, SVG Export Plug-In . SVG Version: 6.00 Build 0)  -->
<svg version="1.0" id="Capa_1" xmlns="http://www.w3.org/2000/svg" xmlns:xlink="http://www.w3.org/1999/xlink" x="0px" y="0px"
	 width="452.9px" height="132.9px" viewBox="0 0 452.9 132.9" enable-background="new 0 0 452.9 132.9" xml:space="preserve">
<g>
	<path fill="#FFFFFF" d="M256.8,118.1c-1.2-1.3-4.4-1.4-4.9-1.4c-22.4,0-44.9,0-67.3,0c-2.3,0-2.6,0.2-2.4-2.5
		c0.4-4.6,2.2-9.2,5.6-12.5c0.7-0.7,0.9-0.9,2.3-2.2c6.4-5.7,19.1-10.4,19.1-10.4s10.6-4,16.6-6.3c2.6-1.1,5.3-2.2,7.7-4
		c8.6-6.7,4.2-13.6-7.3-15.2c-7.9-1.2-15.3,0.8-22,5.2c-0.9,0.6-1.7,1.2-2.4,1.8c-1.5,1.3-2.8,2.8-3.1,4.4c-0.1,0.9,0,1.5,0,1.7
		c0,0.4,0.2,1.2-0.1,1.5c-0.4,0.3-1.3,0-1.7-0.3c-3.5-3.3-6.8-6.5-10.4-9.8c-0.2-0.2-0.6-0.7-0.6-0.7s-0.3-0.4-0.3-0.7
		c0-0.3,0.3-0.7,0.7-0.8c1.9-0.3,2.8-0.4,3.9-1.3c3.1-2.2,6.2-4.2,9.7-5.9c4.5-2.2,9.4-3.5,14.4-4.2c3.9-0.4,15.2-2.3,28.4,3.6
		c3.5,1.5,6.4,3.8,8.7,6.7c1.3,1.8,6.4,11.7-3.9,19.7c-3.6,2.9-8.1,4.7-12.5,6.3c-3.8,1.3-6.5,2.3-12.7,4.1
		c-4.6,1.4-8.1,2.4-13.5,5.1c-4.3,2-7.2,4.5-7.2,4.5s-1.4,1.1-1.2,1.9c0.2,0.7,1.4,0.7,2.1,0.7c16.6,0,33.1,0,49.7,0
		c1.8,0,3.4-0.1,4.6-1.5c0.2-0.2,0.7-0.3,0.9-0.2c0.2,0.1,0.3,0.6,0.3,0.8c0,3.9,0,7.8,0,11.7c0,0.3-0.1,0.4-0.3,0.6
		C257.8,118.5,257.1,118.5,256.8,118.1z"/>
	<path fill="#FFFFFF" d="M133.3,117.6c-2.6-0.1-5.5-0.4-8.2-0.9c-10.8-1.9-16-4.5-19.1-5.7c-1.4-0.6-2.9-1.2-4.4-0.6
		c-0.2,0.1-0.3,0.1-0.6,0.1c-1.1,0-1.3-0.3-0.9-1.3c0.4-1.1,1.2-2.1,1.8-3.2c1.7-2.8,3.4-5.5,5.1-8.3c0.1-0.1,0.1-0.2,0.2-0.3
		c0.3-0.6,0.7-1.1,1.5-1.1c0.7,0.1,0.9,0.7,1.1,1.3c0.3,1.3,1.1,2.2,2.1,2.9c2.3,1.9,5.2,3.1,7.9,4.1c3.6,1.3,7.5,2.1,11.4,2.6
		c4.5,0.7,9.2,0.8,13.7,0.6c3.9-0.2,7.7-0.9,11.4-2.3c2.2-0.8,3.9-2.4,5.3-4.3c1.8-2.4,1.1-5.9-1.4-7.8c-3.3-2.6-7.2-3.6-11.3-4.3
		c-3.6-0.6-7.4-0.6-11-0.4c-1.8,0-5.9,0.2-7.4,1.7c-0.6,0.4-1.1,0.6-1.3,0.3c-0.3-0.5-0.3-0.8-0.3-1.2c0-3.6,0-7.2,0-10.7
		c0-1.2,0.6-1.5,1.5-0.9c1.2,0.8,2.4,1.2,3.8,1.3c2.2,0.2,9.5,0,10.8-0.1c4-0.4,3.6-0.4,5.9-1.1c2.4-0.7,4.7-2.3,6.1-3.9
		c0,0,0,0,0.1-0.1c1.8-2.1,1.2-4.4-0.4-6.1c-1.5-1.7-3.4-2.6-5.6-3.3c-3.5-1.1-7.2-1.7-10.7-1.4c-6.6,0.3-13.1,1.3-19.1,4.3
		c-1.4,0.7-2.6,1.7-3.9,2.4c-1.1,0.7-1.7,1.9-1.7,3.2c0,0.7,0.1,1.5-0.7,1.8s-1.3-0.4-1.8-0.9c-3.1-3.1-6.1-6.2-9.2-9.3
		c-0.1-0.2-0.3-0.3-0.4-0.6c-0.3-0.6-0.1-1.1,0.6-1.2c0.8-0.1,1.7,0,2.3-0.2c1.1-0.3,2.1-0.9,3.2-1.4c2.6-1.3,5.4-2.8,8.2-4
		c4.4-1.9,9.2-2.8,13.8-3.4c4.5-0.6,12.6-0.8,18.3,0.1c3.9,0.6,7.7,1.4,11.4,2.9c3.2,1.4,6.3,3.1,8.6,5.7c1.8,2,2.9,4.1,3.3,6.6
		c0.3,2.4,0,4.7-1.2,7.1c-0.7,1.5-1.9,2.5-3.4,3.5c-3.1,1.8-4.7,2.2-5.2,2.4c-0.6,0.3-0.6,0.8,0,1.2c0.6,0.4,1.2,0.4,1.8,0.7
		c3.6,1.2,6.6,3.1,9.3,5.9c1.9,2,3.1,4.3,3.4,7.2c0.3,2.8-0.2,5.4-1.5,7.8c-0.9,2-2.5,3.3-4.2,4.5c-3.4,2.4-7.2,4.2-11.3,5.4
		c-3.1,0.9-6.1,1.5-9.2,1.9C141.3,118.4,135.8,117.7,133.3,117.6z"/>
	<path fill="#FFFFFF" d="M279.2,54.3c3.5,0,7.1,0,10.6,0c0.3,0,0.7,0,1.1,0c0.8,0.1,0.9,0.4,0.4,1.1c-0.9,1.2-0.8,1.3,0.1,2.3
		l0.1,0.1c4.9,5.1,9.8,9.9,14.8,15c0.2,0.2,0.4,0.4,0.7,0.7c0.4,0.3,1.1,0.3,1.5,0c0.2-0.2,0.4-0.4,0.7-0.7
		c4.9-4.9,9.7-9.8,14.6-14.7c0.2-0.2,0.3-0.3,0.4-0.6c0.7-0.8,0.6-1.1,0-2c-0.6-0.7-0.6-1.2,0.6-1.2c0.2,0,0.4,0,0.7,0
		c7.2,0,14.4,0,21.5,0c0.4,0,0.9,0,1.3,0.1c0.2,0,0.3,0.3,0.4,0.4c0,0.2-0.1,0.6-0.2,0.6c-0.4,0.2-1.1,0.4-1.5,0.6
		c-2,0.4-3.6,1.4-5.2,2.9c-6.2,6.3-12.5,12.6-18.8,19c-1.5,1.7-3.2,3.2-4.6,4.7c-0.9,1.1-0.9,1.5,0,2.5c1.8,1.8,3.5,3.5,5.3,5.3
		c1.3,1.3,2.4,2.6,3.8,4c3.4,3.5,6.8,6.8,10.3,10.4c2.3,2.3,4.5,4.6,6.8,7.1c1.3,1.4,2.8,2.3,4.6,2.8c0.7,0.1,1.3,0.4,2,0.7
		c0.1,0.1,0.3,0.3,0.3,0.6s-0.2,0.4-0.4,0.4c-0.3,0.1-0.7,0.1-1.1,0.1c-7.4,0-14.6,0-22,0c-0.3,0-0.6,0-0.9-0.1
		c-0.4-0.1-0.6-0.4-0.3-0.9c0.2-0.3,0.6-0.8,0.6-1.3c0-0.4-0.4-0.8-0.8-1.2c-5.7-5.9-11.4-11.6-17.1-17.3c-0.2-0.2-0.4-0.4-0.6-0.6
		c-1.3-1.2-1.8-1.3-2.9,0c-3.6,3.6-7.3,7.3-10.8,10.8c-2.3,2.3-4.6,4.7-6.8,7.3c-0.8,0.9-0.8,0.9-0.2,2.2c0.3,0.7,0.2,0.9-0.6,1.1
		c-0.3,0-0.7,0-1.1,0c-7.1,0-14.1,0-21.2,0c-0.6,0-1.8,0.1-1.8-0.6c-0.1-0.8,0.8-0.8,1.4-0.9c2.5-0.6,4.5-2.1,6.3-4
		c5.9-6,11.7-11.8,17.6-17.8c1.9-1.9,3.5-3.8,5.4-5.6c0.7-0.7,1.4-1.4,2.1-2.1c1.5-1.5,1.5-1.9,0.1-3.3c-4.3-4.3-8.6-8.6-12.8-13.1
		c-3.5-3.5-7.1-7.1-10.4-10.6c-1.3-1.4-2.9-2.2-4.6-2.6c-0.3-0.1-0.7-0.2-1.1-0.2c-0.4-0.1-1.1-0.2-0.9-0.9c0.1-0.7,0.6-0.7,1.2-0.7
		c0.3,0,0.6,0,0.9,0C272.1,54.3,275.8,54.3,279.2,54.3z"/>
	<path fill="#FFFFFF" d="M76.8,14.4V45H376V14.4H76.8z M101,32.4c0.2,0.8,0.7,1.5,1.2,2c0.4,0.6,1.2,0.9,1.9,1.3
		c0.7,0.2,1.5,0.4,2.4,0.4c0.6,0,1.1,0,1.5-0.1s0.8-0.2,1.3-0.4v-2.9h-2c-0.2,0-0.4-0.1-0.7-0.2c-0.1-0.1-0.2-0.3-0.2-0.6v-2.4h7.1
		v8.3c-1.1,0.7-2.1,1.3-3.2,1.7c-1.2,0.3-2.3,0.4-3.5,0.4c-1.7,0-3.1-0.2-4.4-0.7S100,38,99,37.1s-1.7-2-2.2-3.2
		c-0.4-1.2-0.8-2.5-0.8-4s0.2-2.8,0.7-4c0.4-1.2,1.2-2.2,2.1-3.2c0.9-0.9,2-1.5,3.3-2.1c1.3-0.4,2.6-0.7,4.3-0.7
		c0.8,0,1.7,0.1,2.3,0.2c0.7,0.1,1.4,0.3,2,0.6s1.2,0.4,1.7,0.8c0.4,0.3,0.9,0.7,1.4,1.1l-1.3,2c-0.2,0.3-0.4,0.4-0.8,0.6
		c-0.3,0.1-0.7,0-1.1-0.2s-0.7-0.3-1.1-0.6c-0.3-0.1-0.7-0.2-0.9-0.3c-0.3-0.1-0.7-0.1-1.1-0.2c-0.3,0-0.8-0.1-1.3-0.1
		c-0.8,0-1.7,0.1-2.3,0.4s-1.3,0.7-1.8,1.3c-0.4,0.6-0.8,1.2-1.1,2c-0.2,0.8-0.3,1.7-0.3,2.5C100.5,30.7,100.8,31.6,101,32.4z
		 M154.6,23.3h-8.1v4.5h6.2v3.4h-6.2v4.6h8.1v3.5h-12.7V19.8h12.6L154.6,23.3L154.6,23.3z M200.1,39.5h-2.3c-0.3,0-0.7,0-0.9-0.1
		s-0.4-0.3-0.7-0.6l-9.3-11.7c0,0.3,0.1,0.7,0.1,1.1c0,0.3,0,0.6,0,0.9v10.5h-4V19.8h2.3c0.2,0,0.3,0,0.4,0c0.1,0,0.2,0,0.3,0.1
		c0.1,0,0.2,0.1,0.3,0.2s0.2,0.2,0.3,0.3l9.4,11.8c0-0.3-0.1-0.7-0.1-1.1s0-0.7,0-1.1V19.8h4v19.7H200.1z M242,23.3h-7.9v4.5h6.2
		v3.4h-6.2v4.6h8.1v3.5h-12.6V19.8h12.6L242,23.3L242,23.3z M282,35.7c-0.3,0.8-0.8,1.5-1.4,2.1s-1.3,1.1-2.2,1.4
		c-0.8,0.3-1.9,0.4-2.9,0.4c-0.6,0-1.3-0.1-1.9-0.2c-0.6-0.1-1.3-0.3-1.9-0.6s-1.2-0.4-1.7-0.8s-0.9-0.7-1.4-1.1l1.4-2.1
		c0.1-0.1,0.2-0.2,0.4-0.3c0.1-0.1,0.3-0.1,0.6-0.1c0.2,0,0.6,0.1,0.8,0.2c0.2,0.1,0.6,0.3,0.9,0.6s0.7,0.3,1.2,0.6
		c0.4,0.2,0.9,0.2,1.7,0.2c0.8,0,1.5-0.2,1.9-0.6c0.4-0.3,0.7-0.9,0.7-1.8c0-0.4-0.1-0.8-0.3-1.2c-0.2-0.2-0.6-0.4-0.9-0.7
		c-0.3-0.2-0.8-0.3-1.4-0.4c-0.4-0.1-1.1-0.3-1.7-0.4s-1.1-0.3-1.7-0.7c-0.4-0.2-0.9-0.6-1.4-1.1c-0.3-0.4-0.7-0.9-0.9-1.5
		c-0.2-0.6-0.3-1.4-0.3-2.3c0-0.7,0.1-1.4,0.4-2.1s0.7-1.3,1.3-1.9c0.6-0.6,1.3-0.9,2.1-1.3c0.8-0.4,1.8-0.4,2.8-0.4
		c0.6,0,1.2,0,1.8,0.1c0.6,0.1,1.1,0.2,1.7,0.4c0.6,0.2,0.9,0.3,1.4,0.7c0.4,0.2,0.8,0.6,1.2,0.8l-1.2,2.2c-0.1,0.2-0.2,0.3-0.4,0.4
		s-0.3,0.1-0.6,0.1s-0.4-0.1-0.7-0.2c-0.2-0.1-0.4-0.2-0.8-0.4s-0.6-0.3-1.1-0.4c-0.3-0.1-0.8-0.2-1.3-0.2c-0.8,0-1.5,0.2-1.9,0.6
		c-0.3,0.3-0.6,0.8-0.6,1.5c0,0.3,0.1,0.7,0.3,0.9s0.6,0.4,0.9,0.7s0.8,0.3,1.4,0.4c0.4,0.1,1.1,0.3,1.7,0.4s1.1,0.4,1.7,0.7
		c0.4,0.2,0.9,0.6,1.4,1.1c0.3,0.3,0.7,0.9,0.9,1.5s0.3,1.3,0.3,2.1C282.5,34,282.4,34.9,282,35.7z M315.4,39.5h-4.5V19.8h4.5V39.5z
		 M356.3,35.7c-0.3,0.8-0.8,1.5-1.4,2.1s-1.3,1.1-2.2,1.4c-0.8,0.3-1.9,0.4-2.9,0.4c-0.6,0-1.3-0.1-1.9-0.2s-1.3-0.3-1.9-0.6
		s-1.2-0.4-1.7-0.8c-0.4-0.3-0.9-0.7-1.4-1.1l1.4-2.1c0.1-0.1,0.2-0.2,0.4-0.3c0.1-0.1,0.3-0.1,0.6-0.1s0.6,0.1,0.8,0.2
		c0.2,0.1,0.6,0.3,0.9,0.6s0.7,0.3,1.2,0.6c0.4,0.2,0.9,0.2,1.7,0.2c0.8,0,1.5-0.2,1.9-0.6c0.4-0.3,0.7-0.9,0.7-1.8
		c0-0.4-0.1-0.8-0.3-1.2c-0.2-0.2-0.6-0.4-0.9-0.7c-0.3-0.2-0.8-0.3-1.4-0.4c-0.4-0.1-1.1-0.3-1.7-0.4s-1.1-0.3-1.7-0.7
		c-0.4-0.2-0.9-0.6-1.4-1.1c-0.3-0.4-0.7-0.9-0.9-1.5c-0.2-0.6-0.3-1.4-0.3-2.3c0-0.7,0.1-1.4,0.4-2.1s0.7-1.3,1.3-1.9
		c0.7-0.6,1.3-0.9,2.1-1.3c0.8-0.4,1.9-0.4,2.9-0.4c0.6,0,1.2,0,1.8,0.1s1.1,0.2,1.7,0.4s0.9,0.3,1.4,0.7c0.4,0.2,0.8,0.6,1.2,0.8
		l-1.2,2.1c-0.1,0.2-0.2,0.3-0.4,0.4c-0.2,0.1-0.3,0.1-0.6,0.1s-0.4-0.1-0.7-0.2s-0.4-0.2-0.8-0.4c-0.3-0.2-0.6-0.3-1.1-0.4
		c-0.3-0.1-0.8-0.2-1.3-0.2c-0.8,0-1.5,0.2-1.9,0.6c-0.3,0.3-0.6,0.8-0.6,1.5c0,0.3,0.1,0.7,0.3,0.9c0.2,0.2,0.6,0.4,0.9,0.7
		s0.8,0.3,1.4,0.4c0.4,0.1,1.1,0.3,1.7,0.4s1.1,0.4,1.7,0.7c0.4,0.2,0.9,0.6,1.4,1.1c0.3,0.3,0.7,0.9,0.9,1.5
		c0.2,0.6,0.3,1.3,0.3,2.1C356.8,34,356.7,34.9,356.3,35.7z"/>
</g>
</svg>
