<?xml version="1.0" encoding="UTF-8" standalone="no"?>
<!-- Created with Inkscape (http://www.inkscape.org/) -->

<svg
   xmlns:dc="http://purl.org/dc/elements/1.1/"
   xmlns:cc="http://creativecommons.org/ns#"
   xmlns:rdf="http://www.w3.org/1999/02/22-rdf-syntax-ns#"
   xmlns:svg="http://www.w3.org/2000/svg"
   xmlns="http://www.w3.org/2000/svg"
   xmlns:sodipodi="http://sodipodi.sourceforge.net/DTD/sodipodi-0.dtd"
   xmlns:inkscape="http://www.inkscape.org/namespaces/inkscape"
   width="387.59198"
   height="49.50346"
   viewBox="0 0 102.55037 13.097791"
   version="1.1"
   id="svg8"
   sodipodi:docname="segacd.svg"
   inkscape:version="0.92.2 (unknown)">
  <defs
     id="defs2" />
  <sodipodi:namedview
     id="base"
     pagecolor="#ffffff"
     bordercolor="#666666"
     borderopacity="1.0"
     inkscape:pageopacity="0.0"
     inkscape:pageshadow="2"
     inkscape:zoom="1.4725"
     inkscape:cx="174.69139"
     inkscape:cy="-17.491648"
     inkscape:document-units="mm"
     inkscape:current-layer="layer1"
     showgrid="false"
     inkscape:window-width="1920"
     inkscape:window-height="1055"
     inkscape:window-x="0"
     inkscape:window-y="0"
     inkscape:window-maximized="1"
     units="px"
     fit-margin-top="0"
     fit-margin-left="0"
     fit-margin-right="0"
     fit-margin-bottom="0" />
  <metadata
     id="metadata5">
    <rdf:RDF>
      <cc:Work
         rdf:about="">
        <dc:format>image/svg+xml</dc:format>
        <dc:type
           rdf:resource="http://purl.org/dc/dcmitype/StillImage" />
        <dc:title></dc:title>
      </cc:Work>
    </rdf:RDF>
  </metadata>
  <g
     inkscape:label="Calque 1"
     inkscape:groupmode="layer"
     id="layer1"
     transform="translate(-1.939925,-276.83243)">
    <path
       inkscape:connector-curvature="0"
       id="path6225"
       d="m 1.939925,289.93022 v -13.09779 l 51.353052,0.0274 51.197323,-0.0274 v 13.07491 z m 30.136844,-3.53991 h -0.415258 c 0,0.33419 -0.238285,0.48187 -0.434585,0.53447 h -9.102739 v -2.94717 h 5.906206 c 0.07403,7.5e-4 0.335769,0.26269 0.374625,0.46519 h 0.336357 v -2.76724 H 28.36386 c 0,0.27874 -0.220591,0.54104 -0.365478,0.53933 h -5.874195 v -2.60975 h 8.81432 c 0.231839,0.0461 0.473652,0.33891 0.473652,0.54519 h 0.334566 v -2.83864 h -0.328457 c -0.01362,0.20456 -0.177048,0.48006 -0.432749,0.52779 H 18.417191 v 0.23419 c 0.421878,0.008 0.613784,0.34022 0.613784,0.48487 v 9.47741 c -0.02746,0.18907 -0.207877,0.43166 -0.637444,0.40678 v 0.31615 h 12.875374 c 0.159986,0.0805 0.369623,0.18032 0.403996,0.53182 h 0.410692 z m -14.601684,-1.00947 c -0.07781,-2.81759 -4.019511,-3.30298 -6.093311,-3.40509 -1.9364513,-0.0953 -3.7796315,-0.30018 -4.1690252,-0.68958 -0.3711127,-0.37112 -0.5107106,-0.80974 0.2472454,-1.36022 0.5460088,-0.39654 1.4232354,-0.59269 2.8910228,-0.59813 2.140837,-0.008 4.384395,0.63346 5.030423,1.43876 0.211751,0.26394 0.0023,0.32087 0.332564,0.42631 l 1.755146,-2.62023 -0.294235,-0.15766 c 0,0 -0.340163,0.21688 -0.534626,0.21688 -0.487999,0 -3.016665,-1.22035 -6.359019,-1.22132 -2.8347345,0 -6.1875977,0.92965 -6.2731048,3.49666 0,0.76448 -0.015347,1.82447 2.2112009,2.81892 2.2395628,1.00026 8.1710309,0.0464 8.1710309,1.78878 0,1.84302 -4.8631557,1.87417 -7.4437765,0.97103 -0.3783122,-0.1324 -1.6679907,-0.39598 -1.6015395,-1.42961 l -0.2783308,-0.0601 -1.6352879,2.73637 c 0.3531476,0.35315 0.2756976,0.036 0.7680444,0.036 0.5228829,0.029 2.7669972,1.1813 6.4603913,1.24867 3.27649,0.0597 6.723316,-0.97919 6.815187,-3.63642 z m 86.022235,3.39022 v -10.89417 l -35.645285,-0.0405 V 288.8116 Z M 83.997109,279.7748 c -12.719869,2.37434 -10.510842,8.21798 0.565945,6.94309 -17.538255,3.65494 -22.582137,-4.03672 -0.565945,-6.94309 z m 2.463908,1.82062 1.105883,4.04992 c 9.279162,-1.04439 13.5186,-6.98936 -1.614577,-6.31462 12.398683,-1.61532 16.771687,0.11143 15.713217,1.88773 -1.05848,1.77631 -7.278443,4.10361 -15.255695,5.19369 z m -37.770897,5.40659 c -0.0045,-0.22624 -0.43445,-0.13482 -0.657501,-0.52116 v -2.6716 c -0.0045,-0.10125 0.270891,-0.38028 0.627687,-0.39474 l -0.0079,-0.28363 H 41.72217 c -0.159407,-0.15661 -0.275442,-0.31943 -0.307476,-0.47653 h -0.399722 v 2.5768 h 0.337326 c 0.169472,-0.12103 0.111326,-0.40922 0.434284,-0.50425 l 3.74419,0.008 v 1.48547 c -13.026279,4.07398 -12.285589,-10.06549 -0.70294,-6.19079 1.210168,0.49341 0.604817,0.99018 1.211296,0.99044 l 1.567122,-2.6132 c -0.163642,-0.26936 -0.440528,0.0557 -0.74932,0.036 -0.63381,0 -2.899448,-0.95082 -5.582488,-0.96163 -3.85745,0.009 -8.377561,1.39281 -8.377561,5.88403 0.255919,4.30866 4.922542,5.66852 8.618893,5.37999 1.781085,0 4.866835,-0.5129 7.174338,-1.74245 z m 4.426953,1.31514 c -0.17376,-7.5e-4 -0.648149,-0.12827 -0.638873,-0.61282 l 1.044389,-1.89157 5.871584,0.0123 c 0.122543,0.26799 1.071051,1.67642 1.046337,2.00292 0,0.0702 -0.0053,0.44868 -0.632313,0.49781 v 0.30085 l 4.772804,-4e-5 v -0.29009 c -0.34552,-0.0203 -0.576989,-0.10862 -0.701707,-0.2476 l -5.601935,-9.61542 c 0.0068,-0.39187 0.473246,-0.42915 0.593261,-0.50409 v -0.30685 h -4.597079 l -0.0023,0.30344 c 0.466572,0.034 0.654386,0.31072 0.586881,0.66228 l -5.311394,9.37518 c -0.234848,0.20597 -0.405042,0.34602 -0.722967,0.32006 v 0.28583 h 4.299927 z m 1.225371,-4.02255 2.116035,-3.90279 2.118923,3.90708 z"
       style="fill:#ffffff;fill-opacity:1;stroke-width:0.10909752"
       sodipodi:nodetypes="ccccccccccccccccccccccccccccccccccccssssscccsccsssccccsccccccccccccscccccccccccccccccccccccccccccccccccccccccccccccc" />
  </g>
</svg>
