<?xml version="1.0" encoding="UTF-8" standalone="no"?>
<svg
   xmlns:dc="http://purl.org/dc/elements/1.1/"
   xmlns:cc="http://creativecommons.org/ns#"
   xmlns:rdf="http://www.w3.org/1999/02/22-rdf-syntax-ns#"
   xmlns:svg="http://www.w3.org/2000/svg"
   xmlns="http://www.w3.org/2000/svg"
   xmlns:sodipodi="http://sodipodi.sourceforge.net/DTD/sodipodi-0.dtd"
   xmlns:inkscape="http://www.inkscape.org/namespaces/inkscape"
   inkscape:version="1.0 (4035a4fb49, 2020-05-01)"
   sodipodi:docname="sega32x.svg"
   xml:space="preserve"
   enable-background="new 0 0 452.9 132.9"
   viewBox="0 0 309.20002 114.1"
   height="114.1"
   width="309.20001"
   y="0px"
   x="0px"
   id="Capa_1"
   version="1.0"><metadata
     id="metadata239"><rdf:RDF><cc:Work
         rdf:about=""><dc:format>image/svg+xml</dc:format><dc:type
           rdf:resource="http://purl.org/dc/dcmitype/StillImage" /><dc:title></dc:title></cc:Work></rdf:RDF></metadata><defs
     id="defs237" /><sodipodi:namedview
     lock-margins="true"
     inkscape:pagecheckerboard="true"
     inkscape:document-rotation="0"
     inkscape:current-layer="Capa_1"
     inkscape:window-maximized="0"
     inkscape:window-y="0"
     inkscape:window-x="0"
     inkscape:cy="57.050003"
     inkscape:cx="154.65"
     inkscape:zoom="0.60278208"
     fit-margin-bottom="5"
     fit-margin-right="5"
     fit-margin-left="5"
     fit-margin-top="5"
     showgrid="false"
     id="namedview235"
     inkscape:window-height="480"
     inkscape:window-width="700"
     inkscape:pageshadow="2"
     inkscape:pageopacity="0"
     guidetolerance="10"
     gridtolerance="10"
     objecttolerance="10"
     borderopacity="1"
     bordercolor="#666666"
     pagecolor="#ffffff" /><g
     transform="translate(-71.8,-9.4)"
     id="g232"><path
       style="fill:#ffffff"
       inkscape:connector-curvature="0"
       id="path224"
       d="m 256.8,118.1 c -1.2,-1.3 -4.4,-1.4 -4.9,-1.4 -22.4,0 -44.9,0 -67.3,0 -2.3,0 -2.6,0.2 -2.4,-2.5 0.4,-4.6 2.2,-9.2 5.6,-12.5 0.7,-0.7 0.9,-0.9 2.3,-2.2 6.4,-5.7 19.1,-10.4 19.1,-10.4 0,0 10.6,-4 16.6,-6.3 2.6,-1.1 5.3,-2.2 7.7,-4 8.6,-6.7 4.2,-13.6 -7.3,-15.2 -7.9,-1.2 -15.3,0.8 -22,5.2 -0.9,0.6 -1.7,1.2 -2.4,1.8 -1.5,1.3 -2.8,2.8 -3.1,4.4 -0.1,0.9 0,1.5 0,1.7 0,0.4 0.2,1.2 -0.1,1.5 -0.4,0.3 -1.3,0 -1.7,-0.3 -3.5,-3.3 -6.8,-6.5 -10.4,-9.8 -0.2,-0.2 -0.6,-0.7 -0.6,-0.7 0,0 -0.3,-0.4 -0.3,-0.7 0,-0.3 0.3,-0.7 0.7,-0.8 1.9,-0.3 2.8,-0.4 3.9,-1.3 3.1,-2.2 6.2,-4.2 9.7,-5.9 4.5,-2.2 9.4,-3.5 14.4,-4.2 3.9,-0.4 15.2,-2.3 28.4,3.6 3.5,1.5 6.4,3.8 8.7,6.7 1.3,1.8 6.4,11.7 -3.9,19.7 -3.6,2.9 -8.1,4.7 -12.5,6.3 -3.8,1.3 -6.5,2.3 -12.7,4.1 -4.6,1.4 -8.1,2.4 -13.5,5.1 -4.3,2 -7.2,4.5 -7.2,4.5 0,0 -1.4,1.1 -1.2,1.9 0.2,0.7 1.4,0.7 2.1,0.7 16.6,0 33.1,0 49.7,0 1.8,0 3.4,-0.1 4.6,-1.5 0.2,-0.2 0.7,-0.3 0.9,-0.2 0.2,0.1 0.3,0.6 0.3,0.8 0,3.9 0,7.8 0,11.7 0,0.3 -0.1,0.4 -0.3,0.6 0.1,0 -0.6,0 -0.9,-0.4 z" /><path
       style="fill:#ffffff"
       inkscape:connector-curvature="0"
       id="path226"
       d="m 133.3,117.6 c -2.6,-0.1 -5.5,-0.4 -8.2,-0.9 -10.8,-1.9 -16,-4.5 -19.1,-5.7 -1.4,-0.6 -2.9,-1.2 -4.4,-0.6 -0.2,0.1 -0.3,0.1 -0.6,0.1 -1.1,0 -1.3,-0.3 -0.9,-1.3 0.4,-1.1 1.2,-2.1 1.8,-3.2 1.7,-2.8 3.4,-5.5 5.1,-8.3 0.1,-0.1 0.1,-0.2 0.2,-0.3 0.3,-0.6 0.7,-1.1 1.5,-1.1 0.7,0.1 0.9,0.7 1.1,1.3 0.3,1.3 1.1,2.2 2.1,2.9 2.3,1.9 5.2,3.1 7.9,4.1 3.6,1.3 7.5,2.1 11.4,2.6 4.5,0.7 9.2,0.8 13.7,0.6 3.9,-0.2 7.7,-0.9 11.4,-2.3 2.2,-0.8 3.9,-2.4 5.3,-4.3 1.8,-2.4 1.1,-5.9 -1.4,-7.8 -3.3,-2.6 -7.2,-3.6 -11.3,-4.3 -3.6,-0.6 -7.4,-0.6 -11,-0.4 -1.8,0 -5.9,0.2 -7.4,1.7 -0.6,0.4 -1.1,0.6 -1.3,0.3 -0.3,-0.5 -0.3,-0.8 -0.3,-1.2 0,-3.6 0,-7.2 0,-10.7 0,-1.2 0.6,-1.5 1.5,-0.9 1.2,0.8 2.4,1.2 3.8,1.3 2.2,0.2 9.5,0 10.8,-0.1 4,-0.4 3.6,-0.4 5.9,-1.1 2.4,-0.7 4.7,-2.3 6.1,-3.9 0,0 0,0 0.1,-0.1 1.8,-2.1 1.2,-4.4 -0.4,-6.1 -1.5,-1.7 -3.4,-2.6 -5.6,-3.3 -3.5,-1.1 -7.2,-1.7 -10.7,-1.4 -6.6,0.3 -13.1,1.3 -19.1,4.3 -1.4,0.7 -2.6,1.7 -3.9,2.4 -1.1,0.7 -1.7,1.9 -1.7,3.2 0,0.7 0.1,1.5 -0.7,1.8 -0.8,0.3 -1.3,-0.4 -1.8,-0.9 -3.1,-3.1 -6.1,-6.2 -9.2,-9.3 -0.1,-0.2 -0.3,-0.3 -0.4,-0.6 -0.3,-0.6 -0.1,-1.1 0.6,-1.2 0.8,-0.1 1.7,0 2.3,-0.2 1.1,-0.3 2.1,-0.9 3.2,-1.4 2.6,-1.3 5.4,-2.8 8.2,-4 4.4,-1.9 9.2,-2.8 13.8,-3.4 4.5,-0.6 12.6,-0.8 18.3,0.1 3.9,0.6 7.7,1.4 11.4,2.9 3.2,1.4 6.3,3.1 8.6,5.7 1.8,2 2.9,4.1 3.3,6.6 0.3,2.4 0,4.7 -1.2,7.1 -0.7,1.5 -1.9,2.5 -3.4,3.5 -3.1,1.8 -4.7,2.2 -5.2,2.4 -0.6,0.3 -0.6,0.8 0,1.2 0.6,0.4 1.2,0.4 1.8,0.7 3.6,1.2 6.6,3.1 9.3,5.9 1.9,2 3.1,4.3 3.4,7.2 0.3,2.8 -0.2,5.4 -1.5,7.8 -0.9,2 -2.5,3.3 -4.2,4.5 -3.4,2.4 -7.2,4.2 -11.3,5.4 -3.1,0.9 -6.1,1.5 -9.2,1.9 -10.5,1.6 -16,0.9 -18.5,0.8 z" /><path
       style="fill:#ffffff"
       inkscape:connector-curvature="0"
       id="path228"
       d="m 279.2,54.3 c 3.5,0 7.1,0 10.6,0 0.3,0 0.7,0 1.1,0 0.8,0.1 0.9,0.4 0.4,1.1 -0.9,1.2 -0.8,1.3 0.1,2.3 l 0.1,0.1 c 4.9,5.1 9.8,9.9 14.8,15 0.2,0.2 0.4,0.4 0.7,0.7 0.4,0.3 1.1,0.3 1.5,0 0.2,-0.2 0.4,-0.4 0.7,-0.7 4.9,-4.9 9.7,-9.8 14.6,-14.7 0.2,-0.2 0.3,-0.3 0.4,-0.6 0.7,-0.8 0.6,-1.1 0,-2 -0.6,-0.7 -0.6,-1.2 0.6,-1.2 0.2,0 0.4,0 0.7,0 7.2,0 14.4,0 21.5,0 0.4,0 0.9,0 1.3,0.1 0.2,0 0.3,0.3 0.4,0.4 0,0.2 -0.1,0.6 -0.2,0.6 -0.4,0.2 -1.1,0.4 -1.5,0.6 -2,0.4 -3.6,1.4 -5.2,2.9 -6.2,6.3 -12.5,12.6 -18.8,19 -1.5,1.7 -3.2,3.2 -4.6,4.7 -0.9,1.1 -0.9,1.5 0,2.5 1.8,1.8 3.5,3.5 5.3,5.3 1.3,1.3 2.4,2.6 3.8,4 3.4,3.5 6.8,6.8 10.3,10.4 2.3,2.3 4.5,4.6 6.8,7.1 1.3,1.4 2.8,2.3 4.6,2.8 0.7,0.1 1.3,0.4 2,0.7 0.1,0.1 0.3,0.3 0.3,0.6 0,0.3 -0.2,0.4 -0.4,0.4 -0.3,0.1 -0.7,0.1 -1.1,0.1 -7.4,0 -14.6,0 -22,0 -0.3,0 -0.6,0 -0.9,-0.1 -0.4,-0.1 -0.6,-0.4 -0.3,-0.9 0.2,-0.3 0.6,-0.8 0.6,-1.3 0,-0.4 -0.4,-0.8 -0.8,-1.2 -5.7,-5.9 -11.4,-11.6 -17.1,-17.3 -0.2,-0.2 -0.4,-0.4 -0.6,-0.6 -1.3,-1.2 -1.8,-1.3 -2.9,0 -3.6,3.6 -7.3,7.3 -10.8,10.8 -2.3,2.3 -4.6,4.7 -6.8,7.3 -0.8,0.9 -0.8,0.9 -0.2,2.2 0.3,0.7 0.2,0.9 -0.6,1.1 -0.3,0 -0.7,0 -1.1,0 -7.1,0 -14.1,0 -21.2,0 -0.6,0 -1.8,0.1 -1.8,-0.6 -0.1,-0.8 0.8,-0.8 1.4,-0.9 2.5,-0.6 4.5,-2.1 6.3,-4 5.9,-6 11.7,-11.8 17.6,-17.8 1.9,-1.9 3.5,-3.8 5.4,-5.6 0.7,-0.7 1.4,-1.4 2.1,-2.1 1.5,-1.5 1.5,-1.9 0.1,-3.3 -4.3,-4.3 -8.6,-8.6 -12.8,-13.1 -3.5,-3.5 -7.1,-7.1 -10.4,-10.6 -1.3,-1.4 -2.9,-2.2 -4.6,-2.6 -0.3,-0.1 -0.7,-0.2 -1.1,-0.2 -0.4,-0.1 -1.1,-0.2 -0.9,-0.9 0.1,-0.7 0.6,-0.7 1.2,-0.7 0.3,0 0.6,0 0.9,0 3.4,0.2 7.1,0.2 10.5,0.2 z" /><path
       style="fill:#ffffff"
       inkscape:connector-curvature="0"
       id="path230"
       d="M 76.8,14.4 V 45 H 376 V 14.4 Z m 24.2,18 c 0.2,0.8 0.7,1.5 1.2,2 0.4,0.6 1.2,0.9 1.9,1.3 0.7,0.2 1.5,0.4 2.4,0.4 0.6,0 1.1,0 1.5,-0.1 0.4,-0.1 0.8,-0.2 1.3,-0.4 v -2.9 h -2 c -0.2,0 -0.4,-0.1 -0.7,-0.2 -0.1,-0.1 -0.2,-0.3 -0.2,-0.6 v -2.4 h 7.1 v 8.3 c -1.1,0.7 -2.1,1.3 -3.2,1.7 -1.2,0.3 -2.3,0.4 -3.5,0.4 -1.7,0 -3.1,-0.2 -4.4,-0.7 -1.3,-0.5 -2.4,-1.2 -3.4,-2.1 -1,-0.9 -1.7,-2 -2.2,-3.2 -0.4,-1.2 -0.8,-2.5 -0.8,-4 0,-1.5 0.2,-2.8 0.7,-4 0.4,-1.2 1.2,-2.2 2.1,-3.2 0.9,-0.9 2,-1.5 3.3,-2.1 1.3,-0.4 2.6,-0.7 4.3,-0.7 0.8,0 1.7,0.1 2.3,0.2 0.7,0.1 1.4,0.3 2,0.6 0.6,0.3 1.2,0.4 1.7,0.8 0.4,0.3 0.9,0.7 1.4,1.1 l -1.3,2 c -0.2,0.3 -0.4,0.4 -0.8,0.6 -0.3,0.1 -0.7,0 -1.1,-0.2 -0.4,-0.2 -0.7,-0.3 -1.1,-0.6 -0.3,-0.1 -0.7,-0.2 -0.9,-0.3 -0.3,-0.1 -0.7,-0.1 -1.1,-0.2 -0.3,0 -0.8,-0.1 -1.3,-0.1 -0.8,0 -1.7,0.1 -2.3,0.4 -0.6,0.3 -1.3,0.7 -1.8,1.3 -0.4,0.6 -0.8,1.2 -1.1,2 -0.2,0.8 -0.3,1.7 -0.3,2.5 -0.2,0.7 0.1,1.6 0.3,2.4 z m 53.6,-9.1 h -8.1 v 4.5 h 6.2 v 3.4 h -6.2 v 4.6 h 8.1 v 3.5 H 141.9 V 19.8 h 12.6 z m 45.5,16.2 h -2.3 c -0.3,0 -0.7,0 -0.9,-0.1 -0.2,-0.1 -0.4,-0.3 -0.7,-0.6 l -9.3,-11.7 c 0,0.3 0.1,0.7 0.1,1.1 0,0.3 0,0.6 0,0.9 v 10.5 h -4 V 19.8 h 2.3 c 0.2,0 0.3,0 0.4,0 0.1,0 0.2,0 0.3,0.1 0.1,0 0.2,0.1 0.3,0.2 0.1,0.1 0.2,0.2 0.3,0.3 l 9.4,11.8 c 0,-0.3 -0.1,-0.7 -0.1,-1.1 0,-0.4 0,-0.7 0,-1.1 V 19.8 h 4 V 39.5 Z M 242,23.3 h -7.9 v 4.5 h 6.2 v 3.4 h -6.2 v 4.6 h 8.1 v 3.5 H 229.6 V 19.8 h 12.6 z m 40,12.4 c -0.3,0.8 -0.8,1.5 -1.4,2.1 -0.6,0.6 -1.3,1.1 -2.2,1.4 -0.8,0.3 -1.9,0.4 -2.9,0.4 -0.6,0 -1.3,-0.1 -1.9,-0.2 -0.6,-0.1 -1.3,-0.3 -1.9,-0.6 -0.6,-0.3 -1.2,-0.4 -1.7,-0.8 -0.5,-0.4 -0.9,-0.7 -1.4,-1.1 l 1.4,-2.1 c 0.1,-0.1 0.2,-0.2 0.4,-0.3 0.1,-0.1 0.3,-0.1 0.6,-0.1 0.2,0 0.6,0.1 0.8,0.2 0.2,0.1 0.6,0.3 0.9,0.6 0.3,0.3 0.7,0.3 1.2,0.6 0.4,0.2 0.9,0.2 1.7,0.2 0.8,0 1.5,-0.2 1.9,-0.6 0.4,-0.3 0.7,-0.9 0.7,-1.8 0,-0.4 -0.1,-0.8 -0.3,-1.2 -0.2,-0.2 -0.6,-0.4 -0.9,-0.7 -0.3,-0.2 -0.8,-0.3 -1.4,-0.4 -0.4,-0.1 -1.1,-0.3 -1.7,-0.4 -0.6,-0.1 -1.1,-0.3 -1.7,-0.7 -0.4,-0.2 -0.9,-0.6 -1.4,-1.1 -0.3,-0.4 -0.7,-0.9 -0.9,-1.5 -0.2,-0.6 -0.3,-1.4 -0.3,-2.3 0,-0.7 0.1,-1.4 0.4,-2.1 0.3,-0.7 0.7,-1.3 1.3,-1.9 0.6,-0.6 1.3,-0.9 2.1,-1.3 0.8,-0.4 1.8,-0.4 2.8,-0.4 0.6,0 1.2,0 1.8,0.1 0.6,0.1 1.1,0.2 1.7,0.4 0.6,0.2 0.9,0.3 1.4,0.7 0.4,0.2 0.8,0.6 1.2,0.8 l -1.2,2.2 c -0.1,0.2 -0.2,0.3 -0.4,0.4 -0.2,0.1 -0.3,0.1 -0.6,0.1 -0.3,0 -0.4,-0.1 -0.7,-0.2 -0.2,-0.1 -0.4,-0.2 -0.8,-0.4 -0.4,-0.2 -0.6,-0.3 -1.1,-0.4 -0.3,-0.1 -0.8,-0.2 -1.3,-0.2 -0.8,0 -1.5,0.2 -1.9,0.6 -0.3,0.3 -0.6,0.8 -0.6,1.5 0,0.3 0.1,0.7 0.3,0.9 0.2,0.2 0.6,0.4 0.9,0.7 0.3,0.3 0.8,0.3 1.4,0.4 0.4,0.1 1.1,0.3 1.7,0.4 0.6,0.1 1.1,0.4 1.7,0.7 0.4,0.2 0.9,0.6 1.4,1.1 0.3,0.3 0.7,0.9 0.9,1.5 0.2,0.6 0.3,1.3 0.3,2.1 0.2,1 0.1,1.9 -0.3,2.7 z m 33.4,3.8 h -4.5 V 19.8 h 4.5 z m 40.9,-3.8 c -0.3,0.8 -0.8,1.5 -1.4,2.1 -0.6,0.6 -1.3,1.1 -2.2,1.4 -0.8,0.3 -1.9,0.4 -2.9,0.4 -0.6,0 -1.3,-0.1 -1.9,-0.2 -0.6,-0.1 -1.3,-0.3 -1.9,-0.6 -0.6,-0.3 -1.2,-0.4 -1.7,-0.8 -0.4,-0.3 -0.9,-0.7 -1.4,-1.1 l 1.4,-2.1 c 0.1,-0.1 0.2,-0.2 0.4,-0.3 0.1,-0.1 0.3,-0.1 0.6,-0.1 0.3,0 0.6,0.1 0.8,0.2 0.2,0.1 0.6,0.3 0.9,0.6 0.3,0.3 0.7,0.3 1.2,0.6 0.4,0.2 0.9,0.2 1.7,0.2 0.8,0 1.5,-0.2 1.9,-0.6 0.4,-0.3 0.7,-0.9 0.7,-1.8 0,-0.4 -0.1,-0.8 -0.3,-1.2 -0.2,-0.2 -0.6,-0.4 -0.9,-0.7 -0.3,-0.2 -0.8,-0.3 -1.4,-0.4 -0.4,-0.1 -1.1,-0.3 -1.7,-0.4 -0.6,-0.1 -1.1,-0.3 -1.7,-0.7 -0.4,-0.2 -0.9,-0.6 -1.4,-1.1 -0.3,-0.4 -0.7,-0.9 -0.9,-1.5 -0.2,-0.6 -0.3,-1.4 -0.3,-2.3 0,-0.7 0.1,-1.4 0.4,-2.1 0.3,-0.7 0.7,-1.3 1.3,-1.9 0.7,-0.6 1.3,-0.9 2.1,-1.3 0.8,-0.4 1.9,-0.4 2.9,-0.4 0.6,0 1.2,0 1.8,0.1 0.6,0.1 1.1,0.2 1.7,0.4 0.6,0.2 0.9,0.3 1.4,0.7 0.4,0.2 0.8,0.6 1.2,0.8 l -1.2,2.1 c -0.1,0.2 -0.2,0.3 -0.4,0.4 -0.2,0.1 -0.3,0.1 -0.6,0.1 -0.3,0 -0.4,-0.1 -0.7,-0.2 -0.3,-0.1 -0.4,-0.2 -0.8,-0.4 -0.3,-0.2 -0.6,-0.3 -1.1,-0.4 -0.3,-0.1 -0.8,-0.2 -1.3,-0.2 -0.8,0 -1.5,0.2 -1.9,0.6 -0.3,0.3 -0.6,0.8 -0.6,1.5 0,0.3 0.1,0.7 0.3,0.9 0.2,0.2 0.6,0.4 0.9,0.7 0.3,0.3 0.8,0.3 1.4,0.4 0.4,0.1 1.1,0.3 1.7,0.4 0.6,0.1 1.1,0.4 1.7,0.7 0.4,0.2 0.9,0.6 1.4,1.1 0.3,0.3 0.7,0.9 0.9,1.5 0.2,0.6 0.3,1.3 0.3,2.1 0.1,1.1 0,2 -0.4,2.8 z" /></g></svg>
