<?xml version="1.0" encoding="UTF-8" standalone="no"?>
<svg
   xmlns:dc="http://purl.org/dc/elements/1.1/"
   xmlns:cc="http://creativecommons.org/ns#"
   xmlns:rdf="http://www.w3.org/1999/02/22-rdf-syntax-ns#"
   xmlns:svg="http://www.w3.org/2000/svg"
   xmlns="http://www.w3.org/2000/svg"
   xmlns:sodipodi="http://sodipodi.sourceforge.net/DTD/sodipodi-0.dtd"
   xmlns:inkscape="http://www.inkscape.org/namespaces/inkscape"
   inkscape:version="1.0 (4035a4fb49, 2020-05-01)"
   sodipodi:docname="snes.svg"
   xml:space="preserve"
   enable-background="new 0 0 400.9 96.9"
   viewBox="0 0 399.02128 105.8"
   height="105.8"
   width="399.02127"
   y="0px"
   x="0px"
   id="Capa_1"
   version="1.0"><metadata
     id="metadata255"><rdf:RDF><cc:Work
         rdf:about=""><dc:format>image/svg+xml</dc:format><dc:type
           rdf:resource="http://purl.org/dc/dcmitype/StillImage" /><dc:title></dc:title></cc:Work></rdf:RDF></metadata><defs
     id="defs253" /><sodipodi:namedview
     lock-margins="true"
     inkscape:pagecheckerboard="true"
     inkscape:document-rotation="0"
     inkscape:current-layer="Capa_1"
     inkscape:window-maximized="0"
     inkscape:window-y="0"
     inkscape:window-x="0"
     inkscape:cy="52.849996"
     inkscape:cx="199.55"
     inkscape:zoom="0.68096783"
     fit-margin-bottom="5"
     fit-margin-right="5"
     fit-margin-left="5"
     fit-margin-top="5"
     showgrid="false"
     id="namedview251"
     inkscape:window-height="480"
     inkscape:window-width="710"
     inkscape:pageshadow="2"
     inkscape:pageopacity="0"
     guidetolerance="10"
     gridtolerance="10"
     objecttolerance="10"
     borderopacity="1"
     bordercolor="#666666"
     pagecolor="#ffffff" /><g
     transform="translate(-0.9,4.5)"
     id="g248"><path
       style="fill:#ffffff"
       inkscape:connector-curvature="0"
       d="m 24.9,0.5 c -3.7,0 -7.2,3 -7.9,6.7 V 7.3 7.4 7.5 L 16.9,7.6 V 7.7 7.8 L 16.8,7.9 V 8 L 16.7,8.1 V 8.3 L 16.6,8.4 V 8.6 8.9 9.1 L 16.5,9.5 16.4,10 16.3,10.5 16.2,11 16.1,11.5 16,12 l -0.1,0.5 -0.1,0.5 -0.3,1.2 -0.1,0.6 -0.1,0.5 -0.1,0.5 -0.1,0.5 -0.1,0.5 -0.1,0.4 -0.1,0.5 -0.2,0.7 -0.1,0.5 V 19 l -0.1,0.1 v 0.2 0.1 l -0.1,0.2 v 0.1 0.1 l -0.1,0.1 v 0.1 0.1 c -0.1,1.7 0.2,3.9 0.7,4.3 0.7,3.6 12.7,20.3 12.3,22.8 -0.3,2.5 -1.8,10 -1.8,10 -0.4,2.5 -2.1,4.6 -4.7,4.6 -2.5,0 -4.3,-2 -3.8,-4.6 l 2.2,-12.4 h -9 L 7.3,62 c -0.6,3.5 1.8,6.2 5.3,6.2 h 12.8 c 3.5,0 6.9,-2.8 7.5,-6.2 0,0 3.3,-16.1 3.3,-17.2 0,-1.1 -0.3,-1.3 -0.3,-1.3 0,-1.3 -10.6,-18.9 -11.8,-19.6 -0.5,-0.3 -0.9,-2 -0.9,-3 0,-1.1 1.4,-8.1 1.4,-8.1 0.4,-2.5 2.8,-4.6 5.4,-4.6 2.6,0 3.6,2 3.1,4.6 L 31.2,24 h 9 L 43.3,7.3 C 44.1,3.6 41.7,0.6 38,0.6 Z M 49.4,0.5 38.7,62 c -0.6,3.5 1.8,6.2 5.3,6.2 h 12.8 c 3.5,0 6.9,-2.8 7.6,-6.2 L 75.8,0.5 h -8 L 56.9,60.3 c -0.2,0.9 -1,1.6 -1.8,1.6 h -6.3 c -0.9,0 -1.5,-0.7 -1.4,-1.6 L 57.9,0.5 Z m 30.7,0 -12.9,67.8 h 8.6 l 5.8,-30.7 h 10.9 c 3.5,0 6.9,-2.8 7.5,-6.2 l 4.7,-24 C 105.4,3.7 103,0.7 99.3,0.7 H 88.6 Z m 30.5,0 -13.3,67.8 h 19.2 l 1.4,-8.4 h -9.4 L 112.4,37 h 9.4 l 1.4,-7.1 h -9.4 l 4.2,-21 h 9.4 l 1.4,-8.4 z m 22.8,0 -12.9,67.8 h 8.6 l 5.8,-30.7 h 6 c 0.8,0.8 0.9,2.1 1,2.8 0.2,1 0.3,2.2 0.2,3.3 -0.1,1 -4.7,24.6 -4.7,24.6 h 8.6 c 0,0 4.8,-25.7 4.8,-26.2 0,-0.4 0,-1.8 -0.5,-2.4 -0.3,-0.5 -0.9,-1.6 -1.5,-1.9 -1.2,-0.8 -2.5,-1.3 -2.5,-1.3 h -0.6 c 2.4,-1 7,-2.5 7.5,-5.2 l 4.7,-24 c 0.7,-3.7 -1.7,-6.7 -5.4,-6.7 z m 45.8,0 -12.9,67.8 h 9.8 l 7.9,-39.2 3.1,39.2 h 8.6 L 208.6,0.5 h -9.8 L 192,36 187.6,0.6 Z m 33.9,0 -12.9,67.8 h 8.6 L 221.6,0.5 Z m 12.9,0 -12.9,67.8 h 9.8 l 8,-39.2 3.1,39.2 h 8.6 L 255.5,0.5 h -9.8 L 239.1,36 234.7,0.6 Z m 33.1,0 -1.6,8.4 h 5.4 l -10.5,59.4 h 9.7 L 272.9,8.9 h 5.2 l 1.4,-8.4 c -0.1,0 -20.4,0 -20.4,0 z m 23.5,0 -13.3,67.8 h 19.2 l 1.4,-8.4 h -9.4 L 284.4,37 h 9.4 l 1.4,-7.1 h -9.4 l 4.1,-21 h 9.4 l 1.4,-8.4 z m 21.7,0 -12.9,67.8 h 9.8 l 8,-39.2 3.1,39.2 h 8.6 L 333.8,0.5 H 324 L 317.4,36 312.9,0.5 Z m 33.9,0 -12.9,67.8 h 19.5 c 3.5,0 6.9,-2.8 7.6,-6.2 L 362.7,7.4 C 363.4,3.7 361,0.7 357.3,0.7 Z m 36.7,0 c -3.7,0 -7.1,3 -7.8,6.7 L 357.6,62 c -0.6,3.5 1.7,6.2 5.2,6.2 h 14.1 c 3.5,0 6.9,-2.8 7.6,-6.2 L 394.8,7.3 c 0.7,-3.7 -1.7,-6.7 -5.4,-6.7 0,-0.1 -14.5,-0.1 -14.5,-0.1 z m -29.4,7.8 h 3.9 c 2.5,0 4.2,2 3.8,4.6 l -8.4,44.4 c -0.5,2.5 -2.9,4.6 -5.4,4.6 h -3.9 z m 34.4,0 h 0.3 c 2.5,0 4.2,2 3.7,4.6 l -8,44.3 c -0.4,2.5 -2.7,4.6 -5.3,4.6 -2.5,0 -3.6,-2 -3.1,-4.6 l 8,-44.4 0.1,-0.2 0.1,-0.2 0.1,-0.3 0.1,-0.2 0.1,-0.3 0.1,-0.2 0.1,-0.2 0.1,-0.2 0.1,-0.2 0.1,-0.2 0.1,-0.2 0.1,-0.2 0.1,-0.1 0.1,-0.1 0.1,-0.2 0.2,-0.1 0.1,-0.1 0.1,-0.1 0.2,-0.1 0.2,-0.1 0.1,-0.1 0.2,-0.1 0.2,-0.1 0.2,-0.1 0.1,-0.1 0.3,-0.1 0.2,-0.1 h 0.2 l 0.2,-0.1 h 0.3 z M 88.3,8.6 h 4.1 c 0.9,0 2.8,2 2.6,3 l -3.4,16.7 c -0.2,0.9 -1.4,2.8 -2.2,2.8 h -5 -0.1 -0.1 L 84.1,31 H 84 83.9 83.8 83.7 v 0 h 0.1 -0.1 l -0.1,-0.1 h -0.1 l -0.1,-0.1 -0.1,-0.1 h -0.1 v -0.1 l 0.1,0.1 v 0 -0.1 L 83.2,30.5 83.1,30.4 V 30.3 30.2 L 83,30.1 V 30 29.9 l -0.1,-0.1 v -0.1 c 0,-0.1 0,-0.3 0,-0.4 l 4,-20.4 c 0.5,-0.1 0.9,-0.3 1.4,-0.3 z m 53.1,0 v 0 0 h 0.2 0.1 3.9 c 0.9,0 2.8,2 2.6,3 l -3.5,16.6 c -0.2,0.9 -2.3,2.9 -3.2,2.9 h -3.7 c -0.8,0 -1.3,-0.5 -1.4,-1.2 0,-0.1 0,-0.3 0,-0.4 l 3.9,-20.4 0.1,-0.1 0.1,-0.1 0.1,-0.1 h 0.1 l 0.1,-0.1 0.1,-0.1 h 0.1 l 0.1,-0.1 h 0.1 l 0.2,0.1 z M 5.9,74.1 V 96.3 H 386.6 V 74.1 Z m 279.8,2.4 v 0 0 h 0.2 0.1 0.1 2.9 c 0.8,0 1.4,0.7 1.2,1.5 l -0.8,3.7 h -1.8 l 0.4,-2.4 c 0.1,-0.6 -0.2,-1 -0.8,-1 -0.6,0 -1.1,0.5 -1.2,1 l -0.3,1.8 c -0.1,0.1 0.1,0.6 0.2,0.7 0.3,0.1 2.6,4.1 2.6,4.4 0.1,0.1 0.1,0.2 0.1,0.3 -0.1,0.5 -0.8,3.8 -0.8,3.8 -0.1,0.8 -0.9,1.4 -1.7,1.4 h -2.9 c -0.8,0 -1.3,-0.7 -1.2,-1.4 l 0.7,-3.8 h 1.9 l -0.5,2.7 c -0.1,0.6 0.2,1.1 0.8,1.1 0.6,0 1.1,-0.5 1.2,-1.1 l 0.4,-2.2 c -0.4,-0.9 -2.7,-4.3 -2.8,-5.1 -0.1,-0.1 -0.1,-0.6 -0.1,-1 0,-0.4 0.5,-2.8 0.5,-2.8 h 0.1 V 78 77.9 77.8 l 0.1,-0.1 v -0.1 l 0.1,-0.1 v 0 l 0.1,-0.1 v -0.1 l 0.1,-0.1 0.1,-0.1 V 77 h 0.1 l 0.1,-0.1 0.1,-0.1 0.1,-0.1 v -0.1 h 0.1 l 0.1,-0.1 0.1,-0.1 0.3,0.1 v -0.2 h 0.1 l 0.1,-0.1 h 0.1 z m 15.4,0 h 2.4 l 0.3,5.6 3,-5.6 h 2.4 l -5,8.7 -1.2,6.3 h -2.1 l 1.1,-6.8 z m 21.8,0 v 0 0 h 0.2 0.1 0.1 2.9 c 0.8,0 1.4,0.7 1.2,1.5 l -0.8,3.7 h -1.8 l 0.4,-2.4 c 0.1,-0.6 -0.2,-1 -0.8,-1 -0.6,0 -1.1,0.5 -1.2,1 l -0.3,1.7 c -0.1,0.1 0.1,0.6 0.2,0.7 0.2,0.1 2.6,4.1 2.6,4.4 0.1,0.1 0.1,0.2 0.1,0.3 -0.1,0.5 -0.7,3.8 -0.7,3.8 -0.1,0.8 -0.9,1.4 -1.7,1.4 h -2.8 c -0.8,0 -1.3,-0.7 -1.2,-1.4 l 0.7,-3.8 h 1.9 l -0.5,2.7 c -0.1,0.6 0.3,1.1 0.8,1.1 0.6,0 1.1,-0.5 1.2,-1.1 l 0.4,-2.2 c -0.4,-0.9 -2.7,-4.3 -2.8,-5.1 -0.1,-0.1 -0.1,-0.6 -0.1,-1 0,-0.4 0.5,-2.8 0.5,-2.8 l 0.1,-0.1 v -0.1 -0.1 l 0.1,-0.1 v -0.1 l 0.1,-0.1 v 0 l 0.1,-0.1 v -0.1 l 0.1,-0.1 0.1,-0.1 v 0 h 0.1 l 0.1,-0.1 0.1,-0.1 0.1,-0.1 0.1,-0.1 0.1,-0.1 h 0.2 v 0 l 0.1,-0.2 h 0.1 l 0.1,-0.1 h 0.1 z m 15.5,0 h 4.5 l -0.3,1.8 h -1.2 l -2.3,13.2 h -2.2 l 2.3,-13.2 H 338 Z m 17.5,0 h 4 l -0.3,1.8 h -2 l -1,4.8 h 2.1 l -0.3,1.6 h -2 l -0.9,5.1 h 2 l -0.3,1.8 h -4.3 z m 16.5,0 h 2.4 l 0.4,8.7 3.8,-8.6 2.4,-0.1 -2.5,15 h -1.8 l 1.2,-8 -3.3,8 h -1.4 l -0.4,-8.2 -1.5,8.2 h -2.2 z M 14.2,77 h 3.9 l -0.3,1.8 h -2.1 l -0.9,4.7 h 2 l -0.2,1.6 h -2.1 l -0.8,5.1 h 2 L 15.4,92 h -4.3 z m 18.4,0 h 1.8 l 1,7.9 1.5,-7.9 h 2.2 l -2.8,15.1 h -1.8 l -0.8,-8.8 -1.8,8.8 h -2.2 z m 20,0 H 57 l -0.3,1.8 H 55.5 L 53.1,92 H 51 L 53.3,78.8 H 52.1 Z M 72,77 h 4 l -0.3,1.8 h -2 l -1,4.7 h 2 l -0.3,1.6 h -2 l -0.9,5.1 h 2 L 73.2,92 h -4.3 z m 18.8,0 h 4.3 c 0.8,0 1.3,0.7 1.2,1.6 l -1,5.4 c -0.1,0.6 -1.2,1.1 -1.7,1.3 h 0.1 0.1 0.1 v 0 h 0.1 0.1 0.1 0.1 l 0.1,0.1 h 0.1 0.1 0.1 v 0.1 h 0.1 -0.3 v 0.1 0 c 0.1,0.2 0.1,0.7 0.1,0.8 0,0.1 -1.1,5.9 -1.1,5.9 h -1.9 c 0,0 1.1,-5.3 1.1,-5.5 0,-0.2 0,-0.5 -0.1,-0.8 0,-0.2 0,-0.4 -0.2,-0.6 H 91 l -1.3,6.8 h -1.9 z m 19.1,0 h 4.5 l -0.3,1.8 h -1.2 L 110.5,92 h -2.1 l 2.3,-13.2 h -1.2 z m 22.2,0 h 2.5 l -0.8,15.1 h -2.5 l 0.3,-3.5 H 130 l -1.3,3.5 h -2.2 z m 17.7,0 h 1.9 l -2.8,15.1 h -1.8 z m 17.2,0 h 1.8 l 1,7.9 1.5,-7.9 h 2.1 l -2.8,15.1 h -1.9 l -0.7,-8.8 -1.8,8.8 H 164 Z m 22.1,0 h 2.4 l 0.4,8.8 3.8,-8.7 h 2.4 l -2.5,15 h -1.8 l 1.2,-8 -3.3,8 h -1.4 l -0.4,-8.1 -1.5,8.2 h -2.1 z m 24.2,0 h 3.9 l -0.3,1.8 h -2.1 l -0.9,4.7 h 2 l -0.3,1.6 h -2.1 l -0.9,5.1 h 2.1 l -0.3,1.8 h -4.1 z m 19.4,0 h 1.8 l 1,7.9 1.4,-7.9 h 2.1 l -2.8,15.1 h -1.8 l -0.8,-8.8 -1.8,8.8 h -2 z m 19.7,0 h 4.5 l -0.3,1.8 h -1.2 L 253.1,92 H 251 l 2.3,-13.2 h -1.2 z M 92.6,78.8 c -0.1,0 -0.2,0.1 -0.3,0.1 l -0.9,4.6 c 0,0 0,0 0,0.1 0,0.1 0.1,0.3 0.3,0.3 h 0.8 c 0.2,0 0.7,-0.4 0.8,-0.6 l 0.8,-3.7 c 0,-0.2 -0.3,-0.7 -0.5,-0.7 z m 39.5,4.6 -1.4,3.8 h 1.1 z"
       id="polyline2177" /></g></svg>
