<?xml version="1.0" encoding="utf-8"?>
<!-- Generator: Adobe Illustrator 21.1.0, SVG Export Plug-In . SVG Version: 6.00 Build 0)  -->
<svg version="1.0" id="Capa_1" xmlns="http://www.w3.org/2000/svg" xmlns:xlink="http://www.w3.org/1999/xlink" x="0px" y="0px"
	 width="400.9px" height="96.9px" viewBox="0 0 400.9 96.9" enable-background="new 0 0 400.9 96.9" xml:space="preserve">
<g>
	<path id="polyline2177" fill="#FFFFFF" d="M24.9,0.5c-3.7,0-7.2,3-7.9,6.7v0.1v0.1v0.1l-0.1,0.1v0.1v0.1l-0.1,0.1V8l-0.1,0.1v0.2
		l-0.1,0.1v0.2v0.3v0.2l-0.1,0.4L16.4,10l-0.1,0.5L16.2,11l-0.1,0.5L16,12l-0.1,0.5L15.8,13l-0.3,1.2l-0.1,0.6l-0.1,0.5l-0.1,0.5
		l-0.1,0.5L15,16.8l-0.1,0.4l-0.1,0.5l-0.2,0.7l-0.1,0.5V19l-0.1,0.1v0.2v0.1l-0.1,0.2v0.1v0.1l-0.1,0.1V20v0.1
		c-0.1,1.7,0.2,3.9,0.7,4.3c0.7,3.6,12.7,20.3,12.3,22.8c-0.3,2.5-1.8,10-1.8,10c-0.4,2.5-2.1,4.6-4.7,4.6c-2.5,0-4.3-2-3.8-4.6
		l2.2-12.4h-9L7.3,62c-0.6,3.5,1.8,6.2,5.3,6.2h12.8c3.5,0,6.9-2.8,7.5-6.2c0,0,3.3-16.1,3.3-17.2s-0.3-1.3-0.3-1.3
		c0-1.3-10.6-18.9-11.8-19.6c-0.5-0.3-0.9-2-0.9-3c0-1.1,1.4-8.1,1.4-8.1c0.4-2.5,2.8-4.6,5.4-4.6s3.6,2,3.1,4.6L31.2,24h9l3.1-16.7
		c0.8-3.7-1.6-6.7-5.3-6.7L24.9,0.5L24.9,0.5z M49.4,0.5L38.7,62c-0.6,3.5,1.8,6.2,5.3,6.2h12.8c3.5,0,6.9-2.8,7.6-6.2L75.8,0.5h-8
		L56.9,60.3c-0.2,0.9-1,1.6-1.8,1.6h-6.3c-0.9,0-1.5-0.7-1.4-1.6L57.9,0.5H49.4z M80.1,0.5L67.2,68.3h8.6l5.8-30.7h10.9
		c3.5,0,6.9-2.8,7.5-6.2l4.7-24c0.7-3.7-1.7-6.7-5.4-6.7H88.6L80.1,0.5L80.1,0.5z M110.6,0.5L97.3,68.3h19.2l1.4-8.4h-9.4l3.9-22.9
		h9.4l1.4-7.1h-9.4l4.2-21h9.4l1.4-8.4H110.6z M133.4,0.5l-12.9,67.8h8.6l5.8-30.7h6c0.8,0.8,0.9,2.1,1,2.8c0.2,1,0.3,2.2,0.2,3.3
		c-0.1,1-4.7,24.6-4.7,24.6h8.6c0,0,4.8-25.7,4.8-26.2c0-0.4,0-1.8-0.5-2.4c-0.3-0.5-0.9-1.6-1.5-1.9c-1.2-0.8-2.5-1.3-2.5-1.3h-0.6
		c2.4-1,7-2.5,7.5-5.2l4.7-24c0.7-3.7-1.7-6.7-5.4-6.7L133.4,0.5L133.4,0.5z M179.2,0.5l-12.9,67.8h9.8l7.9-39.2l3.1,39.2h8.6
		l12.9-67.8h-9.8L192,36l-4.4-35.4L179.2,0.5L179.2,0.5z M213.1,0.5l-12.9,67.8h8.6l12.8-67.8H213.1z M226,0.5l-12.9,67.8h9.8
		l8-39.2l3.1,39.2h8.6l12.9-67.8h-9.8L239.1,36l-4.4-35.4L226,0.5L226,0.5z M259.1,0.5l-1.6,8.4h5.4l-10.5,59.4h9.7l10.8-59.4h5.2
		l1.4-8.4C279.4,0.5,259.1,0.5,259.1,0.5z M282.6,0.5l-13.3,67.8h19.2l1.4-8.4h-9.4l3.9-22.9h9.4l1.4-7.1h-9.4l4.1-21h9.4l1.4-8.4
		H282.6z M304.3,0.5l-12.9,67.8h9.8l8-39.2l3.1,39.2h8.6l12.9-67.8H324L317.4,36l-4.5-35.5H304.3z M338.2,0.5l-12.9,67.8h19.5
		c3.5,0,6.9-2.8,7.6-6.2l10.3-54.7c0.7-3.7-1.7-6.7-5.4-6.7L338.2,0.5L338.2,0.5z M374.9,0.5c-3.7,0-7.1,3-7.8,6.7L357.6,62
		c-0.6,3.5,1.7,6.2,5.2,6.2h14.1c3.5,0,6.9-2.8,7.6-6.2l10.3-54.7c0.7-3.7-1.7-6.7-5.4-6.7C389.4,0.5,374.9,0.5,374.9,0.5z
		 M345.5,8.3h3.9c2.5,0,4.2,2,3.8,4.6l-8.4,44.4c-0.5,2.5-2.9,4.6-5.4,4.6h-3.9L345.5,8.3z M379.9,8.3h0.3c2.5,0,4.2,2,3.7,4.6
		l-8,44.3c-0.4,2.5-2.7,4.6-5.3,4.6c-2.5,0-3.6-2-3.1-4.6l8-44.4l0.1-0.2l0.1-0.2l0.1-0.3l0.1-0.2l0.1-0.3l0.1-0.2l0.1-0.2l0.1-0.2
		l0.1-0.2l0.1-0.2l0.1-0.2l0.1-0.2l0.1-0.1l0.1-0.1l0.1-0.2l0.2-0.1l0.1-0.1l0.1-0.1l0.2-0.1l0.2-0.1l0.1-0.1l0.2-0.1l0.2-0.1
		l0.2-0.1l0.1-0.1l0.3-0.1l0.2-0.1h0.2l0.2-0.1h0.3L379.9,8.3z M88.3,8.6h4.1c0.9,0,2.8,2,2.6,3l-3.4,16.7c-0.2,0.9-1.4,2.8-2.2,2.8
		h-5h-0.1h-0.1L84.1,31H84h-0.1h-0.1h-0.1l0,0h0.1h-0.1l-0.1-0.1h-0.1l-0.1-0.1l-0.1-0.1h-0.1v-0.1l0.1,0.1l0,0v-0.1l-0.1-0.1
		l-0.1-0.1v-0.1v-0.1L83,30.1V30v-0.1l-0.1-0.1v-0.1c0-0.1,0-0.3,0-0.4l4-20.4C87.4,8.8,87.8,8.6,88.3,8.6z M141.4,8.6L141.4,8.6
		L141.4,8.6h0.2h0.1h3.9c0.9,0,2.8,2,2.6,3l-3.5,16.6c-0.2,0.9-2.3,2.9-3.2,2.9h-3.7c-0.8,0-1.3-0.5-1.4-1.2c0-0.1,0-0.3,0-0.4
		l3.9-20.4l0.1-0.1l0.1-0.1l0.1-0.1h0.1l0.1-0.1l0.1-0.1h0.1l0.1-0.1h0.1L141.4,8.6L141.4,8.6L141.4,8.6L141.4,8.6L141.4,8.6
		L141.4,8.6L141.4,8.6z M5.9,74.1v22.2h380.7V74.1H5.9z M285.7,76.5L285.7,76.5L285.7,76.5h0.2h0.1h0.1h2.9c0.8,0,1.4,0.7,1.2,1.5
		l-0.8,3.7h-1.8l0.4-2.4c0.1-0.6-0.2-1-0.8-1c-0.6,0-1.1,0.5-1.2,1l-0.3,1.8c-0.1,0.1,0.1,0.6,0.2,0.7c0.3,0.1,2.6,4.1,2.6,4.4
		c0.1,0.1,0.1,0.2,0.1,0.3c-0.1,0.5-0.8,3.8-0.8,3.8c-0.1,0.8-0.9,1.4-1.7,1.4h-2.9c-0.8,0-1.3-0.7-1.2-1.4l0.7-3.8h1.9l-0.5,2.7
		c-0.1,0.6,0.2,1.1,0.8,1.1c0.6,0,1.1-0.5,1.2-1.1l0.4-2.2c-0.4-0.9-2.7-4.3-2.8-5.1c-0.1-0.1-0.1-0.6-0.1-1s0.5-2.8,0.5-2.8h0.1V78
		v-0.1v-0.1l0.1-0.1v-0.1l0.1-0.1l0,0l0.1-0.1v-0.1l0.1-0.1l0.1-0.1V77h0.1l0.1-0.1l0.1-0.1l0.1-0.1v-0.1h0.1l0.1-0.1l0.1-0.1
		L285.7,76.5v-0.2h0.1l0.1-0.1h0.1L285.7,76.5L285.7,76.5z M301.1,76.5h2.4l0.3,5.6l3-5.6h2.4l-5,8.7l-1.2,6.3h-2.1l1.1-6.8
		L301.1,76.5z M322.9,76.5L322.9,76.5L322.9,76.5h0.2h0.1h0.1h2.9c0.8,0,1.4,0.7,1.2,1.5l-0.8,3.7h-1.8l0.4-2.4c0.1-0.6-0.2-1-0.8-1
		c-0.6,0-1.1,0.5-1.2,1l-0.3,1.7c-0.1,0.1,0.1,0.6,0.2,0.7c0.2,0.1,2.6,4.1,2.6,4.4c0.1,0.1,0.1,0.2,0.1,0.3
		c-0.1,0.5-0.7,3.8-0.7,3.8c-0.1,0.8-0.9,1.4-1.7,1.4h-2.8c-0.8,0-1.3-0.7-1.2-1.4l0.7-3.8h1.9l-0.5,2.7c-0.1,0.6,0.3,1.1,0.8,1.1
		c0.6,0,1.1-0.5,1.2-1.1l0.4-2.2c-0.4-0.9-2.7-4.3-2.8-5.1c-0.1-0.1-0.1-0.6-0.1-1s0.5-2.8,0.5-2.8l0.1-0.1v-0.1v-0.1l0.1-0.1v-0.1
		l0.1-0.1l0,0l0.1-0.1v-0.1l0.1-0.1l0.1-0.1l0,0h0.1l0.1-0.1l0.1-0.1l0.1-0.1l0.1-0.1l0.1-0.1L322.9,76.5L322.9,76.5l0.1-0.2h0.1
		l0.1-0.1h0.1L322.9,76.5L322.9,76.5z M338.4,76.5h4.5l-0.3,1.8h-1.2l-2.3,13.2h-2.2l2.3-13.2H338L338.4,76.5z M355.9,76.5h4
		l-0.3,1.8h-2l-1,4.8h2.1l-0.3,1.6h-2l-0.9,5.1h2l-0.3,1.8h-4.3L355.9,76.5z M372.4,76.5h2.4l0.4,8.7l3.8-8.6l2.4-0.1l-2.5,15h-1.8
		l1.2-8l-3.3,8h-1.4l-0.4-8.2l-1.5,8.2h-2.2L372.4,76.5z M14.2,77h3.9l-0.3,1.8h-2.1l-0.9,4.7h2l-0.2,1.6h-2.1l-0.8,5.1h2L15.4,92
		h-4.3L14.2,77z M32.6,77h1.8l1,7.9l1.5-7.9h2.2l-2.8,15.1h-1.8l-0.8-8.8l-1.8,8.8h-2.2L32.6,77z M52.6,77H57l-0.3,1.8h-1.2L53.1,92
		H51l2.3-13.2h-1.2L52.6,77z M72,77h4l-0.3,1.8h-2l-1,4.7h2l-0.3,1.6h-2l-0.9,5.1h2L73.2,92h-4.3L72,77z M90.8,77h4.3
		c0.8,0,1.3,0.7,1.2,1.6l-1,5.4c-0.1,0.6-1.2,1.1-1.7,1.3h0.1h0.1h0.1l0,0H94h0.1h0.1h0.1l0.1,0.1h0.1h0.1h0.1v0.1h0.1h-0.3v0.1l0,0
		c0.1,0.2,0.1,0.7,0.1,0.8s-1.1,5.9-1.1,5.9h-1.9c0,0,1.1-5.3,1.1-5.5s0-0.5-0.1-0.8c0-0.2,0-0.4-0.2-0.6H91l-1.3,6.8h-1.9L90.8,77z
		 M109.9,77h4.5l-0.3,1.8h-1.2L110.5,92h-2.1l2.3-13.2h-1.2L109.9,77z M132.1,77h2.5l-0.8,15.1h-2.5l0.3-3.5H130l-1.3,3.5h-2.2
		L132.1,77z M149.8,77h1.9l-2.8,15.1h-1.8L149.8,77z M167,77h1.8l1,7.9l1.5-7.9h2.1l-2.8,15.1h-1.9l-0.7-8.8l-1.8,8.8H164L167,77z
		 M189.1,77h2.4l0.4,8.8l3.8-8.7h2.4l-2.5,15h-1.8l1.2-8l-3.3,8h-1.4l-0.4-8.1l-1.5,8.2h-2.1L189.1,77z M213.3,77h3.9l-0.3,1.8h-2.1
		l-0.9,4.7h2l-0.3,1.6h-2.1l-0.9,5.1h2.1l-0.3,1.8h-4.1L213.3,77z M232.7,77h1.8l1,7.9l1.4-7.9h2.1l-2.8,15.1h-1.8l-0.8-8.8
		l-1.8,8.8h-2L232.7,77z M252.4,77h4.5l-0.3,1.8h-1.2L253.1,92H251l2.3-13.2h-1.2L252.4,77z M92.6,78.8c-0.1,0-0.2,0.1-0.3,0.1
		l-0.9,4.6c0,0,0,0,0,0.1s0.1,0.3,0.3,0.3h0.8c0.2,0,0.7-0.4,0.8-0.6l0.8-3.7c0-0.2-0.3-0.7-0.5-0.7L92.6,78.8L92.6,78.8z
		 M132.1,83.4l-1.4,3.8h1.1L132.1,83.4z"/>
</g>
</svg>
