<?xml version="1.0" encoding="UTF-8" standalone="no"?>
<svg
   xmlns:dc="http://purl.org/dc/elements/1.1/"
   xmlns:cc="http://creativecommons.org/ns#"
   xmlns:rdf="http://www.w3.org/1999/02/22-rdf-syntax-ns#"
   xmlns:svg="http://www.w3.org/2000/svg"
   xmlns="http://www.w3.org/2000/svg"
   id="svg8"
   version="1.1"
   viewBox="0 0 105.83333 39.687501"
   height="150"
   width="400">
  <defs
     id="defs2" />
  <metadata
     id="metadata5">
    <rdf:RDF>
      <cc:Work
         rdf:about="">
        <dc:format>image/svg+xml</dc:format>
        <dc:type
           rdf:resource="http://purl.org/dc/dcmitype/StillImage" />
        <dc:title></dc:title>
      </cc:Work>
    </rdf:RDF>
  </metadata>
  <g
     transform="translate(0,-257.31248)"
     id="layer1">
    <g
       transform="matrix(2.2978614,0,0,2.2978614,-69.16588,-343.5669)"
       id="text817"
       style="font-style:normal;font-variant:normal;font-weight:normal;font-stretch:normal;font-size:10.58333302px;line-height:1.25;font-family:GRADIUS;-inkscape-font-specification:GRADIUS;letter-spacing:0px;word-spacing:0px;fill:#ffffff;fill-opacity:1;stroke:none;stroke-width:0.26458332"
       aria-label="SPORTS">
      <path
         id="path868"
         style="font-style:normal;font-variant:normal;font-weight:normal;font-stretch:normal;font-family:CollegiateHeavyOutline;-inkscape-font-specification:CollegiateHeavyOutline;stroke-width:0.26458332;fill:#ffffff"
         d="m 35.256828,266.53443 -0.963083,-1.00541 v -1.85209 l 0.963083,-1.016 h 2.836333 l 0.973667,1.016 v 0.87842 h -1.217084 v -0.52917 l -0.455083,-0.48683 h -1.439333 l -0.455084,0.48683 v 1.15359 l 0.455084,0.47625 h 2.137833 l 0.973667,1.016 v 1.80975 l -0.973667,1.016 h -2.836333 l -0.963083,-1.016 v -0.84667 h 1.206499 v 0.508 l 0.455084,0.46567 h 1.439333 l 0.455083,-0.46567 v -1.12183 l -0.455083,-0.48684 z m 2.032,0.28575 0.296333,0.30692 v 0.91017 q -0.105833,0.10583 -0.15875,0.15875 -0.05292,0.0423 -0.137583,0.13758 h -1.227667 q -0.09525,-0.10583 -0.15875,-0.14817 -0.05292,-0.0529 -0.137583,-0.14816 v -0.67734 h -1.735667 v 1.23825 l 1.121833,1.17475 h 3.048 l 1.121834,-1.17475 v -2.04258 l -1.121834,-1.17475 h -2.137833 q -0.09525,-0.10583 -0.15875,-0.15875 -0.05292,-0.0529 -0.137583,-0.14817 v -0.94191 l 0.296333,-0.30692 h 1.227667 l 0.296333,0.30692 v 0.6985 h 1.735667 v -1.27 l -1.121834,-1.17475 h -3.048 l -1.121833,1.17475 v 2.07433 l 1.121833,1.18533 z m -2.233083,0.22225 -1.248834,-1.30175 v -2.27541 l 1.248834,-1.31234 h 3.238499 l 1.248834,1.31234 v 1.59808 h -2.180167 v -0.8255 l -0.179917,-0.1905 h -1.026583 l -0.169333,0.1905 v 0.73025 q 0.03175,0.0423 0.07408,0.0847 0.04233,0.0317 0.09525,0.0952 h 2.137833 l 1.248834,1.31233 v 2.23308 l -1.248834,1.31234 h -3.238499 l -1.248834,-1.31234 v -1.56633 h 2.180167 v 0.80433 q 0.03175,0.0318 0.07408,0.0741 0.04233,0.0423 0.09525,0.10583 h 1.026583 q 0.04233,-0.0423 0.08467,-0.0741 0.04233,-0.0423 0.09525,-0.10584 v -0.6985 l -0.179917,-0.1905 z" />
      <path
         id="path870"
         style="font-style:normal;font-variant:normal;font-weight:normal;font-stretch:normal;font-family:CollegiateHeavyOutline;-inkscape-font-specification:CollegiateHeavyOutline;stroke-width:0.26458332;fill:#ffffff"
         d="m 42.218511,266.58735 v 2.02142 h 0.433917 v 0.889 h -2.0955 v -0.889 h 0.4445 v -5.06942 h -0.4445 v -0.87842 h 3.958167 l 0.963083,1.016 v 1.89442 l -0.963083,1.016 z m 2.053167,-1.35467 v -1.2065 l -0.455083,-0.48683 h -1.598084 v 2.159 h 1.598084 z m -0.560917,0.1905 h -1.227666 v -1.59808 h 1.227666 l 0.296334,0.30692 v 0.98425 z m 0.910167,1.43934 1.132417,-1.18534 v -2.11666 l -1.132417,-1.17475 h -4.328583 v 1.43933 h 0.4445 v 4.5085 h -0.4445 v 1.43933 h 2.624666 v -1.43933 h -0.433916 v -1.47108 z m -1.926167,0.23283 v 1.016 h 0.4445 v 1.89442 h -3.069166 v -1.89442 h 0.4445 v -4.064 h -0.4445 v -1.89442 h 4.646083 l 1.248833,1.31234 v 2.31775 l -1.248833,1.31233 z m 1.090084,-2.07433 v -0.78317 l -0.179917,-0.1905 h -0.910167 v 1.143 h 0.910167 z" />
      <path
         id="path872"
         style="font-style:normal;font-variant:normal;font-weight:normal;font-stretch:normal;font-family:CollegiateHeavyOutline;-inkscape-font-specification:CollegiateHeavyOutline;stroke-width:0.26458332;fill:#ffffff"
         d="m 47.948559,262.66093 h 2.836334 l 0.973666,1.016 v 4.80484 l -0.973666,1.016 h -2.836334 l -0.963083,-1.016 v -4.80484 z m 2.137834,0.87842 h -1.439334 l -0.455083,0.48683 v 4.11692 l 0.455083,0.46567 h 1.439334 l 0.455083,-0.46567 v -4.11692 z m 0.1905,0.59267 v 3.90525 q -0.105834,0.10583 -0.15875,0.15875 -0.05292,0.0423 -0.137584,0.13758 h -1.227666 q -0.09525,-0.10583 -0.15875,-0.14817 -0.05292,-0.0529 -0.137584,-0.14816 v -3.90525 l 0.296334,-0.30692 h 1.227666 z m -3.556,-0.5715 v 5.03766 l 1.121833,1.17475 h 3.048 l 1.121833,-1.17475 v -5.03766 l -1.121833,-1.17475 h -3.048 z m 1.026583,-1.40759 h 3.2385 l 1.248833,1.31234 v 5.22816 l -1.248833,1.31234 h -3.2385 l -1.248833,-1.31234 v -5.22816 z m 2.12725,1.89442 h -1.026583 l -0.169334,0.1905 v 3.69358 q 0.03175,0.0318 0.07408,0.0741 0.04233,0.0423 0.09525,0.10583 h 1.026583 q 0.04233,-0.0423 0.08467,-0.0741 0.04233,-0.0423 0.09525,-0.10584 v -3.69358 z" />
      <path
         id="path874"
         style="font-style:normal;font-variant:normal;font-weight:normal;font-stretch:normal;font-family:CollegiateHeavyOutline;-inkscape-font-specification:CollegiateHeavyOutline;stroke-width:0.26458332;fill:#ffffff"
         d="m 53.259242,269.49777 v -0.889 h 0.4445 v -5.06942 h -0.4445 v -0.87842 h 4.0005 l 0.98425,1.016 v 1.57692 l -0.66675,0.68792 0.66675,0.68791 v 1.97909 h 0.4445 v 0.889 h -1.672167 v -2.63525 l -0.465666,-0.46567 h -1.61925 v 2.21192 h 0.4445 v 0.889 z m 3.757083,-4.46617 v -1.00542 l -0.465666,-0.48683 h -1.61925 v 1.9685 h 1.61925 z m -0.5715,0.20108 h -1.248833 v -1.40758 h 1.248833 l 0.306917,0.30692 v 0.78316 z m -0.79375,4.54025 v -1.43933 h -0.455083 v -1.66158 h 1.248833 q 0.105834,0.10583 0.15875,0.15875 0.05292,0.0423 0.148167,0.13758 v 2.80458 h 2.211916 v -1.43933 h -0.455083 v -1.80975 l -0.560917,-0.58208 0.560917,-0.58209 v -1.79916 l -1.143,-1.17475 h -4.3815 v 1.43933 h 0.4445 v 4.5085 h -0.4445 v 1.43933 z m -2.88925,0.23284 v -1.89442 h 0.4445 v -4.064 h -0.4445 v -1.89442 h 4.699 l 1.280583,1.31234 v 2.00025 l -0.465666,0.47625 0.465666,0.47625 v 1.69333 h 0.4445 v 1.89442 h -2.656416 v -2.93159 q -0.07408,-0.0635 -0.179917,-0.17991 h -0.931333 v 1.21708 h 0.455083 v 1.89442 z m 3.767667,-5.18584 v -0.58208 l -0.179917,-0.1905 h -0.931333 v 0.9525 h 0.931333 z" />
      <path
         id="path876"
         style="font-style:normal;font-variant:normal;font-weight:normal;font-stretch:normal;font-family:CollegiateHeavyOutline;-inkscape-font-specification:CollegiateHeavyOutline;stroke-width:0.26458332;fill:#ffffff"
         d="m 64.840054,263.53935 h -1.280583 v 5.06942 h 0.455083 v 0.889 h -2.137833 v -0.889 h 0.455083 v -5.06942 h -1.27 v 0.46567 h -0.85725 v -1.34409 h 5.482167 v 1.34409 h -0.846667 z m -0.275166,0.74083 h 1.397 v -1.89441 h -6.0325 v 1.89441 h 1.397 v -0.45508 h 0.73025 v 4.5085 h -0.4445 v 1.43933 h 2.667 v -1.43933 h -0.4445 v -4.5085 h 0.73025 z m -0.22225,-0.23283 h -0.28575 v 4.064 h 0.4445 v 1.89442 h -3.1115 v -1.89442 h 0.4445 v -4.064 h -0.275167 v 0.46567 h -1.852083 v -2.36009 h 6.477 v 2.36009 h -1.8415 z" />
      <path
         id="path878"
         style="font-style:normal;font-variant:normal;font-weight:normal;font-stretch:normal;font-family:CollegiateHeavyOutline;-inkscape-font-specification:CollegiateHeavyOutline;stroke-width:0.26458332;fill:#ffffff"
         d="m 68.164379,266.53443 -0.963084,-1.00541 v -1.85209 l 0.963084,-1.016 h 2.836333 l 0.973667,1.016 v 0.87842 h -1.217084 v -0.52917 l -0.455083,-0.48683 h -1.439333 l -0.455084,0.48683 v 1.15359 l 0.455084,0.47625 h 2.137833 l 0.973667,1.016 v 1.80975 l -0.973667,1.016 h -2.836333 l -0.963084,-1.016 v -0.84667 h 1.2065 v 0.508 l 0.455084,0.46567 h 1.439333 l 0.455083,-0.46567 v -1.12183 l -0.455083,-0.48684 z m 2.032,0.28575 0.296333,0.30692 v 0.91017 q -0.105833,0.10583 -0.15875,0.15875 -0.05292,0.0423 -0.137583,0.13758 h -1.227667 q -0.09525,-0.10583 -0.15875,-0.14817 -0.05292,-0.0529 -0.137583,-0.14816 v -0.67734 h -1.735667 v 1.23825 l 1.121833,1.17475 h 3.048 l 1.121834,-1.17475 v -2.04258 l -1.121834,-1.17475 h -2.137833 q -0.09525,-0.10583 -0.15875,-0.15875 -0.05292,-0.0529 -0.137583,-0.14817 v -0.94191 l 0.296333,-0.30692 h 1.227667 l 0.296333,0.30692 v 0.6985 h 1.735667 v -1.27 l -1.121834,-1.17475 h -3.048 l -1.121833,1.17475 v 2.07433 l 1.121833,1.18533 z m -2.233084,0.22225 -1.248833,-1.30175 v -2.27541 l 1.248833,-1.31234 h 3.2385 l 1.248834,1.31234 v 1.59808 h -2.180167 v -0.8255 l -0.179917,-0.1905 h -1.026583 l -0.169333,0.1905 v 0.73025 q 0.03175,0.0423 0.07408,0.0847 0.04233,0.0317 0.09525,0.0952 h 2.137833 l 1.248834,1.31233 v 2.23308 l -1.248834,1.31234 h -3.2385 l -1.248833,-1.31234 v -1.56633 h 2.180167 v 0.80433 q 0.03175,0.0318 0.07408,0.0741 0.04233,0.0423 0.09525,0.10583 h 1.026583 q 0.04233,-0.0423 0.08467,-0.0741 0.04233,-0.0423 0.09525,-0.10584 v -0.6985 l -0.179917,-0.1905 z" />
    </g>
    <g
       transform="matrix(1.3303367,0,0,1.3303367,-4.6774687,-90.894454)"
       id="text825"
       style="font-style:normal;font-variant:normal;font-weight:normal;font-stretch:normal;font-size:10.58333302px;line-height:1.25;font-family:GRADIUS;-inkscape-font-specification:GRADIUS;letter-spacing:0px;word-spacing:0px;fill:#ffffff;fill-opacity:1;stroke:none;stroke-width:0.26458332"
       aria-label="uibohla">
      <path
         id="path835"
         style="font-style:normal;font-variant:normal;font-weight:normal;font-stretch:normal;font-family:'Sport 4 Ever';-inkscape-font-specification:'Sport 4 Ever';stroke-width:0.26458332;fill:#ffffff"
         d="m 17.539298,282.86775 q -0.814916,0.635 -4.688416,3.10091 l 0.497416,0.9525 h 0.03175 q 1.143,-0.87841 1.418167,-0.87841 v -0.0423 l -0.1905,-0.64558 0.41275,-0.26458 0.497417,0.64558 q 0.381,-0.1905 3.058583,-0.87842 l 0.03175,0.0423 q 0,0.49741 -0.338667,0.49741 l -2.021416,0.83609 0.5715,1.79916 q 1.407583,0.70909 1.407583,0.9525 l 0.92075,2.16959 q -0.34925,0.23283 -0.497417,0.23283 -1.068916,-2.02142 -1.185333,-2.0955 l -0.9525,-0.34925 q -0.963083,1.78858 -1.11125,1.87325 l -2.137833,0.14817 -0.07408,-0.41275 1.947334,-0.46567 0.465666,-1.48167 q -0.92075,-1.651 -1.037166,-1.651 l -1.407584,0.77259 q -0.656166,-1.36525 -0.656166,-1.49225 l -2.4765,1.59808 -0.1164169,-0.14817 q 0.1693329,-0.21166 2.4764999,-1.59808 v -0.0423 l -0.03175,-0.0423 v -0.0317 l 0.338667,-0.1905 0.116416,0.0317 q 4.497917,-2.94216 4.699,-2.94216 z" />
      <path
         id="path837"
         style="font-style:normal;font-variant:normal;font-weight:normal;font-stretch:normal;font-family:'Sport 4 Ever';-inkscape-font-specification:'Sport 4 Ever';stroke-width:0.26458332;fill:#ffffff"
         d="m 28.742913,283.61916 h 0.211667 q 0.687917,0 0.85725,0.96309 0,0.762 -0.994833,0.92075 -0.359834,0 -0.751417,-0.39159 l -0.709083,0.35984 0.03175,0.0317 v 0.0741 q -1.005417,0.70908 -1.418167,0.70908 -0.656166,0 -1.11125,0.53975 -0.783166,0.49742 -0.783166,0.84667 h 0.04233 q 1.502833,0.81492 1.566333,0.99483 l 0.9525,2.31775 -0.497416,0.21167 -1.164167,-2.13783 -1.534583,-0.60325 q -0.98425,1.35466 -1.143,1.35466 l -2.413,0.635 q -0.116417,-0.14816 -0.179917,-0.49741 l 2.275417,-0.84667 q 0.783166,-1.35467 1.17475,-2.49767 0.07408,-0.26458 0.709083,-1.2065 l -0.92075,-0.17991 q -1.4605,0.8255 -1.566333,0.8255 l -0.179917,-0.35984 1.598083,-1.06891 q 1.640417,0.0953 1.640417,0.17991 0.338667,0.381 0.423333,0.39159 0.22225,-0.27517 0.5715,-0.53975 h 0.04233 l 0.34925,0.35983 q -0.423334,0.51858 -0.423334,0.60325 l 0.740834,0.0741 1.11125,-0.46566 v 0.0423 q 0.698499,-0.32808 0.709083,-0.39158 l -0.07408,-0.28575 q 0.179917,-0.96309 0.85725,-0.96309 z m -0.60325,0.92075 v 0.0423 q 0.137584,0.67733 0.60325,0.67733 h 0.179917 q 0.635,-0.14817 0.635,-0.61383 v -0.13759 q 0,-0.60325 -0.740833,-0.67733 h -0.04233 q -0.518583,0 -0.635,0.70908 z m 2.804584,0.46567 h 0.211666 l 0.179917,0.17992 v 0.21166 q -0.127,0.21167 -0.3175,0.21167 -0.15875,0 -0.28575,-0.28575 0,-0.17992 0.211667,-0.3175 z" />
      <path
         id="path839"
         style="font-style:normal;font-variant:normal;font-weight:normal;font-stretch:normal;font-family:'Sport 4 Ever';-inkscape-font-specification:'Sport 4 Ever';stroke-width:0.26458332;fill:#ffffff"
         d="m 34.190354,284.106 q 0.719666,0.11641 0.719666,0.21166 l -0.338666,0.762 q 0.772583,0 1.693333,0.93134 0.338667,0.37041 1.566333,0.635 l 2.921,0.80433 q -0.41275,0.889 -0.550333,0.889 -3.07975,-1.44992 -3.386667,-1.524 l -1.481666,0.71967 -0.804334,-0.42334 -0.169333,0.80434 q 1.957917,1.18533 1.989667,1.35466 l 0.677333,1.778 q -0.105833,0.27517 -0.211667,0.29634 -1.30175,-1.70392 -1.481666,-1.778 l -1.016,-0.55034 -0.381,2.032 -2.243667,0.33867 q -0.127,-0.15875 -0.127,-0.29633 v -0.0847 l 1.693333,-0.59267 q -0.08467,-1.73566 -0.296333,-1.73566 -0.1905,0 -0.338667,-2.54 0.41275,-1.22767 0.677334,-1.22767 z m 6.731,1.18533 h 0.211666 l 0.169334,0.16933 V 285.63 l -0.211667,0.21166 h -0.04233 q -0.296334,0 -0.296334,-0.29633 v -0.0847 z m -6.561667,0.42333 0.889,1.22767 1.143,-0.29633 v -0.0847 l -0.804333,-0.508 q -0.402167,-0.33867 -1.227667,-0.33867 z" />
      <path
         id="path841"
         style="font-style:normal;font-variant:normal;font-weight:normal;font-stretch:normal;font-family:'Sport 4 Ever';-inkscape-font-specification:'Sport 4 Ever';stroke-width:0.26458332;fill:#ffffff"
         d="m 48.468095,283.979 h 0.148167 q 0.328083,0 0.433917,0.51858 0,0.16933 -0.179917,0.40217 l 0.211667,1.016 h 0.03175 q 0.211666,-0.40217 0.455083,-0.40217 h 0.09525 q 0.243417,0 0.370417,0.22225 l 0.148166,-0.0635 -0.02117,-0.0952 -0.03175,-1.016 0.455083,-0.0953 q 0.1905,0.66675 0.1905,0.86783 l 1.005416,-0.22225 0.03175,0.0318 -0.243416,1.72509 h -0.03175 q -0.391584,0 -1.291167,-0.48684 -0.0635,0 -0.0635,-0.0953 l 0.03175,-0.0953 h 0.0635 l 0.889,0.30692 0.15875,-1.10067 q -0.243417,0 -0.243417,0.55034 l -0.03175,0.24341 -0.920749,-0.27516 v 0.14816 q 0,0.20109 -0.15875,0.37042 l 1.449916,0.67733 0.05292,-0.11641 h 0.0635 l -0.03175,0.762 v 0.46566 q 0.296333,0.92075 0.92075,2.24367 0.455083,0.8255 0.465666,0.97367 l -0.370416,0.15875 q -0.836084,-1.40759 -1.93675,-2.97392 -0.740833,0.60325 -0.740833,0.762 l -0.306917,2.05317 q -0.486833,-0.0212 -0.486833,-0.0847 l 0.127,-2.39183 1.195916,-1.41817 q -0.465666,-0.889 -0.550333,-0.889 -1.143,-0.13758 -1.143,-0.22225 -0.201083,-1.43933 -0.275167,-1.43933 -0.370416,-0.13759 -0.370416,-0.49742 v -0.0318 q 0.09525,-0.48683 0.433916,-0.48683 z m -0.370416,0.51858 q 0.08467,0.43392 0.433916,0.43392 0.359834,-0.10584 0.359834,-0.37042 v -0.0953 q -0.07408,-0.35983 -0.359834,-0.35983 -0.402166,0.0317 -0.402166,0.39158 z m -3.84175,-0.27517 q 0.455083,0.0423 0.455083,0.15875 l -0.02117,1.06892 0.116417,0.0317 q 0.148167,-0.21167 0.402167,-0.21167 0.34925,0 0.518583,0.43392 l 0.338667,0.0318 0.740833,-0.62442 h 0.0635 q 0.179917,0.15875 0.338667,0.15875 v 0.0318 q -0.941917,0.98425 -1.17475,0.98425 l -1.068917,0.14817 -0.497417,0.89958 1.195917,1.40759 0.127,2.40241 q -0.169333,0.0635 -0.486833,0.0635 l -0.338667,-2.2225 -0.740833,-0.61383 -1.905,2.9845 q -0.370417,-0.0952 -0.370417,-0.21167 1.386417,-2.82575 1.386417,-3.1115 v -0.73025 q 0,-0.62441 -0.306917,-2.40241 l 0.03175,-0.0317 1.005417,0.22225 z m -0.677334,0.98425 0.127,0.9525 0.92075,-0.30691 0.08467,0.27516 h 0.03175 l 0.03175,-0.0317 h 0.03175 l -0.09525,-0.24341 v -0.0953 l -0.9525,0.33866 q -0.05292,-0.14816 -0.05292,-0.55033 v -0.14817 q 0,-0.15875 -0.127,-0.1905 z m 1.322917,0.46567 v 0.24342 q 0.105833,0.21166 0.306917,0.21166 h 0.03175 q 0.232833,0 0.306916,-0.33866 -0.0635,-0.33867 -0.338666,-0.33867 -0.201084,0 -0.306917,0.22225 z m 4.360333,0.33867 q 0.07408,0.39158 0.402167,0.39158 0.232833,0 0.338667,-0.35983 0,-0.26459 -0.338667,-0.40217 -0.275167,0 -0.402167,0.37042 z m -5.74675,0.6985 -0.116416,-0.0212 v 0.11642 l 0.582083,-0.27517 v -0.0317 h -0.03175 z" />
      <path
         id="path843"
         style="font-style:normal;font-variant:normal;font-weight:normal;font-stretch:normal;font-family:'Sport 4 Ever';-inkscape-font-specification:'Sport 4 Ever';stroke-width:0.26458332;fill:#ffffff"
         d="m 56.464964,282.92066 h 0.09525 q 0.381,0 0.465666,0.48684 v 0.0212 q 0,0.28575 -0.359833,0.49742 l 0.53975,1.37583 q -0.22225,0.77259 -0.22225,1.53459 l -0.02117,0.762 0.02117,0.0212 -0.02117,0.381 v 0.34925 l -0.07408,0.0741 q -0.169333,1.69333 -0.264583,1.69333 l -1.7145,0.24342 q -0.5715,0.508 -0.645584,0.508 l -0.222249,-0.26459 q 1.238249,-1.25941 1.269999,-1.40758 l 0.66675,-1.09008 q 0,-0.34925 -0.381,-1.31234 h -0.02117 q -0.582084,0.48684 -0.582084,0.56092 -0.1905,1.397 -0.243416,1.397 -0.306917,-0.0106 -0.306917,-0.0635 0.08467,-1.69333 0.179917,-1.69333 0.772583,-0.889 0.8255,-0.889 l 0.391583,-0.0635 -0.264583,-0.74084 q 0.105833,-0.0741 0.423333,-0.17991 l 0.423333,0.80433 q 0.04233,-0.0106 0.264584,-0.66675 l -0.391584,-1.3335 0.04233,-0.0529 q -0.211667,0 -0.338667,-0.4445 0.09525,-0.508 0.465667,-0.508 z m 2.0955,1.37584 0.04233,0.0529 q -0.179917,1.17475 -0.243417,1.17475 h -0.751416 q -0.0635,0 -0.243417,-1.19591 l 0.02117,-0.0318 z m -0.9525,0.254 0.127,0.73025 h 0.497416 l 0.127,-0.73025 z m -1.915584,5.18583 h 0.02117 l 0.381,-0.0635 v -0.40217 z" />
      <path
         id="path845"
         style="font-style:normal;font-variant:normal;font-weight:normal;font-stretch:normal;font-family:'Sport 4 Ever';-inkscape-font-specification:'Sport 4 Ever';stroke-width:0.26458332;fill:#ffffff"
         d="m 66.25041,282.43383 h 0.201084 q 0.508,0 0.645583,0.73025 -0.201083,0.62442 -0.645583,0.62442 H 66.25041 q -0.60325,-0.14817 -0.60325,-0.58209 v -0.1905 q 0.15875,-0.58208 0.60325,-0.58208 z m -5.990166,1.30175 3.4925,0.97367 0.497416,-0.8255 0.550334,0.24341 -0.243417,0.92075 q 0.465667,0.10584 1.545167,0.96309 h 0.09525 l 0.6985,-1.25942 q 0.402166,0.14817 0.402166,0.29633 l -0.899583,1.88384 -1.693333,-0.86784 v 0.0423 q -1.153584,1.7145 -1.449917,2.8575 l 1.799167,-0.20109 0.148166,0.48684 q -0.116416,0.0952 -2.942166,0.73025 l 0.201083,-1.74625 q -0.751417,0.42333 -0.751417,1.16416 -0.211666,1.97909 -0.34925,1.97909 h -0.296333 q -0.254,0 -0.254,-0.0953 0,-3.14325 0.402167,-3.14325 1.291166,-1.44992 1.291166,-1.69334 l 0.34925,-1.16416 q -2.741083,-0.889 -2.741083,-1.00542 0,-0.53975 0.148167,-0.53975 z" />
      <path
         id="path847"
         style="font-style:normal;font-variant:normal;font-weight:normal;font-stretch:normal;font-family:'Sport 4 Ever';-inkscape-font-specification:'Sport 4 Ever';stroke-width:0.26458332;fill:#ffffff"
         d="m 72.65035,282.85716 q 0.169334,0.32809 0.518584,0.6985 h 0.03175 l 0.518583,-0.37041 1.799167,0.87841 -0.783167,1.25942 q 0.328083,0.64558 0.9525,2.97392 l 0.04233,0.0423 0.740834,0.0847 -0.02117,0.20108 -0.01058,0.39158 q -0.391584,0 -0.402167,0.0741 0.0635,0.0106 0.465667,1.04775 l -0.381,0.1905 H 76.0476 l -0.79375,-1.29117 -1.74625,0.0317 q -0.05292,-0.24342 0.04233,-2.69875 H 73.5076 l -3.354916,2.97392 q -0.02117,0.15875 -0.66675,0.3175 l -0.740833,-0.127 -0.1905,-0.0212 -0.07408,-0.0847 q 0.169334,-0.33866 0.740834,-0.26458 0.53975,0.0635 0.79375,-0.34925 l 1.11125,-1.016 -0.232834,-0.0741 0.01058,-0.0741 q 0.878416,-2.08491 1.016,-3.25966 l 0.518583,-0.37042 -0.359833,-0.9525 q 0.391583,-0.21167 0.550333,-0.21167 z m 1.61925,1.41817 -0.01058,0.0423 0.232833,0.42334 0.15875,-0.33867 z m -1.767416,0.89958 q -0.0635,0.49742 -1.026583,2.3495 l 1.830916,-1.4605 -0.772583,-0.87841 z m 1.9685,2.42359 -0.0635,0.1905 -0.05292,0.46566 0.423333,0.0529 0.01058,-0.0423 -0.275167,-0.66675 z m -4.339167,1.94733 q 0.338667,0.11642 0.306917,0.39158 l -0.01058,0.11642 q -0.127,0.22225 -0.338667,0.20108 l -0.15875,-0.0212 q -0.22225,-0.16934 -0.1905,-0.381 0.02117,-0.21167 0.391583,-0.30692 z" />
    </g>
    <path
       id="path866"
       d="M 8.504464,280.9909 H 97.305243"
       style="fill:#ffffff;stroke:#fffff8;stroke-width:0.54575843px;stroke-linecap:butt;stroke-linejoin:miter;stroke-opacity:1" />
  </g>
</svg>
