<?xml version="1.0" encoding="UTF-8" standalone="no"?>
<svg
   xmlns:dc="http://purl.org/dc/elements/1.1/"
   xmlns:cc="http://creativecommons.org/ns#"
   xmlns:rdf="http://www.w3.org/1999/02/22-rdf-syntax-ns#"
   xmlns:svg="http://www.w3.org/2000/svg"
   xmlns="http://www.w3.org/2000/svg"
   id="svg8"
   version="1.1"
   viewBox="0 0 105.83333 39.687501"
   height="150"
   width="400">
  <defs
     id="defs2" />
  <metadata
     id="metadata5">
    <rdf:RDF>
      <cc:Work
         rdf:about="">
        <dc:format>image/svg+xml</dc:format>
        <dc:type
           rdf:resource="http://purl.org/dc/dcmitype/StillImage" />
        <dc:title></dc:title>
      </cc:Work>
    </rdf:RDF>
  </metadata>
  <g
     transform="translate(0,-257.31248)"
     id="layer1">
    <path
       id="path835"
       transform="matrix(0.26458333,0,0,0.26458333,0,257.31248)"
       d="M 164.88086 2.203125 C 159.49786 2.203125 155.54917 2.8552115 153.03711 4.1601562 C 150.64467 5.3964145 149.44922 7.4571606 149.44922 10.341797 L 149.44922 29.400391 L 149.44922 48.253906 L 149.44922 67.724609 L 149.44922 87.09375 C 149.44922 92.313454 154.35309 94.956603 164.16211 95.025391 L 176.34961 95.025391 A 32.499999 32.499999 0 0 1 193.05078 85.855469 L 193.05078 53.404297 L 193.05078 10.03125 C 192.93116 4.8114454 188.08735 2.203125 178.51758 2.203125 L 164.88086 2.203125 z M 51.666016 2.3046875 C 47.359619 2.3046875 43.951519 2.9915777 41.439453 4.3652344 C 38.927389 5.6701793 37.669922 7.5258576 37.669922 9.9296875 L 37.669922 30.121094 C 37.669922 31.288691 37.72999 32.250382 37.849609 33.005859 C 38.088853 33.761362 38.807683 34.655323 40.003906 35.685547 C 41.200127 36.71577 43.054343 38.019918 45.566406 39.599609 C 48.198094 41.179276 51.904571 43.37741 56.689453 46.193359 C 58.364164 47.154896 59.621633 47.944371 60.458984 48.5625 C 61.296341 49.111968 61.893087 49.7292 62.251953 50.416016 C 62.730441 51.034145 62.970703 51.825572 62.970703 52.787109 L 62.970703 56.701172 L 63.150391 85.546875 L 55.076172 85.546875 L 55.076172 56.804688 L 37.3125 56.804688 L 37.3125 87.195312 L 37.669922 87.195312 L 37.669922 88.84375 C 37.669922 90.629476 38.985502 92.105841 41.617188 93.273438 C 44.248874 94.441008 47.300489 95.025391 50.769531 95.025391 L 66.917969 95.025391 C 71.224365 95.025391 74.634421 94.373304 77.146484 93.068359 C 79.658547 91.763414 80.914062 89.90974 80.914062 87.505859 L 80.914062 82.353516 L 81.273438 55.361328 C 81.273438 52.957473 81.153307 51.068944 80.914062 49.695312 C 80.794441 48.321682 80.255805 47.052337 79.298828 45.884766 C 78.461471 44.717169 77.025761 43.480751 74.992188 42.175781 C 72.958613 40.870836 70.087192 39.11967 66.378906 36.921875 C 63.627599 35.20481 61.475008 33.863856 59.919922 32.902344 C 58.484457 31.940782 57.407188 31.116502 56.689453 30.429688 C 55.971706 29.674185 55.553203 28.954394 55.433594 28.267578 C 55.313984 27.512101 55.255859 26.51558 55.255859 25.279297 L 55.433594 11.578125 L 63.6875 11.578125 L 63.6875 27.03125 L 80.914062 27.03125 L 80.914062 8.5898438 C 80.914062 6.804143 79.598482 5.3277531 76.966797 4.1601562 C 74.335109 2.9238729 71.283492 2.3046875 67.814453 2.3046875 L 51.666016 2.3046875 z M 91.623047 2.3046875 L 91.623047 95.025391 L 108.66992 95.025391 L 108.66992 53.404297 C 111.30161 53.404297 113.63439 53.439026 115.66797 53.507812 C 117.82117 53.507813 119.91369 53.473084 121.94727 53.404297 C 125.41631 53.33561 128.40786 52.648695 130.91992 51.34375 C 133.55161 50.038805 134.86719 48.459881 134.86719 46.605469 C 135.10643 34.105412 135.10643 21.535842 134.86719 8.8984375 C 134.86719 7.1127115 133.78992 5.6014926 131.63672 4.3652344 C 129.60314 3.0603651 127.03204 2.3734749 123.92188 2.3046875 L 91.623047 2.3046875 z M 207.27344 2.3046875 L 207.27344 65.458984 L 207.27344 86.089844 A 32.499999 32.499999 0 0 1 222.97852 95.025391 L 224.85938 95.025391 L 224.85938 44.544922 L 233.4707 44.544922 L 233.4707 50.828125 L 233.4707 95.025391 L 250.87695 95.025391 L 250.87695 91.523438 L 250.87695 50.828125 L 250.87695 49.078125 C 251.1162 44.819882 247.76621 41.762616 240.82812 39.908203 C 241.90472 39.564795 243.04011 39.25519 244.23633 38.980469 C 245.43255 38.705747 246.50982 38.363266 247.4668 37.951172 C 248.42377 37.539077 249.20071 37.059233 249.79883 36.509766 C 250.39694 35.891636 250.69727 35.100209 250.69727 34.138672 L 250.87695 9.0019531 C 250.87695 6.9415312 249.73962 5.3277531 247.4668 4.1601562 C 245.3136 2.9238729 241.84544 2.3046875 237.06055 2.3046875 L 224.32031 2.3046875 L 207.27344 2.3046875 z M 265.09961 2.3046875 L 265.09961 11.578125 L 278.01758 11.578125 L 278.01758 95.025391 L 295.60352 95.025391 L 295.60352 11.578125 L 307.98438 11.578125 L 307.98438 2.3046875 L 265.09961 2.3046875 z M 333.08203 2.3046875 C 328.77564 2.3046875 325.36558 2.9915777 322.85352 4.3652344 C 320.34145 5.6701793 319.08594 7.5258576 319.08594 9.9296875 L 319.08594 30.121094 C 319.08594 31.288691 319.14603 32.250382 319.26562 33.005859 C 319.50487 33.761362 320.22175 34.655323 321.41797 35.685547 C 322.61419 36.71577 324.46841 38.019918 326.98047 39.599609 C 329.61216 41.179276 333.32058 43.37741 338.10547 46.193359 C 339.78018 47.154896 341.03765 47.944371 341.875 48.5625 C 342.71236 49.111968 343.3091 49.7292 343.66797 50.416016 C 344.14646 51.034145 344.38672 51.825572 344.38672 52.787109 L 344.38672 56.701172 L 344.56641 85.546875 L 336.49023 85.546875 L 336.49023 56.804688 L 318.72656 56.804688 L 318.72656 87.195312 L 319.08594 87.195312 L 319.08594 88.84375 C 319.08594 90.629476 320.40152 92.105841 323.0332 93.273438 C 325.66489 94.441008 328.7165 95.025391 332.18555 95.025391 L 348.33398 95.025391 C 352.64038 95.025391 356.04848 94.373304 358.56055 93.068359 C 361.07261 91.763414 362.33008 89.90974 362.33008 87.505859 L 362.33008 82.353516 L 362.6875 55.361328 C 362.6875 52.957473 362.56932 51.068944 362.33008 49.695312 C 362.21045 48.321682 361.67182 47.052337 360.71484 45.884766 C 359.87749 44.717169 358.44178 43.480751 356.4082 42.175781 C 354.37463 40.870836 351.50321 39.11967 347.79492 36.921875 C 345.04361 35.20481 342.89102 33.863856 341.33594 32.902344 C 339.90047 31.940782 338.8232 31.116502 338.10547 30.429688 C 337.38772 29.674185 336.96922 28.954394 336.84961 28.267578 C 336.73 27.512101 336.66992 26.51558 336.66992 25.279297 L 336.84961 11.578125 L 345.10352 11.578125 L 345.10352 27.03125 L 362.33008 27.03125 L 362.33008 8.5898438 C 362.33008 6.804143 361.0145 5.3277531 358.38281 4.1601562 C 355.75112 2.9238729 352.69951 2.3046875 349.23047 2.3046875 L 333.08203 2.3046875 z M 109.38672 11.578125 L 117.10352 11.578125 L 117.10352 44.544922 L 109.38672 44.544922 L 109.38672 11.578125 z M 167.39258 11.578125 L 175.10742 11.578125 L 175.10742 85.445312 L 167.39258 85.445312 L 167.39258 11.578125 z M 225.2168 11.578125 L 232.93359 11.578125 L 232.93359 34.962891 L 225.2168 34.962891 L 225.2168 11.578125 z "
       style="font-style:normal;font-variant:normal;font-weight:normal;font-stretch:normal;font-size:medium;line-height:1.25;font-family:Sacco;-inkscape-font-specification:Sacco;text-align:center;letter-spacing:0px;word-spacing:0px;text-anchor:middle;fill:#ffffff;fill-opacity:1;stroke:none;stroke-width:3.39904737" />
    <circle
       r="7.6540179"
       cy="288.43881"
       cx="52.82217"
       id="path815"
       style="opacity:1;fill:#ffffff;fill-opacity:1;stroke:#fffff5;stroke-width:1;stroke-miterlimit:4;stroke-dasharray:none;stroke-opacity:1" />
    <path
       id="path825"
       transform="matrix(0.26458333,0,0,0.26458333,0,257.31248)"
       d="M 37.142578 103.21484 L 37.142578 107.14258 L 167.80859 124.02148 A 32.499999 32.499999 0 0 1 167.14258 117.64258 A 32.499999 32.499999 0 0 1 170.56445 103.21484 L 37.142578 103.21484 z M 228.74805 103.21484 A 32.499999 32.499999 0 0 1 232.14258 117.64258 A 32.499999 32.499999 0 0 1 231.5625 123.64648 L 362.14258 107.5 L 362.14258 103.21484 L 228.74805 103.21484 z "
       style="fill:#ffffff;fill-opacity:1;stroke:none;stroke-width:0.99999994px;stroke-linecap:butt;stroke-linejoin:miter;stroke-opacity:1" />
    <circle
       r="3.0238097"
       cy="288.43881"
       cx="52.82217"
       id="path861"
       style="opacity:1;fill:#ffffff;fill-opacity:1;stroke:none;stroke-width:1;stroke-miterlimit:4;stroke-dasharray:none;stroke-opacity:1" />
  </g>
</svg>
