<?xml version="1.0" encoding="UTF-8" standalone="no"?>
<svg
   xmlns:dc="http://purl.org/dc/elements/1.1/"
   xmlns:cc="http://creativecommons.org/ns#"
   xmlns:rdf="http://www.w3.org/1999/02/22-rdf-syntax-ns#"
   xmlns:svg="http://www.w3.org/2000/svg"
   xmlns="http://www.w3.org/2000/svg"
   width="400"
   height="150"
   viewBox="0 0 105.83333 39.687501"
   version="1.1"
   id="svg8">
  <defs
     id="defs2" />
  <metadata
     id="metadata5">
    <rdf:RDF>
      <cc:Work
         rdf:about="">
        <dc:format>image/svg+xml</dc:format>
        <dc:type
           rdf:resource="http://purl.org/dc/dcmitype/StillImage" />
        <dc:title></dc:title>
      </cc:Work>
    </rdf:RDF>
  </metadata>
  <path
     id="path835"
     d="m 43.624727,0.58291015 c -1.424252,0 -2.46901,0.17253122 -3.133659,0.51779785 -0.633,0.3270933 -0.949296,0.8723324 -0.949296,1.6355591 v 5.0425863 4.9883256 5.151624 5.124751 c 0,1.381047 1.297483,2.08038 3.892786,2.09858 h 3.224609 a 8.598958,8.598958 0 0 1 4.418851,-2.426208 V 14.129887 2.6541015 C 51.046369,1.2730282 49.764777,0.58291015 47.232776,0.58291015 Z m -29.95476,0.0268717 c -1.139401,0 -2.041128,0.1817397 -2.705779,0.54518645 -0.66465,0.3452666 -0.9973546,0.8362482 -0.9973546,1.4722615 v 5.3423096 c 0,0.3089267 0.015893,0.5633741 0.047543,0.7632607 0.0633,0.1998935 0.25349,0.4364207 0.569991,0.7090008 0.3165,0.2725798 0.807094,0.6176361 1.471744,1.0355951 0.696301,0.417954 1.676973,0.999544 2.942973,1.744597 0.443101,0.254406 0.775806,0.463288 0.997355,0.626835 0.221551,0.14538 0.37944,0.308689 0.47439,0.490409 0.1266,0.163547 0.190169,0.372945 0.190169,0.627352 v 1.035596 l 0.04754,7.632092 H 14.572237 V 15.029574 H 9.8722655 v 8.040852 h 0.094568 v 0.436149 c 0,0.472474 0.3480805,0.863095 1.0443805,1.172022 0.6963,0.308919 1.503707,0.463537 2.421558,0.463537 h 4.272607 c 1.139401,0 2.041645,-0.172531 2.706295,-0.517798 0.66465,-0.345266 0.996838,-0.835718 0.996838,-1.471744 v -1.363224 l 0.09508,-7.141683 c 0,-0.63602 -0.03178,-1.135694 -0.09508,-1.499134 -0.03165,-0.363439 -0.174164,-0.699287 -0.427364,-1.008207 -0.221551,-0.308927 -0.601416,-0.636062 -1.139465,-0.981335 -0.53805,-0.345267 -1.29778,-0.808596 -2.278931,-1.3900964 C 16.834802,9.3146059 16.265262,8.9598118 15.853812,8.7054117 15.474012,8.4509985 15.188985,8.2329077 14.999084,8.0511882 14.80918,7.8512947 14.698451,7.66085 14.666805,7.4791299 14.635158,7.2792433 14.619779,7.0155805 14.619779,6.6884806 l 0.04703,-3.6251017 h 2.183846 v 4.0886392 h 4.557861 V 2.2727295 c 0,-0.4724667 -0.348081,-0.8630948 -1.044381,-1.1720215 -0.6963,-0.32709997 -1.503707,-0.49092611 -2.421557,-0.49092611 z m 10.571964,0 V 25.142134 h 4.510318 V 14.129887 c 0.696302,0 1.313516,0.0092 1.851568,0.02739 0.569701,0 1.123346,-0.0092 1.661398,-0.02739 0.91785,-0.01817 1.709364,-0.19992 2.374013,-0.545187 0.696302,-0.345266 1.044382,-0.763023 1.044382,-1.25367 0.0633,-3.3073065 0.0633,-6.6330052 0,-9.9766518 0,-0.4724733 -0.285027,-0.8723166 -0.854728,-1.1994099 C 34.29083,0.80972159 33.61056,0.62798189 32.787664,0.60978189 Z m 30.599166,0 V 17.319356 22.777938 a 8.598958,8.598958 0 0 1 4.155302,2.364196 h 0.497645 v -13.35629 h 2.278411 v 1.662431 11.693859 h 4.605404 V 24.215576 13.448275 12.985254 c 0.0633,-1.12666 -0.82305,-1.935562 -2.658753,-2.426209 0.28485,-0.09086 0.585256,-0.172776 0.901755,-0.245463 0.3165,-0.07269 0.601528,-0.163301 0.854729,-0.272335 0.253198,-0.109033 0.458764,-0.2359917 0.617016,-0.3813715 0.15825,-0.1635469 0.237713,-0.3729453 0.237713,-0.627352 l 0.04754,-6.6507568 c 0,-0.5451533 -0.300919,-0.972132 -0.902269,-1.2810587 C 64.905889,0.77360803 63.988272,0.60978189 62.72227,0.60978189 h -3.370855 z m 15.299841,0 V 3.0633789 h 3.417879 V 25.142134 h 4.652947 V 3.0633789 h 3.275769 V 0.60978189 Z m 17.987015,0 c -1.139399,0 -2.041644,0.1817397 -2.706294,0.54518645 -0.664651,0.3452666 -0.996838,0.8362482 -0.996838,1.4722615 v 5.3423096 c 0,0.3089267 0.0159,0.5633741 0.04754,0.7632607 0.0633,0.1998935 0.252976,0.4364207 0.569476,0.7090008 0.3165,0.2725798 0.807095,0.6176361 1.471745,1.0355951 0.696301,0.417954 1.677487,0.999544 2.943489,1.744597 0.4431,0.254406 0.775806,0.463288 0.997355,0.626835 0.221551,0.14538 0.379439,0.308689 0.47439,0.490409 0.1266,0.163547 0.190169,0.372945 0.190169,0.627352 v 1.035596 l 0.04754,7.632092 h -2.136822 v -7.604703 h -4.699971 v 8.040852 h 0.09509 v 0.436149 c 0,0.472474 0.34808,0.863095 1.044379,1.172022 0.696301,0.308919 1.503706,0.463537 2.421559,0.463537 h 4.272605 c 1.139402,0 2.041128,-0.172531 2.70578,-0.517798 0.66465,-0.345266 0.997355,-0.835718 0.997355,-1.471744 v -1.363224 l 0.09457,-7.141683 c 0,-0.63602 -0.03127,-1.135694 -0.09457,-1.499134 C 95.83485,12.785112 95.692336,12.449264 95.439135,12.140344 95.217585,11.831417 94.83772,11.504282 94.299668,11.159009 93.76162,10.813742 93.00189,10.350413 92.020738,9.7689126 91.292787,9.3146059 90.723248,8.9598118 90.3118,8.7054117 89.931998,8.4509985 89.646971,8.2329077 89.457071,8.0511882 89.267166,7.8512947 89.156438,7.66085 89.124792,7.4791299 89.093145,7.2792433 89.077249,7.0155805 89.077249,6.6884806 l 0.04754,-3.6251017 h 2.183847 v 4.0886392 h 4.55786 V 2.2727295 c 0,-0.4724667 -0.34808,-0.8630948 -1.044382,-1.1720215 C 94.125816,0.77360803 93.318411,0.60978189 92.400561,0.60978189 Z M 28.941903,3.0633789 h 2.041736 v 8.7224651 h -2.041736 z m 15.347383,0 h 2.041218 V 22.607405 h -2.041218 z m 15.299325,0 h 2.041734 v 6.1872192 h -2.041734 z"
     style="font-style:normal;font-variant:normal;font-weight:normal;font-stretch:normal;font-size:medium;line-height:1.25;font-family:Sacco;-inkscape-font-specification:Sacco;text-align:center;letter-spacing:0px;word-spacing:0px;text-anchor:middle;fill:#ffffff;fill-opacity:1;stroke:none;stroke-width:0.89933127" />
  <path
     id="path815"
     d="m 60.476188,31.126331 a 7.6540179,7.6540179 0 0 1 -7.654018,7.654018 7.6540179,7.6540179 0 0 1 -7.654018,-7.654018 7.6540179,7.6540179 0 0 1 7.654018,-7.654018 7.6540179,7.6540179 0 0 1 7.654018,7.654018 z"
     style="opacity:1;fill:none;fill-opacity:1;stroke:#fffff5;stroke-width:1;stroke-miterlimit:4;stroke-dasharray:none;stroke-opacity:1" />
  <path
     id="path825"
     d="m 9.827307,27.308926 v 1.039215 l 34.572049,4.465875 a 8.598958,8.598958 0 0 1 -0.176216,-1.68775 8.598958,8.598958 0 0 1 0.90537,-3.81734 z m 50.695614,0 a 8.598958,8.598958 0 0 1 0.898136,3.81734 8.598958,8.598958 0 0 1 -0.15348,1.588531 L 95.81689,28.442708 v -1.133782 z"
     style="fill:#ffffff;fill-opacity:1;stroke:none;stroke-width:0.26458332px;stroke-linecap:butt;stroke-linejoin:miter;stroke-opacity:1" />
  <path
     id="path861"
     d="m 55.84598,31.126331 a 3.0238097,3.0238097 0 0 1 -3.02381,3.02381 3.0238097,3.0238097 0 0 1 -3.023809,-3.02381 3.0238097,3.0238097 0 0 1 3.023809,-3.023809 3.0238097,3.0238097 0 0 1 3.02381,3.023809 z"
     style="opacity:1;fill:#ffffff;fill-opacity:1;stroke:none;stroke-width:1;stroke-miterlimit:4;stroke-dasharray:none;stroke-opacity:1" />
</svg>
