<?xml version="1.0" encoding="UTF-8" standalone="no"?>
<svg
   xmlns:dc="http://purl.org/dc/elements/1.1/"
   xmlns:cc="http://creativecommons.org/ns#"
   xmlns:rdf="http://www.w3.org/1999/02/22-rdf-syntax-ns#"
   xmlns:svg="http://www.w3.org/2000/svg"
   xmlns="http://www.w3.org/2000/svg"
   xmlns:sodipodi="http://sodipodi.sourceforge.net/DTD/sodipodi-0.dtd"
   xmlns:inkscape="http://www.inkscape.org/namespaces/inkscape"
   inkscape:version="1.0 (4035a4fb49, 2020-05-01)"
   sodipodi:docname="sports.svg"
   id="svg8"
   version="1.1"
   viewBox="0 0 88.779591 41.343274"
   height="156.25804"
   width="335.54492">
  <sodipodi:namedview
     inkscape:current-layer="svg8"
     inkscape:window-maximized="0"
     inkscape:window-y="0"
     inkscape:window-x="0"
     inkscape:cy="47.706296"
     inkscape:cx="90.901904"
     inkscape:zoom="1.31125"
     fit-margin-bottom="5"
     fit-margin-right="5"
     fit-margin-left="5"
     fit-margin-top="5"
     lock-margins="true"
     inkscape:pagecheckerboard="true"
     showgrid="false"
     id="namedview9"
     inkscape:window-height="814"
     inkscape:window-width="1178"
     inkscape:pageshadow="2"
     inkscape:pageopacity="0"
     guidetolerance="10"
     gridtolerance="10"
     objecttolerance="10"
     borderopacity="1"
     bordercolor="#666666"
     pagecolor="#ffffff" />
  <defs
     id="defs2" />
  <metadata
     id="metadata5">
    <rdf:RDF>
      <cc:Work
         rdf:about="">
        <dc:format>image/svg+xml</dc:format>
        <dc:type
           rdf:resource="http://purl.org/dc/dcmitype/StillImage" />
        <dc:title></dc:title>
      </cc:Work>
    </rdf:RDF>
  </metadata>
  <path
     style="font-style:normal;font-variant:normal;font-weight:normal;font-stretch:normal;font-size:medium;line-height:1.25;font-family:Sacco;-inkscape-font-specification:Sacco;text-align:center;letter-spacing:0px;word-spacing:0px;text-anchor:middle;fill:#ffffff;fill-opacity:1;stroke:none;stroke-width:0.899331"
     d="m 35.120337,1.3229167 c -1.424252,0 -2.46901,0.1725312 -3.133659,0.5177978 -0.633,0.3270933 -0.949296,0.8723324 -0.949296,1.6355591 v 5.0425863 4.9883261 5.151624 5.124751 c 0,1.381047 1.297483,2.08038 3.892786,2.09858 h 3.224609 a 8.598958,8.598958 0 0 1 4.418851,-2.426208 V 14.869894 3.394108 C 42.541979,2.0130347 41.260387,1.3229167 38.728386,1.3229167 Z M 5.1655767,1.3497884 c -1.139401,0 -2.041128,0.1817397 -2.705779,0.5451864 -0.66465,0.3452666 -0.9973546,0.8362482 -0.9973546,1.4722615 v 5.3423096 c 0,0.3089267 0.015893,0.5633741 0.047543,0.7632607 0.0633,0.1998935 0.25349,0.4364207 0.569991,0.7090004 0.3165,0.27258 0.807094,0.617637 1.471744,1.035596 0.696301,0.417954 1.676973,0.999544 2.942973,1.744597 0.443101,0.254406 0.775806,0.463288 0.997355,0.626835 0.221551,0.14538 0.37944,0.308689 0.47439,0.490409 0.1266,0.163547 0.190169,0.372945 0.190169,0.627352 v 1.035596 l 0.04754,7.632092 H 6.0678467 V 15.769581 H 1.3678752 v 8.040852 h 0.094568 v 0.436149 c 0,0.472474 0.3480805,0.863095 1.0443805,1.172022 0.6963,0.308919 1.503707,0.463537 2.421558,0.463537 h 4.272607 c 1.1394013,0 2.0416453,-0.172531 2.7062953,-0.517798 0.66465,-0.345266 0.996838,-0.835718 0.996838,-1.471744 v -1.363224 l 0.09508,-7.141683 c 0,-0.63602 -0.03178,-1.135694 -0.09508,-1.499134 -0.03165,-0.363439 -0.174164,-0.699287 -0.427364,-1.008207 -0.221551,-0.308927 -0.601416,-0.636062 -1.139465,-0.981335 -0.53805,-0.345267 -1.29778,-0.808596 -2.2789313,-1.390097 -0.72795,-0.454307 -1.29749,-0.8091007 -1.70894,-1.0635008 C 6.9696217,9.191005 6.6845947,8.9729142 6.4946937,8.7911947 6.3047897,8.5913012 6.1940607,8.4008565 6.1624147,8.2191364 6.1307677,8.0192498 6.1153887,7.755587 6.1153887,7.4284871 l 0.04703,-3.6251017 h 2.183846 V 7.8920246 H 12.904126 V 3.012736 c 0,-0.4724667 -0.348081,-0.8630948 -1.044381,-1.1720215 -0.6963,-0.3271 -1.503707,-0.4909261 -2.4215573,-0.4909261 z m 10.5719643,0 V 25.882141 h 4.510318 V 14.869894 c 0.696302,0 1.313516,0.0092 1.851568,0.02739 0.569701,0 1.123346,-0.0092 1.661398,-0.02739 0.91785,-0.01817 1.709364,-0.19992 2.374013,-0.545187 0.696302,-0.345266 1.044382,-0.763023 1.044382,-1.25367 0.0633,-3.307307 0.0633,-6.6330057 0,-9.9766523 0,-0.4724733 -0.285027,-0.8723166 -0.854728,-1.1994099 C 25.78644,1.5497281 25.10617,1.3679884 24.283274,1.3497884 Z m 30.599166,0 v 16.7095746 5.458582 a 8.598958,8.598958 0 0 1 4.155302,2.364196 h 0.497645 v -13.35629 h 2.278411 v 1.662431 11.693859 h 4.605404 V 24.955583 14.188282 13.725261 c 0.0633,-1.12666 -0.82305,-1.935562 -2.658753,-2.426209 0.28485,-0.09086 0.585256,-0.172776 0.901755,-0.245463 0.3165,-0.07269 0.601528,-0.163301 0.854729,-0.272335 0.253198,-0.109033 0.458764,-0.235992 0.617016,-0.381372 0.15825,-0.163547 0.237713,-0.372945 0.237713,-0.627352 l 0.04754,-6.6507568 c 0,-0.5451533 -0.300919,-0.972132 -0.902269,-1.2810587 -0.569701,-0.3271 -1.487318,-0.4909261 -2.75332,-0.4909261 h -3.370855 z m 15.299841,0 v 2.453597 h 3.417879 V 25.882141 h 4.652947 V 3.8033854 h 3.275769 v -2.453597 z m 17.987015,0 c -1.139399,0 -2.041644,0.1817397 -2.706294,0.5451864 -0.664651,0.3452666 -0.996838,0.8362482 -0.996838,1.4722615 v 5.3423096 c 0,0.3089267 0.0159,0.5633741 0.04754,0.7632607 0.0633,0.1998935 0.252976,0.4364207 0.569476,0.7090004 0.3165,0.27258 0.807095,0.617637 1.471745,1.035596 0.696301,0.417954 1.677487,0.999544 2.943489,1.744597 0.4431,0.254406 0.775806,0.463288 0.997355,0.626835 0.221551,0.14538 0.379439,0.308689 0.47439,0.490409 0.1266,0.163547 0.190169,0.372945 0.190169,0.627352 v 1.035596 l 0.04754,7.632092 h -2.136822 v -7.604703 h -4.699971 v 8.040852 h 0.09509 v 0.436149 c 0,0.472474 0.34808,0.863095 1.044379,1.172022 0.696301,0.308919 1.503706,0.463537 2.421559,0.463537 h 4.272605 c 1.139402,0 2.041128,-0.172531 2.70578,-0.517798 0.66465,-0.345266 0.997355,-0.835718 0.997355,-1.471744 v -1.363224 l 0.09457,-7.141683 c 0,-0.63602 -0.03127,-1.135694 -0.09457,-1.499134 C 87.33046,13.525119 87.187946,13.189271 86.934745,12.880351 86.713195,12.571424 86.33333,12.244289 85.795278,11.899016 85.25723,11.553749 84.4975,11.09042 83.516348,10.508919 82.788397,10.054612 82.218858,9.6998183 81.80741,9.4454182 81.427608,9.191005 81.142581,8.9729142 80.952681,8.7911947 80.762776,8.5913012 80.652048,8.4008565 80.620402,8.2191364 80.588755,8.0192498 80.572859,7.755587 80.572859,7.4284871 l 0.04754,-3.6251017 h 2.183847 v 4.0886392 h 4.55786 V 3.012736 c 0,-0.4724667 -0.34808,-0.8630948 -1.044382,-1.1720215 -0.696298,-0.3271 -1.503703,-0.4909261 -2.421553,-0.4909261 z m -59.18605,2.453597 h 2.041736 v 8.7224656 h -2.041736 z m 15.347383,0 h 2.041218 V 23.347412 h -2.041218 z m 15.299325,0 h 2.041734 v 6.1872192 h -2.041734 z"
     id="path835" />
  <path
     style="opacity:1;fill:none;fill-opacity:1;stroke:#fffff5;stroke-width:1;stroke-miterlimit:4;stroke-dasharray:none;stroke-opacity:1"
     d="m 51.971798,31.866338 a 7.6540179,7.6540179 0 0 1 -7.654018,7.654018 7.6540179,7.6540179 0 0 1 -7.654018,-7.654018 7.6540179,7.6540179 0 0 1 7.654018,-7.654018 7.6540179,7.6540179 0 0 1 7.654018,7.654018 z"
     id="path815" />
  <path
     style="fill:#ffffff;fill-opacity:1;stroke:none;stroke-width:0.264583px;stroke-linecap:butt;stroke-linejoin:miter;stroke-opacity:1"
     d="m 1.3229167,28.048933 v 1.039215 l 34.5720493,4.465875 a 8.598958,8.598958 0 0 1 -0.176216,-1.68775 8.598958,8.598958 0 0 1 0.90537,-3.81734 z m 50.6956143,0 a 8.598958,8.598958 0 0 1 0.898136,3.81734 8.598958,8.598958 0 0 1 -0.15348,1.588531 L 87.3125,29.182715 v -1.133782 z"
     id="path825" />
  <path
     style="opacity:1;fill:#ffffff;fill-opacity:1;stroke:none;stroke-width:1;stroke-miterlimit:4;stroke-dasharray:none;stroke-opacity:1"
     d="m 47.34159,31.866338 a 3.0238097,3.0238097 0 0 1 -3.02381,3.02381 3.0238097,3.0238097 0 0 1 -3.023809,-3.02381 3.0238097,3.0238097 0 0 1 3.023809,-3.023809 3.0238097,3.0238097 0 0 1 3.02381,3.023809 z"
     id="path861" />
</svg>
