<?xml version="1.0" encoding="utf-8"?>
<!-- Generator: Adobe Illustrator 21.1.0, SVG Export Plug-In . SVG Version: 6.00 Build 0)  -->
<svg version="1.0"
	 id="Layer_1" inkscape:version="0.92.2 (unknown)" sodipodi:docname="arcade.svg" xmlns:cc="http://creativecommons.org/ns#" xmlns:dc="http://purl.org/dc/elements/1.1/" xmlns:inkscape="http://www.inkscape.org/namespaces/inkscape" xmlns:rdf="http://www.w3.org/1999/02/22-rdf-syntax-ns#" xmlns:sodipodi="http://sodipodi.sourceforge.net/DTD/sodipodi-0.dtd" xmlns:svg="http://www.w3.org/2000/svg"
	 xmlns="http://www.w3.org/2000/svg" xmlns:xlink="http://www.w3.org/1999/xlink" x="0px" y="0px" width="397px" height="134.5px"
	 viewBox="0 0 397 134.5" enable-background="new 0 0 397 134.5" xml:space="preserve">
<sodipodi:namedview  bordercolor="#666666" borderopacity="1" fit-margin-bottom="0" fit-margin-left="0" fit-margin-right="0" fit-margin-top="0" gridtolerance="10" guidetolerance="10" id="namedview35" inkscape:current-layer="Layer_1" inkscape:cx="-22.288274" inkscape:cy="48.05" inkscape:pageopacity="0" inkscape:pageshadow="2" inkscape:window-height="480" inkscape:window-maximized="0" inkscape:window-width="698" inkscape:window-x="0" inkscape:window-y="0" inkscape:zoom="0.57510005" objecttolerance="10" pagecolor="#ffffff" showgrid="false">
	</sodipodi:namedview>
<g>
	<path fill="#FFFFFF" d="M4.5,84.9C13,115,42,134.4,72.2,130.9c38.1-4.5,63.5-41.1,54.5-78.4c-9.6-39.6-53.5-60.3-89.4-41.9
		C16.9,20.9,5.6,37.9,2.3,60.4c-0.2,1.7,0.4,2.2,1.8,2.8c10.1,4.2,20.2,8.4,30.4,12.6c0.9,0.4,2.2,0.1,3.3-0.2
		c2.5-0.6,5-1.3,7.4-2.1c1.2-0.4,2.6-0.9,3.3-1.8c4.4-6.2,8.7-12.5,13-18.9c0.6-0.9,1-2.2,1-3.3c0.8-12.2,10.8-21.9,23-22.3
		c12.1-0.4,22.8,8.8,24.4,20.8c1.6,12.5-6.3,24.5-18.5,26.5c-5.2,0.8-9,3.1-12.9,6c-4,2.9-8.1,5.7-12.1,8.8c-1,0.8-1.9,2.2-2,3.5
		c-1.1,9.2-7.4,15.8-16,16.8c-8.5,1-15.9-4.1-19.1-12.8c-0.3-0.7-0.7-1.7-1.3-1.9C20.2,91.4,12.6,88.3,4.5,84.9z"/>
	<path fill="#FFFFFF" d="M385.7,90.6c3.3,0,6.2,0,9,0c0-15.5,0-30.9,0-46.4c-2.7,0-5.2-0.1-7.7,0.1c-0.8,0.1-1.8,0.9-2.1,1.6
		c-1.3,2.5-2.4,5.2-3.5,7.8c-3.5,7.9-7,15.8-10.7,24c-0.6-1.1-1-1.9-1.4-2.7c-4.4-9.5-8.8-19-13.2-28.5c-0.4-0.8-1.2-2-1.8-2
		c-2.7-0.2-5.4-0.1-8.1-0.1c0,15.7,0,31.1,0,46.3c3.1,0,6,0,9.1,0c0-9.1,0-17.9,0-27.5c0.5,1,0.7,1.2,0.9,1.5
		c3.5,7.6,7.1,15.2,10.4,22.8c0.9,2,2.1,2.1,3.9,2.1c1.7,0,2.8-0.2,3.6-2.1c3.2-7.2,6.6-14.4,9.9-21.6c0.4-0.8,0.9-1.6,1.3-2.4
		c0.2,0.1,0.3,0.1,0.5,0.2C385.7,72.6,385.7,81.5,385.7,90.6z"/>
	<path fill="#FFFFFF" d="M251.8,44.4c0,15.6,0,30.9,0,46.3c10.4,0,20.5,0,30.8,0c0-2.8,0-5.4,0-8.3c-7.1,0-14.1,0-21,0
		c0-3.8,0-7.2,0-10.9c6.1,0,12.1,0,18,0c0-2.9,0-5.5,0-8.4c-6.1,0-12.1,0-18.1,0c0-3.5,0-6.8,0-10.4c7.1,0,14,0,21,0
		c0-2.9,0-5.5,0-8.2C272.3,44.4,262.1,44.4,251.8,44.4z"/>
	<path fill="#FFFFFF" d="M164.5,80c-0.7,2.1-1.7,4.6-2.7,7.4c1.4,0.7,2.6,1.4,3.9,1.9c7.8,2.8,15.6,3.8,23.3-0.1
		c5-2.5,7.2-7,7.2-12.5c0-5.3-2.9-8.7-7.6-10.8c-2.3-1-4.8-1.9-7.2-2.8c-2.2-0.9-4.6-1.6-6.5-2.9c-1.1-0.7-2.2-2.6-2-3.8
		c0.2-1.4,1.5-2.8,2.7-3.8c0.9-0.7,2.5-0.9,3.7-0.7c3.9,0.7,7.8,1.6,12,2.6c0.9-1.7,2.3-4,3.6-6.3c-6.5-4.7-17.3-6.1-24.2-3
		c-4.9,2.1-7.7,5.8-8,11.3c-0.3,5.5,2.1,9.4,6.9,11.8c2.6,1.3,5.5,2.2,8.2,3.3c2,0.8,4,1.4,5.8,2.5c3.3,1.9,3.2,5.8-0.2,7.4
		c-1.7,0.8-3.8,1.4-5.6,1.1C173.4,81.9,169.2,80.9,164.5,80z"/>
	<path fill="#FFFFFF" d="M203.3,44.4c0,2.7,0,5.4,0,8.3c4.7,0,9.2,0,14,0c0,12.8,0,25.3,0,37.9c3.3,0,6.4,0,9.8,0
		c0-12.8,0-25.3,0-38.2c4.8,0,9.3,0,13.7,0c0-2.8,0-5.4,0-8.1C228.3,44.4,215.9,44.4,203.3,44.4z"/>
	<path fill="#FFFFFF" d="M34.2,97.4c4.1,7.2,11.8,9.5,18.3,6c6.5-3.5,8.9-11.5,5.6-18.1C55.4,79.6,47.4,76.1,42,79
		c2.7,1.1,5.2,2.1,7.7,3.3c5,2.4,7.2,8.1,5,13c-2.1,5-7.7,7.2-12.9,5.1C39.4,99.5,37.1,98.5,34.2,97.4z"/>
	<path fill="#FFFFFF" d="M4.5,84.9c8.1,3.4,15.7,6.5,23.3,9.7c0.6,0.3,1,1.2,1.3,1.9c3.1,8.7,10.6,13.7,19.1,12.8
		c8.7-1,14.9-7.6,16-16.8c0.2-1.2,1.1-2.7,2-3.5c3.9-3,8-5.9,12.1-8.8c3.9-2.9,7.8-5.2,12.9-6c12.2-2,20.1-14,18.5-26.5
		c-1.5-12-12.3-21.2-24.4-20.8c-12.2,0.4-22.2,10.2-23,22.3c-0.1,1.1-0.4,2.4-1,3.3c-4.2,6.4-8.5,12.7-13,18.9
		c-0.7,0.9-2.1,1.4-3.3,1.8c-2.4,0.8-4.9,1.5-7.4,2.1c-1.1,0.3-2.4,0.6-3.3,0.2c-10.1-4.1-20.2-8.4-30.4-12.6
		c-1.4-0.6-2-1.2-1.8-2.8c3.3-22.5,14.6-39.5,34.9-49.9c35.9-18.3,79.8,2.3,89.4,41.9c9.1,37.3-16.4,73.9-54.5,78.4
		C42,134.4,13,115,4.5,84.9z"/>
	<path fill="#FFFFFF" d="M385.7,90.6c0-9.1,0-18,0-26.9c-0.2-0.1-0.3-0.1-0.5-0.2c-0.4,0.8-0.9,1.6-1.3,2.4
		c-3.3,7.2-6.7,14.3-9.9,21.6c-0.8,1.8-1.9,2.1-3.6,2.1c-1.8,0-3-0.1-3.9-2.1c-3.4-7.7-6.9-15.2-10.4-22.8c-0.1-0.3-0.3-0.6-0.9-1.5
		c0,9.6,0,18.5,0,27.5c-3.1,0-6,0-9.1,0c0-15.3,0-30.6,0-46.3c2.7,0,5.4-0.1,8.1,0.1c0.7,0.1,1.5,1.2,1.8,2
		c4.5,9.5,8.8,19,13.2,28.5c0.4,0.8,0.8,1.6,1.4,2.7c3.7-8.2,7.2-16.1,10.7-24c1.2-2.6,2.2-5.3,3.5-7.8c0.4-0.7,1.4-1.5,2.1-1.6
		c2.5-0.2,4.9-0.1,7.7-0.1c0,15.5,0,30.8,0,46.4C391.9,90.6,389,90.6,385.7,90.6z"/>
	<path fill="#FFFFFF" d="M335.9,90.8c-3.2,0-6.2,0-9.2,0c-0.5,0-1-0.6-1.4-1c-0.2-0.2-0.3-0.7-0.4-1c-0.9-2.3-1.2-5.4-2.9-6.6
		c-1.6-1.1-4.6-0.3-7-0.3c-1.7,0-3.3,0-5,0c-5.7,0-5.9-0.1-7.3,5.4c-0.8,3-2.2,4-5.1,3.6c-1.9-0.2-3.8,0-6.1,0
		c0.2-0.9,0.4-1.6,0.6-2.2c5.2-14,10.4-27.9,15.5-41.9c0.7-2,1.7-2.6,3.8-2.6c7,0.1,7,0,9.5,6.6c4.8,12.7,9.7,25.4,14.5,38.1
		C335.5,89.4,335.6,90,335.9,90.8z M313.3,55.4c-2.2,6.5-4.1,12.4-6.2,18.4c4.4,0,8.3,0,12.5,0C317.6,67.8,315.6,61.9,313.3,55.4z"
		/>
	<path fill="#FFFFFF" d="M251.8,44.4c10.4,0,20.5,0,30.8,0c0,2.7,0,5.3,0,8.2c-7,0-14,0-21,0c0,3.6,0,6.9,0,10.4c6,0,12,0,18.1,0
		c0,2.9,0,5.5,0,8.4c-6,0-11.9,0-18,0c0,3.7,0,7.2,0,10.9c6.9,0,13.9,0,21,0c0,2.9,0,5.5,0,8.3c-10.3,0-20.4,0-30.8,0
		C251.8,75.3,251.8,59.9,251.8,44.4z"/>
	<path fill="#FFFFFF" d="M164.5,80c4.7,0.9,8.9,1.9,13.2,2.4c1.8,0.2,3.9-0.3,5.6-1.1c3.4-1.6,3.4-5.5,0.2-7.4
		c-1.8-1-3.9-1.7-5.8-2.5c-2.7-1.1-5.6-2-8.2-3.3c-4.8-2.4-7.2-6.3-6.9-11.8c0.3-5.5,3.1-9.1,8-11.3c6.9-3,17.8-1.7,24.2,3
		c-1.3,2.3-2.6,4.7-3.6,6.3c-4.3-0.9-8.1-1.9-12-2.6c-1.2-0.2-2.8,0-3.7,0.7c-1.2,0.9-2.5,2.4-2.7,3.8c-0.1,1.2,0.9,3,2,3.8
		c2,1.3,4.3,2,6.5,2.9c2.4,1,4.8,1.8,7.2,2.8c4.7,2.1,7.6,5.5,7.6,10.8c0,5.5-2.2,9.9-7.2,12.5c-7.7,3.9-15.5,3-23.3,0.1
		c-1.3-0.5-2.4-1.2-3.9-1.9C162.8,84.6,163.8,82.1,164.5,80z"/>
	<path fill="#FFFFFF" d="M203.3,44.4c12.6,0,24.9,0,37.5,0c0,2.7,0,5.2,0,8.1c-4.5,0-8.9,0-13.7,0c0,12.9,0,25.4,0,38.2
		c-3.4,0-6.5,0-9.8,0c0-12.6,0-25.1,0-37.9c-4.8,0-9.3,0-14,0C203.3,49.7,203.3,47.1,203.3,44.4z"/>
	<path fill="#FFFFFF" d="M102,51.1c0,8.9-7.1,16.1-15.9,16c-8.8,0-15.9-7.3-15.8-16.2c0.1-8.7,7.1-15.9,15.8-15.9
		C94.8,35.1,102,42.3,102,51.1z M98,51.2c0-6.7-5.2-12-11.8-12c-6.6,0-12,5.2-12,11.8c0,6.6,5.3,12,11.8,12.1
		C92.6,63.1,98,57.8,98,51.2z"/>
	<path fill="#FFFFFF" d="M34.2,97.4c2.9,1.2,5.2,2.2,7.6,3.1c5.2,2,10.8-0.2,12.9-5.1c2.2-5,0-10.6-5-13c-2.5-1.2-5-2.1-7.7-3.3
		c5.4-2.9,13.4,0.6,16.2,6.3c3.2,6.6,0.8,14.6-5.6,18.1C46,106.9,38.4,104.5,34.2,97.4z"/>
</g>
</svg>
