<?xml version="1.0" encoding="UTF-8" standalone="no"?>
<svg
   xmlns:dc="http://purl.org/dc/elements/1.1/"
   xmlns:cc="http://creativecommons.org/ns#"
   xmlns:rdf="http://www.w3.org/1999/02/22-rdf-syntax-ns#"
   xmlns:svg="http://www.w3.org/2000/svg"
   xmlns="http://www.w3.org/2000/svg"
   xmlns:sodipodi="http://sodipodi.sourceforge.net/DTD/sodipodi-0.dtd"
   xmlns:inkscape="http://www.inkscape.org/namespaces/inkscape"
   inkscape:version="1.0 (4035a4fb49, 2020-05-01)"
   sodipodi:docname="strategy.svg"
   width="399.29102"
   height="114.97461"
   viewBox="0 0 105.64574 30.420366"
   version="1.1"
   id="svg8">
  <sodipodi:namedview
     inkscape:current-layer="svg8"
     inkscape:window-maximized="0"
     inkscape:window-y="0"
     inkscape:window-x="0"
     inkscape:cy="59.169922"
     inkscape:cx="200.85938"
     inkscape:zoom="2.6225"
     fit-margin-bottom="5"
     fit-margin-right="5"
     fit-margin-left="5"
     fit-margin-top="5"
     lock-margins="true"
     inkscape:pagecheckerboard="true"
     showgrid="false"
     id="namedview7"
     inkscape:window-height="480"
     inkscape:window-width="712"
     inkscape:pageshadow="2"
     inkscape:pageopacity="0"
     guidetolerance="10"
     gridtolerance="10"
     objecttolerance="10"
     borderopacity="1"
     bordercolor="#666666"
     pagecolor="#ffffff" />
  <defs
     id="defs2" />
  <metadata
     id="metadata5">
    <rdf:RDF>
      <cc:Work
         rdf:about="">
        <dc:format>image/svg+xml</dc:format>
        <dc:type
           rdf:resource="http://purl.org/dc/dcmitype/StillImage" />
        <dc:title></dc:title>
      </cc:Work>
    </rdf:RDF>
  </metadata>
  <g
     id="layer1"
     transform="translate(0.22737631,-261.50085)">
    <path
       style="fill:#ffffff;fill-opacity:1;stroke:none;stroke-width:1.78528;stroke-miterlimit:4;stroke-dasharray:none;stroke-opacity:1"
       d="m 342.50391,20.830078 c -14.03582,0.215169 -33.89158,9.084827 -43.52344,23.140625 L 88.458984,43.574219 c 0,0 -13.64449,-22.375767 -40.113281,-21.830078 C 20.76034,21.824002 4.140625,61.855469 4.140625,61.855469 H 47.527344 L 41.523438,86.142578 H 6.8691406 c 0,0 14.4617964,37.109372 44.2050784,37.109372 33.836386,-0.2728 42.023437,-19.91797 42.023437,-19.91797 l 205.882814,-0.67187 c 9.81658,14.41625 24.33965,20.89387 43.52344,23.14258 24.56208,0 45.17631,-16.87575 50.90039,-39.662112 h -52.47852 l 8.08203,-25.541016 h 44.42383 C 387.74661,37.759214 367.10571,20.830078 342.50391,20.830078 Z m -233.84375,28.5 h 13.10156 l -0.13086,8.845703 h -10.74414 c -0.78618,0 -1.24397,0.326233 -1.375,1.046875 l -1.76953,8.648438 c -0.19655,0.982866 0.26142,1.24414 1.24414,1.24414 h 5.96289 c 3.01367,0 4.45504,1.311783 3.73437,4.84961 l -3.14453,15.658203 c -1.04823,5.241146 -3.27712,7.205078 -8.71484,7.205078 H 95.097656 l 0.06641,-8.84375 h 10.218744 c 0.85169,0 1.17951,-0.261742 1.31055,-0.982422 l 1.70312,-8.648437 c 0.26207,-1.310438 -0.13111,-1.375 -1.4414,-1.375 h -4.91211 c -2.817136,0 -5.176971,-0.656008 -4.259763,-5.373047 l 3.210933,-16.117188 c 0.78618,-3.734324 3.21102,-6.158203 7.66602,-6.158203 z m 19.45312,0 h 17.5586 l 0.58984,8.845703 h -6.35547 l -7.73047,38.652344 h -9.69531 l 7.73047,-38.652344 h -6.35547 z m 22.49414,0 h 18.01563 c 4.455,0 5.96196,2.423879 5.17578,6.158203 l -4.38867,22.013672 c -0.39309,2.096466 -2.35971,4.193359 -5.11133,4.193359 l 1.96679,15.132813 h -9.82812 l -1.57227,-15.132813 h -1.24414 l -3.01367,15.132813 h -9.5 z m 35.29492,0 h 10.1543 l -0.91797,47.498047 h -9.56445 l 0.32812,-5.896484 h -6.48632 l -2.03125,5.896484 h -9.56446 z m 18.60352,0 h 17.55664 l 0.58984,8.845703 h -6.35546 l -7.73047,38.652344 h -9.69532 l 7.73047,-38.652344 h -6.35547 z m 22.49219,0 h 18.47461 l -0.13086,8.845703 h -10.35157 l -2.22656,11.267578 h 7.86133 l -1.63672,8.189453 H 231.125 l -2.0957,10.351563 h 9.95898 l -3.4082,8.84375 h -18.08203 z m 29.05078,0 h 13.5625 l -0.13281,8.845703 H 259.0625 c -0.65515,0 -0.91779,0.32641 -1.04883,0.916016 l -5.63281,28.171875 c -0.13103,0.589531 -8.5e-4,0.917969 0.6543,0.917969 h 4.32422 l 3.79882,-18.738282 h 9.23828 l -5.5039,27.384766 h -16.57422 c -5.43772,0 -7.01113,-2.094754 -5.96289,-7.335937 l 6.87891,-34.396485 c 0.72065,-3.472252 3.08011,-5.765625 6.81445,-5.765625 z m 17.75195,0 h 9.82617 l -0.19531,22.40625 8.77734,-22.40625 h 9.82813 l -16.18164,35.44336 -2.42383,12.054687 h -10.02539 l 2.42578,-12.054687 z m -115.33203,8.320313 -3.27539,16.378906 h 4.65039 c 0.72067,0 0.9187,-0.261779 1.11523,-0.982422 l 2.88282,-14.412109 c 0.0655,-0.589644 -0.0656,-0.984375 -0.72071,-0.984375 z m 29.07031,8.910156 -5.56836,16.837891 h 4.39063 z"
       transform="matrix(0.26458333,0,0,0.26458333,0,257.31248)"
       id="path830" />
  </g>
</svg>
