<?xml version="1.0" encoding="UTF-8" standalone="no"?>
<!-- Created with Inkscape (http://www.inkscape.org/) -->

<svg
   xmlns:dc="http://purl.org/dc/elements/1.1/"
   xmlns:cc="http://creativecommons.org/ns#"
   xmlns:rdf="http://www.w3.org/1999/02/22-rdf-syntax-ns#"
   xmlns:svg="http://www.w3.org/2000/svg"
   xmlns="http://www.w3.org/2000/svg"
   xmlns:sodipodi="http://sodipodi.sourceforge.net/DTD/sodipodi-0.dtd"
   xmlns:inkscape="http://www.inkscape.org/namespaces/inkscape"
   version="1.1"
   id="svg2"
   width="611.02307"
   height="299.14432"
   viewBox="0 0 611.02307 299.14432"
   sodipodi:docname="supergrafx.svg"
   inkscape:version="0.92.3 (unknown)">
  <metadata
     id="metadata8">
    <rdf:RDF>
      <cc:Work
         rdf:about="">
        <dc:format>image/svg+xml</dc:format>
        <dc:type
           rdf:resource="http://purl.org/dc/dcmitype/StillImage" />
        <dc:title></dc:title>
      </cc:Work>
    </rdf:RDF>
  </metadata>
  <defs
     id="defs6" />
  <sodipodi:namedview
     pagecolor="#ffffff"
     bordercolor="#666666"
     borderopacity="1"
     objecttolerance="10"
     gridtolerance="10"
     guidetolerance="10"
     inkscape:pageopacity="0"
     inkscape:pageshadow="2"
     inkscape:window-width="1920"
     inkscape:window-height="1031"
     id="namedview4"
     showgrid="false"
     inkscape:pagecheckerboard="true"
     fit-margin-top="0"
     fit-margin-left="0"
     fit-margin-right="0"
     fit-margin-bottom="0"
     inkscape:zoom="0.944"
     inkscape:cx="251.67892"
     inkscape:cy="187.5498"
     inkscape:window-x="0"
     inkscape:window-y="0"
     inkscape:window-maximized="1"
     inkscape:current-layer="svg2" />
  <path
     style="fill:#ffffff;fill-opacity:1;stroke:none"
     d="m 91.59093,297.57915 c -8.08122,-2.89403 -8.0526,-2.79958 -8.39629,-27.71116 -0.20236,-14.66757 0.0704,-23.04079 0.80872,-24.82315 0.61274,-1.47929 2.83642,-3.65763 4.94151,-4.84076 3.7122,-2.08637 4.86961,-2.15114 38.44128,-2.15114 H 162 v 5 5 H 129.5 97 v 20 20 h 25.5 25.5 v -6.96922 -6.96922 l -12.25,-0.28078 -12.25,-0.28078 -0.30226,-5.25 -0.30226,-5.25 h 19.57533 19.57534 l -0.27308,17.75 -0.27307,17.75 -33,0.21306 c -26.17916,0.16902 -33.80797,-0.0763 -36.90907,-1.18685 z M 176,268.55294 v -30.5 h 33.09887 c 36.42331,0 38.45248,0.29793 41.44518,6.08519 2.08183,4.02581 2.00821,20.68134 -0.10475,23.69802 -2.28845,3.26721 -6.6091,5.16068 -13.39428,5.86987 l -6.00514,0.62766 8.17543,9.10963 c 4.49649,5.0103 9.52579,10.57213 11.17623,12.35963 l 3.00079,3.25 h -8.54923 -8.54924 L 225.39693,286.62122 214.5,274.1895 201.75,274.12122 189,274.05294 v 12.5 12.5 h -6.5 -6.5 z m 62.37649,-13 0.12351,-7 H 214 189.5 l -0.30402,5.88803 c -0.16721,3.23841 -0.0658,6.50894 0.22546,7.26783 0.43392,1.13078 4.88822,1.33147 24.68051,1.11197 l 24.15102,-0.26783 z M 261,298.05736 c 0,-0.54756 6.63395,-14.27256 14.74212,-30.5 l 14.74211,-29.50442 14.00789,0.002 14.00788,0.002 14.5,29.62681 c 7.975,16.29475 14.65,30.01886 14.83333,30.49804 0.18334,0.47918 -3.20698,0.87123 -7.53404,0.87123 h -7.86738 l -12.13483,-25 -12.13483,-25 -3.83112,0.009 -3.83113,0.009 -12.16947,24.99123 -12.16947,24.99069 h -7.58053 c -4.36456,0 -7.58053,-0.42236 -7.58053,-0.99558 z m 95,-29.45873 v -30.54569 h 36 36 v 5 5 h -29 -29 v 7.5 7.5 h 25 25 v 5.5 5.5 h -24.96922 -24.96922 l -0.28078,12.25 -0.28078,12.25 -6.75,0.29569 -6.75,0.29569 z m 93.26172,14.69294 C 457.91777,274.62281 465,267.09114 465,266.55451 c 0,-0.53663 -6.18147,-7.16901 -13.7366,-14.73863 l -13.73661,-13.76294 h 10.00746 10.00745 l 8.9583,9 c 4.92707,4.95 9.42707,9 10,9 0.57293,0 5.07293,-4.05 10,-9 l 8.9583,-9 h 10.01646 10.01647 l -14.24229,14.24229 -14.24229,14.24229 16.23531,16.25771 16.23531,16.25771 -9.98864,-0.0283 -9.98863,-0.0283 -11.5,-10.84872 -11.5,-10.84873 -11.6296,10.87705 -11.6296,10.87705 h -9.85868 -9.85868 z M 13.81055,201.20223 0,185.85152 V 167.45223 149.05294 H 19.5 39 v 13.5 13.5 h 16.01688 16.01688 l -0.26688,-25.75 L 70.5,124.55294 67.25,124.23958 64,123.92622 V 104.98958 86.05294 h 10.41702 10.41702 l 14.07767,14.75 14.07768,14.75 0.005,34.35394 0.005,34.35393 -13.67885,15.64607 c -7.52337,8.60533 -13.75615,15.76634 -13.85062,15.91335 -0.0945,0.14701 -13.14925,0.37201 -29.0106,0.5 l -28.83821,0.23271 z M 143.75,201.33552 128,185.5302 V 92.79157 0.05294 h 21 21 v 88.5 88.5 h 5.5 5.5 v 19.83002 19.83002 l -10.75,0.21393 -10.75,0.21392 z M 193,196.92619 v -19.87325 h 5.5 5.5 v -88.5 -88.5 h 20.5 20.5 l -0.043,92.75 -0.043,92.75 -14.707,15.26601 -14.70701,15.26602 -11.25,0.35724 -11.25,0.35724 V 196.92619 Z M 259.99975,108.30294 260,0.05294 h 20.5 20.5 l -0.003,108.25 -0.003,108.25 h -20.49687 -20.49686 l 2.5e-4,-108.25 z m 127.99985,0 4e-4,-108.25 h 46 46 v 20.5 20.5 H 454.5 429 v 67.5 67.5 h 25.5 25.5 l -8.1e-4,20.25 -8.1e-4,20.25 H 433.99879 387.9992 Z m 107.00014,0 L 495,0.05294 h 21.00446 21.00447 l -0.25447,107.97504 -0.25446,107.97505 -20.75026,0.27495 -20.75026,0.27496 z m 73.97961,107.75 c -0.0111,-0.275 -0.002,-19.7375 0.0203,-43.25 l 0.0404,-42.75 h -11.02004 -11.02003 v -20.5 -20.5 h 11 11 v -24 -24 h -11.02071 -11.0207 l 0.2707,-20.25 0.27071,-20.25 L 563.4621,0.27647 579.42422,0 595.2121,15.76475 610.99998,31.5295 v 25.12242 25.12243 l -13.10289,13.77279 -13.10289,13.77279 13.11443,13.14147 13.11443,13.14148 -0.26154,40.20024 -0.26154,40.20024 -20.75026,0.27479 c -11.41262,0.15113 -20.7593,0.0498 -20.77037,-0.22521 z M 313,122.55294 v -20.5 h 9 9 v -30.5 -30.5 h -9 -9 v -20.5 -20.5 h 14.7621 14.7621 L 357.7621,15.31467 373,30.5764 v 41.43304 41.43304 l -15.25,14.75482 -15.25,14.75483 -14.75,0.0504 -14.75,0.0504 z M 14.25,109.11025 0,94.23887 V 63.31119 32.38351 L 14.25,16.22005 28.5,0.05659 56.71396,0.05459 84.92793,0.05259 98.96396,15.6533 113,31.25401 V 49.1533 67.05259 l -17.25,0.0136 c -9.4875,0.008 -18.2625,0.285 -19.5,0.61664 L 74,68.2858 V 54.66917 41.05254 H 58 42 v 22 22 h 5 5 v 19.5 19.5 l -11.75,-0.0357 -11.75,-0.0356 -14.25,-14.87138 z m 426.97929,-6.30731 0.27071,-20.25 h 15 15 l 0.27071,20.25 0.2707,20.25 H 456.5 440.95859 Z"
     id="path819"
     inkscape:connector-curvature="0"
     sodipodi:nodetypes="csccscccccccccccccccccccscccsccscscccccccccccccccccscsccsscccscscccccccsscccccccccccccccccccccssscccssscccccccccccccccsccccccccccccccccccccccscsccccccccccccccccccccccccccccccccccccccccccccccccccccccccccccccccccccccccccccccccccccccccccccccccscccccccccccccccccccccccccccccccccccccccccccccccccccccccccccc" />
</svg>
