<?xml version="1.0" encoding="UTF-8" standalone="no"?>
<svg
   xmlns:dc="http://purl.org/dc/elements/1.1/"
   xmlns:cc="http://creativecommons.org/ns#"
   xmlns:rdf="http://www.w3.org/1999/02/22-rdf-syntax-ns#"
   xmlns:svg="http://www.w3.org/2000/svg"
   xmlns="http://www.w3.org/2000/svg"
   xmlns:sodipodi="http://sodipodi.sourceforge.net/DTD/sodipodi-0.dtd"
   xmlns:inkscape="http://www.inkscape.org/namespaces/inkscape"
   inkscape:version="1.0 (4035a4fb49, 2020-05-01)"
   sodipodi:docname="tg-cd.svg"
   id="svg64"
   xml:space="preserve"
   enable-background="new -7.371 -3.275 580 130"
   viewBox="-7.371 -3.275 576.927 131.784"
   height="131.784"
   width="576.927"
   y="0px"
   x="0px"
   version="1.1"><metadata
   id="metadata70"><rdf:RDF><cc:Work
       rdf:about=""><dc:format>image/svg+xml</dc:format><dc:type
         rdf:resource="http://purl.org/dc/dcmitype/StillImage" /><dc:title></dc:title></cc:Work></rdf:RDF></metadata><defs
   id="defs68" /><sodipodi:namedview
   lock-margins="true"
   inkscape:document-rotation="0"
   inkscape:guide-bbox="true"
   showguides="true"
   inkscape:snap-bbox-midpoints="true"
   inkscape:snap-bbox-edge-midpoints="true"
   inkscape:bbox-nodes="true"
   inkscape:bbox-paths="true"
   inkscape:snap-bbox="true"
   inkscape:current-layer="g59"
   inkscape:window-maximized="1"
   inkscape:window-y="-8"
   inkscape:window-x="-8"
   inkscape:cy="66.310934"
   inkscape:cx="132.42147"
   inkscape:zoom="1.3313114"
   fit-margin-bottom="5"
   fit-margin-right="5"
   fit-margin-left="5"
   fit-margin-top="5"
   inkscape:pagecheckerboard="true"
   showgrid="false"
   id="namedview66"
   inkscape:window-height="1017"
   inkscape:window-width="1920"
   inkscape:pageshadow="2"
   inkscape:pageopacity="0"
   guidetolerance="10"
   gridtolerance="10"
   objecttolerance="10"
   borderopacity="1"
   bordercolor="#666666"
   pagecolor="#ffffff" />
<g
   transform="translate(-2.371,1.725)"
   style="display:none"
   id="Layer_2">
	<g
   style="opacity:0.5"
   id="g30">
		<polygon
   id="polygon2"
   points="6.929,10.765 -3,10.765 -3,2.5 25.081,2.5 25.081,10.765 16.862,10.765 16.862,122.925 6.929,122.925 " />
		<path
   inkscape:connector-curvature="0"
   id="path4"
   d="M 50.519,114.716 H 61.48 V 36.134 h 9.587 v 78.582 c 0,5.085 -4.622,8.688 -9.36,8.688 H 50.519 c -5.007,0 -9.474,-4.075 -9.474,-8.791 V 36.134 h 9.474 z" />
		<path
   inkscape:connector-curvature="0"
   id="path6"
   d="m 256.674,55.327 h 14.642 v 68.154 h -20.632 c -4.412,0 -9.846,-3.377 -9.846,-8.5 V 11.957 c 0,-4.328 4.535,-8.937 9.629,-8.937 h 11.259 c 4.994,0 9.525,4.566 9.525,8.836 v 24.406 h -9.868 V 12.196 H 250.17 v 102.861 h 11.472 v -51.39 h -4.968 z" />
		<path
   inkscape:connector-curvature="0"
   id="path8"
   d="m 398.255,81.654 v 41.31 h -9.244 V 43.845 c 0,-3.574 3.552,-7.468 8.047,-7.468 h 15.24 v 7.626 h -14.043 v 29.232 h 11.56 v 8.457 z" />
		<path
   inkscape:connector-curvature="0"
   id="path10"
   d="m 431.045,36.399 h 9.703 v 31.512 l 5.479,5.509 5.363,-5.356 V 36.399 h 9.586 V 66.38 c 0,3.661 -9.47,13.306 -9.47,13.306 0,0 9.586,9.64 9.586,13.547 v 29.904 h -9.017 V 92.004 l -5.822,-5.887 -5.821,5.81 v 31.213 h -9.587 V 93.306 c 0,-3.669 10.155,-13.695 10.155,-13.695 0,0 -10.155,-9.537 -10.155,-13.381 z" />
		<path
   inkscape:connector-curvature="0"
   id="path12"
   d="m 112.616,81.849 c 3.253,0 7.578,-3.888 7.578,-9.092 V 44.319 c 0,-4.092 -4.667,-7.901 -9.975,-7.901 H 90.528 v 86.894 h 9.076 V 82.488 h 3.425 l 10.101,40.67 h 8.904 z M 110.82,73.353 H 99.946 V 44.837 h 10.874 z" />
		<path
   inkscape:connector-curvature="0"
   id="path14"
   d="m 313.457,81.622 c 3.254,0 7.581,-3.895 7.581,-9.096 V 44.09 c 0,-4.091 -4.67,-7.905 -9.976,-7.905 h -19.689 v 86.9 h 9.068 v -40.83 h 3.429 l 10.104,40.669 h 8.901 z m -1.928,-8.594 H 300.662 V 44.515 h 10.867 z" />
		<path
   inkscape:connector-curvature="0"
   id="path16"
   d="m 168.712,83.897 c -0.042,-3.894 -4.107,-6.357 -4.107,-6.357 0,0 4.107,-2.658 4.107,-6.354 V 44.66 c 0,-5.007 -4.408,-8.265 -8.901,-8.265 h -20.719 v 86.744 h 20.719 c 4.195,0 8.901,-2.621 8.901,-8.262 0,0.001 0.046,-27.09 0,-30.98 z m -9.331,30.743 H 148.51 V 82.308 h 10.871 z m 0,-41.308 H 148.51 V 44.817 h 10.871 z" />
		<path
   inkscape:connector-curvature="0"
   id="path18"
   d="m 208.392,35.755 h -5.479 -5.308 c -5.437,0 -9.396,4.648 -9.396,8.184 v 70.446 c 0,4.554 5.072,8.683 9.354,8.683 h 11.728 c 4.58,0 9.16,-4.729 9.16,-8.5 V 43.699 c 0,-3.177 -4.325,-7.944 -10.059,-7.944 z m 0.342,78.359 H 198.232 V 44.336 h 10.502 z" />
		<path
   inkscape:connector-curvature="0"
   id="path20"
   d="m 360.691,36.376 h -11.979 c -5.396,0 -8.563,4.447 -8.563,7.943 v 78.645 h 9.074 v -41.31 h 11.47 v 41.31 h 9.075 V 44.795 c -10e-4,-5.189 -3.591,-8.419 -9.077,-8.419 z m -0.259,36.7 h -10.867 v -27.96 h 10.867 z" />
		<g
   id="g28">
			<g
   id="g26">
				<rect
   id="rect22"
   height="10.479"
   width="28.094"
   y="82.442001"
   x="515.90198" />
				<path
   inkscape:connector-curvature="0"
   id="path24"
   d="m 519.37,35.173 c -24.607,0 -44.551,19.946 -44.551,44.553 0,24.607 19.942,44.558 44.551,44.558 24.606,0 44.557,-19.949 44.557,-44.558 C 563.926,55.12 543.977,35.173 519.37,35.173 Z m -15.163,62.86 h -14.128 v -4.949 h 4.554 V 66.938 h -4.47 v -5.113 h 9.58 V 93 h 4.464 z m 44.66,-26.709 h -4.541 v -4.548 h -28.67 v 10.88 h 30.617 l 2.594,2.601 v 14.374 l -3.247,3.247 h -31.341 l -3.248,-3.247 v -29.64 l 3.008,-3.006 h 32.072 l 2.756,2.76 z" />
			</g>
		</g>
	</g>
</g>
<g
   transform="translate(-2.371,1.725)"
   style="fill:#fffff8;fill-opacity:1"
   id="Ebene_1">
	<g
   style="fill:#fffff8;fill-opacity:1"
   id="g61">
		<polygon
   style="fill:#fffff8;fill-opacity:1"
   id="polygon33"
   points="19.862,8.264 19.862,120.425 9.929,120.425 9.929,8.264 0,8.264 0,0 28.081,0 28.081,8.264 " />
		<path
   style="fill:#fffff8;fill-opacity:1"
   inkscape:connector-curvature="0"
   id="path35"
   d="M 53.519,112.216 H 64.48 V 33.634 h 9.587 v 78.582 c 0,5.085 -4.622,8.688 -9.36,8.688 H 53.519 c -5.007,0 -9.474,-4.075 -9.474,-8.791 V 33.634 h 9.474 z" />
		<path
   style="fill:#fffff8;fill-opacity:1"
   inkscape:connector-curvature="0"
   id="path37"
   d="m 259.674,52.827 h 14.642 v 68.154 h -20.632 c -4.412,0 -9.846,-3.377 -9.846,-8.5 V 9.457 c 0,-4.328 4.535,-8.937 9.629,-8.937 h 11.259 c 4.994,0 9.525,4.567 9.525,8.836 v 24.407 h -9.868 V 9.696 H 253.17 v 102.861 h 11.472 v -51.39 h -4.968 z" />
		<path
   style="fill:#fffff8;fill-opacity:1"
   inkscape:connector-curvature="0"
   id="path39"
   d="m 401.255,79.154 v 41.31 h -9.244 V 41.345 c 0,-3.574 3.552,-7.468 8.047,-7.468 h 15.24 v 7.626 h -14.043 v 29.232 h 11.56 v 8.457 z" />
		<path
   style="fill:#fffff8;fill-opacity:1"
   inkscape:connector-curvature="0"
   id="path41"
   d="m 434.045,33.899 h 9.703 v 31.512 l 5.479,5.509 5.363,-5.356 V 33.899 h 9.586 v 29.982 c 0,3.661 -9.47,13.306 -9.47,13.306 0,0 9.586,9.64 9.586,13.547 v 29.904 h -9.017 V 89.504 l -5.822,-5.887 -5.821,5.81 v 31.213 h -9.587 V 90.806 c 0,-3.669 10.155,-13.695 10.155,-13.695 0,0 -10.155,-9.537 -10.155,-13.381 z" />
		<path
   style="fill:#fffff8;fill-opacity:1"
   inkscape:connector-curvature="0"
   id="path43"
   d="m 115.616,79.349 c 3.253,0 7.578,-3.888 7.578,-9.092 V 41.82 c 0,-4.092 -4.667,-7.902 -9.975,-7.902 H 93.528 v 86.894 h 9.076 V 79.988 h 3.425 l 10.101,40.67 h 8.904 z M 113.82,70.853 H 102.946 V 42.337 h 10.874 z" />
		<path
   style="fill:#fffff8;fill-opacity:1"
   inkscape:connector-curvature="0"
   id="path45"
   d="m 316.457,79.122 c 3.254,0 7.581,-3.895 7.581,-9.096 V 41.59 c 0,-4.091 -4.67,-7.905 -9.976,-7.905 h -19.689 v 86.9 h 9.068 v -40.83 h 3.429 l 10.104,40.669 h 8.901 z m -1.928,-8.594 H 303.662 V 42.014 h 10.867 z" />
		<path
   style="fill:#fffff8;fill-opacity:1"
   inkscape:connector-curvature="0"
   id="path47"
   d="m 171.712,81.397 c -0.042,-3.894 -4.107,-6.357 -4.107,-6.357 0,0 4.107,-2.658 4.107,-6.354 V 42.16 c 0,-5.007 -4.408,-8.264 -8.901,-8.264 h -20.719 v 86.744 h 20.719 c 4.195,0 8.901,-2.621 8.901,-8.262 0,0 0.046,-27.091 0,-30.981 z m -9.331,30.743 H 151.51 V 79.808 h 10.871 z m 0,-41.308 H 151.51 V 42.318 h 10.871 z" />
		<path
   style="fill:#fffff8;fill-opacity:1"
   inkscape:connector-curvature="0"
   id="path49"
   d="m 211.392,33.255 h -5.479 -5.308 c -5.437,0 -9.396,4.648 -9.396,8.183 v 70.447 c 0,4.554 5.072,8.683 9.354,8.683 h 11.728 c 4.58,0 9.16,-4.729 9.16,-8.5 V 41.199 c 0,-3.176 -4.325,-7.944 -10.059,-7.944 z m 0.342,78.359 H 201.232 V 41.836 h 10.502 z" />
		<path
   style="fill:#fffff8;fill-opacity:1"
   inkscape:connector-curvature="0"
   id="path51"
   d="m 363.691,33.876 h -11.979 c -5.396,0 -8.563,4.447 -8.563,7.944 v 78.644 h 9.074 v -41.31 h 11.47 v 41.31 h 9.075 V 42.295 c -10e-4,-5.188 -3.591,-8.419 -9.077,-8.419 z m -0.259,36.7 h -10.867 v -27.96 h 10.867 z" />
		<g
   style="fill:#fffff8;fill-opacity:1"
   id="g59">
			
		<g
   style="display:inline;fill:#ffffff;fill-opacity:1;stroke:none"
   id="g58"
   transform="translate(31.011716,-104.23607)"><g
     style="display:inline;fill:#ffffff;fill-opacity:1;stroke:none"
     id="g56"><path
       style="display:inline;fill:#ffffff;fill-opacity:1;stroke:none;stroke-width:0.85909"
       inkscape:connector-curvature="0"
       id="path54"
       d="m 491.3617,136.90906 c -24.60746,0 -44.55442,19.9483 -44.55442,44.55551 0,24.60806 19.94782,44.5555 44.55442,44.5555 24.60663,0 44.55359,-19.9483 44.55359,-44.5555 0,-24.60635 -19.94696,-44.55551 -44.55359,-44.55551 z m -2.22845,33.41727 h -4.45605 v -2.22937 l -2.22759,-2.22678 h -17.82245 v 33.41556 h 17.82245 l 2.22759,-2.22679 v -2.2285 h 4.45605 v 4.45529 l -4.45605,4.45701 h -22.27677 l -2.22845,-2.22851 v -37.87171 l 2.22845,-2.2285 h 22.27677 l 4.45605,4.45701 z m 33.41563,28.95941 -4.45433,4.45701 h -24.5061 v -4.45701 h 2.22931 v -33.41556 h -2.22931 v -4.45701 h 24.5061 l 4.45433,4.45701 z m -22.27679,0 h 17.82246 v -33.41556 h -17.82246 z" /></g></g></g>
	</g>
</g>
</svg>
