<?xml version="1.0" encoding="UTF-8" standalone="no"?>
<!-- Generator: Adobe Illustrator 13.0.0, SVG Export Plug-In . SVG Version: 6.00 Build 14948)  -->

<svg
   xmlns:dc="http://purl.org/dc/elements/1.1/"
   xmlns:cc="http://creativecommons.org/ns#"
   xmlns:rdf="http://www.w3.org/1999/02/22-rdf-syntax-ns#"
   xmlns:svg="http://www.w3.org/2000/svg"
   xmlns="http://www.w3.org/2000/svg"
   xmlns:sodipodi="http://sodipodi.sourceforge.net/DTD/sodipodi-0.dtd"
   xmlns:inkscape="http://www.inkscape.org/namespaces/inkscape"
   version="1.1"
   id="Layer_1"
   x="0px"
   y="0px"
   width="1839.6071"
   height="319.77899"
   viewBox="0 0 1839.6071 319.77899"
   enable-background="new 0 0 1894 384"
   xml:space="preserve"
   sodipodi:docname="trs-80.svg"
   inkscape:version="0.92.2 (unknown)"><metadata
     id="metadata114"><rdf:RDF><cc:Work
         rdf:about=""><dc:format>image/svg+xml</dc:format><dc:type
           rdf:resource="http://purl.org/dc/dcmitype/StillImage" /><dc:title></dc:title></cc:Work></rdf:RDF></metadata><defs
     id="defs112" /><sodipodi:namedview
     pagecolor="#ffffff"
     bordercolor="#666666"
     borderopacity="1"
     objecttolerance="10"
     gridtolerance="10"
     guidetolerance="10"
     inkscape:pageopacity="0"
     inkscape:pageshadow="2"
     inkscape:window-width="1920"
     inkscape:window-height="1031"
     id="namedview110"
     showgrid="false"
     inkscape:pagecheckerboard="true"
     fit-margin-top="0"
     fit-margin-left="0"
     fit-margin-right="0"
     fit-margin-bottom="0"
     inkscape:zoom="0.40768775"
     inkscape:cx="1119.4623"
     inkscape:cy="194.19034"
     inkscape:window-x="0"
     inkscape:window-y="0"
     inkscape:window-maximized="1"
     inkscape:current-layer="g104" /><g
     id="Layer_1_1_"
     style="display:inline"
     transform="translate(-29,-30)" /><g
     id="Layer_2"
     transform="translate(-29,-30)"><g
       id="g106"
       style="display:inline"><g
         id="g14"
         style="display:inline;fill:none;stroke:#ffffff;stroke-opacity:1"><g
           id="g10"
           style="fill:none;stroke:#ffffff;stroke-opacity:1"><linearGradient
             id="SVGID_1_"
             gradientUnits="userSpaceOnUse"
             x1="948.80573"
             y1="43.097698"
             x2="948.80573"
             y2="337.08301"><stop
               offset="0.0045"
               style="stop-color:#E2E3E4"
               id="stop3" /><stop
               offset="1"
               style="stop-color:#B3B5B8"
               id="stop5" /></linearGradient><rect
             x="36.907001"
             y="37.907001"
             width="1823.796"
             height="303.966"
             id="rect8"
             style="fill:none;stroke:#ffffff;stroke-opacity:1" /></g><path
           d="M 29.5,349.279 V 30.5 h 1838.607 v 311.372 7.407 z m 1831.203,-7.407 v -7.405 z M 44.312,334.467 H 1853.296 V 45.313 H 44.312 Z"
           id="path12"
           inkscape:connector-curvature="0"
           style="fill:none;stroke:#ffffff;stroke-opacity:1" /></g><g
         id="g44"
         style="display:inline"><g
           id="g20"><g
             id="g18"><path
               d="m 697.277,190.185 c -7.363,0 -13.332,5.969 -13.332,13.333 0,7.362 5.969,13.332 13.332,13.332 7.361,0 13.332,-5.97 13.332,-13.332 0,-7.364 -5.969,-13.333 -13.332,-13.333 z m -463.948,0 c -7.362,0 -13.332,5.969 -13.332,13.333 0,7.362 5.97,13.332 13.332,13.332 7.363,0 13.333,-5.97 13.333,-13.332 0,-7.364 -5.97,-13.333 -13.333,-13.333 z m 77.325,13.333 c 0,7.362 5.969,13.332 13.332,13.332 7.362,0 13.332,-5.97 13.332,-13.332 0,-7.363 -5.97,-13.333 -13.332,-13.333 -7.363,0 -13.332,5.969 -13.332,13.333 z m 135.985,-13.333 c -7.362,0 -13.332,5.969 -13.332,13.333 0,7.362 5.97,13.332 13.332,13.332 7.363,0 13.332,-5.97 13.332,-13.332 0,-7.364 -5.97,-13.333 -13.332,-13.333 z M 914.438,62.199 H 85.493 c -14.071,0 -25.479,11.407 -25.479,25.479 V 287.36 c 0,14.07 11.408,25.479 25.479,25.479 h 828.944 c 14.071,0 25.479,-11.406 25.479,-25.479 V 87.678 C 939.917,73.606 928.51,62.199 914.438,62.199 Z M 172.002,232.848 156.003,206.184 v 26.664 H 124.006 V 131.524 h 47.995 c 15.998,0 31.997,10.666 31.997,31.997 0,21.331 -15.999,26.664 -21.331,26.664 l 26.664,42.663 z m 53.328,0 c -10.665,0 -21.331,-10.666 -21.331,-26.664 0,-18.175 15.998,-21.332 21.331,-21.263 1.944,0.026 9.087,-0.069 10.666,-0.069 10.666,0 5.333,-10.666 0,-10.666 -5.333,0 -21.331,0 -21.331,0 v -21.331 h 42.662 c 10.666,0 14.665,10.666 14.665,21.331 0,10.666 1.333,58.66 1.333,58.66 H 225.33 Z m 138.65,0 c 0,0 -21.33,0 -42.661,0 -31.997,0 -37.329,-26.664 -37.329,-42.663 0,-9.809 5.332,-37.329 37.329,-37.329 h 10.666 v -21.332 h 31.997 v 101.324 z m 37.331,0 h -26.664 v -79.992 h 26.664 z m 45.328,0 c -22.089,0 -39.996,-17.906 -39.996,-39.996 0,-22.088 17.906,-39.996 39.996,-39.996 22.09,0 39.995,17.906 39.995,39.996 0,22.087 -17.905,39.996 -39.995,39.996 z m 135.984,-69.327 c -10.665,0 -15.998,5.333 -15.998,15.998 0,10.665 0,5.333 0,21.331 0,21.332 -5.333,31.998 -47.995,31.998 0,-21.332 0,-31.998 0,-31.998 10.666,0 21.331,0 21.331,-15.998 0,-15.998 0,-15.998 0,-26.664 0,-10.666 5.333,-26.664 42.662,-26.664 0,10.666 0,31.997 0,31.997 z m 79.991,69.327 h -31.996 v -47.996 c 0,-5.333 -10.666,-5.333 -10.666,0 0,5.333 0,47.996 0,47.996 H 593.288 V 131.524 h 26.664 v 26.664 c 10.666,-10.666 42.662,-5.333 42.662,15.998 0,21.332 0,58.662 0,58.662 z m 26.664,0 c -10.666,0 -21.331,-10.666 -21.331,-26.664 0,-18.175 15.998,-21.332 21.331,-21.263 1.942,0.026 9.087,-0.069 10.666,-0.069 10.666,0 5.333,-10.666 0,-10.666 -5.333,0 -21.332,0 -21.332,0 v -21.331 h 42.662 c 10.666,0 14.665,10.666 14.665,21.331 0,10.666 1.332,58.66 1.332,58.66 h -47.993 z m 133.086,-35.66 -28.041,-0.027 c -2.259,-4.155 -6.661,-6.976 -11.722,-6.976 -7.362,0 -13.332,5.968 -13.332,13.332 0,7.364 5.969,13.332 13.332,13.332 5.137,0 9.596,-2.906 11.821,-7.164 l 24.47,-0.002 c -6.354,13.68 -20.216,23.164 -36.291,23.164 -22.09,0 -39.996,-17.906 -39.996,-39.994 0,-22.089 17.906,-39.997 39.996,-39.997 22.088,0 39.995,17.906 39.995,39.997 10e-4,1.463 -0.078,2.911 -0.232,4.335 z m 42.895,35.66 -10.666,-31.998 h -5.333 v 31.998 H 827.929 V 131.524 h 21.331 v 42.663 h 5.333 l 10.666,-15.998 h 26.664 l -15.999,26.664 21.332,47.995 z M 158.67,168.854 c -7.363,0 -13.332,5.969 -13.332,13.332 0,7.362 5.969,13.332 13.332,13.332 7.363,0 13.332,-5.969 13.332,-13.332 0,-7.363 -5.968,-13.332 -13.332,-13.332 z"
               id="path16"
               inkscape:connector-curvature="0"
               style="fill:#807f7f" /></g></g><rect
           x="1005.936"
           y="214.39999"
           width="239.976"
           height="53.327999"
           id="rect22"
           style="fill:#807f7f" /><rect
           x="1267.24"
           y="214.39999"
           width="239.974"
           height="53.327999"
           id="rect24"
           style="fill:#807f7f" /><rect
           x="1528.545"
           y="214.39999"
           width="239.97501"
           height="53.327999"
           id="rect26"
           style="fill:#807f7f" /><g
           id="g42"><g
             id="g38"><path
               d="m 1138.662,110.022 h 78.117 v 15.623 h -31.247 v 54.681 h -15.623 v -54.681 h -31.247 z"
               id="path28"
               inkscape:connector-curvature="0"
               style="fill:#807f7f" /><path
               d="m 1251.73,152.986 v 27.34 h -15.623 v -70.304 h 54.683 c 15.624,0 23.435,7.135 23.435,21.403 0,6.771 -1.119,11.745 -3.357,14.92 2.238,3.698 3.357,8.515 3.357,14.452 v 19.529 h -15.621 v -19.529 c 0,-5.207 -2.605,-7.812 -7.813,-7.812 z m 0,-15.623 h 46.871 v -11.718 h -46.871 z"
               id="path30"
               inkscape:connector-curvature="0"
               style="fill:#807f7f" /><path
               d="m 1429.225,152.986 v -11.718 h 26.99 v 11.718 z"
               id="path32"
               inkscape:connector-curvature="0"
               style="fill:#807f7f" /><path
               d="m 1551.415,125.646 h -62.024 v 11.718 h 39.06 c 15.623,0 23.434,7.161 23.434,21.48 0,14.322 -7.812,21.482 -23.434,21.482 h -31.246 c -13.229,0 -20.857,-5.207 -22.89,-15.623 h 61.946 v -11.718 h -39.058 c -15.625,0 -23.436,-7.056 -23.436,-21.17 0,-14.529 7.811,-21.794 23.436,-21.794 h 31.246 c 13.332,0.001 20.987,5.21 22.966,15.625 z m -77.101,39.058 c -0.366,-1.875 -0.547,-3.932 -0.547,-6.171 0,-5.52 1.196,-9.973 3.592,-13.358 3.75,5.209 10.363,7.812 19.844,7.812 h -7.813 v 11.718 z m 73.899,-19.53 c 2.446,-3.437 3.67,-7.993 3.67,-13.67 0,-2.083 -0.154,-4.036 -0.468,-5.859 h -15.154 v 11.718 h -7.812 c 9.425,0 16.014,2.605 19.764,7.811 z"
               id="path34"
               inkscape:connector-curvature="0"
               style="fill:#807f7f" /><path
               d="m 1564.496,156.892 v -23.435 c 0,-15.623 7.813,-23.435 23.436,-23.435 h 23.436 c 15.624,0 23.436,7.812 23.436,23.435 v 23.435 c 0,15.624 -7.812,23.435 -23.436,23.435 h -23.436 c -15.623,0 -23.436,-7.811 -23.436,-23.435 z m 46.87,7.812 c 5.207,0 7.813,-2.604 7.813,-7.812 v -23.435 c 0,-5.207 -2.604,-7.812 -7.813,-7.812 h -23.436 c -5.209,0 -7.812,2.604 -7.812,7.812 v 23.435 c 0,5.208 2.603,7.812 7.812,7.812 z"
               id="path36"
               inkscape:connector-curvature="0"
               style="fill:#807f7f" /></g><path
             d="m 1330.756,156.989 h 20.17 c 0,5.042 2.836,8.51 6.776,8.51 3.938,0 33.488,0 36.323,0 2.839,0 3.783,-2.049 3.783,-4.886 0,-2.836 1.26,-8.982 -4.412,-8.982 -5.673,0 -38.847,0 -44.362,0 -5.515,0 -18.438,-4.57 -18.438,-20.013 0,-15.443 10.084,-21.116 17.177,-21.116 7.093,0 47.116,0 53.576,0 6.461,0 12.449,2.994 12.449,19.541 -4.729,0 -19.066,0 -19.066,0 0,-3.625 -1.892,-6.184 -8.509,-6.184 -6.619,0 -23.721,0 -28.446,0 -4.729,0 -6.462,0.353 -6.462,7.759 0,7.406 4.255,6.814 7.406,6.814 3.151,0 37.271,0 44.992,0 7.721,0 14.969,7.841 14.969,19.975 0,12.133 -5.829,22.458 -18.276,22.458 -12.449,0 -47.117,0 -53.421,0 -6.304,0 -16.229,-3.075 -16.229,-23.876 z"
             id="path40"
             inkscape:connector-curvature="0"
             style="fill:#807f7f" /></g></g><g
         id="g74"
         style="display:inline"><g
           id="g50"><g
             id="g48"><path
               d="m 314.505,207.665 c 0,7.362 5.969,13.332 13.332,13.332 7.363,0 13.332,-5.97 13.332,-13.332 0,-7.363 -5.969,-13.332 -13.332,-13.332 -7.363,0 -13.332,5.969 -13.332,13.332 z M 450.49,194.333 c -7.363,0 -13.332,5.969 -13.332,13.332 0,7.362 5.969,13.332 13.332,13.332 7.363,0 13.332,-5.97 13.332,-13.332 0,-7.363 -5.968,-13.332 -13.332,-13.332 z m 250.638,0 c -7.363,0 -13.332,5.969 -13.332,13.332 0,7.362 5.969,13.332 13.332,13.332 7.363,0 13.332,-5.97 13.332,-13.332 0,-7.363 -5.969,-13.332 -13.332,-13.332 z M 162.522,173.002 c -7.363,0 -13.332,5.969 -13.332,13.332 0,7.361 5.969,13.332 13.332,13.332 7.363,0 13.332,-5.969 13.332,-13.332 0,-7.363 -5.969,-13.332 -13.332,-13.332 z m 74.658,21.331 c -7.363,0 -13.332,5.969 -13.332,13.332 0,7.362 5.969,13.332 13.332,13.332 7.363,0 13.332,-5.97 13.332,-13.332 0,-7.363 -5.969,-13.332 -13.332,-13.332 z M 918.29,66.347 H 89.345 c -14.071,0 -25.479,11.408 -25.479,25.479 v 199.681 c 0,14.071 11.407,25.479 25.479,25.479 H 918.29 c 14.071,0 25.479,-11.407 25.479,-25.479 V 91.826 C 943.77,77.754 932.361,66.347 918.29,66.347 Z M 175.854,236.994 159.856,210.331 v 26.663 H 127.859 V 135.672 h 47.994 c 15.999,0 31.997,10.666 31.997,31.997 0,21.331 -15.998,26.664 -21.331,26.664 l 26.664,42.662 z m 53.327,0 c -10.665,0 -21.331,-10.665 -21.331,-26.663 0,-18.174 15.999,-21.332 21.331,-21.262 1.944,0.025 9.087,-0.069 10.666,-0.069 10.666,0 5.333,-10.665 0,-10.665 -5.333,0 -21.331,0 -21.331,0 v -21.331 h 42.662 c 10.665,0 14.665,10.666 14.665,21.331 0,10.665 1.333,58.66 1.333,58.66 z m 138.651,0 c 0,0 -21.331,0 -42.661,0 -31.997,0 -37.33,-26.663 -37.33,-42.662 0,-9.808 5.333,-37.329 37.33,-37.329 h 10.665 v -21.331 h 31.996 z m 37.33,0 h -26.664 v -79.991 h 26.664 z m 45.328,0 c -22.089,0 -39.996,-17.906 -39.996,-39.995 0,-22.089 17.907,-39.996 39.996,-39.996 22.089,0 39.996,17.907 39.996,39.996 0,22.089 -17.907,39.995 -39.996,39.995 z m 135.985,-69.325 c -10.666,0 -15.999,5.333 -15.999,15.998 0,10.666 0,5.333 0,21.331 0,21.331 -5.333,31.996 -47.995,31.996 0,-21.331 0,-31.996 0,-31.996 10.666,0 21.332,0 21.332,-15.999 0,-15.998 0,-15.998 0,-26.664 0,-10.665 5.334,-26.664 42.662,-26.664 0,10.667 0,31.998 0,31.998 z m 79.991,69.325 H 634.469 V 189 c 0,-5.333 -10.666,-5.333 -10.666,0 0,5.333 0,47.995 0,47.995 H 597.14 V 135.672 h 26.664 v 26.664 c 10.666,-10.665 42.662,-5.333 42.662,15.999 0,21.332 0,58.659 0,58.659 z m 26.663,0 c -10.665,0 -21.331,-10.665 -21.331,-26.663 0,-18.174 15.999,-21.332 21.331,-21.262 1.943,0.025 9.087,-0.069 10.666,-0.069 10.666,0 5.333,-10.665 0,-10.665 -5.333,0 -21.331,0 -21.331,0 v -21.331 h 42.662 c 10.666,0 14.665,10.666 14.665,21.331 0,10.665 1.333,58.66 1.333,58.66 z m 133.086,-35.658 -28.041,-0.027 c -2.258,-4.156 -6.661,-6.977 -11.723,-6.977 -7.362,0 -13.332,5.969 -13.332,13.332 0,7.361 5.969,13.332 13.332,13.332 5.137,0 9.596,-2.906 11.822,-7.164 l 24.47,-0.002 c -6.355,13.679 -20.216,23.164 -36.292,23.164 -22.088,0 -39.995,-17.906 -39.995,-39.995 0,-22.089 17.907,-39.996 39.995,-39.996 22.089,0 39.996,17.907 39.996,39.996 10e-4,1.466 -0.077,2.913 -0.232,4.337 z m 42.895,35.658 -10.666,-31.996 h -5.333 v 31.996 H 831.78 V 135.672 h 21.331 v 42.663 h 5.333 l 10.666,-15.999 h 26.663 L 879.775,189 l 21.33,47.995 z"
               id="path46"
               inkscape:connector-curvature="0"
               style="fill:#e5e5e5" /></g></g><rect
           x="1009.787"
           y="218.548"
           width="239.97501"
           height="53.327999"
           id="rect52"
           style="fill:#e5e5e5" /><rect
           x="1271.092"
           y="218.548"
           width="239.97501"
           height="53.327999"
           id="rect54"
           style="fill:#e5e5e5" /><rect
           x="1532.396"
           y="218.548"
           width="239.97301"
           height="53.327999"
           id="rect56"
           style="fill:#e5e5e5" /><g
           id="g72"><g
             id="g68"><path
               d="m 1142.514,114.17 h 78.116 v 15.623 h -31.246 v 54.682 h -15.624 v -54.682 h -31.246 z"
               id="path58"
               inkscape:connector-curvature="0"
               style="fill:#e5e5e5" /><path
               d="m 1255.583,157.134 v 27.341 h -15.622 V 114.17 h 54.68 c 15.625,0 23.437,7.135 23.437,21.403 0,6.771 -1.12,11.744 -3.357,14.92 2.237,3.698 3.357,8.515 3.357,14.451 v 19.529 h -15.623 v -19.529 c 0,-5.207 -2.604,-7.812 -7.813,-7.812 h -39.058 v 0.002 z m 0,-15.623 h 46.87 v -11.718 h -46.87 z"
               id="path60"
               inkscape:connector-curvature="0"
               style="fill:#e5e5e5" /><path
               d="m 1433.076,157.134 v -11.717 h 26.988 v 11.717 z"
               id="path62"
               inkscape:connector-curvature="0"
               style="fill:#e5e5e5" /><path
               d="m 1555.266,129.793 h -62.023 v 11.718 h 39.06 c 15.623,0 23.436,7.161 23.436,21.482 0,14.322 -7.813,21.482 -23.436,21.482 h -31.247 c -13.229,0 -20.855,-5.207 -22.888,-15.624 h 61.944 v -11.717 h -39.058 c -15.624,0 -23.435,-7.056 -23.435,-21.169 0,-14.53 7.811,-21.794 23.435,-21.794 h 31.247 c 13.331,-0.001 20.986,5.207 22.965,15.622 z m -77.1,39.058 c -0.366,-1.875 -0.547,-3.931 -0.547,-6.17 0,-5.52 1.195,-9.973 3.593,-13.358 3.75,5.208 10.363,7.812 19.843,7.812 h -7.813 v 11.717 z m 73.898,-19.529 c 2.445,-3.438 3.67,-7.994 3.67,-13.67 0,-2.083 -0.155,-4.035 -0.469,-5.859 h -15.154 v 11.718 h -7.812 c 9.428,0 16.015,2.604 19.765,7.811 z"
               id="path64"
               inkscape:connector-curvature="0"
               style="fill:#e5e5e5" /><path
               d="m 1568.348,161.04 v -23.435 c 0,-15.624 7.813,-23.435 23.437,-23.435 h 23.437 c 15.623,0 23.434,7.811 23.434,23.435 v 23.435 c 0,15.623 -7.812,23.435 -23.434,23.435 h -23.437 c -15.625,0 -23.437,-7.812 -23.437,-23.435 z m 46.871,7.811 c 5.206,0 7.812,-2.603 7.812,-7.811 v -23.435 c 0,-5.208 -2.604,-7.812 -7.812,-7.812 h -23.436 c -5.209,0 -7.813,2.604 -7.813,7.812 v 23.435 c 0,5.208 2.604,7.811 7.813,7.811 z"
               id="path66"
               inkscape:connector-curvature="0"
               style="fill:#e5e5e5" /></g><path
             d="m 1334.605,161.137 h 20.172 c 0,5.042 2.836,8.509 6.774,8.509 3.94,0 33.489,0 36.325,0 2.837,0 3.782,-2.049 3.782,-4.886 0,-2.836 1.261,-8.981 -4.412,-8.981 -5.672,0 -38.846,0 -44.362,0 -5.516,0 -18.437,-4.57 -18.437,-20.013 0,-15.443 10.084,-21.116 17.177,-21.116 7.091,0 47.116,0 53.576,0 6.461,0 12.447,2.994 12.447,19.54 -4.727,0 -19.065,0 -19.065,0 0,-3.625 -1.892,-6.183 -8.509,-6.183 -6.618,0 -23.721,0 -28.447,0 -4.726,0 -6.46,0.353 -6.46,7.759 0,7.406 4.255,6.813 7.405,6.813 3.15,0 37.271,0 44.992,0 7.721,0 14.97,7.841 14.97,19.975 0,12.133 -5.83,22.458 -18.278,22.458 -12.449,0 -47.115,0 -53.42,0 -6.303,0 -16.23,-3.074 -16.23,-23.875 z"
             id="path70"
             inkscape:connector-curvature="0"
             style="fill:#e5e5e5" /></g></g><g
         id="g104"
         style="display:inline"><g
           id="g80"
           style="display:inline;fill:#ffffff;fill-opacity:1;stroke:none;stroke-opacity:1"><g
             id="g78"
             style="fill:#ffffff;fill-opacity:1;stroke:none;stroke-opacity:1"><path
               d="m 313.024,205.889 c 0,7.362 5.969,13.331 13.331,13.331 7.363,0 13.332,-5.969 13.332,-13.331 0,-7.363 -5.969,-13.332 -13.332,-13.332 -7.362,0 -13.331,5.968 -13.331,13.332 z m 386.622,-13.332 c -7.361,0 -13.332,5.969 -13.332,13.332 0,7.362 5.97,13.331 13.332,13.331 7.363,0 13.332,-5.969 13.332,-13.331 0.001,-7.364 -5.968,-13.332 -13.332,-13.332 z m -463.947,0 c -7.363,0 -13.332,5.969 -13.332,13.332 0,7.362 5.969,13.331 13.332,13.331 7.363,0 13.332,-5.969 13.332,-13.331 0,-7.364 -5.969,-13.332 -13.332,-13.332 z M 916.809,64.57 H 87.864 c -14.071,0 -25.479,11.408 -25.479,25.479 V 289.73 c 0,14.071 11.407,25.479 25.479,25.479 h 828.944 c 14.071,0 25.479,-11.406 25.479,-25.479 V 90.049 C 942.287,75.978 930.88,64.57 916.809,64.57 Z M 174.373,235.219 158.374,208.555 v 26.664 H 126.377 V 133.896 h 47.995 c 15.998,0 31.996,10.666 31.996,31.997 0,21.331 -15.998,26.664 -21.331,26.664 l 26.664,42.663 z m 53.327,0 c -10.666,0 -21.331,-10.666 -21.331,-26.664 0,-18.174 15.998,-21.331 21.331,-21.262 1.943,0.025 9.087,-0.069 10.666,-0.069 10.665,0 5.333,-10.666 0,-10.666 -5.333,0 -21.331,0 -21.331,0 v -21.332 h 42.662 c 10.666,0 14.665,10.666 14.665,21.332 0,10.666 1.333,58.661 1.333,58.661 z m 138.652,0 c 0,0 -21.332,0 -42.661,0 -31.998,0 -37.33,-26.664 -37.33,-42.662 0,-9.81 5.333,-37.331 37.33,-37.331 h 10.666 v -21.331 h 31.997 v 101.324 z m 37.329,0 h -26.664 v -79.992 h 26.664 z m 45.328,0 c -22.089,0 -39.996,-17.906 -39.996,-39.996 0,-22.089 17.907,-39.996 39.996,-39.996 22.089,0 39.996,17.907 39.996,39.996 0,22.09 -17.907,39.996 -39.996,39.996 z m 135.985,-69.326 c -10.666,0 -15.999,5.333 -15.999,15.999 0,10.665 0,5.333 0,21.331 0,21.331 -5.332,31.997 -47.994,31.997 0,-21.331 0,-31.997 0,-31.997 10.666,0 21.331,0 21.331,-15.998 0,-15.999 0,-15.999 0,-26.664 0,-10.665 5.333,-26.664 42.662,-26.664 0,10.665 0,31.996 0,31.996 z m 79.99,69.326 h -31.996 v -47.995 c 0,-5.333 -10.666,-5.333 -10.666,0 0,5.333 0,47.995 0,47.995 H 595.658 V 133.896 h 26.664 v 26.664 c 10.666,-10.665 42.662,-5.333 42.662,15.999 0,21.33 0,58.66 0,58.66 z m 26.664,0 c -10.666,0 -21.331,-10.666 -21.331,-26.664 0,-18.174 15.999,-21.331 21.331,-21.262 1.942,0.025 9.087,-0.069 10.666,-0.069 10.666,0 5.332,-10.666 0,-10.666 -5.334,0 -21.331,0 -21.331,0 v -21.332 h 42.661 c 10.666,0 14.666,10.666 14.666,21.332 0,10.666 1.332,58.661 1.332,58.661 z m 133.086,-35.658 -28.041,-0.028 c -2.258,-4.155 -6.661,-6.976 -11.723,-6.976 -7.362,0 -13.332,5.969 -13.332,13.332 0,7.362 5.97,13.331 13.332,13.331 5.138,0 9.597,-2.905 11.822,-7.163 l 24.47,-0.002 c -6.354,13.678 -20.216,23.164 -36.292,23.164 -22.089,0 -39.996,-17.906 -39.996,-39.996 0,-22.089 17.906,-39.996 39.996,-39.996 22.088,0 39.996,17.907 39.996,39.996 10e-4,1.465 -0.078,2.912 -0.232,4.338 z m 42.895,35.658 -10.666,-31.996 h -5.333 v 31.996 H 830.3 V 133.896 h 21.331 v 42.663 h 5.333 L 867.63,160.56 h 26.664 l -15.999,26.664 21.331,47.995 z M 161.041,171.225 c -7.363,0 -13.332,5.969 -13.332,13.332 0,7.363 5.969,13.332 13.332,13.332 7.362,0 13.332,-5.969 13.332,-13.332 0,-7.363 -5.97,-13.332 -13.332,-13.332 z m 287.968,21.332 c -7.362,0 -13.332,5.969 -13.332,13.332 0,7.362 5.97,13.331 13.332,13.331 7.363,0 13.332,-5.969 13.332,-13.331 0,-7.364 -5.969,-13.332 -13.332,-13.332 z"
               id="path76"
               inkscape:connector-curvature="0"
               style="fill:#ffffff;fill-opacity:1;stroke:none;stroke-opacity:1" /></g></g><rect
           x="1008.307"
           y="216.771"
           width="239.97501"
           height="53.327999"
           id="rect82"
           style="display:inline;fill:#ffffff;fill-opacity:1" /><rect
           x="1269.61"
           y="216.771"
           width="239.974"
           height="53.327999"
           id="rect84"
           style="display:inline;fill:#ffffff;fill-opacity:1" /><rect
           x="1530.915"
           y="216.771"
           width="239.974"
           height="53.327999"
           id="rect86"
           style="display:inline;fill:#ffffff;fill-opacity:1" /><g
           id="g102"
           style="display:inline;fill:#ffffff;fill-opacity:1"><g
             id="g98"
             style="fill:#ffffff;fill-opacity:1"><path
               d="m 1141.032,112.394 h 78.116 v 15.623 h -31.246 v 54.682 h -15.624 v -54.682 h -31.246 z"
               id="path88"
               inkscape:connector-curvature="0"
               style="fill:#ffffff;fill-opacity:1" /><path
               d="m 1254.104,155.357 v 27.341 h -15.623 v -70.305 h 54.681 c 15.624,0 23.436,7.135 23.436,21.404 0,6.771 -1.12,11.744 -3.358,14.92 2.238,3.698 3.358,8.515 3.358,14.452 v 19.529 h -15.623 v -19.529 c 0,-5.208 -2.604,-7.812 -7.813,-7.812 z m 0,-15.623 h 46.869 v -11.718 h -46.869 z"
               id="path90"
               inkscape:connector-curvature="0"
               style="fill:#ffffff;fill-opacity:1" /><path
               d="M 1431.596,155.357 V 143.64 h 26.988 v 11.717 z"
               id="path92"
               inkscape:connector-curvature="0"
               style="fill:#ffffff;fill-opacity:1" /><path
               d="m 1553.785,128.017 h -62.025 v 11.718 h 39.061 c 15.623,0 23.435,7.161 23.435,21.482 0,14.322 -7.812,21.482 -23.435,21.482 h -31.247 c -13.228,0 -20.856,-5.207 -22.888,-15.624 h 61.945 v -11.717 h -39.059 c -15.623,0 -23.436,-7.056 -23.436,-21.169 0,-14.53 7.813,-21.794 23.436,-21.794 h 31.247 c 13.331,-10e-4 20.988,5.207 22.966,15.622 z m -77.099,39.058 c -0.366,-1.875 -0.547,-3.931 -0.547,-6.171 0,-5.52 1.196,-9.972 3.592,-13.358 3.75,5.208 10.363,7.812 19.843,7.812 h -7.813 v 11.717 z m 73.897,-19.529 c 2.446,-3.437 3.671,-7.993 3.671,-13.67 0,-2.083 -0.156,-4.036 -0.469,-5.859 h -15.154 v 11.718 h -7.813 c 9.427,-0.001 16.015,2.603 19.765,7.811 z"
               id="path94"
               inkscape:connector-curvature="0"
               style="fill:#ffffff;fill-opacity:1" /><path
               d="m 1566.867,159.264 v -23.435 c 0,-15.624 7.812,-23.435 23.435,-23.435 h 23.437 c 15.623,0 23.435,7.812 23.435,23.435 v 23.435 c 0,15.623 -7.812,23.435 -23.435,23.435 h -23.437 c -15.623,-0.001 -23.435,-7.812 -23.435,-23.435 z m 46.87,7.811 c 5.204,0 7.811,-2.603 7.811,-7.811 v -23.435 c 0,-5.208 -2.604,-7.812 -7.811,-7.812 H 1590.3 c -5.209,0 -7.812,2.604 -7.812,7.812 v 23.435 c 0,5.208 2.603,7.811 7.812,7.811 z"
               id="path96"
               inkscape:connector-curvature="0"
               style="fill:#ffffff;fill-opacity:1" /></g><path
             d="m 1333.125,159.36 h 20.171 c 0,5.042 2.837,8.51 6.775,8.51 3.939,0 33.489,0 36.327,0 2.836,0 3.781,-2.049 3.781,-4.886 0,-2.836 1.26,-8.981 -4.412,-8.981 -5.674,0 -38.848,0 -44.363,0 -5.515,0 -18.437,-4.57 -18.437,-20.013 0,-15.443 10.085,-21.116 17.177,-21.116 7.091,0 47.115,0 53.576,0 6.461,0 12.447,2.994 12.447,19.54 -4.727,0 -19.064,0 -19.064,0 0,-3.624 -1.893,-6.183 -8.511,-6.183 -6.616,0 -23.719,0 -28.445,0 -4.728,0 -6.46,0.353 -6.46,7.759 0,7.406 4.254,6.813 7.404,6.813 3.152,0 37.271,0 44.992,0 7.721,0 14.971,7.841 14.971,19.975 0,12.133 -5.832,22.458 -18.278,22.458 -12.449,0 -47.116,0 -53.421,0 -6.301,0.001 -16.23,-3.075 -16.23,-23.876 z"
             id="path100"
             inkscape:connector-curvature="0"
             style="fill:#ffffff;fill-opacity:1" /></g></g></g></g></svg>