<?xml version="1.0" encoding="utf-8"?>
<!-- Generator: Adobe Illustrator 21.1.0, SVG Export Plug-In . SVG Version: 6.00 Build 0)  -->
<svg version="1.0" id="Ebene_1" xmlns="http://www.w3.org/2000/svg" xmlns:xlink="http://www.w3.org/1999/xlink" x="0px" y="0px"
	 width="566.9px" height="96.9px" viewBox="0 0 566.9 96.9" enable-background="new 0 0 566.9 96.9" xml:space="preserve">
<g>
	<path fill="#FFFFFF" d="M254.4,52.5c-10.1,10.1-10.1,26.5,0,36.6s26.5,10.1,36.6,0c8.8-8.8,9.9-22.2,3.5-32.2l-13.9,13.9
		c0,2-0.8,4-2.3,5.6c-3.1,3.1-8.1,3.1-11.2,0s-3.1-8.1,0-11.2s8.1-3.1,11.2,0l0.3,0.3l12.7-12.7l-0.3-0.3
		C280.9,42.5,264.5,42.5,254.4,52.5z"/>
	<path fill="#FFFFFF" d="M153.5,96.6L216,25.4h-26l-40,40.7c-1.2,1.2-3.2,1.2-4.4,0s-1.2-3.3,0-4.5l35.6-36.2H91L153.5,96.6z"/>
	<path fill="#FFFFFF" d="M432.7,70.7L411,96.2h17.7L445.6,79c1-1,2.6-1,3.5,0s1,2.6,0,3.6l-13.3,13.6H476l-21.7-25.5L476,45.3h-17.7
		l-16.8,17.2c-1,1-2.6,1-3.5,0c-1-1-1-2.6,0-3.6l13.3-13.6H411L432.7,70.7z"/>
	<path fill="#FFFFFF" d="M333,45.3v50.9h16.2V63.1h12.3l15.1-17.9h-17.7l-16.8,17.2c-1,1-2.6,1-3.5,0c-1-1-1-2.6,0-3.6l13.3-13.6
		L333,45.3L333,45.3z"/>
	<path fill="#FFFFFF" d="M320.9,45.5h9.8l16.2-16.8h-26.1V0.1l-39.7,45.4h17.3l11.9-11c1-1,2.6-1,3.5,0c1,1,1,2.6,0,3.6l-9.4,9.5
		v48.6h16.2L320.9,45.5L320.9,45.5z"/>
	<path fill="#FFFFFF" d="M198.9,52.5c-10.1,10.1-10.1,26.5,0,36.6s26.5,10.1,36.6,0c8.8-8.8,9.9-22.2,3.5-32.2l-13.9,13.9
		c0,2-0.8,4-2.3,5.6c-2.5,2.5-6.4,3-9.4,1.4L237,54.2c-0.4-0.5-3-3.1-3.8-3.7C223.1,42.5,208.3,43.2,198.9,52.5z M209.9,73.9
		c-1.2-2.9-0.6-6.3,1.7-8.6c2.3-2.3,5.8-2.9,8.6-1.7L209.9,73.9z"/>
	<path fill="#FFFFFF" d="M375.3,52.5c-10.1,10.1-10.1,26.5,0,36.6s26.5,10.1,36.6,0c8.8-8.8,9.9-22.2,3.5-32.2l-13.9,13.9
		c0,2-0.7,4-2.3,5.6c-2.5,2.5-6.4,3-9.4,1.4l23.6-23.6c-0.4-0.5-3-3.1-3.8-3.7C399.5,42.5,384.7,43.2,375.3,52.5z M386.3,73.9
		c-1.2-2.9-0.6-6.3,1.7-8.6c2.3-2.3,5.8-2.9,8.6-1.7L386.3,73.9z"/>
</g>
</svg>
