<?xml version="1.0" encoding="UTF-8" standalone="no"?>
<svg
   xmlns:dc="http://purl.org/dc/elements/1.1/"
   xmlns:cc="http://creativecommons.org/ns#"
   xmlns:rdf="http://www.w3.org/1999/02/22-rdf-syntax-ns#"
   xmlns:svg="http://www.w3.org/2000/svg"
   xmlns="http://www.w3.org/2000/svg"
   xmlns:sodipodi="http://sodipodi.sourceforge.net/DTD/sodipodi-0.dtd"
   xmlns:inkscape="http://www.inkscape.org/namespaces/inkscape"
   inkscape:version="1.0 (4035a4fb49, 2020-05-01)"
   sodipodi:docname="vectrex.svg"
   xml:space="preserve"
   enable-background="new 0 0 566.9 96.9"
   viewBox="0 0 394.99998 106.57499"
   height="106.575"
   width="395"
   y="0px"
   x="0px"
   id="Ebene_1"
   version="1.0"><metadata
     id="metadata278"><rdf:RDF><cc:Work
         rdf:about=""><dc:format>image/svg+xml</dc:format><dc:type
           rdf:resource="http://purl.org/dc/dcmitype/StillImage" /><dc:title></dc:title></cc:Work></rdf:RDF></metadata><defs
     id="defs276" /><sodipodi:namedview
     lock-margins="true"
     inkscape:pagecheckerboard="true"
     inkscape:document-rotation="0"
     inkscape:current-layer="Ebene_1"
     inkscape:window-maximized="0"
     inkscape:window-y="0"
     inkscape:window-x="0"
     inkscape:cy="53.224999"
     inkscape:cx="197.45001"
     inkscape:zoom="0.48156639"
     fit-margin-bottom="5"
     fit-margin-right="5"
     fit-margin-left="5"
     fit-margin-top="5"
     showgrid="false"
     id="namedview274"
     inkscape:window-height="480"
     inkscape:window-width="700"
     inkscape:pageshadow="2"
     inkscape:pageopacity="0"
     guidetolerance="10"
     gridtolerance="10"
     objecttolerance="10"
     borderopacity="1"
     bordercolor="#666666"
     pagecolor="#ffffff" /><g
     transform="translate(-86,4.9)"
     id="g271"><path
       style="fill:#ffffff"
       inkscape:connector-curvature="0"
       id="path257"
       d="m 254.4,52.5 c -10.1,10.1 -10.1,26.5 0,36.6 10.1,10.1 26.5,10.1 36.6,0 8.8,-8.8 9.9,-22.2 3.5,-32.2 l -13.9,13.9 c 0,2 -0.8,4 -2.3,5.6 -3.1,3.1 -8.1,3.1 -11.2,0 -3.1,-3.1 -3.1,-8.1 0,-11.2 3.1,-3.1 8.1,-3.1 11.2,0 l 0.3,0.3 12.7,-12.7 -0.3,-0.3 c -10.1,-10 -26.5,-10 -36.6,0 z" /><path
       style="fill:#ffffff"
       inkscape:connector-curvature="0"
       id="path259"
       d="M 153.5,96.6 216,25.4 h -26 l -40,40.7 c -1.2,1.2 -3.2,1.2 -4.4,0 -1.2,-1.2 -1.2,-3.3 0,-4.5 L 181.2,25.4 H 91 Z" /><path
       style="fill:#ffffff"
       inkscape:connector-curvature="0"
       id="path261"
       d="M 432.7,70.7 411,96.2 h 17.7 L 445.6,79 c 1,-1 2.6,-1 3.5,0 0.9,1 1,2.6 0,3.6 L 435.8,96.2 H 476 L 454.3,70.7 476,45.3 h -17.7 l -16.8,17.2 c -1,1 -2.6,1 -3.5,0 -1,-1 -1,-2.6 0,-3.6 L 451.3,45.3 H 411 Z" /><path
       style="fill:#ffffff"
       inkscape:connector-curvature="0"
       id="path263"
       d="m 333,45.3 v 50.9 h 16.2 V 63.1 h 12.3 l 15.1,-17.9 h -17.7 l -16.8,17.2 c -1,1 -2.6,1 -3.5,0 -1,-1 -1,-2.6 0,-3.6 l 13.3,-13.6 z" /><path
       style="fill:#ffffff"
       inkscape:connector-curvature="0"
       id="path265"
       d="m 320.9,45.5 h 9.8 L 346.9,28.7 H 320.8 V 0.1 l -39.7,45.4 h 17.3 l 11.9,-11 c 1,-1 2.6,-1 3.5,0 1,1 1,2.6 0,3.6 l -9.4,9.5 v 48.6 h 16.2 z" /><path
       style="fill:#ffffff"
       inkscape:connector-curvature="0"
       id="path267"
       d="m 198.9,52.5 c -10.1,10.1 -10.1,26.5 0,36.6 10.1,10.1 26.5,10.1 36.6,0 8.8,-8.8 9.9,-22.2 3.5,-32.2 l -13.9,13.9 c 0,2 -0.8,4 -2.3,5.6 -2.5,2.5 -6.4,3 -9.4,1.4 L 237,54.2 c -0.4,-0.5 -3,-3.1 -3.8,-3.7 -10.1,-8 -24.9,-7.3 -34.3,2 z m 11,21.4 c -1.2,-2.9 -0.6,-6.3 1.7,-8.6 2.3,-2.3 5.8,-2.9 8.6,-1.7 z" /><path
       style="fill:#ffffff"
       inkscape:connector-curvature="0"
       id="path269"
       d="m 375.3,52.5 c -10.1,10.1 -10.1,26.5 0,36.6 10.1,10.1 26.5,10.1 36.6,0 8.8,-8.8 9.9,-22.2 3.5,-32.2 l -13.9,13.9 c 0,2 -0.7,4 -2.3,5.6 -2.5,2.5 -6.4,3 -9.4,1.4 l 23.6,-23.6 c -0.4,-0.5 -3,-3.1 -3.8,-3.7 -10.1,-8 -24.9,-7.3 -34.3,2 z m 11,21.4 c -1.2,-2.9 -0.6,-6.3 1.7,-8.6 2.3,-2.3 5.8,-2.9 8.6,-1.7 z" /></g></svg>
