<?xml version="1.0" encoding="UTF-8" standalone="no"?>
<!-- Generator: Adobe Illustrator 13.0.0, SVG Export Plug-In . SVG Version: 6.00 Build 14948)  -->

<svg
   xmlns:dc="http://purl.org/dc/elements/1.1/"
   xmlns:cc="http://creativecommons.org/ns#"
   xmlns:rdf="http://www.w3.org/1999/02/22-rdf-syntax-ns#"
   xmlns:svg="http://www.w3.org/2000/svg"
   xmlns="http://www.w3.org/2000/svg"
   xmlns:sodipodi="http://sodipodi.sourceforge.net/DTD/sodipodi-0.dtd"
   xmlns:inkscape="http://www.inkscape.org/namespaces/inkscape"
   version="1.2"
   id="svg2"
   inkscape:version="0.92.2 (unknown)"
   sodipodi:docname="videopac.svg"
   x="0px"
   y="0px"
   width="575.38702"
   height="78.263"
   viewBox="0 0 575.387 78.262999"
   xml:space="preserve"><metadata
     id="metadata26"><rdf:RDF><cc:Work
         rdf:about=""><dc:format>image/svg+xml</dc:format><dc:type
           rdf:resource="http://purl.org/dc/dcmitype/StillImage" /><dc:title></dc:title></cc:Work></rdf:RDF></metadata><defs
     id="defs24" /><sodipodi:namedview
     id="base"
     bordercolor="#666666"
     inkscape:cx="173.67163"
     inkscape:zoom="1.4"
     inkscape:cy="3.7435927"
     pagecolor="#ffffff"
     borderopacity="1.0"
     fit-margin-top="0"
     fit-margin-left="0"
     inkscape:window-x="0"
     inkscape:pageshadow="2"
     inkscape:current-layer="layer1"
     inkscape:window-width="1920"
     inkscape:window-y="0"
     inkscape:pageopacity="0.0"
     inkscape:window-height="1031"
     inkscape:window-maximized="1"
     inkscape:document-units="px"
     fit-margin-right="0"
     fit-margin-bottom="0"
     showgrid="false"
     inkscape:pagecheckerboard="true" /><g
     id="layer1"
     transform="translate(-76.18,-200.598)"
     inkscape:groupmode="layer"
     inkscape:label="Layer 1"><g
       id="g3936"
       style="fill:#ffffff;fill-opacity:1;stroke:none;stroke-opacity:1"><path
         id="path3904"
         d="M 129.285,258.009 118.105,278.861 76.18,200.598 H 98.54 Z"
         inkscape:connector-curvature="0"
         style="fill:#ffffff;fill-opacity:1;stroke:none;stroke-opacity:1" /><path
         id="path2987"
         d="m 120.9,231.903 16.77,-31.305 h 22.36 l -27.95,52.155 z"
         inkscape:connector-curvature="0"
         style="fill:#ffffff;fill-opacity:1;stroke:none;stroke-opacity:1" /><path
         id="path2989"
         inkscape:connector-curvature="0"
         d="m 165.733,200.598 h 19.621 l -0.056,78.262 h -19.565 z"
         style="fill:#ffffff;fill-opacity:1;stroke:none;stroke-opacity:1" /><path
         id="path3908"
         d="m 193.683,200.598 h 19.621 l -0.056,78.262 h -19.565 z"
         inkscape:connector-curvature="0"
         style="fill:#ffffff;fill-opacity:1;stroke:none;stroke-opacity:1" /><path
         id="path2991"
         d="m 218.838,220.164 v -19.565 h 8.385 c 10.807,0 20.031,3.82 27.671,11.46 7.64,7.64 11.459,16.863 11.459,27.671 0,10.808 -3.82,20.031 -11.459,27.671 -7.64,7.64 -16.864,11.46 -27.671,11.46 h -8.385 v -19.565 h 8.385 c 5.403,0 10.015,-1.91 13.835,-5.73 3.82,-3.819 5.729,-8.432 5.729,-13.835 0,-5.403 -1.91,-10.016 -5.729,-13.836 -3.82,-3.819 -8.432,-5.729 -13.835,-5.729 h -8.385 z"
         inkscape:connector-curvature="0"
         style="fill:#ffffff;fill-opacity:1;stroke:none;stroke-opacity:1" /><path
         id="path3916"
         d="m 274.851,200.598 h 19.621 l -0.056,78.262 h -19.565 z"
         inkscape:connector-curvature="0"
         style="fill:#ffffff;fill-opacity:1;stroke:none;stroke-opacity:1" /><path
         id="path3914"
         d="m 300.006,200.598 h 30.745 v 19.565 h -30.745 z"
         inkscape:connector-curvature="0"
         style="fill:#ffffff;fill-opacity:1;stroke:none;stroke-opacity:1" /><path
         id="path3912"
         d="m 300.006,259.295 h 30.745 v 19.565 h -30.745 z"
         inkscape:connector-curvature="0"
         style="fill:#ffffff;fill-opacity:1;stroke:none;stroke-opacity:1" /><path
         id="path2993"
         d="m 300.006,229.946 h 30.745 v 19.565 h -30.745 z"
         inkscape:connector-curvature="0"
         style="fill:#ffffff;fill-opacity:1;stroke:none;stroke-opacity:1" /><path
         id="path3920"
         d="m 397.776,242.524 h 19.678 c -0.597,9.615 -4.398,17.907 -11.404,24.876 -7.64,7.64 -16.863,11.46 -27.671,11.46 -10.807,0 -20.031,-3.82 -27.671,-11.46 -6.969,-6.969 -10.751,-15.261 -11.348,-24.876 h 19.677 c 0.559,4.211 2.403,7.882 5.535,11.013 3.801,3.838 8.402,5.758 13.807,5.758 5.405,0 10.025,-1.92 13.863,-5.758 3.131,-3.131 4.976,-6.802 5.534,-11.013 z"
         inkscape:connector-curvature="0"
         style="fill:#ffffff;fill-opacity:1;stroke:none;stroke-opacity:1" /><path
         id="path2995"
         d="M 359.038,236.934 H 339.36 c 0.596,-9.615 4.379,-17.907 11.348,-24.876 7.64,-7.64 16.863,-11.46 27.671,-11.46 10.808,0 20.031,3.82 27.671,11.46 7.006,6.969 10.808,15.261 11.404,24.876 h -19.678 c -0.559,-4.211 -2.403,-7.9 -5.534,-11.068 -3.838,-3.802 -8.459,-5.702 -13.863,-5.702 -5.404,0 -10.006,1.9 -13.807,5.702 -3.131,3.168 -4.976,6.857 -5.534,11.068 z"
         inkscape:connector-curvature="0"
         style="fill:#ffffff;fill-opacity:1;stroke:none;stroke-opacity:1" /><path
         id="path3924"
         d="m 426.007,200.598 h 19.564 v 78.262 h -19.564 z"
         inkscape:connector-curvature="0"
         style="fill:#ffffff;fill-opacity:1;stroke:none;stroke-opacity:1" /><path
         id="path2997"
         d="m 451.162,220.164 v -19.565 h 10.509 c 6.745,0 12.503,2.386 17.273,7.155 4.771,4.771 7.155,10.528 7.155,17.273 0,6.783 -2.385,12.56 -7.155,17.329 -4.771,4.771 -10.528,7.155 -17.273,7.155 h -10.509 v -19.565 h 10.509 c 1.342,0 2.487,-0.475 3.438,-1.425 0.95,-0.95 1.425,-2.115 1.425,-3.494 0,-1.342 -0.475,-2.487 -1.425,-3.438 -0.951,-0.95 -2.097,-1.426 -3.438,-1.426 h -10.509 z"
         inkscape:connector-curvature="0"
         style="fill:#ffffff;fill-opacity:1;stroke:none;stroke-opacity:1" /><path
         id="path3928"
         d="m 529.423,247.555 -16.771,31.305 h -22.36 l 27.951,-52.156 z"
         inkscape:connector-curvature="0"
         style="fill:#ffffff;fill-opacity:1;stroke:none;stroke-opacity:1" /><path
         id="path2999"
         d="m 537.584,252.306 -16.546,-30.856 11.18,-20.852 41.926,78.262 h -22.36 l -3.745,-6.988 h -26.05 l 10.453,-19.565 h 5.142 z"
         inkscape:connector-curvature="0"
         style="fill:#ffffff;fill-opacity:1;stroke:none;stroke-opacity:1" /><path
         id="path3934"
         d="m 616.181,259.127 v 19.621 c -9.615,-0.597 -17.907,-4.379 -24.876,-11.348 -7.64,-7.64 -11.459,-16.863 -11.459,-27.671 0,-10.808 3.819,-20.031 11.459,-27.671 6.969,-6.969 15.261,-10.752 24.876,-11.348 v 19.621 c -4.211,0.559 -7.882,2.403 -11.013,5.534 -3.838,3.838 -5.758,8.459 -5.758,13.863 0,5.403 1.92,10.006 5.758,13.808 3.131,3.168 6.802,5.032 11.013,5.591 z"
         inkscape:connector-curvature="0"
         style="fill:#ffffff;fill-opacity:1;stroke:none;stroke-opacity:1" /><path
         id="path3932"
         d="m 635.299,228.829 c -0.708,-1.044 -1.528,-2.031 -2.46,-2.963 -3.167,-3.131 -6.856,-4.976 -11.068,-5.534 v -19.621 c 9.615,0.596 17.907,4.379 24.876,11.348 1.863,1.863 3.503,3.839 4.92,5.926 z"
         inkscape:connector-curvature="0"
         style="fill:#ffffff;fill-opacity:1;stroke:none;stroke-opacity:1" /><path
         id="path3001"
         d="m 651.566,261.474 c -1.417,2.087 -3.057,4.063 -4.92,5.926 -6.969,6.969 -15.261,10.751 -24.876,11.348 v -19.621 c 4.212,-0.559 7.901,-2.423 11.068,-5.59 0.932,-0.932 1.752,-1.9 2.46,-2.907 z"
         inkscape:connector-curvature="0"
         style="fill:#ffffff;fill-opacity:1;stroke:none;stroke-opacity:1" /></g></g></svg>