<?xml version="1.0" encoding="UTF-8" standalone="no"?>
<!-- Generator: Adobe Illustrator 21.1.0, SVG Export Plug-In . SVG Version: 6.00 Build 0)  -->

<svg
   xmlns:dc="http://purl.org/dc/elements/1.1/"
   xmlns:cc="http://creativecommons.org/ns#"
   xmlns:rdf="http://www.w3.org/1999/02/22-rdf-syntax-ns#"
   xmlns:svg="http://www.w3.org/2000/svg"
   xmlns="http://www.w3.org/2000/svg"
   xmlns:sodipodi="http://sodipodi.sourceforge.net/DTD/sodipodi-0.dtd"
   xmlns:inkscape="http://www.inkscape.org/namespaces/inkscape"
   version="1.0"
   id="svg2"
   x="0px"
   y="0px"
   width="375.20001"
   height="96.903198"
   viewBox="0 0 375.2 96.903197"
   enable-background="new 0 0 566.9 96.9"
   xml:space="preserve"
   sodipodi:docname="virtualboy.svg"
   inkscape:version="0.92.2 (unknown)"><metadata
     id="metadata297"><rdf:RDF><cc:Work
         rdf:about=""><dc:format>image/svg+xml</dc:format><dc:type
           rdf:resource="http://purl.org/dc/dcmitype/StillImage" /></cc:Work></rdf:RDF></metadata><defs
     id="defs295" /><sodipodi:namedview
     pagecolor="#ffffff"
     bordercolor="#666666"
     borderopacity="1"
     objecttolerance="10"
     gridtolerance="10"
     guidetolerance="10"
     inkscape:pageopacity="0"
     inkscape:pageshadow="2"
     inkscape:window-width="640"
     inkscape:window-height="480"
     id="namedview293"
     showgrid="false"
     fit-margin-top="0"
     fit-margin-left="0"
     fit-margin-right="0"
     fit-margin-bottom="0"
     inkscape:zoom="0.48156639"
     inkscape:cx="187.55001"
     inkscape:cy="48.449999"
     inkscape:window-x="0"
     inkscape:window-y="0"
     inkscape:window-maximized="0"
     inkscape:current-layer="svg2" /><g
     id="g290"
     transform="translate(-95.9,0.0032)"><path
       id="path2952"
       d="M 95.9,0 116,96.8 136.1,0 H 125.2 L 116,54.4 106.7,0 Z"
       inkscape:connector-curvature="0"
       style="fill:#ffffff" /><path
       id="path3726"
       d="m 140.6,0 h 10.9 v 96.8 h -10.9 z"
       inkscape:connector-curvature="0"
       style="fill:#ffffff" /><path
       id="path3728"
       d="m 161.2,0 v 96.9 h 10.9 V 46.8 l 15.1,50.1 h 10.1 L 185.2,51.1 c 6.7,-4 8.7,-9.3 8.7,-9.3 V 11 C 189.4,1.1 181.7,0 181.7,0 Z m 10.9,9.8 H 183 v 33.6 h -10.9 z"
       inkscape:connector-curvature="0"
       style="fill:#ffffff" /><path
       id="path3733"
       d="m 197.2,0 h 32.5 v 9.8 h -10.9 v 87 H 208 V 9.9 h -10.8 z"
       inkscape:connector-curvature="0"
       style="fill:#ffffff" /><path
       id="path3735"
       d="m 289.9,0 -21,96.7 v 0.1 h 10.8 l 2.3,-13 h 15.2 l 2.2,13 h 10.9 z m 0,41.7 5,33.3 h -10.7 z"
       inkscape:connector-curvature="0"
       style="fill:#ffffff" /><path
       id="path2882"
       d="m 314.6,0 h 10.9 v 86.9 h 16.2 v 9.8 h -27.1 z"
       inkscape:connector-curvature="0"
       style="fill:#ffffff" /><path
       id="path3660"
       d="m 430.8,0 h 9.9 L 450.8,41.7 460.1,0 h 11 L 455.8,57 V 96.9 H 445 V 57 L 430.8,0 Z"
       inkscape:connector-curvature="0"
       style="fill:#ffffff" /><path
       id="path3662"
       d="M 411.3,0 C 398.9,0 395,10.9 395,10.9 c 0.1,0.1 0,72.8 0,74.8 1.6,11.8 16.3,11 16.3,11 v 0 c 16.3,0 16.3,-11 16.3,-11 V 11 C 423.4,-0.5 411.3,0 411.3,0 Z m -5.5,11 h 10.9 v 75.9 h -10.9 z"
       inkscape:connector-curvature="0"
       style="fill:#ffffff" /><path
       id="path3667"
       d="m 234,0 h 11 v 85.9 h 11 V 0 h 10.8 v 85.9 c 0,0 -3.5,11 -15.8,11 -12.3,0 -16.8,-11 -16.8,-11 V 0 Z"
       inkscape:connector-curvature="0"
       style="fill:#ffffff" /><path
       id="path3669"
       d="m 353.7,0 v 96.9 h 21.9 c 10.1,-2.6 10.8,-9.8 10.8,-9.8 0,0 0,-25.9 0,-32.5 -0.7,-4.2 -4.2,-4.3 -4.2,-4.3 0,0 0,-1.2 0,-2.1 3.8,-0.3 4.3,-4.5 4.3,-4.5 0,0 0,-25.8 0,-32.5 -1.8,-7.9 -10.9,-11 -10.9,-11 h -21.9 z m 10.8,11.1 h 10.9 v 32.4 h -10.9 z m 0,42.2 h 11 v 33.6 h -11 z"
       inkscape:connector-curvature="0"
       style="fill:#ffffff" /></g></svg>