<?xml version="1.0" encoding="utf-8"?>
<!-- Generator: Adobe Illustrator 21.1.0, SVG Export Plug-In . SVG Version: 6.00 Build 0)  -->
<svg version="1.0" id="svg2" xmlns:svg="http://www.w3.org/2000/svg"
	 xmlns="http://www.w3.org/2000/svg" xmlns:xlink="http://www.w3.org/1999/xlink" x="0px" y="0px" width="566.9px" height="96.9px"
	 viewBox="0 0 566.9 96.9" enable-background="new 0 0 566.9 96.9" xml:space="preserve">
<g>
	<path id="path2952" fill="#FFFFFF" d="M95.9,0L116,96.8L136.1,0h-10.9L116,54.4L106.7,0H95.9L95.9,0z"/>
	<path id="path3726" fill="#FFFFFF" d="M140.6,0h10.9v96.8h-10.9V0L140.6,0z"/>
	<path id="path3728" fill="#FFFFFF" d="M161.2,0v96.9h10.9V46.8l15.1,50.1h10.1l-12.1-45.8c6.7-4,8.7-9.3,8.7-9.3V11
		c-4.5-9.9-12.2-11-12.2-11H161.2z M172.1,9.8H183v33.6h-10.9V9.8z"/>
	<path id="path3733" fill="#FFFFFF" d="M197.2,0h32.5v9.8h-10.9v87H208V9.9h-10.8V0L197.2,0z"/>
	<path id="path3735" fill="#FFFFFF" d="M289.9,0l-21,96.7v0.1h10.8l2.3-13h15.2l2.2,13h10.9L289.9,0L289.9,0z M289.9,41.7l5,33.3
		h-10.7L289.9,41.7z"/>
	<path id="path2882" fill="#FFFFFF" d="M314.6,0h10.9v86.9h16.2v9.8h-27.1V0L314.6,0z"/>
	<path id="path3660" fill="#FFFFFF" d="M430.8,0h9.9l10.1,41.7L460.1,0h11l-15.3,57v39.9H445V57L430.8,0L430.8,0L430.8,0z"/>
	<path id="path3662" fill="#FFFFFF" d="M411.3,0C398.9,0,395,10.9,395,10.9c0.1,0.1,0,72.8,0,74.8c1.6,11.8,16.3,11,16.3,11l0,0
		c16.3,0,16.3-11,16.3-11V11C423.4-0.5,411.3,0,411.3,0L411.3,0z M405.8,11h10.9v75.9h-10.9V11z"/>
	<path id="path3667" fill="#FFFFFF" d="M234,0h11v85.9h11V0h10.8v85.9c0,0-3.5,11-15.8,11s-16.8-11-16.8-11V0H234z"/>
	<path id="path3669" fill="#FFFFFF" d="M353.7,0v96.9h21.9c10.1-2.6,10.8-9.8,10.8-9.8s0-25.9,0-32.5c-0.7-4.2-4.2-4.3-4.2-4.3
		s0-1.2,0-2.1c3.8-0.3,4.3-4.5,4.3-4.5s0-25.8,0-32.5c-1.8-7.9-10.9-11-10.9-11h-21.9V0z M364.5,11.1h10.9v32.4h-10.9V11.1z
		 M364.5,53.3h11v33.6h-11V53.3L364.5,53.3z"/>
</g>
</svg>
