<?xml version="1.0" encoding="UTF-8" standalone="no"?>
<svg
   xmlns:dc="http://purl.org/dc/elements/1.1/"
   xmlns:cc="http://creativecommons.org/ns#"
   xmlns:rdf="http://www.w3.org/1999/02/22-rdf-syntax-ns#"
   xmlns:svg="http://www.w3.org/2000/svg"
   xmlns="http://www.w3.org/2000/svg"
   xmlns:sodipodi="http://sodipodi.sourceforge.net/DTD/sodipodi-0.dtd"
   xmlns:inkscape="http://www.inkscape.org/namespaces/inkscape"
   inkscape:version="1.0 (4035a4fb49, 2020-05-01)"
   sodipodi:docname="wii.svg"
   id="svg1354"
   height="428.01901"
   width="884.59973"
   version="1.0">
  <metadata
     id="metadata8">
    <rdf:RDF>
      <cc:Work
         rdf:about="">
        <dc:format>image/svg+xml</dc:format>
        <dc:type
           rdf:resource="http://purl.org/dc/dcmitype/StillImage" />
        <dc:title></dc:title>
      </cc:Work>
    </rdf:RDF>
  </metadata>
  <sodipodi:namedview
     lock-margins="true"
     inkscape:document-rotation="0"
     inkscape:current-layer="svg1354"
     inkscape:window-maximized="1"
     inkscape:window-y="-8"
     inkscape:window-x="-8"
     inkscape:cy="68.259686"
     inkscape:cx="1091.8532"
     inkscape:zoom="0.55151515"
     fit-margin-bottom="5"
     fit-margin-right="5"
     fit-margin-left="5"
     fit-margin-top="5"
     inkscape:pagecheckerboard="true"
     showgrid="false"
     id="namedview6"
     inkscape:window-height="1017"
     inkscape:window-width="1920"
     inkscape:pageshadow="2"
     inkscape:pageopacity="0"
     guidetolerance="10"
     gridtolerance="10"
     objecttolerance="10"
     borderopacity="1"
     bordercolor="#666666"
     pagecolor="#ffffff" />
  <defs
     id="defs1357" />
  <path
     sodipodi:nodetypes="csscscscsssssscscscssccccscssccccccccccccccccccccssscssssssssss"
     inkscape:connector-curvature="0"
     id="path1372"
     style="fill:#ffffff;fill-opacity:1;stroke:none"
     d="m 148.2646,421.53425 c -18.17316,-4.9898 -35.88859,-21.8284 -43.63798,-41.47801 C 99.431906,366.88435 80.66072,300.80088 14.86597,64.056242 L 5,28.556242 49.51784,28.295812 c 24.48482,-0.14324 44.831186,0.08176 45.214176,0.5 0.38298,0.41824 17.050124,64.935125 37.038084,143.370858 l 36.34175,142.61044 17.27409,-66.11044 C 226.40689,91.673597 233.37433,66.356402 238.55135,55.482502 c 6.97641,-14.65338 19.169,-25.1241 33.64674,-28.89507 7.62818,-1.98689 25.2073,-2.00809 32.76515,-0.03952 15.95481,4.1557 28.42515,15.65952 35.29053,32.55534 4.18659,10.30325 13.19644,43.472598 46.84372,172.452988 11.33485,43.45 20.93513,79.78553 21.33394,80.74563 0.45144,1.08679 14.50093,-52.22143 37.22511,-141.24384 l 36.5,-142.989468 45.21862,-0.0062 c 35.74101,-0.0049 45.12796,0.25583 44.78612,1.24384 -0.23787,0.6875 -9.86657,35.225 -21.39711,76.749998 -55.10311,198.44306 -74.28561,265.0842 -79.68785,276.84028 -9.1764,19.96923 -24.59684,33.84523 -42.9144,38.61633 -7.65155,1.993 -24.288,2.0115 -31.87432,0.0355 -10.56485,-2.7518 -16.60788,-6.3892 -25.67169,-15.4522 -7.07925,-7.0786 -9.33893,-10.1655 -13.20602,-18.03991 -6.32218,-12.87371 -12.41614,-33.8704 -51.22641,-176.5 -9.12914,-33.55 -16.85032,-61.675 -17.15819,-62.5 -0.30786,-0.825 -9.72775,31.98003 -20.93307,72.90006 -24.62792,89.93722 -37.60121,136.39885 -41.63256,149.09994 -8.71389,27.45381 -24.55782,45.02981 -45.44746,50.41581 -7.53313,1.9423 -25.77409,1.9769 -32.7476,0.0622 z M 616.65654,283.55624 v -136.5 h 42.5 42.5 v 136.5 136.50001 h -42.5 -42.5 z m 171,0 v -136.5 h 42.5 42.5 v 136.5 136.50001 h -42.5 -42.5 z m -140.5,-183.603813 c -19.26107,-3.90251 -35.21021,-20.392085 -38.48129,-39.785245 -3.98511,-23.62641 11.76932,-47.39274 35.51625,-53.5780301 12.11902,-3.1566 27.64229,-1.5172099 38.70225,4.0872901 6.62388,3.35658 16.68824,12.98951 20.07767,19.21701 11.64037,21.38719 4.74486,49.29049 -15.3706,62.198545 -11.15327,7.15703 -27.87543,10.407013 -40.44428,7.86043 z m 171,0 c -24.943,-5.05373 -42.59818,-29.910785 -38.56985,-54.303225 3.08999,-18.71061 17.29119,-34.28996 35.60481,-39.0600501 12.10791,-3.15371 27.64265,-1.5170299 38.6779,4.0749501 6.64769,3.36864 16.02784,12.32156 19.7793,18.87843 12.04812,21.05793 5.19063,49.56245 -15.04788,62.549465 -11.15327,7.15703 -27.87543,10.407013 -40.44428,7.86043 z" />
  <path
     inkscape:connector-curvature="0"
     id="path1363"
     style="fill:#000000"
     d="" />
</svg>
