<?xml version="1.0" encoding="UTF-8" standalone="no"?>
<!-- Created with Inkscape (http://www.inkscape.org/) -->

<svg
   xmlns:dc="http://purl.org/dc/elements/1.1/"
   xmlns:cc="http://creativecommons.org/ns#"
   xmlns:rdf="http://www.w3.org/1999/02/22-rdf-syntax-ns#"
   xmlns:svg="http://www.w3.org/2000/svg"
   xmlns="http://www.w3.org/2000/svg"
   xmlns:sodipodi="http://sodipodi.sourceforge.net/DTD/sodipodi-0.dtd"
   xmlns:inkscape="http://www.inkscape.org/namespaces/inkscape"
   version="1.0"
   width="874.59973"
   height="418.01901"
   id="svg1354"
   sodipodi:docname="wii.svg"
   inkscape:version="0.92.2 (unknown)">
  <metadata
     id="metadata8">
    <rdf:RDF>
      <cc:Work
         rdf:about="">
        <dc:format>image/svg+xml</dc:format>
        <dc:type
           rdf:resource="http://purl.org/dc/dcmitype/StillImage" />
        <dc:title></dc:title>
      </cc:Work>
    </rdf:RDF>
  </metadata>
  <sodipodi:namedview
     pagecolor="#ffffff"
     bordercolor="#666666"
     borderopacity="1"
     objecttolerance="10"
     gridtolerance="10"
     guidetolerance="10"
     inkscape:pageopacity="0"
     inkscape:pageshadow="2"
     inkscape:window-width="1920"
     inkscape:window-height="1031"
     id="namedview6"
     showgrid="false"
     inkscape:pagecheckerboard="true"
     fit-margin-top="0"
     fit-margin-left="0"
     fit-margin-right="0"
     fit-margin-bottom="0"
     inkscape:zoom="0.55151515"
     inkscape:cx="1086.8532"
     inkscape:cy="63.259686"
     inkscape:window-x="0"
     inkscape:window-y="0"
     inkscape:window-maximized="1"
     inkscape:current-layer="svg1354" />
  <defs
     id="defs1357" />
  <path
     d="M 143.2646,416.53425 C 125.09144,411.54445 107.37601,394.70585 99.626616,375.05624 94.431906,361.88435 75.66072,295.80088 9.86597,59.056242 L 0,23.556242 44.51784,23.295812 c 24.48482,-0.14324 44.831186,0.08176 45.214176,0.5 0.38298,0.41824 17.050124,64.935125 37.038084,143.370858 l 36.34175,142.61044 17.27409,-66.11044 C 221.40689,86.673597 228.37433,61.356402 233.55135,50.482502 c 6.97641,-14.65338 19.169,-25.1241 33.64674,-28.89507 7.62818,-1.98689 25.2073,-2.00809 32.76515,-0.03952 15.95481,4.1557 28.42515,15.65952 35.29053,32.55534 4.18659,10.30325 13.19644,43.472595 46.84372,172.452988 11.33485,43.45 20.93513,79.78553 21.33394,80.74563 0.45144,1.08679 14.50093,-52.22143 37.22511,-141.24384 l 36.5,-142.989468 45.21862,-0.0062 c 35.74101,-0.0049 45.12796,0.25583 44.78612,1.24384 -0.23787,0.6875 -9.86657,35.225 -21.39711,76.749998 -55.10311,198.44306 -74.28561,265.0842 -79.68785,276.84028 -9.1764,19.96923 -24.59684,33.84523 -42.9144,38.61633 -7.65155,1.993 -24.288,2.0115 -31.87432,0.0355 -10.56485,-2.7518 -16.60788,-6.3892 -25.67169,-15.4522 -7.07925,-7.0786 -9.33893,-10.1655 -13.20602,-18.03991 -6.32218,-12.87371 -12.41614,-33.8704 -51.22641,-176.5 -9.12914,-33.55 -16.85032,-61.675 -17.15819,-62.5 -0.30786,-0.825 -9.72775,31.98003 -20.93307,72.90006 -24.62792,89.93722 -37.60121,136.39885 -41.63256,149.09994 -8.71389,27.45381 -24.55782,45.02981 -45.44746,50.41581 -7.53313,1.9423 -25.77409,1.9769 -32.7476,0.0622 z M 611.65654,278.55624 v -136.5 h 42.5 42.5 v 136.5 136.50001 h -42.5 -42.5 z m 171,0 v -136.5 h 42.5 42.5 v 136.5 136.50001 h -42.5 -42.5 z m -140.5,-183.603813 C 622.89547,91.049917 606.94633,74.560342 603.67525,55.167182 599.69014,31.540772 615.44457,7.7744419 639.1915,1.5891519 c 12.11902,-3.1566 27.64229,-1.51720997 38.70225,4.08729 6.62388,3.35658 16.68824,12.9895101 20.07767,19.2170101 11.64037,21.38719 4.74486,49.29049 -15.3706,62.198545 -11.15327,7.15703 -27.87543,10.40701 -40.44428,7.86043 z m 171,0 c -24.943,-5.05373 -42.59818,-29.910785 -38.56985,-54.303225 3.08999,-18.71061 17.29119,-34.2899601 35.60481,-39.0600501 12.10791,-3.15371 27.64265,-1.51702997 38.6779,4.07495 6.64769,3.36864 16.02784,12.3215601 19.7793,18.8784301 12.04812,21.05793 5.19063,49.56245 -15.04788,62.549465 -11.15327,7.15703 -27.87543,10.40701 -40.44428,7.86043 z"
     style="fill:#ffffff;fill-opacity:1;stroke:none"
     id="path1372"
     inkscape:connector-curvature="0"
     sodipodi:nodetypes="csscscscsssssscscscssccccscssccccccccccccccccccccssscssssssssss" />
  <path
     d=""
     style="fill:#000000"
     id="path1363"
     inkscape:connector-curvature="0" />
</svg>
