<?xml version="1.0" encoding="utf-8"?>
<!-- Generator: Adobe Illustrator 21.1.0, SVG Export Plug-In . SVG Version: 6.00 Build 0)  -->
<svg version="1.1"
	 id="svg1354" inkscape:version="0.92.2 (unknown)" sodipodi:docname="wii.svg" xmlns:cc="http://creativecommons.org/ns#" xmlns:dc="http://purl.org/dc/elements/1.1/" xmlns:inkscape="http://www.inkscape.org/namespaces/inkscape" xmlns:rdf="http://www.w3.org/1999/02/22-rdf-syntax-ns#" xmlns:sodipodi="http://sodipodi.sourceforge.net/DTD/sodipodi-0.dtd" xmlns:svg="http://www.w3.org/2000/svg"
	 xmlns="http://www.w3.org/2000/svg" xmlns:xlink="http://www.w3.org/1999/xlink" x="0px" y="0px" width="1409px" height="418px"
	 viewBox="0 0 1409 418" enable-background="new 0 0 1409 418" xml:space="preserve">
<g id="Capa_x0020_1" transform="translate(-5.825 -5.621)">
	<g id="_56610944">
		<path id="_56666168" fill="#FFFFFF" d="M1132.4,151.5c0,95.1,112.3,81.6,112.3,15V8.9h-112.3V151.5L1132.4,151.5z"/>
		<path id="_56603080" fill="#FFFFFF" d="M977.5,251.4c0,47,32.4,75,80,75h269.9c40.2,0,72.6-27.6,72.6-67.6V61.5
			c0-24-17.8-50-40-50h-62.6v162.3c0,123.3-214.9,122.3-214.9,2.6V8.9h-47.6c-31,0-57.6,19.6-57.6,50L977.5,251.4L977.5,251.4z"/>
		<path id="_56604928" fill="#FFFFFF" d="M603.9,55.7c0,25.6,21.6,47.2,48.6,47.2c28.4,0,50.6-21,50.6-47.2
			c0-26.4-22.2-47.2-50.6-47.2C625.5,8.3,603.9,29.3,603.9,55.7z"/>
		<path id="_56605920" fill="#FFFFFF" d="M695.7,420.1V149.5h-83.6v270.7L695.7,420.1z"/>
		<path id="_56605848" fill="#FFFFFF" d="M773.4,55.7c0,25.6,22.2,47.2,49.4,47.2c27.6,0,50-21,50-47.2c0-26.4-22.2-47.2-50-47.2
			C795.6,8.3,773.4,29.3,773.4,55.7z"/>
		<path id="_56607936" fill="#FFFFFF" d="M865.2,420.1V149.5h-83.8v270.7L865.2,420.1z"/>
		<path id="_56607472" fill="#FFFFFF" d="M479,31.3l-73,286.8c0,0-56-215.3-65.6-246.5c-8.8-30.4-27.6-43.8-54-43.8
			c-27,0-45.2,13.6-54.8,43.8c-8.8,31-64.8,246.5-64.8,246.5L93.6,31.3H5.8c0,0,84.4,305.8,95.9,341.6c8.8,27.6,30.4,50,61.4,50
			c36.4,0,53.4-26.4,60.8-50c8.2-24.4,62.8-226.1,62.8-226.1s54.8,201.9,62.2,226.1c8.2,23.6,25,50,60.8,50
			c31.8,0,52.6-22.2,62.2-50c11.4-35.8,95.9-341.6,95.9-341.6L479,31.3L479,31.3z"/>
	</g>
</g>
</svg>
