<?xml version="1.0" encoding="UTF-8" standalone="no"?>
<svg
   xmlns:dc="http://purl.org/dc/elements/1.1/"
   xmlns:cc="http://creativecommons.org/ns#"
   xmlns:rdf="http://www.w3.org/1999/02/22-rdf-syntax-ns#"
   xmlns:svg="http://www.w3.org/2000/svg"
   xmlns="http://www.w3.org/2000/svg"
   xmlns:sodipodi="http://sodipodi.sourceforge.net/DTD/sodipodi-0.dtd"
   xmlns:inkscape="http://www.inkscape.org/namespaces/inkscape"
   xml:space="preserve"
   enable-background="new 0 0 1409 418"
   viewBox="0 0 1404.2 424.40143"
   height="424.40143"
   width="1404.2"
   y="0px"
   x="0px"
   sodipodi:docname="wiiu.svg"
   inkscape:version="1.0 (4035a4fb49, 2020-05-01)"
   id="svg1354"
   version="1.1"><metadata
   id="metadata16"><rdf:RDF><cc:Work
       rdf:about=""><dc:format>image/svg+xml</dc:format><dc:type
         rdf:resource="http://purl.org/dc/dcmitype/StillImage" /><dc:title></dc:title></cc:Work></rdf:RDF></metadata><defs
   id="defs14" /><sodipodi:namedview
   inkscape:current-layer="svg1354"
   inkscape:window-maximized="0"
   inkscape:window-y="0"
   inkscape:window-x="0"
   inkscape:cy="211.12242"
   inkscape:cx="709.525"
   inkscape:zoom="0.74449965"
   fit-margin-bottom="5"
   fit-margin-right="5"
   fit-margin-left="5"
   fit-margin-top="5"
   inkscape:pagecheckerboard="true"
   lock-margins="true"
   showgrid="false"
   id="namedview12"
   inkscape:window-height="480"
   inkscape:window-width="710"
   inkscape:pageshadow="2"
   inkscape:pageopacity="0"
   guidetolerance="10"
   gridtolerance="10"
   objecttolerance="10"
   borderopacity="1"
   bordercolor="#666666"
   pagecolor="#ffffff" />
<g
   transform="translate(-0.8,-3.4985832)"
   id="Capa_x0020_1">
	<g
   id="_56610944">
		<path
   d="m 1132.4,151.5 c 0,95.1 112.3,81.6 112.3,15 V 8.9 h -112.3 z"
   fill="#ffffff"
   id="_56666168" />
		<path
   d="m 977.5,251.4 c 0,47 32.4,75 80,75 h 269.9 c 40.2,0 72.6,-27.6 72.6,-67.6 V 61.5 c 0,-24 -17.8,-50 -40,-50 h -62.6 v 162.3 c 0,123.3 -214.9,122.3 -214.9,2.6 V 8.9 h -47.6 c -31,0 -57.6,19.6 -57.6,50 z"
   fill="#ffffff"
   id="_56603080" />
		<path
   d="m 603.9,55.7 c 0,25.6 21.6,47.2 48.6,47.2 28.4,0 50.6,-21 50.6,-47.2 0,-26.4 -22.2,-47.2 -50.6,-47.2 -27,-0.2 -48.6,20.8 -48.6,47.2 z"
   fill="#ffffff"
   id="_56604928" />
		<path
   d="M 695.7,420.1 V 149.5 h -83.6 v 270.7 z"
   fill="#ffffff"
   id="_56605920" />
		<path
   d="m 773.4,55.7 c 0,25.6 22.2,47.2 49.4,47.2 27.6,0 50,-21 50,-47.2 0,-26.4 -22.2,-47.2 -50,-47.2 -27.2,-0.2 -49.4,20.8 -49.4,47.2 z"
   fill="#ffffff"
   id="_56605848" />
		<path
   d="M 865.2,420.1 V 149.5 h -83.8 v 270.7 z"
   fill="#ffffff"
   id="_56607936" />
		<path
   d="m 479,31.3 -73,286.8 c 0,0 -56,-215.3 -65.6,-246.5 -8.8,-30.4 -27.6,-43.8 -54,-43.8 -27,0 -45.2,13.6 -54.8,43.8 -8.8,31 -64.8,246.5 -64.8,246.5 L 93.6,31.3 H 5.8 c 0,0 84.4,305.8 95.9,341.6 8.8,27.6 30.4,50 61.4,50 36.4,0 53.4,-26.4 60.8,-50 8.2,-24.4 62.8,-226.1 62.8,-226.1 0,0 54.8,201.9 62.2,226.1 8.2,23.6 25,50 60.8,50 31.8,0 52.6,-22.2 62.2,-50 11.4,-35.8 95.9,-341.6 95.9,-341.6 z"
   fill="#ffffff"
   id="_56607472" />
	</g>
</g>
</svg>
