<?xml version="1.0" encoding="utf-8"?>
<!-- Generator: Adobe Illustrator 21.1.0, SVG Export Plug-In . SVG Version: 6.00 Build 0)  -->
<svg version="1.0" id="Ebene_1" xmlns="http://www.w3.org/2000/svg" xmlns:xlink="http://www.w3.org/1999/xlink" x="0px" y="0px"
	 width="566.9px" height="146.9px" viewBox="0 0 566.9 146.9" enable-background="new 0 0 566.9 146.9" xml:space="preserve">
<g>
	<g>
		<polygon fill="#FFFFFF" points="110.9,92.7 118.6,60.2 126.4,54.1 134.2,54.1 126.4,86.5 134.2,81.9 140.4,58.7 145,54.1 
			155.9,54.1 148.2,86.5 155.9,80.3 160.6,60.2 166.8,54.1 176.1,54.1 168.4,85 159.1,92.7 		"/>
		<polygon fill="#FFFFFF" points="425.4,92.7 429.3,74.1 436.4,67.4 445.4,67.4 440.1,87.8 447.9,83.1 449.9,72.6 455.1,67.4 
			465.9,67.4 460.6,87.8 467.9,82.8 470,74.1 476.8,67.4 484.9,67.4 480.3,85 469.8,92.7 		"/>
		<path fill="#FFFFFF" d="M364.8,92.7l7.8-7.7H406c0,0,2.9,0.8,4.5-2.8c1.5-3.4-1.4-3.4-1.4-3.4h-15.5c0,0-4.5-1-4.5-6.5
			c-0.1-13.5,11-16.9,11-16.9h32.6l-6.5,6.4h-17.1c0,0-5.4,1.6-5.6,6.1c-0.1,2.1,2.5,1.6,2.5,1.6h13.9c0,0,8.1,1.4,6.2,10
			c-2.4,11.4-10.8,13.1-10.8,13.1h-50.5L364.8,92.7L364.8,92.7z"/>
		<path fill="#FFFFFF" d="M338.3,92.7h13.9l4.2-16c0.5-1.9,5.4-4,4.1-3.8s4.5-0.8,4.5-0.8s1.8,0.5,2.7,1.8c0.9,1.2-0.9,3-1.2,4.4
			c-0.3,1.4,1.6,1.6,1.6,1.6h7.8c0,0,4.2-1.6,5.3-3.1c1.1-1.6,2.5-3.2,2.5-4.6s-3.1-3.1-3.1-3.1l-3.1-1.5h-23.3
			c0,0-11.1,6.4-12.4,7.7C341.3,75.5,338.3,92.7,338.3,92.7z"/>
		<path fill="#FFFFFF" d="M175.3,75c-1.1,1.2-4.6,12.1-3.8,13.9c0.8,1.7,5.1,3.8,5.1,3.8h22.7c0,0,10.6-6.6,11.4-7.6
			c0.8-1,3.8-11.5,3.8-12.6s-2.5-5.1-2.5-5.1h-26.5C185.4,67.4,176.4,73.7,175.3,75z M193,72.5h7c0,0-0.8,8.4-2.5,10.8
			c-1.8,2.4-5.7,4.4-5.7,4.4s-4.4,0.5-5,0s-0.2-5.1-0.2-5.1s0.6-4.9,1.4-6.3C188.7,74.8,193,72.5,193,72.5z"/>
		<path fill="#FFFFFF" d="M259.9,75c-1.1,1.2-4.6,12.1-3.8,13.9c0.8,1.7,5.1,3.8,5.1,3.8h31.6c0,0,1-5,2.3-10.1
			c1.2-4.8,2.7-12.1,2.7-12.6c0-1.1,7.8-11,7.8-11H292l-6.9,8.5h-15C270.1,67.4,261.1,73.7,259.9,75z M277.6,72.5h6.9
			c0,0-0.8,8.4-2.5,10.8s-5.7,4.4-5.7,4.4s-4.4,0.5-5.1,0c-0.6-0.5-0.2-5.1-0.2-5.1s0.6-4.9,1.4-6.3
			C273.4,74.8,277.6,72.5,277.6,72.5z"/>
		<path fill="#FFFFFF" d="M211.1,92.7l7.2-25.3h30.3c0,0,4,0.4,5.4,2.7s1,6.2,1,6.2l-4.1,16.4h-12.6c0,0,1.5-8,2.9-13.9
			c1.4-5.8-2.5-6.3-2.5-6.3h-7.6l-4.3,15.2c0,0-3.8,4.4-5.4,5.1L211.1,92.7L211.1,92.7z"/>
		<path fill="#FFFFFF" d="M522.2,92.7l8-25.3h30.3c0,0,4,0.4,5.4,2.7s1,6.2,1,6.2l-4.3,16.4h-13.9c0,0,2.3-6.8,3.8-12.6
			c1.4-5.8-2.1-7.6-2.1-7.6h-7.6l-4.2,15.2c0,0-3.5,4.4-5.1,5.1L522.2,92.7L522.2,92.7z"/>
		<path fill="#FFFFFF" d="M301.6,75c-1.1,1.2-4.5,12.1-3.8,13.9c0.8,1.7,5.1,3.8,5.1,3.8h22.7c0,0,4.5-2.8,7.9-5.1
			c0,0-19.3,0.1-20.5,0c-0.5-0.1-0.3-2.4-0.3-3.8h15.5c0,0,3-0.6,7.5-4.3s5.1-4.1,5.1-7s-2.5-5.1-2.5-5.1h-26.5
			C311.7,67.4,302.7,73.7,301.6,75z M319.3,72.5h10.2c0,0-1.1,3.9-6.7,6.3h-8.5c-0.8-2.2,1.2-3.9,2.3-4.9
			C317.8,72.8,319.3,72.5,319.3,72.5z"/>
		<path fill="#FFFFFF" d="M505.7,92.7c0,0,4.3-13.6,5.6-17.9c0.7-2.4-0.9-2.3-3.9-2.3s-5.2,0.6-9.3,7.6c-4.9,8.1,7.2,10.3,7.2,10.3
			l-0.8,2.4h-13.9c0,0-7.6,0.3-7.6-8.8c0-11.2,14.4-16.4,14.4-16.4h30.3l-8.1,25.3L505.7,92.7L505.7,92.7L505.7,92.7z"/>
	</g>
	<path fill="#FFFFFF" d="M72.6,54.2c0.7,0,1.4-0.1,2.2-0.1c15.8,0,29.4,15.3,30.4,23.1c0.1,0.8,0.2,1.6,0.2,2.2
		C105.1,58.1,72,30.8,45.3,30.8c-20.5,0-30.1,8.3-33.3,17.7c-4.7,11.8,1.5,28.6,16.1,40.6c1.6,1.2,3.1,2.4,4.7,3.5
		c-0.7,0.1-1.4,0.1-2.1,0.1c-15.8,0-29.4-15.3-30.4-23.1c-0.1-0.8-0.2-1.6-0.2-2.2c0.2,21.3,33.4,48.6,60,48.6
		c20.5,0,30.1-8.3,33.3-17.7c4.7-11.8-1.5-28.6-16.1-40.6C75.7,56.4,74.2,55.2,72.6,54.2z M42.9,89.5c-11.7-9.6-15.6-23.8-9.1-31.8
		c6.6-8,21.6-7.1,33.6,2.3c11.9,9.3,16.5,23.4,10.4,31.8c2.5-5.1-0.3-12.6-6.8-17.8c-7-5.5-15.9-6.1-19.8-1.3s-1.6,13.2,5.3,18.9
		c5.3,4.4,11.8,6,16.4,4.4C65.2,100,52.8,97.7,42.9,89.5z"/>
</g>
</svg>
