<?xml version="1.0" encoding="utf-8"?>
<!-- Generator: Adobe Illustrator 21.1.0, SVG Export Plug-In . SVG Version: 6.00 Build 0)  -->
<svg version="1.0"
	 id="Ebene_1" inkscape:version="0.92.2 (unknown)" sodipodi:docname="wonderswan.svg" xmlns:cc="http://creativecommons.org/ns#" xmlns:dc="http://purl.org/dc/elements/1.1/" xmlns:inkscape="http://www.inkscape.org/namespaces/inkscape" xmlns:rdf="http://www.w3.org/1999/02/22-rdf-syntax-ns#" xmlns:sodipodi="http://sodipodi.sourceforge.net/DTD/sodipodi-0.dtd" xmlns:svg="http://www.w3.org/2000/svg"
	 xmlns="http://www.w3.org/2000/svg" xmlns:xlink="http://www.w3.org/1999/xlink" x="0px" y="0px" width="566.9px" height="116.6px"
	 viewBox="0 0 566.9 116.6" enable-background="new 0 0 566.9 116.6" xml:space="preserve">
<sodipodi:namedview  bordercolor="#666666" borderopacity="1" fit-margin-bottom="0" fit-margin-left="0" fit-margin-right="0" fit-margin-top="0" gridtolerance="10" guidetolerance="10" id="namedview326" inkscape:current-layer="Ebene_1" inkscape:cx="283.35001" inkscape:cy="42.550003" inkscape:pageopacity="0" inkscape:pageshadow="2" inkscape:window-height="480" inkscape:window-maximized="0" inkscape:window-width="640" inkscape:window-x="0" inkscape:window-y="0" inkscape:zoom="0.48156639" objecttolerance="10" pagecolor="#ffffff" showgrid="false">
	</sodipodi:namedview>
<g>
	<g>
		<polygon fill="#FFFFFF" points="0,48 9.7,7.7 19.3,0 29,0 19.3,40.3 29,34.5 36.7,5.8 42.5,0 56,0 46.3,40.3 56,32.6 61.8,7.7 
			69.5,0 81.1,0 71.4,38.4 59.9,48 		"/>
		<polygon fill="#FFFFFF" points="390.9,48 395.8,24.9 403.9,17.3 415.2,17.3 409.2,41.9 418.9,36.1 421.3,23 427.1,17.3 
			440.6,17.3 434.7,41.9 443.8,35.8 446.4,24.9 454.1,17.3 464.2,17.3 459.2,38.4 446.1,48 		"/>
		<path fill="#FFFFFF" d="M315.6,48l9.6-9.6h41.5c0,0,3.6,1.1,5.6-3.5c1.9-4.2-1.7-4.2-1.7-4.2h-19.3c0,0-5.5-1.3-5.6-8.1
			c-0.1-16.7,13.7-21.1,13.7-21.1H400l-8.1,8h-21.2c0,0-6.7,1.9-6.9,7.6c-0.1,2.6,3,2,3,2h17.4c0,0,10,1.7,7.7,12.5
			c-3,14.2-13.5,16.3-13.5,16.3H315.6z"/>
		<path fill="#FFFFFF" d="M282.6,47.2H300l5.3-19.2c0.6-2.3,6.7-4.9,5.1-4.6c-1.6,0.3,5.5-1.1,5.5-1.1s2.2,0.6,3.4,2.2
			c1.2,1.5-1.1,3.8-1.4,5.5c-0.3,1.8,1.9,1.9,1.9,1.9h9.7c0,0,5.2-1.9,6.6-3.9c1.4-1.9,3.1-4,3.1-5.7c0-1.7-3.9-3.8-3.9-3.8
			l-3.9-1.9h-29c0,0-13.8,7.9-15.5,9.6C286.4,26.7,282.6,47.2,282.6,47.2z"/>
		<path fill="#FFFFFF" d="M80.1,26c-1.4,1.6-5.7,15.1-4.7,17.3c1,2.2,6.3,4.7,6.3,4.7h28.3c0,0,13.2-8.2,14.1-9.4
			c1-1.2,4.7-14.3,4.7-15.7c0-1.4-3.1-6.3-3.1-6.3h-33C92.7,16.6,81.5,24.4,80.1,26z M102.1,22.9h8.7c0,0-1,10.4-3.2,13.3
			c-2.2,2.9-7.1,5.5-7.1,5.5s-5.5,0.6-6.3,0c-0.8-0.6-0.2-6.3-0.2-6.3s0.8-6.1,1.8-7.9C96.8,25.8,102.1,22.9,102.1,22.9z"/>
		<path fill="#FFFFFF" d="M185.3,26c-1.4,1.6-5.7,15.1-4.7,17.3c1,2.2,6.3,4.7,6.3,4.7h39.2c0,0,1.3-6.3,2.9-12.6
			c1.5-5.9,3.4-15,3.4-15.7c0-1.4,9.8-13.7,9.8-13.7h-17.1l-8.6,10.6h-18.6C197.8,16.6,186.7,24.4,185.3,26z M207.3,22.9h8.7
			c0,0-1,10.4-3.2,13.3c-2.2,2.9-7.1,5.5-7.1,5.5s-5.5,0.6-6.3,0c-0.8-0.6-0.2-6.3-0.2-6.3s0.8-6.1,1.8-7.9
			C202,25.8,207.3,22.9,207.3,22.9z"/>
		<path fill="#FFFFFF" d="M125.6,46.4c0,0,2-9.4,3.7-16.1c1.8-6.7,4.1-13.7,4.1-13.7h37.7c0,0,4.9,0.5,6.7,3.3
			c1.7,2.8,1.2,7.6,1.2,7.6l-4.7,18.8h-15.7c0,0,1.4-8.4,3.1-15.7c1.8-7.3-3.1-7.8-3.1-7.8h-9.4l-4.7,17.3c0,0-4.3,5.5-6.3,6.3
			C136.2,47.2,125.6,46.4,125.6,46.4z"/>
		<path fill="#FFFFFF" d="M511.8,46.4c0,0,2.8-9.5,4.5-16.2c1.8-6.7,4.9-13.6,4.9-13.6h37.7c0,0,4.9,0.5,6.7,3.3
			c1.7,2.8,1.2,7.6,1.2,7.6l-4.7,18.8h-17.3c0,0,2.9-8.4,4.7-15.7c1.8-7.3-3.1-7.8-3.1-7.8h-9.4l-4.7,17.3c0,0-4.3,5.5-6.3,6.3
			C524,47.2,511.8,46.4,511.8,46.4z"/>
		<path fill="#FFFFFF" d="M237.1,26c-1.4,1.6-5.7,15.1-4.7,17.3c1,2.2,6.3,4.7,6.3,4.7h28.3c0,0,5.6-3.5,9.8-6.3c0,0-24,0.2-25.5,0
			c-0.6-0.1-0.4-3-0.3-4.7h19.3c0,0,3.7-0.8,9.3-5.4c5.6-4.6,6.3-5.1,6.3-8.7c0-3.6-3.1-6.3-3.1-6.3h-33
			C249.6,16.6,238.5,24.4,237.1,26z M259.1,22.9h12.7c0,0-1.4,4.8-8.3,7.8h-10.5c-1.1-2.8,1.5-4.9,2.8-6.1
			C257.3,23.3,259.1,22.9,259.1,22.9z"/>
		<path fill="#FFFFFF" d="M491.4,46.4c0,0,4.8-15.3,6.4-20.7c0.9-2.9-1.1-2.8-4.8-2.8c-3.7,0-5.8-0.8-11,7.8
			c-6,10,8.9,12.7,8.9,12.7l-1.1,2.9h-17.3c0,0-9.4,0.4-9.4-11c0-13.9,17.3-18.8,17.3-18.8h37.7l-9.4,29.8H491.4z"/>
	</g>
</g>
<g>
	<path fill="#FFFFFF" d="M289.1,62.4c-2.8-0.8-6.1,3.2-8.8,9.3c-2.4,10.2-7.9,25.3-8.2,35.8c-0.2,4.6,4.1,6,7,7
		c9.2,3.2,14.5,0.1,17.3-3.2c2-2.4-0.1-4.4-2.6-3.6c-3.5,1-7.8,1.7-8.7-1.7c-1-3.8,4.2-19.2,7.8-30.7
		C294.9,69,296.6,63.8,289.1,62.4z"/>
	<path fill="#FFFFFF" d="M238.5,80.6c-6.2,0.6-18.6,3.9-18.6,19.9c0,0.8-2.3,18,20,16c22.3-2,26-16,26-16s5.5-18.5-8-18
		c-8.3,0.3-12,4-12,4s5.5,1.1,6.7,5c2.3,7.5,1.4,20.1-10.7,19c-12.2-1.2-6.2-17.2-2.4-25.4C240.9,82.3,240.6,80.3,238.5,80.6z"/>
	<path fill="#FFFFFF" d="M318.6,80.6c-6.2,0.6-18.6,3.9-18.6,19.9c0,0.8-2.3,18,20,16c22.3-2,26-16,26-16s5.5-18.5-8-18
		c-8.3,0.3-12,4-12,4s5.5,1.1,6.7,5c2.3,7.5,1.4,20.1-10.7,19c-12.2-1.2-6.2-17.2-2.4-25.4C321.1,82.3,320.7,80.3,318.6,80.6z"/>
	<path fill="#FFFFFF" d="M162.9,92.4c-1-19.8,26.3-28.7,36.1-29.4c9.7-0.8,20,1.4,20,1.4s-1.5,19.5-6,20c-4.5,0.5-3.5-14.8-12-14
		c-15.6,1.4-21.9,18.4-22,24c-0.1,2.7,0.8,15,12,14c11.3-1,13.8-7,16-8c2.3-1,6.6-3,6,2c-1.2,11-22,14-22,14S164.2,118,162.9,92.4z"
		/>
	<path fill="#FFFFFF" d="M359.2,114.5c-9.5,0.5-4.3-11-2-18c2.3-7,1.8-14.7,10-14c9,0.7,2,12,2,12s13.7-15.1,26-14c3,0.2-6,20-6,20
		s-2.3-7.3-8-6C364.7,98,368.7,114,359.2,114.5z"/>
</g>
</svg>
