<?xml version="1.0" encoding="UTF-8" standalone="no"?>
<!-- Generator: Adobe Illustrator 21.1.0, SVG Export Plug-In . SVG Version: 6.00 Build 0)  -->

<svg
   xmlns:dc="http://purl.org/dc/elements/1.1/"
   xmlns:cc="http://creativecommons.org/ns#"
   xmlns:rdf="http://www.w3.org/1999/02/22-rdf-syntax-ns#"
   xmlns:svg="http://www.w3.org/2000/svg"
   xmlns="http://www.w3.org/2000/svg"
   xmlns:sodipodi="http://sodipodi.sourceforge.net/DTD/sodipodi-0.dtd"
   xmlns:inkscape="http://www.inkscape.org/namespaces/inkscape"
   version="1.0"
   id="Ebene_1"
   x="0px"
   y="0px"
   width="566.85291"
   height="85.199997"
   viewBox="0 0 566.85288 85.2"
   enable-background="new 0 0 566.9 146.9"
   xml:space="preserve"
   sodipodi:docname="wonderswan.svg"
   inkscape:version="0.92.2 (unknown)"><metadata
     id="metadata330"><rdf:RDF><cc:Work
         rdf:about=""><dc:format>image/svg+xml</dc:format><dc:type
           rdf:resource="http://purl.org/dc/dcmitype/StillImage" /></cc:Work></rdf:RDF></metadata><defs
     id="defs328" /><sodipodi:namedview
     pagecolor="#ffffff"
     bordercolor="#666666"
     borderopacity="1"
     objecttolerance="10"
     gridtolerance="10"
     guidetolerance="10"
     inkscape:pageopacity="0"
     inkscape:pageshadow="2"
     inkscape:window-width="640"
     inkscape:window-height="480"
     id="namedview326"
     showgrid="false"
     fit-margin-top="0"
     fit-margin-left="0"
     fit-margin-right="0"
     fit-margin-bottom="0"
     inkscape:zoom="0.48156639"
     inkscape:cx="283.35001"
     inkscape:cy="42.550003"
     inkscape:window-x="0"
     inkscape:window-y="0"
     inkscape:window-maximized="0"
     inkscape:current-layer="Ebene_1" /><g
     id="g323"
     transform="translate(-0.1,-30.8)"><g
       id="g319"><polygon
         points="126.4,54.1 134.2,54.1 126.4,86.5 134.2,81.9 140.4,58.7 145,54.1 155.9,54.1 148.2,86.5 155.9,80.3 160.6,60.2 166.8,54.1 176.1,54.1 168.4,85 159.1,92.7 110.9,92.7 118.6,60.2 "
         id="polygon299"
         style="fill:#ffffff" /><polygon
         points="436.4,67.4 445.4,67.4 440.1,87.8 447.9,83.1 449.9,72.6 455.1,67.4 465.9,67.4 460.6,87.8 467.9,82.8 470,74.1 476.8,67.4 484.9,67.4 480.3,85 469.8,92.7 425.4,92.7 429.3,74.1 "
         id="polygon301"
         style="fill:#ffffff" /><path
         d="M 364.8,92.7 372.6,85 H 406 c 0,0 2.9,0.8 4.5,-2.8 1.5,-3.4 -1.4,-3.4 -1.4,-3.4 h -15.5 c 0,0 -4.5,-1 -4.5,-6.5 -0.1,-13.5 11,-16.9 11,-16.9 h 32.6 l -6.5,6.4 h -17.1 c 0,0 -5.4,1.6 -5.6,6.1 -0.1,2.1 2.5,1.6 2.5,1.6 h 13.9 c 0,0 8.1,1.4 6.2,10 -2.4,11.4 -10.8,13.1 -10.8,13.1 h -50.5 z"
         id="path303"
         inkscape:connector-curvature="0"
         style="fill:#ffffff" /><path
         d="m 338.3,92.7 h 13.9 l 4.2,-16 c 0.5,-1.9 5.4,-4 4.1,-3.8 -1.3,0.2 4.5,-0.8 4.5,-0.8 0,0 1.8,0.5 2.7,1.8 0.9,1.2 -0.9,3 -1.2,4.4 -0.3,1.4 1.6,1.6 1.6,1.6 h 7.8 c 0,0 4.2,-1.6 5.3,-3.1 1.1,-1.6 2.5,-3.2 2.5,-4.6 0,-1.4 -3.1,-3.1 -3.1,-3.1 l -3.1,-1.5 h -23.3 c 0,0 -11.1,6.4 -12.4,7.7 -0.5,0.2 -3.5,17.4 -3.5,17.4 z"
         id="path305"
         inkscape:connector-curvature="0"
         style="fill:#ffffff" /><path
         d="m 175.3,75 c -1.1,1.2 -4.6,12.1 -3.8,13.9 0.8,1.7 5.1,3.8 5.1,3.8 h 22.7 c 0,0 10.6,-6.6 11.4,-7.6 0.8,-1 3.8,-11.5 3.8,-12.6 0,-1.1 -2.5,-5.1 -2.5,-5.1 h -26.5 c -0.1,0 -9.1,6.3 -10.2,7.6 z M 193,72.5 h 7 c 0,0 -0.8,8.4 -2.5,10.8 -1.8,2.4 -5.7,4.4 -5.7,4.4 0,0 -4.4,0.5 -5,0 -0.6,-0.5 -0.2,-5.1 -0.2,-5.1 0,0 0.6,-4.9 1.4,-6.3 0.7,-1.5 5,-3.8 5,-3.8 z"
         id="path307"
         inkscape:connector-curvature="0"
         style="fill:#ffffff" /><path
         d="m 259.9,75 c -1.1,1.2 -4.6,12.1 -3.8,13.9 0.8,1.7 5.1,3.8 5.1,3.8 h 31.6 c 0,0 1,-5 2.3,-10.1 1.2,-4.8 2.7,-12.1 2.7,-12.6 0,-1.1 7.8,-11 7.8,-11 H 292 l -6.9,8.5 h -15 c 0,-0.1 -9,6.2 -10.2,7.5 z m 17.7,-2.5 h 6.9 c 0,0 -0.8,8.4 -2.5,10.8 -1.7,2.4 -5.7,4.4 -5.7,4.4 0,0 -4.4,0.5 -5.1,0 -0.6,-0.5 -0.2,-5.1 -0.2,-5.1 0,0 0.6,-4.9 1.4,-6.3 1,-1.5 5.2,-3.8 5.2,-3.8 z"
         id="path309"
         inkscape:connector-curvature="0"
         style="fill:#ffffff" /><path
         d="m 211.1,92.7 7.2,-25.3 h 30.3 c 0,0 4,0.4 5.4,2.7 1.4,2.3 1,6.2 1,6.2 l -4.1,16.4 h -12.6 c 0,0 1.5,-8 2.9,-13.9 1.4,-5.8 -2.5,-6.3 -2.5,-6.3 h -7.6 l -4.3,15.2 c 0,0 -3.8,4.4 -5.4,5.1 z"
         id="path311"
         inkscape:connector-curvature="0"
         style="fill:#ffffff" /><path
         d="m 522.2,92.7 8,-25.3 h 30.3 c 0,0 4,0.4 5.4,2.7 1.4,2.3 1,6.2 1,6.2 l -4.3,16.4 h -13.9 c 0,0 2.3,-6.8 3.8,-12.6 1.4,-5.8 -2.1,-7.6 -2.1,-7.6 h -7.6 l -4.2,15.2 c 0,0 -3.5,4.4 -5.1,5.1 z"
         id="path313"
         inkscape:connector-curvature="0"
         style="fill:#ffffff" /><path
         d="m 301.6,75 c -1.1,1.2 -4.5,12.1 -3.8,13.9 0.8,1.7 5.1,3.8 5.1,3.8 h 22.7 c 0,0 4.5,-2.8 7.9,-5.1 0,0 -19.3,0.1 -20.5,0 -0.5,-0.1 -0.3,-2.4 -0.3,-3.8 h 15.5 c 0,0 3,-0.6 7.5,-4.3 4.5,-3.7 5.1,-4.1 5.1,-7 0,-2.9 -2.5,-5.1 -2.5,-5.1 h -26.5 c -0.1,0 -9.1,6.3 -10.2,7.6 z m 17.7,-2.5 h 10.2 c 0,0 -1.1,3.9 -6.7,6.3 h -8.5 c -0.8,-2.2 1.2,-3.9 2.3,-4.9 1.2,-1.1 2.7,-1.4 2.7,-1.4 z"
         id="path315"
         inkscape:connector-curvature="0"
         style="fill:#ffffff" /><path
         d="m 505.7,92.7 c 0,0 4.3,-13.6 5.6,-17.9 0.7,-2.4 -0.9,-2.3 -3.9,-2.3 -3,0 -5.2,0.6 -9.3,7.6 -4.9,8.1 7.2,10.3 7.2,10.3 l -0.8,2.4 h -13.9 c 0,0 -7.6,0.3 -7.6,-8.8 0,-11.2 14.4,-16.4 14.4,-16.4 h 30.3 l -8.1,25.3 -13.9,-0.2 z"
         id="path317"
         inkscape:connector-curvature="0"
         style="fill:#ffffff" /></g><path
       d="m 72.6,54.2 c 0.7,0 1.4,-0.1 2.2,-0.1 15.8,0 29.4,15.3 30.4,23.1 0.1,0.8 0.2,1.6 0.2,2.2 C 105.1,58.1 72,30.8 45.3,30.8 24.8,30.8 15.2,39.1 12,48.5 c -4.7,11.8 1.5,28.6 16.1,40.6 1.6,1.2 3.1,2.4 4.7,3.5 -0.7,0.1 -1.4,0.1 -2.1,0.1 C 14.9,92.7 1.3,77.4 0.3,69.6 0.2,68.8 0.1,68 0.1,67.4 0.3,88.7 33.5,116 60.1,116 80.6,116 90.2,107.7 93.4,98.3 98.1,86.5 91.9,69.7 77.3,57.7 75.7,56.4 74.2,55.2 72.6,54.2 Z M 42.9,89.5 C 31.2,79.9 27.3,65.7 33.8,57.7 40.4,49.7 55.4,50.6 67.4,60 79.3,69.3 83.9,83.4 77.8,91.8 80.3,86.7 77.5,79.2 71,74 64,68.5 55.1,67.9 51.2,72.7 c -3.9,4.8 -1.6,13.2 5.3,18.9 5.3,4.4 11.8,6 16.4,4.4 -7.7,4 -20.1,1.7 -30,-6.5 z"
       id="path321"
       inkscape:connector-curvature="0"
       style="fill:#ffffff" /></g></svg>