<?xml version="1.0" encoding="UTF-8" standalone="no"?>
<!-- Created with Inkscape (http://www.inkscape.org/) -->

<svg
   xmlns:dc="http://purl.org/dc/elements/1.1/"
   xmlns:cc="http://creativecommons.org/ns#"
   xmlns:rdf="http://www.w3.org/1999/02/22-rdf-syntax-ns#"
   xmlns:svg="http://www.w3.org/2000/svg"
   xmlns="http://www.w3.org/2000/svg"
   xmlns:sodipodi="http://sodipodi.sourceforge.net/DTD/sodipodi-0.dtd"
   xmlns:inkscape="http://www.inkscape.org/namespaces/inkscape"
   version="1.1"
   id="svg901"
   width="1010.8716"
   height="278.66666"
   viewBox="0 0 1010.8717 278.66666"
   sodipodi:docname="x68000.svg"
   inkscape:version="0.92.2 (unknown)">
  <metadata
     id="metadata907">
    <rdf:RDF>
      <cc:Work
         rdf:about="">
        <dc:format>image/svg+xml</dc:format>
        <dc:type
           rdf:resource="http://purl.org/dc/dcmitype/StillImage" />
        <dc:title></dc:title>
      </cc:Work>
    </rdf:RDF>
  </metadata>
  <defs
     id="defs905" />
  <sodipodi:namedview
     pagecolor="#ffffff"
     bordercolor="#666666"
     borderopacity="1"
     objecttolerance="10"
     gridtolerance="10"
     guidetolerance="10"
     inkscape:pageopacity="0"
     inkscape:pageshadow="2"
     inkscape:window-width="1920"
     inkscape:window-height="1031"
     id="namedview903"
     showgrid="false"
     inkscape:pagecheckerboard="true"
     fit-margin-top="0"
     fit-margin-left="0"
     fit-margin-right="0"
     fit-margin-bottom="0"
     inkscape:zoom="0.75308257"
     inkscape:cx="358.1215"
     inkscape:cy="201.98322"
     inkscape:window-x="0"
     inkscape:window-y="0"
     inkscape:window-maximized="1"
     inkscape:current-layer="svg901" />
  <path
     style="fill:#ffffff;fill-opacity:1;stroke-width:1.33333325"
     d="M 0.00258232,278.0568 C 11.082448,265.8938 75.41445,203.0009 76.0742,203.68688 c 1.559363,1.6214 18.926428,30.89782 24.98565,42.11939 3.11024,5.76011 8.61972,15.20355 12.2433,20.98541 3.62358,5.78187 6.58832,10.81906 6.58832,11.19374 0,0.37469 -27.100002,0.68125 -60.222224,0.68125 -33.12222,0 -59.97221868,-0.27444 -59.66666368,-0.60987 z M 99.891468,269.35087 c 1.599452,-1.01961 1.682442,-1.74987 0.414372,-3.64624 C 99.433738,264.40042 95.575418,258.23334 91.731778,252 78.020292,229.7637 73.108415,222.66667 71.430066,222.66667 c -0.936153,0 -11.680917,10.02996 -23.877253,22.2888 -16.891888,16.97847 -21.836799,22.69651 -20.75499,24 1.737159,2.09316 69.852415,2.46163 73.093645,0.3954 z m 33.445272,-3.71227 c -3.97178,-7.13456 -15.06381,-26.17193 -24.64895,-42.30526 -9.585152,-16.13334 -18.559892,-31.43334 -19.943872,-34 -1.38397,-2.56667 -3.516298,-6.16667 -4.738494,-8 C 82.783227,179.5 80.053156,174.7 77.938599,170.66667 75.82404,166.63334 70.960438,158.23334 67.13059,152 58.076402,137.26371 42.558136,110.68298 42.558136,109.91066 c 0,-0.33122 29.849999,-0.44662 66.333334,-0.25644 L 175.2248,110 l 6,10.24646 c 3.3,5.63554 12.6,21.4754 20.66667,35.19966 8.06666,13.72427 16.06528,27.41336 17.77468,30.42022 1.70941,3.00685 4.55941,7.70413 6.33333,10.43841 1.77393,2.73428 3.22532,5.212 3.22532,5.50605 0,0.83539 18.72862,33.10118 21.5124,37.0617 1.36817,1.94653 2.4876,3.8504 2.4876,4.2308 0,0.3804 4.77193,8.53777 10.6043,18.1275 l 10.60431,17.43587 -66.93764,-0.0281 -66.93764,-0.0281 z m 117.22139,-1.11853 c 0,-1.18064 -3.87083,-8.61044 -8.60182,-16.51068 -4.731,-7.90023 -9.79878,-16.49513 -11.26172,-19.09977 -1.46294,-2.60464 -4.19212,-7.16292 -6.06484,-10.1295 -1.87272,-2.96658 -3.40495,-5.68844 -3.40495,-6.04856 0,-0.36012 -2.78721,-5.32204 -6.19381,-11.02649 -3.4066,-5.70445 -6.86488,-11.57173 -7.68507,-13.0384 -0.82017,-1.46667 -8.53296,-14.45581 -17.13951,-28.86477 -8.60656,-14.40896 -15.64828,-26.58779 -15.64828,-27.06406 0,-0.47626 -2.09254,-4.13712 -4.6501,-8.13522 l -4.65011,-7.26928 h -51.39174 c -43.966035,0 -51.500323,0.28297 -52.143235,1.95837 -0.641523,1.67179 6.848614,14.97727 34.373803,61.06165 2.08709,3.49436 3.79472,6.63466 3.79472,6.97843 0,0.34379 5.281072,9.48477 11.735722,20.31331 6.45464,10.82853 16.14184,27.18824 21.52712,36.3549 5.38527,9.16667 10.61802,18.01667 11.62834,19.66667 l 1.83696,3 h 51.96926 c 46.88349,0 51.96926,-0.21007 51.96926,-2.1466 z m 106.66666,2.08715 c -28.30573,-0.79052 -32.56745,-1.69202 -39.6797,-8.39355 -7.36601,-6.94065 -8.76669,-18.52836 -4.88008,-40.37235 1.15879,-6.51272 2.63588,-15.14132 3.28243,-19.17465 2.60874,-16.27396 6.08924,-34.53869 9.01978,-47.33333 3.45959,-15.10451 11.86631,-25.21762 24.43205,-29.39128 8.48943,-2.81975 27.44443,-4.50091 51.42656,-4.56116 20.05436,-0.0504 29.94178,1.36745 38.01475,5.4512 10.47153,5.29706 12.65254,11.07408 11.04346,29.2517 l -0.9368,10.58287 h -9.86122 -9.86123 v -7.79335 c 0,-12.98213 0.31394,-12.87332 -37.13998,-12.87332 -30.58816,0 -31.65227,0.0896 -35.74558,3.00931 -4.52133,3.22503 -9.59753,12.38161 -11.19295,20.19017 -0.53947,2.6403 -1.38787,6.60052 -1.88534,8.80052 l -0.9045,4 35.55567,-0.44905 c 36.52631,-0.46131 50.31787,0.67201 56.4244,4.63667 4.29883,2.79098 8.15728,11.91738 8.19234,19.37733 0.0475,10.11045 -5.56242,35.03336 -9.45658,42.01219 -5.80185,10.39768 -12.26521,18.85353 -15.58106,20.38432 -3.12639,1.44333 -26.6259,4.02322 -32.26642,3.54237 -1.1,-0.0937 -13.7,-0.49725 -28,-0.89661 z m 44.70188,-22.76378 c 7.55079,-3.54929 10.38067,-7.55916 13.12323,-18.59529 3.07341,-12.36751 2.88293,-22.65199 -0.48651,-26.26865 -3.83986,-4.12162 -9.06722,-4.68932 -37.74821,-4.0995 -23.73832,0.48818 -26.01067,0.75023 -30.48541,3.51578 -6.56927,4.06004 -10.09528,12.16988 -12.06224,27.74318 l -1.62,12.82634 4.30967,3.85069 4.30966,3.85068 h 27.32683 c 25.05205,0 27.82681,-0.23501 33.33298,-2.82323 z m 64.024,20.74176 c -10.32976,-3.85593 -17.06076,-13.75245 -17.16387,-25.23586 -0.0701,-7.80412 2.5378,-22.93096 5.34298,-30.99154 1.9928,-5.72626 12.3589,-16.3578 15.9494,-16.3578 2.81193,0 2.14648,-3.73976 -1.52106,-8.54814 -2.82964,-3.70986 -3.33333,-5.79564 -3.33333,-13.80335 0,-18.36611 5.93109,-33.63444 16.34083,-42.066 12.00466,-9.72341 10.77953,-9.50547 53.65917,-9.54597 44.06729,-0.0416 47.54225,0.49781 53.51684,8.30785 3.6379,4.75549 3.81085,5.61285 3.69601,18.32228 -0.15436,17.08272 -2.52692,24.53145 -11.46665,36 -0.57163,0.73333 -2.54838,3.21995 -4.39278,5.52581 -3.77868,4.72412 -4.091,5.80752 -1.67416,5.80752 5.28466,0 8.70834,19.1164 6.30312,35.1941 -3.10345,20.7452 -10.4594,31.75393 -24.29693,36.36222 -9.83981,3.27694 -82.72849,4.1014 -90.95957,1.02888 z m 81.10144,-17.97737 c 6.16985,-2.90017 8.12486,-5.88179 10.40181,-15.86397 3.97675,-17.43423 2.56179,-26.49942 -4.75027,-30.43316 -6.14375,-3.30523 -59.14382,-3.28498 -66.31929,0.0253 -8.98334,4.14436 -14.46358,13.95067 -16.71106,29.90275 -1.31714,9.34868 0.13482,12.2366 7.93469,15.78188 6.59259,2.99653 8.40845,3.163 35.298,3.23585 25.86575,0.0701 28.85555,-0.16183 34.14612,-2.64869 z m 9.45913,-68.03487 c 8.65187,-3.11986 15.43412,-16.11781 15.33781,-29.39432 -0.0458,-6.30669 -2.32304,-10.51197 -5.69257,-10.51197 -1.1592,0 -2.47847,-0.6 -2.93169,-1.33333 C 562.71853,136.5142 551.79805,136 534.90743,136 c -41.56956,0 -44.55917,1.53366 -48.46505,24.8622 -1.50744,9.00346 -1.43571,9.75315 1.30081,13.59624 1.98209,2.7836 4.67193,4.48459 8.52224,5.38923 8.54947,2.00872 53.7952,1.0514 60.24581,-1.27471 z m 57.30969,85.98543 c -18.04642,-4.38113 -23.61354,-16.08755 -19.34076,-40.66935 0.69047,-3.9723 2.2233,-13.22237 3.40631,-20.5557 1.183,-7.33334 2.67333,-15.43334 3.31183,-18 0.63849,-2.56667 1.89108,-8.26667 2.78353,-12.66667 7.82556,-38.58212 19.341,-51.01084 50.20064,-54.18203 17.31005,-1.7788 49.19857,-0.66786 58.10242,2.02419 7.90874,2.39119 14.73454,7.46803 17.50355,13.01865 2.36287,4.73647 3.00876,31.08998 0.92988,37.94023 -0.64523,2.12609 -2.18053,9.56563 -3.41181,16.53229 -1.23128,6.96667 -2.75862,14.76667 -3.39408,17.33334 C 723.27696,207.9 722.05166,213.6 721.18954,218 c -0.86212,4.4 -3.15446,12.8 -5.0941,18.66667 -4.55062,13.76388 -13.04296,23.16865 -24.20399,26.80448 -10.12603,3.29868 -65.7694,4.07359 -78.07052,1.08724 z m 72.29157,-20.33052 c 5.59859,-2.85672 11.11228,-9.05915 11.11228,-12.50036 0,-1.02347 0.49567,-2.43084 1.1015,-3.12751 1.45778,-1.67638 3.84697,-10.04914 5.68804,-19.93333 0.81956,-4.4 1.97166,-10.4 2.56022,-13.33333 2.04423,-10.1882 4.23674,-21.36718 5.36082,-27.33334 0.62176,-3.3 1.16622,-9.77865 1.20994,-14.397 0.0687,-7.25413 -0.36502,-8.80896 -3.18646,-11.42378 C 705.59649,138.13635 693.35741,136 674.55812,136 c -17.98344,0 -30.96737,2.11459 -37.38396,6.08842 -6.2582,3.87573 -13.65957,19.00681 -15.93565,32.57825 -0.9224,5.5 -2.17676,12.4 -2.78746,15.33333 -7.18721,34.52246 -8.0935,44.55003 -4.49122,49.69302 4.96528,7.08892 11.37585,8.27754 41.93162,7.77484 22.04473,-0.3627 25.25707,-0.70708 30.22105,-3.23999 z m 67.77895,20.50388 c -9.4762,-2.3312 -15.04379,-5.54472 -18.12789,-10.46315 -2.40483,-3.8351 -2.61112,-5.89346 -2.03147,-20.2686 0.35485,-8.8 1.26153,-19.3 2.01484,-23.33333 1.39568,-7.47276 4.75443,-24.37648 6.75575,-34 0.61001,-2.93333 1.82749,-8.9188 2.7055,-13.30105 3.76666,-18.7997 15.06956,-35.00215 28.42592,-40.74791 11.24495,-4.83744 42.6428,-6.66942 66.82551,-3.89907 15.5517,1.78159 23.97339,6.11696 28.38973,14.6147 2.84568,5.4755 3.06238,7.2238 2.47913,20 -0.63356,13.87809 -1.03476,16.73678 -5.42661,38.66666 -1.24834,6.23334 -2.74563,13.73334 -3.32732,16.66667 -3.00996,15.17849 -4.13051,19.75609 -6.71159,27.41792 -5.55237,16.48196 -13.7729,24.55736 -29.02093,28.50851 -10.0652,2.60816 -62.507,2.70784 -72.95057,0.13865 z m 70.73524,-19.89217 c 9.70978,-5.02142 15.65549,-17.13403 19.39242,-39.50624 1.672,-10.0099 2.71759,-15.46423 5.6232,-29.33334 4.746,-22.65364 4.14854,-32.7021 -2.11948,-35.64648 -13.15862,-6.18121 -57.88458,-5.69041 -69.91052,0.76715 -7.16397,3.84684 -13.64204,16.91639 -16.95788,34.21267 -1.26528,6.6 -2.82418,14.4 -3.46424,17.33333 -3.44314,15.77963 -5.70182,30.21244 -5.81569,37.16175 -0.12266,7.48762 0.0949,8.02138 4.9996,12.2611 6.33347,5.47486 8.36,5.74395 39.51735,5.24731 19.27473,-0.30723 25.55602,-0.85311 28.73524,-2.49725 z m 67.95705,19.72026 c -8.40434,-2.0774 -15.29396,-6.01456 -17.94048,-10.2523 -1.63028,-2.61051 -2.27788,-35.83831 -0.74675,-38.31572 0.42891,-0.694 1.70637,-6.52606 2.83881,-12.96015 7.99646,-45.4326 12.33222,-59.12995 22.35356,-70.61821 7.40598,-8.49008 16.6368,-12.22176 34.47243,-13.93595 18.42956,-1.77127 48.64978,-0.55996 58.45163,2.34288 8.46366,2.50653 16.34096,9.88047 17.86626,16.72456 1.4294,6.41371 1.3072,17.61392 -0.3179,29.12172 -2.4721,17.50679 -8.2832,46.89824 -12.65346,64 -4.2981,16.81864 -13.86189,28.72355 -26.34973,32.79972 -10.15433,3.31449 -65.83031,4.09524 -77.97437,1.09345 z m 71.33477,-19.64336 c 9.8189,-4.2459 14.12853,-13.1575 19.46464,-40.24981 1.1555,-5.86667 2.57704,-13.06667 3.15898,-16 3.96861,-20.00424 5.30321,-28.9598 5.32471,-35.73033 0.021,-6.50835 -0.4917,-8.20879 -3.2413,-10.75712 C 984.19481,138.07302 971.96564,136 952.17276,136 c -20.67953,0 -35.68414,3.12742 -40.00954,8.3392 -4.14456,4.99388 -9.75783,18.31646 -11.53683,27.38155 -1.10949,5.65359 -2.63063,13.27925 -3.38029,16.94592 -7.04552,34.46012 -8.12116,45.61411 -4.87639,50.56625 4.94248,7.54319 11.21683,8.7593 42.1884,8.17699 18.30447,-0.34415 25.87731,-0.98727 29.3604,-2.49343 z M 229.71288,173.66579 c -3.76489,-6.41619 -8.64967,-14.96579 -10.85505,-18.99912 -2.20539,-4.03333 -7.07503,-12.32737 -10.82142,-18.43121 -3.74638,-6.10383 -6.81161,-11.34482 -6.81161,-11.64663 0,-0.30183 -1.86995,-3.58783 -4.15545,-7.30224 -2.2855,-3.7144 -3.87919,-7.02972 -3.54154,-7.36738 0.33766,-0.33765 27.07063,-0.4576 59.40661,-0.26656 L 311.72713,110 274.37212,147.66667 c -20.54527,20.71667 -37.45829,37.66627 -37.58451,37.66579 -0.12626,-4.8e-4 -3.30984,-5.25048 -7.07473,-11.66667 z m 35.17858,-30.89483 c 11.91667,-12.4088 21.66667,-23.2086 21.66667,-23.99954 0,-1.81839 -74.14321,-2.0304 -75.26506,-0.21522 -0.64194,1.03867 11.66406,22.15375 14.05172,24.11047 0.44742,0.36667 1.05346,1.26675 1.34676,2.00019 2.4083,6.02245 12.57804,20.6664 14.35188,20.66602 1.19974,-2.5e-4 11.93137,-10.1531 23.84803,-22.56192 z m -5,-61.578164 c -6.96666,-0.608933 -14.04489,-1.726421 -15.7294,-2.483306 -1.6845,-0.756887 -4.49909,-1.376156 -6.25465,-1.376156 -1.75554,0 -3.51482,-0.522503 -3.9095,-1.161118 -0.3947,-0.638614 -2.38011,-1.501358 -4.41203,-1.917209 -2.03193,-0.415851 -4.78675,-1.566253 -6.12183,-2.556452 -2.31897,-1.719933 -2.25761,-2.165521 1.37343,-9.974444 3.72113,-8.00266 3.86991,-8.13624 7.09408,-6.369564 6.09188,3.338028 12.35628,5.978787 14.18285,5.978787 0.99728,0 2.85509,0.536014 4.12848,1.191144 6.326,3.254597 38.94313,7.614952 45.76108,6.117477 7.59499,-1.668139 9.92576,-6.639143 5.18416,-11.056619 -4.3744,-4.075369 -21.82736,-8.072466 -44.63,-10.221212 -40.08752,-3.777541 -48.27805,-33.130057 -12,-43.004561 C 252.96665,2.070852 268.53185,0 277.32604,0 c 13.28997,0 35.57713,3.727531 45.41489,7.595648 l 4.84945,1.906764 -3.29397,6.248794 c -1.81168,3.436837 -3.71029,6.685148 -4.21913,7.218468 -0.50884,0.53332 -5.19078,-0.513763 -10.40431,-2.326851 -26.29317,-9.143861 -55.08307,-9.59804 -58.41256,-0.921493 -2.1414,5.580398 6.14248,8.923181 32.23827,13.009057 25.3881,3.975075 30.36684,5.250599 36.77817,9.422369 9.75167,6.345284 12.94567,17.245331 7.94588,27.116612 -3.55587,7.020478 -11.6434,10.358568 -29.1096,12.014851 -16.146,1.531088 -20.78252,1.520288 -39.22167,-0.09143 z m 79.28916,-2.827114 c -0.36697,-0.956327 -0.50716,-17.92983 -0.31153,-37.718895 l 0.35571,-35.98012 h 11.8575 11.85751 l -0.26978,12.273496 c -0.41421,18.844492 -1.98633,17.852719 27.6173,17.422361 L 415.22479,34 415.89146,19.333334 416.55813,4.666667 h 11.7111 11.71112 V 42 79.333334 h -11.71112 -11.7111 L 415.89146,64 415.22479,48.666667 390.73173,48.302638 c -17.44388,-0.25926 -25.04295,0.09233 -26.4037,1.221653 -1.46941,1.219504 -1.85394,4.844473 -1.66517,15.697363 l 0.24545,14.11168 -11.53022,0.385561 c -8.53409,0.285373 -11.70361,-0.06625 -12.19747,-1.353213 z M 447.92111,79 c 0.0163,-0.55 1.20296,-2.5 2.63701,-4.333333 1.43406,-1.833333 2.62071,-3.777196 2.63702,-4.319695 0.0163,-0.5425 2.62974,-5.042764 5.80762,-10.000588 3.17788,-4.957824 6.02788,-9.647636 6.33334,-10.421802 0.30545,-0.774167 6.82906,-11.423903 14.49692,-23.666079 L 493.77458,4 h 14.37285 14.37285 l 3.19583,5 c 8.70544,13.620015 30.17534,48.484596 30.17534,49.00119 0,0.323773 2.7,5.155534 6,10.737249 3.3,5.581713 6,10.398993 6,10.705065 0,0.306074 -5.90798,0.556496 -13.12886,0.556496 h -13.12887 l -5.87113,-9 -5.87113,-9 h -27.27211 -27.27211 l -5.17016,9 -5.17017,9 h -8.55772 c -4.70676,0 -8.54438,-0.45 -8.52808,-1 z M 519.8618,46.333334 c -0.0163,-0.916667 -1.20296,-3.166667 -2.63701,-5 -1.43405,-1.833334 -2.62071,-3.748682 -2.63701,-4.256328 -0.0163,-0.507648 -2.47416,-4.821739 -5.46188,-9.586871 -3.63512,-5.797661 -6.06116,-8.422531 -7.33334,-7.934353 -1.04561,0.401237 -1.9011,1.147117 -1.9011,1.65751 0,0.510394 -3.3,6.183948 -7.33334,12.6079 -4.03333,6.423952 -7.33333,12.242164 -7.33333,12.92936 0,0.712968 7.44248,1.249448 17.33333,1.249448 12.99359,0 17.32591,-0.417282 17.30368,-1.666666 z m 56.91855,32.777777 c -0.4889,-0.488888 -0.8889,-17.797703 -0.8889,-38.464032 V 3.071936 l 17,-1.118677 c 33.8137,-2.225095 55.05067,-1.283969 66.33333,2.939587 12.06054,4.514744 18,11.95548 18,22.549713 0,5.571092 -0.61238,6.854036 -5.70014,11.941796 -4.22746,4.22746 -7.75838,6.285416 -13.66667,7.965483 -13.06029,3.713788 -13.03272,3.890758 2.70375,17.351625 7.69041,6.578327 14.58568,12.161631 15.32281,12.407343 0.73715,0.245713 1.34025,0.99675 1.34025,1.668972 C 677.22478,79.45349 669.75444,80 660.518,80 H 643.81121 L 631.518,68.964078 c -6.76127,-6.069756 -15.41248,-13.637767 -19.22492,-16.8178 -6.71044,-5.597304 -6.86623,-5.881835 -4.88007,-8.913092 1.944,-2.966918 2.59036,-3.089674 12.31832,-2.339508 17.19311,1.325837 30.82679,-4.512534 30.82679,-13.200995 0,-3.737419 -4.8338,-10.015021 -9.77179,-12.690508 -3.34749,-1.813733 -7.6998,-2.295565 -20.89488,-2.313215 -9.16666,-0.01227 -17.71666,0.408876 -19,0.93586 -2.13277,0.875796 -2.33333,3.769602 -2.33333,33.666667 V 80 h -10.44444 c -5.74445,0 -10.84445,-0.4 -11.33333,-0.888889 z M 687.89145,41.516359 V 3.032716 l 15.66667,-0.847893 c 8.61666,-0.466341 20.69433,-1.230289 26.83925,-1.697663 11.52443,-0.87653 23.69048,0.564614 37.83766,4.482108 19.50107,5.400034 26.74216,23.179972 14.81636,36.380408 -4.89761,5.421082 -11.62025,8.415728 -23.73816,10.574342 -8.89946,1.585297 -28.62745,1.709036 -38.88418,0.243889 -3.73765,-0.533913 -7.48765,-0.740111 -8.33333,-0.458217 -1.03004,0.343345 -1.5376,5.097278 -1.5376,14.401421 V 80 h -11.33334 -11.33333 z m 64.89243,-1.432289 c 6.52538,-2.962767 8.4409,-5.960826 8.4409,-13.211223 0,-4.272379 -0.78884,-5.966228 -4.06063,-8.719255 -2.23334,-1.879234 -6.58334,-4.0999 -9.66666,-4.934813 -5.90569,-1.599161 -32.50373,-1.136108 -35.33741,0.615199 -2.22107,1.372698 -2.20374,24.303396 0.0195,25.677378 6.08747,3.762254 32.75122,4.138339 40.60439,0.572714 z"
     id="path1464"
     inkscape:connector-curvature="0" />
</svg>
