<?xml version="1.0" encoding="UTF-8" standalone="no"?>
<svg
   xmlns:ns="&amp;#38;ns_sfw;"
   xmlns:dc="http://purl.org/dc/elements/1.1/"
   xmlns:cc="http://creativecommons.org/ns#"
   xmlns:rdf="http://www.w3.org/1999/02/22-rdf-syntax-ns#"
   xmlns:svg="http://www.w3.org/2000/svg"
   xmlns="http://www.w3.org/2000/svg"
   xmlns:sodipodi="http://sodipodi.sourceforge.net/DTD/sodipodi-0.dtd"
   xmlns:inkscape="http://www.inkscape.org/namespaces/inkscape"
   inkscape:version="1.0 (4035a4fb49, 2020-05-01)"
   sodipodi:docname="zmachine.svg"
   xml:space="preserve"
   viewBox="0 0 551.3242 88.538001"
   height="88.538002"
   width="551.32422"
   y="0px"
   x="0px"
   id="Ebene_1"
   version="1.2"><defs
     id="defs30" /><sodipodi:namedview
     lock-margins="true"
     inkscape:document-rotation="0"
     inkscape:current-layer="Ebene_1_1_"
     inkscape:window-maximized="0"
     inkscape:window-y="0"
     inkscape:window-x="0"
     inkscape:cy="67.413725"
     inkscape:cx="339.04492"
     inkscape:zoom="1.9261671"
     inkscape:pagecheckerboard="true"
     fit-margin-bottom="5"
     fit-margin-right="5"
     fit-margin-left="5"
     fit-margin-top="5"
     showgrid="false"
     id="namedview28"
     inkscape:window-height="503"
     inkscape:window-width="1904"
     inkscape:pageshadow="2"
     inkscape:pageopacity="0"
     guidetolerance="10"
     gridtolerance="10"
     objecttolerance="10"
     borderopacity="1"
     bordercolor="#666666"
     pagecolor="#ffffff" /><metadata
     id="metadata2"><ns:sfw><ns:slices /><ns:sliceSourceBounds
         bottomLeftOrigin="true"
         height="89.618"
         width="566.927"
         y="490.276"
         x="677.036" /></ns:sfw><rdf:RDF><cc:Work
         rdf:about=""><dc:format>image/svg+xml</dc:format><dc:type
           rdf:resource="http://purl.org/dc/dcmitype/StillImage" /><dc:title></dc:title></cc:Work></rdf:RDF></metadata><g
     transform="translate(5,-14.906)"
     id="Ebene_1_1_"><g
       style="fill:#ffffff;fill-opacity:1;stroke:none"
       id="g6"><path
         style="fill:#ffffff;fill-opacity:1;stroke:none"
         inkscape:connector-curvature="0"
         id="path4"
         d="m 12,98.442 c -6.627,0 -12,-5.373 -12,-12 V 31.906 c 0,-6.628 5.373,-12 12,-12 6.627,0 12,5.371 12,12 v 54.535 c 0,6.628 -5.373,12.001 -12,12.001 z" /></g><path
       style="fill:#ffffff;fill-opacity:1;stroke:none"
       inkscape:connector-curvature="0"
       id="path8"
       d="m 174.735,48.034 h -36.223 v -6.528 h 36.223 c 5.964,0 10.799,-4.835 10.799,-10.799 0,-5.965 -4.835,-10.8 -10.799,-10.8 h -49.423 c -5.965,0 -10.8,4.835 -10.8,10.8 0,0.203 0,55.735 0,55.735 0,6.627 5.373,12 12,12 6.627,0 12,-5.373 12,-12 v -16.81 h 36.223 c 5.964,0 10.799,-4.835 10.799,-10.8 0.001,-5.963 -4.834,-10.798 -10.799,-10.798 z" /><path
       style="fill:#ffffff;fill-opacity:1;stroke:none"
       inkscape:connector-curvature="0"
       id="path10"
       d="m 540.859,82.934 -15.535,-54.18 c -0.918,-3.207 -3.068,-5.724 -5.787,-7.194 -1.66,-1.041 -3.619,-1.652 -5.723,-1.652 h -57 c -0.373,0 -0.742,0.019 -1.105,0.056 -6.107,0.56 -10.895,5.688 -10.895,11.944 v 54.535 c 0,6.627 5.371,12 12,12 6.627,0 12,-5.373 12,-12 V 41.506 h 5.314 v 44.938 c 0,6.627 5.373,12 12,12 6.625,0 11.998,-5.373 11.998,-12 V 41.506 h 6.041 l 13.766,48.002 c 1.5,5.233 6.271,8.644 11.457,8.644 1.088,0 2.193,-0.149 3.293,-0.465 6.33,-1.819 9.992,-8.422 8.176,-14.753 z" /><path
       style="fill:#ffffff;fill-opacity:1;stroke:none"
       inkscape:connector-curvature="0"
       id="path12"
       d="m 250.508,19.907 h -40.751 c -11.338,0 -20.615,9.276 -20.615,20.614 v 37.306 c 0,11.338 9.277,20.614 20.615,20.614 h 40.751 c 11.339,0 20.615,-9.276 20.615,-20.614 V 40.522 c 0,-11.338 -9.276,-20.615 -20.615,-20.615 z m -2.65,53.848 c 0,1.32 -1.08,2.4 -2.4,2.4 h -30.652 c -1.32,0 -2.4,-1.08 -2.4,-2.4 V 44.593 c 0,-1.318 1.08,-2.398 2.4,-2.398 h 30.652 c 1.32,0 2.4,1.08 2.4,2.398 z" /><path
       style="fill:#ffffff;fill-opacity:1;stroke:none"
       inkscape:connector-curvature="0"
       id="path14"
       d="M 419.322,19.907 H 378.57 c -11.336,0 -20.615,9.276 -20.615,20.614 v 37.306 c 0,11.338 9.279,20.614 20.615,20.614 h 40.752 c 11.338,0 20.613,-9.276 20.613,-20.614 V 40.522 c 0,-11.338 -9.275,-20.615 -20.613,-20.615 z m -2.651,53.848 c 0,1.32 -1.08,2.4 -2.398,2.4 h -30.652 c -1.32,0 -2.4,-1.08 -2.4,-2.4 V 44.593 c 0,-1.318 1.08,-2.398 2.4,-2.398 h 30.652 c 1.318,0 2.398,1.08 2.398,2.398 z" /><path
       style="fill:#ffffff;fill-opacity:1;stroke:none"
       inkscape:connector-curvature="0"
       id="path16"
       d="M 105.464,19.907 H 34.742 c -3.005,0 -5.441,2.436 -5.441,5.44 v 61.095 c 0,6.627 5.373,12 12,12 6.627,0 11.861,-5.373 11.861,-12 V 44.583 c 0,-1.318 1.08,-2.398 2.4,-2.398 h 28.855 c 1.32,0 2.488,1.08 2.488,2.398 v 41.858 c 0,6.627 5.373,12 12,12 6.627,0 12,-5.373 12,-12 V 40.986 25.348 c 0,-3.005 -2.436,-5.441 -5.441,-5.441 z" /><path
       style="fill:#ffffff;fill-opacity:1;stroke:none"
       inkscape:connector-curvature="0"
       id="path18"
       d="m 345.042,76.156 h -42.9 c -1.32,0 -2.4,-1.08 -2.4,-2.4 V 44.593 c 0,-1.318 1.08,-2.398 2.4,-2.398 h 42.9 c 6.152,0 11.145,-4.988 11.145,-11.145 0,-6.153 -4.99,-11.144 -11.145,-11.144 h -15.545 -30.555 -2.564 c -11.279,0 -20.507,9.228 -20.507,20.507 v 37.521 c 0,11.276 9.228,20.507 20.507,20.507 h 2.564 30.555 15.545 c 6.152,0 11.145,-4.988 11.145,-11.146 0,-6.154 -4.99,-11.139 -11.145,-11.139 z" /></g></svg>
