<?xml version="1.0" encoding="utf-8"?>
<!-- Generator: Adobe Illustrator 21.1.0, SVG Export Plug-In . SVG Version: 6.00 Build 0)  -->
<svg version="1.0"
	 id="Ebene_1" xmlns:corel-charset="http://product.corel.com/CGS/11/cddns/" xmlns:odm="http://product.corel.com/CGS/11/cddns/"
	 xmlns="http://www.w3.org/2000/svg" xmlns:xlink="http://www.w3.org/1999/xlink" x="0px" y="0px" width="420.9px" height="96.9px"
	 viewBox="0 0 420.9 96.9" enable-background="new 0 0 420.9 96.9" xml:space="preserve">
<g>
	<path fill="#FFFFFF" d="M49.1,96.7v-6.2h48.6v-7.1H49.1l-0.3-19.1h55.1v6.2H55.3l0.3,6.7h48.6v19.5H49.1L49.1,96.7z"/>
	<path fill="#FFFFFF" d="M108.3,96.7V64.5h6.6v32.3h-6.6V96.7z"/>
	<path fill="#FFFFFF" d="M118.4,96.7V64.5h55.2v32.3H167V70.7h-42v26.1L118.4,96.7L118.4,96.7L118.4,96.7z"/>
	<path fill="#FFFFFF" d="M177.1,96.7V64.5h55.3v6.2h-48.6v19.9h48.6v6.2L177.1,96.7L177.1,96.7z"/>
	<path fill="#FFFFFF" d="M236.8,96.7v-42h6.6v42H236.8L236.8,96.7z"/>
	<path fill="#FFFFFF" d="M306.2,96.7V64.5h6.7v32.3h-6.7V96.7z"/>
	<path fill="#FFFFFF" d="M316.8,96.7V64.5H372v6.2h-48.6v26.1L316.8,96.7L316.8,96.7L316.8,96.7z"/>
	<path fill="#FFFFFF" d="M246.9,64.5v6.2h48.6v7.1h-48.6v19h55.3V64.5H246.9z M295.6,90.6h-42v-7.1h42V90.6z"/>
	<path fill="#FFFFFF" d="M108.3,60.9v-6.2h6.6v6.2H108.3L108.3,60.9z"/>
	<path fill="#FFFFFF" d="M306.2,60.9v-6.2h6.7v6.2H306.2L306.2,60.9z"/>
	<polygon fill="#FFFFFF" points="166.1,0.4 117.9,48.6 145.4,48.6 193.6,0.4 	"/>
	<polygon fill="#FFFFFF" points="211.5,0.4 163.2,48.6 190.7,48.6 239,0.4 	"/>
	<polygon fill="#FFFFFF" points="256.9,0.4 208.7,48.6 236.1,48.6 284.3,0.4 	"/>
</g>
</svg>
