<?xml version="1.0" encoding="UTF-8" standalone="no"?>
<!-- Generator: Adobe Illustrator 17.0.0, SVG Export Plug-In . SVG Version: 6.00 Build 0)  -->

<svg
   xmlns:dc="http://purl.org/dc/elements/1.1/"
   xmlns:cc="http://creativecommons.org/ns#"
   xmlns:rdf="http://www.w3.org/1999/02/22-rdf-syntax-ns#"
   xmlns:svg="http://www.w3.org/2000/svg"
   xmlns="http://www.w3.org/2000/svg"
   xmlns:sodipodi="http://sodipodi.sourceforge.net/DTD/sodipodi-0.dtd"
   xmlns:inkscape="http://www.inkscape.org/namespaces/inkscape"
   version="1.1"
   id="Layer_1"
   x="0px"
   y="0px"
   width="941.31097"
   height="188.91299"
   viewBox="0 0 941.311 188.91299"
   enable-background="new 0 0 952.876 204.393"
   xml:space="preserve"
   sodipodi:docname="zxspectrum.svg"
   inkscape:version="0.92.2 (unknown)"><metadata
     id="metadata61"><rdf:RDF><cc:Work
         rdf:about=""><dc:format>image/svg+xml</dc:format><dc:type
           rdf:resource="http://purl.org/dc/dcmitype/StillImage" /><dc:title></dc:title></cc:Work></rdf:RDF></metadata><defs
     id="defs59" /><sodipodi:namedview
     pagecolor="#ffffff"
     bordercolor="#666666"
     borderopacity="1"
     objecttolerance="10"
     gridtolerance="10"
     guidetolerance="10"
     inkscape:pageopacity="0"
     inkscape:pageshadow="2"
     inkscape:window-width="1920"
     inkscape:window-height="1055"
     id="namedview57"
     showgrid="false"
     fit-margin-top="0"
     fit-margin-left="0"
     fit-margin-right="0"
     fit-margin-bottom="0"
     inkscape:pagecheckerboard="true"
     inkscape:zoom="0.57300217"
     inkscape:cx="349.93618"
     inkscape:cy="58.914679"
     inkscape:window-x="0"
     inkscape:window-y="0"
     inkscape:window-maximized="1"
     inkscape:current-layer="g32" /><g
     id="g22"
     transform="translate(-8.845,-7.393)"
     style="fill:#ffffff"><rect
       x="132.267"
       y="51.143002"
       width="22.608999"
       height="19.5"
       id="rect2"
       style="fill:#ffffff" /><polygon
       points="126.751,74.143 8.876,74.143 8.845,119.893 104.251,119.893 104.251,127.393 8.845,127.393 8.845,147.393 126.861,147.393 126.861,101.393 31.329,101.393 31.329,93.643 126.751,93.643 "
       id="polygon4"
       style="fill:#ffffff" /><rect
       x="403.517"
       y="53.558998"
       width="22.608999"
       height="94"
       id="rect6"
       style="fill:#ffffff" /><rect
       x="552.01703"
       y="74.376999"
       width="22.608999"
       height="73.015999"
       id="rect8"
       style="fill:#ffffff" /><rect
       x="132.267"
       y="74.376999"
       width="22.608999"
       height="73.015999"
       id="rect10"
       style="fill:#ffffff" /><polygon
       points="182.501,93.877 254.392,93.877 254.392,147.393 277.001,147.393 277.001,74.377 159.892,74.377 159.892,147.476 182.501,147.476 "
       id="polygon12"
       style="fill:#ffffff" /><polygon
       points="398.71,93.877 398.741,74.377 281.892,74.377 281.892,147.393 398.71,147.393 398.71,127.393 304.501,127.393 304.501,93.877 "
       id="polygon14"
       style="fill:#ffffff" /><path
       d="M 547.251,147.393 V 74.377 H 431.043 v 19.5 h 93.599 v 7.571 h -93.599 v 45.945 z m -22.609,-20 h -70.99 v -7.5 h 70.99 z"
       id="path16"
       inkscape:connector-curvature="0"
       style="fill:#ffffff" /><rect
       x="552.01703"
       y="51.143002"
       width="22.608999"
       height="19.417"
       id="rect18"
       style="fill:#ffffff" /><polygon
       points="694.543,93.893 694.543,74.377 580.267,74.377 580.267,147.393 602.876,147.393 602.876,93.893 "
       id="polygon20"
       style="fill:#ffffff" /></g><g
     id="g32"
     transform="translate(-8.845,-7.393)"
     style="fill:#ffffff"><polygon
       points="802.156,7.393 754.823,7.393 691.876,147.393 739.21,147.393 "
       id="polygon24"
       style="fill:#ffffff" /><polygon
       points="802.156,7.393 739.21,147.393 786.543,147.393 849.49,7.393 "
       id="polygon26"
       style="fill:#ffffff"
       transform="translate(2)" /><polygon
       points="786.543,147.393 833.876,147.393 896.823,7.393 849.49,7.393 "
       id="polygon28"
       style="fill:#ffffff"
       transform="translate(4)" /><polygon
       points="881.21,147.393 944.156,7.393 896.823,7.393 833.876,147.393 "
       id="polygon30"
       style="fill:#ffffff"
       transform="translate(6)" /></g><g
     id="g54"
     transform="translate(-8.845,-7.393)"
     style="fill:#ffffff"><path
       d="M 35.708,185.727 H 9.766 v -4.178 L 26.275,159.425 H 10.956 v -5.907 h 24.707 v 4.065 l -16.149,22.259 h 16.194 z"
       id="path34"
       inkscape:connector-curvature="0"
       style="fill:#ffffff" /><path
       d="m 65.185,185.727 h -8.603 l -5.548,-10.489 c -0.21,-0.39 -0.427,-1.108 -0.651,-2.156 h -0.09 c -0.105,0.494 -0.352,1.243 -0.741,2.246 l -5.57,10.399 H 35.335 L 45.6,169.623 36.211,153.519 h 8.827 l 4.604,9.658 c 0.359,0.764 0.681,1.67 0.966,2.718 h 0.09 c 0.18,-0.629 0.517,-1.564 1.011,-2.808 l 5.121,-9.568 h 8.086 l -9.658,15.97 z"
       id="path36"
       inkscape:connector-curvature="0"
       style="fill:#ffffff" /><path
       d="m 77.106,184.491 v -7.188 c 1.303,1.093 2.718,1.913 4.245,2.46 1.527,0.546 3.069,0.819 4.627,0.819 0.913,0 1.71,-0.082 2.392,-0.247 0.681,-0.165 1.25,-0.393 1.707,-0.686 0.457,-0.291 0.797,-0.636 1.022,-1.033 0.225,-0.396 0.337,-0.827 0.337,-1.291 0,-0.629 -0.18,-1.19 -0.539,-1.685 -0.359,-0.495 -0.85,-0.951 -1.471,-1.37 -0.622,-0.419 -1.359,-0.823 -2.212,-1.213 -0.853,-0.39 -1.774,-0.786 -2.763,-1.19 -2.516,-1.048 -4.391,-2.328 -5.626,-3.841 -1.235,-1.513 -1.853,-3.339 -1.853,-5.48 0,-1.677 0.337,-3.118 1.011,-4.324 0.674,-1.205 1.591,-2.197 2.751,-2.976 1.16,-0.778 2.504,-1.352 4.032,-1.718 1.527,-0.367 3.145,-0.551 4.852,-0.551 1.677,0 3.163,0.102 4.458,0.303 1.295,0.203 2.489,0.514 3.583,0.933 v 6.716 c -0.539,-0.374 -1.127,-0.704 -1.763,-0.988 -0.637,-0.284 -1.292,-0.521 -1.965,-0.707 -0.674,-0.188 -1.344,-0.326 -2.01,-0.416 -0.667,-0.09 -1.299,-0.135 -1.898,-0.135 -0.824,0 -1.572,0.078 -2.246,0.236 -0.674,0.156 -1.243,0.378 -1.707,0.662 -0.464,0.284 -0.824,0.625 -1.078,1.021 -0.255,0.397 -0.382,0.843 -0.382,1.337 0,0.539 0.142,1.022 0.427,1.448 0.284,0.428 0.688,0.832 1.213,1.213 0.524,0.383 1.16,0.757 1.909,1.123 0.749,0.367 1.595,0.745 2.538,1.135 1.288,0.539 2.444,1.111 3.47,1.719 1.025,0.605 1.905,1.291 2.639,2.055 0.733,0.764 1.295,1.636 1.685,2.617 0.389,0.98 0.584,2.122 0.584,3.425 0,1.797 -0.341,3.306 -1.022,4.526 -0.682,1.22 -1.606,2.208 -2.774,2.965 -1.168,0.756 -2.527,1.299 -4.077,1.628 -1.55,0.329 -3.186,0.494 -4.908,0.494 -1.767,0 -3.448,-0.149 -5.042,-0.449 -1.594,-0.3 -2.978,-0.748 -4.146,-1.347 z"
       id="path38"
       inkscape:connector-curvature="0"
       style="fill:#ffffff" /><path
       d="m 109.301,183.054 h -0.09 v 13.252 h -7.098 v -33.579 h 7.098 v 3.459 h 0.09 c 1.752,-2.681 4.215,-4.021 7.39,-4.021 2.979,0 5.282,1.022 6.907,3.065 1.625,2.045 2.437,4.826 2.437,8.345 0,3.833 -0.947,6.91 -2.841,9.231 -1.895,2.321 -4.414,3.481 -7.558,3.481 -2.772,0.001 -4.883,-1.077 -6.335,-3.233 z m -0.202,-9.434 v 1.842 c 0,1.587 0.419,2.883 1.258,3.886 0.838,1.003 1.939,1.505 3.302,1.505 1.617,0 2.871,-0.625 3.762,-1.876 0.891,-1.25 1.336,-3.021 1.336,-5.312 0,-4.043 -1.572,-6.064 -4.717,-6.064 -1.453,0 -2.639,0.55 -3.56,1.651 -0.921,1.1 -1.381,2.557 -1.381,4.368 z"
       id="path40"
       inkscape:connector-curvature="0"
       style="fill:#ffffff" /><path
       d="m 149.739,176.248 h -15.004 c 0.239,3.339 2.343,5.009 6.312,5.009 2.53,0 4.754,-0.599 6.671,-1.797 v 5.121 c -2.126,1.138 -4.889,1.707 -8.288,1.707 -3.714,0 -6.596,-1.029 -8.647,-3.089 -2.052,-2.059 -3.077,-4.93 -3.077,-8.613 0,-3.818 1.108,-6.843 3.324,-9.074 2.216,-2.231 4.941,-3.347 8.176,-3.347 3.354,0 5.948,0.996 7.783,2.987 1.834,1.991 2.751,4.694 2.751,8.108 v 2.988 z m -6.581,-4.357 c 0,-3.294 -1.333,-4.941 -3.998,-4.941 -1.138,0 -2.123,0.472 -2.954,1.415 -0.831,0.943 -1.336,2.119 -1.516,3.526 z"
       id="path42"
       inkscape:connector-curvature="0"
       style="fill:#ffffff" /><path
       d="m 169.827,184.896 c -1.603,0.929 -3.916,1.393 -6.94,1.393 -3.534,0 -6.394,-1.07 -8.58,-3.212 -2.187,-2.142 -3.279,-4.904 -3.279,-8.288 0,-3.908 1.171,-6.989 3.515,-9.243 2.343,-2.253 5.477,-3.38 9.4,-3.38 2.71,0 4.672,0.359 5.885,1.078 v 6.02 c -1.482,-1.108 -3.137,-1.662 -4.964,-1.662 -2.037,0 -3.65,0.595 -4.84,1.786 -1.19,1.189 -1.786,2.833 -1.786,4.93 0,2.036 0.569,3.635 1.707,4.795 1.138,1.161 2.703,1.741 4.694,1.741 1.767,0 3.496,-0.554 5.188,-1.662 z"
       id="path44"
       inkscape:connector-curvature="0"
       style="fill:#ffffff" /><path
       d="m 186.816,185.457 c -1.048,0.554 -2.628,0.831 -4.739,0.831 -5.001,0 -7.502,-2.598 -7.502,-7.794 V 167.96 h -3.729 v -5.233 h 3.729 v -4.964 l 7.075,-2.021 v 6.985 h 5.166 v 5.233 h -5.166 v 9.299 c 0,2.396 0.951,3.594 2.853,3.594 0.749,0 1.52,-0.217 2.313,-0.651 z"
       id="path46"
       inkscape:connector-curvature="0"
       style="fill:#ffffff" /><path
       d="m 204.254,169.128 c -0.854,-0.464 -1.85,-0.696 -2.987,-0.696 -1.542,0 -2.748,0.565 -3.616,1.695 -0.869,1.131 -1.303,2.67 -1.303,4.616 v 10.983 h -7.098 v -23 h 7.098 v 4.268 h 0.09 c 1.123,-3.114 3.145,-4.672 6.064,-4.672 0.749,0 1.333,0.09 1.752,0.27 z"
       id="path48"
       inkscape:connector-curvature="0"
       style="fill:#ffffff" /><path
       d="m 227.846,185.727 h -7.075 v -3.504 h -0.112 c -1.752,2.71 -4.096,4.065 -7.03,4.065 -5.331,0 -7.996,-3.227 -7.996,-9.681 v -13.881 h 7.075 v 13.252 c 0,3.249 1.288,4.874 3.863,4.874 1.272,0 2.291,-0.445 3.055,-1.337 0.764,-0.891 1.146,-2.1 1.146,-3.627 v -13.162 h 7.075 z"
       id="path50"
       inkscape:connector-curvature="0"
       style="fill:#ffffff" /><path
       d="m 268.778,185.727 h -7.075 V 172.61 c 0,-3.339 -1.228,-5.009 -3.684,-5.009 -1.168,0 -2.119,0.502 -2.853,1.505 -0.734,1.003 -1.101,2.254 -1.101,3.751 v 12.87 h -7.098 v -13.252 c 0,-3.249 -1.206,-4.874 -3.616,-4.874 -1.213,0 -2.183,0.479 -2.909,1.438 -0.727,0.958 -1.089,2.261 -1.089,3.908 v 12.78 h -7.098 v -23 h 7.098 v 3.594 h 0.09 c 0.733,-1.228 1.763,-2.228 3.088,-2.998 1.325,-0.771 2.774,-1.157 4.346,-1.157 3.249,0 5.473,1.43 6.671,4.29 1.752,-2.86 4.327,-4.29 7.727,-4.29 5.001,0 7.502,3.085 7.502,9.254 v 14.307 z"
       id="path52"
       inkscape:connector-curvature="0"
       style="fill:#ffffff" /></g></svg>